G04 #@! TF.GenerationSoftware,KiCad,Pcbnew,(5.1.9)-1*
G04 #@! TF.CreationDate,2024-08-30T09:44:18+09:00*
G04 #@! TF.ProjectId,MZ80k_SD,4d5a3830-6b5f-4534-942e-6b696361645f,rev?*
G04 #@! TF.SameCoordinates,PX53920b0PY93c3260*
G04 #@! TF.FileFunction,Copper,L1,Top*
G04 #@! TF.FilePolarity,Positive*
%FSLAX46Y46*%
G04 Gerber Fmt 4.6, Leading zero omitted, Abs format (unit mm)*
G04 Created by KiCad (PCBNEW (5.1.9)-1) date 2024-08-30 09:44:18*
%MOMM*%
%LPD*%
G01*
G04 APERTURE LIST*
G04 #@! TA.AperFunction,ComponentPad*
%ADD10R,1.700000X1.700000*%
G04 #@! TD*
G04 #@! TA.AperFunction,ComponentPad*
%ADD11O,1.700000X1.700000*%
G04 #@! TD*
G04 #@! TA.AperFunction,ComponentPad*
%ADD12C,1.600000*%
G04 #@! TD*
G04 #@! TA.AperFunction,ComponentPad*
%ADD13R,1.600000X2.400000*%
G04 #@! TD*
G04 #@! TA.AperFunction,ComponentPad*
%ADD14O,1.600000X2.400000*%
G04 #@! TD*
G04 #@! TA.AperFunction,ComponentPad*
%ADD15R,3.500000X3.500000*%
G04 #@! TD*
G04 #@! TA.AperFunction,ComponentPad*
%ADD16R,1.600000X1.600000*%
G04 #@! TD*
G04 #@! TA.AperFunction,ComponentPad*
%ADD17O,1.600000X1.600000*%
G04 #@! TD*
G04 #@! TA.AperFunction,ViaPad*
%ADD18C,0.500000*%
G04 #@! TD*
G04 #@! TA.AperFunction,Conductor*
%ADD19C,0.400000*%
G04 #@! TD*
G04 #@! TA.AperFunction,Conductor*
%ADD20C,0.200000*%
G04 #@! TD*
G04 #@! TA.AperFunction,Conductor*
%ADD21C,0.254000*%
G04 #@! TD*
G04 #@! TA.AperFunction,Conductor*
%ADD22C,0.100000*%
G04 #@! TD*
G04 APERTURE END LIST*
D10*
X10160000Y85725000D03*
D11*
X10160000Y88265000D03*
D10*
X66675000Y68580000D03*
D11*
X69215000Y68580000D03*
X71755000Y68580000D03*
X74295000Y68580000D03*
X76835000Y68580000D03*
X79375000Y68580000D03*
X81915000Y68580000D03*
X84455000Y68580000D03*
X86995000Y68580000D03*
X86995000Y96520000D03*
X86995000Y93980000D03*
X66675000Y96520000D03*
X66675000Y93980000D03*
D12*
X43815000Y16510000D03*
X43815000Y19010000D03*
D13*
X50800000Y73995000D03*
D14*
X17780000Y58755000D03*
X48260000Y73995000D03*
X20320000Y58755000D03*
X45720000Y73995000D03*
X22860000Y58755000D03*
X43180000Y73995000D03*
X25400000Y58755000D03*
X40640000Y73995000D03*
X27940000Y58755000D03*
X38100000Y73995000D03*
X30480000Y58755000D03*
X35560000Y73995000D03*
X33020000Y58755000D03*
X33020000Y73995000D03*
X35560000Y58755000D03*
X30480000Y73995000D03*
X38100000Y58755000D03*
X27940000Y73995000D03*
X40640000Y58755000D03*
X25400000Y73995000D03*
X43180000Y58755000D03*
X22860000Y73995000D03*
X45720000Y58755000D03*
X20320000Y73995000D03*
X48260000Y58755000D03*
X17780000Y73995000D03*
X50800000Y58755000D03*
D15*
X23495000Y85090000D03*
G04 #@! TA.AperFunction,ComponentPad*
G36*
G01*
X22495000Y92590000D02*
X24495000Y92590000D01*
G75*
G02*
X25245000Y91840000I0J-750000D01*
G01*
X25245000Y90340000D01*
G75*
G02*
X24495000Y89590000I-750000J0D01*
G01*
X22495000Y89590000D01*
G75*
G02*
X21745000Y90340000I0J750000D01*
G01*
X21745000Y91840000D01*
G75*
G02*
X22495000Y92590000I750000J0D01*
G01*
G37*
G04 #@! TD.AperFunction*
G04 #@! TA.AperFunction,ComponentPad*
G36*
G01*
X17920000Y89840000D02*
X19670000Y89840000D01*
G75*
G02*
X20545000Y88965000I0J-875000D01*
G01*
X20545000Y87215000D01*
G75*
G02*
X19670000Y86340000I-875000J0D01*
G01*
X17920000Y86340000D01*
G75*
G02*
X17045000Y87215000I0J875000D01*
G01*
X17045000Y88965000D01*
G75*
G02*
X17920000Y89840000I875000J0D01*
G01*
G37*
G04 #@! TD.AperFunction*
D10*
X8000000Y77500000D03*
D11*
X5460000Y77500000D03*
X8000000Y74960000D03*
X5460000Y74960000D03*
X8000000Y72420000D03*
X5460000Y72420000D03*
X8000000Y69880000D03*
X5460000Y69880000D03*
X8000000Y67340000D03*
X5460000Y67340000D03*
X8000000Y64800000D03*
X5460000Y64800000D03*
X8000000Y62260000D03*
X5460000Y62260000D03*
X8000000Y59720000D03*
X5460000Y59720000D03*
X8000000Y57180000D03*
X5460000Y57180000D03*
X8000000Y54640000D03*
X5460000Y54640000D03*
X8000000Y52100000D03*
X5460000Y52100000D03*
X8000000Y49560000D03*
X5460000Y49560000D03*
X8000000Y47020000D03*
X5460000Y47020000D03*
X8000000Y44480000D03*
X5460000Y44480000D03*
X8000000Y41940000D03*
X5460000Y41940000D03*
X8000000Y39400000D03*
X5460000Y39400000D03*
X8000000Y36860000D03*
X5460000Y36860000D03*
X8000000Y34320000D03*
X5460000Y34320000D03*
X8000000Y31780000D03*
X5460000Y31780000D03*
X8000000Y29240000D03*
X5460000Y29240000D03*
X8000000Y26700000D03*
X5460000Y26700000D03*
X8000000Y24160000D03*
X5460000Y24160000D03*
X8000000Y21620000D03*
X5460000Y21620000D03*
X8000000Y19080000D03*
X5460000Y19080000D03*
X8000000Y16540000D03*
X5460000Y16540000D03*
X49380000Y95885000D03*
X46840000Y95885000D03*
D10*
X44300000Y95885000D03*
D13*
X95885000Y26035000D03*
D14*
X47625000Y10795000D03*
X93345000Y26035000D03*
X50165000Y10795000D03*
X90805000Y26035000D03*
X52705000Y10795000D03*
X88265000Y26035000D03*
X55245000Y10795000D03*
X85725000Y26035000D03*
X57785000Y10795000D03*
X83185000Y26035000D03*
X60325000Y10795000D03*
X80645000Y26035000D03*
X62865000Y10795000D03*
X78105000Y26035000D03*
X65405000Y10795000D03*
X75565000Y26035000D03*
X67945000Y10795000D03*
X73025000Y26035000D03*
X70485000Y10795000D03*
X70485000Y26035000D03*
X73025000Y10795000D03*
X67945000Y26035000D03*
X75565000Y10795000D03*
X65405000Y26035000D03*
X78105000Y10795000D03*
X62865000Y26035000D03*
X80645000Y10795000D03*
X60325000Y26035000D03*
X83185000Y10795000D03*
X57785000Y26035000D03*
X85725000Y10795000D03*
X55245000Y26035000D03*
X88265000Y10795000D03*
X52705000Y26035000D03*
X90805000Y10795000D03*
X50165000Y26035000D03*
X93345000Y10795000D03*
X47625000Y26035000D03*
X95885000Y10795000D03*
D10*
X33330000Y95885000D03*
D11*
X35870000Y95885000D03*
X38410000Y95885000D03*
D12*
X54610000Y64770000D03*
X54610000Y67270000D03*
D16*
X37220000Y86170000D03*
D12*
X37220000Y83670000D03*
D16*
X87630000Y47625000D03*
D17*
X85090000Y47625000D03*
X82550000Y47625000D03*
X59690000Y32385000D03*
X80010000Y47625000D03*
X62230000Y32385000D03*
X77470000Y47625000D03*
X64770000Y32385000D03*
X74930000Y47625000D03*
X67310000Y32385000D03*
X72390000Y47625000D03*
X69850000Y32385000D03*
X69850000Y47625000D03*
X72390000Y32385000D03*
X67310000Y47625000D03*
X74930000Y32385000D03*
X64770000Y47625000D03*
X77470000Y32385000D03*
X62230000Y47625000D03*
X80010000Y32385000D03*
X59690000Y47625000D03*
X82550000Y32385000D03*
X85090000Y32385000D03*
X87630000Y32385000D03*
X78740000Y34925000D03*
X76200000Y34925000D03*
X68580000Y34925000D03*
X66040000Y34925000D03*
D12*
X40005000Y31750000D03*
X40005000Y29250000D03*
X40005000Y45125000D03*
X40005000Y47625000D03*
X40005000Y15875000D03*
X40005000Y13375000D03*
D14*
X36195000Y26670000D03*
X20955000Y34290000D03*
X33655000Y26670000D03*
X23495000Y34290000D03*
X31115000Y26670000D03*
X26035000Y34290000D03*
X28575000Y26670000D03*
X28575000Y34290000D03*
X26035000Y26670000D03*
X31115000Y34290000D03*
X23495000Y26670000D03*
X33655000Y34290000D03*
X20955000Y26670000D03*
D13*
X36195000Y34290000D03*
X36195000Y50165000D03*
D14*
X20955000Y42545000D03*
X33655000Y50165000D03*
X23495000Y42545000D03*
X31115000Y50165000D03*
X26035000Y42545000D03*
X28575000Y50165000D03*
X28575000Y42545000D03*
X26035000Y50165000D03*
X31115000Y42545000D03*
X23495000Y50165000D03*
X33655000Y42545000D03*
X20955000Y50165000D03*
X36195000Y42545000D03*
D13*
X36195000Y18415000D03*
D14*
X20955000Y10795000D03*
X33655000Y18415000D03*
X23495000Y10795000D03*
X31115000Y18415000D03*
X26035000Y10795000D03*
X28575000Y18415000D03*
X28575000Y10795000D03*
X26035000Y18415000D03*
X31115000Y10795000D03*
X23495000Y18415000D03*
X33655000Y10795000D03*
X20955000Y18415000D03*
X36195000Y10795000D03*
D10*
X70500000Y60500000D03*
D11*
X73040000Y60500000D03*
X75580000Y60500000D03*
X78120000Y60500000D03*
X80660000Y60500000D03*
X83200000Y60500000D03*
D12*
X90170000Y60960000D03*
D17*
X90170000Y53340000D03*
D10*
X55110000Y96000000D03*
D11*
X57650000Y96000000D03*
X60190000Y96000000D03*
D18*
X32817800Y45917300D03*
X35764500Y23072000D03*
X48966800Y28431700D03*
X28699900Y40865300D03*
X12417600Y59763800D03*
X11133500Y59391500D03*
X30785600Y64409600D03*
X24200200Y63973500D03*
X10583200Y61367400D03*
X37121400Y37825500D03*
X32894000Y67110000D03*
X29044200Y52829300D03*
X38304300Y48679700D03*
X37145400Y47561500D03*
X20955000Y67707400D03*
X15505400Y45393000D03*
X16931500Y55750700D03*
X19738800Y22890000D03*
X15268600Y25549700D03*
X39186800Y48783900D03*
D19*
X37220000Y86170000D02*
X38420300Y86170000D01*
X50800000Y73995000D02*
X50800000Y75595300D01*
X50800000Y75595300D02*
X48995000Y75595300D01*
X48995000Y75595300D02*
X38420300Y86170000D01*
X50800000Y73995000D02*
X50800000Y68580000D01*
X50800000Y68580000D02*
X54610000Y64770000D01*
X31115000Y42545000D02*
X31115000Y44145300D01*
X36845100Y43195100D02*
X35894900Y44145300D01*
X35894900Y44145300D02*
X31115000Y44145300D01*
X36845100Y43195100D02*
X36195000Y42545000D01*
X40005000Y45125000D02*
X38775000Y45125000D01*
X38775000Y45125000D02*
X36845100Y43195100D01*
X73040000Y60500000D02*
X74290300Y60500000D01*
X74290300Y60500000D02*
X74290300Y59953000D01*
X74290300Y59953000D02*
X75004400Y59238900D01*
X75004400Y59238900D02*
X88448900Y59238900D01*
X88448900Y59238900D02*
X90170000Y60960000D01*
X37220000Y86170000D02*
X37220000Y90542000D01*
X37220000Y90542000D02*
X35870000Y91892000D01*
X35870000Y91892000D02*
X35870000Y94634600D01*
X49380000Y95885000D02*
X48129700Y95885000D01*
X35870000Y94634600D02*
X35870000Y95885000D01*
X48129700Y95885000D02*
X48129700Y95338000D01*
X48129700Y95338000D02*
X47426300Y94634600D01*
X47426300Y94634600D02*
X35870000Y94634600D01*
X40005000Y13375000D02*
X38775000Y13375000D01*
X38775000Y13375000D02*
X36195000Y10795000D01*
X31115000Y10795000D02*
X31115000Y9194700D01*
X36195000Y10795000D02*
X36195000Y9194700D01*
X36195000Y9194700D02*
X31115000Y9194700D01*
X28575000Y42545000D02*
X31115000Y42545000D01*
X66675000Y68580000D02*
X65424700Y68580000D01*
X54610000Y63667500D02*
X60512200Y63667500D01*
X60512200Y63667500D02*
X65424700Y68580000D01*
X54610000Y63667500D02*
X54610000Y62565000D01*
X54610000Y62565000D02*
X50800000Y58755000D01*
X54610000Y64770000D02*
X54610000Y63667500D01*
X43815000Y16510000D02*
X54610000Y16510000D01*
X54610000Y16510000D02*
X60325000Y10795000D01*
X40005000Y29250000D02*
X38775000Y29250000D01*
X38775000Y29250000D02*
X36195000Y26670000D01*
X50800000Y58755000D02*
X48260000Y58755000D01*
X85090000Y32385000D02*
X85090000Y33585300D01*
X70500000Y60500000D02*
X71750300Y60500000D01*
X71750300Y60500000D02*
X71750300Y59955200D01*
X71750300Y59955200D02*
X72455800Y59249700D01*
X72455800Y59249700D02*
X72691100Y59249700D01*
X72691100Y59249700D02*
X83750400Y48190400D01*
X83750400Y48190400D02*
X83750400Y34924900D01*
X83750400Y34924900D02*
X85090000Y33585300D01*
X74295000Y67329700D02*
X70500000Y63534700D01*
X70500000Y63534700D02*
X70500000Y60500000D01*
X74295000Y68580000D02*
X74295000Y67329700D01*
X31115000Y34290000D02*
X31115000Y32689700D01*
X40005000Y31750000D02*
X32054700Y31750000D01*
X32054700Y31750000D02*
X31115000Y32689700D01*
X6822400Y17810000D02*
X20955000Y17810000D01*
X6710300Y16540000D02*
X6710300Y17697900D01*
X6710300Y17697900D02*
X6822400Y17810000D01*
X6710300Y19080000D02*
X6710300Y17922100D01*
X6710300Y17922100D02*
X6822400Y17810000D01*
X5460000Y19080000D02*
X6710300Y19080000D01*
X5460000Y16540000D02*
X6710300Y16540000D01*
X20955000Y17810000D02*
X20955000Y16964800D01*
X20955000Y18415000D02*
X20955000Y17810000D01*
X17780000Y73995000D02*
X17780000Y72394700D01*
X5460000Y72420000D02*
X6710300Y72420000D01*
X6710300Y72420000D02*
X6710300Y72967100D01*
X6710300Y72967100D02*
X7413500Y73670300D01*
X7413500Y73670300D02*
X16007200Y73670300D01*
X16007200Y73670300D02*
X17282800Y72394700D01*
X17282800Y72394700D02*
X17780000Y72394700D01*
X28534900Y86050100D02*
X23495000Y91090000D01*
X37220000Y83670000D02*
X30915000Y83670000D01*
X30915000Y83670000D02*
X28534900Y86050100D01*
X17780000Y75595300D02*
X18080100Y75595300D01*
X18080100Y75595300D02*
X28534900Y86050100D01*
X17780000Y73995000D02*
X17780000Y75595300D01*
X6730000Y49022200D02*
X5978100Y48270300D01*
X5978100Y48270300D02*
X5460000Y48270300D01*
X5460000Y55929700D02*
X6007000Y55929700D01*
X6007000Y55929700D02*
X6730000Y55206700D01*
X6730000Y55206700D02*
X6730000Y49022200D01*
X6730000Y49022200D02*
X7462200Y48290000D01*
X7462200Y48290000D02*
X20680300Y48290000D01*
X20680300Y48290000D02*
X20955000Y48564700D01*
X20955000Y50165000D02*
X20955000Y48564700D01*
X5460000Y47020000D02*
X5460000Y48270300D01*
X5460000Y57180000D02*
X5460000Y55929700D01*
X20955000Y16964800D02*
X22044800Y15875000D01*
X22044800Y15875000D02*
X40005000Y15875000D01*
X40005000Y15875000D02*
X43140000Y19010000D01*
X43140000Y19010000D02*
X43815000Y19010000D01*
D20*
X10160000Y85725000D02*
X11310300Y85725000D01*
X33330000Y95885000D02*
X21470300Y95885000D01*
X21470300Y95885000D02*
X11310300Y85725000D01*
X95885000Y26035000D02*
X95885000Y27535300D01*
X78740000Y34925000D02*
X81575800Y34925000D01*
X81575800Y34925000D02*
X83820000Y32680800D01*
X83820000Y32680800D02*
X83820000Y32069900D01*
X83820000Y32069900D02*
X84605200Y31284700D01*
X84605200Y31284700D02*
X92135600Y31284700D01*
X92135600Y31284700D02*
X95885000Y27535300D01*
X93345000Y26035000D02*
X93345000Y27535300D01*
X76200000Y34925000D02*
X77300300Y34925000D01*
X77300300Y34925000D02*
X77300300Y34787300D01*
X77300300Y34787300D02*
X78262900Y33824700D01*
X78262900Y33824700D02*
X80193600Y33824700D01*
X80193600Y33824700D02*
X81280000Y32738300D01*
X81280000Y32738300D02*
X81280000Y32033300D01*
X81280000Y32033300D02*
X83961900Y29351400D01*
X83961900Y29351400D02*
X91528900Y29351400D01*
X91528900Y29351400D02*
X93345000Y27535300D01*
X90805000Y27535300D02*
X89604100Y28736200D01*
X89604100Y28736200D02*
X82081600Y28736200D01*
X82081600Y28736200D02*
X78570300Y32247500D01*
X78570300Y32247500D02*
X78570300Y32385000D01*
X90805000Y26035000D02*
X90805000Y27535300D01*
X77470000Y32385000D02*
X78570300Y32385000D01*
X88265000Y27535300D02*
X87498600Y28301700D01*
X87498600Y28301700D02*
X79976100Y28301700D01*
X79976100Y28301700D02*
X76030300Y32247500D01*
X76030300Y32247500D02*
X76030300Y32385000D01*
X88265000Y26035000D02*
X88265000Y27535300D01*
X74930000Y32385000D02*
X76030300Y32385000D01*
X71289700Y32385000D02*
X71289700Y32247300D01*
X71289700Y32247300D02*
X66577700Y27535300D01*
X66577700Y27535300D02*
X57785000Y27535300D01*
X57785000Y26035000D02*
X57785000Y27535300D01*
X72390000Y32385000D02*
X71289700Y32385000D01*
X26035000Y50165000D02*
X26035000Y48664700D01*
X26035000Y48664700D02*
X30070400Y48664700D01*
X30070400Y48664700D02*
X32817800Y45917300D01*
X20955000Y25169700D02*
X23052700Y23072000D01*
X23052700Y23072000D02*
X35764500Y23072000D01*
X20955000Y26670000D02*
X20955000Y25169700D01*
X68749700Y47625000D02*
X68749700Y47487500D01*
X68749700Y47487500D02*
X49693900Y28431700D01*
X49693900Y28431700D02*
X48966800Y28431700D01*
X69850000Y47625000D02*
X68749700Y47625000D01*
X73025000Y26035000D02*
X73025000Y27535300D01*
X69850000Y32385000D02*
X70968900Y33503900D01*
X70968900Y33503900D02*
X72882700Y33503900D01*
X72882700Y33503900D02*
X73501200Y32885400D01*
X73501200Y32885400D02*
X73501200Y28011500D01*
X73501200Y28011500D02*
X73025000Y27535300D01*
X52705000Y26035000D02*
X52705000Y27535300D01*
X77470000Y47625000D02*
X76369700Y47625000D01*
X76369700Y47625000D02*
X76369700Y47487500D01*
X76369700Y47487500D02*
X65001900Y36119700D01*
X65001900Y36119700D02*
X61289400Y36119700D01*
X61289400Y36119700D02*
X52705000Y27535300D01*
X74930000Y47625000D02*
X73829700Y47625000D01*
X73829700Y47625000D02*
X73829700Y47487300D01*
X73829700Y47487300D02*
X72867100Y46524700D01*
X72867100Y46524700D02*
X71009700Y46524700D01*
X71009700Y46524700D02*
X50520000Y26035000D01*
X50520000Y26035000D02*
X50165000Y26035000D01*
X47625000Y26035000D02*
X47625000Y27535300D01*
X72390000Y47625000D02*
X71289700Y47625000D01*
X71289700Y47625000D02*
X71289700Y47487300D01*
X71289700Y47487300D02*
X51337700Y27535300D01*
X51337700Y27535300D02*
X47625000Y27535300D01*
X81449700Y47625000D02*
X81449700Y47819500D01*
X81449700Y47819500D02*
X80511500Y48757700D01*
X80511500Y48757700D02*
X57497300Y48757700D01*
X57497300Y48757700D02*
X49604900Y40865300D01*
X49604900Y40865300D02*
X28699900Y40865300D01*
X82550000Y47625000D02*
X81449700Y47625000D01*
X12417600Y59763800D02*
X12417600Y59486400D01*
X12417600Y59486400D02*
X16756100Y55147900D01*
X16756100Y55147900D02*
X32712400Y55147900D01*
X32712400Y55147900D02*
X36195000Y51665300D01*
X36195000Y50165000D02*
X36195000Y51665300D01*
X33655000Y50165000D02*
X33655000Y51665300D01*
X33655000Y51665300D02*
X31197900Y54122400D01*
X31197900Y54122400D02*
X16402600Y54122400D01*
X16402600Y54122400D02*
X11133500Y59391500D01*
X8000000Y72420000D02*
X9150300Y72420000D01*
X30785600Y64409600D02*
X28212400Y66982800D01*
X28212400Y66982800D02*
X14587500Y66982800D01*
X14587500Y66982800D02*
X9150300Y72420000D01*
X8000000Y69880000D02*
X9150300Y69880000D01*
X24200200Y63973500D02*
X15056800Y63973500D01*
X15056800Y63973500D02*
X9150300Y69880000D01*
X5460000Y68729700D02*
X5698300Y68729700D01*
X5698300Y68729700D02*
X6635100Y67792900D01*
X6635100Y67792900D02*
X6635100Y61774000D01*
X6635100Y61774000D02*
X5970700Y61109600D01*
X5970700Y61109600D02*
X5211200Y61109600D01*
X5211200Y61109600D02*
X4290000Y60188400D01*
X4290000Y60188400D02*
X4290000Y46546400D01*
X4290000Y46546400D02*
X5086400Y45750000D01*
X5086400Y45750000D02*
X14252300Y45750000D01*
X14252300Y45750000D02*
X19961400Y40040900D01*
X19961400Y40040900D02*
X23423300Y40040900D01*
X23423300Y40040900D02*
X27673900Y35790300D01*
X27673900Y35790300D02*
X36195000Y35790300D01*
X5460000Y69880000D02*
X5460000Y68729700D01*
X36195000Y34290000D02*
X36195000Y35790300D01*
X9150300Y67340000D02*
X13067100Y63423200D01*
X13067100Y63423200D02*
X34932100Y63423200D01*
X34932100Y63423200D02*
X38100000Y60255300D01*
X8000000Y67340000D02*
X9150300Y67340000D01*
X38100000Y58755000D02*
X38100000Y60255300D01*
X10583200Y61367400D02*
X31907900Y61367400D01*
X31907900Y61367400D02*
X33020000Y60255300D01*
X33020000Y58755000D02*
X33020000Y60255300D01*
X5460000Y64800000D02*
X5460000Y63649700D01*
X33655000Y26670000D02*
X33655000Y25169700D01*
X33655000Y25169700D02*
X23024700Y25169700D01*
X23024700Y25169700D02*
X22225000Y25969400D01*
X22225000Y25969400D02*
X22225000Y27388000D01*
X22225000Y27388000D02*
X14023000Y35590000D01*
X14023000Y35590000D02*
X5030500Y35590000D01*
X5030500Y35590000D02*
X3889600Y36730900D01*
X3889600Y36730900D02*
X3889600Y62317700D01*
X3889600Y62317700D02*
X5221600Y63649700D01*
X5221600Y63649700D02*
X5460000Y63649700D01*
X40640000Y58755000D02*
X40640000Y57254700D01*
X8000000Y62260000D02*
X9150300Y62260000D01*
X9150300Y62260000D02*
X9208400Y62318100D01*
X9208400Y62318100D02*
X33995800Y62318100D01*
X33995800Y62318100D02*
X36830000Y59483900D01*
X36830000Y59483900D02*
X36830000Y58050500D01*
X36830000Y58050500D02*
X37625800Y57254700D01*
X37625800Y57254700D02*
X40640000Y57254700D01*
X43180000Y58755000D02*
X43180000Y57254700D01*
X8000000Y59720000D02*
X9150300Y59720000D01*
X9150300Y59720000D02*
X9757200Y60326900D01*
X9757200Y60326900D02*
X30878500Y60326900D01*
X30878500Y60326900D02*
X31750000Y59455400D01*
X31750000Y59455400D02*
X31750000Y58048800D01*
X31750000Y58048800D02*
X32972200Y56826600D01*
X32972200Y56826600D02*
X42751900Y56826600D01*
X42751900Y56826600D02*
X43180000Y57254700D01*
X85725000Y26035000D02*
X85725000Y27535300D01*
X85725000Y27535300D02*
X75036600Y27535300D01*
X75036600Y27535300D02*
X74295000Y26793700D01*
X74295000Y26793700D02*
X74295000Y25346100D01*
X74295000Y25346100D02*
X73483600Y24534700D01*
X73483600Y24534700D02*
X47167600Y24534700D01*
X47167600Y24534700D02*
X46524700Y25177600D01*
X46524700Y25177600D02*
X46524700Y28422200D01*
X46524700Y28422200D02*
X37121400Y37825500D01*
X6610300Y59720000D02*
X6610300Y59958400D01*
X6610300Y59958400D02*
X7761500Y61109600D01*
X7761500Y61109600D02*
X9430100Y61109600D01*
X9430100Y61109600D02*
X10238200Y61917700D01*
X10238200Y61917700D02*
X32397300Y61917700D01*
X32397300Y61917700D02*
X35560000Y58755000D01*
X5460000Y59720000D02*
X6610300Y59720000D01*
X9150300Y54640000D02*
X10961000Y52829300D01*
X10961000Y52829300D02*
X29044200Y52829300D01*
X43180000Y73995000D02*
X43180000Y72494700D01*
X32894000Y67110000D02*
X37795300Y67110000D01*
X37795300Y67110000D02*
X43180000Y72494700D01*
X8000000Y54640000D02*
X9150300Y54640000D01*
X9150300Y49560000D02*
X11256100Y51665800D01*
X11256100Y51665800D02*
X31594200Y51665800D01*
X31594200Y51665800D02*
X32385000Y50875000D01*
X32385000Y50875000D02*
X32385000Y49470900D01*
X32385000Y49470900D02*
X33247000Y48608900D01*
X33247000Y48608900D02*
X38233500Y48608900D01*
X38233500Y48608900D02*
X38304300Y48679700D01*
X8000000Y49560000D02*
X9150300Y49560000D01*
X9150300Y47020000D02*
X30936900Y47020000D01*
X30936900Y47020000D02*
X32595100Y45361800D01*
X32595100Y45361800D02*
X34945700Y45361800D01*
X34945700Y45361800D02*
X37145400Y47561500D01*
X8000000Y47020000D02*
X9150300Y47020000D01*
X8000000Y43329700D02*
X7761600Y43329700D01*
X7761600Y43329700D02*
X6730000Y42298100D01*
X6730000Y42298100D02*
X6730000Y41521500D01*
X6730000Y41521500D02*
X5998100Y40789600D01*
X5998100Y40789600D02*
X5212900Y40789600D01*
X5212900Y40789600D02*
X4293400Y39870100D01*
X4293400Y39870100D02*
X4293400Y38869700D01*
X4293400Y38869700D02*
X5033100Y38130000D01*
X5033100Y38130000D02*
X13535300Y38130000D01*
X13535300Y38130000D02*
X23495000Y28170300D01*
X8000000Y44480000D02*
X8000000Y43329700D01*
X23495000Y26670000D02*
X23495000Y28170300D01*
X8000000Y41940000D02*
X17222400Y41940000D01*
X17222400Y41940000D02*
X19780400Y39382000D01*
X19780400Y39382000D02*
X22935800Y39382000D01*
X22935800Y39382000D02*
X27218600Y35099200D01*
X27218600Y35099200D02*
X27218600Y33628500D01*
X27218600Y33628500D02*
X30347100Y30500000D01*
X30347100Y30500000D02*
X40347300Y30500000D01*
X40347300Y30500000D02*
X44711500Y26135800D01*
X44711500Y26135800D02*
X44711500Y25782000D01*
X44711500Y25782000D02*
X46784400Y23709100D01*
X46784400Y23709100D02*
X77279400Y23709100D01*
X77279400Y23709100D02*
X78105000Y24534700D01*
X30480000Y73995000D02*
X30480000Y72494700D01*
X20955000Y67707400D02*
X25692700Y67707400D01*
X25692700Y67707400D02*
X30480000Y72494700D01*
X78105000Y26035000D02*
X78105000Y24534700D01*
X15505400Y45393000D02*
X20184400Y40714000D01*
X20184400Y40714000D02*
X23599300Y40714000D01*
X23599300Y40714000D02*
X24072300Y40241000D01*
X24072300Y40241000D02*
X33085300Y40241000D01*
X33085300Y40241000D02*
X46124300Y27202000D01*
X46124300Y27202000D02*
X46124300Y25011800D01*
X46124300Y25011800D02*
X47001700Y24134400D01*
X47001700Y24134400D02*
X75164700Y24134400D01*
X75164700Y24134400D02*
X75565000Y24534700D01*
X75565000Y26035000D02*
X75565000Y24534700D01*
X26035000Y32789700D02*
X29548000Y29276700D01*
X29548000Y29276700D02*
X33004700Y29276700D01*
X33004700Y29276700D02*
X34925000Y27356400D01*
X34925000Y27356400D02*
X34925000Y25983700D01*
X34925000Y25983700D02*
X37975200Y22933500D01*
X37975200Y22933500D02*
X72546800Y22933500D01*
X72546800Y22933500D02*
X83185000Y12295300D01*
X26035000Y34290000D02*
X26035000Y32789700D01*
X6610300Y39400000D02*
X6610300Y39638400D01*
X6610300Y39638400D02*
X7561300Y40589400D01*
X7561300Y40589400D02*
X10216500Y40589400D01*
X10216500Y40589400D02*
X12155700Y38650200D01*
X12155700Y38650200D02*
X21674800Y38650200D01*
X21674800Y38650200D02*
X26035000Y34290000D01*
X83185000Y10795000D02*
X83185000Y12295300D01*
X5460000Y39400000D02*
X6610300Y39400000D01*
X8000000Y33169700D02*
X7761600Y33169700D01*
X7761600Y33169700D02*
X6730000Y32138100D01*
X6730000Y32138100D02*
X6730000Y31361500D01*
X6730000Y31361500D02*
X5998100Y30629600D01*
X5998100Y30629600D02*
X5196600Y30629600D01*
X5196600Y30629600D02*
X3856200Y29289200D01*
X3856200Y29289200D02*
X3856200Y24061700D01*
X3856200Y24061700D02*
X5027900Y22890000D01*
X5027900Y22890000D02*
X5878500Y22890000D01*
X5878500Y22890000D02*
X6610400Y22158100D01*
X6610400Y22158100D02*
X6610400Y21321100D01*
X6610400Y21321100D02*
X7461900Y20469600D01*
X7461900Y20469600D02*
X42307600Y20469600D01*
X42307600Y20469600D02*
X42357700Y20519700D01*
X42357700Y20519700D02*
X53140300Y20519700D01*
X53140300Y20519700D02*
X62865000Y10795000D01*
X27940000Y58755000D02*
X27940000Y57254700D01*
X16931500Y55750700D02*
X26436000Y55750700D01*
X26436000Y55750700D02*
X27940000Y57254700D01*
X8000000Y34320000D02*
X8000000Y33169700D01*
X19738800Y22890000D02*
X21308200Y21320600D01*
X21308200Y21320600D02*
X56379700Y21320600D01*
X56379700Y21320600D02*
X65405000Y12295300D01*
X65405000Y10795000D02*
X65405000Y12295300D01*
X8000000Y30629700D02*
X7761600Y30629700D01*
X7761600Y30629700D02*
X6610400Y29478500D01*
X6610400Y29478500D02*
X6610400Y28735000D01*
X6610400Y28735000D02*
X5965000Y28089600D01*
X5965000Y28089600D02*
X5194500Y28089600D01*
X5194500Y28089600D02*
X4307700Y27202800D01*
X4307700Y27202800D02*
X4307700Y26225100D01*
X4307700Y26225100D02*
X5102800Y25430000D01*
X5102800Y25430000D02*
X5854200Y25430000D01*
X5854200Y25430000D02*
X6621400Y24662800D01*
X6621400Y24662800D02*
X6621400Y23907300D01*
X6621400Y23907300D02*
X7638700Y22890000D01*
X7638700Y22890000D02*
X19738800Y22890000D01*
X8000000Y31780000D02*
X8000000Y30629700D01*
X67945000Y12295300D02*
X58119000Y22121300D01*
X58119000Y22121300D02*
X22002800Y22121300D01*
X22002800Y22121300D02*
X18574400Y25549700D01*
X18574400Y25549700D02*
X15268600Y25549700D01*
X67945000Y10795000D02*
X67945000Y12295300D01*
X8000000Y28089700D02*
X7761600Y28089700D01*
X7761600Y28089700D02*
X6821500Y27149600D01*
X6821500Y27149600D02*
X6821500Y26190000D01*
X6821500Y26190000D02*
X7461800Y25549700D01*
X7461800Y25549700D02*
X15268600Y25549700D01*
X8000000Y29240000D02*
X8000000Y28089700D01*
X70485000Y12295300D02*
X60258700Y22521600D01*
X60258700Y22521600D02*
X22168600Y22521600D01*
X22168600Y22521600D02*
X17990200Y26700000D01*
X17990200Y26700000D02*
X9150300Y26700000D01*
X8000000Y26700000D02*
X9150300Y26700000D01*
X70485000Y10795000D02*
X70485000Y12295300D01*
X73025000Y10795000D02*
X73025000Y9294700D01*
X8000000Y24160000D02*
X9150300Y24160000D01*
X73025000Y9294700D02*
X67484600Y9294700D01*
X67484600Y9294700D02*
X66588600Y10190700D01*
X66588600Y10190700D02*
X66588600Y11732500D01*
X66588600Y11732500D02*
X56600100Y21721000D01*
X56600100Y21721000D02*
X21837000Y21721000D01*
X21837000Y21721000D02*
X19398000Y24160000D01*
X19398000Y24160000D02*
X9150300Y24160000D01*
X9150300Y21620000D02*
X9850000Y20920300D01*
X9850000Y20920300D02*
X54759900Y20920300D01*
X54759900Y20920300D02*
X64135000Y11545200D01*
X64135000Y11545200D02*
X64135000Y10064000D01*
X64135000Y10064000D02*
X65304600Y8894400D01*
X65304600Y8894400D02*
X75164700Y8894400D01*
X75164700Y8894400D02*
X75565000Y9294700D01*
X8000000Y21620000D02*
X9150300Y21620000D01*
X75565000Y10795000D02*
X75565000Y9294700D01*
X9150300Y19080000D02*
X10139500Y20069200D01*
X10139500Y20069200D02*
X42673600Y20069200D01*
X42673600Y20069200D02*
X42723800Y20119400D01*
X42723800Y20119400D02*
X52974300Y20119400D01*
X52974300Y20119400D02*
X61736700Y11357000D01*
X61736700Y11357000D02*
X61736700Y9955100D01*
X61736700Y9955100D02*
X63197700Y8494100D01*
X63197700Y8494100D02*
X77304400Y8494100D01*
X77304400Y8494100D02*
X78105000Y9294700D01*
X8000000Y19080000D02*
X9150300Y19080000D01*
X78105000Y10795000D02*
X78105000Y9294700D01*
X9150300Y16540000D02*
X17596500Y8093800D01*
X17596500Y8093800D02*
X79444100Y8093800D01*
X79444100Y8093800D02*
X80645000Y9294700D01*
X8000000Y16540000D02*
X9150300Y16540000D01*
X80645000Y10795000D02*
X80645000Y9294700D01*
X79375000Y68580000D02*
X79375000Y67429700D01*
X75580000Y60500000D02*
X75580000Y63634700D01*
X75580000Y63634700D02*
X79375000Y67429700D01*
X78120000Y60500000D02*
X78120000Y61650300D01*
X78120000Y61650300D02*
X81915000Y65445300D01*
X81915000Y65445300D02*
X81915000Y68580000D01*
X67825400Y69762100D02*
X67825400Y67532800D01*
X67825400Y67532800D02*
X56691000Y56398400D01*
X56691000Y56398400D02*
X31336300Y56398400D01*
X31336300Y56398400D02*
X30480000Y57254700D01*
X57650000Y94849700D02*
X67825400Y84674300D01*
X67825400Y84674300D02*
X67825400Y69762100D01*
X67825400Y69762100D02*
X82407100Y69762100D01*
X82407100Y69762100D02*
X83185000Y68984200D01*
X83185000Y68984200D02*
X83185000Y68153300D01*
X83185000Y68153300D02*
X88229300Y63109000D01*
X88229300Y63109000D02*
X89590000Y63109000D01*
X89590000Y63109000D02*
X91291100Y61407900D01*
X91291100Y61407900D02*
X91291100Y55561400D01*
X91291100Y55561400D02*
X90170000Y54440300D01*
X90170000Y53340000D02*
X90170000Y54440300D01*
X30480000Y58755000D02*
X30480000Y57254700D01*
X57650000Y96000000D02*
X57650000Y94849700D01*
X20955000Y44045300D02*
X21710700Y44801000D01*
X21710700Y44801000D02*
X35203900Y44801000D01*
X35203900Y44801000D02*
X39186800Y48783900D01*
X20955000Y42545000D02*
X20955000Y44045300D01*
D21*
X99340000Y660000D02*
X660000Y660000D01*
X660000Y5220128D01*
X2765000Y5220128D01*
X2765000Y4779872D01*
X2850890Y4348075D01*
X3019369Y3941331D01*
X3263962Y3575271D01*
X3575271Y3263962D01*
X3941331Y3019369D01*
X4348075Y2850890D01*
X4779872Y2765000D01*
X5220128Y2765000D01*
X5651925Y2850890D01*
X6058669Y3019369D01*
X6424729Y3263962D01*
X6736038Y3575271D01*
X6980631Y3941331D01*
X7149110Y4348075D01*
X7235000Y4779872D01*
X7235000Y5220128D01*
X92765000Y5220128D01*
X92765000Y4779872D01*
X92850890Y4348075D01*
X93019369Y3941331D01*
X93263962Y3575271D01*
X93575271Y3263962D01*
X93941331Y3019369D01*
X94348075Y2850890D01*
X94779872Y2765000D01*
X95220128Y2765000D01*
X95651925Y2850890D01*
X96058669Y3019369D01*
X96424729Y3263962D01*
X96736038Y3575271D01*
X96980631Y3941331D01*
X97149110Y4348075D01*
X97235000Y4779872D01*
X97235000Y5220128D01*
X97149110Y5651925D01*
X96980631Y6058669D01*
X96736038Y6424729D01*
X96424729Y6736038D01*
X96058669Y6980631D01*
X95651925Y7149110D01*
X95220128Y7235000D01*
X94779872Y7235000D01*
X94348075Y7149110D01*
X93941331Y6980631D01*
X93575271Y6736038D01*
X93263962Y6424729D01*
X93019369Y6058669D01*
X92850890Y5651925D01*
X92765000Y5220128D01*
X7235000Y5220128D01*
X7149110Y5651925D01*
X6980631Y6058669D01*
X6736038Y6424729D01*
X6424729Y6736038D01*
X6058669Y6980631D01*
X5651925Y7149110D01*
X5220128Y7235000D01*
X4779872Y7235000D01*
X4348075Y7149110D01*
X3941331Y6980631D01*
X3575271Y6736038D01*
X3263962Y6424729D01*
X3019369Y6058669D01*
X2850890Y5651925D01*
X2765000Y5220128D01*
X660000Y5220128D01*
X660000Y16183110D01*
X4018524Y16183110D01*
X4063175Y16035901D01*
X4188359Y15773080D01*
X4362412Y15539731D01*
X4578645Y15344822D01*
X4828748Y15195843D01*
X5103109Y15098519D01*
X5333000Y15219186D01*
X5333000Y16413000D01*
X4139845Y16413000D01*
X4018524Y16183110D01*
X660000Y16183110D01*
X660000Y18723110D01*
X4018524Y18723110D01*
X4063175Y18575901D01*
X4188359Y18313080D01*
X4362412Y18079731D01*
X4578645Y17884822D01*
X4704255Y17810000D01*
X4578645Y17735178D01*
X4362412Y17540269D01*
X4188359Y17306920D01*
X4063175Y17044099D01*
X4018524Y16896890D01*
X4139845Y16667000D01*
X5333000Y16667000D01*
X5333000Y18953000D01*
X4139845Y18953000D01*
X4018524Y18723110D01*
X660000Y18723110D01*
X660000Y21263110D01*
X4018524Y21263110D01*
X4063175Y21115901D01*
X4188359Y20853080D01*
X4362412Y20619731D01*
X4578645Y20424822D01*
X4704255Y20350000D01*
X4578645Y20275178D01*
X4362412Y20080269D01*
X4188359Y19846920D01*
X4063175Y19584099D01*
X4018524Y19436890D01*
X4139845Y19207000D01*
X5333000Y19207000D01*
X5333000Y21493000D01*
X4139845Y21493000D01*
X4018524Y21263110D01*
X660000Y21263110D01*
X660000Y29289200D01*
X3117644Y29289200D01*
X3121200Y29253095D01*
X3121201Y24097815D01*
X3117644Y24061700D01*
X3131835Y23917615D01*
X3167605Y23799700D01*
X3173864Y23779067D01*
X3242114Y23651380D01*
X3333963Y23539462D01*
X3362008Y23516446D01*
X4317883Y22560570D01*
X4188359Y22386920D01*
X4063175Y22124099D01*
X4018524Y21976890D01*
X4139845Y21747000D01*
X5333000Y21747000D01*
X5333000Y21767000D01*
X5587000Y21767000D01*
X5587000Y21747000D01*
X5607000Y21747000D01*
X5607000Y21493000D01*
X5587000Y21493000D01*
X5587000Y19207000D01*
X5607000Y19207000D01*
X5607000Y18953000D01*
X5587000Y18953000D01*
X5587000Y16667000D01*
X5607000Y16667000D01*
X5607000Y16413000D01*
X5587000Y16413000D01*
X5587000Y15219186D01*
X5816891Y15098519D01*
X6091252Y15195843D01*
X6341355Y15344822D01*
X6557588Y15539731D01*
X6728900Y15769406D01*
X6846525Y15593368D01*
X7053368Y15386525D01*
X7296589Y15224010D01*
X7566842Y15112068D01*
X7853740Y15055000D01*
X8146260Y15055000D01*
X8433158Y15112068D01*
X8703411Y15224010D01*
X8946632Y15386525D01*
X9105480Y15545373D01*
X17051246Y7599607D01*
X17074262Y7571562D01*
X17102306Y7548547D01*
X17186180Y7479713D01*
X17313866Y7411463D01*
X17452415Y7369435D01*
X17596500Y7355244D01*
X17632605Y7358800D01*
X79407995Y7358800D01*
X79444100Y7355244D01*
X79480205Y7358800D01*
X79588185Y7369435D01*
X79726733Y7411463D01*
X79854420Y7479713D01*
X79966338Y7571562D01*
X79989358Y7599612D01*
X81139194Y8749447D01*
X81167238Y8772462D01*
X81259087Y8884380D01*
X81327337Y9012067D01*
X81369365Y9150615D01*
X81369826Y9155299D01*
X81446100Y9196068D01*
X81664607Y9375392D01*
X81843932Y9593899D01*
X81915000Y9726858D01*
X81986068Y9593900D01*
X82165392Y9375393D01*
X82383899Y9196068D01*
X82633192Y9062818D01*
X82903691Y8980764D01*
X83185000Y8953057D01*
X83466308Y8980764D01*
X83736807Y9062818D01*
X83986100Y9196068D01*
X84204607Y9375392D01*
X84383932Y9593899D01*
X84455000Y9726858D01*
X84526068Y9593900D01*
X84705392Y9375393D01*
X84923899Y9196068D01*
X85173192Y9062818D01*
X85443691Y8980764D01*
X85725000Y8953057D01*
X86006308Y8980764D01*
X86276807Y9062818D01*
X86526100Y9196068D01*
X86744607Y9375392D01*
X86923932Y9593899D01*
X86995000Y9726858D01*
X87066068Y9593900D01*
X87245392Y9375393D01*
X87463899Y9196068D01*
X87713192Y9062818D01*
X87983691Y8980764D01*
X88265000Y8953057D01*
X88546308Y8980764D01*
X88816807Y9062818D01*
X89066100Y9196068D01*
X89284607Y9375392D01*
X89463932Y9593899D01*
X89535000Y9726858D01*
X89606068Y9593900D01*
X89785392Y9375393D01*
X90003899Y9196068D01*
X90253192Y9062818D01*
X90523691Y8980764D01*
X90805000Y8953057D01*
X91086308Y8980764D01*
X91356807Y9062818D01*
X91606100Y9196068D01*
X91824607Y9375392D01*
X92003932Y9593899D01*
X92075000Y9726858D01*
X92146068Y9593900D01*
X92325392Y9375393D01*
X92543899Y9196068D01*
X92793192Y9062818D01*
X93063691Y8980764D01*
X93345000Y8953057D01*
X93626308Y8980764D01*
X93896807Y9062818D01*
X94146100Y9196068D01*
X94364607Y9375392D01*
X94543932Y9593899D01*
X94615000Y9726858D01*
X94686068Y9593900D01*
X94865392Y9375393D01*
X95083899Y9196068D01*
X95333192Y9062818D01*
X95603691Y8980764D01*
X95885000Y8953057D01*
X96166308Y8980764D01*
X96436807Y9062818D01*
X96686100Y9196068D01*
X96904607Y9375392D01*
X97083932Y9593899D01*
X97217182Y9843192D01*
X97299236Y10113691D01*
X97320000Y10324508D01*
X97320000Y11265491D01*
X97299236Y11476309D01*
X97217182Y11746808D01*
X97083932Y11996101D01*
X96904608Y12214608D01*
X96686101Y12393932D01*
X96436808Y12527182D01*
X96166309Y12609236D01*
X95885000Y12636943D01*
X95603692Y12609236D01*
X95333193Y12527182D01*
X95083900Y12393932D01*
X94865393Y12214608D01*
X94686068Y11996101D01*
X94615000Y11863142D01*
X94543932Y11996101D01*
X94364608Y12214608D01*
X94146101Y12393932D01*
X93896808Y12527182D01*
X93626309Y12609236D01*
X93345000Y12636943D01*
X93063692Y12609236D01*
X92793193Y12527182D01*
X92543900Y12393932D01*
X92325393Y12214608D01*
X92146068Y11996101D01*
X92075000Y11863142D01*
X92003932Y11996101D01*
X91824608Y12214608D01*
X91606101Y12393932D01*
X91356808Y12527182D01*
X91086309Y12609236D01*
X90805000Y12636943D01*
X90523692Y12609236D01*
X90253193Y12527182D01*
X90003900Y12393932D01*
X89785393Y12214608D01*
X89606068Y11996101D01*
X89535000Y11863142D01*
X89463932Y11996101D01*
X89284608Y12214608D01*
X89066101Y12393932D01*
X88816808Y12527182D01*
X88546309Y12609236D01*
X88265000Y12636943D01*
X87983692Y12609236D01*
X87713193Y12527182D01*
X87463900Y12393932D01*
X87245393Y12214608D01*
X87066068Y11996101D01*
X86995000Y11863142D01*
X86923932Y11996101D01*
X86744608Y12214608D01*
X86526101Y12393932D01*
X86276808Y12527182D01*
X86006309Y12609236D01*
X85725000Y12636943D01*
X85443692Y12609236D01*
X85173193Y12527182D01*
X84923900Y12393932D01*
X84705393Y12214608D01*
X84526068Y11996101D01*
X84455000Y11863142D01*
X84383932Y11996101D01*
X84204608Y12214608D01*
X83986101Y12393932D01*
X83909826Y12434702D01*
X83909365Y12439385D01*
X83867337Y12577934D01*
X83799087Y12705620D01*
X83730253Y12789494D01*
X83707238Y12817538D01*
X83679193Y12840554D01*
X73545646Y22974100D01*
X77243295Y22974100D01*
X77279400Y22970544D01*
X77315505Y22974100D01*
X77423485Y22984735D01*
X77562033Y23026763D01*
X77689720Y23095013D01*
X77801638Y23186862D01*
X77824658Y23214912D01*
X78599194Y23989447D01*
X78627238Y24012462D01*
X78719087Y24124380D01*
X78724443Y24134400D01*
X78787337Y24252066D01*
X78829365Y24390615D01*
X78829826Y24395299D01*
X78906100Y24436068D01*
X79124607Y24615392D01*
X79303932Y24833899D01*
X79372265Y24961741D01*
X79522399Y24732161D01*
X79720105Y24530500D01*
X79953354Y24371285D01*
X80213182Y24260633D01*
X80295961Y24243096D01*
X80518000Y24365085D01*
X80518000Y25908000D01*
X80498000Y25908000D01*
X80498000Y26162000D01*
X80518000Y26162000D01*
X80518000Y26182000D01*
X80772000Y26182000D01*
X80772000Y26162000D01*
X80792000Y26162000D01*
X80792000Y25908000D01*
X80772000Y25908000D01*
X80772000Y24365085D01*
X80994039Y24243096D01*
X81076818Y24260633D01*
X81336646Y24371285D01*
X81569895Y24530500D01*
X81767601Y24732161D01*
X81917735Y24961742D01*
X81986068Y24833900D01*
X82165392Y24615393D01*
X82383899Y24436068D01*
X82633192Y24302818D01*
X82903691Y24220764D01*
X83185000Y24193057D01*
X83466308Y24220764D01*
X83736807Y24302818D01*
X83986100Y24436068D01*
X84204607Y24615392D01*
X84383932Y24833899D01*
X84455000Y24966858D01*
X84526068Y24833900D01*
X84705392Y24615393D01*
X84923899Y24436068D01*
X85173192Y24302818D01*
X85443691Y24220764D01*
X85725000Y24193057D01*
X86006308Y24220764D01*
X86276807Y24302818D01*
X86526100Y24436068D01*
X86744607Y24615392D01*
X86923932Y24833899D01*
X86995000Y24966858D01*
X87066068Y24833900D01*
X87245392Y24615393D01*
X87463899Y24436068D01*
X87713192Y24302818D01*
X87983691Y24220764D01*
X88265000Y24193057D01*
X88546308Y24220764D01*
X88816807Y24302818D01*
X89066100Y24436068D01*
X89284607Y24615392D01*
X89463932Y24833899D01*
X89535000Y24966858D01*
X89606068Y24833900D01*
X89785392Y24615393D01*
X90003899Y24436068D01*
X90253192Y24302818D01*
X90523691Y24220764D01*
X90805000Y24193057D01*
X91086308Y24220764D01*
X91356807Y24302818D01*
X91606100Y24436068D01*
X91824607Y24615392D01*
X92003932Y24833899D01*
X92075000Y24966858D01*
X92146068Y24833900D01*
X92325392Y24615393D01*
X92543899Y24436068D01*
X92793192Y24302818D01*
X93063691Y24220764D01*
X93345000Y24193057D01*
X93626308Y24220764D01*
X93896807Y24302818D01*
X94146100Y24436068D01*
X94364607Y24615392D01*
X94457419Y24728483D01*
X94459188Y24710518D01*
X94495498Y24590820D01*
X94554463Y24480506D01*
X94633815Y24383815D01*
X94730506Y24304463D01*
X94840820Y24245498D01*
X94960518Y24209188D01*
X95085000Y24196928D01*
X96685000Y24196928D01*
X96809482Y24209188D01*
X96929180Y24245498D01*
X97039494Y24304463D01*
X97136185Y24383815D01*
X97215537Y24480506D01*
X97274502Y24590820D01*
X97310812Y24710518D01*
X97323072Y24835000D01*
X97323072Y27235000D01*
X97310812Y27359482D01*
X97274502Y27479180D01*
X97215537Y27589494D01*
X97136185Y27686185D01*
X97039494Y27765537D01*
X96929180Y27824502D01*
X96809482Y27860812D01*
X96685000Y27873072D01*
X96537865Y27873072D01*
X96499087Y27945620D01*
X96407238Y28057538D01*
X96379193Y28080554D01*
X92680859Y31778887D01*
X92657838Y31806938D01*
X92545920Y31898787D01*
X92418233Y31967037D01*
X92279685Y32009065D01*
X92171705Y32019700D01*
X92135600Y32023256D01*
X92099495Y32019700D01*
X89020450Y32019700D01*
X89065000Y32243665D01*
X89065000Y32526335D01*
X89009853Y32803574D01*
X88901680Y33064727D01*
X88744637Y33299759D01*
X88544759Y33499637D01*
X88309727Y33656680D01*
X88048574Y33764853D01*
X87771335Y33820000D01*
X87488665Y33820000D01*
X87211426Y33764853D01*
X86950273Y33656680D01*
X86715241Y33499637D01*
X86515363Y33299759D01*
X86358320Y33064727D01*
X86353933Y33054135D01*
X86242385Y33240131D01*
X86053414Y33448519D01*
X85827420Y33616037D01*
X85573087Y33736246D01*
X85439039Y33776904D01*
X85217000Y33654915D01*
X85217000Y32512000D01*
X85237000Y32512000D01*
X85237000Y32258000D01*
X85217000Y32258000D01*
X85217000Y32238000D01*
X84963000Y32238000D01*
X84963000Y32258000D01*
X84943000Y32258000D01*
X84943000Y32512000D01*
X84963000Y32512000D01*
X84963000Y33654915D01*
X84740961Y33776904D01*
X84606913Y33736246D01*
X84352580Y33616037D01*
X84126586Y33448519D01*
X84110009Y33430238D01*
X82121059Y35419188D01*
X82098038Y35447238D01*
X81986120Y35539087D01*
X81858433Y35607337D01*
X81719885Y35649365D01*
X81611905Y35660000D01*
X81575800Y35663556D01*
X81539695Y35660000D01*
X79974748Y35660000D01*
X79854637Y35839759D01*
X79654759Y36039637D01*
X79419727Y36196680D01*
X79158574Y36304853D01*
X78881335Y36360000D01*
X78598665Y36360000D01*
X78321426Y36304853D01*
X78060273Y36196680D01*
X77825241Y36039637D01*
X77625363Y35839759D01*
X77489086Y35635805D01*
X77444385Y35649365D01*
X77441676Y35649632D01*
X77314637Y35839759D01*
X77114759Y36039637D01*
X76879727Y36196680D01*
X76618574Y36304853D01*
X76341335Y36360000D01*
X76058665Y36360000D01*
X75781426Y36304853D01*
X75520273Y36196680D01*
X75285241Y36039637D01*
X75085363Y35839759D01*
X74928320Y35604727D01*
X74820147Y35343574D01*
X74765000Y35066335D01*
X74765000Y34783665D01*
X74820147Y34506426D01*
X74928320Y34245273D01*
X75085363Y34010241D01*
X75285241Y33810363D01*
X75361144Y33759646D01*
X75348574Y33764853D01*
X75071335Y33820000D01*
X74788665Y33820000D01*
X74511426Y33764853D01*
X74250273Y33656680D01*
X74015241Y33499637D01*
X73970825Y33455221D01*
X73427958Y33998088D01*
X73404938Y34026138D01*
X73293020Y34117987D01*
X73165333Y34186237D01*
X73026785Y34228265D01*
X72918805Y34238900D01*
X72882700Y34242456D01*
X72846595Y34238900D01*
X71005005Y34238900D01*
X70968900Y34242456D01*
X70824815Y34228265D01*
X70686266Y34186237D01*
X70558580Y34117987D01*
X70446662Y34026138D01*
X70423646Y33998093D01*
X70203375Y33777822D01*
X69991335Y33820000D01*
X69708665Y33820000D01*
X69431426Y33764853D01*
X69418856Y33759646D01*
X69494759Y33810363D01*
X69694637Y34010241D01*
X69851680Y34245273D01*
X69959853Y34506426D01*
X70015000Y34783665D01*
X70015000Y35066335D01*
X69959853Y35343574D01*
X69851680Y35604727D01*
X69694637Y35839759D01*
X69494759Y36039637D01*
X69259727Y36196680D01*
X68998574Y36304853D01*
X68721335Y36360000D01*
X68438665Y36360000D01*
X68161426Y36304853D01*
X67900273Y36196680D01*
X67665241Y36039637D01*
X67465363Y35839759D01*
X67310000Y35607241D01*
X67154637Y35839759D01*
X66954759Y36039637D01*
X66719727Y36196680D01*
X66458574Y36304853D01*
X66265003Y36343357D01*
X76493625Y46571979D01*
X76555241Y46510363D01*
X76790273Y46353320D01*
X77051426Y46245147D01*
X77328665Y46190000D01*
X77611335Y46190000D01*
X77888574Y46245147D01*
X78149727Y46353320D01*
X78384759Y46510363D01*
X78584637Y46710241D01*
X78740000Y46942759D01*
X78895363Y46710241D01*
X79095241Y46510363D01*
X79330273Y46353320D01*
X79591426Y46245147D01*
X79868665Y46190000D01*
X80151335Y46190000D01*
X80428574Y46245147D01*
X80689727Y46353320D01*
X80924759Y46510363D01*
X81124637Y46710241D01*
X81260914Y46914195D01*
X81305615Y46900635D01*
X81308324Y46900368D01*
X81435363Y46710241D01*
X81635241Y46510363D01*
X81870273Y46353320D01*
X82131426Y46245147D01*
X82408665Y46190000D01*
X82691335Y46190000D01*
X82968574Y46245147D01*
X83229727Y46353320D01*
X83464759Y46510363D01*
X83664637Y46710241D01*
X83820000Y46942759D01*
X83975363Y46710241D01*
X84175241Y46510363D01*
X84410273Y46353320D01*
X84671426Y46245147D01*
X84948665Y46190000D01*
X85231335Y46190000D01*
X85508574Y46245147D01*
X85769727Y46353320D01*
X86004759Y46510363D01*
X86203357Y46708961D01*
X86204188Y46700518D01*
X86240498Y46580820D01*
X86299463Y46470506D01*
X86378815Y46373815D01*
X86475506Y46294463D01*
X86585820Y46235498D01*
X86705518Y46199188D01*
X86830000Y46186928D01*
X88430000Y46186928D01*
X88554482Y46199188D01*
X88674180Y46235498D01*
X88784494Y46294463D01*
X88881185Y46373815D01*
X88960537Y46470506D01*
X89019502Y46580820D01*
X89055812Y46700518D01*
X89068072Y46825000D01*
X89068072Y48425000D01*
X89055812Y48549482D01*
X89019502Y48669180D01*
X88960537Y48779494D01*
X88881185Y48876185D01*
X88784494Y48955537D01*
X88674180Y49014502D01*
X88554482Y49050812D01*
X88430000Y49063072D01*
X86830000Y49063072D01*
X86705518Y49050812D01*
X86585820Y49014502D01*
X86475506Y48955537D01*
X86378815Y48876185D01*
X86299463Y48779494D01*
X86240498Y48669180D01*
X86204188Y48549482D01*
X86203357Y48541039D01*
X86004759Y48739637D01*
X85769727Y48896680D01*
X85508574Y49004853D01*
X85231335Y49060000D01*
X84948665Y49060000D01*
X84671426Y49004853D01*
X84410273Y48896680D01*
X84175241Y48739637D01*
X83975363Y48539759D01*
X83820000Y48307241D01*
X83664637Y48539759D01*
X83464759Y48739637D01*
X83229727Y48896680D01*
X82968574Y49004853D01*
X82691335Y49060000D01*
X82408665Y49060000D01*
X82131426Y49004853D01*
X81870273Y48896680D01*
X81635241Y48739637D01*
X81602125Y48706521D01*
X81056758Y49251888D01*
X81033738Y49279938D01*
X80921820Y49371787D01*
X80794133Y49440037D01*
X80655585Y49482065D01*
X80547605Y49492700D01*
X80511500Y49496256D01*
X80475395Y49492700D01*
X57533396Y49492700D01*
X57497299Y49496255D01*
X57461202Y49492700D01*
X57461195Y49492700D01*
X57369724Y49483691D01*
X57353214Y49482065D01*
X57316409Y49470900D01*
X57214667Y49440037D01*
X57086980Y49371787D01*
X56975062Y49279938D01*
X56952046Y49251893D01*
X49300454Y41600300D01*
X37529338Y41600300D01*
X37609236Y41863691D01*
X37630000Y42074508D01*
X37630000Y42799133D01*
X38965736Y44134868D01*
X39090241Y44010363D01*
X39325273Y43853320D01*
X39586426Y43745147D01*
X39863665Y43690000D01*
X40146335Y43690000D01*
X40423574Y43745147D01*
X40684727Y43853320D01*
X40919759Y44010363D01*
X41119637Y44210241D01*
X41276680Y44445273D01*
X41384853Y44706426D01*
X41440000Y44983665D01*
X41440000Y45266335D01*
X41384853Y45543574D01*
X41276680Y45804727D01*
X41119637Y46039759D01*
X40919759Y46239637D01*
X40719131Y46373692D01*
X40746514Y46388329D01*
X40818097Y46632298D01*
X40005000Y47445395D01*
X39191903Y46632298D01*
X39263486Y46388329D01*
X39292341Y46374676D01*
X39090241Y46239637D01*
X38890363Y46039759D01*
X38837070Y45960000D01*
X38816018Y45960000D01*
X38775000Y45964040D01*
X38733982Y45960000D01*
X38733981Y45960000D01*
X38611311Y45947918D01*
X38453913Y45900172D01*
X38308854Y45822636D01*
X38220347Y45750000D01*
X38181709Y45718291D01*
X38155563Y45686432D01*
X36845100Y44375968D01*
X36514345Y44706722D01*
X36488191Y44738591D01*
X36361046Y44842936D01*
X36311673Y44869327D01*
X38635453Y47193106D01*
X38701397Y47008708D01*
X38768329Y46883486D01*
X39012298Y46811903D01*
X39825395Y47625000D01*
X40184605Y47625000D01*
X40997702Y46811903D01*
X41241671Y46883486D01*
X41362571Y47138996D01*
X41431300Y47413184D01*
X41445217Y47695512D01*
X41403787Y47975130D01*
X41308603Y48241292D01*
X41241671Y48366514D01*
X40997702Y48438097D01*
X40184605Y47625000D01*
X39825395Y47625000D01*
X39811253Y47639142D01*
X39990858Y47818747D01*
X40005000Y47804605D01*
X40818097Y48617702D01*
X40746514Y48861671D01*
X40491004Y48982571D01*
X40216816Y49051300D01*
X40030145Y49060502D01*
X39971077Y49203105D01*
X39874224Y49348055D01*
X39750955Y49471324D01*
X39606005Y49568177D01*
X39444945Y49634890D01*
X39273965Y49668900D01*
X39099635Y49668900D01*
X38928655Y49634890D01*
X38767595Y49568177D01*
X38654455Y49492579D01*
X38562445Y49530690D01*
X38391465Y49564700D01*
X38217135Y49564700D01*
X38046155Y49530690D01*
X37885095Y49463977D01*
X37740145Y49367124D01*
X37716921Y49343900D01*
X37633072Y49343900D01*
X37633072Y51365000D01*
X37620812Y51489482D01*
X37584502Y51609180D01*
X37525537Y51719494D01*
X37446185Y51816185D01*
X37349494Y51895537D01*
X37239180Y51954502D01*
X37119482Y51990812D01*
X36995000Y52003072D01*
X36847865Y52003072D01*
X36809087Y52075620D01*
X36717238Y52187538D01*
X36689193Y52210554D01*
X33257659Y55642087D01*
X33240168Y55663400D01*
X56654895Y55663400D01*
X56691000Y55659844D01*
X56727105Y55663400D01*
X56835085Y55674035D01*
X56973633Y55716063D01*
X57101320Y55784313D01*
X57213238Y55876162D01*
X57236259Y55904213D01*
X60982046Y59650000D01*
X69011928Y59650000D01*
X69024188Y59525518D01*
X69060498Y59405820D01*
X69119463Y59295506D01*
X69198815Y59198815D01*
X69295506Y59119463D01*
X69405820Y59060498D01*
X69525518Y59024188D01*
X69650000Y59011928D01*
X70214250Y59015000D01*
X70373000Y59173750D01*
X70373000Y60373000D01*
X69173750Y60373000D01*
X69015000Y60214250D01*
X69011928Y59650000D01*
X60982046Y59650000D01*
X62682046Y61350000D01*
X69011928Y61350000D01*
X69015000Y60785750D01*
X69173750Y60627000D01*
X70373000Y60627000D01*
X70373000Y61826250D01*
X70214250Y61985000D01*
X69650000Y61988072D01*
X69525518Y61975812D01*
X69405820Y61939502D01*
X69295506Y61880537D01*
X69198815Y61801185D01*
X69119463Y61704494D01*
X69060498Y61594180D01*
X69024188Y61474482D01*
X69011928Y61350000D01*
X62682046Y61350000D01*
X68319593Y66987546D01*
X68347638Y67010562D01*
X68439487Y67122480D01*
X68507737Y67250167D01*
X68511897Y67263882D01*
X68781842Y67152068D01*
X69068740Y67095000D01*
X69361260Y67095000D01*
X69648158Y67152068D01*
X69918411Y67264010D01*
X70161632Y67426525D01*
X70368475Y67633368D01*
X70485000Y67807760D01*
X70601525Y67633368D01*
X70808368Y67426525D01*
X71051589Y67264010D01*
X71321842Y67152068D01*
X71608740Y67095000D01*
X71901260Y67095000D01*
X72188158Y67152068D01*
X72458411Y67264010D01*
X72701632Y67426525D01*
X72908475Y67633368D01*
X73030195Y67815534D01*
X73099822Y67698645D01*
X73294731Y67482412D01*
X73528080Y67308359D01*
X73790901Y67183175D01*
X73938110Y67138524D01*
X74168000Y67259845D01*
X74168000Y68453000D01*
X74148000Y68453000D01*
X74148000Y68707000D01*
X74168000Y68707000D01*
X74168000Y68727000D01*
X74422000Y68727000D01*
X74422000Y68707000D01*
X74442000Y68707000D01*
X74442000Y68453000D01*
X74422000Y68453000D01*
X74422000Y67259845D01*
X74651890Y67138524D01*
X74799099Y67183175D01*
X75061920Y67308359D01*
X75295269Y67482412D01*
X75490178Y67698645D01*
X75559805Y67815534D01*
X75681525Y67633368D01*
X75888368Y67426525D01*
X76131589Y67264010D01*
X76401842Y67152068D01*
X76688740Y67095000D01*
X76981260Y67095000D01*
X77268158Y67152068D01*
X77538411Y67264010D01*
X77781632Y67426525D01*
X77988475Y67633368D01*
X78105000Y67807760D01*
X78221525Y67633368D01*
X78380373Y67474520D01*
X75085808Y64179954D01*
X75057763Y64156938D01*
X74965914Y64045020D01*
X74912686Y63945437D01*
X74897664Y63917333D01*
X74855635Y63778785D01*
X74841444Y63634700D01*
X74845001Y63598585D01*
X74845000Y61794883D01*
X74633368Y61653475D01*
X74426525Y61446632D01*
X74350662Y61333095D01*
X74331319Y61335000D01*
X74331318Y61335000D01*
X74290300Y61339040D01*
X74266905Y61336736D01*
X74193475Y61446632D01*
X73986632Y61653475D01*
X73743411Y61815990D01*
X73473158Y61927932D01*
X73186260Y61985000D01*
X72893740Y61985000D01*
X72606842Y61927932D01*
X72336589Y61815990D01*
X72093368Y61653475D01*
X71961513Y61521620D01*
X71939502Y61594180D01*
X71880537Y61704494D01*
X71801185Y61801185D01*
X71704494Y61880537D01*
X71594180Y61939502D01*
X71474482Y61975812D01*
X71350000Y61988072D01*
X70785750Y61985000D01*
X70627000Y61826250D01*
X70627000Y60627000D01*
X70647000Y60627000D01*
X70647000Y60373000D01*
X70627000Y60373000D01*
X70627000Y59173750D01*
X70785750Y59015000D01*
X71350000Y59011928D01*
X71474482Y59024188D01*
X71594180Y59060498D01*
X71704494Y59119463D01*
X71801185Y59198815D01*
X71880537Y59295506D01*
X71939502Y59405820D01*
X71961513Y59478380D01*
X72093368Y59346525D01*
X72336589Y59184010D01*
X72606842Y59072068D01*
X72893740Y59015000D01*
X73186260Y59015000D01*
X73473158Y59072068D01*
X73743411Y59184010D01*
X73824345Y59238088D01*
X74384963Y58677469D01*
X74411109Y58645609D01*
X74442968Y58619463D01*
X74442970Y58619461D01*
X74538254Y58541264D01*
X74683313Y58463728D01*
X74840711Y58415982D01*
X75004400Y58399860D01*
X75045418Y58403900D01*
X88407882Y58403900D01*
X88448900Y58399860D01*
X88489918Y58403900D01*
X88489919Y58403900D01*
X88612589Y58415982D01*
X88769987Y58463728D01*
X88915046Y58541264D01*
X89042191Y58645609D01*
X89068346Y58677479D01*
X89934582Y59543714D01*
X90028665Y59525000D01*
X90311335Y59525000D01*
X90556100Y59573687D01*
X90556101Y55865848D01*
X89675808Y54985554D01*
X89647763Y54962538D01*
X89555914Y54850620D01*
X89495494Y54737581D01*
X89487664Y54722933D01*
X89445635Y54584385D01*
X89445368Y54581676D01*
X89255241Y54454637D01*
X89055363Y54254759D01*
X88898320Y54019727D01*
X88790147Y53758574D01*
X88735000Y53481335D01*
X88735000Y53198665D01*
X88790147Y52921426D01*
X88898320Y52660273D01*
X89055363Y52425241D01*
X89255241Y52225363D01*
X89490273Y52068320D01*
X89751426Y51960147D01*
X90028665Y51905000D01*
X90311335Y51905000D01*
X90588574Y51960147D01*
X90849727Y52068320D01*
X91084759Y52225363D01*
X91284637Y52425241D01*
X91441680Y52660273D01*
X91549853Y52921426D01*
X91605000Y53198665D01*
X91605000Y53481335D01*
X91549853Y53758574D01*
X91441680Y54019727D01*
X91284637Y54254759D01*
X91154271Y54385125D01*
X91785293Y55016146D01*
X91813338Y55039162D01*
X91905187Y55151080D01*
X91973437Y55278767D01*
X92015465Y55417315D01*
X92026100Y55525295D01*
X92029656Y55561400D01*
X92026100Y55597505D01*
X92026100Y61371795D01*
X92029656Y61407900D01*
X92015465Y61551985D01*
X91973437Y61690534D01*
X91905187Y61818220D01*
X91836353Y61902094D01*
X91836350Y61902097D01*
X91813337Y61930138D01*
X91785297Y61953150D01*
X90135258Y63603188D01*
X90112238Y63631238D01*
X90000320Y63723087D01*
X89872633Y63791337D01*
X89734085Y63833365D01*
X89626105Y63844000D01*
X89590000Y63847556D01*
X89553895Y63844000D01*
X88533747Y63844000D01*
X85126821Y67250925D01*
X85158411Y67264010D01*
X85401632Y67426525D01*
X85608475Y67633368D01*
X85725000Y67807760D01*
X85841525Y67633368D01*
X86048368Y67426525D01*
X86291589Y67264010D01*
X86561842Y67152068D01*
X86848740Y67095000D01*
X87141260Y67095000D01*
X87428158Y67152068D01*
X87698411Y67264010D01*
X87941632Y67426525D01*
X88148475Y67633368D01*
X88310990Y67876589D01*
X88422932Y68146842D01*
X88480000Y68433740D01*
X88480000Y68726260D01*
X88422932Y69013158D01*
X88310990Y69283411D01*
X88148475Y69526632D01*
X87941632Y69733475D01*
X87698411Y69895990D01*
X87428158Y70007932D01*
X87141260Y70065000D01*
X86848740Y70065000D01*
X86561842Y70007932D01*
X86291589Y69895990D01*
X86048368Y69733475D01*
X85841525Y69526632D01*
X85725000Y69352240D01*
X85608475Y69526632D01*
X85401632Y69733475D01*
X85158411Y69895990D01*
X84888158Y70007932D01*
X84601260Y70065000D01*
X84308740Y70065000D01*
X84021842Y70007932D01*
X83751589Y69895990D01*
X83508368Y69733475D01*
X83491770Y69716877D01*
X82952358Y70256288D01*
X82929338Y70284338D01*
X82817420Y70376187D01*
X82689733Y70444437D01*
X82551185Y70486465D01*
X82443205Y70497100D01*
X82407100Y70500656D01*
X82370995Y70497100D01*
X68560400Y70497100D01*
X68560400Y84638195D01*
X68563956Y84674300D01*
X68549765Y84818385D01*
X68507737Y84956934D01*
X68439487Y85084620D01*
X68370653Y85168494D01*
X68370650Y85168497D01*
X68347637Y85196538D01*
X68319598Y85219549D01*
X58644627Y94894520D01*
X58803475Y95053368D01*
X58920000Y95227760D01*
X59036525Y95053368D01*
X59243368Y94846525D01*
X59486589Y94684010D01*
X59756842Y94572068D01*
X60043740Y94515000D01*
X60336260Y94515000D01*
X60623158Y94572068D01*
X60893411Y94684010D01*
X61136632Y94846525D01*
X61343475Y95053368D01*
X61505990Y95296589D01*
X61617932Y95566842D01*
X61675000Y95853740D01*
X61675000Y96146260D01*
X61617932Y96433158D01*
X61521379Y96666260D01*
X65190000Y96666260D01*
X65190000Y96373740D01*
X65247068Y96086842D01*
X65359010Y95816589D01*
X65521525Y95573368D01*
X65728368Y95366525D01*
X65902760Y95250000D01*
X65728368Y95133475D01*
X65521525Y94926632D01*
X65359010Y94683411D01*
X65247068Y94413158D01*
X65190000Y94126260D01*
X65190000Y93833740D01*
X65247068Y93546842D01*
X65359010Y93276589D01*
X65521525Y93033368D01*
X65728368Y92826525D01*
X65971589Y92664010D01*
X66241842Y92552068D01*
X66528740Y92495000D01*
X66821260Y92495000D01*
X67108158Y92552068D01*
X67378411Y92664010D01*
X67621632Y92826525D01*
X67828475Y93033368D01*
X67990990Y93276589D01*
X68102932Y93546842D01*
X68160000Y93833740D01*
X68160000Y94126260D01*
X68102932Y94413158D01*
X67990990Y94683411D01*
X67828475Y94926632D01*
X67621632Y95133475D01*
X67447240Y95250000D01*
X67621632Y95366525D01*
X67828475Y95573368D01*
X67990990Y95816589D01*
X68102932Y96086842D01*
X68160000Y96373740D01*
X68160000Y96666260D01*
X85510000Y96666260D01*
X85510000Y96373740D01*
X85567068Y96086842D01*
X85679010Y95816589D01*
X85841525Y95573368D01*
X86048368Y95366525D01*
X86222760Y95250000D01*
X86048368Y95133475D01*
X85841525Y94926632D01*
X85679010Y94683411D01*
X85567068Y94413158D01*
X85510000Y94126260D01*
X85510000Y93833740D01*
X85567068Y93546842D01*
X85679010Y93276589D01*
X85841525Y93033368D01*
X86048368Y92826525D01*
X86291589Y92664010D01*
X86561842Y92552068D01*
X86848740Y92495000D01*
X87141260Y92495000D01*
X87428158Y92552068D01*
X87698411Y92664010D01*
X87941632Y92826525D01*
X88148475Y93033368D01*
X88310990Y93276589D01*
X88422932Y93546842D01*
X88480000Y93833740D01*
X88480000Y94126260D01*
X88422932Y94413158D01*
X88310990Y94683411D01*
X88148475Y94926632D01*
X87941632Y95133475D01*
X87811947Y95220128D01*
X92765000Y95220128D01*
X92765000Y94779872D01*
X92850890Y94348075D01*
X93019369Y93941331D01*
X93263962Y93575271D01*
X93575271Y93263962D01*
X93941331Y93019369D01*
X94348075Y92850890D01*
X94779872Y92765000D01*
X95220128Y92765000D01*
X95651925Y92850890D01*
X96058669Y93019369D01*
X96424729Y93263962D01*
X96736038Y93575271D01*
X96980631Y93941331D01*
X97149110Y94348075D01*
X97235000Y94779872D01*
X97235000Y95220128D01*
X97149110Y95651925D01*
X96980631Y96058669D01*
X96736038Y96424729D01*
X96424729Y96736038D01*
X96058669Y96980631D01*
X95651925Y97149110D01*
X95220128Y97235000D01*
X94779872Y97235000D01*
X94348075Y97149110D01*
X93941331Y96980631D01*
X93575271Y96736038D01*
X93263962Y96424729D01*
X93019369Y96058669D01*
X92850890Y95651925D01*
X92765000Y95220128D01*
X87811947Y95220128D01*
X87767240Y95250000D01*
X87941632Y95366525D01*
X88148475Y95573368D01*
X88310990Y95816589D01*
X88422932Y96086842D01*
X88480000Y96373740D01*
X88480000Y96666260D01*
X88422932Y96953158D01*
X88310990Y97223411D01*
X88148475Y97466632D01*
X87941632Y97673475D01*
X87698411Y97835990D01*
X87428158Y97947932D01*
X87141260Y98005000D01*
X86848740Y98005000D01*
X86561842Y97947932D01*
X86291589Y97835990D01*
X86048368Y97673475D01*
X85841525Y97466632D01*
X85679010Y97223411D01*
X85567068Y96953158D01*
X85510000Y96666260D01*
X68160000Y96666260D01*
X68102932Y96953158D01*
X67990990Y97223411D01*
X67828475Y97466632D01*
X67621632Y97673475D01*
X67378411Y97835990D01*
X67108158Y97947932D01*
X66821260Y98005000D01*
X66528740Y98005000D01*
X66241842Y97947932D01*
X65971589Y97835990D01*
X65728368Y97673475D01*
X65521525Y97466632D01*
X65359010Y97223411D01*
X65247068Y96953158D01*
X65190000Y96666260D01*
X61521379Y96666260D01*
X61505990Y96703411D01*
X61343475Y96946632D01*
X61136632Y97153475D01*
X60893411Y97315990D01*
X60623158Y97427932D01*
X60336260Y97485000D01*
X60043740Y97485000D01*
X59756842Y97427932D01*
X59486589Y97315990D01*
X59243368Y97153475D01*
X59036525Y96946632D01*
X58920000Y96772240D01*
X58803475Y96946632D01*
X58596632Y97153475D01*
X58353411Y97315990D01*
X58083158Y97427932D01*
X57796260Y97485000D01*
X57503740Y97485000D01*
X57216842Y97427932D01*
X56946589Y97315990D01*
X56703368Y97153475D01*
X56571513Y97021620D01*
X56549502Y97094180D01*
X56490537Y97204494D01*
X56411185Y97301185D01*
X56314494Y97380537D01*
X56204180Y97439502D01*
X56084482Y97475812D01*
X55960000Y97488072D01*
X54260000Y97488072D01*
X54135518Y97475812D01*
X54015820Y97439502D01*
X53905506Y97380537D01*
X53808815Y97301185D01*
X53729463Y97204494D01*
X53670498Y97094180D01*
X53634188Y96974482D01*
X53621928Y96850000D01*
X53621928Y95150000D01*
X53634188Y95025518D01*
X53670498Y94905820D01*
X53729463Y94795506D01*
X53808815Y94698815D01*
X53905506Y94619463D01*
X54015820Y94560498D01*
X54135518Y94524188D01*
X54260000Y94511928D01*
X55960000Y94511928D01*
X56084482Y94524188D01*
X56204180Y94560498D01*
X56314494Y94619463D01*
X56411185Y94698815D01*
X56490537Y94795506D01*
X56549502Y94905820D01*
X56571513Y94978380D01*
X56703368Y94846525D01*
X56928528Y94696078D01*
X56966147Y94572068D01*
X56967664Y94567067D01*
X57035914Y94439380D01*
X57127763Y94327462D01*
X57155808Y94304446D01*
X67090400Y84369853D01*
X67090401Y70068072D01*
X65825000Y70068072D01*
X65700518Y70055812D01*
X65580820Y70019502D01*
X65470506Y69960537D01*
X65373815Y69881185D01*
X65294463Y69784494D01*
X65235498Y69674180D01*
X65199188Y69554482D01*
X65186928Y69430000D01*
X65186928Y69380445D01*
X65103613Y69355172D01*
X64958554Y69277636D01*
X64831409Y69173291D01*
X64805259Y69141427D01*
X60166333Y64502500D01*
X56019904Y64502500D01*
X56045000Y64628665D01*
X56045000Y64911335D01*
X55989853Y65188574D01*
X55881680Y65449727D01*
X55724637Y65684759D01*
X55524759Y65884637D01*
X55324131Y66018692D01*
X55351514Y66033329D01*
X55423097Y66277298D01*
X54610000Y67090395D01*
X54595858Y67076252D01*
X54416253Y67255857D01*
X54430395Y67270000D01*
X54789605Y67270000D01*
X55602702Y66456903D01*
X55846671Y66528486D01*
X55967571Y66783996D01*
X56036300Y67058184D01*
X56050217Y67340512D01*
X56008787Y67620130D01*
X55913603Y67886292D01*
X55846671Y68011514D01*
X55602702Y68083097D01*
X54789605Y67270000D01*
X54430395Y67270000D01*
X53617298Y68083097D01*
X53373329Y68011514D01*
X53252429Y67756004D01*
X53183700Y67481816D01*
X53178784Y67382084D01*
X52298166Y68262702D01*
X53796903Y68262702D01*
X54610000Y67449605D01*
X55423097Y68262702D01*
X55351514Y68506671D01*
X55096004Y68627571D01*
X54821816Y68696300D01*
X54539488Y68710217D01*
X54259870Y68668787D01*
X53993708Y68573603D01*
X53868486Y68506671D01*
X53796903Y68262702D01*
X52298166Y68262702D01*
X51635000Y68925867D01*
X51635000Y72160375D01*
X51724482Y72169188D01*
X51844180Y72205498D01*
X51954494Y72264463D01*
X52051185Y72343815D01*
X52130537Y72440506D01*
X52189502Y72550820D01*
X52225812Y72670518D01*
X52238072Y72795000D01*
X52238072Y75195000D01*
X52225812Y75319482D01*
X52189502Y75439180D01*
X52130537Y75549494D01*
X52051185Y75646185D01*
X51954494Y75725537D01*
X51844180Y75784502D01*
X51724482Y75820812D01*
X51600459Y75833027D01*
X51575172Y75916387D01*
X51497636Y76061446D01*
X51393291Y76188591D01*
X51266146Y76292936D01*
X51121087Y76370472D01*
X50963689Y76418218D01*
X50841019Y76430300D01*
X50800000Y76434340D01*
X50758982Y76430300D01*
X49340868Y76430300D01*
X39039746Y86731421D01*
X39013591Y86763291D01*
X38886446Y86867636D01*
X38741387Y86945172D01*
X38658027Y86970459D01*
X38645812Y87094482D01*
X38609502Y87214180D01*
X38550537Y87324494D01*
X38471185Y87421185D01*
X38374494Y87500537D01*
X38264180Y87559502D01*
X38144482Y87595812D01*
X38055000Y87604625D01*
X38055000Y90500993D01*
X38059039Y90542001D01*
X38055000Y90583009D01*
X38055000Y90583019D01*
X38042918Y90705689D01*
X37995172Y90863087D01*
X37917636Y91008146D01*
X37813291Y91135291D01*
X37781426Y91161442D01*
X36705000Y92237867D01*
X36705000Y93799600D01*
X47385282Y93799600D01*
X47426300Y93795560D01*
X47467318Y93799600D01*
X47467319Y93799600D01*
X47589989Y93811682D01*
X47747387Y93859428D01*
X47892446Y93936964D01*
X48019591Y94041309D01*
X48045745Y94073178D01*
X48595656Y94623088D01*
X48676589Y94569010D01*
X48946842Y94457068D01*
X49233740Y94400000D01*
X49526260Y94400000D01*
X49813158Y94457068D01*
X50083411Y94569010D01*
X50326632Y94731525D01*
X50533475Y94938368D01*
X50695990Y95181589D01*
X50807932Y95451842D01*
X50865000Y95738740D01*
X50865000Y96031260D01*
X50807932Y96318158D01*
X50695990Y96588411D01*
X50533475Y96831632D01*
X50326632Y97038475D01*
X50083411Y97200990D01*
X49813158Y97312932D01*
X49526260Y97370000D01*
X49233740Y97370000D01*
X48946842Y97312932D01*
X48676589Y97200990D01*
X48433368Y97038475D01*
X48226525Y96831632D01*
X48153095Y96721736D01*
X48129700Y96724040D01*
X48088681Y96720000D01*
X48069338Y96718095D01*
X47993475Y96831632D01*
X47786632Y97038475D01*
X47543411Y97200990D01*
X47273158Y97312932D01*
X46986260Y97370000D01*
X46693740Y97370000D01*
X46406842Y97312932D01*
X46136589Y97200990D01*
X45893368Y97038475D01*
X45761513Y96906620D01*
X45739502Y96979180D01*
X45680537Y97089494D01*
X45601185Y97186185D01*
X45504494Y97265537D01*
X45394180Y97324502D01*
X45274482Y97360812D01*
X45150000Y97373072D01*
X44585750Y97370000D01*
X44427000Y97211250D01*
X44427000Y96012000D01*
X44447000Y96012000D01*
X44447000Y95758000D01*
X44427000Y95758000D01*
X44427000Y95738000D01*
X44173000Y95738000D01*
X44173000Y95758000D01*
X42973750Y95758000D01*
X42815000Y95599250D01*
X42814294Y95469600D01*
X39841464Y95469600D01*
X39895000Y95738740D01*
X39895000Y96031260D01*
X39837932Y96318158D01*
X39725990Y96588411D01*
X39628043Y96735000D01*
X42811928Y96735000D01*
X42815000Y96170750D01*
X42973750Y96012000D01*
X44173000Y96012000D01*
X44173000Y97211250D01*
X44014250Y97370000D01*
X43450000Y97373072D01*
X43325518Y97360812D01*
X43205820Y97324502D01*
X43095506Y97265537D01*
X42998815Y97186185D01*
X42919463Y97089494D01*
X42860498Y96979180D01*
X42824188Y96859482D01*
X42811928Y96735000D01*
X39628043Y96735000D01*
X39563475Y96831632D01*
X39356632Y97038475D01*
X39113411Y97200990D01*
X38843158Y97312932D01*
X38556260Y97370000D01*
X38263740Y97370000D01*
X37976842Y97312932D01*
X37706589Y97200990D01*
X37463368Y97038475D01*
X37256525Y96831632D01*
X37140000Y96657240D01*
X37023475Y96831632D01*
X36816632Y97038475D01*
X36573411Y97200990D01*
X36303158Y97312932D01*
X36016260Y97370000D01*
X35723740Y97370000D01*
X35436842Y97312932D01*
X35166589Y97200990D01*
X34923368Y97038475D01*
X34791513Y96906620D01*
X34769502Y96979180D01*
X34710537Y97089494D01*
X34631185Y97186185D01*
X34534494Y97265537D01*
X34424180Y97324502D01*
X34304482Y97360812D01*
X34180000Y97373072D01*
X32480000Y97373072D01*
X32355518Y97360812D01*
X32235820Y97324502D01*
X32125506Y97265537D01*
X32028815Y97186185D01*
X31949463Y97089494D01*
X31890498Y96979180D01*
X31854188Y96859482D01*
X31841928Y96735000D01*
X31841928Y96620000D01*
X21506405Y96620000D01*
X21470300Y96623556D01*
X21434195Y96620000D01*
X21326215Y96609365D01*
X21187667Y96567337D01*
X21059980Y96499087D01*
X20948062Y96407238D01*
X20925046Y96379193D01*
X11511153Y86965299D01*
X11461185Y87026185D01*
X11364494Y87105537D01*
X11254180Y87164502D01*
X11181620Y87186513D01*
X11313475Y87318368D01*
X11475990Y87561589D01*
X11587932Y87831842D01*
X11645000Y88118740D01*
X11645000Y88411260D01*
X11587932Y88698158D01*
X11475990Y88968411D01*
X11313475Y89211632D01*
X11106632Y89418475D01*
X10863411Y89580990D01*
X10593158Y89692932D01*
X10306260Y89750000D01*
X10013740Y89750000D01*
X9726842Y89692932D01*
X9456589Y89580990D01*
X9213368Y89418475D01*
X9006525Y89211632D01*
X8844010Y88968411D01*
X8732068Y88698158D01*
X8675000Y88411260D01*
X8675000Y88118740D01*
X8732068Y87831842D01*
X8844010Y87561589D01*
X9006525Y87318368D01*
X9138380Y87186513D01*
X9065820Y87164502D01*
X8955506Y87105537D01*
X8858815Y87026185D01*
X8779463Y86929494D01*
X8720498Y86819180D01*
X8684188Y86699482D01*
X8671928Y86575000D01*
X8671928Y84875000D01*
X8684188Y84750518D01*
X8720498Y84630820D01*
X8779463Y84520506D01*
X8858815Y84423815D01*
X8955506Y84344463D01*
X9065820Y84285498D01*
X9185518Y84249188D01*
X9310000Y84236928D01*
X11010000Y84236928D01*
X11134482Y84249188D01*
X11254180Y84285498D01*
X11364494Y84344463D01*
X11461185Y84423815D01*
X11540537Y84520506D01*
X11599502Y84630820D01*
X11635812Y84750518D01*
X11648072Y84875000D01*
X11648072Y85072135D01*
X11720620Y85110913D01*
X11832538Y85202762D01*
X11855559Y85230813D01*
X15589746Y88965000D01*
X16406928Y88965000D01*
X16406928Y87215000D01*
X16436001Y86919814D01*
X16522104Y86635972D01*
X16661927Y86374382D01*
X16850097Y86145097D01*
X17079382Y85956927D01*
X17340972Y85817104D01*
X17624814Y85731001D01*
X17920000Y85701928D01*
X19670000Y85701928D01*
X19965186Y85731001D01*
X20249028Y85817104D01*
X20510618Y85956927D01*
X20739903Y86145097D01*
X20928073Y86374382D01*
X21067896Y86635972D01*
X21106928Y86764643D01*
X21106928Y83340000D01*
X21119188Y83215518D01*
X21155498Y83095820D01*
X21214463Y82985506D01*
X21293815Y82888815D01*
X21390506Y82809463D01*
X21500820Y82750498D01*
X21620518Y82714188D01*
X21745000Y82701928D01*
X25245000Y82701928D01*
X25369482Y82714188D01*
X25489180Y82750498D01*
X25599494Y82809463D01*
X25696185Y82888815D01*
X25775537Y82985506D01*
X25834502Y83095820D01*
X25870812Y83215518D01*
X25883072Y83340000D01*
X25883072Y83599488D01*
X35779783Y83599488D01*
X35821213Y83319870D01*
X35916397Y83053708D01*
X35983329Y82928486D01*
X36227298Y82856903D01*
X37040395Y83670000D01*
X37399605Y83670000D01*
X38212702Y82856903D01*
X38456671Y82928486D01*
X38577571Y83183996D01*
X38646300Y83458184D01*
X38660217Y83740512D01*
X38618787Y84020130D01*
X38523603Y84286292D01*
X38456671Y84411514D01*
X38212702Y84483097D01*
X37399605Y83670000D01*
X37040395Y83670000D01*
X36227298Y84483097D01*
X35983329Y84411514D01*
X35862429Y84156004D01*
X35793700Y83881816D01*
X35779783Y83599488D01*
X25883072Y83599488D01*
X25883072Y86840000D01*
X25870812Y86964482D01*
X25834502Y87084180D01*
X25775537Y87194494D01*
X25696185Y87291185D01*
X25599494Y87370537D01*
X25489180Y87429502D01*
X25369482Y87465812D01*
X25245000Y87478072D01*
X21745000Y87478072D01*
X21620518Y87465812D01*
X21500820Y87429502D01*
X21390506Y87370537D01*
X21293815Y87291185D01*
X21214463Y87194494D01*
X21173506Y87117869D01*
X21183072Y87215000D01*
X21183072Y88965000D01*
X21153999Y89260186D01*
X21067896Y89544028D01*
X21043324Y89590000D01*
X21106928Y89590000D01*
X21119188Y89465518D01*
X21155498Y89345820D01*
X21214463Y89235506D01*
X21293815Y89138815D01*
X21390506Y89059463D01*
X21500820Y89000498D01*
X21620518Y88964188D01*
X21745000Y88951928D01*
X23209250Y88955000D01*
X23368000Y89113750D01*
X23368000Y90963000D01*
X23622000Y90963000D01*
X23622000Y89113750D01*
X23780750Y88955000D01*
X25245000Y88951928D01*
X25369482Y88964188D01*
X25489180Y89000498D01*
X25599494Y89059463D01*
X25696185Y89138815D01*
X25775537Y89235506D01*
X25834502Y89345820D01*
X25870812Y89465518D01*
X25883072Y89590000D01*
X25880000Y90804250D01*
X25721250Y90963000D01*
X23622000Y90963000D01*
X23368000Y90963000D01*
X21268750Y90963000D01*
X21110000Y90804250D01*
X21106928Y89590000D01*
X21043324Y89590000D01*
X20928073Y89805618D01*
X20739903Y90034903D01*
X20510618Y90223073D01*
X20249028Y90362896D01*
X19965186Y90448999D01*
X19670000Y90478072D01*
X17920000Y90478072D01*
X17624814Y90448999D01*
X17340972Y90362896D01*
X17079382Y90223073D01*
X16850097Y90034903D01*
X16661927Y89805618D01*
X16522104Y89544028D01*
X16436001Y89260186D01*
X16406928Y88965000D01*
X15589746Y88965000D01*
X19214746Y92590000D01*
X21106928Y92590000D01*
X21110000Y91375750D01*
X21268750Y91217000D01*
X23368000Y91217000D01*
X23368000Y93066250D01*
X23622000Y93066250D01*
X23622000Y91217000D01*
X25721250Y91217000D01*
X25880000Y91375750D01*
X25883072Y92590000D01*
X25870812Y92714482D01*
X25834502Y92834180D01*
X25775537Y92944494D01*
X25696185Y93041185D01*
X25599494Y93120537D01*
X25489180Y93179502D01*
X25369482Y93215812D01*
X25245000Y93228072D01*
X23780750Y93225000D01*
X23622000Y93066250D01*
X23368000Y93066250D01*
X23209250Y93225000D01*
X21745000Y93228072D01*
X21620518Y93215812D01*
X21500820Y93179502D01*
X21390506Y93120537D01*
X21293815Y93041185D01*
X21214463Y92944494D01*
X21155498Y92834180D01*
X21119188Y92714482D01*
X21106928Y92590000D01*
X19214746Y92590000D01*
X21774747Y95150000D01*
X31841928Y95150000D01*
X31841928Y95035000D01*
X31854188Y94910518D01*
X31890498Y94790820D01*
X31949463Y94680506D01*
X32028815Y94583815D01*
X32125506Y94504463D01*
X32235820Y94445498D01*
X32355518Y94409188D01*
X32480000Y94396928D01*
X34180000Y94396928D01*
X34304482Y94409188D01*
X34424180Y94445498D01*
X34534494Y94504463D01*
X34631185Y94583815D01*
X34710537Y94680506D01*
X34769502Y94790820D01*
X34791513Y94863380D01*
X34923368Y94731525D01*
X35033273Y94658089D01*
X35030960Y94634600D01*
X35035001Y94593571D01*
X35035000Y91933019D01*
X35030960Y91892000D01*
X35035000Y91850982D01*
X35047082Y91728312D01*
X35094828Y91570914D01*
X35172364Y91425855D01*
X35276709Y91298709D01*
X35308579Y91272554D01*
X36385001Y90196131D01*
X36385000Y87604625D01*
X36295518Y87595812D01*
X36175820Y87559502D01*
X36065506Y87500537D01*
X35968815Y87421185D01*
X35889463Y87324494D01*
X35830498Y87214180D01*
X35794188Y87094482D01*
X35781928Y86970000D01*
X35781928Y85370000D01*
X35794188Y85245518D01*
X35830498Y85125820D01*
X35889463Y85015506D01*
X35968815Y84918815D01*
X36065506Y84839463D01*
X36175820Y84780498D01*
X36295518Y84744188D01*
X36420000Y84731928D01*
X36427215Y84731928D01*
X36406903Y84662702D01*
X37220000Y83849605D01*
X38033097Y84662702D01*
X38012785Y84731928D01*
X38020000Y84731928D01*
X38144482Y84744188D01*
X38264180Y84780498D01*
X38374494Y84839463D01*
X38471185Y84918815D01*
X38479944Y84929488D01*
X47691287Y75718145D01*
X47458900Y75593932D01*
X47240393Y75414608D01*
X47061068Y75196101D01*
X46990000Y75063142D01*
X46918932Y75196101D01*
X46739608Y75414608D01*
X46521101Y75593932D01*
X46271808Y75727182D01*
X46001309Y75809236D01*
X45720000Y75836943D01*
X45438692Y75809236D01*
X45168193Y75727182D01*
X44918900Y75593932D01*
X44700393Y75414608D01*
X44521068Y75196101D01*
X44450000Y75063142D01*
X44378932Y75196101D01*
X44199608Y75414608D01*
X43981101Y75593932D01*
X43731808Y75727182D01*
X43461309Y75809236D01*
X43180000Y75836943D01*
X42898692Y75809236D01*
X42628193Y75727182D01*
X42378900Y75593932D01*
X42160393Y75414608D01*
X41981068Y75196101D01*
X41910000Y75063142D01*
X41838932Y75196101D01*
X41659608Y75414608D01*
X41441101Y75593932D01*
X41191808Y75727182D01*
X40921309Y75809236D01*
X40640000Y75836943D01*
X40358692Y75809236D01*
X40088193Y75727182D01*
X39838900Y75593932D01*
X39620393Y75414608D01*
X39441068Y75196101D01*
X39370000Y75063142D01*
X39298932Y75196101D01*
X39119608Y75414608D01*
X38901101Y75593932D01*
X38651808Y75727182D01*
X38381309Y75809236D01*
X38100000Y75836943D01*
X37818692Y75809236D01*
X37548193Y75727182D01*
X37298900Y75593932D01*
X37080393Y75414608D01*
X36901068Y75196101D01*
X36830000Y75063142D01*
X36758932Y75196101D01*
X36579608Y75414608D01*
X36361101Y75593932D01*
X36111808Y75727182D01*
X35841309Y75809236D01*
X35560000Y75836943D01*
X35278692Y75809236D01*
X35008193Y75727182D01*
X34758900Y75593932D01*
X34540393Y75414608D01*
X34361068Y75196101D01*
X34290000Y75063142D01*
X34218932Y75196101D01*
X34039608Y75414608D01*
X33821101Y75593932D01*
X33571808Y75727182D01*
X33301309Y75809236D01*
X33020000Y75836943D01*
X32738692Y75809236D01*
X32468193Y75727182D01*
X32218900Y75593932D01*
X32000393Y75414608D01*
X31821068Y75196101D01*
X31750000Y75063142D01*
X31678932Y75196101D01*
X31499608Y75414608D01*
X31281101Y75593932D01*
X31031808Y75727182D01*
X30761309Y75809236D01*
X30480000Y75836943D01*
X30198692Y75809236D01*
X29928193Y75727182D01*
X29678900Y75593932D01*
X29460393Y75414608D01*
X29281068Y75196101D01*
X29210000Y75063142D01*
X29138932Y75196101D01*
X28959608Y75414608D01*
X28741101Y75593932D01*
X28491808Y75727182D01*
X28221309Y75809236D01*
X27940000Y75836943D01*
X27658692Y75809236D01*
X27388193Y75727182D01*
X27138900Y75593932D01*
X26920393Y75414608D01*
X26741068Y75196101D01*
X26670000Y75063142D01*
X26598932Y75196101D01*
X26419608Y75414608D01*
X26201101Y75593932D01*
X25951808Y75727182D01*
X25681309Y75809236D01*
X25400000Y75836943D01*
X25118692Y75809236D01*
X24848193Y75727182D01*
X24598900Y75593932D01*
X24380393Y75414608D01*
X24201068Y75196101D01*
X24130000Y75063142D01*
X24058932Y75196101D01*
X23879608Y75414608D01*
X23661101Y75593932D01*
X23411808Y75727182D01*
X23141309Y75809236D01*
X22860000Y75836943D01*
X22578692Y75809236D01*
X22308193Y75727182D01*
X22058900Y75593932D01*
X21840393Y75414608D01*
X21661068Y75196101D01*
X21590000Y75063142D01*
X21518932Y75196101D01*
X21339608Y75414608D01*
X21121101Y75593932D01*
X20871808Y75727182D01*
X20601309Y75809236D01*
X20320000Y75836943D01*
X20038692Y75809236D01*
X19768193Y75727182D01*
X19518900Y75593932D01*
X19300393Y75414608D01*
X19121068Y75196101D01*
X19052735Y75068259D01*
X18902601Y75297839D01*
X18704895Y75499500D01*
X18471646Y75658715D01*
X18211818Y75769367D01*
X18129039Y75786904D01*
X17907000Y75664915D01*
X17907000Y74122000D01*
X17927000Y74122000D01*
X17927000Y73868000D01*
X17907000Y73868000D01*
X17907000Y72325085D01*
X18129039Y72203096D01*
X18211818Y72220633D01*
X18471646Y72331285D01*
X18704895Y72490500D01*
X18902601Y72692161D01*
X19052735Y72921742D01*
X19121068Y72793900D01*
X19300392Y72575393D01*
X19518899Y72396068D01*
X19768192Y72262818D01*
X20038691Y72180764D01*
X20320000Y72153057D01*
X20601308Y72180764D01*
X20871807Y72262818D01*
X21121100Y72396068D01*
X21339607Y72575392D01*
X21518932Y72793899D01*
X21590000Y72926858D01*
X21661068Y72793900D01*
X21840392Y72575393D01*
X22058899Y72396068D01*
X22308192Y72262818D01*
X22578691Y72180764D01*
X22860000Y72153057D01*
X23141308Y72180764D01*
X23411807Y72262818D01*
X23661100Y72396068D01*
X23879607Y72575392D01*
X24058932Y72793899D01*
X24130000Y72926858D01*
X24201068Y72793900D01*
X24380392Y72575393D01*
X24598899Y72396068D01*
X24848192Y72262818D01*
X25118691Y72180764D01*
X25400000Y72153057D01*
X25681308Y72180764D01*
X25951807Y72262818D01*
X26201100Y72396068D01*
X26419607Y72575392D01*
X26598932Y72793899D01*
X26670000Y72926858D01*
X26741068Y72793900D01*
X26920392Y72575393D01*
X27138899Y72396068D01*
X27388192Y72262818D01*
X27658691Y72180764D01*
X27940000Y72153057D01*
X28221308Y72180764D01*
X28491807Y72262818D01*
X28741100Y72396068D01*
X28959607Y72575392D01*
X29138932Y72793899D01*
X29210000Y72926858D01*
X29281068Y72793900D01*
X29460392Y72575393D01*
X29493816Y72547963D01*
X25388254Y68442400D01*
X21447953Y68442400D01*
X21374205Y68491677D01*
X21213145Y68558390D01*
X21042165Y68592400D01*
X20867835Y68592400D01*
X20696855Y68558390D01*
X20535795Y68491677D01*
X20390845Y68394824D01*
X20267576Y68271555D01*
X20170723Y68126605D01*
X20104010Y67965545D01*
X20070000Y67794565D01*
X20070000Y67717800D01*
X14891947Y67717800D01*
X9695559Y72914187D01*
X9672538Y72942238D01*
X9560620Y73034087D01*
X9432933Y73102337D01*
X9303922Y73141472D01*
X9153475Y73366632D01*
X8946632Y73573475D01*
X8772240Y73690000D01*
X8946632Y73806525D01*
X9008107Y73868000D01*
X16345000Y73868000D01*
X16345000Y73468000D01*
X16397350Y73190486D01*
X16502834Y72928517D01*
X16657399Y72692161D01*
X16855105Y72490500D01*
X17088354Y72331285D01*
X17348182Y72220633D01*
X17430961Y72203096D01*
X17653000Y72325085D01*
X17653000Y73868000D01*
X16345000Y73868000D01*
X9008107Y73868000D01*
X9153475Y74013368D01*
X9315990Y74256589D01*
X9425926Y74522000D01*
X16345000Y74522000D01*
X16345000Y74122000D01*
X17653000Y74122000D01*
X17653000Y75664915D01*
X17430961Y75786904D01*
X17348182Y75769367D01*
X17088354Y75658715D01*
X16855105Y75499500D01*
X16657399Y75297839D01*
X16502834Y75061483D01*
X16397350Y74799514D01*
X16345000Y74522000D01*
X9425926Y74522000D01*
X9427932Y74526842D01*
X9485000Y74813740D01*
X9485000Y75106260D01*
X9427932Y75393158D01*
X9315990Y75663411D01*
X9153475Y75906632D01*
X9021620Y76038487D01*
X9094180Y76060498D01*
X9204494Y76119463D01*
X9301185Y76198815D01*
X9380537Y76295506D01*
X9439502Y76405820D01*
X9475812Y76525518D01*
X9488072Y76650000D01*
X9488072Y78350000D01*
X9475812Y78474482D01*
X9439502Y78594180D01*
X9380537Y78704494D01*
X9301185Y78801185D01*
X9204494Y78880537D01*
X9094180Y78939502D01*
X8974482Y78975812D01*
X8850000Y78988072D01*
X7150000Y78988072D01*
X7025518Y78975812D01*
X6905820Y78939502D01*
X6795506Y78880537D01*
X6698815Y78801185D01*
X6619463Y78704494D01*
X6560498Y78594180D01*
X6538487Y78521620D01*
X6406632Y78653475D01*
X6163411Y78815990D01*
X5893158Y78927932D01*
X5606260Y78985000D01*
X5313740Y78985000D01*
X5026842Y78927932D01*
X4756589Y78815990D01*
X4513368Y78653475D01*
X4306525Y78446632D01*
X4144010Y78203411D01*
X4032068Y77933158D01*
X3975000Y77646260D01*
X3975000Y77353740D01*
X4032068Y77066842D01*
X4144010Y76796589D01*
X4306525Y76553368D01*
X4513368Y76346525D01*
X4687760Y76230000D01*
X4513368Y76113475D01*
X4306525Y75906632D01*
X4144010Y75663411D01*
X4032068Y75393158D01*
X3975000Y75106260D01*
X3975000Y74813740D01*
X4032068Y74526842D01*
X4144010Y74256589D01*
X4306525Y74013368D01*
X4513368Y73806525D01*
X4695534Y73684805D01*
X4578645Y73615178D01*
X4362412Y73420269D01*
X4188359Y73186920D01*
X4063175Y72924099D01*
X4018524Y72776890D01*
X4139845Y72547000D01*
X5333000Y72547000D01*
X5333000Y72567000D01*
X5587000Y72567000D01*
X5587000Y72547000D01*
X5607000Y72547000D01*
X5607000Y72293000D01*
X5587000Y72293000D01*
X5587000Y72273000D01*
X5333000Y72273000D01*
X5333000Y72293000D01*
X4139845Y72293000D01*
X4018524Y72063110D01*
X4063175Y71915901D01*
X4188359Y71653080D01*
X4362412Y71419731D01*
X4578645Y71224822D01*
X4695534Y71155195D01*
X4513368Y71033475D01*
X4306525Y70826632D01*
X4144010Y70583411D01*
X4032068Y70313158D01*
X3975000Y70026260D01*
X3975000Y69733740D01*
X4032068Y69446842D01*
X4144010Y69176589D01*
X4306525Y68933368D01*
X4513368Y68726525D01*
X4695534Y68604805D01*
X4578645Y68535178D01*
X4362412Y68340269D01*
X4188359Y68106920D01*
X4063175Y67844099D01*
X4018524Y67696890D01*
X4139845Y67467000D01*
X5333000Y67467000D01*
X5333000Y67487000D01*
X5587000Y67487000D01*
X5587000Y67467000D01*
X5607000Y67467000D01*
X5607000Y67213000D01*
X5587000Y67213000D01*
X5587000Y67193000D01*
X5333000Y67193000D01*
X5333000Y67213000D01*
X4139845Y67213000D01*
X4018524Y66983110D01*
X4063175Y66835901D01*
X4188359Y66573080D01*
X4362412Y66339731D01*
X4578645Y66144822D01*
X4695534Y66075195D01*
X4513368Y65953475D01*
X4306525Y65746632D01*
X4144010Y65503411D01*
X4032068Y65233158D01*
X3975000Y64946260D01*
X3975000Y64653740D01*
X4032068Y64366842D01*
X4144010Y64096589D01*
X4306525Y63853368D01*
X4346173Y63813720D01*
X3395408Y62862954D01*
X3367363Y62839938D01*
X3275514Y62728020D01*
X3235255Y62652700D01*
X3207264Y62600333D01*
X3165235Y62461785D01*
X3151044Y62317700D01*
X3154601Y62281585D01*
X3154600Y36767005D01*
X3151044Y36730900D01*
X3154600Y36694796D01*
X3165235Y36586816D01*
X3207263Y36448268D01*
X3275513Y36320581D01*
X3367362Y36208663D01*
X3395408Y36185646D01*
X4318994Y35262059D01*
X4188359Y35086920D01*
X4063175Y34824099D01*
X4018524Y34676890D01*
X4139845Y34447000D01*
X5333000Y34447000D01*
X5333000Y34467000D01*
X5587000Y34467000D01*
X5587000Y34447000D01*
X5607000Y34447000D01*
X5607000Y34193000D01*
X5587000Y34193000D01*
X5587000Y31907000D01*
X5607000Y31907000D01*
X5607000Y31653000D01*
X5587000Y31653000D01*
X5587000Y31633000D01*
X5333000Y31633000D01*
X5333000Y31653000D01*
X4139845Y31653000D01*
X4018524Y31423110D01*
X4063175Y31275901D01*
X4188359Y31013080D01*
X4338860Y30811307D01*
X3362008Y29834454D01*
X3333962Y29811437D01*
X3242113Y29699519D01*
X3173863Y29571832D01*
X3145551Y29478500D01*
X3131835Y29433285D01*
X3117644Y29289200D01*
X660000Y29289200D01*
X660000Y33963110D01*
X4018524Y33963110D01*
X4063175Y33815901D01*
X4188359Y33553080D01*
X4362412Y33319731D01*
X4578645Y33124822D01*
X4704255Y33050000D01*
X4578645Y32975178D01*
X4362412Y32780269D01*
X4188359Y32546920D01*
X4063175Y32284099D01*
X4018524Y32136890D01*
X4139845Y31907000D01*
X5333000Y31907000D01*
X5333000Y34193000D01*
X4139845Y34193000D01*
X4018524Y33963110D01*
X660000Y33963110D01*
X660000Y82677298D01*
X36406903Y82677298D01*
X36478486Y82433329D01*
X36733996Y82312429D01*
X37008184Y82243700D01*
X37290512Y82229783D01*
X37570130Y82271213D01*
X37836292Y82366397D01*
X37961514Y82433329D01*
X38033097Y82677298D01*
X37220000Y83490395D01*
X36406903Y82677298D01*
X660000Y82677298D01*
X660000Y95220128D01*
X2765000Y95220128D01*
X2765000Y94779872D01*
X2850890Y94348075D01*
X3019369Y93941331D01*
X3263962Y93575271D01*
X3575271Y93263962D01*
X3941331Y93019369D01*
X4348075Y92850890D01*
X4779872Y92765000D01*
X5220128Y92765000D01*
X5651925Y92850890D01*
X6058669Y93019369D01*
X6424729Y93263962D01*
X6736038Y93575271D01*
X6980631Y93941331D01*
X7149110Y94348075D01*
X7235000Y94779872D01*
X7235000Y95220128D01*
X7149110Y95651925D01*
X6980631Y96058669D01*
X6736038Y96424729D01*
X6424729Y96736038D01*
X6058669Y96980631D01*
X5651925Y97149110D01*
X5220128Y97235000D01*
X4779872Y97235000D01*
X4348075Y97149110D01*
X3941331Y96980631D01*
X3575271Y96736038D01*
X3263962Y96424729D01*
X3019369Y96058669D01*
X2850890Y95651925D01*
X2765000Y95220128D01*
X660000Y95220128D01*
X660000Y99340000D01*
X99340001Y99340000D01*
X99340000Y660000D01*
G04 #@! TA.AperFunction,Conductor*
D22*
G36*
X99340000Y660000D02*
G01*
X660000Y660000D01*
X660000Y5220128D01*
X2765000Y5220128D01*
X2765000Y4779872D01*
X2850890Y4348075D01*
X3019369Y3941331D01*
X3263962Y3575271D01*
X3575271Y3263962D01*
X3941331Y3019369D01*
X4348075Y2850890D01*
X4779872Y2765000D01*
X5220128Y2765000D01*
X5651925Y2850890D01*
X6058669Y3019369D01*
X6424729Y3263962D01*
X6736038Y3575271D01*
X6980631Y3941331D01*
X7149110Y4348075D01*
X7235000Y4779872D01*
X7235000Y5220128D01*
X92765000Y5220128D01*
X92765000Y4779872D01*
X92850890Y4348075D01*
X93019369Y3941331D01*
X93263962Y3575271D01*
X93575271Y3263962D01*
X93941331Y3019369D01*
X94348075Y2850890D01*
X94779872Y2765000D01*
X95220128Y2765000D01*
X95651925Y2850890D01*
X96058669Y3019369D01*
X96424729Y3263962D01*
X96736038Y3575271D01*
X96980631Y3941331D01*
X97149110Y4348075D01*
X97235000Y4779872D01*
X97235000Y5220128D01*
X97149110Y5651925D01*
X96980631Y6058669D01*
X96736038Y6424729D01*
X96424729Y6736038D01*
X96058669Y6980631D01*
X95651925Y7149110D01*
X95220128Y7235000D01*
X94779872Y7235000D01*
X94348075Y7149110D01*
X93941331Y6980631D01*
X93575271Y6736038D01*
X93263962Y6424729D01*
X93019369Y6058669D01*
X92850890Y5651925D01*
X92765000Y5220128D01*
X7235000Y5220128D01*
X7149110Y5651925D01*
X6980631Y6058669D01*
X6736038Y6424729D01*
X6424729Y6736038D01*
X6058669Y6980631D01*
X5651925Y7149110D01*
X5220128Y7235000D01*
X4779872Y7235000D01*
X4348075Y7149110D01*
X3941331Y6980631D01*
X3575271Y6736038D01*
X3263962Y6424729D01*
X3019369Y6058669D01*
X2850890Y5651925D01*
X2765000Y5220128D01*
X660000Y5220128D01*
X660000Y16183110D01*
X4018524Y16183110D01*
X4063175Y16035901D01*
X4188359Y15773080D01*
X4362412Y15539731D01*
X4578645Y15344822D01*
X4828748Y15195843D01*
X5103109Y15098519D01*
X5333000Y15219186D01*
X5333000Y16413000D01*
X4139845Y16413000D01*
X4018524Y16183110D01*
X660000Y16183110D01*
X660000Y18723110D01*
X4018524Y18723110D01*
X4063175Y18575901D01*
X4188359Y18313080D01*
X4362412Y18079731D01*
X4578645Y17884822D01*
X4704255Y17810000D01*
X4578645Y17735178D01*
X4362412Y17540269D01*
X4188359Y17306920D01*
X4063175Y17044099D01*
X4018524Y16896890D01*
X4139845Y16667000D01*
X5333000Y16667000D01*
X5333000Y18953000D01*
X4139845Y18953000D01*
X4018524Y18723110D01*
X660000Y18723110D01*
X660000Y21263110D01*
X4018524Y21263110D01*
X4063175Y21115901D01*
X4188359Y20853080D01*
X4362412Y20619731D01*
X4578645Y20424822D01*
X4704255Y20350000D01*
X4578645Y20275178D01*
X4362412Y20080269D01*
X4188359Y19846920D01*
X4063175Y19584099D01*
X4018524Y19436890D01*
X4139845Y19207000D01*
X5333000Y19207000D01*
X5333000Y21493000D01*
X4139845Y21493000D01*
X4018524Y21263110D01*
X660000Y21263110D01*
X660000Y29289200D01*
X3117644Y29289200D01*
X3121200Y29253095D01*
X3121201Y24097815D01*
X3117644Y24061700D01*
X3131835Y23917615D01*
X3167605Y23799700D01*
X3173864Y23779067D01*
X3242114Y23651380D01*
X3333963Y23539462D01*
X3362008Y23516446D01*
X4317883Y22560570D01*
X4188359Y22386920D01*
X4063175Y22124099D01*
X4018524Y21976890D01*
X4139845Y21747000D01*
X5333000Y21747000D01*
X5333000Y21767000D01*
X5587000Y21767000D01*
X5587000Y21747000D01*
X5607000Y21747000D01*
X5607000Y21493000D01*
X5587000Y21493000D01*
X5587000Y19207000D01*
X5607000Y19207000D01*
X5607000Y18953000D01*
X5587000Y18953000D01*
X5587000Y16667000D01*
X5607000Y16667000D01*
X5607000Y16413000D01*
X5587000Y16413000D01*
X5587000Y15219186D01*
X5816891Y15098519D01*
X6091252Y15195843D01*
X6341355Y15344822D01*
X6557588Y15539731D01*
X6728900Y15769406D01*
X6846525Y15593368D01*
X7053368Y15386525D01*
X7296589Y15224010D01*
X7566842Y15112068D01*
X7853740Y15055000D01*
X8146260Y15055000D01*
X8433158Y15112068D01*
X8703411Y15224010D01*
X8946632Y15386525D01*
X9105480Y15545373D01*
X17051246Y7599607D01*
X17074262Y7571562D01*
X17102306Y7548547D01*
X17186180Y7479713D01*
X17313866Y7411463D01*
X17452415Y7369435D01*
X17596500Y7355244D01*
X17632605Y7358800D01*
X79407995Y7358800D01*
X79444100Y7355244D01*
X79480205Y7358800D01*
X79588185Y7369435D01*
X79726733Y7411463D01*
X79854420Y7479713D01*
X79966338Y7571562D01*
X79989358Y7599612D01*
X81139194Y8749447D01*
X81167238Y8772462D01*
X81259087Y8884380D01*
X81327337Y9012067D01*
X81369365Y9150615D01*
X81369826Y9155299D01*
X81446100Y9196068D01*
X81664607Y9375392D01*
X81843932Y9593899D01*
X81915000Y9726858D01*
X81986068Y9593900D01*
X82165392Y9375393D01*
X82383899Y9196068D01*
X82633192Y9062818D01*
X82903691Y8980764D01*
X83185000Y8953057D01*
X83466308Y8980764D01*
X83736807Y9062818D01*
X83986100Y9196068D01*
X84204607Y9375392D01*
X84383932Y9593899D01*
X84455000Y9726858D01*
X84526068Y9593900D01*
X84705392Y9375393D01*
X84923899Y9196068D01*
X85173192Y9062818D01*
X85443691Y8980764D01*
X85725000Y8953057D01*
X86006308Y8980764D01*
X86276807Y9062818D01*
X86526100Y9196068D01*
X86744607Y9375392D01*
X86923932Y9593899D01*
X86995000Y9726858D01*
X87066068Y9593900D01*
X87245392Y9375393D01*
X87463899Y9196068D01*
X87713192Y9062818D01*
X87983691Y8980764D01*
X88265000Y8953057D01*
X88546308Y8980764D01*
X88816807Y9062818D01*
X89066100Y9196068D01*
X89284607Y9375392D01*
X89463932Y9593899D01*
X89535000Y9726858D01*
X89606068Y9593900D01*
X89785392Y9375393D01*
X90003899Y9196068D01*
X90253192Y9062818D01*
X90523691Y8980764D01*
X90805000Y8953057D01*
X91086308Y8980764D01*
X91356807Y9062818D01*
X91606100Y9196068D01*
X91824607Y9375392D01*
X92003932Y9593899D01*
X92075000Y9726858D01*
X92146068Y9593900D01*
X92325392Y9375393D01*
X92543899Y9196068D01*
X92793192Y9062818D01*
X93063691Y8980764D01*
X93345000Y8953057D01*
X93626308Y8980764D01*
X93896807Y9062818D01*
X94146100Y9196068D01*
X94364607Y9375392D01*
X94543932Y9593899D01*
X94615000Y9726858D01*
X94686068Y9593900D01*
X94865392Y9375393D01*
X95083899Y9196068D01*
X95333192Y9062818D01*
X95603691Y8980764D01*
X95885000Y8953057D01*
X96166308Y8980764D01*
X96436807Y9062818D01*
X96686100Y9196068D01*
X96904607Y9375392D01*
X97083932Y9593899D01*
X97217182Y9843192D01*
X97299236Y10113691D01*
X97320000Y10324508D01*
X97320000Y11265491D01*
X97299236Y11476309D01*
X97217182Y11746808D01*
X97083932Y11996101D01*
X96904608Y12214608D01*
X96686101Y12393932D01*
X96436808Y12527182D01*
X96166309Y12609236D01*
X95885000Y12636943D01*
X95603692Y12609236D01*
X95333193Y12527182D01*
X95083900Y12393932D01*
X94865393Y12214608D01*
X94686068Y11996101D01*
X94615000Y11863142D01*
X94543932Y11996101D01*
X94364608Y12214608D01*
X94146101Y12393932D01*
X93896808Y12527182D01*
X93626309Y12609236D01*
X93345000Y12636943D01*
X93063692Y12609236D01*
X92793193Y12527182D01*
X92543900Y12393932D01*
X92325393Y12214608D01*
X92146068Y11996101D01*
X92075000Y11863142D01*
X92003932Y11996101D01*
X91824608Y12214608D01*
X91606101Y12393932D01*
X91356808Y12527182D01*
X91086309Y12609236D01*
X90805000Y12636943D01*
X90523692Y12609236D01*
X90253193Y12527182D01*
X90003900Y12393932D01*
X89785393Y12214608D01*
X89606068Y11996101D01*
X89535000Y11863142D01*
X89463932Y11996101D01*
X89284608Y12214608D01*
X89066101Y12393932D01*
X88816808Y12527182D01*
X88546309Y12609236D01*
X88265000Y12636943D01*
X87983692Y12609236D01*
X87713193Y12527182D01*
X87463900Y12393932D01*
X87245393Y12214608D01*
X87066068Y11996101D01*
X86995000Y11863142D01*
X86923932Y11996101D01*
X86744608Y12214608D01*
X86526101Y12393932D01*
X86276808Y12527182D01*
X86006309Y12609236D01*
X85725000Y12636943D01*
X85443692Y12609236D01*
X85173193Y12527182D01*
X84923900Y12393932D01*
X84705393Y12214608D01*
X84526068Y11996101D01*
X84455000Y11863142D01*
X84383932Y11996101D01*
X84204608Y12214608D01*
X83986101Y12393932D01*
X83909826Y12434702D01*
X83909365Y12439385D01*
X83867337Y12577934D01*
X83799087Y12705620D01*
X83730253Y12789494D01*
X83707238Y12817538D01*
X83679193Y12840554D01*
X73545646Y22974100D01*
X77243295Y22974100D01*
X77279400Y22970544D01*
X77315505Y22974100D01*
X77423485Y22984735D01*
X77562033Y23026763D01*
X77689720Y23095013D01*
X77801638Y23186862D01*
X77824658Y23214912D01*
X78599194Y23989447D01*
X78627238Y24012462D01*
X78719087Y24124380D01*
X78724443Y24134400D01*
X78787337Y24252066D01*
X78829365Y24390615D01*
X78829826Y24395299D01*
X78906100Y24436068D01*
X79124607Y24615392D01*
X79303932Y24833899D01*
X79372265Y24961741D01*
X79522399Y24732161D01*
X79720105Y24530500D01*
X79953354Y24371285D01*
X80213182Y24260633D01*
X80295961Y24243096D01*
X80518000Y24365085D01*
X80518000Y25908000D01*
X80498000Y25908000D01*
X80498000Y26162000D01*
X80518000Y26162000D01*
X80518000Y26182000D01*
X80772000Y26182000D01*
X80772000Y26162000D01*
X80792000Y26162000D01*
X80792000Y25908000D01*
X80772000Y25908000D01*
X80772000Y24365085D01*
X80994039Y24243096D01*
X81076818Y24260633D01*
X81336646Y24371285D01*
X81569895Y24530500D01*
X81767601Y24732161D01*
X81917735Y24961742D01*
X81986068Y24833900D01*
X82165392Y24615393D01*
X82383899Y24436068D01*
X82633192Y24302818D01*
X82903691Y24220764D01*
X83185000Y24193057D01*
X83466308Y24220764D01*
X83736807Y24302818D01*
X83986100Y24436068D01*
X84204607Y24615392D01*
X84383932Y24833899D01*
X84455000Y24966858D01*
X84526068Y24833900D01*
X84705392Y24615393D01*
X84923899Y24436068D01*
X85173192Y24302818D01*
X85443691Y24220764D01*
X85725000Y24193057D01*
X86006308Y24220764D01*
X86276807Y24302818D01*
X86526100Y24436068D01*
X86744607Y24615392D01*
X86923932Y24833899D01*
X86995000Y24966858D01*
X87066068Y24833900D01*
X87245392Y24615393D01*
X87463899Y24436068D01*
X87713192Y24302818D01*
X87983691Y24220764D01*
X88265000Y24193057D01*
X88546308Y24220764D01*
X88816807Y24302818D01*
X89066100Y24436068D01*
X89284607Y24615392D01*
X89463932Y24833899D01*
X89535000Y24966858D01*
X89606068Y24833900D01*
X89785392Y24615393D01*
X90003899Y24436068D01*
X90253192Y24302818D01*
X90523691Y24220764D01*
X90805000Y24193057D01*
X91086308Y24220764D01*
X91356807Y24302818D01*
X91606100Y24436068D01*
X91824607Y24615392D01*
X92003932Y24833899D01*
X92075000Y24966858D01*
X92146068Y24833900D01*
X92325392Y24615393D01*
X92543899Y24436068D01*
X92793192Y24302818D01*
X93063691Y24220764D01*
X93345000Y24193057D01*
X93626308Y24220764D01*
X93896807Y24302818D01*
X94146100Y24436068D01*
X94364607Y24615392D01*
X94457419Y24728483D01*
X94459188Y24710518D01*
X94495498Y24590820D01*
X94554463Y24480506D01*
X94633815Y24383815D01*
X94730506Y24304463D01*
X94840820Y24245498D01*
X94960518Y24209188D01*
X95085000Y24196928D01*
X96685000Y24196928D01*
X96809482Y24209188D01*
X96929180Y24245498D01*
X97039494Y24304463D01*
X97136185Y24383815D01*
X97215537Y24480506D01*
X97274502Y24590820D01*
X97310812Y24710518D01*
X97323072Y24835000D01*
X97323072Y27235000D01*
X97310812Y27359482D01*
X97274502Y27479180D01*
X97215537Y27589494D01*
X97136185Y27686185D01*
X97039494Y27765537D01*
X96929180Y27824502D01*
X96809482Y27860812D01*
X96685000Y27873072D01*
X96537865Y27873072D01*
X96499087Y27945620D01*
X96407238Y28057538D01*
X96379193Y28080554D01*
X92680859Y31778887D01*
X92657838Y31806938D01*
X92545920Y31898787D01*
X92418233Y31967037D01*
X92279685Y32009065D01*
X92171705Y32019700D01*
X92135600Y32023256D01*
X92099495Y32019700D01*
X89020450Y32019700D01*
X89065000Y32243665D01*
X89065000Y32526335D01*
X89009853Y32803574D01*
X88901680Y33064727D01*
X88744637Y33299759D01*
X88544759Y33499637D01*
X88309727Y33656680D01*
X88048574Y33764853D01*
X87771335Y33820000D01*
X87488665Y33820000D01*
X87211426Y33764853D01*
X86950273Y33656680D01*
X86715241Y33499637D01*
X86515363Y33299759D01*
X86358320Y33064727D01*
X86353933Y33054135D01*
X86242385Y33240131D01*
X86053414Y33448519D01*
X85827420Y33616037D01*
X85573087Y33736246D01*
X85439039Y33776904D01*
X85217000Y33654915D01*
X85217000Y32512000D01*
X85237000Y32512000D01*
X85237000Y32258000D01*
X85217000Y32258000D01*
X85217000Y32238000D01*
X84963000Y32238000D01*
X84963000Y32258000D01*
X84943000Y32258000D01*
X84943000Y32512000D01*
X84963000Y32512000D01*
X84963000Y33654915D01*
X84740961Y33776904D01*
X84606913Y33736246D01*
X84352580Y33616037D01*
X84126586Y33448519D01*
X84110009Y33430238D01*
X82121059Y35419188D01*
X82098038Y35447238D01*
X81986120Y35539087D01*
X81858433Y35607337D01*
X81719885Y35649365D01*
X81611905Y35660000D01*
X81575800Y35663556D01*
X81539695Y35660000D01*
X79974748Y35660000D01*
X79854637Y35839759D01*
X79654759Y36039637D01*
X79419727Y36196680D01*
X79158574Y36304853D01*
X78881335Y36360000D01*
X78598665Y36360000D01*
X78321426Y36304853D01*
X78060273Y36196680D01*
X77825241Y36039637D01*
X77625363Y35839759D01*
X77489086Y35635805D01*
X77444385Y35649365D01*
X77441676Y35649632D01*
X77314637Y35839759D01*
X77114759Y36039637D01*
X76879727Y36196680D01*
X76618574Y36304853D01*
X76341335Y36360000D01*
X76058665Y36360000D01*
X75781426Y36304853D01*
X75520273Y36196680D01*
X75285241Y36039637D01*
X75085363Y35839759D01*
X74928320Y35604727D01*
X74820147Y35343574D01*
X74765000Y35066335D01*
X74765000Y34783665D01*
X74820147Y34506426D01*
X74928320Y34245273D01*
X75085363Y34010241D01*
X75285241Y33810363D01*
X75361144Y33759646D01*
X75348574Y33764853D01*
X75071335Y33820000D01*
X74788665Y33820000D01*
X74511426Y33764853D01*
X74250273Y33656680D01*
X74015241Y33499637D01*
X73970825Y33455221D01*
X73427958Y33998088D01*
X73404938Y34026138D01*
X73293020Y34117987D01*
X73165333Y34186237D01*
X73026785Y34228265D01*
X72918805Y34238900D01*
X72882700Y34242456D01*
X72846595Y34238900D01*
X71005005Y34238900D01*
X70968900Y34242456D01*
X70824815Y34228265D01*
X70686266Y34186237D01*
X70558580Y34117987D01*
X70446662Y34026138D01*
X70423646Y33998093D01*
X70203375Y33777822D01*
X69991335Y33820000D01*
X69708665Y33820000D01*
X69431426Y33764853D01*
X69418856Y33759646D01*
X69494759Y33810363D01*
X69694637Y34010241D01*
X69851680Y34245273D01*
X69959853Y34506426D01*
X70015000Y34783665D01*
X70015000Y35066335D01*
X69959853Y35343574D01*
X69851680Y35604727D01*
X69694637Y35839759D01*
X69494759Y36039637D01*
X69259727Y36196680D01*
X68998574Y36304853D01*
X68721335Y36360000D01*
X68438665Y36360000D01*
X68161426Y36304853D01*
X67900273Y36196680D01*
X67665241Y36039637D01*
X67465363Y35839759D01*
X67310000Y35607241D01*
X67154637Y35839759D01*
X66954759Y36039637D01*
X66719727Y36196680D01*
X66458574Y36304853D01*
X66265003Y36343357D01*
X76493625Y46571979D01*
X76555241Y46510363D01*
X76790273Y46353320D01*
X77051426Y46245147D01*
X77328665Y46190000D01*
X77611335Y46190000D01*
X77888574Y46245147D01*
X78149727Y46353320D01*
X78384759Y46510363D01*
X78584637Y46710241D01*
X78740000Y46942759D01*
X78895363Y46710241D01*
X79095241Y46510363D01*
X79330273Y46353320D01*
X79591426Y46245147D01*
X79868665Y46190000D01*
X80151335Y46190000D01*
X80428574Y46245147D01*
X80689727Y46353320D01*
X80924759Y46510363D01*
X81124637Y46710241D01*
X81260914Y46914195D01*
X81305615Y46900635D01*
X81308324Y46900368D01*
X81435363Y46710241D01*
X81635241Y46510363D01*
X81870273Y46353320D01*
X82131426Y46245147D01*
X82408665Y46190000D01*
X82691335Y46190000D01*
X82968574Y46245147D01*
X83229727Y46353320D01*
X83464759Y46510363D01*
X83664637Y46710241D01*
X83820000Y46942759D01*
X83975363Y46710241D01*
X84175241Y46510363D01*
X84410273Y46353320D01*
X84671426Y46245147D01*
X84948665Y46190000D01*
X85231335Y46190000D01*
X85508574Y46245147D01*
X85769727Y46353320D01*
X86004759Y46510363D01*
X86203357Y46708961D01*
X86204188Y46700518D01*
X86240498Y46580820D01*
X86299463Y46470506D01*
X86378815Y46373815D01*
X86475506Y46294463D01*
X86585820Y46235498D01*
X86705518Y46199188D01*
X86830000Y46186928D01*
X88430000Y46186928D01*
X88554482Y46199188D01*
X88674180Y46235498D01*
X88784494Y46294463D01*
X88881185Y46373815D01*
X88960537Y46470506D01*
X89019502Y46580820D01*
X89055812Y46700518D01*
X89068072Y46825000D01*
X89068072Y48425000D01*
X89055812Y48549482D01*
X89019502Y48669180D01*
X88960537Y48779494D01*
X88881185Y48876185D01*
X88784494Y48955537D01*
X88674180Y49014502D01*
X88554482Y49050812D01*
X88430000Y49063072D01*
X86830000Y49063072D01*
X86705518Y49050812D01*
X86585820Y49014502D01*
X86475506Y48955537D01*
X86378815Y48876185D01*
X86299463Y48779494D01*
X86240498Y48669180D01*
X86204188Y48549482D01*
X86203357Y48541039D01*
X86004759Y48739637D01*
X85769727Y48896680D01*
X85508574Y49004853D01*
X85231335Y49060000D01*
X84948665Y49060000D01*
X84671426Y49004853D01*
X84410273Y48896680D01*
X84175241Y48739637D01*
X83975363Y48539759D01*
X83820000Y48307241D01*
X83664637Y48539759D01*
X83464759Y48739637D01*
X83229727Y48896680D01*
X82968574Y49004853D01*
X82691335Y49060000D01*
X82408665Y49060000D01*
X82131426Y49004853D01*
X81870273Y48896680D01*
X81635241Y48739637D01*
X81602125Y48706521D01*
X81056758Y49251888D01*
X81033738Y49279938D01*
X80921820Y49371787D01*
X80794133Y49440037D01*
X80655585Y49482065D01*
X80547605Y49492700D01*
X80511500Y49496256D01*
X80475395Y49492700D01*
X57533396Y49492700D01*
X57497299Y49496255D01*
X57461202Y49492700D01*
X57461195Y49492700D01*
X57369724Y49483691D01*
X57353214Y49482065D01*
X57316409Y49470900D01*
X57214667Y49440037D01*
X57086980Y49371787D01*
X56975062Y49279938D01*
X56952046Y49251893D01*
X49300454Y41600300D01*
X37529338Y41600300D01*
X37609236Y41863691D01*
X37630000Y42074508D01*
X37630000Y42799133D01*
X38965736Y44134868D01*
X39090241Y44010363D01*
X39325273Y43853320D01*
X39586426Y43745147D01*
X39863665Y43690000D01*
X40146335Y43690000D01*
X40423574Y43745147D01*
X40684727Y43853320D01*
X40919759Y44010363D01*
X41119637Y44210241D01*
X41276680Y44445273D01*
X41384853Y44706426D01*
X41440000Y44983665D01*
X41440000Y45266335D01*
X41384853Y45543574D01*
X41276680Y45804727D01*
X41119637Y46039759D01*
X40919759Y46239637D01*
X40719131Y46373692D01*
X40746514Y46388329D01*
X40818097Y46632298D01*
X40005000Y47445395D01*
X39191903Y46632298D01*
X39263486Y46388329D01*
X39292341Y46374676D01*
X39090241Y46239637D01*
X38890363Y46039759D01*
X38837070Y45960000D01*
X38816018Y45960000D01*
X38775000Y45964040D01*
X38733982Y45960000D01*
X38733981Y45960000D01*
X38611311Y45947918D01*
X38453913Y45900172D01*
X38308854Y45822636D01*
X38220347Y45750000D01*
X38181709Y45718291D01*
X38155563Y45686432D01*
X36845100Y44375968D01*
X36514345Y44706722D01*
X36488191Y44738591D01*
X36361046Y44842936D01*
X36311673Y44869327D01*
X38635453Y47193106D01*
X38701397Y47008708D01*
X38768329Y46883486D01*
X39012298Y46811903D01*
X39825395Y47625000D01*
X40184605Y47625000D01*
X40997702Y46811903D01*
X41241671Y46883486D01*
X41362571Y47138996D01*
X41431300Y47413184D01*
X41445217Y47695512D01*
X41403787Y47975130D01*
X41308603Y48241292D01*
X41241671Y48366514D01*
X40997702Y48438097D01*
X40184605Y47625000D01*
X39825395Y47625000D01*
X39811253Y47639142D01*
X39990858Y47818747D01*
X40005000Y47804605D01*
X40818097Y48617702D01*
X40746514Y48861671D01*
X40491004Y48982571D01*
X40216816Y49051300D01*
X40030145Y49060502D01*
X39971077Y49203105D01*
X39874224Y49348055D01*
X39750955Y49471324D01*
X39606005Y49568177D01*
X39444945Y49634890D01*
X39273965Y49668900D01*
X39099635Y49668900D01*
X38928655Y49634890D01*
X38767595Y49568177D01*
X38654455Y49492579D01*
X38562445Y49530690D01*
X38391465Y49564700D01*
X38217135Y49564700D01*
X38046155Y49530690D01*
X37885095Y49463977D01*
X37740145Y49367124D01*
X37716921Y49343900D01*
X37633072Y49343900D01*
X37633072Y51365000D01*
X37620812Y51489482D01*
X37584502Y51609180D01*
X37525537Y51719494D01*
X37446185Y51816185D01*
X37349494Y51895537D01*
X37239180Y51954502D01*
X37119482Y51990812D01*
X36995000Y52003072D01*
X36847865Y52003072D01*
X36809087Y52075620D01*
X36717238Y52187538D01*
X36689193Y52210554D01*
X33257659Y55642087D01*
X33240168Y55663400D01*
X56654895Y55663400D01*
X56691000Y55659844D01*
X56727105Y55663400D01*
X56835085Y55674035D01*
X56973633Y55716063D01*
X57101320Y55784313D01*
X57213238Y55876162D01*
X57236259Y55904213D01*
X60982046Y59650000D01*
X69011928Y59650000D01*
X69024188Y59525518D01*
X69060498Y59405820D01*
X69119463Y59295506D01*
X69198815Y59198815D01*
X69295506Y59119463D01*
X69405820Y59060498D01*
X69525518Y59024188D01*
X69650000Y59011928D01*
X70214250Y59015000D01*
X70373000Y59173750D01*
X70373000Y60373000D01*
X69173750Y60373000D01*
X69015000Y60214250D01*
X69011928Y59650000D01*
X60982046Y59650000D01*
X62682046Y61350000D01*
X69011928Y61350000D01*
X69015000Y60785750D01*
X69173750Y60627000D01*
X70373000Y60627000D01*
X70373000Y61826250D01*
X70214250Y61985000D01*
X69650000Y61988072D01*
X69525518Y61975812D01*
X69405820Y61939502D01*
X69295506Y61880537D01*
X69198815Y61801185D01*
X69119463Y61704494D01*
X69060498Y61594180D01*
X69024188Y61474482D01*
X69011928Y61350000D01*
X62682046Y61350000D01*
X68319593Y66987546D01*
X68347638Y67010562D01*
X68439487Y67122480D01*
X68507737Y67250167D01*
X68511897Y67263882D01*
X68781842Y67152068D01*
X69068740Y67095000D01*
X69361260Y67095000D01*
X69648158Y67152068D01*
X69918411Y67264010D01*
X70161632Y67426525D01*
X70368475Y67633368D01*
X70485000Y67807760D01*
X70601525Y67633368D01*
X70808368Y67426525D01*
X71051589Y67264010D01*
X71321842Y67152068D01*
X71608740Y67095000D01*
X71901260Y67095000D01*
X72188158Y67152068D01*
X72458411Y67264010D01*
X72701632Y67426525D01*
X72908475Y67633368D01*
X73030195Y67815534D01*
X73099822Y67698645D01*
X73294731Y67482412D01*
X73528080Y67308359D01*
X73790901Y67183175D01*
X73938110Y67138524D01*
X74168000Y67259845D01*
X74168000Y68453000D01*
X74148000Y68453000D01*
X74148000Y68707000D01*
X74168000Y68707000D01*
X74168000Y68727000D01*
X74422000Y68727000D01*
X74422000Y68707000D01*
X74442000Y68707000D01*
X74442000Y68453000D01*
X74422000Y68453000D01*
X74422000Y67259845D01*
X74651890Y67138524D01*
X74799099Y67183175D01*
X75061920Y67308359D01*
X75295269Y67482412D01*
X75490178Y67698645D01*
X75559805Y67815534D01*
X75681525Y67633368D01*
X75888368Y67426525D01*
X76131589Y67264010D01*
X76401842Y67152068D01*
X76688740Y67095000D01*
X76981260Y67095000D01*
X77268158Y67152068D01*
X77538411Y67264010D01*
X77781632Y67426525D01*
X77988475Y67633368D01*
X78105000Y67807760D01*
X78221525Y67633368D01*
X78380373Y67474520D01*
X75085808Y64179954D01*
X75057763Y64156938D01*
X74965914Y64045020D01*
X74912686Y63945437D01*
X74897664Y63917333D01*
X74855635Y63778785D01*
X74841444Y63634700D01*
X74845001Y63598585D01*
X74845000Y61794883D01*
X74633368Y61653475D01*
X74426525Y61446632D01*
X74350662Y61333095D01*
X74331319Y61335000D01*
X74331318Y61335000D01*
X74290300Y61339040D01*
X74266905Y61336736D01*
X74193475Y61446632D01*
X73986632Y61653475D01*
X73743411Y61815990D01*
X73473158Y61927932D01*
X73186260Y61985000D01*
X72893740Y61985000D01*
X72606842Y61927932D01*
X72336589Y61815990D01*
X72093368Y61653475D01*
X71961513Y61521620D01*
X71939502Y61594180D01*
X71880537Y61704494D01*
X71801185Y61801185D01*
X71704494Y61880537D01*
X71594180Y61939502D01*
X71474482Y61975812D01*
X71350000Y61988072D01*
X70785750Y61985000D01*
X70627000Y61826250D01*
X70627000Y60627000D01*
X70647000Y60627000D01*
X70647000Y60373000D01*
X70627000Y60373000D01*
X70627000Y59173750D01*
X70785750Y59015000D01*
X71350000Y59011928D01*
X71474482Y59024188D01*
X71594180Y59060498D01*
X71704494Y59119463D01*
X71801185Y59198815D01*
X71880537Y59295506D01*
X71939502Y59405820D01*
X71961513Y59478380D01*
X72093368Y59346525D01*
X72336589Y59184010D01*
X72606842Y59072068D01*
X72893740Y59015000D01*
X73186260Y59015000D01*
X73473158Y59072068D01*
X73743411Y59184010D01*
X73824345Y59238088D01*
X74384963Y58677469D01*
X74411109Y58645609D01*
X74442968Y58619463D01*
X74442970Y58619461D01*
X74538254Y58541264D01*
X74683313Y58463728D01*
X74840711Y58415982D01*
X75004400Y58399860D01*
X75045418Y58403900D01*
X88407882Y58403900D01*
X88448900Y58399860D01*
X88489918Y58403900D01*
X88489919Y58403900D01*
X88612589Y58415982D01*
X88769987Y58463728D01*
X88915046Y58541264D01*
X89042191Y58645609D01*
X89068346Y58677479D01*
X89934582Y59543714D01*
X90028665Y59525000D01*
X90311335Y59525000D01*
X90556100Y59573687D01*
X90556101Y55865848D01*
X89675808Y54985554D01*
X89647763Y54962538D01*
X89555914Y54850620D01*
X89495494Y54737581D01*
X89487664Y54722933D01*
X89445635Y54584385D01*
X89445368Y54581676D01*
X89255241Y54454637D01*
X89055363Y54254759D01*
X88898320Y54019727D01*
X88790147Y53758574D01*
X88735000Y53481335D01*
X88735000Y53198665D01*
X88790147Y52921426D01*
X88898320Y52660273D01*
X89055363Y52425241D01*
X89255241Y52225363D01*
X89490273Y52068320D01*
X89751426Y51960147D01*
X90028665Y51905000D01*
X90311335Y51905000D01*
X90588574Y51960147D01*
X90849727Y52068320D01*
X91084759Y52225363D01*
X91284637Y52425241D01*
X91441680Y52660273D01*
X91549853Y52921426D01*
X91605000Y53198665D01*
X91605000Y53481335D01*
X91549853Y53758574D01*
X91441680Y54019727D01*
X91284637Y54254759D01*
X91154271Y54385125D01*
X91785293Y55016146D01*
X91813338Y55039162D01*
X91905187Y55151080D01*
X91973437Y55278767D01*
X92015465Y55417315D01*
X92026100Y55525295D01*
X92029656Y55561400D01*
X92026100Y55597505D01*
X92026100Y61371795D01*
X92029656Y61407900D01*
X92015465Y61551985D01*
X91973437Y61690534D01*
X91905187Y61818220D01*
X91836353Y61902094D01*
X91836350Y61902097D01*
X91813337Y61930138D01*
X91785297Y61953150D01*
X90135258Y63603188D01*
X90112238Y63631238D01*
X90000320Y63723087D01*
X89872633Y63791337D01*
X89734085Y63833365D01*
X89626105Y63844000D01*
X89590000Y63847556D01*
X89553895Y63844000D01*
X88533747Y63844000D01*
X85126821Y67250925D01*
X85158411Y67264010D01*
X85401632Y67426525D01*
X85608475Y67633368D01*
X85725000Y67807760D01*
X85841525Y67633368D01*
X86048368Y67426525D01*
X86291589Y67264010D01*
X86561842Y67152068D01*
X86848740Y67095000D01*
X87141260Y67095000D01*
X87428158Y67152068D01*
X87698411Y67264010D01*
X87941632Y67426525D01*
X88148475Y67633368D01*
X88310990Y67876589D01*
X88422932Y68146842D01*
X88480000Y68433740D01*
X88480000Y68726260D01*
X88422932Y69013158D01*
X88310990Y69283411D01*
X88148475Y69526632D01*
X87941632Y69733475D01*
X87698411Y69895990D01*
X87428158Y70007932D01*
X87141260Y70065000D01*
X86848740Y70065000D01*
X86561842Y70007932D01*
X86291589Y69895990D01*
X86048368Y69733475D01*
X85841525Y69526632D01*
X85725000Y69352240D01*
X85608475Y69526632D01*
X85401632Y69733475D01*
X85158411Y69895990D01*
X84888158Y70007932D01*
X84601260Y70065000D01*
X84308740Y70065000D01*
X84021842Y70007932D01*
X83751589Y69895990D01*
X83508368Y69733475D01*
X83491770Y69716877D01*
X82952358Y70256288D01*
X82929338Y70284338D01*
X82817420Y70376187D01*
X82689733Y70444437D01*
X82551185Y70486465D01*
X82443205Y70497100D01*
X82407100Y70500656D01*
X82370995Y70497100D01*
X68560400Y70497100D01*
X68560400Y84638195D01*
X68563956Y84674300D01*
X68549765Y84818385D01*
X68507737Y84956934D01*
X68439487Y85084620D01*
X68370653Y85168494D01*
X68370650Y85168497D01*
X68347637Y85196538D01*
X68319598Y85219549D01*
X58644627Y94894520D01*
X58803475Y95053368D01*
X58920000Y95227760D01*
X59036525Y95053368D01*
X59243368Y94846525D01*
X59486589Y94684010D01*
X59756842Y94572068D01*
X60043740Y94515000D01*
X60336260Y94515000D01*
X60623158Y94572068D01*
X60893411Y94684010D01*
X61136632Y94846525D01*
X61343475Y95053368D01*
X61505990Y95296589D01*
X61617932Y95566842D01*
X61675000Y95853740D01*
X61675000Y96146260D01*
X61617932Y96433158D01*
X61521379Y96666260D01*
X65190000Y96666260D01*
X65190000Y96373740D01*
X65247068Y96086842D01*
X65359010Y95816589D01*
X65521525Y95573368D01*
X65728368Y95366525D01*
X65902760Y95250000D01*
X65728368Y95133475D01*
X65521525Y94926632D01*
X65359010Y94683411D01*
X65247068Y94413158D01*
X65190000Y94126260D01*
X65190000Y93833740D01*
X65247068Y93546842D01*
X65359010Y93276589D01*
X65521525Y93033368D01*
X65728368Y92826525D01*
X65971589Y92664010D01*
X66241842Y92552068D01*
X66528740Y92495000D01*
X66821260Y92495000D01*
X67108158Y92552068D01*
X67378411Y92664010D01*
X67621632Y92826525D01*
X67828475Y93033368D01*
X67990990Y93276589D01*
X68102932Y93546842D01*
X68160000Y93833740D01*
X68160000Y94126260D01*
X68102932Y94413158D01*
X67990990Y94683411D01*
X67828475Y94926632D01*
X67621632Y95133475D01*
X67447240Y95250000D01*
X67621632Y95366525D01*
X67828475Y95573368D01*
X67990990Y95816589D01*
X68102932Y96086842D01*
X68160000Y96373740D01*
X68160000Y96666260D01*
X85510000Y96666260D01*
X85510000Y96373740D01*
X85567068Y96086842D01*
X85679010Y95816589D01*
X85841525Y95573368D01*
X86048368Y95366525D01*
X86222760Y95250000D01*
X86048368Y95133475D01*
X85841525Y94926632D01*
X85679010Y94683411D01*
X85567068Y94413158D01*
X85510000Y94126260D01*
X85510000Y93833740D01*
X85567068Y93546842D01*
X85679010Y93276589D01*
X85841525Y93033368D01*
X86048368Y92826525D01*
X86291589Y92664010D01*
X86561842Y92552068D01*
X86848740Y92495000D01*
X87141260Y92495000D01*
X87428158Y92552068D01*
X87698411Y92664010D01*
X87941632Y92826525D01*
X88148475Y93033368D01*
X88310990Y93276589D01*
X88422932Y93546842D01*
X88480000Y93833740D01*
X88480000Y94126260D01*
X88422932Y94413158D01*
X88310990Y94683411D01*
X88148475Y94926632D01*
X87941632Y95133475D01*
X87811947Y95220128D01*
X92765000Y95220128D01*
X92765000Y94779872D01*
X92850890Y94348075D01*
X93019369Y93941331D01*
X93263962Y93575271D01*
X93575271Y93263962D01*
X93941331Y93019369D01*
X94348075Y92850890D01*
X94779872Y92765000D01*
X95220128Y92765000D01*
X95651925Y92850890D01*
X96058669Y93019369D01*
X96424729Y93263962D01*
X96736038Y93575271D01*
X96980631Y93941331D01*
X97149110Y94348075D01*
X97235000Y94779872D01*
X97235000Y95220128D01*
X97149110Y95651925D01*
X96980631Y96058669D01*
X96736038Y96424729D01*
X96424729Y96736038D01*
X96058669Y96980631D01*
X95651925Y97149110D01*
X95220128Y97235000D01*
X94779872Y97235000D01*
X94348075Y97149110D01*
X93941331Y96980631D01*
X93575271Y96736038D01*
X93263962Y96424729D01*
X93019369Y96058669D01*
X92850890Y95651925D01*
X92765000Y95220128D01*
X87811947Y95220128D01*
X87767240Y95250000D01*
X87941632Y95366525D01*
X88148475Y95573368D01*
X88310990Y95816589D01*
X88422932Y96086842D01*
X88480000Y96373740D01*
X88480000Y96666260D01*
X88422932Y96953158D01*
X88310990Y97223411D01*
X88148475Y97466632D01*
X87941632Y97673475D01*
X87698411Y97835990D01*
X87428158Y97947932D01*
X87141260Y98005000D01*
X86848740Y98005000D01*
X86561842Y97947932D01*
X86291589Y97835990D01*
X86048368Y97673475D01*
X85841525Y97466632D01*
X85679010Y97223411D01*
X85567068Y96953158D01*
X85510000Y96666260D01*
X68160000Y96666260D01*
X68102932Y96953158D01*
X67990990Y97223411D01*
X67828475Y97466632D01*
X67621632Y97673475D01*
X67378411Y97835990D01*
X67108158Y97947932D01*
X66821260Y98005000D01*
X66528740Y98005000D01*
X66241842Y97947932D01*
X65971589Y97835990D01*
X65728368Y97673475D01*
X65521525Y97466632D01*
X65359010Y97223411D01*
X65247068Y96953158D01*
X65190000Y96666260D01*
X61521379Y96666260D01*
X61505990Y96703411D01*
X61343475Y96946632D01*
X61136632Y97153475D01*
X60893411Y97315990D01*
X60623158Y97427932D01*
X60336260Y97485000D01*
X60043740Y97485000D01*
X59756842Y97427932D01*
X59486589Y97315990D01*
X59243368Y97153475D01*
X59036525Y96946632D01*
X58920000Y96772240D01*
X58803475Y96946632D01*
X58596632Y97153475D01*
X58353411Y97315990D01*
X58083158Y97427932D01*
X57796260Y97485000D01*
X57503740Y97485000D01*
X57216842Y97427932D01*
X56946589Y97315990D01*
X56703368Y97153475D01*
X56571513Y97021620D01*
X56549502Y97094180D01*
X56490537Y97204494D01*
X56411185Y97301185D01*
X56314494Y97380537D01*
X56204180Y97439502D01*
X56084482Y97475812D01*
X55960000Y97488072D01*
X54260000Y97488072D01*
X54135518Y97475812D01*
X54015820Y97439502D01*
X53905506Y97380537D01*
X53808815Y97301185D01*
X53729463Y97204494D01*
X53670498Y97094180D01*
X53634188Y96974482D01*
X53621928Y96850000D01*
X53621928Y95150000D01*
X53634188Y95025518D01*
X53670498Y94905820D01*
X53729463Y94795506D01*
X53808815Y94698815D01*
X53905506Y94619463D01*
X54015820Y94560498D01*
X54135518Y94524188D01*
X54260000Y94511928D01*
X55960000Y94511928D01*
X56084482Y94524188D01*
X56204180Y94560498D01*
X56314494Y94619463D01*
X56411185Y94698815D01*
X56490537Y94795506D01*
X56549502Y94905820D01*
X56571513Y94978380D01*
X56703368Y94846525D01*
X56928528Y94696078D01*
X56966147Y94572068D01*
X56967664Y94567067D01*
X57035914Y94439380D01*
X57127763Y94327462D01*
X57155808Y94304446D01*
X67090400Y84369853D01*
X67090401Y70068072D01*
X65825000Y70068072D01*
X65700518Y70055812D01*
X65580820Y70019502D01*
X65470506Y69960537D01*
X65373815Y69881185D01*
X65294463Y69784494D01*
X65235498Y69674180D01*
X65199188Y69554482D01*
X65186928Y69430000D01*
X65186928Y69380445D01*
X65103613Y69355172D01*
X64958554Y69277636D01*
X64831409Y69173291D01*
X64805259Y69141427D01*
X60166333Y64502500D01*
X56019904Y64502500D01*
X56045000Y64628665D01*
X56045000Y64911335D01*
X55989853Y65188574D01*
X55881680Y65449727D01*
X55724637Y65684759D01*
X55524759Y65884637D01*
X55324131Y66018692D01*
X55351514Y66033329D01*
X55423097Y66277298D01*
X54610000Y67090395D01*
X54595858Y67076252D01*
X54416253Y67255857D01*
X54430395Y67270000D01*
X54789605Y67270000D01*
X55602702Y66456903D01*
X55846671Y66528486D01*
X55967571Y66783996D01*
X56036300Y67058184D01*
X56050217Y67340512D01*
X56008787Y67620130D01*
X55913603Y67886292D01*
X55846671Y68011514D01*
X55602702Y68083097D01*
X54789605Y67270000D01*
X54430395Y67270000D01*
X53617298Y68083097D01*
X53373329Y68011514D01*
X53252429Y67756004D01*
X53183700Y67481816D01*
X53178784Y67382084D01*
X52298166Y68262702D01*
X53796903Y68262702D01*
X54610000Y67449605D01*
X55423097Y68262702D01*
X55351514Y68506671D01*
X55096004Y68627571D01*
X54821816Y68696300D01*
X54539488Y68710217D01*
X54259870Y68668787D01*
X53993708Y68573603D01*
X53868486Y68506671D01*
X53796903Y68262702D01*
X52298166Y68262702D01*
X51635000Y68925867D01*
X51635000Y72160375D01*
X51724482Y72169188D01*
X51844180Y72205498D01*
X51954494Y72264463D01*
X52051185Y72343815D01*
X52130537Y72440506D01*
X52189502Y72550820D01*
X52225812Y72670518D01*
X52238072Y72795000D01*
X52238072Y75195000D01*
X52225812Y75319482D01*
X52189502Y75439180D01*
X52130537Y75549494D01*
X52051185Y75646185D01*
X51954494Y75725537D01*
X51844180Y75784502D01*
X51724482Y75820812D01*
X51600459Y75833027D01*
X51575172Y75916387D01*
X51497636Y76061446D01*
X51393291Y76188591D01*
X51266146Y76292936D01*
X51121087Y76370472D01*
X50963689Y76418218D01*
X50841019Y76430300D01*
X50800000Y76434340D01*
X50758982Y76430300D01*
X49340868Y76430300D01*
X39039746Y86731421D01*
X39013591Y86763291D01*
X38886446Y86867636D01*
X38741387Y86945172D01*
X38658027Y86970459D01*
X38645812Y87094482D01*
X38609502Y87214180D01*
X38550537Y87324494D01*
X38471185Y87421185D01*
X38374494Y87500537D01*
X38264180Y87559502D01*
X38144482Y87595812D01*
X38055000Y87604625D01*
X38055000Y90500993D01*
X38059039Y90542001D01*
X38055000Y90583009D01*
X38055000Y90583019D01*
X38042918Y90705689D01*
X37995172Y90863087D01*
X37917636Y91008146D01*
X37813291Y91135291D01*
X37781426Y91161442D01*
X36705000Y92237867D01*
X36705000Y93799600D01*
X47385282Y93799600D01*
X47426300Y93795560D01*
X47467318Y93799600D01*
X47467319Y93799600D01*
X47589989Y93811682D01*
X47747387Y93859428D01*
X47892446Y93936964D01*
X48019591Y94041309D01*
X48045745Y94073178D01*
X48595656Y94623088D01*
X48676589Y94569010D01*
X48946842Y94457068D01*
X49233740Y94400000D01*
X49526260Y94400000D01*
X49813158Y94457068D01*
X50083411Y94569010D01*
X50326632Y94731525D01*
X50533475Y94938368D01*
X50695990Y95181589D01*
X50807932Y95451842D01*
X50865000Y95738740D01*
X50865000Y96031260D01*
X50807932Y96318158D01*
X50695990Y96588411D01*
X50533475Y96831632D01*
X50326632Y97038475D01*
X50083411Y97200990D01*
X49813158Y97312932D01*
X49526260Y97370000D01*
X49233740Y97370000D01*
X48946842Y97312932D01*
X48676589Y97200990D01*
X48433368Y97038475D01*
X48226525Y96831632D01*
X48153095Y96721736D01*
X48129700Y96724040D01*
X48088681Y96720000D01*
X48069338Y96718095D01*
X47993475Y96831632D01*
X47786632Y97038475D01*
X47543411Y97200990D01*
X47273158Y97312932D01*
X46986260Y97370000D01*
X46693740Y97370000D01*
X46406842Y97312932D01*
X46136589Y97200990D01*
X45893368Y97038475D01*
X45761513Y96906620D01*
X45739502Y96979180D01*
X45680537Y97089494D01*
X45601185Y97186185D01*
X45504494Y97265537D01*
X45394180Y97324502D01*
X45274482Y97360812D01*
X45150000Y97373072D01*
X44585750Y97370000D01*
X44427000Y97211250D01*
X44427000Y96012000D01*
X44447000Y96012000D01*
X44447000Y95758000D01*
X44427000Y95758000D01*
X44427000Y95738000D01*
X44173000Y95738000D01*
X44173000Y95758000D01*
X42973750Y95758000D01*
X42815000Y95599250D01*
X42814294Y95469600D01*
X39841464Y95469600D01*
X39895000Y95738740D01*
X39895000Y96031260D01*
X39837932Y96318158D01*
X39725990Y96588411D01*
X39628043Y96735000D01*
X42811928Y96735000D01*
X42815000Y96170750D01*
X42973750Y96012000D01*
X44173000Y96012000D01*
X44173000Y97211250D01*
X44014250Y97370000D01*
X43450000Y97373072D01*
X43325518Y97360812D01*
X43205820Y97324502D01*
X43095506Y97265537D01*
X42998815Y97186185D01*
X42919463Y97089494D01*
X42860498Y96979180D01*
X42824188Y96859482D01*
X42811928Y96735000D01*
X39628043Y96735000D01*
X39563475Y96831632D01*
X39356632Y97038475D01*
X39113411Y97200990D01*
X38843158Y97312932D01*
X38556260Y97370000D01*
X38263740Y97370000D01*
X37976842Y97312932D01*
X37706589Y97200990D01*
X37463368Y97038475D01*
X37256525Y96831632D01*
X37140000Y96657240D01*
X37023475Y96831632D01*
X36816632Y97038475D01*
X36573411Y97200990D01*
X36303158Y97312932D01*
X36016260Y97370000D01*
X35723740Y97370000D01*
X35436842Y97312932D01*
X35166589Y97200990D01*
X34923368Y97038475D01*
X34791513Y96906620D01*
X34769502Y96979180D01*
X34710537Y97089494D01*
X34631185Y97186185D01*
X34534494Y97265537D01*
X34424180Y97324502D01*
X34304482Y97360812D01*
X34180000Y97373072D01*
X32480000Y97373072D01*
X32355518Y97360812D01*
X32235820Y97324502D01*
X32125506Y97265537D01*
X32028815Y97186185D01*
X31949463Y97089494D01*
X31890498Y96979180D01*
X31854188Y96859482D01*
X31841928Y96735000D01*
X31841928Y96620000D01*
X21506405Y96620000D01*
X21470300Y96623556D01*
X21434195Y96620000D01*
X21326215Y96609365D01*
X21187667Y96567337D01*
X21059980Y96499087D01*
X20948062Y96407238D01*
X20925046Y96379193D01*
X11511153Y86965299D01*
X11461185Y87026185D01*
X11364494Y87105537D01*
X11254180Y87164502D01*
X11181620Y87186513D01*
X11313475Y87318368D01*
X11475990Y87561589D01*
X11587932Y87831842D01*
X11645000Y88118740D01*
X11645000Y88411260D01*
X11587932Y88698158D01*
X11475990Y88968411D01*
X11313475Y89211632D01*
X11106632Y89418475D01*
X10863411Y89580990D01*
X10593158Y89692932D01*
X10306260Y89750000D01*
X10013740Y89750000D01*
X9726842Y89692932D01*
X9456589Y89580990D01*
X9213368Y89418475D01*
X9006525Y89211632D01*
X8844010Y88968411D01*
X8732068Y88698158D01*
X8675000Y88411260D01*
X8675000Y88118740D01*
X8732068Y87831842D01*
X8844010Y87561589D01*
X9006525Y87318368D01*
X9138380Y87186513D01*
X9065820Y87164502D01*
X8955506Y87105537D01*
X8858815Y87026185D01*
X8779463Y86929494D01*
X8720498Y86819180D01*
X8684188Y86699482D01*
X8671928Y86575000D01*
X8671928Y84875000D01*
X8684188Y84750518D01*
X8720498Y84630820D01*
X8779463Y84520506D01*
X8858815Y84423815D01*
X8955506Y84344463D01*
X9065820Y84285498D01*
X9185518Y84249188D01*
X9310000Y84236928D01*
X11010000Y84236928D01*
X11134482Y84249188D01*
X11254180Y84285498D01*
X11364494Y84344463D01*
X11461185Y84423815D01*
X11540537Y84520506D01*
X11599502Y84630820D01*
X11635812Y84750518D01*
X11648072Y84875000D01*
X11648072Y85072135D01*
X11720620Y85110913D01*
X11832538Y85202762D01*
X11855559Y85230813D01*
X15589746Y88965000D01*
X16406928Y88965000D01*
X16406928Y87215000D01*
X16436001Y86919814D01*
X16522104Y86635972D01*
X16661927Y86374382D01*
X16850097Y86145097D01*
X17079382Y85956927D01*
X17340972Y85817104D01*
X17624814Y85731001D01*
X17920000Y85701928D01*
X19670000Y85701928D01*
X19965186Y85731001D01*
X20249028Y85817104D01*
X20510618Y85956927D01*
X20739903Y86145097D01*
X20928073Y86374382D01*
X21067896Y86635972D01*
X21106928Y86764643D01*
X21106928Y83340000D01*
X21119188Y83215518D01*
X21155498Y83095820D01*
X21214463Y82985506D01*
X21293815Y82888815D01*
X21390506Y82809463D01*
X21500820Y82750498D01*
X21620518Y82714188D01*
X21745000Y82701928D01*
X25245000Y82701928D01*
X25369482Y82714188D01*
X25489180Y82750498D01*
X25599494Y82809463D01*
X25696185Y82888815D01*
X25775537Y82985506D01*
X25834502Y83095820D01*
X25870812Y83215518D01*
X25883072Y83340000D01*
X25883072Y83599488D01*
X35779783Y83599488D01*
X35821213Y83319870D01*
X35916397Y83053708D01*
X35983329Y82928486D01*
X36227298Y82856903D01*
X37040395Y83670000D01*
X37399605Y83670000D01*
X38212702Y82856903D01*
X38456671Y82928486D01*
X38577571Y83183996D01*
X38646300Y83458184D01*
X38660217Y83740512D01*
X38618787Y84020130D01*
X38523603Y84286292D01*
X38456671Y84411514D01*
X38212702Y84483097D01*
X37399605Y83670000D01*
X37040395Y83670000D01*
X36227298Y84483097D01*
X35983329Y84411514D01*
X35862429Y84156004D01*
X35793700Y83881816D01*
X35779783Y83599488D01*
X25883072Y83599488D01*
X25883072Y86840000D01*
X25870812Y86964482D01*
X25834502Y87084180D01*
X25775537Y87194494D01*
X25696185Y87291185D01*
X25599494Y87370537D01*
X25489180Y87429502D01*
X25369482Y87465812D01*
X25245000Y87478072D01*
X21745000Y87478072D01*
X21620518Y87465812D01*
X21500820Y87429502D01*
X21390506Y87370537D01*
X21293815Y87291185D01*
X21214463Y87194494D01*
X21173506Y87117869D01*
X21183072Y87215000D01*
X21183072Y88965000D01*
X21153999Y89260186D01*
X21067896Y89544028D01*
X21043324Y89590000D01*
X21106928Y89590000D01*
X21119188Y89465518D01*
X21155498Y89345820D01*
X21214463Y89235506D01*
X21293815Y89138815D01*
X21390506Y89059463D01*
X21500820Y89000498D01*
X21620518Y88964188D01*
X21745000Y88951928D01*
X23209250Y88955000D01*
X23368000Y89113750D01*
X23368000Y90963000D01*
X23622000Y90963000D01*
X23622000Y89113750D01*
X23780750Y88955000D01*
X25245000Y88951928D01*
X25369482Y88964188D01*
X25489180Y89000498D01*
X25599494Y89059463D01*
X25696185Y89138815D01*
X25775537Y89235506D01*
X25834502Y89345820D01*
X25870812Y89465518D01*
X25883072Y89590000D01*
X25880000Y90804250D01*
X25721250Y90963000D01*
X23622000Y90963000D01*
X23368000Y90963000D01*
X21268750Y90963000D01*
X21110000Y90804250D01*
X21106928Y89590000D01*
X21043324Y89590000D01*
X20928073Y89805618D01*
X20739903Y90034903D01*
X20510618Y90223073D01*
X20249028Y90362896D01*
X19965186Y90448999D01*
X19670000Y90478072D01*
X17920000Y90478072D01*
X17624814Y90448999D01*
X17340972Y90362896D01*
X17079382Y90223073D01*
X16850097Y90034903D01*
X16661927Y89805618D01*
X16522104Y89544028D01*
X16436001Y89260186D01*
X16406928Y88965000D01*
X15589746Y88965000D01*
X19214746Y92590000D01*
X21106928Y92590000D01*
X21110000Y91375750D01*
X21268750Y91217000D01*
X23368000Y91217000D01*
X23368000Y93066250D01*
X23622000Y93066250D01*
X23622000Y91217000D01*
X25721250Y91217000D01*
X25880000Y91375750D01*
X25883072Y92590000D01*
X25870812Y92714482D01*
X25834502Y92834180D01*
X25775537Y92944494D01*
X25696185Y93041185D01*
X25599494Y93120537D01*
X25489180Y93179502D01*
X25369482Y93215812D01*
X25245000Y93228072D01*
X23780750Y93225000D01*
X23622000Y93066250D01*
X23368000Y93066250D01*
X23209250Y93225000D01*
X21745000Y93228072D01*
X21620518Y93215812D01*
X21500820Y93179502D01*
X21390506Y93120537D01*
X21293815Y93041185D01*
X21214463Y92944494D01*
X21155498Y92834180D01*
X21119188Y92714482D01*
X21106928Y92590000D01*
X19214746Y92590000D01*
X21774747Y95150000D01*
X31841928Y95150000D01*
X31841928Y95035000D01*
X31854188Y94910518D01*
X31890498Y94790820D01*
X31949463Y94680506D01*
X32028815Y94583815D01*
X32125506Y94504463D01*
X32235820Y94445498D01*
X32355518Y94409188D01*
X32480000Y94396928D01*
X34180000Y94396928D01*
X34304482Y94409188D01*
X34424180Y94445498D01*
X34534494Y94504463D01*
X34631185Y94583815D01*
X34710537Y94680506D01*
X34769502Y94790820D01*
X34791513Y94863380D01*
X34923368Y94731525D01*
X35033273Y94658089D01*
X35030960Y94634600D01*
X35035001Y94593571D01*
X35035000Y91933019D01*
X35030960Y91892000D01*
X35035000Y91850982D01*
X35047082Y91728312D01*
X35094828Y91570914D01*
X35172364Y91425855D01*
X35276709Y91298709D01*
X35308579Y91272554D01*
X36385001Y90196131D01*
X36385000Y87604625D01*
X36295518Y87595812D01*
X36175820Y87559502D01*
X36065506Y87500537D01*
X35968815Y87421185D01*
X35889463Y87324494D01*
X35830498Y87214180D01*
X35794188Y87094482D01*
X35781928Y86970000D01*
X35781928Y85370000D01*
X35794188Y85245518D01*
X35830498Y85125820D01*
X35889463Y85015506D01*
X35968815Y84918815D01*
X36065506Y84839463D01*
X36175820Y84780498D01*
X36295518Y84744188D01*
X36420000Y84731928D01*
X36427215Y84731928D01*
X36406903Y84662702D01*
X37220000Y83849605D01*
X38033097Y84662702D01*
X38012785Y84731928D01*
X38020000Y84731928D01*
X38144482Y84744188D01*
X38264180Y84780498D01*
X38374494Y84839463D01*
X38471185Y84918815D01*
X38479944Y84929488D01*
X47691287Y75718145D01*
X47458900Y75593932D01*
X47240393Y75414608D01*
X47061068Y75196101D01*
X46990000Y75063142D01*
X46918932Y75196101D01*
X46739608Y75414608D01*
X46521101Y75593932D01*
X46271808Y75727182D01*
X46001309Y75809236D01*
X45720000Y75836943D01*
X45438692Y75809236D01*
X45168193Y75727182D01*
X44918900Y75593932D01*
X44700393Y75414608D01*
X44521068Y75196101D01*
X44450000Y75063142D01*
X44378932Y75196101D01*
X44199608Y75414608D01*
X43981101Y75593932D01*
X43731808Y75727182D01*
X43461309Y75809236D01*
X43180000Y75836943D01*
X42898692Y75809236D01*
X42628193Y75727182D01*
X42378900Y75593932D01*
X42160393Y75414608D01*
X41981068Y75196101D01*
X41910000Y75063142D01*
X41838932Y75196101D01*
X41659608Y75414608D01*
X41441101Y75593932D01*
X41191808Y75727182D01*
X40921309Y75809236D01*
X40640000Y75836943D01*
X40358692Y75809236D01*
X40088193Y75727182D01*
X39838900Y75593932D01*
X39620393Y75414608D01*
X39441068Y75196101D01*
X39370000Y75063142D01*
X39298932Y75196101D01*
X39119608Y75414608D01*
X38901101Y75593932D01*
X38651808Y75727182D01*
X38381309Y75809236D01*
X38100000Y75836943D01*
X37818692Y75809236D01*
X37548193Y75727182D01*
X37298900Y75593932D01*
X37080393Y75414608D01*
X36901068Y75196101D01*
X36830000Y75063142D01*
X36758932Y75196101D01*
X36579608Y75414608D01*
X36361101Y75593932D01*
X36111808Y75727182D01*
X35841309Y75809236D01*
X35560000Y75836943D01*
X35278692Y75809236D01*
X35008193Y75727182D01*
X34758900Y75593932D01*
X34540393Y75414608D01*
X34361068Y75196101D01*
X34290000Y75063142D01*
X34218932Y75196101D01*
X34039608Y75414608D01*
X33821101Y75593932D01*
X33571808Y75727182D01*
X33301309Y75809236D01*
X33020000Y75836943D01*
X32738692Y75809236D01*
X32468193Y75727182D01*
X32218900Y75593932D01*
X32000393Y75414608D01*
X31821068Y75196101D01*
X31750000Y75063142D01*
X31678932Y75196101D01*
X31499608Y75414608D01*
X31281101Y75593932D01*
X31031808Y75727182D01*
X30761309Y75809236D01*
X30480000Y75836943D01*
X30198692Y75809236D01*
X29928193Y75727182D01*
X29678900Y75593932D01*
X29460393Y75414608D01*
X29281068Y75196101D01*
X29210000Y75063142D01*
X29138932Y75196101D01*
X28959608Y75414608D01*
X28741101Y75593932D01*
X28491808Y75727182D01*
X28221309Y75809236D01*
X27940000Y75836943D01*
X27658692Y75809236D01*
X27388193Y75727182D01*
X27138900Y75593932D01*
X26920393Y75414608D01*
X26741068Y75196101D01*
X26670000Y75063142D01*
X26598932Y75196101D01*
X26419608Y75414608D01*
X26201101Y75593932D01*
X25951808Y75727182D01*
X25681309Y75809236D01*
X25400000Y75836943D01*
X25118692Y75809236D01*
X24848193Y75727182D01*
X24598900Y75593932D01*
X24380393Y75414608D01*
X24201068Y75196101D01*
X24130000Y75063142D01*
X24058932Y75196101D01*
X23879608Y75414608D01*
X23661101Y75593932D01*
X23411808Y75727182D01*
X23141309Y75809236D01*
X22860000Y75836943D01*
X22578692Y75809236D01*
X22308193Y75727182D01*
X22058900Y75593932D01*
X21840393Y75414608D01*
X21661068Y75196101D01*
X21590000Y75063142D01*
X21518932Y75196101D01*
X21339608Y75414608D01*
X21121101Y75593932D01*
X20871808Y75727182D01*
X20601309Y75809236D01*
X20320000Y75836943D01*
X20038692Y75809236D01*
X19768193Y75727182D01*
X19518900Y75593932D01*
X19300393Y75414608D01*
X19121068Y75196101D01*
X19052735Y75068259D01*
X18902601Y75297839D01*
X18704895Y75499500D01*
X18471646Y75658715D01*
X18211818Y75769367D01*
X18129039Y75786904D01*
X17907000Y75664915D01*
X17907000Y74122000D01*
X17927000Y74122000D01*
X17927000Y73868000D01*
X17907000Y73868000D01*
X17907000Y72325085D01*
X18129039Y72203096D01*
X18211818Y72220633D01*
X18471646Y72331285D01*
X18704895Y72490500D01*
X18902601Y72692161D01*
X19052735Y72921742D01*
X19121068Y72793900D01*
X19300392Y72575393D01*
X19518899Y72396068D01*
X19768192Y72262818D01*
X20038691Y72180764D01*
X20320000Y72153057D01*
X20601308Y72180764D01*
X20871807Y72262818D01*
X21121100Y72396068D01*
X21339607Y72575392D01*
X21518932Y72793899D01*
X21590000Y72926858D01*
X21661068Y72793900D01*
X21840392Y72575393D01*
X22058899Y72396068D01*
X22308192Y72262818D01*
X22578691Y72180764D01*
X22860000Y72153057D01*
X23141308Y72180764D01*
X23411807Y72262818D01*
X23661100Y72396068D01*
X23879607Y72575392D01*
X24058932Y72793899D01*
X24130000Y72926858D01*
X24201068Y72793900D01*
X24380392Y72575393D01*
X24598899Y72396068D01*
X24848192Y72262818D01*
X25118691Y72180764D01*
X25400000Y72153057D01*
X25681308Y72180764D01*
X25951807Y72262818D01*
X26201100Y72396068D01*
X26419607Y72575392D01*
X26598932Y72793899D01*
X26670000Y72926858D01*
X26741068Y72793900D01*
X26920392Y72575393D01*
X27138899Y72396068D01*
X27388192Y72262818D01*
X27658691Y72180764D01*
X27940000Y72153057D01*
X28221308Y72180764D01*
X28491807Y72262818D01*
X28741100Y72396068D01*
X28959607Y72575392D01*
X29138932Y72793899D01*
X29210000Y72926858D01*
X29281068Y72793900D01*
X29460392Y72575393D01*
X29493816Y72547963D01*
X25388254Y68442400D01*
X21447953Y68442400D01*
X21374205Y68491677D01*
X21213145Y68558390D01*
X21042165Y68592400D01*
X20867835Y68592400D01*
X20696855Y68558390D01*
X20535795Y68491677D01*
X20390845Y68394824D01*
X20267576Y68271555D01*
X20170723Y68126605D01*
X20104010Y67965545D01*
X20070000Y67794565D01*
X20070000Y67717800D01*
X14891947Y67717800D01*
X9695559Y72914187D01*
X9672538Y72942238D01*
X9560620Y73034087D01*
X9432933Y73102337D01*
X9303922Y73141472D01*
X9153475Y73366632D01*
X8946632Y73573475D01*
X8772240Y73690000D01*
X8946632Y73806525D01*
X9008107Y73868000D01*
X16345000Y73868000D01*
X16345000Y73468000D01*
X16397350Y73190486D01*
X16502834Y72928517D01*
X16657399Y72692161D01*
X16855105Y72490500D01*
X17088354Y72331285D01*
X17348182Y72220633D01*
X17430961Y72203096D01*
X17653000Y72325085D01*
X17653000Y73868000D01*
X16345000Y73868000D01*
X9008107Y73868000D01*
X9153475Y74013368D01*
X9315990Y74256589D01*
X9425926Y74522000D01*
X16345000Y74522000D01*
X16345000Y74122000D01*
X17653000Y74122000D01*
X17653000Y75664915D01*
X17430961Y75786904D01*
X17348182Y75769367D01*
X17088354Y75658715D01*
X16855105Y75499500D01*
X16657399Y75297839D01*
X16502834Y75061483D01*
X16397350Y74799514D01*
X16345000Y74522000D01*
X9425926Y74522000D01*
X9427932Y74526842D01*
X9485000Y74813740D01*
X9485000Y75106260D01*
X9427932Y75393158D01*
X9315990Y75663411D01*
X9153475Y75906632D01*
X9021620Y76038487D01*
X9094180Y76060498D01*
X9204494Y76119463D01*
X9301185Y76198815D01*
X9380537Y76295506D01*
X9439502Y76405820D01*
X9475812Y76525518D01*
X9488072Y76650000D01*
X9488072Y78350000D01*
X9475812Y78474482D01*
X9439502Y78594180D01*
X9380537Y78704494D01*
X9301185Y78801185D01*
X9204494Y78880537D01*
X9094180Y78939502D01*
X8974482Y78975812D01*
X8850000Y78988072D01*
X7150000Y78988072D01*
X7025518Y78975812D01*
X6905820Y78939502D01*
X6795506Y78880537D01*
X6698815Y78801185D01*
X6619463Y78704494D01*
X6560498Y78594180D01*
X6538487Y78521620D01*
X6406632Y78653475D01*
X6163411Y78815990D01*
X5893158Y78927932D01*
X5606260Y78985000D01*
X5313740Y78985000D01*
X5026842Y78927932D01*
X4756589Y78815990D01*
X4513368Y78653475D01*
X4306525Y78446632D01*
X4144010Y78203411D01*
X4032068Y77933158D01*
X3975000Y77646260D01*
X3975000Y77353740D01*
X4032068Y77066842D01*
X4144010Y76796589D01*
X4306525Y76553368D01*
X4513368Y76346525D01*
X4687760Y76230000D01*
X4513368Y76113475D01*
X4306525Y75906632D01*
X4144010Y75663411D01*
X4032068Y75393158D01*
X3975000Y75106260D01*
X3975000Y74813740D01*
X4032068Y74526842D01*
X4144010Y74256589D01*
X4306525Y74013368D01*
X4513368Y73806525D01*
X4695534Y73684805D01*
X4578645Y73615178D01*
X4362412Y73420269D01*
X4188359Y73186920D01*
X4063175Y72924099D01*
X4018524Y72776890D01*
X4139845Y72547000D01*
X5333000Y72547000D01*
X5333000Y72567000D01*
X5587000Y72567000D01*
X5587000Y72547000D01*
X5607000Y72547000D01*
X5607000Y72293000D01*
X5587000Y72293000D01*
X5587000Y72273000D01*
X5333000Y72273000D01*
X5333000Y72293000D01*
X4139845Y72293000D01*
X4018524Y72063110D01*
X4063175Y71915901D01*
X4188359Y71653080D01*
X4362412Y71419731D01*
X4578645Y71224822D01*
X4695534Y71155195D01*
X4513368Y71033475D01*
X4306525Y70826632D01*
X4144010Y70583411D01*
X4032068Y70313158D01*
X3975000Y70026260D01*
X3975000Y69733740D01*
X4032068Y69446842D01*
X4144010Y69176589D01*
X4306525Y68933368D01*
X4513368Y68726525D01*
X4695534Y68604805D01*
X4578645Y68535178D01*
X4362412Y68340269D01*
X4188359Y68106920D01*
X4063175Y67844099D01*
X4018524Y67696890D01*
X4139845Y67467000D01*
X5333000Y67467000D01*
X5333000Y67487000D01*
X5587000Y67487000D01*
X5587000Y67467000D01*
X5607000Y67467000D01*
X5607000Y67213000D01*
X5587000Y67213000D01*
X5587000Y67193000D01*
X5333000Y67193000D01*
X5333000Y67213000D01*
X4139845Y67213000D01*
X4018524Y66983110D01*
X4063175Y66835901D01*
X4188359Y66573080D01*
X4362412Y66339731D01*
X4578645Y66144822D01*
X4695534Y66075195D01*
X4513368Y65953475D01*
X4306525Y65746632D01*
X4144010Y65503411D01*
X4032068Y65233158D01*
X3975000Y64946260D01*
X3975000Y64653740D01*
X4032068Y64366842D01*
X4144010Y64096589D01*
X4306525Y63853368D01*
X4346173Y63813720D01*
X3395408Y62862954D01*
X3367363Y62839938D01*
X3275514Y62728020D01*
X3235255Y62652700D01*
X3207264Y62600333D01*
X3165235Y62461785D01*
X3151044Y62317700D01*
X3154601Y62281585D01*
X3154600Y36767005D01*
X3151044Y36730900D01*
X3154600Y36694796D01*
X3165235Y36586816D01*
X3207263Y36448268D01*
X3275513Y36320581D01*
X3367362Y36208663D01*
X3395408Y36185646D01*
X4318994Y35262059D01*
X4188359Y35086920D01*
X4063175Y34824099D01*
X4018524Y34676890D01*
X4139845Y34447000D01*
X5333000Y34447000D01*
X5333000Y34467000D01*
X5587000Y34467000D01*
X5587000Y34447000D01*
X5607000Y34447000D01*
X5607000Y34193000D01*
X5587000Y34193000D01*
X5587000Y31907000D01*
X5607000Y31907000D01*
X5607000Y31653000D01*
X5587000Y31653000D01*
X5587000Y31633000D01*
X5333000Y31633000D01*
X5333000Y31653000D01*
X4139845Y31653000D01*
X4018524Y31423110D01*
X4063175Y31275901D01*
X4188359Y31013080D01*
X4338860Y30811307D01*
X3362008Y29834454D01*
X3333962Y29811437D01*
X3242113Y29699519D01*
X3173863Y29571832D01*
X3145551Y29478500D01*
X3131835Y29433285D01*
X3117644Y29289200D01*
X660000Y29289200D01*
X660000Y33963110D01*
X4018524Y33963110D01*
X4063175Y33815901D01*
X4188359Y33553080D01*
X4362412Y33319731D01*
X4578645Y33124822D01*
X4704255Y33050000D01*
X4578645Y32975178D01*
X4362412Y32780269D01*
X4188359Y32546920D01*
X4063175Y32284099D01*
X4018524Y32136890D01*
X4139845Y31907000D01*
X5333000Y31907000D01*
X5333000Y34193000D01*
X4139845Y34193000D01*
X4018524Y33963110D01*
X660000Y33963110D01*
X660000Y82677298D01*
X36406903Y82677298D01*
X36478486Y82433329D01*
X36733996Y82312429D01*
X37008184Y82243700D01*
X37290512Y82229783D01*
X37570130Y82271213D01*
X37836292Y82366397D01*
X37961514Y82433329D01*
X38033097Y82677298D01*
X37220000Y83490395D01*
X36406903Y82677298D01*
X660000Y82677298D01*
X660000Y95220128D01*
X2765000Y95220128D01*
X2765000Y94779872D01*
X2850890Y94348075D01*
X3019369Y93941331D01*
X3263962Y93575271D01*
X3575271Y93263962D01*
X3941331Y93019369D01*
X4348075Y92850890D01*
X4779872Y92765000D01*
X5220128Y92765000D01*
X5651925Y92850890D01*
X6058669Y93019369D01*
X6424729Y93263962D01*
X6736038Y93575271D01*
X6980631Y93941331D01*
X7149110Y94348075D01*
X7235000Y94779872D01*
X7235000Y95220128D01*
X7149110Y95651925D01*
X6980631Y96058669D01*
X6736038Y96424729D01*
X6424729Y96736038D01*
X6058669Y96980631D01*
X5651925Y97149110D01*
X5220128Y97235000D01*
X4779872Y97235000D01*
X4348075Y97149110D01*
X3941331Y96980631D01*
X3575271Y96736038D01*
X3263962Y96424729D01*
X3019369Y96058669D01*
X2850890Y95651925D01*
X2765000Y95220128D01*
X660000Y95220128D01*
X660000Y99340000D01*
X99340001Y99340000D01*
X99340000Y660000D01*
G37*
G04 #@! TD.AperFunction*
D21*
X54715616Y17338638D02*
X54651019Y17345000D01*
X54651018Y17345000D01*
X54610000Y17349040D01*
X54568982Y17345000D01*
X44982930Y17345000D01*
X44929637Y17424759D01*
X44729759Y17624637D01*
X44529131Y17758692D01*
X44556514Y17773329D01*
X44628097Y18017298D01*
X43815000Y18830395D01*
X43001903Y18017298D01*
X43073486Y17773329D01*
X43102341Y17759676D01*
X42900241Y17624637D01*
X42700363Y17424759D01*
X42543320Y17189727D01*
X42435147Y16928574D01*
X42380000Y16651335D01*
X42380000Y16368665D01*
X42435147Y16091426D01*
X42543320Y15830273D01*
X42700363Y15595241D01*
X42900241Y15395363D01*
X43135273Y15238320D01*
X43396426Y15130147D01*
X43673665Y15075000D01*
X43956335Y15075000D01*
X44233574Y15130147D01*
X44494727Y15238320D01*
X44729759Y15395363D01*
X44929637Y15595241D01*
X44982930Y15675000D01*
X54264133Y15675000D01*
X57370346Y12568786D01*
X57233193Y12527182D01*
X56983900Y12393932D01*
X56765393Y12214608D01*
X56586068Y11996101D01*
X56515000Y11863142D01*
X56443932Y11996101D01*
X56264608Y12214608D01*
X56046101Y12393932D01*
X55796808Y12527182D01*
X55526309Y12609236D01*
X55245000Y12636943D01*
X54963692Y12609236D01*
X54693193Y12527182D01*
X54443900Y12393932D01*
X54225393Y12214608D01*
X54046068Y11996101D01*
X53975000Y11863142D01*
X53903932Y11996101D01*
X53724608Y12214608D01*
X53506101Y12393932D01*
X53256808Y12527182D01*
X52986309Y12609236D01*
X52705000Y12636943D01*
X52423692Y12609236D01*
X52153193Y12527182D01*
X51903900Y12393932D01*
X51685393Y12214608D01*
X51506068Y11996101D01*
X51435000Y11863142D01*
X51363932Y11996101D01*
X51184608Y12214608D01*
X50966101Y12393932D01*
X50716808Y12527182D01*
X50446309Y12609236D01*
X50165000Y12636943D01*
X49883692Y12609236D01*
X49613193Y12527182D01*
X49363900Y12393932D01*
X49145393Y12214608D01*
X48966068Y11996101D01*
X48895000Y11863142D01*
X48823932Y11996101D01*
X48644608Y12214608D01*
X48426101Y12393932D01*
X48176808Y12527182D01*
X47906309Y12609236D01*
X47625000Y12636943D01*
X47343692Y12609236D01*
X47073193Y12527182D01*
X46823900Y12393932D01*
X46605393Y12214608D01*
X46426068Y11996101D01*
X46292818Y11746808D01*
X46210764Y11476309D01*
X46190000Y11265492D01*
X46190000Y10324509D01*
X46210764Y10113692D01*
X46292818Y9843193D01*
X46426068Y9593900D01*
X46605392Y9375393D01*
X46823899Y9196068D01*
X47073192Y9062818D01*
X47343691Y8980764D01*
X47625000Y8953057D01*
X47906308Y8980764D01*
X48176807Y9062818D01*
X48426100Y9196068D01*
X48644607Y9375392D01*
X48823932Y9593899D01*
X48895000Y9726858D01*
X48966068Y9593900D01*
X49145392Y9375393D01*
X49363899Y9196068D01*
X49613192Y9062818D01*
X49883691Y8980764D01*
X50165000Y8953057D01*
X50446308Y8980764D01*
X50716807Y9062818D01*
X50966100Y9196068D01*
X51184607Y9375392D01*
X51363932Y9593899D01*
X51435000Y9726858D01*
X51506068Y9593900D01*
X51685392Y9375393D01*
X51903899Y9196068D01*
X52153192Y9062818D01*
X52423691Y8980764D01*
X52705000Y8953057D01*
X52986308Y8980764D01*
X53256807Y9062818D01*
X53506100Y9196068D01*
X53724607Y9375392D01*
X53903932Y9593899D01*
X53975000Y9726858D01*
X54046068Y9593900D01*
X54225392Y9375393D01*
X54443899Y9196068D01*
X54693192Y9062818D01*
X54963691Y8980764D01*
X55245000Y8953057D01*
X55526308Y8980764D01*
X55796807Y9062818D01*
X56046100Y9196068D01*
X56264607Y9375392D01*
X56443932Y9593899D01*
X56515000Y9726858D01*
X56586068Y9593900D01*
X56765392Y9375393D01*
X56983899Y9196068D01*
X57233192Y9062818D01*
X57503691Y8980764D01*
X57785000Y8953057D01*
X58066308Y8980764D01*
X58336807Y9062818D01*
X58586100Y9196068D01*
X58804607Y9375392D01*
X58983932Y9593899D01*
X59055000Y9726858D01*
X59126068Y9593900D01*
X59305392Y9375393D01*
X59523899Y9196068D01*
X59773192Y9062818D01*
X60043691Y8980764D01*
X60325000Y8953057D01*
X60606308Y8980764D01*
X60876807Y9062818D01*
X61126100Y9196068D01*
X61307453Y9344901D01*
X61823554Y8828800D01*
X36946219Y8828800D01*
X36970172Y8873613D01*
X37017918Y9031011D01*
X37030000Y9153681D01*
X37034040Y9194700D01*
X37031078Y9224774D01*
X37214607Y9375392D01*
X37393932Y9593899D01*
X37527182Y9843192D01*
X37609236Y10113691D01*
X37630000Y10324508D01*
X37630000Y11049133D01*
X38965736Y12384868D01*
X39090241Y12260363D01*
X39325273Y12103320D01*
X39586426Y11995147D01*
X39863665Y11940000D01*
X40146335Y11940000D01*
X40423574Y11995147D01*
X40684727Y12103320D01*
X40919759Y12260363D01*
X41119637Y12460241D01*
X41276680Y12695273D01*
X41384853Y12956426D01*
X41440000Y13233665D01*
X41440000Y13516335D01*
X41384853Y13793574D01*
X41276680Y14054727D01*
X41119637Y14289759D01*
X40919759Y14489637D01*
X40719131Y14623692D01*
X40746514Y14638329D01*
X40818097Y14882298D01*
X40005000Y15695395D01*
X39191903Y14882298D01*
X39263486Y14638329D01*
X39292341Y14624676D01*
X39090241Y14489637D01*
X38890363Y14289759D01*
X38837070Y14210000D01*
X38816018Y14210000D01*
X38775000Y14214040D01*
X38733981Y14210000D01*
X38611311Y14197918D01*
X38453913Y14150172D01*
X38308854Y14072636D01*
X38181709Y13968291D01*
X38155559Y13936427D01*
X36746429Y12527297D01*
X36476309Y12609236D01*
X36195000Y12636943D01*
X35913692Y12609236D01*
X35643193Y12527182D01*
X35393900Y12393932D01*
X35175393Y12214608D01*
X34996068Y11996101D01*
X34925000Y11863142D01*
X34853932Y11996101D01*
X34674608Y12214608D01*
X34456101Y12393932D01*
X34206808Y12527182D01*
X33936309Y12609236D01*
X33655000Y12636943D01*
X33373692Y12609236D01*
X33103193Y12527182D01*
X32853900Y12393932D01*
X32635393Y12214608D01*
X32456068Y11996101D01*
X32385000Y11863142D01*
X32313932Y11996101D01*
X32134608Y12214608D01*
X31916101Y12393932D01*
X31666808Y12527182D01*
X31396309Y12609236D01*
X31115000Y12636943D01*
X30833692Y12609236D01*
X30563193Y12527182D01*
X30313900Y12393932D01*
X30095393Y12214608D01*
X29916068Y11996101D01*
X29845000Y11863142D01*
X29773932Y11996101D01*
X29594608Y12214608D01*
X29376101Y12393932D01*
X29126808Y12527182D01*
X28856309Y12609236D01*
X28575000Y12636943D01*
X28293692Y12609236D01*
X28023193Y12527182D01*
X27773900Y12393932D01*
X27555393Y12214608D01*
X27376068Y11996101D01*
X27305000Y11863142D01*
X27233932Y11996101D01*
X27054608Y12214608D01*
X26836101Y12393932D01*
X26586808Y12527182D01*
X26316309Y12609236D01*
X26035000Y12636943D01*
X25753692Y12609236D01*
X25483193Y12527182D01*
X25233900Y12393932D01*
X25015393Y12214608D01*
X24836068Y11996101D01*
X24765000Y11863142D01*
X24693932Y11996101D01*
X24514608Y12214608D01*
X24296101Y12393932D01*
X24046808Y12527182D01*
X23776309Y12609236D01*
X23495000Y12636943D01*
X23213692Y12609236D01*
X22943193Y12527182D01*
X22693900Y12393932D01*
X22475393Y12214608D01*
X22296068Y11996101D01*
X22225000Y11863142D01*
X22153932Y11996101D01*
X21974608Y12214608D01*
X21756101Y12393932D01*
X21506808Y12527182D01*
X21236309Y12609236D01*
X20955000Y12636943D01*
X20673692Y12609236D01*
X20403193Y12527182D01*
X20153900Y12393932D01*
X19935393Y12214608D01*
X19756068Y11996101D01*
X19622818Y11746808D01*
X19540764Y11476309D01*
X19520000Y11265492D01*
X19520000Y10324509D01*
X19540764Y10113692D01*
X19622818Y9843193D01*
X19756068Y9593900D01*
X19935392Y9375393D01*
X20153899Y9196068D01*
X20403192Y9062818D01*
X20673691Y8980764D01*
X20955000Y8953057D01*
X21236308Y8980764D01*
X21506807Y9062818D01*
X21756100Y9196068D01*
X21974607Y9375392D01*
X22153932Y9593899D01*
X22225000Y9726858D01*
X22296068Y9593900D01*
X22475392Y9375393D01*
X22693899Y9196068D01*
X22943192Y9062818D01*
X23213691Y8980764D01*
X23495000Y8953057D01*
X23776308Y8980764D01*
X24046807Y9062818D01*
X24296100Y9196068D01*
X24514607Y9375392D01*
X24693932Y9593899D01*
X24765000Y9726858D01*
X24836068Y9593900D01*
X25015392Y9375393D01*
X25233899Y9196068D01*
X25483192Y9062818D01*
X25753691Y8980764D01*
X26035000Y8953057D01*
X26316308Y8980764D01*
X26586807Y9062818D01*
X26836100Y9196068D01*
X27054607Y9375392D01*
X27233932Y9593899D01*
X27305000Y9726858D01*
X27376068Y9593900D01*
X27555392Y9375393D01*
X27773899Y9196068D01*
X28023192Y9062818D01*
X28293691Y8980764D01*
X28575000Y8953057D01*
X28856308Y8980764D01*
X29126807Y9062818D01*
X29376100Y9196068D01*
X29594607Y9375392D01*
X29773932Y9593899D01*
X29845000Y9726858D01*
X29916068Y9593900D01*
X30095392Y9375393D01*
X30278922Y9224773D01*
X30275960Y9194700D01*
X30292082Y9031011D01*
X30339828Y8873613D01*
X30363781Y8828800D01*
X17900947Y8828800D01*
X10925259Y15804488D01*
X38564783Y15804488D01*
X38606213Y15524870D01*
X38701397Y15258708D01*
X38768329Y15133486D01*
X39012298Y15061903D01*
X39825395Y15875000D01*
X40184605Y15875000D01*
X40997702Y15061903D01*
X41241671Y15133486D01*
X41362571Y15388996D01*
X41431300Y15663184D01*
X41445217Y15945512D01*
X41403787Y16225130D01*
X41308603Y16491292D01*
X41241671Y16616514D01*
X40997702Y16688097D01*
X40184605Y15875000D01*
X39825395Y15875000D01*
X39012298Y16688097D01*
X38768329Y16616514D01*
X38647429Y16361004D01*
X38578700Y16086816D01*
X38564783Y15804488D01*
X10925259Y15804488D01*
X9695559Y17034187D01*
X9672538Y17062238D01*
X9560620Y17154087D01*
X9432933Y17222337D01*
X9303922Y17261472D01*
X9153475Y17486632D01*
X8946632Y17693475D01*
X8772240Y17810000D01*
X8946632Y17926525D01*
X9153475Y18133368D01*
X9256796Y18288000D01*
X19520000Y18288000D01*
X19520000Y17888000D01*
X19572350Y17610486D01*
X19677834Y17348517D01*
X19832399Y17112161D01*
X20030105Y16910500D01*
X20263354Y16751285D01*
X20523182Y16640633D01*
X20605961Y16623096D01*
X20828000Y16745085D01*
X20828000Y18288000D01*
X19520000Y18288000D01*
X9256796Y18288000D01*
X9303922Y18358528D01*
X9432933Y18397663D01*
X9560620Y18465913D01*
X9672538Y18557762D01*
X9695558Y18585812D01*
X10443947Y19334200D01*
X19618529Y19334200D01*
X19572350Y19219514D01*
X19520000Y18942000D01*
X19520000Y18542000D01*
X20828000Y18542000D01*
X20828000Y18562000D01*
X21082000Y18562000D01*
X21082000Y18542000D01*
X21102000Y18542000D01*
X21102000Y18288000D01*
X21082000Y18288000D01*
X21082000Y16745085D01*
X21304039Y16623096D01*
X21386818Y16640633D01*
X21646646Y16751285D01*
X21879895Y16910500D01*
X22077601Y17112161D01*
X22227735Y17341742D01*
X22296068Y17213900D01*
X22475392Y16995393D01*
X22693899Y16816068D01*
X22943192Y16682818D01*
X23213691Y16600764D01*
X23495000Y16573057D01*
X23776308Y16600764D01*
X24046807Y16682818D01*
X24296100Y16816068D01*
X24514607Y16995392D01*
X24693932Y17213899D01*
X24765000Y17346858D01*
X24836068Y17213900D01*
X25015392Y16995393D01*
X25233899Y16816068D01*
X25483192Y16682818D01*
X25753691Y16600764D01*
X26035000Y16573057D01*
X26316308Y16600764D01*
X26586807Y16682818D01*
X26836100Y16816068D01*
X27054607Y16995392D01*
X27233932Y17213899D01*
X27305000Y17346858D01*
X27376068Y17213900D01*
X27555392Y16995393D01*
X27773899Y16816068D01*
X28023192Y16682818D01*
X28293691Y16600764D01*
X28575000Y16573057D01*
X28856308Y16600764D01*
X29126807Y16682818D01*
X29376100Y16816068D01*
X29594607Y16995392D01*
X29773932Y17213899D01*
X29845000Y17346858D01*
X29916068Y17213900D01*
X30095392Y16995393D01*
X30313899Y16816068D01*
X30563192Y16682818D01*
X30833691Y16600764D01*
X31115000Y16573057D01*
X31396308Y16600764D01*
X31666807Y16682818D01*
X31916100Y16816068D01*
X32134607Y16995392D01*
X32313932Y17213899D01*
X32385000Y17346858D01*
X32456068Y17213900D01*
X32635392Y16995393D01*
X32853899Y16816068D01*
X33103192Y16682818D01*
X33373691Y16600764D01*
X33655000Y16573057D01*
X33936308Y16600764D01*
X34206807Y16682818D01*
X34456100Y16816068D01*
X34674607Y16995392D01*
X34767419Y17108483D01*
X34769188Y17090518D01*
X34805498Y16970820D01*
X34864463Y16860506D01*
X34943815Y16763815D01*
X35040506Y16684463D01*
X35150820Y16625498D01*
X35270518Y16589188D01*
X35395000Y16576928D01*
X36995000Y16576928D01*
X37119482Y16589188D01*
X37239180Y16625498D01*
X37349494Y16684463D01*
X37446185Y16763815D01*
X37525537Y16860506D01*
X37529383Y16867702D01*
X39191903Y16867702D01*
X40005000Y16054605D01*
X40818097Y16867702D01*
X40746514Y17111671D01*
X40491004Y17232571D01*
X40216816Y17301300D01*
X39934488Y17315217D01*
X39654870Y17273787D01*
X39388708Y17178603D01*
X39263486Y17111671D01*
X39191903Y16867702D01*
X37529383Y16867702D01*
X37584502Y16970820D01*
X37620812Y17090518D01*
X37633072Y17215000D01*
X37633072Y19334200D01*
X42416871Y19334200D01*
X42388700Y19221816D01*
X42374783Y18939488D01*
X42416213Y18659870D01*
X42511397Y18393708D01*
X42578329Y18268486D01*
X42822298Y18196903D01*
X43635395Y19010000D01*
X43621253Y19024142D01*
X43800858Y19203747D01*
X43815000Y19189605D01*
X43829143Y19203747D01*
X44008748Y19024142D01*
X43994605Y19010000D01*
X44807702Y18196903D01*
X45051671Y18268486D01*
X45172571Y18523996D01*
X45241300Y18798184D01*
X45255217Y19080512D01*
X45213787Y19360130D01*
X45205108Y19384400D01*
X52669854Y19384400D01*
X54715616Y17338638D01*
G04 #@! TA.AperFunction,Conductor*
D22*
G36*
X54715616Y17338638D02*
G01*
X54651019Y17345000D01*
X54651018Y17345000D01*
X54610000Y17349040D01*
X54568982Y17345000D01*
X44982930Y17345000D01*
X44929637Y17424759D01*
X44729759Y17624637D01*
X44529131Y17758692D01*
X44556514Y17773329D01*
X44628097Y18017298D01*
X43815000Y18830395D01*
X43001903Y18017298D01*
X43073486Y17773329D01*
X43102341Y17759676D01*
X42900241Y17624637D01*
X42700363Y17424759D01*
X42543320Y17189727D01*
X42435147Y16928574D01*
X42380000Y16651335D01*
X42380000Y16368665D01*
X42435147Y16091426D01*
X42543320Y15830273D01*
X42700363Y15595241D01*
X42900241Y15395363D01*
X43135273Y15238320D01*
X43396426Y15130147D01*
X43673665Y15075000D01*
X43956335Y15075000D01*
X44233574Y15130147D01*
X44494727Y15238320D01*
X44729759Y15395363D01*
X44929637Y15595241D01*
X44982930Y15675000D01*
X54264133Y15675000D01*
X57370346Y12568786D01*
X57233193Y12527182D01*
X56983900Y12393932D01*
X56765393Y12214608D01*
X56586068Y11996101D01*
X56515000Y11863142D01*
X56443932Y11996101D01*
X56264608Y12214608D01*
X56046101Y12393932D01*
X55796808Y12527182D01*
X55526309Y12609236D01*
X55245000Y12636943D01*
X54963692Y12609236D01*
X54693193Y12527182D01*
X54443900Y12393932D01*
X54225393Y12214608D01*
X54046068Y11996101D01*
X53975000Y11863142D01*
X53903932Y11996101D01*
X53724608Y12214608D01*
X53506101Y12393932D01*
X53256808Y12527182D01*
X52986309Y12609236D01*
X52705000Y12636943D01*
X52423692Y12609236D01*
X52153193Y12527182D01*
X51903900Y12393932D01*
X51685393Y12214608D01*
X51506068Y11996101D01*
X51435000Y11863142D01*
X51363932Y11996101D01*
X51184608Y12214608D01*
X50966101Y12393932D01*
X50716808Y12527182D01*
X50446309Y12609236D01*
X50165000Y12636943D01*
X49883692Y12609236D01*
X49613193Y12527182D01*
X49363900Y12393932D01*
X49145393Y12214608D01*
X48966068Y11996101D01*
X48895000Y11863142D01*
X48823932Y11996101D01*
X48644608Y12214608D01*
X48426101Y12393932D01*
X48176808Y12527182D01*
X47906309Y12609236D01*
X47625000Y12636943D01*
X47343692Y12609236D01*
X47073193Y12527182D01*
X46823900Y12393932D01*
X46605393Y12214608D01*
X46426068Y11996101D01*
X46292818Y11746808D01*
X46210764Y11476309D01*
X46190000Y11265492D01*
X46190000Y10324509D01*
X46210764Y10113692D01*
X46292818Y9843193D01*
X46426068Y9593900D01*
X46605392Y9375393D01*
X46823899Y9196068D01*
X47073192Y9062818D01*
X47343691Y8980764D01*
X47625000Y8953057D01*
X47906308Y8980764D01*
X48176807Y9062818D01*
X48426100Y9196068D01*
X48644607Y9375392D01*
X48823932Y9593899D01*
X48895000Y9726858D01*
X48966068Y9593900D01*
X49145392Y9375393D01*
X49363899Y9196068D01*
X49613192Y9062818D01*
X49883691Y8980764D01*
X50165000Y8953057D01*
X50446308Y8980764D01*
X50716807Y9062818D01*
X50966100Y9196068D01*
X51184607Y9375392D01*
X51363932Y9593899D01*
X51435000Y9726858D01*
X51506068Y9593900D01*
X51685392Y9375393D01*
X51903899Y9196068D01*
X52153192Y9062818D01*
X52423691Y8980764D01*
X52705000Y8953057D01*
X52986308Y8980764D01*
X53256807Y9062818D01*
X53506100Y9196068D01*
X53724607Y9375392D01*
X53903932Y9593899D01*
X53975000Y9726858D01*
X54046068Y9593900D01*
X54225392Y9375393D01*
X54443899Y9196068D01*
X54693192Y9062818D01*
X54963691Y8980764D01*
X55245000Y8953057D01*
X55526308Y8980764D01*
X55796807Y9062818D01*
X56046100Y9196068D01*
X56264607Y9375392D01*
X56443932Y9593899D01*
X56515000Y9726858D01*
X56586068Y9593900D01*
X56765392Y9375393D01*
X56983899Y9196068D01*
X57233192Y9062818D01*
X57503691Y8980764D01*
X57785000Y8953057D01*
X58066308Y8980764D01*
X58336807Y9062818D01*
X58586100Y9196068D01*
X58804607Y9375392D01*
X58983932Y9593899D01*
X59055000Y9726858D01*
X59126068Y9593900D01*
X59305392Y9375393D01*
X59523899Y9196068D01*
X59773192Y9062818D01*
X60043691Y8980764D01*
X60325000Y8953057D01*
X60606308Y8980764D01*
X60876807Y9062818D01*
X61126100Y9196068D01*
X61307453Y9344901D01*
X61823554Y8828800D01*
X36946219Y8828800D01*
X36970172Y8873613D01*
X37017918Y9031011D01*
X37030000Y9153681D01*
X37034040Y9194700D01*
X37031078Y9224774D01*
X37214607Y9375392D01*
X37393932Y9593899D01*
X37527182Y9843192D01*
X37609236Y10113691D01*
X37630000Y10324508D01*
X37630000Y11049133D01*
X38965736Y12384868D01*
X39090241Y12260363D01*
X39325273Y12103320D01*
X39586426Y11995147D01*
X39863665Y11940000D01*
X40146335Y11940000D01*
X40423574Y11995147D01*
X40684727Y12103320D01*
X40919759Y12260363D01*
X41119637Y12460241D01*
X41276680Y12695273D01*
X41384853Y12956426D01*
X41440000Y13233665D01*
X41440000Y13516335D01*
X41384853Y13793574D01*
X41276680Y14054727D01*
X41119637Y14289759D01*
X40919759Y14489637D01*
X40719131Y14623692D01*
X40746514Y14638329D01*
X40818097Y14882298D01*
X40005000Y15695395D01*
X39191903Y14882298D01*
X39263486Y14638329D01*
X39292341Y14624676D01*
X39090241Y14489637D01*
X38890363Y14289759D01*
X38837070Y14210000D01*
X38816018Y14210000D01*
X38775000Y14214040D01*
X38733981Y14210000D01*
X38611311Y14197918D01*
X38453913Y14150172D01*
X38308854Y14072636D01*
X38181709Y13968291D01*
X38155559Y13936427D01*
X36746429Y12527297D01*
X36476309Y12609236D01*
X36195000Y12636943D01*
X35913692Y12609236D01*
X35643193Y12527182D01*
X35393900Y12393932D01*
X35175393Y12214608D01*
X34996068Y11996101D01*
X34925000Y11863142D01*
X34853932Y11996101D01*
X34674608Y12214608D01*
X34456101Y12393932D01*
X34206808Y12527182D01*
X33936309Y12609236D01*
X33655000Y12636943D01*
X33373692Y12609236D01*
X33103193Y12527182D01*
X32853900Y12393932D01*
X32635393Y12214608D01*
X32456068Y11996101D01*
X32385000Y11863142D01*
X32313932Y11996101D01*
X32134608Y12214608D01*
X31916101Y12393932D01*
X31666808Y12527182D01*
X31396309Y12609236D01*
X31115000Y12636943D01*
X30833692Y12609236D01*
X30563193Y12527182D01*
X30313900Y12393932D01*
X30095393Y12214608D01*
X29916068Y11996101D01*
X29845000Y11863142D01*
X29773932Y11996101D01*
X29594608Y12214608D01*
X29376101Y12393932D01*
X29126808Y12527182D01*
X28856309Y12609236D01*
X28575000Y12636943D01*
X28293692Y12609236D01*
X28023193Y12527182D01*
X27773900Y12393932D01*
X27555393Y12214608D01*
X27376068Y11996101D01*
X27305000Y11863142D01*
X27233932Y11996101D01*
X27054608Y12214608D01*
X26836101Y12393932D01*
X26586808Y12527182D01*
X26316309Y12609236D01*
X26035000Y12636943D01*
X25753692Y12609236D01*
X25483193Y12527182D01*
X25233900Y12393932D01*
X25015393Y12214608D01*
X24836068Y11996101D01*
X24765000Y11863142D01*
X24693932Y11996101D01*
X24514608Y12214608D01*
X24296101Y12393932D01*
X24046808Y12527182D01*
X23776309Y12609236D01*
X23495000Y12636943D01*
X23213692Y12609236D01*
X22943193Y12527182D01*
X22693900Y12393932D01*
X22475393Y12214608D01*
X22296068Y11996101D01*
X22225000Y11863142D01*
X22153932Y11996101D01*
X21974608Y12214608D01*
X21756101Y12393932D01*
X21506808Y12527182D01*
X21236309Y12609236D01*
X20955000Y12636943D01*
X20673692Y12609236D01*
X20403193Y12527182D01*
X20153900Y12393932D01*
X19935393Y12214608D01*
X19756068Y11996101D01*
X19622818Y11746808D01*
X19540764Y11476309D01*
X19520000Y11265492D01*
X19520000Y10324509D01*
X19540764Y10113692D01*
X19622818Y9843193D01*
X19756068Y9593900D01*
X19935392Y9375393D01*
X20153899Y9196068D01*
X20403192Y9062818D01*
X20673691Y8980764D01*
X20955000Y8953057D01*
X21236308Y8980764D01*
X21506807Y9062818D01*
X21756100Y9196068D01*
X21974607Y9375392D01*
X22153932Y9593899D01*
X22225000Y9726858D01*
X22296068Y9593900D01*
X22475392Y9375393D01*
X22693899Y9196068D01*
X22943192Y9062818D01*
X23213691Y8980764D01*
X23495000Y8953057D01*
X23776308Y8980764D01*
X24046807Y9062818D01*
X24296100Y9196068D01*
X24514607Y9375392D01*
X24693932Y9593899D01*
X24765000Y9726858D01*
X24836068Y9593900D01*
X25015392Y9375393D01*
X25233899Y9196068D01*
X25483192Y9062818D01*
X25753691Y8980764D01*
X26035000Y8953057D01*
X26316308Y8980764D01*
X26586807Y9062818D01*
X26836100Y9196068D01*
X27054607Y9375392D01*
X27233932Y9593899D01*
X27305000Y9726858D01*
X27376068Y9593900D01*
X27555392Y9375393D01*
X27773899Y9196068D01*
X28023192Y9062818D01*
X28293691Y8980764D01*
X28575000Y8953057D01*
X28856308Y8980764D01*
X29126807Y9062818D01*
X29376100Y9196068D01*
X29594607Y9375392D01*
X29773932Y9593899D01*
X29845000Y9726858D01*
X29916068Y9593900D01*
X30095392Y9375393D01*
X30278922Y9224773D01*
X30275960Y9194700D01*
X30292082Y9031011D01*
X30339828Y8873613D01*
X30363781Y8828800D01*
X17900947Y8828800D01*
X10925259Y15804488D01*
X38564783Y15804488D01*
X38606213Y15524870D01*
X38701397Y15258708D01*
X38768329Y15133486D01*
X39012298Y15061903D01*
X39825395Y15875000D01*
X40184605Y15875000D01*
X40997702Y15061903D01*
X41241671Y15133486D01*
X41362571Y15388996D01*
X41431300Y15663184D01*
X41445217Y15945512D01*
X41403787Y16225130D01*
X41308603Y16491292D01*
X41241671Y16616514D01*
X40997702Y16688097D01*
X40184605Y15875000D01*
X39825395Y15875000D01*
X39012298Y16688097D01*
X38768329Y16616514D01*
X38647429Y16361004D01*
X38578700Y16086816D01*
X38564783Y15804488D01*
X10925259Y15804488D01*
X9695559Y17034187D01*
X9672538Y17062238D01*
X9560620Y17154087D01*
X9432933Y17222337D01*
X9303922Y17261472D01*
X9153475Y17486632D01*
X8946632Y17693475D01*
X8772240Y17810000D01*
X8946632Y17926525D01*
X9153475Y18133368D01*
X9256796Y18288000D01*
X19520000Y18288000D01*
X19520000Y17888000D01*
X19572350Y17610486D01*
X19677834Y17348517D01*
X19832399Y17112161D01*
X20030105Y16910500D01*
X20263354Y16751285D01*
X20523182Y16640633D01*
X20605961Y16623096D01*
X20828000Y16745085D01*
X20828000Y18288000D01*
X19520000Y18288000D01*
X9256796Y18288000D01*
X9303922Y18358528D01*
X9432933Y18397663D01*
X9560620Y18465913D01*
X9672538Y18557762D01*
X9695558Y18585812D01*
X10443947Y19334200D01*
X19618529Y19334200D01*
X19572350Y19219514D01*
X19520000Y18942000D01*
X19520000Y18542000D01*
X20828000Y18542000D01*
X20828000Y18562000D01*
X21082000Y18562000D01*
X21082000Y18542000D01*
X21102000Y18542000D01*
X21102000Y18288000D01*
X21082000Y18288000D01*
X21082000Y16745085D01*
X21304039Y16623096D01*
X21386818Y16640633D01*
X21646646Y16751285D01*
X21879895Y16910500D01*
X22077601Y17112161D01*
X22227735Y17341742D01*
X22296068Y17213900D01*
X22475392Y16995393D01*
X22693899Y16816068D01*
X22943192Y16682818D01*
X23213691Y16600764D01*
X23495000Y16573057D01*
X23776308Y16600764D01*
X24046807Y16682818D01*
X24296100Y16816068D01*
X24514607Y16995392D01*
X24693932Y17213899D01*
X24765000Y17346858D01*
X24836068Y17213900D01*
X25015392Y16995393D01*
X25233899Y16816068D01*
X25483192Y16682818D01*
X25753691Y16600764D01*
X26035000Y16573057D01*
X26316308Y16600764D01*
X26586807Y16682818D01*
X26836100Y16816068D01*
X27054607Y16995392D01*
X27233932Y17213899D01*
X27305000Y17346858D01*
X27376068Y17213900D01*
X27555392Y16995393D01*
X27773899Y16816068D01*
X28023192Y16682818D01*
X28293691Y16600764D01*
X28575000Y16573057D01*
X28856308Y16600764D01*
X29126807Y16682818D01*
X29376100Y16816068D01*
X29594607Y16995392D01*
X29773932Y17213899D01*
X29845000Y17346858D01*
X29916068Y17213900D01*
X30095392Y16995393D01*
X30313899Y16816068D01*
X30563192Y16682818D01*
X30833691Y16600764D01*
X31115000Y16573057D01*
X31396308Y16600764D01*
X31666807Y16682818D01*
X31916100Y16816068D01*
X32134607Y16995392D01*
X32313932Y17213899D01*
X32385000Y17346858D01*
X32456068Y17213900D01*
X32635392Y16995393D01*
X32853899Y16816068D01*
X33103192Y16682818D01*
X33373691Y16600764D01*
X33655000Y16573057D01*
X33936308Y16600764D01*
X34206807Y16682818D01*
X34456100Y16816068D01*
X34674607Y16995392D01*
X34767419Y17108483D01*
X34769188Y17090518D01*
X34805498Y16970820D01*
X34864463Y16860506D01*
X34943815Y16763815D01*
X35040506Y16684463D01*
X35150820Y16625498D01*
X35270518Y16589188D01*
X35395000Y16576928D01*
X36995000Y16576928D01*
X37119482Y16589188D01*
X37239180Y16625498D01*
X37349494Y16684463D01*
X37446185Y16763815D01*
X37525537Y16860506D01*
X37529383Y16867702D01*
X39191903Y16867702D01*
X40005000Y16054605D01*
X40818097Y16867702D01*
X40746514Y17111671D01*
X40491004Y17232571D01*
X40216816Y17301300D01*
X39934488Y17315217D01*
X39654870Y17273787D01*
X39388708Y17178603D01*
X39263486Y17111671D01*
X39191903Y16867702D01*
X37529383Y16867702D01*
X37584502Y16970820D01*
X37620812Y17090518D01*
X37633072Y17215000D01*
X37633072Y19334200D01*
X42416871Y19334200D01*
X42388700Y19221816D01*
X42374783Y18939488D01*
X42416213Y18659870D01*
X42511397Y18393708D01*
X42578329Y18268486D01*
X42822298Y18196903D01*
X43635395Y19010000D01*
X43621253Y19024142D01*
X43800858Y19203747D01*
X43815000Y19189605D01*
X43829143Y19203747D01*
X44008748Y19024142D01*
X43994605Y19010000D01*
X44807702Y18196903D01*
X45051671Y18268486D01*
X45172571Y18523996D01*
X45241300Y18798184D01*
X45255217Y19080512D01*
X45213787Y19360130D01*
X45205108Y19384400D01*
X52669854Y19384400D01*
X54715616Y17338638D01*
G37*
G04 #@! TD.AperFunction*
D21*
X6846525Y18133368D02*
X7053368Y17926525D01*
X7227760Y17810000D01*
X7053368Y17693475D01*
X6846525Y17486632D01*
X6728900Y17310594D01*
X6557588Y17540269D01*
X6341355Y17735178D01*
X6215745Y17810000D01*
X6341355Y17884822D01*
X6557588Y18079731D01*
X6728900Y18309406D01*
X6846525Y18133368D01*
G04 #@! TA.AperFunction,Conductor*
D22*
G36*
X6846525Y18133368D02*
G01*
X7053368Y17926525D01*
X7227760Y17810000D01*
X7053368Y17693475D01*
X6846525Y17486632D01*
X6728900Y17310594D01*
X6557588Y17540269D01*
X6341355Y17735178D01*
X6215745Y17810000D01*
X6341355Y17884822D01*
X6557588Y18079731D01*
X6728900Y18309406D01*
X6846525Y18133368D01*
G37*
G04 #@! TD.AperFunction*
D21*
X5587000Y24287000D02*
X5607000Y24287000D01*
X5607000Y24033000D01*
X5587000Y24033000D01*
X5587000Y24013000D01*
X5333000Y24013000D01*
X5333000Y24033000D01*
X5313000Y24033000D01*
X5313000Y24287000D01*
X5333000Y24287000D01*
X5333000Y24307000D01*
X5587000Y24307000D01*
X5587000Y24287000D01*
G04 #@! TA.AperFunction,Conductor*
D22*
G36*
X5587000Y24287000D02*
G01*
X5607000Y24287000D01*
X5607000Y24033000D01*
X5587000Y24033000D01*
X5587000Y24013000D01*
X5333000Y24013000D01*
X5333000Y24033000D01*
X5313000Y24033000D01*
X5313000Y24287000D01*
X5333000Y24287000D01*
X5333000Y24307000D01*
X5587000Y24307000D01*
X5587000Y24287000D01*
G37*
G04 #@! TD.AperFunction*
D21*
X5587000Y26827000D02*
X5607000Y26827000D01*
X5607000Y26573000D01*
X5587000Y26573000D01*
X5587000Y26553000D01*
X5333000Y26553000D01*
X5333000Y26573000D01*
X5313000Y26573000D01*
X5313000Y26827000D01*
X5333000Y26827000D01*
X5333000Y26847000D01*
X5587000Y26847000D01*
X5587000Y26827000D01*
G04 #@! TA.AperFunction,Conductor*
D22*
G36*
X5587000Y26827000D02*
G01*
X5607000Y26827000D01*
X5607000Y26573000D01*
X5587000Y26573000D01*
X5587000Y26553000D01*
X5333000Y26553000D01*
X5333000Y26573000D01*
X5313000Y26573000D01*
X5313000Y26827000D01*
X5333000Y26827000D01*
X5333000Y26847000D01*
X5587000Y26847000D01*
X5587000Y26827000D01*
G37*
G04 #@! TD.AperFunction*
D21*
X23188852Y36096701D02*
X22943193Y36022182D01*
X22693900Y35888932D01*
X22475393Y35709608D01*
X22296068Y35491101D01*
X22227735Y35363259D01*
X22077601Y35592839D01*
X21879895Y35794500D01*
X21646646Y35953715D01*
X21386818Y36064367D01*
X21304039Y36081904D01*
X21082000Y35959915D01*
X21082000Y34417000D01*
X21102000Y34417000D01*
X21102000Y34163000D01*
X21082000Y34163000D01*
X21082000Y32620085D01*
X21304039Y32498096D01*
X21386818Y32515633D01*
X21646646Y32626285D01*
X21879895Y32785500D01*
X22077601Y32987161D01*
X22227735Y33216742D01*
X22296068Y33088900D01*
X22475392Y32870393D01*
X22693899Y32691068D01*
X22943192Y32557818D01*
X23213691Y32475764D01*
X23495000Y32448057D01*
X23776308Y32475764D01*
X24046807Y32557818D01*
X24296100Y32691068D01*
X24514607Y32870392D01*
X24693932Y33088899D01*
X24765000Y33221858D01*
X24836068Y33088900D01*
X25015392Y32870393D01*
X25233899Y32691068D01*
X25310174Y32650298D01*
X25310635Y32645615D01*
X25351168Y32512000D01*
X25352664Y32507067D01*
X25420914Y32379380D01*
X25512763Y32267462D01*
X25540808Y32244446D01*
X29002746Y28782507D01*
X29025762Y28754462D01*
X29137680Y28662613D01*
X29265367Y28594363D01*
X29403915Y28552335D01*
X29511895Y28541700D01*
X29511904Y28541700D01*
X29547999Y28538145D01*
X29584094Y28541700D01*
X32700254Y28541700D01*
X32931528Y28310425D01*
X32853900Y28268932D01*
X32635393Y28089608D01*
X32456068Y27871101D01*
X32385000Y27738142D01*
X32313932Y27871101D01*
X32134608Y28089608D01*
X31916101Y28268932D01*
X31666808Y28402182D01*
X31396309Y28484236D01*
X31115000Y28511943D01*
X30833692Y28484236D01*
X30563193Y28402182D01*
X30313900Y28268932D01*
X30095393Y28089608D01*
X29916068Y27871101D01*
X29845000Y27738142D01*
X29773932Y27871101D01*
X29594608Y28089608D01*
X29376101Y28268932D01*
X29126808Y28402182D01*
X28856309Y28484236D01*
X28575000Y28511943D01*
X28293692Y28484236D01*
X28023193Y28402182D01*
X27773900Y28268932D01*
X27555393Y28089608D01*
X27376068Y27871101D01*
X27305000Y27738142D01*
X27233932Y27871101D01*
X27054608Y28089608D01*
X26836101Y28268932D01*
X26586808Y28402182D01*
X26316309Y28484236D01*
X26035000Y28511943D01*
X25753692Y28484236D01*
X25483193Y28402182D01*
X25233900Y28268932D01*
X25015393Y28089608D01*
X24836068Y27871101D01*
X24765000Y27738142D01*
X24693932Y27871101D01*
X24514608Y28089608D01*
X24296101Y28268932D01*
X24219826Y28309702D01*
X24219365Y28314385D01*
X24201817Y28372233D01*
X24177337Y28452933D01*
X24109087Y28580620D01*
X24017238Y28692538D01*
X23989193Y28715554D01*
X18541747Y34163000D01*
X19520000Y34163000D01*
X19520000Y33763000D01*
X19572350Y33485486D01*
X19677834Y33223517D01*
X19832399Y32987161D01*
X20030105Y32785500D01*
X20263354Y32626285D01*
X20523182Y32515633D01*
X20605961Y32498096D01*
X20828000Y32620085D01*
X20828000Y34163000D01*
X19520000Y34163000D01*
X18541747Y34163000D01*
X17887747Y34817000D01*
X19520000Y34817000D01*
X19520000Y34417000D01*
X20828000Y34417000D01*
X20828000Y35959915D01*
X20605961Y36081904D01*
X20523182Y36064367D01*
X20263354Y35953715D01*
X20030105Y35794500D01*
X19832399Y35592839D01*
X19677834Y35356483D01*
X19572350Y35094514D01*
X19520000Y34817000D01*
X17887747Y34817000D01*
X14789546Y37915200D01*
X21370354Y37915200D01*
X23188852Y36096701D01*
G04 #@! TA.AperFunction,Conductor*
D22*
G36*
X23188852Y36096701D02*
G01*
X22943193Y36022182D01*
X22693900Y35888932D01*
X22475393Y35709608D01*
X22296068Y35491101D01*
X22227735Y35363259D01*
X22077601Y35592839D01*
X21879895Y35794500D01*
X21646646Y35953715D01*
X21386818Y36064367D01*
X21304039Y36081904D01*
X21082000Y35959915D01*
X21082000Y34417000D01*
X21102000Y34417000D01*
X21102000Y34163000D01*
X21082000Y34163000D01*
X21082000Y32620085D01*
X21304039Y32498096D01*
X21386818Y32515633D01*
X21646646Y32626285D01*
X21879895Y32785500D01*
X22077601Y32987161D01*
X22227735Y33216742D01*
X22296068Y33088900D01*
X22475392Y32870393D01*
X22693899Y32691068D01*
X22943192Y32557818D01*
X23213691Y32475764D01*
X23495000Y32448057D01*
X23776308Y32475764D01*
X24046807Y32557818D01*
X24296100Y32691068D01*
X24514607Y32870392D01*
X24693932Y33088899D01*
X24765000Y33221858D01*
X24836068Y33088900D01*
X25015392Y32870393D01*
X25233899Y32691068D01*
X25310174Y32650298D01*
X25310635Y32645615D01*
X25351168Y32512000D01*
X25352664Y32507067D01*
X25420914Y32379380D01*
X25512763Y32267462D01*
X25540808Y32244446D01*
X29002746Y28782507D01*
X29025762Y28754462D01*
X29137680Y28662613D01*
X29265367Y28594363D01*
X29403915Y28552335D01*
X29511895Y28541700D01*
X29511904Y28541700D01*
X29547999Y28538145D01*
X29584094Y28541700D01*
X32700254Y28541700D01*
X32931528Y28310425D01*
X32853900Y28268932D01*
X32635393Y28089608D01*
X32456068Y27871101D01*
X32385000Y27738142D01*
X32313932Y27871101D01*
X32134608Y28089608D01*
X31916101Y28268932D01*
X31666808Y28402182D01*
X31396309Y28484236D01*
X31115000Y28511943D01*
X30833692Y28484236D01*
X30563193Y28402182D01*
X30313900Y28268932D01*
X30095393Y28089608D01*
X29916068Y27871101D01*
X29845000Y27738142D01*
X29773932Y27871101D01*
X29594608Y28089608D01*
X29376101Y28268932D01*
X29126808Y28402182D01*
X28856309Y28484236D01*
X28575000Y28511943D01*
X28293692Y28484236D01*
X28023193Y28402182D01*
X27773900Y28268932D01*
X27555393Y28089608D01*
X27376068Y27871101D01*
X27305000Y27738142D01*
X27233932Y27871101D01*
X27054608Y28089608D01*
X26836101Y28268932D01*
X26586808Y28402182D01*
X26316309Y28484236D01*
X26035000Y28511943D01*
X25753692Y28484236D01*
X25483193Y28402182D01*
X25233900Y28268932D01*
X25015393Y28089608D01*
X24836068Y27871101D01*
X24765000Y27738142D01*
X24693932Y27871101D01*
X24514608Y28089608D01*
X24296101Y28268932D01*
X24219826Y28309702D01*
X24219365Y28314385D01*
X24201817Y28372233D01*
X24177337Y28452933D01*
X24109087Y28580620D01*
X24017238Y28692538D01*
X23989193Y28715554D01*
X18541747Y34163000D01*
X19520000Y34163000D01*
X19520000Y33763000D01*
X19572350Y33485486D01*
X19677834Y33223517D01*
X19832399Y32987161D01*
X20030105Y32785500D01*
X20263354Y32626285D01*
X20523182Y32515633D01*
X20605961Y32498096D01*
X20828000Y32620085D01*
X20828000Y34163000D01*
X19520000Y34163000D01*
X18541747Y34163000D01*
X17887747Y34817000D01*
X19520000Y34817000D01*
X19520000Y34417000D01*
X20828000Y34417000D01*
X20828000Y35959915D01*
X20605961Y36081904D01*
X20523182Y36064367D01*
X20263354Y35953715D01*
X20030105Y35794500D01*
X19832399Y35592839D01*
X19677834Y35356483D01*
X19572350Y35094514D01*
X19520000Y34817000D01*
X17887747Y34817000D01*
X14789546Y37915200D01*
X21370354Y37915200D01*
X23188852Y36096701D01*
G37*
G04 #@! TD.AperFunction*
D21*
X5587000Y29367000D02*
X5607000Y29367000D01*
X5607000Y29113000D01*
X5587000Y29113000D01*
X5587000Y29093000D01*
X5333000Y29093000D01*
X5333000Y29113000D01*
X5313000Y29113000D01*
X5313000Y29367000D01*
X5333000Y29367000D01*
X5333000Y29387000D01*
X5587000Y29387000D01*
X5587000Y29367000D01*
G04 #@! TA.AperFunction,Conductor*
D22*
G36*
X5587000Y29367000D02*
G01*
X5607000Y29367000D01*
X5607000Y29113000D01*
X5587000Y29113000D01*
X5587000Y29093000D01*
X5333000Y29093000D01*
X5333000Y29113000D01*
X5313000Y29113000D01*
X5313000Y29367000D01*
X5333000Y29367000D01*
X5333000Y29387000D01*
X5587000Y29387000D01*
X5587000Y29367000D01*
G37*
G04 #@! TD.AperFunction*
D21*
X39287400Y32999453D02*
X39263486Y32986671D01*
X39191903Y32742702D01*
X40005000Y31929605D01*
X40019143Y31943747D01*
X40198748Y31764142D01*
X40184605Y31750000D01*
X40198748Y31735857D01*
X40019143Y31556252D01*
X40005000Y31570395D01*
X39990858Y31556252D01*
X39811253Y31735857D01*
X39825395Y31750000D01*
X39012298Y32563097D01*
X38768329Y32491514D01*
X38647429Y32236004D01*
X38578700Y31961816D01*
X38564783Y31679488D01*
X38606213Y31399870D01*
X38665173Y31235000D01*
X30651547Y31235000D01*
X29258394Y32628153D01*
X29376100Y32691068D01*
X29594607Y32870392D01*
X29773932Y33088899D01*
X29842265Y33216741D01*
X29992399Y32987161D01*
X30190105Y32785500D01*
X30423354Y32626285D01*
X30683182Y32515633D01*
X30765961Y32498096D01*
X30988000Y32620085D01*
X30988000Y34163000D01*
X30968000Y34163000D01*
X30968000Y34417000D01*
X30988000Y34417000D01*
X30988000Y34437000D01*
X31242000Y34437000D01*
X31242000Y34417000D01*
X31262000Y34417000D01*
X31262000Y34163000D01*
X31242000Y34163000D01*
X31242000Y32620085D01*
X31464039Y32498096D01*
X31546818Y32515633D01*
X31806646Y32626285D01*
X32039895Y32785500D01*
X32237601Y32987161D01*
X32387735Y33216742D01*
X32456068Y33088900D01*
X32635392Y32870393D01*
X32853899Y32691068D01*
X33103192Y32557818D01*
X33373691Y32475764D01*
X33655000Y32448057D01*
X33936308Y32475764D01*
X34206807Y32557818D01*
X34456100Y32691068D01*
X34674607Y32870392D01*
X34767419Y32983483D01*
X34769188Y32965518D01*
X34805498Y32845820D01*
X34864463Y32735506D01*
X34943815Y32638815D01*
X35040506Y32559463D01*
X35150820Y32500498D01*
X35270518Y32464188D01*
X35395000Y32451928D01*
X36995000Y32451928D01*
X37119482Y32464188D01*
X37239180Y32500498D01*
X37349494Y32559463D01*
X37446185Y32638815D01*
X37525537Y32735506D01*
X37584502Y32845820D01*
X37620812Y32965518D01*
X37633072Y33090000D01*
X37633072Y34653782D01*
X39287400Y32999453D01*
G04 #@! TA.AperFunction,Conductor*
D22*
G36*
X39287400Y32999453D02*
G01*
X39263486Y32986671D01*
X39191903Y32742702D01*
X40005000Y31929605D01*
X40019143Y31943747D01*
X40198748Y31764142D01*
X40184605Y31750000D01*
X40198748Y31735857D01*
X40019143Y31556252D01*
X40005000Y31570395D01*
X39990858Y31556252D01*
X39811253Y31735857D01*
X39825395Y31750000D01*
X39012298Y32563097D01*
X38768329Y32491514D01*
X38647429Y32236004D01*
X38578700Y31961816D01*
X38564783Y31679488D01*
X38606213Y31399870D01*
X38665173Y31235000D01*
X30651547Y31235000D01*
X29258394Y32628153D01*
X29376100Y32691068D01*
X29594607Y32870392D01*
X29773932Y33088899D01*
X29842265Y33216741D01*
X29992399Y32987161D01*
X30190105Y32785500D01*
X30423354Y32626285D01*
X30683182Y32515633D01*
X30765961Y32498096D01*
X30988000Y32620085D01*
X30988000Y34163000D01*
X30968000Y34163000D01*
X30968000Y34417000D01*
X30988000Y34417000D01*
X30988000Y34437000D01*
X31242000Y34437000D01*
X31242000Y34417000D01*
X31262000Y34417000D01*
X31262000Y34163000D01*
X31242000Y34163000D01*
X31242000Y32620085D01*
X31464039Y32498096D01*
X31546818Y32515633D01*
X31806646Y32626285D01*
X32039895Y32785500D01*
X32237601Y32987161D01*
X32387735Y33216742D01*
X32456068Y33088900D01*
X32635392Y32870393D01*
X32853899Y32691068D01*
X33103192Y32557818D01*
X33373691Y32475764D01*
X33655000Y32448057D01*
X33936308Y32475764D01*
X34206807Y32557818D01*
X34456100Y32691068D01*
X34674607Y32870392D01*
X34767419Y32983483D01*
X34769188Y32965518D01*
X34805498Y32845820D01*
X34864463Y32735506D01*
X34943815Y32638815D01*
X35040506Y32559463D01*
X35150820Y32500498D01*
X35270518Y32464188D01*
X35395000Y32451928D01*
X36995000Y32451928D01*
X37119482Y32464188D01*
X37239180Y32500498D01*
X37349494Y32559463D01*
X37446185Y32638815D01*
X37525537Y32735506D01*
X37584502Y32845820D01*
X37620812Y32965518D01*
X37633072Y33090000D01*
X37633072Y34653782D01*
X39287400Y32999453D01*
G37*
G04 #@! TD.AperFunction*
D21*
X5587000Y36987000D02*
X5607000Y36987000D01*
X5607000Y36733000D01*
X5587000Y36733000D01*
X5587000Y36713000D01*
X5333000Y36713000D01*
X5333000Y36733000D01*
X5313000Y36733000D01*
X5313000Y36987000D01*
X5333000Y36987000D01*
X5333000Y37007000D01*
X5587000Y37007000D01*
X5587000Y36987000D01*
G04 #@! TA.AperFunction,Conductor*
D22*
G36*
X5587000Y36987000D02*
G01*
X5607000Y36987000D01*
X5607000Y36733000D01*
X5587000Y36733000D01*
X5587000Y36713000D01*
X5333000Y36713000D01*
X5333000Y36733000D01*
X5313000Y36733000D01*
X5313000Y36987000D01*
X5333000Y36987000D01*
X5333000Y37007000D01*
X5587000Y37007000D01*
X5587000Y36987000D01*
G37*
G04 #@! TD.AperFunction*
D21*
X5587000Y47147000D02*
X5607000Y47147000D01*
X5607000Y46893000D01*
X5587000Y46893000D01*
X5587000Y46873000D01*
X5333000Y46873000D01*
X5333000Y46893000D01*
X5313000Y46893000D01*
X5313000Y47147000D01*
X5333000Y47147000D01*
X5333000Y47167000D01*
X5587000Y47167000D01*
X5587000Y47147000D01*
G04 #@! TA.AperFunction,Conductor*
D22*
G36*
X5587000Y47147000D02*
G01*
X5607000Y47147000D01*
X5607000Y46893000D01*
X5587000Y46893000D01*
X5587000Y46873000D01*
X5333000Y46873000D01*
X5333000Y46893000D01*
X5313000Y46893000D01*
X5313000Y47147000D01*
X5333000Y47147000D01*
X5333000Y47167000D01*
X5587000Y47167000D01*
X5587000Y47147000D01*
G37*
G04 #@! TD.AperFunction*
D21*
X19520000Y50692000D02*
X19520000Y50292000D01*
X20828000Y50292000D01*
X20828000Y50312000D01*
X21082000Y50312000D01*
X21082000Y50292000D01*
X21102000Y50292000D01*
X21102000Y50038000D01*
X21082000Y50038000D01*
X21082000Y48495085D01*
X21304039Y48373096D01*
X21386818Y48390633D01*
X21646646Y48501285D01*
X21879895Y48660500D01*
X22077601Y48862161D01*
X22227735Y49091742D01*
X22296068Y48963900D01*
X22475392Y48745393D01*
X22693899Y48566068D01*
X22943192Y48432818D01*
X23213691Y48350764D01*
X23495000Y48323057D01*
X23776308Y48350764D01*
X24046807Y48432818D01*
X24296100Y48566068D01*
X24514607Y48745392D01*
X24693932Y48963899D01*
X24765000Y49096858D01*
X24836068Y48963900D01*
X25015392Y48745393D01*
X25233899Y48566068D01*
X25310174Y48525298D01*
X25310635Y48520615D01*
X25352663Y48382067D01*
X25420913Y48254380D01*
X25512762Y48142462D01*
X25624680Y48050613D01*
X25752367Y47982363D01*
X25890915Y47940335D01*
X25998895Y47929700D01*
X26035000Y47926144D01*
X26071105Y47929700D01*
X29765954Y47929700D01*
X29940654Y47755000D01*
X9294883Y47755000D01*
X9153475Y47966632D01*
X8946632Y48173475D01*
X8772240Y48290000D01*
X8946632Y48406525D01*
X9153475Y48613368D01*
X9303922Y48838528D01*
X9432933Y48877663D01*
X9560620Y48945913D01*
X9672538Y49037762D01*
X9695558Y49065812D01*
X10667746Y50038000D01*
X19520000Y50038000D01*
X19520000Y49638000D01*
X19572350Y49360486D01*
X19677834Y49098517D01*
X19832399Y48862161D01*
X20030105Y48660500D01*
X20263354Y48501285D01*
X20523182Y48390633D01*
X20605961Y48373096D01*
X20828000Y48495085D01*
X20828000Y50038000D01*
X19520000Y50038000D01*
X10667746Y50038000D01*
X11560547Y50930800D01*
X19565047Y50930800D01*
X19520000Y50692000D01*
G04 #@! TA.AperFunction,Conductor*
D22*
G36*
X19520000Y50692000D02*
G01*
X19520000Y50292000D01*
X20828000Y50292000D01*
X20828000Y50312000D01*
X21082000Y50312000D01*
X21082000Y50292000D01*
X21102000Y50292000D01*
X21102000Y50038000D01*
X21082000Y50038000D01*
X21082000Y48495085D01*
X21304039Y48373096D01*
X21386818Y48390633D01*
X21646646Y48501285D01*
X21879895Y48660500D01*
X22077601Y48862161D01*
X22227735Y49091742D01*
X22296068Y48963900D01*
X22475392Y48745393D01*
X22693899Y48566068D01*
X22943192Y48432818D01*
X23213691Y48350764D01*
X23495000Y48323057D01*
X23776308Y48350764D01*
X24046807Y48432818D01*
X24296100Y48566068D01*
X24514607Y48745392D01*
X24693932Y48963899D01*
X24765000Y49096858D01*
X24836068Y48963900D01*
X25015392Y48745393D01*
X25233899Y48566068D01*
X25310174Y48525298D01*
X25310635Y48520615D01*
X25352663Y48382067D01*
X25420913Y48254380D01*
X25512762Y48142462D01*
X25624680Y48050613D01*
X25752367Y47982363D01*
X25890915Y47940335D01*
X25998895Y47929700D01*
X26035000Y47926144D01*
X26071105Y47929700D01*
X29765954Y47929700D01*
X29940654Y47755000D01*
X9294883Y47755000D01*
X9153475Y47966632D01*
X8946632Y48173475D01*
X8772240Y48290000D01*
X8946632Y48406525D01*
X9153475Y48613368D01*
X9303922Y48838528D01*
X9432933Y48877663D01*
X9560620Y48945913D01*
X9672538Y49037762D01*
X9695558Y49065812D01*
X10667746Y50038000D01*
X19520000Y50038000D01*
X19520000Y49638000D01*
X19572350Y49360486D01*
X19677834Y49098517D01*
X19832399Y48862161D01*
X20030105Y48660500D01*
X20263354Y48501285D01*
X20523182Y48390633D01*
X20605961Y48373096D01*
X20828000Y48495085D01*
X20828000Y50038000D01*
X19520000Y50038000D01*
X10667746Y50038000D01*
X11560547Y50930800D01*
X19565047Y50930800D01*
X19520000Y50692000D01*
G37*
G04 #@! TD.AperFunction*
D21*
X5587000Y57307000D02*
X5607000Y57307000D01*
X5607000Y57053000D01*
X5587000Y57053000D01*
X5587000Y57033000D01*
X5333000Y57033000D01*
X5333000Y57053000D01*
X5313000Y57053000D01*
X5313000Y57307000D01*
X5333000Y57307000D01*
X5333000Y57327000D01*
X5587000Y57327000D01*
X5587000Y57307000D01*
G04 #@! TA.AperFunction,Conductor*
D22*
G36*
X5587000Y57307000D02*
G01*
X5607000Y57307000D01*
X5607000Y57053000D01*
X5587000Y57053000D01*
X5587000Y57033000D01*
X5333000Y57033000D01*
X5333000Y57053000D01*
X5313000Y57053000D01*
X5313000Y57307000D01*
X5333000Y57307000D01*
X5333000Y57327000D01*
X5587000Y57327000D01*
X5587000Y57307000D01*
G37*
G04 #@! TD.AperFunction*
D21*
X5587000Y62387000D02*
X5607000Y62387000D01*
X5607000Y62133000D01*
X5587000Y62133000D01*
X5587000Y62113000D01*
X5333000Y62113000D01*
X5333000Y62133000D01*
X5313000Y62133000D01*
X5313000Y62387000D01*
X5333000Y62387000D01*
X5333000Y62407000D01*
X5587000Y62407000D01*
X5587000Y62387000D01*
G04 #@! TA.AperFunction,Conductor*
D22*
G36*
X5587000Y62387000D02*
G01*
X5607000Y62387000D01*
X5607000Y62133000D01*
X5587000Y62133000D01*
X5587000Y62113000D01*
X5333000Y62113000D01*
X5333000Y62133000D01*
X5313000Y62133000D01*
X5313000Y62387000D01*
X5333000Y62387000D01*
X5333000Y62407000D01*
X5587000Y62407000D01*
X5587000Y62387000D01*
G37*
G04 #@! TD.AperFunction*
M02*
