M48
; DRILL file {KiCad (5.1.9)-1} date 08/30/24 09:44:20
; FORMAT={-:-/ absolute / metric / decimal}
; #@! TF.CreationDate,2024-08-30T09:44:20+09:00
; #@! TF.GenerationSoftware,Kicad,Pcbnew,(5.1.9)-1
FMAT,2
METRIC
T1C0.300
T2C0.800
T3C1.000
T4C3.200
%
G90
G05
T1
X10.583Y61.367
X11.133Y59.392
X12.418Y59.764
X15.269Y25.55
X15.505Y45.393
X16.931Y55.751
X19.739Y22.89
X20.955Y67.707
X24.2Y63.973
X28.7Y40.865
X29.044Y52.829
X30.786Y64.41
X32.818Y45.917
X32.894Y67.11
X35.764Y23.072
X37.121Y37.825
X37.145Y47.561
X38.304Y48.68
X39.187Y48.784
X48.967Y28.432
T2
X17.78Y73.995
X17.78Y58.755
X20.32Y73.995
X20.32Y58.755
X20.955Y50.165
X20.955Y42.545
X20.955Y34.29
X20.955Y26.67
X20.955Y18.415
X20.955Y10.795
X22.86Y73.995
X22.86Y58.755
X23.495Y50.165
X23.495Y42.545
X23.495Y34.29
X23.495Y26.67
X23.495Y18.415
X23.495Y10.795
X25.4Y73.995
X25.4Y58.755
X26.035Y50.165
X26.035Y42.545
X26.035Y34.29
X26.035Y26.67
X26.035Y18.415
X26.035Y10.795
X27.94Y73.995
X27.94Y58.755
X28.575Y50.165
X28.575Y42.545
X28.575Y34.29
X28.575Y26.67
X28.575Y18.415
X28.575Y10.795
X30.48Y73.995
X30.48Y58.755
X31.115Y50.165
X31.115Y42.545
X31.115Y34.29
X31.115Y26.67
X31.115Y18.415
X31.115Y10.795
X33.02Y73.995
X33.02Y58.755
X33.655Y50.165
X33.655Y42.545
X33.655Y34.29
X33.655Y26.67
X33.655Y18.415
X33.655Y10.795
X35.56Y73.995
X35.56Y58.755
X36.195Y50.165
X36.195Y42.545
X36.195Y34.29
X36.195Y26.67
X36.195Y18.415
X36.195Y10.795
X37.22Y86.17
X37.22Y83.67
X38.1Y73.995
X38.1Y58.755
X40.005Y47.625
X40.005Y45.125
X40.005Y31.75
X40.005Y29.25
X40.005Y15.875
X40.005Y13.375
X40.64Y73.995
X40.64Y58.755
X43.18Y73.995
X43.18Y58.755
X43.815Y19.01
X43.815Y16.51
X45.72Y73.995
X45.72Y58.755
X47.625Y26.035
X47.625Y10.795
X48.26Y73.995
X48.26Y58.755
X50.165Y26.035
X50.165Y10.795
X50.8Y73.995
X50.8Y58.755
X52.705Y26.035
X52.705Y10.795
X54.61Y67.27
X54.61Y64.77
X55.245Y26.035
X55.245Y10.795
X57.785Y26.035
X57.785Y10.795
X59.69Y47.625
X59.69Y32.385
X60.325Y26.035
X60.325Y10.795
X62.23Y47.625
X62.23Y32.385
X62.865Y26.035
X62.865Y10.795
X64.77Y47.625
X64.77Y32.385
X65.405Y26.035
X65.405Y10.795
X66.04Y34.925
X67.31Y47.625
X67.31Y32.385
X67.945Y26.035
X67.945Y10.795
X68.58Y34.925
X69.85Y47.625
X69.85Y32.385
X70.485Y26.035
X70.485Y10.795
X72.39Y47.625
X72.39Y32.385
X73.025Y26.035
X73.025Y10.795
X74.93Y47.625
X74.93Y32.385
X75.565Y26.035
X75.565Y10.795
X76.2Y34.925
X77.47Y47.625
X77.47Y32.385
X78.105Y26.035
X78.105Y10.795
X78.74Y34.925
X80.01Y47.625
X80.01Y32.385
X80.645Y26.035
X80.645Y10.795
X82.55Y47.625
X82.55Y32.385
X83.185Y26.035
X83.185Y10.795
X85.09Y47.625
X85.09Y32.385
X85.725Y26.035
X85.725Y10.795
X87.63Y47.625
X87.63Y32.385
X88.265Y26.035
X88.265Y10.795
X90.17Y60.96
X90.17Y53.34
X90.805Y26.035
X90.805Y10.795
X93.345Y26.035
X93.345Y10.795
X95.885Y26.035
X95.885Y10.795
T3
X5.46Y77.5
X5.46Y74.96
X5.46Y72.42
X5.46Y69.88
X5.46Y67.34
X5.46Y64.8
X5.46Y62.26
X5.46Y59.72
X5.46Y57.18
X5.46Y54.64
X5.46Y52.1
X5.46Y49.56
X5.46Y47.02
X5.46Y44.48
X5.46Y41.94
X5.46Y39.4
X5.46Y36.86
X5.46Y34.32
X5.46Y31.78
X5.46Y29.24
X5.46Y26.7
X5.46Y24.16
X5.46Y21.62
X5.46Y19.08
X5.46Y16.54
X8.0Y77.5
X8.0Y74.96
X8.0Y72.42
X8.0Y69.88
X8.0Y67.34
X8.0Y64.8
X8.0Y62.26
X8.0Y59.72
X8.0Y57.18
X8.0Y54.64
X8.0Y52.1
X8.0Y49.56
X8.0Y47.02
X8.0Y44.48
X8.0Y41.94
X8.0Y39.4
X8.0Y36.86
X8.0Y34.32
X8.0Y31.78
X8.0Y29.24
X8.0Y26.7
X8.0Y24.16
X8.0Y21.62
X8.0Y19.08
X8.0Y16.54
X10.16Y88.265
X10.16Y85.725
X33.33Y95.885
X35.87Y95.885
X38.41Y95.885
X44.3Y95.885
X46.84Y95.885
X49.38Y95.885
X55.11Y96.0
X57.65Y96.0
X60.19Y96.0
X66.675Y96.52
X66.675Y93.98
X66.675Y68.58
X69.215Y68.58
X70.5Y60.5
X71.755Y68.58
X73.04Y60.5
X74.295Y68.58
X75.58Y60.5
X76.835Y68.58
X78.12Y60.5
X79.375Y68.58
X80.66Y60.5
X81.915Y68.58
X83.2Y60.5
X84.455Y68.58
X86.995Y96.52
X86.995Y93.98
X86.995Y68.58
T4
X5.0Y95.0
X5.0Y5.0
X95.0Y95.0
X95.0Y5.0
T3
G00X18.795Y89.09
M15
G01X18.795Y87.09
M16
G05
G00X24.495Y91.09
M15
G01X22.495Y91.09
M16
G05
G00X24.495Y85.09
M15
G01X22.495Y85.09
M16
G05
T0
M30
