G04 #@! TF.GenerationSoftware,KiCad,Pcbnew,(5.1.9)-1*
G04 #@! TF.CreationDate,2022-01-19T13:15:35+09:00*
G04 #@! TF.ProjectId,MZ80k_SD,4d5a3830-6b5f-4534-942e-6b696361645f,rev?*
G04 #@! TF.SameCoordinates,PX53920b0PY93c3260*
G04 #@! TF.FileFunction,Copper,L1,Top*
G04 #@! TF.FilePolarity,Positive*
%FSLAX46Y46*%
G04 Gerber Fmt 4.6, Leading zero omitted, Abs format (unit mm)*
G04 Created by KiCad (PCBNEW (5.1.9)-1) date 2022-01-19 13:15:35*
%MOMM*%
%LPD*%
G01*
G04 APERTURE LIST*
G04 #@! TA.AperFunction,ComponentPad*
%ADD10R,1.700000X1.700000*%
G04 #@! TD*
G04 #@! TA.AperFunction,ComponentPad*
%ADD11O,1.700000X1.700000*%
G04 #@! TD*
G04 #@! TA.AperFunction,ComponentPad*
%ADD12C,1.600000*%
G04 #@! TD*
G04 #@! TA.AperFunction,ComponentPad*
%ADD13R,1.600000X2.400000*%
G04 #@! TD*
G04 #@! TA.AperFunction,ComponentPad*
%ADD14O,1.600000X2.400000*%
G04 #@! TD*
G04 #@! TA.AperFunction,ComponentPad*
%ADD15R,3.500000X3.500000*%
G04 #@! TD*
G04 #@! TA.AperFunction,ComponentPad*
%ADD16R,1.600000X1.600000*%
G04 #@! TD*
G04 #@! TA.AperFunction,ComponentPad*
%ADD17O,1.600000X1.600000*%
G04 #@! TD*
G04 #@! TA.AperFunction,ViaPad*
%ADD18C,0.500000*%
G04 #@! TD*
G04 #@! TA.AperFunction,Conductor*
%ADD19C,0.400000*%
G04 #@! TD*
G04 #@! TA.AperFunction,Conductor*
%ADD20C,0.200000*%
G04 #@! TD*
G04 #@! TA.AperFunction,Conductor*
%ADD21C,0.254000*%
G04 #@! TD*
G04 #@! TA.AperFunction,Conductor*
%ADD22C,0.100000*%
G04 #@! TD*
G04 APERTURE END LIST*
D10*
X10160000Y85725000D03*
D11*
X10160000Y88265000D03*
D10*
X66675000Y68580000D03*
D11*
X69215000Y68580000D03*
X71755000Y68580000D03*
X74295000Y68580000D03*
X76835000Y68580000D03*
X79375000Y68580000D03*
X81915000Y68580000D03*
X84455000Y68580000D03*
X86995000Y68580000D03*
X86995000Y96520000D03*
X86995000Y93980000D03*
X66675000Y96520000D03*
X66675000Y93980000D03*
D12*
X43815000Y16510000D03*
X43815000Y19010000D03*
D13*
X50800000Y73995000D03*
D14*
X17780000Y58755000D03*
X48260000Y73995000D03*
X20320000Y58755000D03*
X45720000Y73995000D03*
X22860000Y58755000D03*
X43180000Y73995000D03*
X25400000Y58755000D03*
X40640000Y73995000D03*
X27940000Y58755000D03*
X38100000Y73995000D03*
X30480000Y58755000D03*
X35560000Y73995000D03*
X33020000Y58755000D03*
X33020000Y73995000D03*
X35560000Y58755000D03*
X30480000Y73995000D03*
X38100000Y58755000D03*
X27940000Y73995000D03*
X40640000Y58755000D03*
X25400000Y73995000D03*
X43180000Y58755000D03*
X22860000Y73995000D03*
X45720000Y58755000D03*
X20320000Y73995000D03*
X48260000Y58755000D03*
X17780000Y73995000D03*
X50800000Y58755000D03*
D15*
X23495000Y85090000D03*
G04 #@! TA.AperFunction,ComponentPad*
G36*
G01*
X22495000Y92590000D02*
X24495000Y92590000D01*
G75*
G02*
X25245000Y91840000I0J-750000D01*
G01*
X25245000Y90340000D01*
G75*
G02*
X24495000Y89590000I-750000J0D01*
G01*
X22495000Y89590000D01*
G75*
G02*
X21745000Y90340000I0J750000D01*
G01*
X21745000Y91840000D01*
G75*
G02*
X22495000Y92590000I750000J0D01*
G01*
G37*
G04 #@! TD.AperFunction*
G04 #@! TA.AperFunction,ComponentPad*
G36*
G01*
X17920000Y89840000D02*
X19670000Y89840000D01*
G75*
G02*
X20545000Y88965000I0J-875000D01*
G01*
X20545000Y87215000D01*
G75*
G02*
X19670000Y86340000I-875000J0D01*
G01*
X17920000Y86340000D01*
G75*
G02*
X17045000Y87215000I0J875000D01*
G01*
X17045000Y88965000D01*
G75*
G02*
X17920000Y89840000I875000J0D01*
G01*
G37*
G04 #@! TD.AperFunction*
D10*
X8000000Y77500000D03*
D11*
X5460000Y77500000D03*
X8000000Y74960000D03*
X5460000Y74960000D03*
X8000000Y72420000D03*
X5460000Y72420000D03*
X8000000Y69880000D03*
X5460000Y69880000D03*
X8000000Y67340000D03*
X5460000Y67340000D03*
X8000000Y64800000D03*
X5460000Y64800000D03*
X8000000Y62260000D03*
X5460000Y62260000D03*
X8000000Y59720000D03*
X5460000Y59720000D03*
X8000000Y57180000D03*
X5460000Y57180000D03*
X8000000Y54640000D03*
X5460000Y54640000D03*
X8000000Y52100000D03*
X5460000Y52100000D03*
X8000000Y49560000D03*
X5460000Y49560000D03*
X8000000Y47020000D03*
X5460000Y47020000D03*
X8000000Y44480000D03*
X5460000Y44480000D03*
X8000000Y41940000D03*
X5460000Y41940000D03*
X8000000Y39400000D03*
X5460000Y39400000D03*
X8000000Y36860000D03*
X5460000Y36860000D03*
X8000000Y34320000D03*
X5460000Y34320000D03*
X8000000Y31780000D03*
X5460000Y31780000D03*
X8000000Y29240000D03*
X5460000Y29240000D03*
X8000000Y26700000D03*
X5460000Y26700000D03*
X8000000Y24160000D03*
X5460000Y24160000D03*
X8000000Y21620000D03*
X5460000Y21620000D03*
X8000000Y19080000D03*
X5460000Y19080000D03*
X8000000Y16540000D03*
X5460000Y16540000D03*
X55880000Y95885000D03*
X53340000Y95885000D03*
D10*
X50800000Y95885000D03*
D13*
X95885000Y26035000D03*
D14*
X47625000Y10795000D03*
X93345000Y26035000D03*
X50165000Y10795000D03*
X90805000Y26035000D03*
X52705000Y10795000D03*
X88265000Y26035000D03*
X55245000Y10795000D03*
X85725000Y26035000D03*
X57785000Y10795000D03*
X83185000Y26035000D03*
X60325000Y10795000D03*
X80645000Y26035000D03*
X62865000Y10795000D03*
X78105000Y26035000D03*
X65405000Y10795000D03*
X75565000Y26035000D03*
X67945000Y10795000D03*
X73025000Y26035000D03*
X70485000Y10795000D03*
X70485000Y26035000D03*
X73025000Y10795000D03*
X67945000Y26035000D03*
X75565000Y10795000D03*
X65405000Y26035000D03*
X78105000Y10795000D03*
X62865000Y26035000D03*
X80645000Y10795000D03*
X60325000Y26035000D03*
X83185000Y10795000D03*
X57785000Y26035000D03*
X85725000Y10795000D03*
X55245000Y26035000D03*
X88265000Y10795000D03*
X52705000Y26035000D03*
X90805000Y10795000D03*
X50165000Y26035000D03*
X93345000Y10795000D03*
X47625000Y26035000D03*
X95885000Y10795000D03*
D10*
X36830000Y95885000D03*
D11*
X39370000Y95885000D03*
X41910000Y95885000D03*
D12*
X54610000Y64770000D03*
X54610000Y67270000D03*
D16*
X45720000Y90170000D03*
D12*
X45720000Y87670000D03*
D16*
X87630000Y47625000D03*
D17*
X85090000Y47625000D03*
X82550000Y47625000D03*
X59690000Y32385000D03*
X80010000Y47625000D03*
X62230000Y32385000D03*
X77470000Y47625000D03*
X64770000Y32385000D03*
X74930000Y47625000D03*
X67310000Y32385000D03*
X72390000Y47625000D03*
X69850000Y32385000D03*
X69850000Y47625000D03*
X72390000Y32385000D03*
X67310000Y47625000D03*
X74930000Y32385000D03*
X64770000Y47625000D03*
X77470000Y32385000D03*
X62230000Y47625000D03*
X80010000Y32385000D03*
X59690000Y47625000D03*
X82550000Y32385000D03*
X85090000Y32385000D03*
X87630000Y32385000D03*
X78740000Y34925000D03*
X76200000Y34925000D03*
X68580000Y34925000D03*
X66040000Y34925000D03*
D12*
X40005000Y31750000D03*
X40005000Y29250000D03*
X40005000Y45125000D03*
X40005000Y47625000D03*
X40005000Y15875000D03*
X40005000Y13375000D03*
D14*
X36195000Y26670000D03*
X20955000Y34290000D03*
X33655000Y26670000D03*
X23495000Y34290000D03*
X31115000Y26670000D03*
X26035000Y34290000D03*
X28575000Y26670000D03*
X28575000Y34290000D03*
X26035000Y26670000D03*
X31115000Y34290000D03*
X23495000Y26670000D03*
X33655000Y34290000D03*
X20955000Y26670000D03*
D13*
X36195000Y34290000D03*
X36195000Y50165000D03*
D14*
X20955000Y42545000D03*
X33655000Y50165000D03*
X23495000Y42545000D03*
X31115000Y50165000D03*
X26035000Y42545000D03*
X28575000Y50165000D03*
X28575000Y42545000D03*
X26035000Y50165000D03*
X31115000Y42545000D03*
X23495000Y50165000D03*
X33655000Y42545000D03*
X20955000Y50165000D03*
X36195000Y42545000D03*
D13*
X36195000Y18415000D03*
D14*
X20955000Y10795000D03*
X33655000Y18415000D03*
X23495000Y10795000D03*
X31115000Y18415000D03*
X26035000Y10795000D03*
X28575000Y18415000D03*
X28575000Y10795000D03*
X26035000Y18415000D03*
X31115000Y10795000D03*
X23495000Y18415000D03*
X33655000Y10795000D03*
X20955000Y18415000D03*
X36195000Y10795000D03*
D18*
X30997900Y72172800D03*
X26316300Y69610600D03*
X13480700Y59491300D03*
X25591300Y69273100D03*
X18230000Y68069700D03*
X18706100Y42756400D03*
X3452700Y54803100D03*
X20756400Y32463400D03*
X27237900Y71836700D03*
X52407100Y59692500D03*
X67871000Y52235100D03*
X29940800Y25160700D03*
X38001300Y25864700D03*
X10402400Y37710700D03*
X43832000Y7728700D03*
X10252700Y28119800D03*
X11174100Y35338000D03*
X10293100Y29677200D03*
X28168900Y13965600D03*
X42331000Y7255200D03*
X29646400Y15118600D03*
X17168900Y51539100D03*
X38789500Y14069500D03*
X18610600Y49134900D03*
X24006300Y13358000D03*
X16688300Y47240700D03*
X12201300Y52513900D03*
X74960500Y44930200D03*
X70147400Y62919500D03*
X49372500Y88927000D03*
X6730000Y59088000D03*
X49714500Y57236000D03*
X12750400Y67565400D03*
X17687400Y48218500D03*
X57829800Y18065800D03*
X62245800Y23157300D03*
X61209500Y23784500D03*
X56720300Y18194600D03*
X48848100Y18140200D03*
X51911200Y17920700D03*
X63020700Y37190600D03*
X50261200Y17888800D03*
X28836900Y45845900D03*
D19*
X62230000Y61468000D02*
X64770000Y61468000D01*
X59690000Y61468000D02*
X62230000Y61468000D01*
X64770000Y61468000D02*
X67183000Y61468000D01*
X67183000Y61468000D02*
X67310000Y61595000D01*
X50800000Y64770000D02*
X50800000Y58755000D01*
X54610000Y64770000D02*
X50800000Y64770000D01*
X36195000Y10795000D02*
X34595000Y12395000D01*
X34595000Y12395000D02*
X32715000Y12395000D01*
X32715000Y12395000D02*
X31115000Y10795000D01*
X40005000Y13375000D02*
X38775000Y13375000D01*
X38775000Y13375000D02*
X36195000Y10795000D01*
X43815000Y16510000D02*
X54610000Y16510000D01*
X54610000Y16510000D02*
X60325000Y10795000D01*
X36195000Y26670000D02*
X41910000Y20955000D01*
X41910000Y20955000D02*
X41910000Y15875000D01*
X41910000Y15875000D02*
X41910000Y15280000D01*
X41910000Y15280000D02*
X40005000Y13375000D01*
X43815000Y16510000D02*
X42545000Y16510000D01*
X42545000Y16510000D02*
X41910000Y15875000D01*
X40005000Y29250000D02*
X38775000Y29250000D01*
X38775000Y29250000D02*
X36195000Y26670000D01*
X36195000Y42545000D02*
X41910000Y36830000D01*
X41910000Y36830000D02*
X41910000Y31155000D01*
X41910000Y31155000D02*
X40005000Y29250000D01*
X28575000Y42545000D02*
X28575000Y45085000D01*
X28575000Y45085000D02*
X23495000Y50165000D01*
X31115000Y42545000D02*
X28575000Y42545000D01*
X36195000Y42545000D02*
X34595000Y44145000D01*
X34595000Y44145000D02*
X32715000Y44145000D01*
X32715000Y44145000D02*
X31115000Y42545000D01*
X40005000Y45125000D02*
X38775000Y45125000D01*
X38775000Y45125000D02*
X36195000Y42545000D01*
X48260000Y58755000D02*
X48260000Y53380000D01*
X48260000Y53380000D02*
X40005000Y45125000D01*
X50800000Y58755000D02*
X48260000Y58755000D01*
X81280000Y33655000D02*
X80010000Y32385000D01*
X67310000Y61595000D02*
X67310000Y67945000D01*
X67310000Y67945000D02*
X66675000Y68580000D01*
X54610000Y64770000D02*
X56388000Y64770000D01*
X56388000Y64770000D02*
X59690000Y61468000D01*
X50800000Y73995000D02*
X50800000Y64770000D01*
X50165000Y90170000D02*
X50165000Y74630000D01*
X50165000Y74630000D02*
X50800000Y73995000D01*
X45720000Y90170000D02*
X50165000Y90170000D01*
X50165000Y90170000D02*
X55880000Y95885000D01*
X39370000Y95885000D02*
X40620000Y97135000D01*
X40620000Y97135000D02*
X42510000Y97135000D01*
X42510000Y97135000D02*
X45720000Y93925000D01*
X45720000Y93925000D02*
X45720000Y90170000D01*
X81280000Y50671002D02*
X81280000Y33655000D01*
X70483002Y61468000D02*
X81280000Y50671002D01*
X67183000Y61468000D02*
X70483002Y61468000D01*
D20*
X8000000Y77500000D02*
X26531500Y77500000D01*
X26531500Y77500000D02*
X29068400Y74963100D01*
X29068400Y74963100D02*
X29068400Y73398900D01*
X29068400Y73398900D02*
X30294500Y72172800D01*
X30294500Y72172800D02*
X30997900Y72172800D01*
X8000000Y74960000D02*
X9150300Y74960000D01*
X26316300Y69610600D02*
X23432200Y72494700D01*
X23432200Y72494700D02*
X11615600Y72494700D01*
X11615600Y72494700D02*
X9150300Y74960000D01*
X31115000Y50165000D02*
X31115000Y51665300D01*
X31115000Y51665300D02*
X21306700Y51665300D01*
X21306700Y51665300D02*
X13480700Y59491300D01*
X8000000Y69880000D02*
X9150300Y69880000D01*
X25591300Y69273100D02*
X9757200Y69273100D01*
X9757200Y69273100D02*
X9150300Y69880000D01*
X38100000Y58755000D02*
X38100000Y60255300D01*
X8000000Y67340000D02*
X9150300Y67340000D01*
X9150300Y67340000D02*
X9507700Y66982600D01*
X9507700Y66982600D02*
X31372700Y66982600D01*
X31372700Y66982600D02*
X38100000Y60255300D01*
X9150300Y64800000D02*
X28475300Y64800000D01*
X28475300Y64800000D02*
X33020000Y60255300D01*
X8000000Y64800000D02*
X9150300Y64800000D01*
X33020000Y58755000D02*
X33020000Y60255300D01*
X40640000Y58755000D02*
X40640000Y57254700D01*
X8000000Y62260000D02*
X8000000Y63410300D01*
X8000000Y63410300D02*
X7712400Y63410300D01*
X7712400Y63410300D02*
X6849600Y64273100D01*
X6849600Y64273100D02*
X6849600Y65338100D01*
X6849600Y65338100D02*
X7517900Y66006400D01*
X7517900Y66006400D02*
X30307500Y66006400D01*
X30307500Y66006400D02*
X36830000Y59483900D01*
X36830000Y59483900D02*
X36830000Y58059200D01*
X36830000Y58059200D02*
X37634500Y57254700D01*
X37634500Y57254700D02*
X40640000Y57254700D01*
X43180000Y57254700D02*
X42767400Y56842100D01*
X42767400Y56842100D02*
X16908200Y56842100D01*
X16908200Y56842100D02*
X13708700Y60041600D01*
X13708700Y60041600D02*
X9471900Y60041600D01*
X9471900Y60041600D02*
X9150300Y59720000D01*
X43180000Y58755000D02*
X43180000Y57254700D01*
X8000000Y59720000D02*
X9150300Y59720000D01*
X43180000Y73995000D02*
X43180000Y72494700D01*
X43180000Y72494700D02*
X38755000Y68069700D01*
X38755000Y68069700D02*
X18230000Y68069700D01*
X8000000Y54640000D02*
X8000000Y53489700D01*
X18706100Y42756400D02*
X18706100Y43021900D01*
X18706100Y43021900D02*
X8238300Y53489700D01*
X8238300Y53489700D02*
X8000000Y53489700D01*
X5460000Y54640000D02*
X4309700Y54640000D01*
X3452700Y54803100D02*
X4146600Y54803100D01*
X4146600Y54803100D02*
X4309700Y54640000D01*
X40640000Y72494700D02*
X36765300Y68620000D01*
X36765300Y68620000D02*
X7626000Y68620000D01*
X7626000Y68620000D02*
X6730000Y67724000D01*
X6730000Y67724000D02*
X6730000Y66921500D01*
X6730000Y66921500D02*
X5998100Y66189600D01*
X5998100Y66189600D02*
X5142600Y66189600D01*
X5142600Y66189600D02*
X3850500Y64897500D01*
X3850500Y64897500D02*
X3850500Y57122000D01*
X3850500Y57122000D02*
X5062500Y55910000D01*
X5062500Y55910000D02*
X5878500Y55910000D01*
X5878500Y55910000D02*
X6610400Y55178100D01*
X6610400Y55178100D02*
X6610400Y53051200D01*
X6610400Y53051200D02*
X8000000Y51661600D01*
X40640000Y73995000D02*
X40640000Y72494700D01*
X8000000Y52100000D02*
X8000000Y51661600D01*
X8000000Y51524900D02*
X8000000Y50949700D01*
X8000000Y51524900D02*
X8000000Y51661600D01*
X28575000Y26670000D02*
X28575000Y28170300D01*
X28575000Y28170300D02*
X27637300Y28170300D01*
X27637300Y28170300D02*
X22120500Y33687100D01*
X22120500Y33687100D02*
X22120500Y35116900D01*
X22120500Y35116900D02*
X8827800Y48409600D01*
X8827800Y48409600D02*
X7461900Y48409600D01*
X7461900Y48409600D02*
X6821500Y49050000D01*
X6821500Y49050000D02*
X6821500Y50009600D01*
X6821500Y50009600D02*
X7761600Y50949700D01*
X7761600Y50949700D02*
X8000000Y50949700D01*
X31115000Y18415000D02*
X31115000Y19915300D01*
X31115000Y19915300D02*
X32226200Y21026500D01*
X32226200Y21026500D02*
X32226200Y27599700D01*
X32226200Y27599700D02*
X30933900Y28892000D01*
X30933900Y28892000D02*
X29439900Y28892000D01*
X29439900Y28892000D02*
X24765000Y33566900D01*
X24765000Y33566900D02*
X24765000Y35020400D01*
X24765000Y35020400D02*
X10225400Y49560000D01*
X10225400Y49560000D02*
X8000000Y49560000D01*
X8000000Y47020000D02*
X8000000Y45869700D01*
X20756400Y32463400D02*
X9389600Y43830200D01*
X9389600Y43830200D02*
X9389600Y44718400D01*
X9389600Y44718400D02*
X8238300Y45869700D01*
X8238300Y45869700D02*
X8000000Y45869700D01*
X27237900Y71836700D02*
X27452100Y71622500D01*
X27452100Y71622500D02*
X34687800Y71622500D01*
X34687800Y71622500D02*
X35560000Y72494700D01*
X35560000Y73995000D02*
X35560000Y72494700D01*
X23495000Y26670000D02*
X23495000Y28170300D01*
X8000000Y44480000D02*
X8000000Y43329700D01*
X23495000Y28170300D02*
X8335600Y43329700D01*
X8335600Y43329700D02*
X8000000Y43329700D01*
X67871000Y52235100D02*
X59731900Y52235100D01*
X59731900Y52235100D02*
X52407100Y59559900D01*
X52407100Y59559900D02*
X52407100Y59692500D01*
X27940000Y73995000D02*
X27940000Y75495300D01*
X8241500Y39400000D02*
X6610400Y41031100D01*
X6610400Y41031100D02*
X6610400Y42478100D01*
X6610400Y42478100D02*
X5878500Y43210000D01*
X5878500Y43210000D02*
X5094000Y43210000D01*
X5094000Y43210000D02*
X2876400Y45427600D01*
X2876400Y45427600D02*
X2876400Y66433600D01*
X2876400Y66433600D02*
X5172400Y68729600D01*
X5172400Y68729600D02*
X5951300Y68729600D01*
X5951300Y68729600D02*
X6730000Y69508300D01*
X6730000Y69508300D02*
X6730000Y75345400D01*
X6730000Y75345400D02*
X7499000Y76114400D01*
X7499000Y76114400D02*
X27320900Y76114400D01*
X27320900Y76114400D02*
X27940000Y75495300D01*
X8241500Y39400000D02*
X9150300Y39400000D01*
X8000000Y39400000D02*
X8241500Y39400000D01*
X38001300Y25864700D02*
X40325900Y25864700D01*
X40325900Y25864700D02*
X48903400Y17287200D01*
X48903400Y17287200D02*
X68317500Y17287200D01*
X68317500Y17287200D02*
X75565000Y24534700D01*
X75565000Y26035000D02*
X75565000Y24534700D01*
X29940800Y25160700D02*
X23028100Y25160700D01*
X23028100Y25160700D02*
X22225000Y25963800D01*
X22225000Y25963800D02*
X22225000Y27423900D01*
X22225000Y27423900D02*
X10248900Y39400000D01*
X10248900Y39400000D02*
X9150300Y39400000D01*
X83185000Y9294700D02*
X81942600Y8052300D01*
X81942600Y8052300D02*
X44286700Y8052300D01*
X44286700Y8052300D02*
X44040500Y8298500D01*
X44040500Y8298500D02*
X41921900Y8298500D01*
X41921900Y8298500D02*
X41675700Y8052300D01*
X41675700Y8052300D02*
X14843400Y8052300D01*
X14843400Y8052300D02*
X6610300Y16285400D01*
X6610300Y16285400D02*
X6610300Y27182900D01*
X6610300Y27182900D02*
X5703500Y28089700D01*
X5703500Y28089700D02*
X4983500Y28089700D01*
X4983500Y28089700D02*
X4309700Y28763500D01*
X4309700Y28763500D02*
X4309700Y29716500D01*
X4309700Y29716500D02*
X4983500Y30390300D01*
X4983500Y30390300D02*
X5702100Y30390300D01*
X5702100Y30390300D02*
X6610300Y31298500D01*
X6610300Y31298500D02*
X6610300Y37387100D01*
X6610300Y37387100D02*
X5747700Y38249700D01*
X5747700Y38249700D02*
X5460000Y38249700D01*
X83185000Y10795000D02*
X83185000Y9294700D01*
X5460000Y39400000D02*
X5460000Y38249700D01*
X9166100Y37710700D02*
X9166100Y36398100D01*
X9166100Y36398100D02*
X8238300Y35470300D01*
X8238300Y35470300D02*
X8000000Y35470300D01*
X43832000Y7728700D02*
X43747200Y7813500D01*
X43747200Y7813500D02*
X42003000Y7813500D01*
X42003000Y7813500D02*
X41830500Y7641000D01*
X41830500Y7641000D02*
X12727400Y7641000D01*
X12727400Y7641000D02*
X3909400Y16459000D01*
X3909400Y16459000D02*
X3909400Y39526700D01*
X3909400Y39526700D02*
X4933100Y40550400D01*
X4933100Y40550400D02*
X5998100Y40550400D01*
X5998100Y40550400D02*
X6849600Y39698900D01*
X6849600Y39698900D02*
X6849600Y38861900D01*
X6849600Y38861900D02*
X7630800Y38080700D01*
X7630800Y38080700D02*
X8796100Y38080700D01*
X8796100Y38080700D02*
X9166100Y37710700D01*
X9166100Y37710700D02*
X10402400Y37710700D01*
X8000000Y34320000D02*
X8000000Y35470300D01*
X65405000Y10795000D02*
X65405000Y9294700D01*
X65405000Y9294700D02*
X46729400Y9294700D01*
X46729400Y9294700D02*
X46524600Y9499500D01*
X46524600Y9499500D02*
X39340400Y9499500D01*
X39340400Y9499500D02*
X39094200Y9253300D01*
X39094200Y9253300D02*
X28116000Y9253300D01*
X28116000Y9253300D02*
X27305000Y10064300D01*
X27305000Y10064300D02*
X27305000Y11561700D01*
X27305000Y11561700D02*
X22225000Y16641700D01*
X22225000Y16641700D02*
X22225000Y19101700D01*
X22225000Y19101700D02*
X21212700Y20114000D01*
X21212700Y20114000D02*
X18258500Y20114000D01*
X18258500Y20114000D02*
X10252700Y28119800D01*
X8000000Y31780000D02*
X8000000Y32930300D01*
X11174100Y35338000D02*
X8766400Y32930300D01*
X8766400Y32930300D02*
X8000000Y32930300D01*
X10293100Y29556200D02*
X10293100Y29677200D01*
X8000000Y29240000D02*
X9976900Y29240000D01*
X9976900Y29240000D02*
X10293100Y29556200D01*
X28168900Y13965600D02*
X24765000Y17369500D01*
X24765000Y17369500D02*
X24765000Y19175700D01*
X24765000Y19175700D02*
X22108400Y21832300D01*
X22108400Y21832300D02*
X18017000Y21832300D01*
X18017000Y21832300D02*
X10293100Y29556200D01*
X67945000Y10795000D02*
X67945000Y12295300D01*
X67945000Y12295300D02*
X83712100Y12295300D01*
X83712100Y12295300D02*
X84318000Y11689400D01*
X84318000Y11689400D02*
X84318000Y9746600D01*
X84318000Y9746600D02*
X81743900Y7172500D01*
X81743900Y7172500D02*
X42413700Y7172500D01*
X42413700Y7172500D02*
X42331000Y7255200D01*
X29646400Y15118600D02*
X27305000Y17460000D01*
X27305000Y17460000D02*
X27305000Y19122100D01*
X27305000Y19122100D02*
X22978200Y23448900D01*
X22978200Y23448900D02*
X17401300Y23448900D01*
X17401300Y23448900D02*
X10459800Y30390400D01*
X10459800Y30390400D02*
X7461900Y30390400D01*
X7461900Y30390400D02*
X6800200Y29728700D01*
X6800200Y29728700D02*
X6800200Y28811700D01*
X6800200Y28811700D02*
X7761600Y27850300D01*
X7761600Y27850300D02*
X8000000Y27850300D01*
X8000000Y26700000D02*
X8000000Y27850300D01*
X18610600Y49134900D02*
X17168900Y50576600D01*
X17168900Y50576600D02*
X17168900Y51539100D01*
X38789500Y14069500D02*
X38789500Y20556600D01*
X38789500Y20556600D02*
X34838600Y24507500D01*
X34838600Y24507500D02*
X34838600Y27590800D01*
X34838600Y27590800D02*
X29845000Y32584400D01*
X29845000Y32584400D02*
X29845000Y34987300D01*
X29845000Y34987300D02*
X24765000Y40067300D01*
X24765000Y40067300D02*
X24765000Y43303300D01*
X24765000Y43303300D02*
X18933400Y49134900D01*
X18933400Y49134900D02*
X18610600Y49134900D01*
X8000000Y21620000D02*
X15744300Y21620000D01*
X15744300Y21620000D02*
X24006300Y13358000D01*
X12201300Y52513900D02*
X12201300Y51727700D01*
X12201300Y51727700D02*
X16688300Y47240700D01*
X78105000Y9294700D02*
X77663200Y8852900D01*
X77663200Y8852900D02*
X44618300Y8852900D01*
X44618300Y8852900D02*
X44372100Y9099100D01*
X44372100Y9099100D02*
X41590300Y9099100D01*
X41590300Y9099100D02*
X41344100Y8852900D01*
X41344100Y8852900D02*
X26002400Y8852900D01*
X26002400Y8852900D02*
X24906600Y9948700D01*
X24906600Y9948700D02*
X24906600Y11366100D01*
X24906600Y11366100D02*
X17192700Y19080000D01*
X17192700Y19080000D02*
X9150300Y19080000D01*
X8000000Y19080000D02*
X9150300Y19080000D01*
X78105000Y10795000D02*
X78105000Y9294700D01*
X80645000Y9294700D02*
X79802900Y8452600D01*
X79802900Y8452600D02*
X44452500Y8452600D01*
X44452500Y8452600D02*
X44206300Y8698800D01*
X44206300Y8698800D02*
X41756100Y8698800D01*
X41756100Y8698800D02*
X41509900Y8452600D01*
X41509900Y8452600D02*
X17237700Y8452600D01*
X17237700Y8452600D02*
X9150300Y16540000D01*
X80645000Y10795000D02*
X80645000Y9294700D01*
X8000000Y16540000D02*
X9150300Y16540000D01*
X64770000Y32385000D02*
X65870300Y32385000D01*
X65870300Y32385000D02*
X65870300Y33167700D01*
X65870300Y33167700D02*
X67310000Y34607400D01*
X67310000Y34607400D02*
X67310000Y37279700D01*
X67310000Y37279700D02*
X74960500Y44930200D01*
X84455000Y68580000D02*
X83304700Y68580000D01*
X70147400Y62919500D02*
X77882500Y62919500D01*
X77882500Y62919500D02*
X83304700Y68341700D01*
X83304700Y68341700D02*
X83304700Y68580000D01*
D19*
X10160000Y85725000D02*
X20320000Y95885000D01*
X20320000Y95885000D02*
X36830000Y95885000D01*
X23495000Y85090000D02*
X31115000Y85090000D01*
X31115000Y85090000D02*
X41910000Y95885000D01*
D20*
X49372500Y88927000D02*
X48260000Y87814500D01*
X48260000Y87814500D02*
X48260000Y73995000D01*
X90805000Y26035000D02*
X90805000Y27535300D01*
X77470000Y32385000D02*
X78570300Y32385000D01*
X78570300Y32385000D02*
X78570300Y32247300D01*
X78570300Y32247300D02*
X79532900Y31284700D01*
X79532900Y31284700D02*
X87055600Y31284700D01*
X87055600Y31284700D02*
X90805000Y27535300D01*
X88265000Y26035000D02*
X88265000Y27535300D01*
X74930000Y32385000D02*
X76030300Y32385000D01*
X76030300Y32385000D02*
X76030300Y32247500D01*
X76030300Y32247500D02*
X79977600Y28300200D01*
X79977600Y28300200D02*
X87500100Y28300200D01*
X87500100Y28300200D02*
X88265000Y27535300D01*
X57785000Y26035000D02*
X57785000Y27535300D01*
X72390000Y32385000D02*
X71289700Y32385000D01*
X71289700Y32385000D02*
X71289700Y32247300D01*
X71289700Y32247300D02*
X66577700Y27535300D01*
X66577700Y27535300D02*
X57785000Y27535300D01*
X36195000Y35790300D02*
X33320100Y35790300D01*
X33320100Y35790300D02*
X27305000Y41805400D01*
X27305000Y41805400D02*
X27305000Y43257300D01*
X27305000Y43257300D02*
X23172300Y47390000D01*
X23172300Y47390000D02*
X21686600Y47390000D01*
X21686600Y47390000D02*
X17719200Y51357400D01*
X17719200Y51357400D02*
X17719200Y51767100D01*
X17719200Y51767100D02*
X11075500Y58410800D01*
X11075500Y58410800D02*
X7407200Y58410800D01*
X7407200Y58410800D02*
X6730000Y59088000D01*
X36195000Y34290000D02*
X36195000Y35790300D01*
X5460000Y64800000D02*
X5460000Y63649700D01*
X33655000Y26670000D02*
X33655000Y28170300D01*
X33655000Y28170300D02*
X32673700Y28170300D01*
X32673700Y28170300D02*
X27305000Y33539000D01*
X27305000Y33539000D02*
X27305000Y34978900D01*
X27305000Y34978900D02*
X21391100Y40892800D01*
X21391100Y40892800D02*
X20611100Y40892800D01*
X20611100Y40892800D02*
X19723900Y41780000D01*
X19723900Y41780000D02*
X19723900Y43191500D01*
X19723900Y43191500D02*
X9213200Y53702200D01*
X9213200Y53702200D02*
X9213200Y55086800D01*
X9213200Y55086800D02*
X8270400Y56029600D01*
X8270400Y56029600D02*
X7461900Y56029600D01*
X7461900Y56029600D02*
X6709200Y56782300D01*
X6709200Y56782300D02*
X6709200Y57608800D01*
X6709200Y57608800D02*
X5868000Y58450000D01*
X5868000Y58450000D02*
X5099700Y58450000D01*
X5099700Y58450000D02*
X4303900Y59245800D01*
X4303900Y59245800D02*
X4303900Y62732000D01*
X4303900Y62732000D02*
X5221600Y63649700D01*
X5221600Y63649700D02*
X5460000Y63649700D01*
X85725000Y26035000D02*
X85725000Y27535300D01*
X85725000Y27535300D02*
X78219300Y27535300D01*
X78219300Y27535300D02*
X73786100Y31968500D01*
X73786100Y31968500D02*
X73786100Y40429800D01*
X73786100Y40429800D02*
X78587000Y45230700D01*
X78587000Y45230700D02*
X78587000Y48101500D01*
X78587000Y48101500D02*
X75493200Y51195300D01*
X75493200Y51195300D02*
X55755200Y51195300D01*
X55755200Y51195300D02*
X49714500Y57236000D01*
X35560000Y57254700D02*
X17061700Y57254700D01*
X17061700Y57254700D02*
X13416300Y60900100D01*
X13416300Y60900100D02*
X7552000Y60900100D01*
X7552000Y60900100D02*
X6610300Y59958400D01*
X6610300Y59958400D02*
X6610300Y59720000D01*
X5460000Y59720000D02*
X6610300Y59720000D01*
X35560000Y58755000D02*
X35560000Y57254700D01*
X45720000Y73995000D02*
X45720000Y72494700D01*
X12750400Y67565400D02*
X12805700Y67510100D01*
X12805700Y67510100D02*
X40735400Y67510100D01*
X40735400Y67510100D02*
X45720000Y72494700D01*
X17687400Y48218500D02*
X9150300Y56755600D01*
X9150300Y56755600D02*
X9150300Y57180000D01*
X8000000Y57180000D02*
X9150300Y57180000D01*
X62245800Y23157300D02*
X62245800Y22481800D01*
X62245800Y22481800D02*
X57829800Y18065800D01*
X61209500Y23784500D02*
X61209500Y22683800D01*
X61209500Y22683800D02*
X56720300Y18194600D01*
X64770000Y47625000D02*
X64770000Y46524700D01*
X64770000Y46524700D02*
X46473400Y28228100D01*
X46473400Y28228100D02*
X46473400Y20514900D01*
X46473400Y20514900D02*
X48848100Y18140200D01*
X51911200Y17920700D02*
X56515000Y22524500D01*
X56515000Y22524500D02*
X56515000Y30779000D01*
X56515000Y30779000D02*
X62926600Y37190600D01*
X62926600Y37190600D02*
X63020700Y37190600D01*
X69850000Y47625000D02*
X69567400Y47625000D01*
X69567400Y47625000D02*
X49064600Y27122200D01*
X49064600Y27122200D02*
X49064600Y19085400D01*
X49064600Y19085400D02*
X50261200Y17888800D01*
X47625000Y26035000D02*
X47625000Y27535300D01*
X72390000Y47625000D02*
X71289700Y47625000D01*
X71289700Y47625000D02*
X71289700Y47762500D01*
X71289700Y47762500D02*
X70312000Y48740200D01*
X70312000Y48740200D02*
X69401500Y48740200D01*
X69401500Y48740200D02*
X68580000Y47918700D01*
X68580000Y47918700D02*
X68580000Y47338300D01*
X68580000Y47338300D02*
X48777000Y27535300D01*
X48777000Y27535300D02*
X47625000Y27535300D01*
X50165000Y26035000D02*
X50165000Y27535300D01*
X74930000Y47625000D02*
X73829700Y47625000D01*
X73829700Y47625000D02*
X73829700Y47487300D01*
X73829700Y47487300D02*
X72867100Y46524700D01*
X72867100Y46524700D02*
X69154400Y46524700D01*
X69154400Y46524700D02*
X50165000Y27535300D01*
X52705000Y27535300D02*
X52705000Y27653100D01*
X52705000Y27653100D02*
X62792800Y37740900D01*
X62792800Y37740900D02*
X66623300Y37740900D01*
X66623300Y37740900D02*
X76369700Y47487300D01*
X76369700Y47487300D02*
X76369700Y47625000D01*
X52705000Y26035000D02*
X52705000Y27535300D01*
X77470000Y47625000D02*
X76369700Y47625000D01*
X26035000Y50165000D02*
X26035000Y48664700D01*
X26035000Y48664700D02*
X28836900Y45862800D01*
X28836900Y45862800D02*
X28836900Y45845900D01*
X31115000Y26670000D02*
X31115000Y25169700D01*
X28575000Y10795000D02*
X28575000Y12295300D01*
X28575000Y12295300D02*
X30196700Y13917000D01*
X30196700Y13917000D02*
X30196700Y15501200D01*
X30196700Y15501200D02*
X30011000Y15686900D01*
X30011000Y15686900D02*
X30011000Y24065700D01*
X30011000Y24065700D02*
X31115000Y25169700D01*
D21*
X99373000Y627000D02*
X627000Y627000D01*
X627000Y5204567D01*
X2923000Y5204567D01*
X2923000Y4795433D01*
X3002818Y4394161D01*
X3159386Y4016171D01*
X3386689Y3675989D01*
X3675989Y3386689D01*
X4016171Y3159386D01*
X4394161Y3002818D01*
X4795433Y2923000D01*
X5204567Y2923000D01*
X5605839Y3002818D01*
X5983829Y3159386D01*
X6324011Y3386689D01*
X6613311Y3675989D01*
X6840614Y4016171D01*
X6997182Y4394161D01*
X7077000Y4795433D01*
X7077000Y5204567D01*
X92923000Y5204567D01*
X92923000Y4795433D01*
X93002818Y4394161D01*
X93159386Y4016171D01*
X93386689Y3675989D01*
X93675989Y3386689D01*
X94016171Y3159386D01*
X94394161Y3002818D01*
X94795433Y2923000D01*
X95204567Y2923000D01*
X95605839Y3002818D01*
X95983829Y3159386D01*
X96324011Y3386689D01*
X96613311Y3675989D01*
X96840614Y4016171D01*
X96997182Y4394161D01*
X97077000Y4795433D01*
X97077000Y5204567D01*
X96997182Y5605839D01*
X96840614Y5983829D01*
X96613311Y6324011D01*
X96324011Y6613311D01*
X95983829Y6840614D01*
X95605839Y6997182D01*
X95204567Y7077000D01*
X94795433Y7077000D01*
X94394161Y6997182D01*
X94016171Y6840614D01*
X93675989Y6613311D01*
X93386689Y6324011D01*
X93159386Y5983829D01*
X93002818Y5605839D01*
X92923000Y5204567D01*
X7077000Y5204567D01*
X6997182Y5605839D01*
X6840614Y5983829D01*
X6613311Y6324011D01*
X6324011Y6613311D01*
X5983829Y6840614D01*
X5605839Y6997182D01*
X5204567Y7077000D01*
X4795433Y7077000D01*
X4394161Y6997182D01*
X4016171Y6840614D01*
X3675989Y6613311D01*
X3386689Y6324011D01*
X3159386Y5983829D01*
X3002818Y5605839D01*
X2923000Y5204567D01*
X627000Y5204567D01*
X627000Y66433600D01*
X2296610Y66433600D01*
X2299401Y66405259D01*
X2299400Y45455931D01*
X2296610Y45427600D01*
X2299400Y45399269D01*
X2299400Y45399265D01*
X2300547Y45387621D01*
X2307749Y45314489D01*
X2317847Y45281202D01*
X2340743Y45205725D01*
X2394321Y45105486D01*
X2466426Y45017626D01*
X2488438Y44999561D01*
X4565669Y42922330D01*
X4429252Y42785913D01*
X4284028Y42568570D01*
X4183996Y42327072D01*
X4133000Y42070698D01*
X4133000Y41809302D01*
X4183996Y41552928D01*
X4284028Y41311430D01*
X4429252Y41094087D01*
X4545007Y40978332D01*
X4523126Y40960374D01*
X4505061Y40938362D01*
X3521434Y39954735D01*
X3499427Y39936674D01*
X3481366Y39914667D01*
X3481363Y39914664D01*
X3464523Y39894144D01*
X3427322Y39848815D01*
X3394797Y39787964D01*
X3373744Y39748576D01*
X3340749Y39639811D01*
X3329610Y39526700D01*
X3332401Y39498359D01*
X3332400Y16487331D01*
X3329610Y16459000D01*
X3340749Y16345889D01*
X3348729Y16319585D01*
X3373743Y16237125D01*
X3427321Y16136886D01*
X3499426Y16049026D01*
X3521438Y16030961D01*
X12299365Y7253033D01*
X12317426Y7231026D01*
X12339433Y7212965D01*
X12339435Y7212963D01*
X12359380Y7196595D01*
X12405285Y7158921D01*
X12505524Y7105343D01*
X12614288Y7072350D01*
X12699064Y7064000D01*
X12699070Y7064000D01*
X12727399Y7061210D01*
X12755728Y7064000D01*
X41627789Y7064000D01*
X41631938Y7043142D01*
X41686741Y6910836D01*
X41766302Y6791764D01*
X41867564Y6690502D01*
X41986636Y6610941D01*
X42118942Y6556138D01*
X42259397Y6528200D01*
X42402603Y6528200D01*
X42543058Y6556138D01*
X42638086Y6595500D01*
X81715569Y6595500D01*
X81743900Y6592710D01*
X81772231Y6595500D01*
X81772236Y6595500D01*
X81801945Y6598426D01*
X81857011Y6603849D01*
X81901670Y6617397D01*
X81965776Y6636843D01*
X82066015Y6690421D01*
X82153874Y6762526D01*
X82171939Y6784538D01*
X84705967Y9318565D01*
X84727974Y9336626D01*
X84752419Y9366411D01*
X84770593Y9388557D01*
X84800079Y9424485D01*
X84828908Y9478422D01*
X85012104Y9328076D01*
X85233949Y9209498D01*
X85474664Y9136478D01*
X85725000Y9111822D01*
X85975335Y9136478D01*
X86216050Y9209498D01*
X86437895Y9328076D01*
X86632344Y9487656D01*
X86791924Y9682104D01*
X86910502Y9903949D01*
X86983522Y10144664D01*
X86995000Y10261202D01*
X87006478Y10144665D01*
X87079498Y9903950D01*
X87198076Y9682105D01*
X87357656Y9487656D01*
X87552104Y9328076D01*
X87773949Y9209498D01*
X88014664Y9136478D01*
X88265000Y9111822D01*
X88515335Y9136478D01*
X88756050Y9209498D01*
X88977895Y9328076D01*
X89172344Y9487656D01*
X89331924Y9682104D01*
X89450502Y9903949D01*
X89523522Y10144664D01*
X89535000Y10261202D01*
X89546478Y10144665D01*
X89619498Y9903950D01*
X89738076Y9682105D01*
X89897656Y9487656D01*
X90092104Y9328076D01*
X90313949Y9209498D01*
X90554664Y9136478D01*
X90805000Y9111822D01*
X91055335Y9136478D01*
X91296050Y9209498D01*
X91517895Y9328076D01*
X91712344Y9487656D01*
X91871924Y9682104D01*
X91990502Y9903949D01*
X92063522Y10144664D01*
X92075000Y10261202D01*
X92086478Y10144665D01*
X92159498Y9903950D01*
X92278076Y9682105D01*
X92437656Y9487656D01*
X92632104Y9328076D01*
X92853949Y9209498D01*
X93094664Y9136478D01*
X93345000Y9111822D01*
X93595335Y9136478D01*
X93836050Y9209498D01*
X94057895Y9328076D01*
X94252344Y9487656D01*
X94411924Y9682104D01*
X94530502Y9903949D01*
X94603522Y10144664D01*
X94615000Y10261202D01*
X94626478Y10144665D01*
X94699498Y9903950D01*
X94818076Y9682105D01*
X94977656Y9487656D01*
X95172104Y9328076D01*
X95393949Y9209498D01*
X95634664Y9136478D01*
X95885000Y9111822D01*
X96135335Y9136478D01*
X96376050Y9209498D01*
X96597895Y9328076D01*
X96792344Y9487656D01*
X96951924Y9682104D01*
X97070502Y9903949D01*
X97143522Y10144664D01*
X97162000Y10332274D01*
X97162000Y11257725D01*
X97143522Y11445336D01*
X97070502Y11686051D01*
X96951924Y11907896D01*
X96792344Y12102344D01*
X96597896Y12261924D01*
X96376051Y12380502D01*
X96135336Y12453522D01*
X95885000Y12478178D01*
X95634665Y12453522D01*
X95393950Y12380502D01*
X95172105Y12261924D01*
X94977657Y12102344D01*
X94818076Y11907896D01*
X94699498Y11686051D01*
X94626478Y11445336D01*
X94615000Y11328798D01*
X94603522Y11445336D01*
X94530502Y11686051D01*
X94411924Y11907896D01*
X94252344Y12102344D01*
X94057896Y12261924D01*
X93836051Y12380502D01*
X93595336Y12453522D01*
X93345000Y12478178D01*
X93094665Y12453522D01*
X92853950Y12380502D01*
X92632105Y12261924D01*
X92437657Y12102344D01*
X92278076Y11907896D01*
X92159498Y11686051D01*
X92086478Y11445336D01*
X92075000Y11328798D01*
X92063522Y11445336D01*
X91990502Y11686051D01*
X91871924Y11907896D01*
X91712344Y12102344D01*
X91517896Y12261924D01*
X91296051Y12380502D01*
X91055336Y12453522D01*
X90805000Y12478178D01*
X90554665Y12453522D01*
X90313950Y12380502D01*
X90092105Y12261924D01*
X89897657Y12102344D01*
X89738076Y11907896D01*
X89619498Y11686051D01*
X89546478Y11445336D01*
X89535000Y11328798D01*
X89523522Y11445336D01*
X89450502Y11686051D01*
X89331924Y11907896D01*
X89172344Y12102344D01*
X88977896Y12261924D01*
X88756051Y12380502D01*
X88515336Y12453522D01*
X88265000Y12478178D01*
X88014665Y12453522D01*
X87773950Y12380502D01*
X87552105Y12261924D01*
X87357657Y12102344D01*
X87198076Y11907896D01*
X87079498Y11686051D01*
X87006478Y11445336D01*
X86995000Y11328798D01*
X86983522Y11445336D01*
X86910502Y11686051D01*
X86791924Y11907896D01*
X86632344Y12102344D01*
X86437896Y12261924D01*
X86216051Y12380502D01*
X85975336Y12453522D01*
X85725000Y12478178D01*
X85474665Y12453522D01*
X85233950Y12380502D01*
X85012105Y12261924D01*
X84817657Y12102344D01*
X84771597Y12046220D01*
X84727974Y12099374D01*
X84705968Y12117434D01*
X84140137Y12683264D01*
X84122074Y12705274D01*
X84034215Y12777379D01*
X83933976Y12830957D01*
X83869870Y12850403D01*
X83825211Y12863951D01*
X83770145Y12869374D01*
X83740436Y12872300D01*
X83740431Y12872300D01*
X83712100Y12875090D01*
X83683769Y12872300D01*
X67973336Y12872300D01*
X67945000Y12875091D01*
X67916664Y12872300D01*
X67831888Y12863950D01*
X67723124Y12830957D01*
X67622885Y12777379D01*
X67535026Y12705274D01*
X67462921Y12617415D01*
X67409343Y12517176D01*
X67376350Y12408412D01*
X67369136Y12335168D01*
X67232105Y12261924D01*
X67037657Y12102344D01*
X66878076Y11907896D01*
X66759498Y11686051D01*
X66686478Y11445336D01*
X66675000Y11328798D01*
X66663522Y11445336D01*
X66590502Y11686051D01*
X66471924Y11907896D01*
X66312344Y12102344D01*
X66117896Y12261924D01*
X65896051Y12380502D01*
X65655336Y12453522D01*
X65405000Y12478178D01*
X65154665Y12453522D01*
X64913950Y12380502D01*
X64692105Y12261924D01*
X64497657Y12102344D01*
X64338076Y11907896D01*
X64219498Y11686051D01*
X64146478Y11445336D01*
X64135000Y11328798D01*
X64123522Y11445336D01*
X64050502Y11686051D01*
X63931924Y11907896D01*
X63772344Y12102344D01*
X63577896Y12261924D01*
X63356051Y12380502D01*
X63115336Y12453522D01*
X62865000Y12478178D01*
X62614665Y12453522D01*
X62373950Y12380502D01*
X62152105Y12261924D01*
X61957657Y12102344D01*
X61798076Y11907896D01*
X61679498Y11686051D01*
X61606478Y11445336D01*
X61595000Y11328798D01*
X61583522Y11445336D01*
X61510502Y11686051D01*
X61391924Y11907896D01*
X61232344Y12102344D01*
X61037896Y12261924D01*
X60816051Y12380502D01*
X60575336Y12453522D01*
X60325000Y12478178D01*
X60074665Y12453522D01*
X59833950Y12380502D01*
X59744652Y12332771D01*
X55367222Y16710200D01*
X68289169Y16710200D01*
X68317500Y16707410D01*
X68345831Y16710200D01*
X68345836Y16710200D01*
X68378701Y16713437D01*
X68430611Y16718549D01*
X68487125Y16735693D01*
X68539376Y16751543D01*
X68639615Y16805121D01*
X68727474Y16877226D01*
X68745539Y16899238D01*
X75952962Y24106661D01*
X75974974Y24124726D01*
X76047079Y24212585D01*
X76100657Y24312824D01*
X76123405Y24387814D01*
X76133651Y24421588D01*
X76140864Y24494832D01*
X76277895Y24568076D01*
X76472344Y24727656D01*
X76631924Y24922104D01*
X76750502Y25143949D01*
X76823522Y25384664D01*
X76835000Y25501202D01*
X76846478Y25384665D01*
X76919498Y25143950D01*
X77038076Y24922105D01*
X77197656Y24727656D01*
X77392104Y24568076D01*
X77613949Y24449498D01*
X77854664Y24376478D01*
X78105000Y24351822D01*
X78355335Y24376478D01*
X78596050Y24449498D01*
X78817895Y24568076D01*
X79012344Y24727656D01*
X79171924Y24922104D01*
X79290502Y25143949D01*
X79293378Y25153429D01*
X79367834Y24968517D01*
X79522399Y24732161D01*
X79720105Y24530500D01*
X79953354Y24371285D01*
X80213182Y24260633D01*
X80295961Y24243096D01*
X80518000Y24365085D01*
X80518000Y25908000D01*
X80498000Y25908000D01*
X80498000Y26162000D01*
X80518000Y26162000D01*
X80518000Y26182000D01*
X80772000Y26182000D01*
X80772000Y26162000D01*
X80792000Y26162000D01*
X80792000Y25908000D01*
X80772000Y25908000D01*
X80772000Y24365085D01*
X80994039Y24243096D01*
X81076818Y24260633D01*
X81336646Y24371285D01*
X81569895Y24530500D01*
X81767601Y24732161D01*
X81922166Y24968517D01*
X81996622Y25153429D01*
X81999498Y25143950D01*
X82118076Y24922105D01*
X82277656Y24727656D01*
X82472104Y24568076D01*
X82693949Y24449498D01*
X82934664Y24376478D01*
X83185000Y24351822D01*
X83435335Y24376478D01*
X83676050Y24449498D01*
X83897895Y24568076D01*
X84092344Y24727656D01*
X84251924Y24922104D01*
X84370502Y25143949D01*
X84443522Y25384664D01*
X84455000Y25501202D01*
X84466478Y25384665D01*
X84539498Y25143950D01*
X84658076Y24922105D01*
X84817656Y24727656D01*
X85012104Y24568076D01*
X85233949Y24449498D01*
X85474664Y24376478D01*
X85725000Y24351822D01*
X85975335Y24376478D01*
X86216050Y24449498D01*
X86437895Y24568076D01*
X86632344Y24727656D01*
X86791924Y24922104D01*
X86910502Y25143949D01*
X86983522Y25384664D01*
X86995000Y25501202D01*
X87006478Y25384665D01*
X87079498Y25143950D01*
X87198076Y24922105D01*
X87357656Y24727656D01*
X87552104Y24568076D01*
X87773949Y24449498D01*
X88014664Y24376478D01*
X88265000Y24351822D01*
X88515335Y24376478D01*
X88756050Y24449498D01*
X88977895Y24568076D01*
X89172344Y24727656D01*
X89331924Y24922104D01*
X89450502Y25143949D01*
X89523522Y25384664D01*
X89535000Y25501202D01*
X89546478Y25384665D01*
X89619498Y25143950D01*
X89738076Y24922105D01*
X89897656Y24727656D01*
X90092104Y24568076D01*
X90313949Y24449498D01*
X90554664Y24376478D01*
X90805000Y24351822D01*
X91055335Y24376478D01*
X91296050Y24449498D01*
X91517895Y24568076D01*
X91712344Y24727656D01*
X91871924Y24922104D01*
X91990502Y25143949D01*
X92063522Y25384664D01*
X92075000Y25501202D01*
X92086478Y25384665D01*
X92159498Y25143950D01*
X92278076Y24922105D01*
X92437656Y24727656D01*
X92632104Y24568076D01*
X92853949Y24449498D01*
X93094664Y24376478D01*
X93345000Y24351822D01*
X93595335Y24376478D01*
X93836050Y24449498D01*
X94057895Y24568076D01*
X94252344Y24727656D01*
X94411924Y24922104D01*
X94530502Y25143949D01*
X94603522Y25384664D01*
X94605693Y25406706D01*
X94605693Y24835000D01*
X94614903Y24741492D01*
X94642178Y24651577D01*
X94686471Y24568711D01*
X94746079Y24496079D01*
X94818711Y24436471D01*
X94901577Y24392178D01*
X94991492Y24364903D01*
X95085000Y24355693D01*
X96685000Y24355693D01*
X96778508Y24364903D01*
X96868423Y24392178D01*
X96951289Y24436471D01*
X97023921Y24496079D01*
X97083529Y24568711D01*
X97127822Y24651577D01*
X97155097Y24741492D01*
X97164307Y24835000D01*
X97164307Y27235000D01*
X97155097Y27328508D01*
X97127822Y27418423D01*
X97083529Y27501289D01*
X97023921Y27573921D01*
X96951289Y27633529D01*
X96868423Y27677822D01*
X96778508Y27705097D01*
X96685000Y27714307D01*
X95085000Y27714307D01*
X94991492Y27705097D01*
X94901577Y27677822D01*
X94818711Y27633529D01*
X94746079Y27573921D01*
X94686471Y27501289D01*
X94642178Y27418423D01*
X94614903Y27328508D01*
X94605693Y27235000D01*
X94605693Y26663293D01*
X94603522Y26685336D01*
X94530502Y26926051D01*
X94411924Y27147896D01*
X94252344Y27342344D01*
X94057896Y27501924D01*
X93836051Y27620502D01*
X93595336Y27693522D01*
X93345000Y27718178D01*
X93094665Y27693522D01*
X92853950Y27620502D01*
X92632105Y27501924D01*
X92437657Y27342344D01*
X92278076Y27147896D01*
X92159498Y26926051D01*
X92086478Y26685336D01*
X92075000Y26568798D01*
X92063522Y26685336D01*
X91990502Y26926051D01*
X91871924Y27147896D01*
X91712344Y27342344D01*
X91517896Y27501924D01*
X91380864Y27575169D01*
X91373650Y27648412D01*
X91340657Y27757176D01*
X91287079Y27857415D01*
X91214974Y27945274D01*
X91192962Y27963339D01*
X87999768Y31156533D01*
X88002487Y31157074D01*
X88234886Y31253337D01*
X88444040Y31393089D01*
X88621911Y31570960D01*
X88761663Y31780114D01*
X88857926Y32012513D01*
X88907000Y32259226D01*
X88907000Y32510774D01*
X88857926Y32757487D01*
X88761663Y32989886D01*
X88621911Y33199040D01*
X88444040Y33376911D01*
X88234886Y33516663D01*
X88002487Y33612926D01*
X87755774Y33662000D01*
X87504226Y33662000D01*
X87257513Y33612926D01*
X87025114Y33516663D01*
X86815960Y33376911D01*
X86638089Y33199040D01*
X86498337Y32989886D01*
X86440389Y32849987D01*
X86387070Y32998881D01*
X86242385Y33240131D01*
X86053414Y33448519D01*
X85827420Y33616037D01*
X85573087Y33736246D01*
X85439039Y33776904D01*
X85217000Y33654915D01*
X85217000Y32512000D01*
X85237000Y32512000D01*
X85237000Y32258000D01*
X85217000Y32258000D01*
X85217000Y32238000D01*
X84963000Y32238000D01*
X84963000Y32258000D01*
X84943000Y32258000D01*
X84943000Y32512000D01*
X84963000Y32512000D01*
X84963000Y33654915D01*
X84740961Y33776904D01*
X84606913Y33736246D01*
X84352580Y33616037D01*
X84126586Y33448519D01*
X83937615Y33240131D01*
X83792930Y32998881D01*
X83739611Y32849987D01*
X83681663Y32989886D01*
X83541911Y33199040D01*
X83364040Y33376911D01*
X83154886Y33516663D01*
X82922487Y33612926D01*
X82675774Y33662000D01*
X82424226Y33662000D01*
X82177513Y33612926D01*
X81945554Y33516845D01*
X81947204Y33522285D01*
X81957000Y33621748D01*
X81957000Y33621757D01*
X81960274Y33654999D01*
X81957000Y33688241D01*
X81957000Y46488414D01*
X82177513Y46397074D01*
X82424226Y46348000D01*
X82675774Y46348000D01*
X82922487Y46397074D01*
X83154886Y46493337D01*
X83364040Y46633089D01*
X83541911Y46810960D01*
X83681663Y47020114D01*
X83777926Y47252513D01*
X83820000Y47464034D01*
X83862074Y47252513D01*
X83958337Y47020114D01*
X84098089Y46810960D01*
X84275960Y46633089D01*
X84485114Y46493337D01*
X84717513Y46397074D01*
X84964226Y46348000D01*
X85215774Y46348000D01*
X85462487Y46397074D01*
X85694886Y46493337D01*
X85904040Y46633089D01*
X86081911Y46810960D01*
X86221663Y47020114D01*
X86317926Y47252513D01*
X86350693Y47417245D01*
X86350693Y46825000D01*
X86359903Y46731492D01*
X86387178Y46641577D01*
X86431471Y46558711D01*
X86491079Y46486079D01*
X86563711Y46426471D01*
X86646577Y46382178D01*
X86736492Y46354903D01*
X86830000Y46345693D01*
X88430000Y46345693D01*
X88523508Y46354903D01*
X88613423Y46382178D01*
X88696289Y46426471D01*
X88768921Y46486079D01*
X88828529Y46558711D01*
X88872822Y46641577D01*
X88900097Y46731492D01*
X88909307Y46825000D01*
X88909307Y48425000D01*
X88900097Y48518508D01*
X88872822Y48608423D01*
X88828529Y48691289D01*
X88768921Y48763921D01*
X88696289Y48823529D01*
X88613423Y48867822D01*
X88523508Y48895097D01*
X88430000Y48904307D01*
X86830000Y48904307D01*
X86736492Y48895097D01*
X86646577Y48867822D01*
X86563711Y48823529D01*
X86491079Y48763921D01*
X86431471Y48691289D01*
X86387178Y48608423D01*
X86359903Y48518508D01*
X86350693Y48425000D01*
X86350693Y47832755D01*
X86317926Y47997487D01*
X86221663Y48229886D01*
X86081911Y48439040D01*
X85904040Y48616911D01*
X85694886Y48756663D01*
X85462487Y48852926D01*
X85215774Y48902000D01*
X84964226Y48902000D01*
X84717513Y48852926D01*
X84485114Y48756663D01*
X84275960Y48616911D01*
X84098089Y48439040D01*
X83958337Y48229886D01*
X83862074Y47997487D01*
X83820000Y47785966D01*
X83777926Y47997487D01*
X83681663Y48229886D01*
X83541911Y48439040D01*
X83364040Y48616911D01*
X83154886Y48756663D01*
X82922487Y48852926D01*
X82675774Y48902000D01*
X82424226Y48902000D01*
X82177513Y48852926D01*
X81957000Y48761586D01*
X81957000Y50637758D01*
X81960274Y50671003D01*
X81957000Y50704248D01*
X81957000Y50704254D01*
X81947204Y50803717D01*
X81908492Y50931332D01*
X81845628Y51048943D01*
X81828961Y51069252D01*
X81782224Y51126201D01*
X81782218Y51126207D01*
X81761026Y51152029D01*
X81735206Y51173219D01*
X70985226Y61923198D01*
X70964029Y61949027D01*
X70860943Y62033628D01*
X70743332Y62096492D01*
X70615717Y62135204D01*
X70516254Y62145000D01*
X70516247Y62145000D01*
X70483002Y62148274D01*
X70449757Y62145000D01*
X67987000Y62145000D01*
X67987000Y62991103D01*
X69420400Y62991103D01*
X69420400Y62847897D01*
X69448338Y62707442D01*
X69503141Y62575136D01*
X69582702Y62456064D01*
X69683964Y62354802D01*
X69803036Y62275241D01*
X69935342Y62220438D01*
X70075797Y62192500D01*
X70219003Y62192500D01*
X70359458Y62220438D01*
X70491764Y62275241D01*
X70592425Y62342500D01*
X77854169Y62342500D01*
X77882500Y62339710D01*
X77910831Y62342500D01*
X77910836Y62342500D01*
X77940545Y62345426D01*
X77995611Y62350849D01*
X78040270Y62364397D01*
X78104376Y62383843D01*
X78204615Y62437421D01*
X78292474Y62509526D01*
X78310539Y62531538D01*
X83468670Y67689669D01*
X83609087Y67549252D01*
X83826430Y67404028D01*
X84067928Y67303996D01*
X84324302Y67253000D01*
X84585698Y67253000D01*
X84842072Y67303996D01*
X85083570Y67404028D01*
X85300913Y67549252D01*
X85485748Y67734087D01*
X85630972Y67951430D01*
X85725000Y68178433D01*
X85819028Y67951430D01*
X85964252Y67734087D01*
X86149087Y67549252D01*
X86366430Y67404028D01*
X86607928Y67303996D01*
X86864302Y67253000D01*
X87125698Y67253000D01*
X87382072Y67303996D01*
X87623570Y67404028D01*
X87840913Y67549252D01*
X88025748Y67734087D01*
X88170972Y67951430D01*
X88271004Y68192928D01*
X88322000Y68449302D01*
X88322000Y68710698D01*
X88271004Y68967072D01*
X88170972Y69208570D01*
X88025748Y69425913D01*
X87840913Y69610748D01*
X87623570Y69755972D01*
X87382072Y69856004D01*
X87125698Y69907000D01*
X86864302Y69907000D01*
X86607928Y69856004D01*
X86366430Y69755972D01*
X86149087Y69610748D01*
X85964252Y69425913D01*
X85819028Y69208570D01*
X85725000Y68981567D01*
X85630972Y69208570D01*
X85485748Y69425913D01*
X85300913Y69610748D01*
X85083570Y69755972D01*
X84842072Y69856004D01*
X84585698Y69907000D01*
X84324302Y69907000D01*
X84067928Y69856004D01*
X83826430Y69755972D01*
X83609087Y69610748D01*
X83424252Y69425913D01*
X83279028Y69208570D01*
X83256872Y69155080D01*
X83191588Y69148650D01*
X83124252Y69128224D01*
X83090972Y69208570D01*
X82945748Y69425913D01*
X82760913Y69610748D01*
X82543570Y69755972D01*
X82302072Y69856004D01*
X82045698Y69907000D01*
X81784302Y69907000D01*
X81527928Y69856004D01*
X81286430Y69755972D01*
X81069087Y69610748D01*
X80884252Y69425913D01*
X80739028Y69208570D01*
X80645000Y68981567D01*
X80550972Y69208570D01*
X80405748Y69425913D01*
X80220913Y69610748D01*
X80003570Y69755972D01*
X79762072Y69856004D01*
X79505698Y69907000D01*
X79244302Y69907000D01*
X78987928Y69856004D01*
X78746430Y69755972D01*
X78529087Y69610748D01*
X78344252Y69425913D01*
X78199028Y69208570D01*
X78105000Y68981567D01*
X78010972Y69208570D01*
X77865748Y69425913D01*
X77680913Y69610748D01*
X77463570Y69755972D01*
X77222072Y69856004D01*
X76965698Y69907000D01*
X76704302Y69907000D01*
X76447928Y69856004D01*
X76206430Y69755972D01*
X75989087Y69610748D01*
X75804252Y69425913D01*
X75659028Y69208570D01*
X75648836Y69183965D01*
X75639157Y69211252D01*
X75490178Y69461355D01*
X75295269Y69677588D01*
X75061920Y69851641D01*
X74799099Y69976825D01*
X74651890Y70021476D01*
X74422000Y69900155D01*
X74422000Y68707000D01*
X74442000Y68707000D01*
X74442000Y68453000D01*
X74422000Y68453000D01*
X74422000Y67259845D01*
X74651890Y67138524D01*
X74799099Y67183175D01*
X75061920Y67308359D01*
X75295269Y67482412D01*
X75490178Y67698645D01*
X75639157Y67948748D01*
X75648836Y67976035D01*
X75659028Y67951430D01*
X75804252Y67734087D01*
X75989087Y67549252D01*
X76206430Y67404028D01*
X76447928Y67303996D01*
X76704302Y67253000D01*
X76965698Y67253000D01*
X77222072Y67303996D01*
X77463570Y67404028D01*
X77680913Y67549252D01*
X77865748Y67734087D01*
X78010972Y67951430D01*
X78105000Y68178433D01*
X78199028Y67951430D01*
X78344252Y67734087D01*
X78529087Y67549252D01*
X78746430Y67404028D01*
X78987928Y67303996D01*
X79244302Y67253000D01*
X79505698Y67253000D01*
X79762072Y67303996D01*
X80003570Y67404028D01*
X80220913Y67549252D01*
X80405748Y67734087D01*
X80550972Y67951430D01*
X80645000Y68178433D01*
X80739028Y67951430D01*
X80884252Y67734087D01*
X81069087Y67549252D01*
X81286430Y67404028D01*
X81473528Y67326529D01*
X77643499Y63496500D01*
X70592425Y63496500D01*
X70491764Y63563759D01*
X70359458Y63618562D01*
X70219003Y63646500D01*
X70075797Y63646500D01*
X69935342Y63618562D01*
X69803036Y63563759D01*
X69683964Y63484198D01*
X69582702Y63382936D01*
X69503141Y63263864D01*
X69448338Y63131558D01*
X69420400Y62991103D01*
X67987000Y62991103D01*
X67987000Y67609799D01*
X67995097Y67636492D01*
X68004307Y67730000D01*
X68004307Y68035254D01*
X68039028Y67951430D01*
X68184252Y67734087D01*
X68369087Y67549252D01*
X68586430Y67404028D01*
X68827928Y67303996D01*
X69084302Y67253000D01*
X69345698Y67253000D01*
X69602072Y67303996D01*
X69843570Y67404028D01*
X70060913Y67549252D01*
X70245748Y67734087D01*
X70390972Y67951430D01*
X70485000Y68178433D01*
X70579028Y67951430D01*
X70724252Y67734087D01*
X70909087Y67549252D01*
X71126430Y67404028D01*
X71367928Y67303996D01*
X71624302Y67253000D01*
X71885698Y67253000D01*
X72142072Y67303996D01*
X72383570Y67404028D01*
X72600913Y67549252D01*
X72785748Y67734087D01*
X72930972Y67951430D01*
X72941164Y67976035D01*
X72950843Y67948748D01*
X73099822Y67698645D01*
X73294731Y67482412D01*
X73528080Y67308359D01*
X73790901Y67183175D01*
X73938110Y67138524D01*
X74168000Y67259845D01*
X74168000Y68453000D01*
X74148000Y68453000D01*
X74148000Y68707000D01*
X74168000Y68707000D01*
X74168000Y69900155D01*
X73938110Y70021476D01*
X73790901Y69976825D01*
X73528080Y69851641D01*
X73294731Y69677588D01*
X73099822Y69461355D01*
X72950843Y69211252D01*
X72941164Y69183965D01*
X72930972Y69208570D01*
X72785748Y69425913D01*
X72600913Y69610748D01*
X72383570Y69755972D01*
X72142072Y69856004D01*
X71885698Y69907000D01*
X71624302Y69907000D01*
X71367928Y69856004D01*
X71126430Y69755972D01*
X70909087Y69610748D01*
X70724252Y69425913D01*
X70579028Y69208570D01*
X70485000Y68981567D01*
X70390972Y69208570D01*
X70245748Y69425913D01*
X70060913Y69610748D01*
X69843570Y69755972D01*
X69602072Y69856004D01*
X69345698Y69907000D01*
X69084302Y69907000D01*
X68827928Y69856004D01*
X68586430Y69755972D01*
X68369087Y69610748D01*
X68184252Y69425913D01*
X68039028Y69208570D01*
X68004307Y69124746D01*
X68004307Y69430000D01*
X67995097Y69523508D01*
X67967822Y69613423D01*
X67923529Y69696289D01*
X67863921Y69768921D01*
X67791289Y69828529D01*
X67708423Y69872822D01*
X67618508Y69900097D01*
X67525000Y69909307D01*
X65825000Y69909307D01*
X65731492Y69900097D01*
X65641577Y69872822D01*
X65558711Y69828529D01*
X65486079Y69768921D01*
X65426471Y69696289D01*
X65382178Y69613423D01*
X65354903Y69523508D01*
X65345693Y69430000D01*
X65345693Y67730000D01*
X65354903Y67636492D01*
X65382178Y67546577D01*
X65426471Y67463711D01*
X65486079Y67391079D01*
X65558711Y67331471D01*
X65641577Y67287178D01*
X65731492Y67259903D01*
X65825000Y67250693D01*
X66633001Y67250693D01*
X66633000Y62145000D01*
X59970422Y62145000D01*
X56890226Y65225196D01*
X56869027Y65251027D01*
X56765941Y65335628D01*
X56648330Y65398492D01*
X56520715Y65437204D01*
X56421252Y65447000D01*
X56421245Y65447000D01*
X56388000Y65450274D01*
X56354755Y65447000D01*
X55693478Y65447000D01*
X55601911Y65584040D01*
X55424040Y65761911D01*
X55214886Y65901663D01*
X55136300Y65934214D01*
X55226292Y65966397D01*
X55351514Y66033329D01*
X55423097Y66277298D01*
X54610000Y67090395D01*
X53796903Y66277298D01*
X53868486Y66033329D01*
X54080636Y65932945D01*
X54005114Y65901663D01*
X53795960Y65761911D01*
X53618089Y65584040D01*
X53526522Y65447000D01*
X51477000Y65447000D01*
X51477000Y67199488D01*
X53169783Y67199488D01*
X53211213Y66919870D01*
X53306397Y66653708D01*
X53373329Y66528486D01*
X53617298Y66456903D01*
X54430395Y67270000D01*
X54789605Y67270000D01*
X55602702Y66456903D01*
X55846671Y66528486D01*
X55967571Y66783996D01*
X56036300Y67058184D01*
X56050217Y67340512D01*
X56008787Y67620130D01*
X55913603Y67886292D01*
X55846671Y68011514D01*
X55602702Y68083097D01*
X54789605Y67270000D01*
X54430395Y67270000D01*
X53617298Y68083097D01*
X53373329Y68011514D01*
X53252429Y67756004D01*
X53183700Y67481816D01*
X53169783Y67199488D01*
X51477000Y67199488D01*
X51477000Y68262702D01*
X53796903Y68262702D01*
X54610000Y67449605D01*
X55423097Y68262702D01*
X55351514Y68506671D01*
X55096004Y68627571D01*
X54821816Y68696300D01*
X54539488Y68710217D01*
X54259870Y68668787D01*
X53993708Y68573603D01*
X53868486Y68506671D01*
X53796903Y68262702D01*
X51477000Y68262702D01*
X51477000Y72315693D01*
X51600000Y72315693D01*
X51693508Y72324903D01*
X51783423Y72352178D01*
X51866289Y72396471D01*
X51938921Y72456079D01*
X51998529Y72528711D01*
X52042822Y72611577D01*
X52070097Y72701492D01*
X52079307Y72795000D01*
X52079307Y75195000D01*
X52070097Y75288508D01*
X52042822Y75378423D01*
X51998529Y75461289D01*
X51938921Y75533921D01*
X51866289Y75593529D01*
X51783423Y75637822D01*
X51693508Y75665097D01*
X51600000Y75674307D01*
X50842000Y75674307D01*
X50842000Y89889578D01*
X55550055Y94597633D01*
X55749302Y94558000D01*
X56010698Y94558000D01*
X56267072Y94608996D01*
X56508570Y94709028D01*
X56725913Y94854252D01*
X56910748Y95039087D01*
X57055972Y95256430D01*
X57156004Y95497928D01*
X57207000Y95754302D01*
X57207000Y96015698D01*
X57156004Y96272072D01*
X57055972Y96513570D01*
X56964346Y96650698D01*
X65348000Y96650698D01*
X65348000Y96389302D01*
X65398996Y96132928D01*
X65499028Y95891430D01*
X65644252Y95674087D01*
X65829087Y95489252D01*
X66046430Y95344028D01*
X66273433Y95250000D01*
X66046430Y95155972D01*
X65829087Y95010748D01*
X65644252Y94825913D01*
X65499028Y94608570D01*
X65398996Y94367072D01*
X65348000Y94110698D01*
X65348000Y93849302D01*
X65398996Y93592928D01*
X65499028Y93351430D01*
X65644252Y93134087D01*
X65829087Y92949252D01*
X66046430Y92804028D01*
X66287928Y92703996D01*
X66544302Y92653000D01*
X66805698Y92653000D01*
X67062072Y92703996D01*
X67303570Y92804028D01*
X67520913Y92949252D01*
X67705748Y93134087D01*
X67850972Y93351430D01*
X67951004Y93592928D01*
X68002000Y93849302D01*
X68002000Y94110698D01*
X67951004Y94367072D01*
X67850972Y94608570D01*
X67705748Y94825913D01*
X67520913Y95010748D01*
X67303570Y95155972D01*
X67076567Y95250000D01*
X67303570Y95344028D01*
X67520913Y95489252D01*
X67705748Y95674087D01*
X67850972Y95891430D01*
X67951004Y96132928D01*
X68002000Y96389302D01*
X68002000Y96650698D01*
X85668000Y96650698D01*
X85668000Y96389302D01*
X85718996Y96132928D01*
X85819028Y95891430D01*
X85964252Y95674087D01*
X86149087Y95489252D01*
X86366430Y95344028D01*
X86593433Y95250000D01*
X86366430Y95155972D01*
X86149087Y95010748D01*
X85964252Y94825913D01*
X85819028Y94608570D01*
X85718996Y94367072D01*
X85668000Y94110698D01*
X85668000Y93849302D01*
X85718996Y93592928D01*
X85819028Y93351430D01*
X85964252Y93134087D01*
X86149087Y92949252D01*
X86366430Y92804028D01*
X86607928Y92703996D01*
X86864302Y92653000D01*
X87125698Y92653000D01*
X87382072Y92703996D01*
X87623570Y92804028D01*
X87840913Y92949252D01*
X88025748Y93134087D01*
X88170972Y93351430D01*
X88271004Y93592928D01*
X88322000Y93849302D01*
X88322000Y94110698D01*
X88271004Y94367072D01*
X88170972Y94608570D01*
X88025748Y94825913D01*
X87840913Y95010748D01*
X87623570Y95155972D01*
X87506252Y95204567D01*
X92923000Y95204567D01*
X92923000Y94795433D01*
X93002818Y94394161D01*
X93159386Y94016171D01*
X93386689Y93675989D01*
X93675989Y93386689D01*
X94016171Y93159386D01*
X94394161Y93002818D01*
X94795433Y92923000D01*
X95204567Y92923000D01*
X95605839Y93002818D01*
X95983829Y93159386D01*
X96324011Y93386689D01*
X96613311Y93675989D01*
X96840614Y94016171D01*
X96997182Y94394161D01*
X97077000Y94795433D01*
X97077000Y95204567D01*
X96997182Y95605839D01*
X96840614Y95983829D01*
X96613311Y96324011D01*
X96324011Y96613311D01*
X95983829Y96840614D01*
X95605839Y96997182D01*
X95204567Y97077000D01*
X94795433Y97077000D01*
X94394161Y96997182D01*
X94016171Y96840614D01*
X93675989Y96613311D01*
X93386689Y96324011D01*
X93159386Y95983829D01*
X93002818Y95605839D01*
X92923000Y95204567D01*
X87506252Y95204567D01*
X87396567Y95250000D01*
X87623570Y95344028D01*
X87840913Y95489252D01*
X88025748Y95674087D01*
X88170972Y95891430D01*
X88271004Y96132928D01*
X88322000Y96389302D01*
X88322000Y96650698D01*
X88271004Y96907072D01*
X88170972Y97148570D01*
X88025748Y97365913D01*
X87840913Y97550748D01*
X87623570Y97695972D01*
X87382072Y97796004D01*
X87125698Y97847000D01*
X86864302Y97847000D01*
X86607928Y97796004D01*
X86366430Y97695972D01*
X86149087Y97550748D01*
X85964252Y97365913D01*
X85819028Y97148570D01*
X85718996Y96907072D01*
X85668000Y96650698D01*
X68002000Y96650698D01*
X67951004Y96907072D01*
X67850972Y97148570D01*
X67705748Y97365913D01*
X67520913Y97550748D01*
X67303570Y97695972D01*
X67062072Y97796004D01*
X66805698Y97847000D01*
X66544302Y97847000D01*
X66287928Y97796004D01*
X66046430Y97695972D01*
X65829087Y97550748D01*
X65644252Y97365913D01*
X65499028Y97148570D01*
X65398996Y96907072D01*
X65348000Y96650698D01*
X56964346Y96650698D01*
X56910748Y96730913D01*
X56725913Y96915748D01*
X56508570Y97060972D01*
X56267072Y97161004D01*
X56010698Y97212000D01*
X55749302Y97212000D01*
X55492928Y97161004D01*
X55251430Y97060972D01*
X55034087Y96915748D01*
X54849252Y96730913D01*
X54704028Y96513570D01*
X54610000Y96286567D01*
X54515972Y96513570D01*
X54370748Y96730913D01*
X54185913Y96915748D01*
X53968570Y97060972D01*
X53727072Y97161004D01*
X53470698Y97212000D01*
X53209302Y97212000D01*
X52952928Y97161004D01*
X52711430Y97060972D01*
X52494087Y96915748D01*
X52309252Y96730913D01*
X52287876Y96698921D01*
X52288072Y96735000D01*
X52275812Y96859482D01*
X52239502Y96979180D01*
X52180537Y97089494D01*
X52101185Y97186185D01*
X52004494Y97265537D01*
X51894180Y97324502D01*
X51774482Y97360812D01*
X51650000Y97373072D01*
X51085750Y97370000D01*
X50927000Y97211250D01*
X50927000Y96012000D01*
X50947000Y96012000D01*
X50947000Y95758000D01*
X50927000Y95758000D01*
X50927000Y94558750D01*
X51085750Y94400000D01*
X51650000Y94396928D01*
X51774482Y94409188D01*
X51894180Y94445498D01*
X52004494Y94504463D01*
X52101185Y94583815D01*
X52180537Y94680506D01*
X52239502Y94790820D01*
X52275812Y94910518D01*
X52288072Y95035000D01*
X52287876Y95071079D01*
X52309252Y95039087D01*
X52494087Y94854252D01*
X52711430Y94709028D01*
X52952928Y94608996D01*
X53209302Y94558000D01*
X53470698Y94558000D01*
X53626585Y94589008D01*
X49884578Y90847000D01*
X46999307Y90847000D01*
X46999307Y90970000D01*
X46990097Y91063508D01*
X46962822Y91153423D01*
X46918529Y91236289D01*
X46858921Y91308921D01*
X46786289Y91368529D01*
X46703423Y91412822D01*
X46613508Y91440097D01*
X46520000Y91449307D01*
X46397000Y91449307D01*
X46397000Y93891748D01*
X46400275Y93925000D01*
X46387204Y94057715D01*
X46348492Y94185330D01*
X46285628Y94302941D01*
X46222224Y94380199D01*
X46222218Y94380205D01*
X46201026Y94406027D01*
X46175206Y94427217D01*
X45567423Y95035000D01*
X49311928Y95035000D01*
X49324188Y94910518D01*
X49360498Y94790820D01*
X49419463Y94680506D01*
X49498815Y94583815D01*
X49595506Y94504463D01*
X49705820Y94445498D01*
X49825518Y94409188D01*
X49950000Y94396928D01*
X50514250Y94400000D01*
X50673000Y94558750D01*
X50673000Y95758000D01*
X49473750Y95758000D01*
X49315000Y95599250D01*
X49311928Y95035000D01*
X45567423Y95035000D01*
X43867423Y96735000D01*
X49311928Y96735000D01*
X49315000Y96170750D01*
X49473750Y96012000D01*
X50673000Y96012000D01*
X50673000Y97211250D01*
X50514250Y97370000D01*
X49950000Y97373072D01*
X49825518Y97360812D01*
X49705820Y97324502D01*
X49595506Y97265537D01*
X49498815Y97186185D01*
X49419463Y97089494D01*
X49360498Y96979180D01*
X49324188Y96859482D01*
X49311928Y96735000D01*
X43867423Y96735000D01*
X43012226Y97590196D01*
X42991027Y97616027D01*
X42887941Y97700628D01*
X42770330Y97763492D01*
X42642715Y97802204D01*
X42543252Y97812000D01*
X42543245Y97812000D01*
X42510000Y97815274D01*
X42476755Y97812000D01*
X40653245Y97812000D01*
X40620000Y97815274D01*
X40586755Y97812000D01*
X40586748Y97812000D01*
X40487285Y97802204D01*
X40359670Y97763492D01*
X40242059Y97700628D01*
X40138973Y97616027D01*
X40117778Y97590201D01*
X39699945Y97172367D01*
X39500698Y97212000D01*
X39239302Y97212000D01*
X38982928Y97161004D01*
X38741430Y97060972D01*
X38524087Y96915748D01*
X38339252Y96730913D01*
X38194028Y96513570D01*
X38159307Y96429746D01*
X38159307Y96735000D01*
X38150097Y96828508D01*
X38122822Y96918423D01*
X38078529Y97001289D01*
X38018921Y97073921D01*
X37946289Y97133529D01*
X37863423Y97177822D01*
X37773508Y97205097D01*
X37680000Y97214307D01*
X35980000Y97214307D01*
X35886492Y97205097D01*
X35796577Y97177822D01*
X35713711Y97133529D01*
X35641079Y97073921D01*
X35581471Y97001289D01*
X35537178Y96918423D01*
X35509903Y96828508D01*
X35500693Y96735000D01*
X35500693Y96562000D01*
X20353252Y96562000D01*
X20320000Y96565275D01*
X20286748Y96562000D01*
X20187285Y96552204D01*
X20059670Y96513492D01*
X19942059Y96450628D01*
X19838973Y96366027D01*
X19817778Y96340201D01*
X11455992Y87978414D01*
X11487000Y88134302D01*
X11487000Y88395698D01*
X11436004Y88652072D01*
X11335972Y88893570D01*
X11190748Y89110913D01*
X11005913Y89295748D01*
X10788570Y89440972D01*
X10547072Y89541004D01*
X10290698Y89592000D01*
X10029302Y89592000D01*
X9772928Y89541004D01*
X9531430Y89440972D01*
X9314087Y89295748D01*
X9129252Y89110913D01*
X8984028Y88893570D01*
X8883996Y88652072D01*
X8833000Y88395698D01*
X8833000Y88134302D01*
X8883996Y87877928D01*
X8984028Y87636430D01*
X9129252Y87419087D01*
X9314087Y87234252D01*
X9531430Y87089028D01*
X9615254Y87054307D01*
X9310000Y87054307D01*
X9216492Y87045097D01*
X9126577Y87017822D01*
X9043711Y86973529D01*
X8971079Y86913921D01*
X8911471Y86841289D01*
X8867178Y86758423D01*
X8839903Y86668508D01*
X8830693Y86575000D01*
X8830693Y84875000D01*
X8839903Y84781492D01*
X8867178Y84691577D01*
X8911471Y84608711D01*
X8971079Y84536079D01*
X9043711Y84476471D01*
X9126577Y84432178D01*
X9216492Y84404903D01*
X9310000Y84395693D01*
X11010000Y84395693D01*
X11103508Y84404903D01*
X11193423Y84432178D01*
X11276289Y84476471D01*
X11348921Y84536079D01*
X11408529Y84608711D01*
X11452822Y84691577D01*
X11480097Y84781492D01*
X11489307Y84875000D01*
X11489307Y86096885D01*
X14357422Y88965000D01*
X16565693Y88965000D01*
X16565693Y87215000D01*
X16591716Y86950788D01*
X16668783Y86696729D01*
X16793935Y86462587D01*
X16962360Y86257360D01*
X17167587Y86088935D01*
X17401729Y85963783D01*
X17655788Y85886716D01*
X17920000Y85860693D01*
X19670000Y85860693D01*
X19934212Y85886716D01*
X20188271Y85963783D01*
X20422413Y86088935D01*
X20627640Y86257360D01*
X20796065Y86462587D01*
X20921217Y86696729D01*
X20998284Y86950788D01*
X21024307Y87215000D01*
X21024307Y88965000D01*
X20998284Y89229212D01*
X20921217Y89483271D01*
X20864169Y89590000D01*
X21106928Y89590000D01*
X21119188Y89465518D01*
X21155498Y89345820D01*
X21214463Y89235506D01*
X21293815Y89138815D01*
X21390506Y89059463D01*
X21500820Y89000498D01*
X21620518Y88964188D01*
X21745000Y88951928D01*
X23209250Y88955000D01*
X23368000Y89113750D01*
X23368000Y90963000D01*
X23622000Y90963000D01*
X23622000Y89113750D01*
X23780750Y88955000D01*
X25245000Y88951928D01*
X25369482Y88964188D01*
X25489180Y89000498D01*
X25599494Y89059463D01*
X25696185Y89138815D01*
X25775537Y89235506D01*
X25834502Y89345820D01*
X25870812Y89465518D01*
X25883072Y89590000D01*
X25880000Y90804250D01*
X25721250Y90963000D01*
X23622000Y90963000D01*
X23368000Y90963000D01*
X21268750Y90963000D01*
X21110000Y90804250D01*
X21106928Y89590000D01*
X20864169Y89590000D01*
X20796065Y89717413D01*
X20627640Y89922640D01*
X20422413Y90091065D01*
X20188271Y90216217D01*
X19934212Y90293284D01*
X19670000Y90319307D01*
X17920000Y90319307D01*
X17655788Y90293284D01*
X17401729Y90216217D01*
X17167587Y90091065D01*
X16962360Y89922640D01*
X16793935Y89717413D01*
X16668783Y89483271D01*
X16591716Y89229212D01*
X16565693Y88965000D01*
X14357422Y88965000D01*
X17982422Y92590000D01*
X21106928Y92590000D01*
X21110000Y91375750D01*
X21268750Y91217000D01*
X23368000Y91217000D01*
X23368000Y93066250D01*
X23622000Y93066250D01*
X23622000Y91217000D01*
X25721250Y91217000D01*
X25880000Y91375750D01*
X25883072Y92590000D01*
X25870812Y92714482D01*
X25834502Y92834180D01*
X25775537Y92944494D01*
X25696185Y93041185D01*
X25599494Y93120537D01*
X25489180Y93179502D01*
X25369482Y93215812D01*
X25245000Y93228072D01*
X23780750Y93225000D01*
X23622000Y93066250D01*
X23368000Y93066250D01*
X23209250Y93225000D01*
X21745000Y93228072D01*
X21620518Y93215812D01*
X21500820Y93179502D01*
X21390506Y93120537D01*
X21293815Y93041185D01*
X21214463Y92944494D01*
X21155498Y92834180D01*
X21119188Y92714482D01*
X21106928Y92590000D01*
X17982422Y92590000D01*
X20600423Y95208000D01*
X35500693Y95208000D01*
X35500693Y95035000D01*
X35509903Y94941492D01*
X35537178Y94851577D01*
X35581471Y94768711D01*
X35641079Y94696079D01*
X35713711Y94636471D01*
X35796577Y94592178D01*
X35886492Y94564903D01*
X35980000Y94555693D01*
X37680000Y94555693D01*
X37773508Y94564903D01*
X37863423Y94592178D01*
X37946289Y94636471D01*
X38018921Y94696079D01*
X38078529Y94768711D01*
X38122822Y94851577D01*
X38150097Y94941492D01*
X38159307Y95035000D01*
X38159307Y95340254D01*
X38194028Y95256430D01*
X38339252Y95039087D01*
X38524087Y94854252D01*
X38741430Y94709028D01*
X38982928Y94608996D01*
X39239302Y94558000D01*
X39500698Y94558000D01*
X39656586Y94589008D01*
X30834578Y85767000D01*
X25724307Y85767000D01*
X25724307Y86840000D01*
X25715097Y86933508D01*
X25687822Y87023423D01*
X25643529Y87106289D01*
X25583921Y87178921D01*
X25511289Y87238529D01*
X25428423Y87282822D01*
X25338508Y87310097D01*
X25245000Y87319307D01*
X21745000Y87319307D01*
X21651492Y87310097D01*
X21561577Y87282822D01*
X21478711Y87238529D01*
X21406079Y87178921D01*
X21346471Y87106289D01*
X21302178Y87023423D01*
X21274903Y86933508D01*
X21265693Y86840000D01*
X21265693Y83340000D01*
X21274903Y83246492D01*
X21302178Y83156577D01*
X21346471Y83073711D01*
X21406079Y83001079D01*
X21478711Y82941471D01*
X21561577Y82897178D01*
X21651492Y82869903D01*
X21745000Y82860693D01*
X25245000Y82860693D01*
X25338508Y82869903D01*
X25428423Y82897178D01*
X25511289Y82941471D01*
X25583921Y83001079D01*
X25643529Y83073711D01*
X25687822Y83156577D01*
X25715097Y83246492D01*
X25724307Y83340000D01*
X25724307Y84413000D01*
X31081755Y84413000D01*
X31115000Y84409726D01*
X31148245Y84413000D01*
X31148252Y84413000D01*
X31247715Y84422796D01*
X31375330Y84461508D01*
X31492941Y84524372D01*
X31596027Y84608973D01*
X31617226Y84634804D01*
X33659720Y86677298D01*
X44906903Y86677298D01*
X44978486Y86433329D01*
X45233996Y86312429D01*
X45508184Y86243700D01*
X45790512Y86229783D01*
X46070130Y86271213D01*
X46336292Y86366397D01*
X46461514Y86433329D01*
X46533097Y86677298D01*
X45720000Y87490395D01*
X44906903Y86677298D01*
X33659720Y86677298D01*
X34581910Y87599488D01*
X44279783Y87599488D01*
X44321213Y87319870D01*
X44416397Y87053708D01*
X44483329Y86928486D01*
X44727298Y86856903D01*
X45540395Y87670000D01*
X45899605Y87670000D01*
X46712702Y86856903D01*
X46956671Y86928486D01*
X47077571Y87183996D01*
X47146300Y87458184D01*
X47160217Y87740512D01*
X47118787Y88020130D01*
X47023603Y88286292D01*
X46956671Y88411514D01*
X46712702Y88483097D01*
X45899605Y87670000D01*
X45540395Y87670000D01*
X44727298Y88483097D01*
X44483329Y88411514D01*
X44362429Y88156004D01*
X44293700Y87881816D01*
X44279783Y87599488D01*
X34581910Y87599488D01*
X41580055Y94597633D01*
X41779302Y94558000D01*
X42040698Y94558000D01*
X42297072Y94608996D01*
X42538570Y94709028D01*
X42755913Y94854252D01*
X42940748Y95039087D01*
X43085972Y95256430D01*
X43186004Y95497928D01*
X43186609Y95500969D01*
X45043000Y93644577D01*
X45043001Y91449307D01*
X44920000Y91449307D01*
X44826492Y91440097D01*
X44736577Y91412822D01*
X44653711Y91368529D01*
X44581079Y91308921D01*
X44521471Y91236289D01*
X44477178Y91153423D01*
X44449903Y91063508D01*
X44440693Y90970000D01*
X44440693Y89370000D01*
X44449903Y89276492D01*
X44477178Y89186577D01*
X44521471Y89103711D01*
X44581079Y89031079D01*
X44653711Y88971471D01*
X44736577Y88927178D01*
X44826492Y88899903D01*
X44920000Y88890693D01*
X44973798Y88890693D01*
X44906903Y88662702D01*
X45720000Y87849605D01*
X46533097Y88662702D01*
X46466202Y88890693D01*
X46520000Y88890693D01*
X46613508Y88899903D01*
X46703423Y88927178D01*
X46786289Y88971471D01*
X46858921Y89031079D01*
X46918529Y89103711D01*
X46962822Y89186577D01*
X46990097Y89276492D01*
X46999307Y89370000D01*
X46999307Y89493000D01*
X48911013Y89493000D01*
X48909064Y89491698D01*
X48807802Y89390436D01*
X48728241Y89271364D01*
X48673438Y89139058D01*
X48649820Y89020321D01*
X47872038Y88242539D01*
X47850026Y88224474D01*
X47777921Y88136614D01*
X47724343Y88036375D01*
X47710796Y87991717D01*
X47691349Y87927611D01*
X47680210Y87814500D01*
X47683000Y87786169D01*
X47683001Y75534561D01*
X47547105Y75461924D01*
X47352657Y75302344D01*
X47193076Y75107896D01*
X47074498Y74886051D01*
X47001478Y74645336D01*
X46990000Y74528798D01*
X46978522Y74645336D01*
X46905502Y74886051D01*
X46786924Y75107896D01*
X46627344Y75302344D01*
X46432896Y75461924D01*
X46211051Y75580502D01*
X45970336Y75653522D01*
X45720000Y75678178D01*
X45469665Y75653522D01*
X45228950Y75580502D01*
X45007105Y75461924D01*
X44812657Y75302344D01*
X44653076Y75107896D01*
X44534498Y74886051D01*
X44461478Y74645336D01*
X44450000Y74528798D01*
X44438522Y74645336D01*
X44365502Y74886051D01*
X44246924Y75107896D01*
X44087344Y75302344D01*
X43892896Y75461924D01*
X43671051Y75580502D01*
X43430336Y75653522D01*
X43180000Y75678178D01*
X42929665Y75653522D01*
X42688950Y75580502D01*
X42467105Y75461924D01*
X42272657Y75302344D01*
X42113076Y75107896D01*
X41994498Y74886051D01*
X41921478Y74645336D01*
X41910000Y74528798D01*
X41898522Y74645336D01*
X41825502Y74886051D01*
X41706924Y75107896D01*
X41547344Y75302344D01*
X41352896Y75461924D01*
X41131051Y75580502D01*
X40890336Y75653522D01*
X40640000Y75678178D01*
X40389665Y75653522D01*
X40148950Y75580502D01*
X39927105Y75461924D01*
X39732657Y75302344D01*
X39573076Y75107896D01*
X39454498Y74886051D01*
X39381478Y74645336D01*
X39370000Y74528798D01*
X39358522Y74645336D01*
X39285502Y74886051D01*
X39166924Y75107896D01*
X39007344Y75302344D01*
X38812896Y75461924D01*
X38591051Y75580502D01*
X38350336Y75653522D01*
X38100000Y75678178D01*
X37849665Y75653522D01*
X37608950Y75580502D01*
X37387105Y75461924D01*
X37192657Y75302344D01*
X37033076Y75107896D01*
X36914498Y74886051D01*
X36841478Y74645336D01*
X36830000Y74528798D01*
X36818522Y74645336D01*
X36745502Y74886051D01*
X36626924Y75107896D01*
X36467344Y75302344D01*
X36272896Y75461924D01*
X36051051Y75580502D01*
X35810336Y75653522D01*
X35560000Y75678178D01*
X35309665Y75653522D01*
X35068950Y75580502D01*
X34847105Y75461924D01*
X34652657Y75302344D01*
X34493076Y75107896D01*
X34374498Y74886051D01*
X34301478Y74645336D01*
X34290000Y74528798D01*
X34278522Y74645336D01*
X34205502Y74886051D01*
X34086924Y75107896D01*
X33927344Y75302344D01*
X33732896Y75461924D01*
X33511051Y75580502D01*
X33270336Y75653522D01*
X33020000Y75678178D01*
X32769665Y75653522D01*
X32528950Y75580502D01*
X32307105Y75461924D01*
X32112657Y75302344D01*
X31953076Y75107896D01*
X31834498Y74886051D01*
X31761478Y74645336D01*
X31750000Y74528798D01*
X31738522Y74645336D01*
X31665502Y74886051D01*
X31546924Y75107896D01*
X31387344Y75302344D01*
X31192896Y75461924D01*
X30971051Y75580502D01*
X30730336Y75653522D01*
X30480000Y75678178D01*
X30229665Y75653522D01*
X29988950Y75580502D01*
X29767105Y75461924D01*
X29572657Y75302344D01*
X29553682Y75279223D01*
X29550479Y75285215D01*
X29478374Y75373074D01*
X29456363Y75391138D01*
X26959539Y77887962D01*
X26941474Y77909974D01*
X26853615Y77982079D01*
X26753376Y78035657D01*
X26689270Y78055103D01*
X26644611Y78068651D01*
X26589545Y78074074D01*
X26559836Y78077000D01*
X26559831Y78077000D01*
X26531500Y78079790D01*
X26503169Y78077000D01*
X9329307Y78077000D01*
X9329307Y78350000D01*
X9320097Y78443508D01*
X9292822Y78533423D01*
X9248529Y78616289D01*
X9188921Y78688921D01*
X9116289Y78748529D01*
X9033423Y78792822D01*
X8943508Y78820097D01*
X8850000Y78829307D01*
X7150000Y78829307D01*
X7056492Y78820097D01*
X6966577Y78792822D01*
X6883711Y78748529D01*
X6811079Y78688921D01*
X6751471Y78616289D01*
X6707178Y78533423D01*
X6679903Y78443508D01*
X6670693Y78350000D01*
X6670693Y78044746D01*
X6635972Y78128570D01*
X6490748Y78345913D01*
X6305913Y78530748D01*
X6088570Y78675972D01*
X5847072Y78776004D01*
X5590698Y78827000D01*
X5329302Y78827000D01*
X5072928Y78776004D01*
X4831430Y78675972D01*
X4614087Y78530748D01*
X4429252Y78345913D01*
X4284028Y78128570D01*
X4183996Y77887072D01*
X4133000Y77630698D01*
X4133000Y77369302D01*
X4183996Y77112928D01*
X4284028Y76871430D01*
X4429252Y76654087D01*
X4614087Y76469252D01*
X4831430Y76324028D01*
X5058433Y76230000D01*
X4831430Y76135972D01*
X4614087Y75990748D01*
X4429252Y75805913D01*
X4284028Y75588570D01*
X4183996Y75347072D01*
X4133000Y75090698D01*
X4133000Y74829302D01*
X4183996Y74572928D01*
X4284028Y74331430D01*
X4429252Y74114087D01*
X4614087Y73929252D01*
X4831430Y73784028D01*
X4856035Y73773836D01*
X4828748Y73764157D01*
X4578645Y73615178D01*
X4362412Y73420269D01*
X4188359Y73186920D01*
X4063175Y72924099D01*
X4018524Y72776890D01*
X4139845Y72547000D01*
X5333000Y72547000D01*
X5333000Y72567000D01*
X5587000Y72567000D01*
X5587000Y72547000D01*
X5607000Y72547000D01*
X5607000Y72293000D01*
X5587000Y72293000D01*
X5587000Y72273000D01*
X5333000Y72273000D01*
X5333000Y72293000D01*
X4139845Y72293000D01*
X4018524Y72063110D01*
X4063175Y71915901D01*
X4188359Y71653080D01*
X4362412Y71419731D01*
X4578645Y71224822D01*
X4828748Y71075843D01*
X4856035Y71066164D01*
X4831430Y71055972D01*
X4614087Y70910748D01*
X4429252Y70725913D01*
X4284028Y70508570D01*
X4183996Y70267072D01*
X4133000Y70010698D01*
X4133000Y69749302D01*
X4183996Y69492928D01*
X4284028Y69251430D01*
X4429252Y69034087D01*
X4545069Y68918270D01*
X2488434Y66861635D01*
X2466427Y66843574D01*
X2448366Y66821567D01*
X2448363Y66821564D01*
X2425240Y66793388D01*
X2394322Y66755715D01*
X2378042Y66725257D01*
X2340744Y66655476D01*
X2307749Y66546711D01*
X2296610Y66433600D01*
X627000Y66433600D01*
X627000Y95204567D01*
X2923000Y95204567D01*
X2923000Y94795433D01*
X3002818Y94394161D01*
X3159386Y94016171D01*
X3386689Y93675989D01*
X3675989Y93386689D01*
X4016171Y93159386D01*
X4394161Y93002818D01*
X4795433Y92923000D01*
X5204567Y92923000D01*
X5605839Y93002818D01*
X5983829Y93159386D01*
X6324011Y93386689D01*
X6613311Y93675989D01*
X6840614Y94016171D01*
X6997182Y94394161D01*
X7077000Y94795433D01*
X7077000Y95204567D01*
X6997182Y95605839D01*
X6840614Y95983829D01*
X6613311Y96324011D01*
X6324011Y96613311D01*
X5983829Y96840614D01*
X5605839Y96997182D01*
X5204567Y97077000D01*
X4795433Y97077000D01*
X4394161Y96997182D01*
X4016171Y96840614D01*
X3675989Y96613311D01*
X3386689Y96324011D01*
X3159386Y95983829D01*
X3002818Y95605839D01*
X2923000Y95204567D01*
X627000Y95204567D01*
X627000Y99373000D01*
X99373000Y99373000D01*
X99373000Y627000D01*
G04 #@! TA.AperFunction,Conductor*
D22*
G36*
X99373000Y627000D02*
G01*
X627000Y627000D01*
X627000Y5204567D01*
X2923000Y5204567D01*
X2923000Y4795433D01*
X3002818Y4394161D01*
X3159386Y4016171D01*
X3386689Y3675989D01*
X3675989Y3386689D01*
X4016171Y3159386D01*
X4394161Y3002818D01*
X4795433Y2923000D01*
X5204567Y2923000D01*
X5605839Y3002818D01*
X5983829Y3159386D01*
X6324011Y3386689D01*
X6613311Y3675989D01*
X6840614Y4016171D01*
X6997182Y4394161D01*
X7077000Y4795433D01*
X7077000Y5204567D01*
X92923000Y5204567D01*
X92923000Y4795433D01*
X93002818Y4394161D01*
X93159386Y4016171D01*
X93386689Y3675989D01*
X93675989Y3386689D01*
X94016171Y3159386D01*
X94394161Y3002818D01*
X94795433Y2923000D01*
X95204567Y2923000D01*
X95605839Y3002818D01*
X95983829Y3159386D01*
X96324011Y3386689D01*
X96613311Y3675989D01*
X96840614Y4016171D01*
X96997182Y4394161D01*
X97077000Y4795433D01*
X97077000Y5204567D01*
X96997182Y5605839D01*
X96840614Y5983829D01*
X96613311Y6324011D01*
X96324011Y6613311D01*
X95983829Y6840614D01*
X95605839Y6997182D01*
X95204567Y7077000D01*
X94795433Y7077000D01*
X94394161Y6997182D01*
X94016171Y6840614D01*
X93675989Y6613311D01*
X93386689Y6324011D01*
X93159386Y5983829D01*
X93002818Y5605839D01*
X92923000Y5204567D01*
X7077000Y5204567D01*
X6997182Y5605839D01*
X6840614Y5983829D01*
X6613311Y6324011D01*
X6324011Y6613311D01*
X5983829Y6840614D01*
X5605839Y6997182D01*
X5204567Y7077000D01*
X4795433Y7077000D01*
X4394161Y6997182D01*
X4016171Y6840614D01*
X3675989Y6613311D01*
X3386689Y6324011D01*
X3159386Y5983829D01*
X3002818Y5605839D01*
X2923000Y5204567D01*
X627000Y5204567D01*
X627000Y66433600D01*
X2296610Y66433600D01*
X2299401Y66405259D01*
X2299400Y45455931D01*
X2296610Y45427600D01*
X2299400Y45399269D01*
X2299400Y45399265D01*
X2300547Y45387621D01*
X2307749Y45314489D01*
X2317847Y45281202D01*
X2340743Y45205725D01*
X2394321Y45105486D01*
X2466426Y45017626D01*
X2488438Y44999561D01*
X4565669Y42922330D01*
X4429252Y42785913D01*
X4284028Y42568570D01*
X4183996Y42327072D01*
X4133000Y42070698D01*
X4133000Y41809302D01*
X4183996Y41552928D01*
X4284028Y41311430D01*
X4429252Y41094087D01*
X4545007Y40978332D01*
X4523126Y40960374D01*
X4505061Y40938362D01*
X3521434Y39954735D01*
X3499427Y39936674D01*
X3481366Y39914667D01*
X3481363Y39914664D01*
X3464523Y39894144D01*
X3427322Y39848815D01*
X3394797Y39787964D01*
X3373744Y39748576D01*
X3340749Y39639811D01*
X3329610Y39526700D01*
X3332401Y39498359D01*
X3332400Y16487331D01*
X3329610Y16459000D01*
X3340749Y16345889D01*
X3348729Y16319585D01*
X3373743Y16237125D01*
X3427321Y16136886D01*
X3499426Y16049026D01*
X3521438Y16030961D01*
X12299365Y7253033D01*
X12317426Y7231026D01*
X12339433Y7212965D01*
X12339435Y7212963D01*
X12359380Y7196595D01*
X12405285Y7158921D01*
X12505524Y7105343D01*
X12614288Y7072350D01*
X12699064Y7064000D01*
X12699070Y7064000D01*
X12727399Y7061210D01*
X12755728Y7064000D01*
X41627789Y7064000D01*
X41631938Y7043142D01*
X41686741Y6910836D01*
X41766302Y6791764D01*
X41867564Y6690502D01*
X41986636Y6610941D01*
X42118942Y6556138D01*
X42259397Y6528200D01*
X42402603Y6528200D01*
X42543058Y6556138D01*
X42638086Y6595500D01*
X81715569Y6595500D01*
X81743900Y6592710D01*
X81772231Y6595500D01*
X81772236Y6595500D01*
X81801945Y6598426D01*
X81857011Y6603849D01*
X81901670Y6617397D01*
X81965776Y6636843D01*
X82066015Y6690421D01*
X82153874Y6762526D01*
X82171939Y6784538D01*
X84705967Y9318565D01*
X84727974Y9336626D01*
X84752419Y9366411D01*
X84770593Y9388557D01*
X84800079Y9424485D01*
X84828908Y9478422D01*
X85012104Y9328076D01*
X85233949Y9209498D01*
X85474664Y9136478D01*
X85725000Y9111822D01*
X85975335Y9136478D01*
X86216050Y9209498D01*
X86437895Y9328076D01*
X86632344Y9487656D01*
X86791924Y9682104D01*
X86910502Y9903949D01*
X86983522Y10144664D01*
X86995000Y10261202D01*
X87006478Y10144665D01*
X87079498Y9903950D01*
X87198076Y9682105D01*
X87357656Y9487656D01*
X87552104Y9328076D01*
X87773949Y9209498D01*
X88014664Y9136478D01*
X88265000Y9111822D01*
X88515335Y9136478D01*
X88756050Y9209498D01*
X88977895Y9328076D01*
X89172344Y9487656D01*
X89331924Y9682104D01*
X89450502Y9903949D01*
X89523522Y10144664D01*
X89535000Y10261202D01*
X89546478Y10144665D01*
X89619498Y9903950D01*
X89738076Y9682105D01*
X89897656Y9487656D01*
X90092104Y9328076D01*
X90313949Y9209498D01*
X90554664Y9136478D01*
X90805000Y9111822D01*
X91055335Y9136478D01*
X91296050Y9209498D01*
X91517895Y9328076D01*
X91712344Y9487656D01*
X91871924Y9682104D01*
X91990502Y9903949D01*
X92063522Y10144664D01*
X92075000Y10261202D01*
X92086478Y10144665D01*
X92159498Y9903950D01*
X92278076Y9682105D01*
X92437656Y9487656D01*
X92632104Y9328076D01*
X92853949Y9209498D01*
X93094664Y9136478D01*
X93345000Y9111822D01*
X93595335Y9136478D01*
X93836050Y9209498D01*
X94057895Y9328076D01*
X94252344Y9487656D01*
X94411924Y9682104D01*
X94530502Y9903949D01*
X94603522Y10144664D01*
X94615000Y10261202D01*
X94626478Y10144665D01*
X94699498Y9903950D01*
X94818076Y9682105D01*
X94977656Y9487656D01*
X95172104Y9328076D01*
X95393949Y9209498D01*
X95634664Y9136478D01*
X95885000Y9111822D01*
X96135335Y9136478D01*
X96376050Y9209498D01*
X96597895Y9328076D01*
X96792344Y9487656D01*
X96951924Y9682104D01*
X97070502Y9903949D01*
X97143522Y10144664D01*
X97162000Y10332274D01*
X97162000Y11257725D01*
X97143522Y11445336D01*
X97070502Y11686051D01*
X96951924Y11907896D01*
X96792344Y12102344D01*
X96597896Y12261924D01*
X96376051Y12380502D01*
X96135336Y12453522D01*
X95885000Y12478178D01*
X95634665Y12453522D01*
X95393950Y12380502D01*
X95172105Y12261924D01*
X94977657Y12102344D01*
X94818076Y11907896D01*
X94699498Y11686051D01*
X94626478Y11445336D01*
X94615000Y11328798D01*
X94603522Y11445336D01*
X94530502Y11686051D01*
X94411924Y11907896D01*
X94252344Y12102344D01*
X94057896Y12261924D01*
X93836051Y12380502D01*
X93595336Y12453522D01*
X93345000Y12478178D01*
X93094665Y12453522D01*
X92853950Y12380502D01*
X92632105Y12261924D01*
X92437657Y12102344D01*
X92278076Y11907896D01*
X92159498Y11686051D01*
X92086478Y11445336D01*
X92075000Y11328798D01*
X92063522Y11445336D01*
X91990502Y11686051D01*
X91871924Y11907896D01*
X91712344Y12102344D01*
X91517896Y12261924D01*
X91296051Y12380502D01*
X91055336Y12453522D01*
X90805000Y12478178D01*
X90554665Y12453522D01*
X90313950Y12380502D01*
X90092105Y12261924D01*
X89897657Y12102344D01*
X89738076Y11907896D01*
X89619498Y11686051D01*
X89546478Y11445336D01*
X89535000Y11328798D01*
X89523522Y11445336D01*
X89450502Y11686051D01*
X89331924Y11907896D01*
X89172344Y12102344D01*
X88977896Y12261924D01*
X88756051Y12380502D01*
X88515336Y12453522D01*
X88265000Y12478178D01*
X88014665Y12453522D01*
X87773950Y12380502D01*
X87552105Y12261924D01*
X87357657Y12102344D01*
X87198076Y11907896D01*
X87079498Y11686051D01*
X87006478Y11445336D01*
X86995000Y11328798D01*
X86983522Y11445336D01*
X86910502Y11686051D01*
X86791924Y11907896D01*
X86632344Y12102344D01*
X86437896Y12261924D01*
X86216051Y12380502D01*
X85975336Y12453522D01*
X85725000Y12478178D01*
X85474665Y12453522D01*
X85233950Y12380502D01*
X85012105Y12261924D01*
X84817657Y12102344D01*
X84771597Y12046220D01*
X84727974Y12099374D01*
X84705968Y12117434D01*
X84140137Y12683264D01*
X84122074Y12705274D01*
X84034215Y12777379D01*
X83933976Y12830957D01*
X83869870Y12850403D01*
X83825211Y12863951D01*
X83770145Y12869374D01*
X83740436Y12872300D01*
X83740431Y12872300D01*
X83712100Y12875090D01*
X83683769Y12872300D01*
X67973336Y12872300D01*
X67945000Y12875091D01*
X67916664Y12872300D01*
X67831888Y12863950D01*
X67723124Y12830957D01*
X67622885Y12777379D01*
X67535026Y12705274D01*
X67462921Y12617415D01*
X67409343Y12517176D01*
X67376350Y12408412D01*
X67369136Y12335168D01*
X67232105Y12261924D01*
X67037657Y12102344D01*
X66878076Y11907896D01*
X66759498Y11686051D01*
X66686478Y11445336D01*
X66675000Y11328798D01*
X66663522Y11445336D01*
X66590502Y11686051D01*
X66471924Y11907896D01*
X66312344Y12102344D01*
X66117896Y12261924D01*
X65896051Y12380502D01*
X65655336Y12453522D01*
X65405000Y12478178D01*
X65154665Y12453522D01*
X64913950Y12380502D01*
X64692105Y12261924D01*
X64497657Y12102344D01*
X64338076Y11907896D01*
X64219498Y11686051D01*
X64146478Y11445336D01*
X64135000Y11328798D01*
X64123522Y11445336D01*
X64050502Y11686051D01*
X63931924Y11907896D01*
X63772344Y12102344D01*
X63577896Y12261924D01*
X63356051Y12380502D01*
X63115336Y12453522D01*
X62865000Y12478178D01*
X62614665Y12453522D01*
X62373950Y12380502D01*
X62152105Y12261924D01*
X61957657Y12102344D01*
X61798076Y11907896D01*
X61679498Y11686051D01*
X61606478Y11445336D01*
X61595000Y11328798D01*
X61583522Y11445336D01*
X61510502Y11686051D01*
X61391924Y11907896D01*
X61232344Y12102344D01*
X61037896Y12261924D01*
X60816051Y12380502D01*
X60575336Y12453522D01*
X60325000Y12478178D01*
X60074665Y12453522D01*
X59833950Y12380502D01*
X59744652Y12332771D01*
X55367222Y16710200D01*
X68289169Y16710200D01*
X68317500Y16707410D01*
X68345831Y16710200D01*
X68345836Y16710200D01*
X68378701Y16713437D01*
X68430611Y16718549D01*
X68487125Y16735693D01*
X68539376Y16751543D01*
X68639615Y16805121D01*
X68727474Y16877226D01*
X68745539Y16899238D01*
X75952962Y24106661D01*
X75974974Y24124726D01*
X76047079Y24212585D01*
X76100657Y24312824D01*
X76123405Y24387814D01*
X76133651Y24421588D01*
X76140864Y24494832D01*
X76277895Y24568076D01*
X76472344Y24727656D01*
X76631924Y24922104D01*
X76750502Y25143949D01*
X76823522Y25384664D01*
X76835000Y25501202D01*
X76846478Y25384665D01*
X76919498Y25143950D01*
X77038076Y24922105D01*
X77197656Y24727656D01*
X77392104Y24568076D01*
X77613949Y24449498D01*
X77854664Y24376478D01*
X78105000Y24351822D01*
X78355335Y24376478D01*
X78596050Y24449498D01*
X78817895Y24568076D01*
X79012344Y24727656D01*
X79171924Y24922104D01*
X79290502Y25143949D01*
X79293378Y25153429D01*
X79367834Y24968517D01*
X79522399Y24732161D01*
X79720105Y24530500D01*
X79953354Y24371285D01*
X80213182Y24260633D01*
X80295961Y24243096D01*
X80518000Y24365085D01*
X80518000Y25908000D01*
X80498000Y25908000D01*
X80498000Y26162000D01*
X80518000Y26162000D01*
X80518000Y26182000D01*
X80772000Y26182000D01*
X80772000Y26162000D01*
X80792000Y26162000D01*
X80792000Y25908000D01*
X80772000Y25908000D01*
X80772000Y24365085D01*
X80994039Y24243096D01*
X81076818Y24260633D01*
X81336646Y24371285D01*
X81569895Y24530500D01*
X81767601Y24732161D01*
X81922166Y24968517D01*
X81996622Y25153429D01*
X81999498Y25143950D01*
X82118076Y24922105D01*
X82277656Y24727656D01*
X82472104Y24568076D01*
X82693949Y24449498D01*
X82934664Y24376478D01*
X83185000Y24351822D01*
X83435335Y24376478D01*
X83676050Y24449498D01*
X83897895Y24568076D01*
X84092344Y24727656D01*
X84251924Y24922104D01*
X84370502Y25143949D01*
X84443522Y25384664D01*
X84455000Y25501202D01*
X84466478Y25384665D01*
X84539498Y25143950D01*
X84658076Y24922105D01*
X84817656Y24727656D01*
X85012104Y24568076D01*
X85233949Y24449498D01*
X85474664Y24376478D01*
X85725000Y24351822D01*
X85975335Y24376478D01*
X86216050Y24449498D01*
X86437895Y24568076D01*
X86632344Y24727656D01*
X86791924Y24922104D01*
X86910502Y25143949D01*
X86983522Y25384664D01*
X86995000Y25501202D01*
X87006478Y25384665D01*
X87079498Y25143950D01*
X87198076Y24922105D01*
X87357656Y24727656D01*
X87552104Y24568076D01*
X87773949Y24449498D01*
X88014664Y24376478D01*
X88265000Y24351822D01*
X88515335Y24376478D01*
X88756050Y24449498D01*
X88977895Y24568076D01*
X89172344Y24727656D01*
X89331924Y24922104D01*
X89450502Y25143949D01*
X89523522Y25384664D01*
X89535000Y25501202D01*
X89546478Y25384665D01*
X89619498Y25143950D01*
X89738076Y24922105D01*
X89897656Y24727656D01*
X90092104Y24568076D01*
X90313949Y24449498D01*
X90554664Y24376478D01*
X90805000Y24351822D01*
X91055335Y24376478D01*
X91296050Y24449498D01*
X91517895Y24568076D01*
X91712344Y24727656D01*
X91871924Y24922104D01*
X91990502Y25143949D01*
X92063522Y25384664D01*
X92075000Y25501202D01*
X92086478Y25384665D01*
X92159498Y25143950D01*
X92278076Y24922105D01*
X92437656Y24727656D01*
X92632104Y24568076D01*
X92853949Y24449498D01*
X93094664Y24376478D01*
X93345000Y24351822D01*
X93595335Y24376478D01*
X93836050Y24449498D01*
X94057895Y24568076D01*
X94252344Y24727656D01*
X94411924Y24922104D01*
X94530502Y25143949D01*
X94603522Y25384664D01*
X94605693Y25406706D01*
X94605693Y24835000D01*
X94614903Y24741492D01*
X94642178Y24651577D01*
X94686471Y24568711D01*
X94746079Y24496079D01*
X94818711Y24436471D01*
X94901577Y24392178D01*
X94991492Y24364903D01*
X95085000Y24355693D01*
X96685000Y24355693D01*
X96778508Y24364903D01*
X96868423Y24392178D01*
X96951289Y24436471D01*
X97023921Y24496079D01*
X97083529Y24568711D01*
X97127822Y24651577D01*
X97155097Y24741492D01*
X97164307Y24835000D01*
X97164307Y27235000D01*
X97155097Y27328508D01*
X97127822Y27418423D01*
X97083529Y27501289D01*
X97023921Y27573921D01*
X96951289Y27633529D01*
X96868423Y27677822D01*
X96778508Y27705097D01*
X96685000Y27714307D01*
X95085000Y27714307D01*
X94991492Y27705097D01*
X94901577Y27677822D01*
X94818711Y27633529D01*
X94746079Y27573921D01*
X94686471Y27501289D01*
X94642178Y27418423D01*
X94614903Y27328508D01*
X94605693Y27235000D01*
X94605693Y26663293D01*
X94603522Y26685336D01*
X94530502Y26926051D01*
X94411924Y27147896D01*
X94252344Y27342344D01*
X94057896Y27501924D01*
X93836051Y27620502D01*
X93595336Y27693522D01*
X93345000Y27718178D01*
X93094665Y27693522D01*
X92853950Y27620502D01*
X92632105Y27501924D01*
X92437657Y27342344D01*
X92278076Y27147896D01*
X92159498Y26926051D01*
X92086478Y26685336D01*
X92075000Y26568798D01*
X92063522Y26685336D01*
X91990502Y26926051D01*
X91871924Y27147896D01*
X91712344Y27342344D01*
X91517896Y27501924D01*
X91380864Y27575169D01*
X91373650Y27648412D01*
X91340657Y27757176D01*
X91287079Y27857415D01*
X91214974Y27945274D01*
X91192962Y27963339D01*
X87999768Y31156533D01*
X88002487Y31157074D01*
X88234886Y31253337D01*
X88444040Y31393089D01*
X88621911Y31570960D01*
X88761663Y31780114D01*
X88857926Y32012513D01*
X88907000Y32259226D01*
X88907000Y32510774D01*
X88857926Y32757487D01*
X88761663Y32989886D01*
X88621911Y33199040D01*
X88444040Y33376911D01*
X88234886Y33516663D01*
X88002487Y33612926D01*
X87755774Y33662000D01*
X87504226Y33662000D01*
X87257513Y33612926D01*
X87025114Y33516663D01*
X86815960Y33376911D01*
X86638089Y33199040D01*
X86498337Y32989886D01*
X86440389Y32849987D01*
X86387070Y32998881D01*
X86242385Y33240131D01*
X86053414Y33448519D01*
X85827420Y33616037D01*
X85573087Y33736246D01*
X85439039Y33776904D01*
X85217000Y33654915D01*
X85217000Y32512000D01*
X85237000Y32512000D01*
X85237000Y32258000D01*
X85217000Y32258000D01*
X85217000Y32238000D01*
X84963000Y32238000D01*
X84963000Y32258000D01*
X84943000Y32258000D01*
X84943000Y32512000D01*
X84963000Y32512000D01*
X84963000Y33654915D01*
X84740961Y33776904D01*
X84606913Y33736246D01*
X84352580Y33616037D01*
X84126586Y33448519D01*
X83937615Y33240131D01*
X83792930Y32998881D01*
X83739611Y32849987D01*
X83681663Y32989886D01*
X83541911Y33199040D01*
X83364040Y33376911D01*
X83154886Y33516663D01*
X82922487Y33612926D01*
X82675774Y33662000D01*
X82424226Y33662000D01*
X82177513Y33612926D01*
X81945554Y33516845D01*
X81947204Y33522285D01*
X81957000Y33621748D01*
X81957000Y33621757D01*
X81960274Y33654999D01*
X81957000Y33688241D01*
X81957000Y46488414D01*
X82177513Y46397074D01*
X82424226Y46348000D01*
X82675774Y46348000D01*
X82922487Y46397074D01*
X83154886Y46493337D01*
X83364040Y46633089D01*
X83541911Y46810960D01*
X83681663Y47020114D01*
X83777926Y47252513D01*
X83820000Y47464034D01*
X83862074Y47252513D01*
X83958337Y47020114D01*
X84098089Y46810960D01*
X84275960Y46633089D01*
X84485114Y46493337D01*
X84717513Y46397074D01*
X84964226Y46348000D01*
X85215774Y46348000D01*
X85462487Y46397074D01*
X85694886Y46493337D01*
X85904040Y46633089D01*
X86081911Y46810960D01*
X86221663Y47020114D01*
X86317926Y47252513D01*
X86350693Y47417245D01*
X86350693Y46825000D01*
X86359903Y46731492D01*
X86387178Y46641577D01*
X86431471Y46558711D01*
X86491079Y46486079D01*
X86563711Y46426471D01*
X86646577Y46382178D01*
X86736492Y46354903D01*
X86830000Y46345693D01*
X88430000Y46345693D01*
X88523508Y46354903D01*
X88613423Y46382178D01*
X88696289Y46426471D01*
X88768921Y46486079D01*
X88828529Y46558711D01*
X88872822Y46641577D01*
X88900097Y46731492D01*
X88909307Y46825000D01*
X88909307Y48425000D01*
X88900097Y48518508D01*
X88872822Y48608423D01*
X88828529Y48691289D01*
X88768921Y48763921D01*
X88696289Y48823529D01*
X88613423Y48867822D01*
X88523508Y48895097D01*
X88430000Y48904307D01*
X86830000Y48904307D01*
X86736492Y48895097D01*
X86646577Y48867822D01*
X86563711Y48823529D01*
X86491079Y48763921D01*
X86431471Y48691289D01*
X86387178Y48608423D01*
X86359903Y48518508D01*
X86350693Y48425000D01*
X86350693Y47832755D01*
X86317926Y47997487D01*
X86221663Y48229886D01*
X86081911Y48439040D01*
X85904040Y48616911D01*
X85694886Y48756663D01*
X85462487Y48852926D01*
X85215774Y48902000D01*
X84964226Y48902000D01*
X84717513Y48852926D01*
X84485114Y48756663D01*
X84275960Y48616911D01*
X84098089Y48439040D01*
X83958337Y48229886D01*
X83862074Y47997487D01*
X83820000Y47785966D01*
X83777926Y47997487D01*
X83681663Y48229886D01*
X83541911Y48439040D01*
X83364040Y48616911D01*
X83154886Y48756663D01*
X82922487Y48852926D01*
X82675774Y48902000D01*
X82424226Y48902000D01*
X82177513Y48852926D01*
X81957000Y48761586D01*
X81957000Y50637758D01*
X81960274Y50671003D01*
X81957000Y50704248D01*
X81957000Y50704254D01*
X81947204Y50803717D01*
X81908492Y50931332D01*
X81845628Y51048943D01*
X81828961Y51069252D01*
X81782224Y51126201D01*
X81782218Y51126207D01*
X81761026Y51152029D01*
X81735206Y51173219D01*
X70985226Y61923198D01*
X70964029Y61949027D01*
X70860943Y62033628D01*
X70743332Y62096492D01*
X70615717Y62135204D01*
X70516254Y62145000D01*
X70516247Y62145000D01*
X70483002Y62148274D01*
X70449757Y62145000D01*
X67987000Y62145000D01*
X67987000Y62991103D01*
X69420400Y62991103D01*
X69420400Y62847897D01*
X69448338Y62707442D01*
X69503141Y62575136D01*
X69582702Y62456064D01*
X69683964Y62354802D01*
X69803036Y62275241D01*
X69935342Y62220438D01*
X70075797Y62192500D01*
X70219003Y62192500D01*
X70359458Y62220438D01*
X70491764Y62275241D01*
X70592425Y62342500D01*
X77854169Y62342500D01*
X77882500Y62339710D01*
X77910831Y62342500D01*
X77910836Y62342500D01*
X77940545Y62345426D01*
X77995611Y62350849D01*
X78040270Y62364397D01*
X78104376Y62383843D01*
X78204615Y62437421D01*
X78292474Y62509526D01*
X78310539Y62531538D01*
X83468670Y67689669D01*
X83609087Y67549252D01*
X83826430Y67404028D01*
X84067928Y67303996D01*
X84324302Y67253000D01*
X84585698Y67253000D01*
X84842072Y67303996D01*
X85083570Y67404028D01*
X85300913Y67549252D01*
X85485748Y67734087D01*
X85630972Y67951430D01*
X85725000Y68178433D01*
X85819028Y67951430D01*
X85964252Y67734087D01*
X86149087Y67549252D01*
X86366430Y67404028D01*
X86607928Y67303996D01*
X86864302Y67253000D01*
X87125698Y67253000D01*
X87382072Y67303996D01*
X87623570Y67404028D01*
X87840913Y67549252D01*
X88025748Y67734087D01*
X88170972Y67951430D01*
X88271004Y68192928D01*
X88322000Y68449302D01*
X88322000Y68710698D01*
X88271004Y68967072D01*
X88170972Y69208570D01*
X88025748Y69425913D01*
X87840913Y69610748D01*
X87623570Y69755972D01*
X87382072Y69856004D01*
X87125698Y69907000D01*
X86864302Y69907000D01*
X86607928Y69856004D01*
X86366430Y69755972D01*
X86149087Y69610748D01*
X85964252Y69425913D01*
X85819028Y69208570D01*
X85725000Y68981567D01*
X85630972Y69208570D01*
X85485748Y69425913D01*
X85300913Y69610748D01*
X85083570Y69755972D01*
X84842072Y69856004D01*
X84585698Y69907000D01*
X84324302Y69907000D01*
X84067928Y69856004D01*
X83826430Y69755972D01*
X83609087Y69610748D01*
X83424252Y69425913D01*
X83279028Y69208570D01*
X83256872Y69155080D01*
X83191588Y69148650D01*
X83124252Y69128224D01*
X83090972Y69208570D01*
X82945748Y69425913D01*
X82760913Y69610748D01*
X82543570Y69755972D01*
X82302072Y69856004D01*
X82045698Y69907000D01*
X81784302Y69907000D01*
X81527928Y69856004D01*
X81286430Y69755972D01*
X81069087Y69610748D01*
X80884252Y69425913D01*
X80739028Y69208570D01*
X80645000Y68981567D01*
X80550972Y69208570D01*
X80405748Y69425913D01*
X80220913Y69610748D01*
X80003570Y69755972D01*
X79762072Y69856004D01*
X79505698Y69907000D01*
X79244302Y69907000D01*
X78987928Y69856004D01*
X78746430Y69755972D01*
X78529087Y69610748D01*
X78344252Y69425913D01*
X78199028Y69208570D01*
X78105000Y68981567D01*
X78010972Y69208570D01*
X77865748Y69425913D01*
X77680913Y69610748D01*
X77463570Y69755972D01*
X77222072Y69856004D01*
X76965698Y69907000D01*
X76704302Y69907000D01*
X76447928Y69856004D01*
X76206430Y69755972D01*
X75989087Y69610748D01*
X75804252Y69425913D01*
X75659028Y69208570D01*
X75648836Y69183965D01*
X75639157Y69211252D01*
X75490178Y69461355D01*
X75295269Y69677588D01*
X75061920Y69851641D01*
X74799099Y69976825D01*
X74651890Y70021476D01*
X74422000Y69900155D01*
X74422000Y68707000D01*
X74442000Y68707000D01*
X74442000Y68453000D01*
X74422000Y68453000D01*
X74422000Y67259845D01*
X74651890Y67138524D01*
X74799099Y67183175D01*
X75061920Y67308359D01*
X75295269Y67482412D01*
X75490178Y67698645D01*
X75639157Y67948748D01*
X75648836Y67976035D01*
X75659028Y67951430D01*
X75804252Y67734087D01*
X75989087Y67549252D01*
X76206430Y67404028D01*
X76447928Y67303996D01*
X76704302Y67253000D01*
X76965698Y67253000D01*
X77222072Y67303996D01*
X77463570Y67404028D01*
X77680913Y67549252D01*
X77865748Y67734087D01*
X78010972Y67951430D01*
X78105000Y68178433D01*
X78199028Y67951430D01*
X78344252Y67734087D01*
X78529087Y67549252D01*
X78746430Y67404028D01*
X78987928Y67303996D01*
X79244302Y67253000D01*
X79505698Y67253000D01*
X79762072Y67303996D01*
X80003570Y67404028D01*
X80220913Y67549252D01*
X80405748Y67734087D01*
X80550972Y67951430D01*
X80645000Y68178433D01*
X80739028Y67951430D01*
X80884252Y67734087D01*
X81069087Y67549252D01*
X81286430Y67404028D01*
X81473528Y67326529D01*
X77643499Y63496500D01*
X70592425Y63496500D01*
X70491764Y63563759D01*
X70359458Y63618562D01*
X70219003Y63646500D01*
X70075797Y63646500D01*
X69935342Y63618562D01*
X69803036Y63563759D01*
X69683964Y63484198D01*
X69582702Y63382936D01*
X69503141Y63263864D01*
X69448338Y63131558D01*
X69420400Y62991103D01*
X67987000Y62991103D01*
X67987000Y67609799D01*
X67995097Y67636492D01*
X68004307Y67730000D01*
X68004307Y68035254D01*
X68039028Y67951430D01*
X68184252Y67734087D01*
X68369087Y67549252D01*
X68586430Y67404028D01*
X68827928Y67303996D01*
X69084302Y67253000D01*
X69345698Y67253000D01*
X69602072Y67303996D01*
X69843570Y67404028D01*
X70060913Y67549252D01*
X70245748Y67734087D01*
X70390972Y67951430D01*
X70485000Y68178433D01*
X70579028Y67951430D01*
X70724252Y67734087D01*
X70909087Y67549252D01*
X71126430Y67404028D01*
X71367928Y67303996D01*
X71624302Y67253000D01*
X71885698Y67253000D01*
X72142072Y67303996D01*
X72383570Y67404028D01*
X72600913Y67549252D01*
X72785748Y67734087D01*
X72930972Y67951430D01*
X72941164Y67976035D01*
X72950843Y67948748D01*
X73099822Y67698645D01*
X73294731Y67482412D01*
X73528080Y67308359D01*
X73790901Y67183175D01*
X73938110Y67138524D01*
X74168000Y67259845D01*
X74168000Y68453000D01*
X74148000Y68453000D01*
X74148000Y68707000D01*
X74168000Y68707000D01*
X74168000Y69900155D01*
X73938110Y70021476D01*
X73790901Y69976825D01*
X73528080Y69851641D01*
X73294731Y69677588D01*
X73099822Y69461355D01*
X72950843Y69211252D01*
X72941164Y69183965D01*
X72930972Y69208570D01*
X72785748Y69425913D01*
X72600913Y69610748D01*
X72383570Y69755972D01*
X72142072Y69856004D01*
X71885698Y69907000D01*
X71624302Y69907000D01*
X71367928Y69856004D01*
X71126430Y69755972D01*
X70909087Y69610748D01*
X70724252Y69425913D01*
X70579028Y69208570D01*
X70485000Y68981567D01*
X70390972Y69208570D01*
X70245748Y69425913D01*
X70060913Y69610748D01*
X69843570Y69755972D01*
X69602072Y69856004D01*
X69345698Y69907000D01*
X69084302Y69907000D01*
X68827928Y69856004D01*
X68586430Y69755972D01*
X68369087Y69610748D01*
X68184252Y69425913D01*
X68039028Y69208570D01*
X68004307Y69124746D01*
X68004307Y69430000D01*
X67995097Y69523508D01*
X67967822Y69613423D01*
X67923529Y69696289D01*
X67863921Y69768921D01*
X67791289Y69828529D01*
X67708423Y69872822D01*
X67618508Y69900097D01*
X67525000Y69909307D01*
X65825000Y69909307D01*
X65731492Y69900097D01*
X65641577Y69872822D01*
X65558711Y69828529D01*
X65486079Y69768921D01*
X65426471Y69696289D01*
X65382178Y69613423D01*
X65354903Y69523508D01*
X65345693Y69430000D01*
X65345693Y67730000D01*
X65354903Y67636492D01*
X65382178Y67546577D01*
X65426471Y67463711D01*
X65486079Y67391079D01*
X65558711Y67331471D01*
X65641577Y67287178D01*
X65731492Y67259903D01*
X65825000Y67250693D01*
X66633001Y67250693D01*
X66633000Y62145000D01*
X59970422Y62145000D01*
X56890226Y65225196D01*
X56869027Y65251027D01*
X56765941Y65335628D01*
X56648330Y65398492D01*
X56520715Y65437204D01*
X56421252Y65447000D01*
X56421245Y65447000D01*
X56388000Y65450274D01*
X56354755Y65447000D01*
X55693478Y65447000D01*
X55601911Y65584040D01*
X55424040Y65761911D01*
X55214886Y65901663D01*
X55136300Y65934214D01*
X55226292Y65966397D01*
X55351514Y66033329D01*
X55423097Y66277298D01*
X54610000Y67090395D01*
X53796903Y66277298D01*
X53868486Y66033329D01*
X54080636Y65932945D01*
X54005114Y65901663D01*
X53795960Y65761911D01*
X53618089Y65584040D01*
X53526522Y65447000D01*
X51477000Y65447000D01*
X51477000Y67199488D01*
X53169783Y67199488D01*
X53211213Y66919870D01*
X53306397Y66653708D01*
X53373329Y66528486D01*
X53617298Y66456903D01*
X54430395Y67270000D01*
X54789605Y67270000D01*
X55602702Y66456903D01*
X55846671Y66528486D01*
X55967571Y66783996D01*
X56036300Y67058184D01*
X56050217Y67340512D01*
X56008787Y67620130D01*
X55913603Y67886292D01*
X55846671Y68011514D01*
X55602702Y68083097D01*
X54789605Y67270000D01*
X54430395Y67270000D01*
X53617298Y68083097D01*
X53373329Y68011514D01*
X53252429Y67756004D01*
X53183700Y67481816D01*
X53169783Y67199488D01*
X51477000Y67199488D01*
X51477000Y68262702D01*
X53796903Y68262702D01*
X54610000Y67449605D01*
X55423097Y68262702D01*
X55351514Y68506671D01*
X55096004Y68627571D01*
X54821816Y68696300D01*
X54539488Y68710217D01*
X54259870Y68668787D01*
X53993708Y68573603D01*
X53868486Y68506671D01*
X53796903Y68262702D01*
X51477000Y68262702D01*
X51477000Y72315693D01*
X51600000Y72315693D01*
X51693508Y72324903D01*
X51783423Y72352178D01*
X51866289Y72396471D01*
X51938921Y72456079D01*
X51998529Y72528711D01*
X52042822Y72611577D01*
X52070097Y72701492D01*
X52079307Y72795000D01*
X52079307Y75195000D01*
X52070097Y75288508D01*
X52042822Y75378423D01*
X51998529Y75461289D01*
X51938921Y75533921D01*
X51866289Y75593529D01*
X51783423Y75637822D01*
X51693508Y75665097D01*
X51600000Y75674307D01*
X50842000Y75674307D01*
X50842000Y89889578D01*
X55550055Y94597633D01*
X55749302Y94558000D01*
X56010698Y94558000D01*
X56267072Y94608996D01*
X56508570Y94709028D01*
X56725913Y94854252D01*
X56910748Y95039087D01*
X57055972Y95256430D01*
X57156004Y95497928D01*
X57207000Y95754302D01*
X57207000Y96015698D01*
X57156004Y96272072D01*
X57055972Y96513570D01*
X56964346Y96650698D01*
X65348000Y96650698D01*
X65348000Y96389302D01*
X65398996Y96132928D01*
X65499028Y95891430D01*
X65644252Y95674087D01*
X65829087Y95489252D01*
X66046430Y95344028D01*
X66273433Y95250000D01*
X66046430Y95155972D01*
X65829087Y95010748D01*
X65644252Y94825913D01*
X65499028Y94608570D01*
X65398996Y94367072D01*
X65348000Y94110698D01*
X65348000Y93849302D01*
X65398996Y93592928D01*
X65499028Y93351430D01*
X65644252Y93134087D01*
X65829087Y92949252D01*
X66046430Y92804028D01*
X66287928Y92703996D01*
X66544302Y92653000D01*
X66805698Y92653000D01*
X67062072Y92703996D01*
X67303570Y92804028D01*
X67520913Y92949252D01*
X67705748Y93134087D01*
X67850972Y93351430D01*
X67951004Y93592928D01*
X68002000Y93849302D01*
X68002000Y94110698D01*
X67951004Y94367072D01*
X67850972Y94608570D01*
X67705748Y94825913D01*
X67520913Y95010748D01*
X67303570Y95155972D01*
X67076567Y95250000D01*
X67303570Y95344028D01*
X67520913Y95489252D01*
X67705748Y95674087D01*
X67850972Y95891430D01*
X67951004Y96132928D01*
X68002000Y96389302D01*
X68002000Y96650698D01*
X85668000Y96650698D01*
X85668000Y96389302D01*
X85718996Y96132928D01*
X85819028Y95891430D01*
X85964252Y95674087D01*
X86149087Y95489252D01*
X86366430Y95344028D01*
X86593433Y95250000D01*
X86366430Y95155972D01*
X86149087Y95010748D01*
X85964252Y94825913D01*
X85819028Y94608570D01*
X85718996Y94367072D01*
X85668000Y94110698D01*
X85668000Y93849302D01*
X85718996Y93592928D01*
X85819028Y93351430D01*
X85964252Y93134087D01*
X86149087Y92949252D01*
X86366430Y92804028D01*
X86607928Y92703996D01*
X86864302Y92653000D01*
X87125698Y92653000D01*
X87382072Y92703996D01*
X87623570Y92804028D01*
X87840913Y92949252D01*
X88025748Y93134087D01*
X88170972Y93351430D01*
X88271004Y93592928D01*
X88322000Y93849302D01*
X88322000Y94110698D01*
X88271004Y94367072D01*
X88170972Y94608570D01*
X88025748Y94825913D01*
X87840913Y95010748D01*
X87623570Y95155972D01*
X87506252Y95204567D01*
X92923000Y95204567D01*
X92923000Y94795433D01*
X93002818Y94394161D01*
X93159386Y94016171D01*
X93386689Y93675989D01*
X93675989Y93386689D01*
X94016171Y93159386D01*
X94394161Y93002818D01*
X94795433Y92923000D01*
X95204567Y92923000D01*
X95605839Y93002818D01*
X95983829Y93159386D01*
X96324011Y93386689D01*
X96613311Y93675989D01*
X96840614Y94016171D01*
X96997182Y94394161D01*
X97077000Y94795433D01*
X97077000Y95204567D01*
X96997182Y95605839D01*
X96840614Y95983829D01*
X96613311Y96324011D01*
X96324011Y96613311D01*
X95983829Y96840614D01*
X95605839Y96997182D01*
X95204567Y97077000D01*
X94795433Y97077000D01*
X94394161Y96997182D01*
X94016171Y96840614D01*
X93675989Y96613311D01*
X93386689Y96324011D01*
X93159386Y95983829D01*
X93002818Y95605839D01*
X92923000Y95204567D01*
X87506252Y95204567D01*
X87396567Y95250000D01*
X87623570Y95344028D01*
X87840913Y95489252D01*
X88025748Y95674087D01*
X88170972Y95891430D01*
X88271004Y96132928D01*
X88322000Y96389302D01*
X88322000Y96650698D01*
X88271004Y96907072D01*
X88170972Y97148570D01*
X88025748Y97365913D01*
X87840913Y97550748D01*
X87623570Y97695972D01*
X87382072Y97796004D01*
X87125698Y97847000D01*
X86864302Y97847000D01*
X86607928Y97796004D01*
X86366430Y97695972D01*
X86149087Y97550748D01*
X85964252Y97365913D01*
X85819028Y97148570D01*
X85718996Y96907072D01*
X85668000Y96650698D01*
X68002000Y96650698D01*
X67951004Y96907072D01*
X67850972Y97148570D01*
X67705748Y97365913D01*
X67520913Y97550748D01*
X67303570Y97695972D01*
X67062072Y97796004D01*
X66805698Y97847000D01*
X66544302Y97847000D01*
X66287928Y97796004D01*
X66046430Y97695972D01*
X65829087Y97550748D01*
X65644252Y97365913D01*
X65499028Y97148570D01*
X65398996Y96907072D01*
X65348000Y96650698D01*
X56964346Y96650698D01*
X56910748Y96730913D01*
X56725913Y96915748D01*
X56508570Y97060972D01*
X56267072Y97161004D01*
X56010698Y97212000D01*
X55749302Y97212000D01*
X55492928Y97161004D01*
X55251430Y97060972D01*
X55034087Y96915748D01*
X54849252Y96730913D01*
X54704028Y96513570D01*
X54610000Y96286567D01*
X54515972Y96513570D01*
X54370748Y96730913D01*
X54185913Y96915748D01*
X53968570Y97060972D01*
X53727072Y97161004D01*
X53470698Y97212000D01*
X53209302Y97212000D01*
X52952928Y97161004D01*
X52711430Y97060972D01*
X52494087Y96915748D01*
X52309252Y96730913D01*
X52287876Y96698921D01*
X52288072Y96735000D01*
X52275812Y96859482D01*
X52239502Y96979180D01*
X52180537Y97089494D01*
X52101185Y97186185D01*
X52004494Y97265537D01*
X51894180Y97324502D01*
X51774482Y97360812D01*
X51650000Y97373072D01*
X51085750Y97370000D01*
X50927000Y97211250D01*
X50927000Y96012000D01*
X50947000Y96012000D01*
X50947000Y95758000D01*
X50927000Y95758000D01*
X50927000Y94558750D01*
X51085750Y94400000D01*
X51650000Y94396928D01*
X51774482Y94409188D01*
X51894180Y94445498D01*
X52004494Y94504463D01*
X52101185Y94583815D01*
X52180537Y94680506D01*
X52239502Y94790820D01*
X52275812Y94910518D01*
X52288072Y95035000D01*
X52287876Y95071079D01*
X52309252Y95039087D01*
X52494087Y94854252D01*
X52711430Y94709028D01*
X52952928Y94608996D01*
X53209302Y94558000D01*
X53470698Y94558000D01*
X53626585Y94589008D01*
X49884578Y90847000D01*
X46999307Y90847000D01*
X46999307Y90970000D01*
X46990097Y91063508D01*
X46962822Y91153423D01*
X46918529Y91236289D01*
X46858921Y91308921D01*
X46786289Y91368529D01*
X46703423Y91412822D01*
X46613508Y91440097D01*
X46520000Y91449307D01*
X46397000Y91449307D01*
X46397000Y93891748D01*
X46400275Y93925000D01*
X46387204Y94057715D01*
X46348492Y94185330D01*
X46285628Y94302941D01*
X46222224Y94380199D01*
X46222218Y94380205D01*
X46201026Y94406027D01*
X46175206Y94427217D01*
X45567423Y95035000D01*
X49311928Y95035000D01*
X49324188Y94910518D01*
X49360498Y94790820D01*
X49419463Y94680506D01*
X49498815Y94583815D01*
X49595506Y94504463D01*
X49705820Y94445498D01*
X49825518Y94409188D01*
X49950000Y94396928D01*
X50514250Y94400000D01*
X50673000Y94558750D01*
X50673000Y95758000D01*
X49473750Y95758000D01*
X49315000Y95599250D01*
X49311928Y95035000D01*
X45567423Y95035000D01*
X43867423Y96735000D01*
X49311928Y96735000D01*
X49315000Y96170750D01*
X49473750Y96012000D01*
X50673000Y96012000D01*
X50673000Y97211250D01*
X50514250Y97370000D01*
X49950000Y97373072D01*
X49825518Y97360812D01*
X49705820Y97324502D01*
X49595506Y97265537D01*
X49498815Y97186185D01*
X49419463Y97089494D01*
X49360498Y96979180D01*
X49324188Y96859482D01*
X49311928Y96735000D01*
X43867423Y96735000D01*
X43012226Y97590196D01*
X42991027Y97616027D01*
X42887941Y97700628D01*
X42770330Y97763492D01*
X42642715Y97802204D01*
X42543252Y97812000D01*
X42543245Y97812000D01*
X42510000Y97815274D01*
X42476755Y97812000D01*
X40653245Y97812000D01*
X40620000Y97815274D01*
X40586755Y97812000D01*
X40586748Y97812000D01*
X40487285Y97802204D01*
X40359670Y97763492D01*
X40242059Y97700628D01*
X40138973Y97616027D01*
X40117778Y97590201D01*
X39699945Y97172367D01*
X39500698Y97212000D01*
X39239302Y97212000D01*
X38982928Y97161004D01*
X38741430Y97060972D01*
X38524087Y96915748D01*
X38339252Y96730913D01*
X38194028Y96513570D01*
X38159307Y96429746D01*
X38159307Y96735000D01*
X38150097Y96828508D01*
X38122822Y96918423D01*
X38078529Y97001289D01*
X38018921Y97073921D01*
X37946289Y97133529D01*
X37863423Y97177822D01*
X37773508Y97205097D01*
X37680000Y97214307D01*
X35980000Y97214307D01*
X35886492Y97205097D01*
X35796577Y97177822D01*
X35713711Y97133529D01*
X35641079Y97073921D01*
X35581471Y97001289D01*
X35537178Y96918423D01*
X35509903Y96828508D01*
X35500693Y96735000D01*
X35500693Y96562000D01*
X20353252Y96562000D01*
X20320000Y96565275D01*
X20286748Y96562000D01*
X20187285Y96552204D01*
X20059670Y96513492D01*
X19942059Y96450628D01*
X19838973Y96366027D01*
X19817778Y96340201D01*
X11455992Y87978414D01*
X11487000Y88134302D01*
X11487000Y88395698D01*
X11436004Y88652072D01*
X11335972Y88893570D01*
X11190748Y89110913D01*
X11005913Y89295748D01*
X10788570Y89440972D01*
X10547072Y89541004D01*
X10290698Y89592000D01*
X10029302Y89592000D01*
X9772928Y89541004D01*
X9531430Y89440972D01*
X9314087Y89295748D01*
X9129252Y89110913D01*
X8984028Y88893570D01*
X8883996Y88652072D01*
X8833000Y88395698D01*
X8833000Y88134302D01*
X8883996Y87877928D01*
X8984028Y87636430D01*
X9129252Y87419087D01*
X9314087Y87234252D01*
X9531430Y87089028D01*
X9615254Y87054307D01*
X9310000Y87054307D01*
X9216492Y87045097D01*
X9126577Y87017822D01*
X9043711Y86973529D01*
X8971079Y86913921D01*
X8911471Y86841289D01*
X8867178Y86758423D01*
X8839903Y86668508D01*
X8830693Y86575000D01*
X8830693Y84875000D01*
X8839903Y84781492D01*
X8867178Y84691577D01*
X8911471Y84608711D01*
X8971079Y84536079D01*
X9043711Y84476471D01*
X9126577Y84432178D01*
X9216492Y84404903D01*
X9310000Y84395693D01*
X11010000Y84395693D01*
X11103508Y84404903D01*
X11193423Y84432178D01*
X11276289Y84476471D01*
X11348921Y84536079D01*
X11408529Y84608711D01*
X11452822Y84691577D01*
X11480097Y84781492D01*
X11489307Y84875000D01*
X11489307Y86096885D01*
X14357422Y88965000D01*
X16565693Y88965000D01*
X16565693Y87215000D01*
X16591716Y86950788D01*
X16668783Y86696729D01*
X16793935Y86462587D01*
X16962360Y86257360D01*
X17167587Y86088935D01*
X17401729Y85963783D01*
X17655788Y85886716D01*
X17920000Y85860693D01*
X19670000Y85860693D01*
X19934212Y85886716D01*
X20188271Y85963783D01*
X20422413Y86088935D01*
X20627640Y86257360D01*
X20796065Y86462587D01*
X20921217Y86696729D01*
X20998284Y86950788D01*
X21024307Y87215000D01*
X21024307Y88965000D01*
X20998284Y89229212D01*
X20921217Y89483271D01*
X20864169Y89590000D01*
X21106928Y89590000D01*
X21119188Y89465518D01*
X21155498Y89345820D01*
X21214463Y89235506D01*
X21293815Y89138815D01*
X21390506Y89059463D01*
X21500820Y89000498D01*
X21620518Y88964188D01*
X21745000Y88951928D01*
X23209250Y88955000D01*
X23368000Y89113750D01*
X23368000Y90963000D01*
X23622000Y90963000D01*
X23622000Y89113750D01*
X23780750Y88955000D01*
X25245000Y88951928D01*
X25369482Y88964188D01*
X25489180Y89000498D01*
X25599494Y89059463D01*
X25696185Y89138815D01*
X25775537Y89235506D01*
X25834502Y89345820D01*
X25870812Y89465518D01*
X25883072Y89590000D01*
X25880000Y90804250D01*
X25721250Y90963000D01*
X23622000Y90963000D01*
X23368000Y90963000D01*
X21268750Y90963000D01*
X21110000Y90804250D01*
X21106928Y89590000D01*
X20864169Y89590000D01*
X20796065Y89717413D01*
X20627640Y89922640D01*
X20422413Y90091065D01*
X20188271Y90216217D01*
X19934212Y90293284D01*
X19670000Y90319307D01*
X17920000Y90319307D01*
X17655788Y90293284D01*
X17401729Y90216217D01*
X17167587Y90091065D01*
X16962360Y89922640D01*
X16793935Y89717413D01*
X16668783Y89483271D01*
X16591716Y89229212D01*
X16565693Y88965000D01*
X14357422Y88965000D01*
X17982422Y92590000D01*
X21106928Y92590000D01*
X21110000Y91375750D01*
X21268750Y91217000D01*
X23368000Y91217000D01*
X23368000Y93066250D01*
X23622000Y93066250D01*
X23622000Y91217000D01*
X25721250Y91217000D01*
X25880000Y91375750D01*
X25883072Y92590000D01*
X25870812Y92714482D01*
X25834502Y92834180D01*
X25775537Y92944494D01*
X25696185Y93041185D01*
X25599494Y93120537D01*
X25489180Y93179502D01*
X25369482Y93215812D01*
X25245000Y93228072D01*
X23780750Y93225000D01*
X23622000Y93066250D01*
X23368000Y93066250D01*
X23209250Y93225000D01*
X21745000Y93228072D01*
X21620518Y93215812D01*
X21500820Y93179502D01*
X21390506Y93120537D01*
X21293815Y93041185D01*
X21214463Y92944494D01*
X21155498Y92834180D01*
X21119188Y92714482D01*
X21106928Y92590000D01*
X17982422Y92590000D01*
X20600423Y95208000D01*
X35500693Y95208000D01*
X35500693Y95035000D01*
X35509903Y94941492D01*
X35537178Y94851577D01*
X35581471Y94768711D01*
X35641079Y94696079D01*
X35713711Y94636471D01*
X35796577Y94592178D01*
X35886492Y94564903D01*
X35980000Y94555693D01*
X37680000Y94555693D01*
X37773508Y94564903D01*
X37863423Y94592178D01*
X37946289Y94636471D01*
X38018921Y94696079D01*
X38078529Y94768711D01*
X38122822Y94851577D01*
X38150097Y94941492D01*
X38159307Y95035000D01*
X38159307Y95340254D01*
X38194028Y95256430D01*
X38339252Y95039087D01*
X38524087Y94854252D01*
X38741430Y94709028D01*
X38982928Y94608996D01*
X39239302Y94558000D01*
X39500698Y94558000D01*
X39656586Y94589008D01*
X30834578Y85767000D01*
X25724307Y85767000D01*
X25724307Y86840000D01*
X25715097Y86933508D01*
X25687822Y87023423D01*
X25643529Y87106289D01*
X25583921Y87178921D01*
X25511289Y87238529D01*
X25428423Y87282822D01*
X25338508Y87310097D01*
X25245000Y87319307D01*
X21745000Y87319307D01*
X21651492Y87310097D01*
X21561577Y87282822D01*
X21478711Y87238529D01*
X21406079Y87178921D01*
X21346471Y87106289D01*
X21302178Y87023423D01*
X21274903Y86933508D01*
X21265693Y86840000D01*
X21265693Y83340000D01*
X21274903Y83246492D01*
X21302178Y83156577D01*
X21346471Y83073711D01*
X21406079Y83001079D01*
X21478711Y82941471D01*
X21561577Y82897178D01*
X21651492Y82869903D01*
X21745000Y82860693D01*
X25245000Y82860693D01*
X25338508Y82869903D01*
X25428423Y82897178D01*
X25511289Y82941471D01*
X25583921Y83001079D01*
X25643529Y83073711D01*
X25687822Y83156577D01*
X25715097Y83246492D01*
X25724307Y83340000D01*
X25724307Y84413000D01*
X31081755Y84413000D01*
X31115000Y84409726D01*
X31148245Y84413000D01*
X31148252Y84413000D01*
X31247715Y84422796D01*
X31375330Y84461508D01*
X31492941Y84524372D01*
X31596027Y84608973D01*
X31617226Y84634804D01*
X33659720Y86677298D01*
X44906903Y86677298D01*
X44978486Y86433329D01*
X45233996Y86312429D01*
X45508184Y86243700D01*
X45790512Y86229783D01*
X46070130Y86271213D01*
X46336292Y86366397D01*
X46461514Y86433329D01*
X46533097Y86677298D01*
X45720000Y87490395D01*
X44906903Y86677298D01*
X33659720Y86677298D01*
X34581910Y87599488D01*
X44279783Y87599488D01*
X44321213Y87319870D01*
X44416397Y87053708D01*
X44483329Y86928486D01*
X44727298Y86856903D01*
X45540395Y87670000D01*
X45899605Y87670000D01*
X46712702Y86856903D01*
X46956671Y86928486D01*
X47077571Y87183996D01*
X47146300Y87458184D01*
X47160217Y87740512D01*
X47118787Y88020130D01*
X47023603Y88286292D01*
X46956671Y88411514D01*
X46712702Y88483097D01*
X45899605Y87670000D01*
X45540395Y87670000D01*
X44727298Y88483097D01*
X44483329Y88411514D01*
X44362429Y88156004D01*
X44293700Y87881816D01*
X44279783Y87599488D01*
X34581910Y87599488D01*
X41580055Y94597633D01*
X41779302Y94558000D01*
X42040698Y94558000D01*
X42297072Y94608996D01*
X42538570Y94709028D01*
X42755913Y94854252D01*
X42940748Y95039087D01*
X43085972Y95256430D01*
X43186004Y95497928D01*
X43186609Y95500969D01*
X45043000Y93644577D01*
X45043001Y91449307D01*
X44920000Y91449307D01*
X44826492Y91440097D01*
X44736577Y91412822D01*
X44653711Y91368529D01*
X44581079Y91308921D01*
X44521471Y91236289D01*
X44477178Y91153423D01*
X44449903Y91063508D01*
X44440693Y90970000D01*
X44440693Y89370000D01*
X44449903Y89276492D01*
X44477178Y89186577D01*
X44521471Y89103711D01*
X44581079Y89031079D01*
X44653711Y88971471D01*
X44736577Y88927178D01*
X44826492Y88899903D01*
X44920000Y88890693D01*
X44973798Y88890693D01*
X44906903Y88662702D01*
X45720000Y87849605D01*
X46533097Y88662702D01*
X46466202Y88890693D01*
X46520000Y88890693D01*
X46613508Y88899903D01*
X46703423Y88927178D01*
X46786289Y88971471D01*
X46858921Y89031079D01*
X46918529Y89103711D01*
X46962822Y89186577D01*
X46990097Y89276492D01*
X46999307Y89370000D01*
X46999307Y89493000D01*
X48911013Y89493000D01*
X48909064Y89491698D01*
X48807802Y89390436D01*
X48728241Y89271364D01*
X48673438Y89139058D01*
X48649820Y89020321D01*
X47872038Y88242539D01*
X47850026Y88224474D01*
X47777921Y88136614D01*
X47724343Y88036375D01*
X47710796Y87991717D01*
X47691349Y87927611D01*
X47680210Y87814500D01*
X47683000Y87786169D01*
X47683001Y75534561D01*
X47547105Y75461924D01*
X47352657Y75302344D01*
X47193076Y75107896D01*
X47074498Y74886051D01*
X47001478Y74645336D01*
X46990000Y74528798D01*
X46978522Y74645336D01*
X46905502Y74886051D01*
X46786924Y75107896D01*
X46627344Y75302344D01*
X46432896Y75461924D01*
X46211051Y75580502D01*
X45970336Y75653522D01*
X45720000Y75678178D01*
X45469665Y75653522D01*
X45228950Y75580502D01*
X45007105Y75461924D01*
X44812657Y75302344D01*
X44653076Y75107896D01*
X44534498Y74886051D01*
X44461478Y74645336D01*
X44450000Y74528798D01*
X44438522Y74645336D01*
X44365502Y74886051D01*
X44246924Y75107896D01*
X44087344Y75302344D01*
X43892896Y75461924D01*
X43671051Y75580502D01*
X43430336Y75653522D01*
X43180000Y75678178D01*
X42929665Y75653522D01*
X42688950Y75580502D01*
X42467105Y75461924D01*
X42272657Y75302344D01*
X42113076Y75107896D01*
X41994498Y74886051D01*
X41921478Y74645336D01*
X41910000Y74528798D01*
X41898522Y74645336D01*
X41825502Y74886051D01*
X41706924Y75107896D01*
X41547344Y75302344D01*
X41352896Y75461924D01*
X41131051Y75580502D01*
X40890336Y75653522D01*
X40640000Y75678178D01*
X40389665Y75653522D01*
X40148950Y75580502D01*
X39927105Y75461924D01*
X39732657Y75302344D01*
X39573076Y75107896D01*
X39454498Y74886051D01*
X39381478Y74645336D01*
X39370000Y74528798D01*
X39358522Y74645336D01*
X39285502Y74886051D01*
X39166924Y75107896D01*
X39007344Y75302344D01*
X38812896Y75461924D01*
X38591051Y75580502D01*
X38350336Y75653522D01*
X38100000Y75678178D01*
X37849665Y75653522D01*
X37608950Y75580502D01*
X37387105Y75461924D01*
X37192657Y75302344D01*
X37033076Y75107896D01*
X36914498Y74886051D01*
X36841478Y74645336D01*
X36830000Y74528798D01*
X36818522Y74645336D01*
X36745502Y74886051D01*
X36626924Y75107896D01*
X36467344Y75302344D01*
X36272896Y75461924D01*
X36051051Y75580502D01*
X35810336Y75653522D01*
X35560000Y75678178D01*
X35309665Y75653522D01*
X35068950Y75580502D01*
X34847105Y75461924D01*
X34652657Y75302344D01*
X34493076Y75107896D01*
X34374498Y74886051D01*
X34301478Y74645336D01*
X34290000Y74528798D01*
X34278522Y74645336D01*
X34205502Y74886051D01*
X34086924Y75107896D01*
X33927344Y75302344D01*
X33732896Y75461924D01*
X33511051Y75580502D01*
X33270336Y75653522D01*
X33020000Y75678178D01*
X32769665Y75653522D01*
X32528950Y75580502D01*
X32307105Y75461924D01*
X32112657Y75302344D01*
X31953076Y75107896D01*
X31834498Y74886051D01*
X31761478Y74645336D01*
X31750000Y74528798D01*
X31738522Y74645336D01*
X31665502Y74886051D01*
X31546924Y75107896D01*
X31387344Y75302344D01*
X31192896Y75461924D01*
X30971051Y75580502D01*
X30730336Y75653522D01*
X30480000Y75678178D01*
X30229665Y75653522D01*
X29988950Y75580502D01*
X29767105Y75461924D01*
X29572657Y75302344D01*
X29553682Y75279223D01*
X29550479Y75285215D01*
X29478374Y75373074D01*
X29456363Y75391138D01*
X26959539Y77887962D01*
X26941474Y77909974D01*
X26853615Y77982079D01*
X26753376Y78035657D01*
X26689270Y78055103D01*
X26644611Y78068651D01*
X26589545Y78074074D01*
X26559836Y78077000D01*
X26559831Y78077000D01*
X26531500Y78079790D01*
X26503169Y78077000D01*
X9329307Y78077000D01*
X9329307Y78350000D01*
X9320097Y78443508D01*
X9292822Y78533423D01*
X9248529Y78616289D01*
X9188921Y78688921D01*
X9116289Y78748529D01*
X9033423Y78792822D01*
X8943508Y78820097D01*
X8850000Y78829307D01*
X7150000Y78829307D01*
X7056492Y78820097D01*
X6966577Y78792822D01*
X6883711Y78748529D01*
X6811079Y78688921D01*
X6751471Y78616289D01*
X6707178Y78533423D01*
X6679903Y78443508D01*
X6670693Y78350000D01*
X6670693Y78044746D01*
X6635972Y78128570D01*
X6490748Y78345913D01*
X6305913Y78530748D01*
X6088570Y78675972D01*
X5847072Y78776004D01*
X5590698Y78827000D01*
X5329302Y78827000D01*
X5072928Y78776004D01*
X4831430Y78675972D01*
X4614087Y78530748D01*
X4429252Y78345913D01*
X4284028Y78128570D01*
X4183996Y77887072D01*
X4133000Y77630698D01*
X4133000Y77369302D01*
X4183996Y77112928D01*
X4284028Y76871430D01*
X4429252Y76654087D01*
X4614087Y76469252D01*
X4831430Y76324028D01*
X5058433Y76230000D01*
X4831430Y76135972D01*
X4614087Y75990748D01*
X4429252Y75805913D01*
X4284028Y75588570D01*
X4183996Y75347072D01*
X4133000Y75090698D01*
X4133000Y74829302D01*
X4183996Y74572928D01*
X4284028Y74331430D01*
X4429252Y74114087D01*
X4614087Y73929252D01*
X4831430Y73784028D01*
X4856035Y73773836D01*
X4828748Y73764157D01*
X4578645Y73615178D01*
X4362412Y73420269D01*
X4188359Y73186920D01*
X4063175Y72924099D01*
X4018524Y72776890D01*
X4139845Y72547000D01*
X5333000Y72547000D01*
X5333000Y72567000D01*
X5587000Y72567000D01*
X5587000Y72547000D01*
X5607000Y72547000D01*
X5607000Y72293000D01*
X5587000Y72293000D01*
X5587000Y72273000D01*
X5333000Y72273000D01*
X5333000Y72293000D01*
X4139845Y72293000D01*
X4018524Y72063110D01*
X4063175Y71915901D01*
X4188359Y71653080D01*
X4362412Y71419731D01*
X4578645Y71224822D01*
X4828748Y71075843D01*
X4856035Y71066164D01*
X4831430Y71055972D01*
X4614087Y70910748D01*
X4429252Y70725913D01*
X4284028Y70508570D01*
X4183996Y70267072D01*
X4133000Y70010698D01*
X4133000Y69749302D01*
X4183996Y69492928D01*
X4284028Y69251430D01*
X4429252Y69034087D01*
X4545069Y68918270D01*
X2488434Y66861635D01*
X2466427Y66843574D01*
X2448366Y66821567D01*
X2448363Y66821564D01*
X2425240Y66793388D01*
X2394322Y66755715D01*
X2378042Y66725257D01*
X2340744Y66655476D01*
X2307749Y66546711D01*
X2296610Y66433600D01*
X627000Y66433600D01*
X627000Y95204567D01*
X2923000Y95204567D01*
X2923000Y94795433D01*
X3002818Y94394161D01*
X3159386Y94016171D01*
X3386689Y93675989D01*
X3675989Y93386689D01*
X4016171Y93159386D01*
X4394161Y93002818D01*
X4795433Y92923000D01*
X5204567Y92923000D01*
X5605839Y93002818D01*
X5983829Y93159386D01*
X6324011Y93386689D01*
X6613311Y93675989D01*
X6840614Y94016171D01*
X6997182Y94394161D01*
X7077000Y94795433D01*
X7077000Y95204567D01*
X6997182Y95605839D01*
X6840614Y95983829D01*
X6613311Y96324011D01*
X6324011Y96613311D01*
X5983829Y96840614D01*
X5605839Y96997182D01*
X5204567Y97077000D01*
X4795433Y97077000D01*
X4394161Y96997182D01*
X4016171Y96840614D01*
X3675989Y96613311D01*
X3386689Y96324011D01*
X3159386Y95983829D01*
X3002818Y95605839D01*
X2923000Y95204567D01*
X627000Y95204567D01*
X627000Y99373000D01*
X99373000Y99373000D01*
X99373000Y627000D01*
G37*
G04 #@! TD.AperFunction*
D21*
X35482104Y25203076D02*
X35703949Y25084498D01*
X35944664Y25011478D01*
X36195000Y24986822D01*
X36445335Y25011478D01*
X36686050Y25084498D01*
X36775349Y25132229D01*
X41233000Y20674577D01*
X41233001Y16619058D01*
X40997702Y16688097D01*
X40184605Y15875000D01*
X40198748Y15860857D01*
X40019143Y15681252D01*
X40005000Y15695395D01*
X39990858Y15681252D01*
X39811253Y15860857D01*
X39825395Y15875000D01*
X39811253Y15889142D01*
X39990858Y16068747D01*
X40005000Y16054605D01*
X40818097Y16867702D01*
X40746514Y17111671D01*
X40491004Y17232571D01*
X40216816Y17301300D01*
X39934488Y17315217D01*
X39654870Y17273787D01*
X39388708Y17178603D01*
X39366500Y17166733D01*
X39366500Y20528272D01*
X39369290Y20556601D01*
X39366500Y20584930D01*
X39366500Y20584936D01*
X39358150Y20669712D01*
X39325157Y20778476D01*
X39271579Y20878715D01*
X39199474Y20966574D01*
X39177462Y20984639D01*
X35415600Y24746501D01*
X35415600Y25257655D01*
X35482104Y25203076D01*
G04 #@! TA.AperFunction,Conductor*
D22*
G36*
X35482104Y25203076D02*
G01*
X35703949Y25084498D01*
X35944664Y25011478D01*
X36195000Y24986822D01*
X36445335Y25011478D01*
X36686050Y25084498D01*
X36775349Y25132229D01*
X41233000Y20674577D01*
X41233001Y16619058D01*
X40997702Y16688097D01*
X40184605Y15875000D01*
X40198748Y15860857D01*
X40019143Y15681252D01*
X40005000Y15695395D01*
X39990858Y15681252D01*
X39811253Y15860857D01*
X39825395Y15875000D01*
X39811253Y15889142D01*
X39990858Y16068747D01*
X40005000Y16054605D01*
X40818097Y16867702D01*
X40746514Y17111671D01*
X40491004Y17232571D01*
X40216816Y17301300D01*
X39934488Y17315217D01*
X39654870Y17273787D01*
X39388708Y17178603D01*
X39366500Y17166733D01*
X39366500Y20528272D01*
X39369290Y20556601D01*
X39366500Y20584930D01*
X39366500Y20584936D01*
X39358150Y20669712D01*
X39325157Y20778476D01*
X39271579Y20878715D01*
X39199474Y20966574D01*
X39177462Y20984639D01*
X35415600Y24746501D01*
X35415600Y25257655D01*
X35482104Y25203076D01*
G37*
G04 #@! TD.AperFunction*
D21*
X5587000Y26827000D02*
X5607000Y26827000D01*
X5607000Y26573000D01*
X5587000Y26573000D01*
X5587000Y24287000D01*
X5607000Y24287000D01*
X5607000Y24033000D01*
X5587000Y24033000D01*
X5587000Y21747000D01*
X5607000Y21747000D01*
X5607000Y21493000D01*
X5587000Y21493000D01*
X5587000Y19207000D01*
X5607000Y19207000D01*
X5607000Y18953000D01*
X5587000Y18953000D01*
X5587000Y16667000D01*
X5607000Y16667000D01*
X5607000Y16413000D01*
X5587000Y16413000D01*
X5587000Y16393000D01*
X5333000Y16393000D01*
X5333000Y16413000D01*
X5313000Y16413000D01*
X5313000Y16667000D01*
X5333000Y16667000D01*
X5333000Y18953000D01*
X5313000Y18953000D01*
X5313000Y19207000D01*
X5333000Y19207000D01*
X5333000Y21493000D01*
X5313000Y21493000D01*
X5313000Y21747000D01*
X5333000Y21747000D01*
X5333000Y24033000D01*
X5313000Y24033000D01*
X5313000Y24287000D01*
X5333000Y24287000D01*
X5333000Y26573000D01*
X5313000Y26573000D01*
X5313000Y26827000D01*
X5333000Y26827000D01*
X5333000Y26847000D01*
X5587000Y26847000D01*
X5587000Y26827000D01*
G04 #@! TA.AperFunction,Conductor*
D22*
G36*
X5587000Y26827000D02*
G01*
X5607000Y26827000D01*
X5607000Y26573000D01*
X5587000Y26573000D01*
X5587000Y24287000D01*
X5607000Y24287000D01*
X5607000Y24033000D01*
X5587000Y24033000D01*
X5587000Y21747000D01*
X5607000Y21747000D01*
X5607000Y21493000D01*
X5587000Y21493000D01*
X5587000Y19207000D01*
X5607000Y19207000D01*
X5607000Y18953000D01*
X5587000Y18953000D01*
X5587000Y16667000D01*
X5607000Y16667000D01*
X5607000Y16413000D01*
X5587000Y16413000D01*
X5587000Y16393000D01*
X5333000Y16393000D01*
X5333000Y16413000D01*
X5313000Y16413000D01*
X5313000Y16667000D01*
X5333000Y16667000D01*
X5333000Y18953000D01*
X5313000Y18953000D01*
X5313000Y19207000D01*
X5333000Y19207000D01*
X5333000Y21493000D01*
X5313000Y21493000D01*
X5313000Y21747000D01*
X5333000Y21747000D01*
X5333000Y24033000D01*
X5313000Y24033000D01*
X5313000Y24287000D01*
X5333000Y24287000D01*
X5333000Y26573000D01*
X5313000Y26573000D01*
X5313000Y26827000D01*
X5333000Y26827000D01*
X5333000Y26847000D01*
X5587000Y26847000D01*
X5587000Y26827000D01*
G37*
G04 #@! TD.AperFunction*
D21*
X48187599Y17187000D02*
X44898478Y17187000D01*
X44806911Y17324040D01*
X44629040Y17501911D01*
X44419886Y17641663D01*
X44341300Y17674214D01*
X44431292Y17706397D01*
X44556514Y17773329D01*
X44628097Y18017298D01*
X43815000Y18830395D01*
X43001903Y18017298D01*
X43073486Y17773329D01*
X43285636Y17672945D01*
X43210114Y17641663D01*
X43000960Y17501911D01*
X42823089Y17324040D01*
X42731522Y17187000D01*
X42587000Y17187000D01*
X42587000Y18265942D01*
X42822298Y18196903D01*
X43635395Y19010000D01*
X43994605Y19010000D01*
X44807702Y18196903D01*
X45051671Y18268486D01*
X45172571Y18523996D01*
X45241300Y18798184D01*
X45255217Y19080512D01*
X45213787Y19360130D01*
X45118603Y19626292D01*
X45051671Y19751514D01*
X44807702Y19823097D01*
X43994605Y19010000D01*
X43635395Y19010000D01*
X42822298Y19823097D01*
X42587000Y19754058D01*
X42587000Y20002702D01*
X43001903Y20002702D01*
X43815000Y19189605D01*
X44628097Y20002702D01*
X44556514Y20246671D01*
X44301004Y20367571D01*
X44026816Y20436300D01*
X43744488Y20450217D01*
X43464870Y20408787D01*
X43198708Y20313603D01*
X43073486Y20246671D01*
X43001903Y20002702D01*
X42587000Y20002702D01*
X42587000Y20921748D01*
X42590275Y20955000D01*
X42577204Y21087715D01*
X42538492Y21215330D01*
X42475628Y21332941D01*
X42412224Y21410199D01*
X42412218Y21410205D01*
X42391026Y21436027D01*
X42365206Y21457217D01*
X38534722Y25287700D01*
X40086899Y25287700D01*
X48187599Y17187000D01*
G04 #@! TA.AperFunction,Conductor*
D22*
G36*
X48187599Y17187000D02*
G01*
X44898478Y17187000D01*
X44806911Y17324040D01*
X44629040Y17501911D01*
X44419886Y17641663D01*
X44341300Y17674214D01*
X44431292Y17706397D01*
X44556514Y17773329D01*
X44628097Y18017298D01*
X43815000Y18830395D01*
X43001903Y18017298D01*
X43073486Y17773329D01*
X43285636Y17672945D01*
X43210114Y17641663D01*
X43000960Y17501911D01*
X42823089Y17324040D01*
X42731522Y17187000D01*
X42587000Y17187000D01*
X42587000Y18265942D01*
X42822298Y18196903D01*
X43635395Y19010000D01*
X43994605Y19010000D01*
X44807702Y18196903D01*
X45051671Y18268486D01*
X45172571Y18523996D01*
X45241300Y18798184D01*
X45255217Y19080512D01*
X45213787Y19360130D01*
X45118603Y19626292D01*
X45051671Y19751514D01*
X44807702Y19823097D01*
X43994605Y19010000D01*
X43635395Y19010000D01*
X42822298Y19823097D01*
X42587000Y19754058D01*
X42587000Y20002702D01*
X43001903Y20002702D01*
X43815000Y19189605D01*
X44628097Y20002702D01*
X44556514Y20246671D01*
X44301004Y20367571D01*
X44026816Y20436300D01*
X43744488Y20450217D01*
X43464870Y20408787D01*
X43198708Y20313603D01*
X43073486Y20246671D01*
X43001903Y20002702D01*
X42587000Y20002702D01*
X42587000Y20921748D01*
X42590275Y20955000D01*
X42577204Y21087715D01*
X42538492Y21215330D01*
X42475628Y21332941D01*
X42412224Y21410199D01*
X42412218Y21410205D01*
X42391026Y21436027D01*
X42365206Y21457217D01*
X38534722Y25287700D01*
X40086899Y25287700D01*
X48187599Y17187000D01*
G37*
G04 #@! TD.AperFunction*
D21*
X21082000Y18542000D02*
X21102000Y18542000D01*
X21102000Y18288000D01*
X21082000Y18288000D01*
X21082000Y18268000D01*
X20828000Y18268000D01*
X20828000Y18288000D01*
X20808000Y18288000D01*
X20808000Y18542000D01*
X20828000Y18542000D01*
X20828000Y18562000D01*
X21082000Y18562000D01*
X21082000Y18542000D01*
G04 #@! TA.AperFunction,Conductor*
D22*
G36*
X21082000Y18542000D02*
G01*
X21102000Y18542000D01*
X21102000Y18288000D01*
X21082000Y18288000D01*
X21082000Y18268000D01*
X20828000Y18268000D01*
X20828000Y18288000D01*
X20808000Y18288000D01*
X20808000Y18542000D01*
X20828000Y18542000D01*
X20828000Y18562000D01*
X21082000Y18562000D01*
X21082000Y18542000D01*
G37*
G04 #@! TD.AperFunction*
D21*
X34936478Y41894665D02*
X35009498Y41653950D01*
X35128076Y41432105D01*
X35287656Y41237656D01*
X35482104Y41078076D01*
X35703949Y40959498D01*
X35944664Y40886478D01*
X36195000Y40861822D01*
X36445335Y40886478D01*
X36686050Y40959498D01*
X36775349Y41007229D01*
X41233000Y36549577D01*
X41233001Y32494058D01*
X40997702Y32563097D01*
X40184605Y31750000D01*
X40198748Y31735857D01*
X40019143Y31556252D01*
X40005000Y31570395D01*
X39191903Y30757298D01*
X39263486Y30513329D01*
X39475636Y30412945D01*
X39400114Y30381663D01*
X39190960Y30241911D01*
X39013089Y30064040D01*
X38921522Y29927000D01*
X38808245Y29927000D01*
X38775000Y29930274D01*
X38741755Y29927000D01*
X38741748Y29927000D01*
X38642285Y29917204D01*
X38514670Y29878492D01*
X38397059Y29815628D01*
X38325664Y29757035D01*
X38293973Y29731027D01*
X38272778Y29705201D01*
X36775349Y28207771D01*
X36686051Y28255502D01*
X36445336Y28328522D01*
X36195000Y28353178D01*
X35944665Y28328522D01*
X35703950Y28255502D01*
X35482105Y28136924D01*
X35287657Y27977344D01*
X35277730Y27965248D01*
X35248574Y28000774D01*
X35226562Y28018839D01*
X31565913Y31679488D01*
X38564783Y31679488D01*
X38606213Y31399870D01*
X38701397Y31133708D01*
X38768329Y31008486D01*
X39012298Y30936903D01*
X39825395Y31750000D01*
X39012298Y32563097D01*
X38768329Y32491514D01*
X38647429Y32236004D01*
X38578700Y31961816D01*
X38564783Y31679488D01*
X31565913Y31679488D01*
X30742290Y32503111D01*
X30765961Y32498096D01*
X30988000Y32620085D01*
X30988000Y34163000D01*
X30968000Y34163000D01*
X30968000Y34417000D01*
X30988000Y34417000D01*
X30988000Y35959915D01*
X30765961Y36081904D01*
X30683182Y36064367D01*
X30423354Y35953715D01*
X30190105Y35794500D01*
X30023618Y35624683D01*
X25342000Y40306301D01*
X25342000Y41067441D01*
X25543949Y40959498D01*
X25784664Y40886478D01*
X26035000Y40861822D01*
X26285335Y40886478D01*
X26526050Y40959498D01*
X26747895Y41078076D01*
X26942344Y41237656D01*
X26993910Y41300489D01*
X32724847Y35569551D01*
X32588076Y35402896D01*
X32469498Y35181051D01*
X32466622Y35171571D01*
X32392166Y35356483D01*
X32237601Y35592839D01*
X32039895Y35794500D01*
X31806646Y35953715D01*
X31546818Y36064367D01*
X31464039Y36081904D01*
X31242000Y35959915D01*
X31242000Y34417000D01*
X31262000Y34417000D01*
X31262000Y34163000D01*
X31242000Y34163000D01*
X31242000Y32620085D01*
X31464039Y32498096D01*
X31546818Y32515633D01*
X31806646Y32626285D01*
X32039895Y32785500D01*
X32237601Y32987161D01*
X32392166Y33223517D01*
X32466622Y33408429D01*
X32469498Y33398950D01*
X32588076Y33177105D01*
X32747656Y32982656D01*
X32942104Y32823076D01*
X33163949Y32704498D01*
X33404664Y32631478D01*
X33655000Y32606822D01*
X33905335Y32631478D01*
X34146050Y32704498D01*
X34367895Y32823076D01*
X34562344Y32982656D01*
X34721924Y33177104D01*
X34840502Y33398949D01*
X34913522Y33639664D01*
X34915693Y33661706D01*
X34915693Y33090000D01*
X34924903Y32996492D01*
X34952178Y32906577D01*
X34996471Y32823711D01*
X35056079Y32751079D01*
X35128711Y32691471D01*
X35211577Y32647178D01*
X35301492Y32619903D01*
X35395000Y32610693D01*
X36995000Y32610693D01*
X37088508Y32619903D01*
X37178423Y32647178D01*
X37261289Y32691471D01*
X37323713Y32742702D01*
X39191903Y32742702D01*
X40005000Y31929605D01*
X40818097Y32742702D01*
X40746514Y32986671D01*
X40491004Y33107571D01*
X40216816Y33176300D01*
X39934488Y33190217D01*
X39654870Y33148787D01*
X39388708Y33053603D01*
X39263486Y32986671D01*
X39191903Y32742702D01*
X37323713Y32742702D01*
X37333921Y32751079D01*
X37393529Y32823711D01*
X37437822Y32906577D01*
X37465097Y32996492D01*
X37474307Y33090000D01*
X37474307Y35490000D01*
X37465097Y35583508D01*
X37437822Y35673423D01*
X37393529Y35756289D01*
X37333921Y35828921D01*
X37261289Y35888529D01*
X37178423Y35932822D01*
X37088508Y35960097D01*
X36995000Y35969307D01*
X36743661Y35969307D01*
X36730657Y36012176D01*
X36677079Y36112415D01*
X36604974Y36200274D01*
X36517115Y36272379D01*
X36416876Y36325957D01*
X36308112Y36358950D01*
X36223336Y36367300D01*
X36195000Y36370091D01*
X36166664Y36367300D01*
X33559102Y36367300D01*
X28989979Y40936422D01*
X29066050Y40959498D01*
X29287895Y41078076D01*
X29482344Y41237656D01*
X29641924Y41432104D01*
X29760502Y41653949D01*
X29825434Y41868000D01*
X29864567Y41868000D01*
X29929498Y41653950D01*
X30048076Y41432105D01*
X30207656Y41237656D01*
X30402104Y41078076D01*
X30623949Y40959498D01*
X30864664Y40886478D01*
X31115000Y40861822D01*
X31365335Y40886478D01*
X31606050Y40959498D01*
X31827895Y41078076D01*
X32022344Y41237656D01*
X32181924Y41432104D01*
X32300502Y41653949D01*
X32373522Y41894664D01*
X32385000Y42011202D01*
X32396478Y41894665D01*
X32469498Y41653950D01*
X32588076Y41432105D01*
X32747656Y41237656D01*
X32942104Y41078076D01*
X33163949Y40959498D01*
X33404664Y40886478D01*
X33655000Y40861822D01*
X33905335Y40886478D01*
X34146050Y40959498D01*
X34367895Y41078076D01*
X34562344Y41237656D01*
X34721924Y41432104D01*
X34840502Y41653949D01*
X34913522Y41894664D01*
X34925000Y42011202D01*
X34936478Y41894665D01*
G04 #@! TA.AperFunction,Conductor*
D22*
G36*
X34936478Y41894665D02*
G01*
X35009498Y41653950D01*
X35128076Y41432105D01*
X35287656Y41237656D01*
X35482104Y41078076D01*
X35703949Y40959498D01*
X35944664Y40886478D01*
X36195000Y40861822D01*
X36445335Y40886478D01*
X36686050Y40959498D01*
X36775349Y41007229D01*
X41233000Y36549577D01*
X41233001Y32494058D01*
X40997702Y32563097D01*
X40184605Y31750000D01*
X40198748Y31735857D01*
X40019143Y31556252D01*
X40005000Y31570395D01*
X39191903Y30757298D01*
X39263486Y30513329D01*
X39475636Y30412945D01*
X39400114Y30381663D01*
X39190960Y30241911D01*
X39013089Y30064040D01*
X38921522Y29927000D01*
X38808245Y29927000D01*
X38775000Y29930274D01*
X38741755Y29927000D01*
X38741748Y29927000D01*
X38642285Y29917204D01*
X38514670Y29878492D01*
X38397059Y29815628D01*
X38325664Y29757035D01*
X38293973Y29731027D01*
X38272778Y29705201D01*
X36775349Y28207771D01*
X36686051Y28255502D01*
X36445336Y28328522D01*
X36195000Y28353178D01*
X35944665Y28328522D01*
X35703950Y28255502D01*
X35482105Y28136924D01*
X35287657Y27977344D01*
X35277730Y27965248D01*
X35248574Y28000774D01*
X35226562Y28018839D01*
X31565913Y31679488D01*
X38564783Y31679488D01*
X38606213Y31399870D01*
X38701397Y31133708D01*
X38768329Y31008486D01*
X39012298Y30936903D01*
X39825395Y31750000D01*
X39012298Y32563097D01*
X38768329Y32491514D01*
X38647429Y32236004D01*
X38578700Y31961816D01*
X38564783Y31679488D01*
X31565913Y31679488D01*
X30742290Y32503111D01*
X30765961Y32498096D01*
X30988000Y32620085D01*
X30988000Y34163000D01*
X30968000Y34163000D01*
X30968000Y34417000D01*
X30988000Y34417000D01*
X30988000Y35959915D01*
X30765961Y36081904D01*
X30683182Y36064367D01*
X30423354Y35953715D01*
X30190105Y35794500D01*
X30023618Y35624683D01*
X25342000Y40306301D01*
X25342000Y41067441D01*
X25543949Y40959498D01*
X25784664Y40886478D01*
X26035000Y40861822D01*
X26285335Y40886478D01*
X26526050Y40959498D01*
X26747895Y41078076D01*
X26942344Y41237656D01*
X26993910Y41300489D01*
X32724847Y35569551D01*
X32588076Y35402896D01*
X32469498Y35181051D01*
X32466622Y35171571D01*
X32392166Y35356483D01*
X32237601Y35592839D01*
X32039895Y35794500D01*
X31806646Y35953715D01*
X31546818Y36064367D01*
X31464039Y36081904D01*
X31242000Y35959915D01*
X31242000Y34417000D01*
X31262000Y34417000D01*
X31262000Y34163000D01*
X31242000Y34163000D01*
X31242000Y32620085D01*
X31464039Y32498096D01*
X31546818Y32515633D01*
X31806646Y32626285D01*
X32039895Y32785500D01*
X32237601Y32987161D01*
X32392166Y33223517D01*
X32466622Y33408429D01*
X32469498Y33398950D01*
X32588076Y33177105D01*
X32747656Y32982656D01*
X32942104Y32823076D01*
X33163949Y32704498D01*
X33404664Y32631478D01*
X33655000Y32606822D01*
X33905335Y32631478D01*
X34146050Y32704498D01*
X34367895Y32823076D01*
X34562344Y32982656D01*
X34721924Y33177104D01*
X34840502Y33398949D01*
X34913522Y33639664D01*
X34915693Y33661706D01*
X34915693Y33090000D01*
X34924903Y32996492D01*
X34952178Y32906577D01*
X34996471Y32823711D01*
X35056079Y32751079D01*
X35128711Y32691471D01*
X35211577Y32647178D01*
X35301492Y32619903D01*
X35395000Y32610693D01*
X36995000Y32610693D01*
X37088508Y32619903D01*
X37178423Y32647178D01*
X37261289Y32691471D01*
X37323713Y32742702D01*
X39191903Y32742702D01*
X40005000Y31929605D01*
X40818097Y32742702D01*
X40746514Y32986671D01*
X40491004Y33107571D01*
X40216816Y33176300D01*
X39934488Y33190217D01*
X39654870Y33148787D01*
X39388708Y33053603D01*
X39263486Y32986671D01*
X39191903Y32742702D01*
X37323713Y32742702D01*
X37333921Y32751079D01*
X37393529Y32823711D01*
X37437822Y32906577D01*
X37465097Y32996492D01*
X37474307Y33090000D01*
X37474307Y35490000D01*
X37465097Y35583508D01*
X37437822Y35673423D01*
X37393529Y35756289D01*
X37333921Y35828921D01*
X37261289Y35888529D01*
X37178423Y35932822D01*
X37088508Y35960097D01*
X36995000Y35969307D01*
X36743661Y35969307D01*
X36730657Y36012176D01*
X36677079Y36112415D01*
X36604974Y36200274D01*
X36517115Y36272379D01*
X36416876Y36325957D01*
X36308112Y36358950D01*
X36223336Y36367300D01*
X36195000Y36370091D01*
X36166664Y36367300D01*
X33559102Y36367300D01*
X28989979Y40936422D01*
X29066050Y40959498D01*
X29287895Y41078076D01*
X29482344Y41237656D01*
X29641924Y41432104D01*
X29760502Y41653949D01*
X29825434Y41868000D01*
X29864567Y41868000D01*
X29929498Y41653950D01*
X30048076Y41432105D01*
X30207656Y41237656D01*
X30402104Y41078076D01*
X30623949Y40959498D01*
X30864664Y40886478D01*
X31115000Y40861822D01*
X31365335Y40886478D01*
X31606050Y40959498D01*
X31827895Y41078076D01*
X32022344Y41237656D01*
X32181924Y41432104D01*
X32300502Y41653949D01*
X32373522Y41894664D01*
X32385000Y42011202D01*
X32396478Y41894665D01*
X32469498Y41653950D01*
X32588076Y41432105D01*
X32747656Y41237656D01*
X32942104Y41078076D01*
X33163949Y40959498D01*
X33404664Y40886478D01*
X33655000Y40861822D01*
X33905335Y40886478D01*
X34146050Y40959498D01*
X34367895Y41078076D01*
X34562344Y41237656D01*
X34721924Y41432104D01*
X34840502Y41653949D01*
X34913522Y41894664D01*
X34925000Y42011202D01*
X34936478Y41894665D01*
G37*
G04 #@! TD.AperFunction*
D21*
X5587000Y29367000D02*
X5607000Y29367000D01*
X5607000Y29113000D01*
X5587000Y29113000D01*
X5587000Y29093000D01*
X5333000Y29093000D01*
X5333000Y29113000D01*
X5313000Y29113000D01*
X5313000Y29367000D01*
X5333000Y29367000D01*
X5333000Y29387000D01*
X5587000Y29387000D01*
X5587000Y29367000D01*
G04 #@! TA.AperFunction,Conductor*
D22*
G36*
X5587000Y29367000D02*
G01*
X5607000Y29367000D01*
X5607000Y29113000D01*
X5587000Y29113000D01*
X5587000Y29093000D01*
X5333000Y29093000D01*
X5333000Y29113000D01*
X5313000Y29113000D01*
X5313000Y29367000D01*
X5333000Y29367000D01*
X5333000Y29387000D01*
X5587000Y29387000D01*
X5587000Y29367000D01*
G37*
G04 #@! TD.AperFunction*
D21*
X5587000Y36987000D02*
X5607000Y36987000D01*
X5607000Y36733000D01*
X5587000Y36733000D01*
X5587000Y34447000D01*
X5607000Y34447000D01*
X5607000Y34193000D01*
X5587000Y34193000D01*
X5587000Y31907000D01*
X5607000Y31907000D01*
X5607000Y31653000D01*
X5587000Y31653000D01*
X5587000Y31633000D01*
X5333000Y31633000D01*
X5333000Y31653000D01*
X5313000Y31653000D01*
X5313000Y31907000D01*
X5333000Y31907000D01*
X5333000Y34193000D01*
X5313000Y34193000D01*
X5313000Y34447000D01*
X5333000Y34447000D01*
X5333000Y36733000D01*
X5313000Y36733000D01*
X5313000Y36987000D01*
X5333000Y36987000D01*
X5333000Y37007000D01*
X5587000Y37007000D01*
X5587000Y36987000D01*
G04 #@! TA.AperFunction,Conductor*
D22*
G36*
X5587000Y36987000D02*
G01*
X5607000Y36987000D01*
X5607000Y36733000D01*
X5587000Y36733000D01*
X5587000Y34447000D01*
X5607000Y34447000D01*
X5607000Y34193000D01*
X5587000Y34193000D01*
X5587000Y31907000D01*
X5607000Y31907000D01*
X5607000Y31653000D01*
X5587000Y31653000D01*
X5587000Y31633000D01*
X5333000Y31633000D01*
X5333000Y31653000D01*
X5313000Y31653000D01*
X5313000Y31907000D01*
X5333000Y31907000D01*
X5333000Y34193000D01*
X5313000Y34193000D01*
X5313000Y34447000D01*
X5333000Y34447000D01*
X5333000Y36733000D01*
X5313000Y36733000D01*
X5313000Y36987000D01*
X5333000Y36987000D01*
X5333000Y37007000D01*
X5587000Y37007000D01*
X5587000Y36987000D01*
G37*
G04 #@! TD.AperFunction*
D21*
X26162000Y34417000D02*
X26182000Y34417000D01*
X26182000Y34163000D01*
X26162000Y34163000D01*
X26162000Y34143000D01*
X25908000Y34143000D01*
X25908000Y34163000D01*
X25888000Y34163000D01*
X25888000Y34417000D01*
X25908000Y34417000D01*
X25908000Y34437000D01*
X26162000Y34437000D01*
X26162000Y34417000D01*
G04 #@! TA.AperFunction,Conductor*
D22*
G36*
X26162000Y34417000D02*
G01*
X26182000Y34417000D01*
X26182000Y34163000D01*
X26162000Y34163000D01*
X26162000Y34143000D01*
X25908000Y34143000D01*
X25908000Y34163000D01*
X25888000Y34163000D01*
X25888000Y34417000D01*
X25908000Y34417000D01*
X25908000Y34437000D01*
X26162000Y34437000D01*
X26162000Y34417000D01*
G37*
G04 #@! TD.AperFunction*
D21*
X21082000Y34417000D02*
X21102000Y34417000D01*
X21102000Y34163000D01*
X21082000Y34163000D01*
X21082000Y34143000D01*
X20828000Y34143000D01*
X20828000Y34163000D01*
X20808000Y34163000D01*
X20808000Y34417000D01*
X20828000Y34417000D01*
X20828000Y34437000D01*
X21082000Y34437000D01*
X21082000Y34417000D01*
G04 #@! TA.AperFunction,Conductor*
D22*
G36*
X21082000Y34417000D02*
G01*
X21102000Y34417000D01*
X21102000Y34163000D01*
X21082000Y34163000D01*
X21082000Y34143000D01*
X20828000Y34143000D01*
X20828000Y34163000D01*
X20808000Y34163000D01*
X20808000Y34417000D01*
X20828000Y34417000D01*
X20828000Y34437000D01*
X21082000Y34437000D01*
X21082000Y34417000D01*
G37*
G04 #@! TD.AperFunction*
D21*
X47001478Y58104665D02*
X47074498Y57863950D01*
X47193076Y57642105D01*
X47352656Y57447656D01*
X47547104Y57288076D01*
X47583000Y57268889D01*
X47583001Y53660424D01*
X41436254Y47513676D01*
X41445217Y47695512D01*
X41403787Y47975130D01*
X41308603Y48241292D01*
X41241671Y48366514D01*
X40997702Y48438097D01*
X40184605Y47625000D01*
X40198748Y47610857D01*
X40019143Y47431252D01*
X40005000Y47445395D01*
X39191903Y46632298D01*
X39263486Y46388329D01*
X39475636Y46287945D01*
X39400114Y46256663D01*
X39190960Y46116911D01*
X39013089Y45939040D01*
X38921522Y45802000D01*
X38808245Y45802000D01*
X38775000Y45805274D01*
X38741755Y45802000D01*
X38741748Y45802000D01*
X38642285Y45792204D01*
X38514670Y45753492D01*
X38397059Y45690628D01*
X38322285Y45629262D01*
X38293973Y45606027D01*
X38272778Y45580201D01*
X36775349Y44082771D01*
X36686051Y44130502D01*
X36445336Y44203522D01*
X36195000Y44228178D01*
X35944665Y44203522D01*
X35703950Y44130502D01*
X35614651Y44082771D01*
X35097226Y44600196D01*
X35076027Y44626027D01*
X34972941Y44710628D01*
X34855330Y44773492D01*
X34727715Y44812204D01*
X34628252Y44822000D01*
X34628245Y44822000D01*
X34595000Y44825274D01*
X34561755Y44822000D01*
X32748252Y44822000D01*
X32715000Y44825275D01*
X32582285Y44812204D01*
X32454670Y44773492D01*
X32337059Y44710628D01*
X32264292Y44650909D01*
X32233973Y44626027D01*
X32212778Y44600201D01*
X31695349Y44082772D01*
X31606051Y44130502D01*
X31365336Y44203522D01*
X31115000Y44228178D01*
X30864665Y44203522D01*
X30623950Y44130502D01*
X30402105Y44011924D01*
X30207657Y43852344D01*
X30048076Y43657896D01*
X29929498Y43436051D01*
X29864566Y43222000D01*
X29825434Y43222000D01*
X29760502Y43436051D01*
X29641924Y43657896D01*
X29482344Y43852344D01*
X29287896Y44011924D01*
X29252000Y44031111D01*
X29252000Y45051755D01*
X29255274Y45085000D01*
X29252000Y45118245D01*
X29252000Y45118252D01*
X29242204Y45217715D01*
X29235988Y45238206D01*
X29300336Y45281202D01*
X29401598Y45382464D01*
X29481159Y45501536D01*
X29535962Y45633842D01*
X29563900Y45774297D01*
X29563900Y45917503D01*
X29535962Y46057958D01*
X29481159Y46190264D01*
X29401598Y46309336D01*
X29300336Y46410598D01*
X29181264Y46490159D01*
X29048958Y46544962D01*
X28951318Y46564384D01*
X27961214Y47554488D01*
X38564783Y47554488D01*
X38606213Y47274870D01*
X38701397Y47008708D01*
X38768329Y46883486D01*
X39012298Y46811903D01*
X39825395Y47625000D01*
X39012298Y48438097D01*
X38768329Y48366514D01*
X38647429Y48111004D01*
X38578700Y47836816D01*
X38564783Y47554488D01*
X27961214Y47554488D01*
X26786194Y48729507D01*
X26942344Y48857656D01*
X27101924Y49052104D01*
X27220502Y49273949D01*
X27293522Y49514664D01*
X27305000Y49631202D01*
X27316478Y49514665D01*
X27389498Y49273950D01*
X27508076Y49052105D01*
X27667656Y48857656D01*
X27862104Y48698076D01*
X28083949Y48579498D01*
X28324664Y48506478D01*
X28575000Y48481822D01*
X28825335Y48506478D01*
X29066050Y48579498D01*
X29287895Y48698076D01*
X29482344Y48857656D01*
X29641924Y49052104D01*
X29760502Y49273949D01*
X29833522Y49514664D01*
X29845000Y49631202D01*
X29856478Y49514665D01*
X29929498Y49273950D01*
X30048076Y49052105D01*
X30207656Y48857656D01*
X30402104Y48698076D01*
X30623949Y48579498D01*
X30864664Y48506478D01*
X31115000Y48481822D01*
X31365335Y48506478D01*
X31606050Y48579498D01*
X31827895Y48698076D01*
X32022344Y48857656D01*
X32181924Y49052104D01*
X32300502Y49273949D01*
X32373522Y49514664D01*
X32385000Y49631202D01*
X32396478Y49514665D01*
X32469498Y49273950D01*
X32588076Y49052105D01*
X32747656Y48857656D01*
X32942104Y48698076D01*
X33163949Y48579498D01*
X33404664Y48506478D01*
X33655000Y48481822D01*
X33905335Y48506478D01*
X34146050Y48579498D01*
X34367895Y48698076D01*
X34562344Y48857656D01*
X34721924Y49052104D01*
X34840502Y49273949D01*
X34913522Y49514664D01*
X34915693Y49536706D01*
X34915693Y48965000D01*
X34924903Y48871492D01*
X34952178Y48781577D01*
X34996471Y48698711D01*
X35056079Y48626079D01*
X35128711Y48566471D01*
X35211577Y48522178D01*
X35301492Y48494903D01*
X35395000Y48485693D01*
X36995000Y48485693D01*
X37088508Y48494903D01*
X37178423Y48522178D01*
X37261289Y48566471D01*
X37323713Y48617702D01*
X39191903Y48617702D01*
X40005000Y47804605D01*
X40818097Y48617702D01*
X40746514Y48861671D01*
X40491004Y48982571D01*
X40216816Y49051300D01*
X39934488Y49065217D01*
X39654870Y49023787D01*
X39388708Y48928603D01*
X39263486Y48861671D01*
X39191903Y48617702D01*
X37323713Y48617702D01*
X37333921Y48626079D01*
X37393529Y48698711D01*
X37437822Y48781577D01*
X37465097Y48871492D01*
X37474307Y48965000D01*
X37474307Y51365000D01*
X37465097Y51458508D01*
X37437822Y51548423D01*
X37393529Y51631289D01*
X37333921Y51703921D01*
X37261289Y51763529D01*
X37178423Y51807822D01*
X37088508Y51835097D01*
X36995000Y51844307D01*
X35395000Y51844307D01*
X35301492Y51835097D01*
X35211577Y51807822D01*
X35128711Y51763529D01*
X35056079Y51703921D01*
X34996471Y51631289D01*
X34952178Y51548423D01*
X34924903Y51458508D01*
X34915693Y51365000D01*
X34915693Y50793293D01*
X34913522Y50815336D01*
X34840502Y51056051D01*
X34721924Y51277896D01*
X34562344Y51472344D01*
X34367896Y51631924D01*
X34146051Y51750502D01*
X33905336Y51823522D01*
X33655000Y51848178D01*
X33404665Y51823522D01*
X33163950Y51750502D01*
X32942105Y51631924D01*
X32747657Y51472344D01*
X32588076Y51277896D01*
X32469498Y51056051D01*
X32396478Y50815336D01*
X32385000Y50698798D01*
X32373522Y50815336D01*
X32300502Y51056051D01*
X32181924Y51277896D01*
X32022344Y51472344D01*
X31827896Y51631924D01*
X31690864Y51705169D01*
X31683650Y51778412D01*
X31650657Y51887176D01*
X31597079Y51987415D01*
X31524974Y52075274D01*
X31437115Y52147379D01*
X31336876Y52200957D01*
X31228112Y52233950D01*
X31216436Y52235100D01*
X31115000Y52245091D01*
X31086664Y52242300D01*
X21545701Y52242300D01*
X17522901Y56265100D01*
X42739069Y56265100D01*
X42767400Y56262310D01*
X42795731Y56265100D01*
X42795736Y56265100D01*
X42825445Y56268026D01*
X42880511Y56273449D01*
X42925170Y56286997D01*
X42989276Y56306443D01*
X43089515Y56360021D01*
X43177374Y56432126D01*
X43195439Y56454138D01*
X43567964Y56826663D01*
X43589974Y56844726D01*
X43662079Y56932585D01*
X43710910Y57023942D01*
X43715657Y57032823D01*
X43748651Y57141588D01*
X43755865Y57214832D01*
X43892895Y57288076D01*
X44087344Y57447656D01*
X44246924Y57642104D01*
X44365502Y57863949D01*
X44438522Y58104664D01*
X44450000Y58221202D01*
X44461478Y58104665D01*
X44534498Y57863950D01*
X44653076Y57642105D01*
X44812656Y57447656D01*
X45007104Y57288076D01*
X45228949Y57169498D01*
X45469664Y57096478D01*
X45720000Y57071822D01*
X45970335Y57096478D01*
X46211050Y57169498D01*
X46432895Y57288076D01*
X46627344Y57447656D01*
X46786924Y57642104D01*
X46905502Y57863949D01*
X46978522Y58104664D01*
X46990000Y58221202D01*
X47001478Y58104665D01*
G04 #@! TA.AperFunction,Conductor*
D22*
G36*
X47001478Y58104665D02*
G01*
X47074498Y57863950D01*
X47193076Y57642105D01*
X47352656Y57447656D01*
X47547104Y57288076D01*
X47583000Y57268889D01*
X47583001Y53660424D01*
X41436254Y47513676D01*
X41445217Y47695512D01*
X41403787Y47975130D01*
X41308603Y48241292D01*
X41241671Y48366514D01*
X40997702Y48438097D01*
X40184605Y47625000D01*
X40198748Y47610857D01*
X40019143Y47431252D01*
X40005000Y47445395D01*
X39191903Y46632298D01*
X39263486Y46388329D01*
X39475636Y46287945D01*
X39400114Y46256663D01*
X39190960Y46116911D01*
X39013089Y45939040D01*
X38921522Y45802000D01*
X38808245Y45802000D01*
X38775000Y45805274D01*
X38741755Y45802000D01*
X38741748Y45802000D01*
X38642285Y45792204D01*
X38514670Y45753492D01*
X38397059Y45690628D01*
X38322285Y45629262D01*
X38293973Y45606027D01*
X38272778Y45580201D01*
X36775349Y44082771D01*
X36686051Y44130502D01*
X36445336Y44203522D01*
X36195000Y44228178D01*
X35944665Y44203522D01*
X35703950Y44130502D01*
X35614651Y44082771D01*
X35097226Y44600196D01*
X35076027Y44626027D01*
X34972941Y44710628D01*
X34855330Y44773492D01*
X34727715Y44812204D01*
X34628252Y44822000D01*
X34628245Y44822000D01*
X34595000Y44825274D01*
X34561755Y44822000D01*
X32748252Y44822000D01*
X32715000Y44825275D01*
X32582285Y44812204D01*
X32454670Y44773492D01*
X32337059Y44710628D01*
X32264292Y44650909D01*
X32233973Y44626027D01*
X32212778Y44600201D01*
X31695349Y44082772D01*
X31606051Y44130502D01*
X31365336Y44203522D01*
X31115000Y44228178D01*
X30864665Y44203522D01*
X30623950Y44130502D01*
X30402105Y44011924D01*
X30207657Y43852344D01*
X30048076Y43657896D01*
X29929498Y43436051D01*
X29864566Y43222000D01*
X29825434Y43222000D01*
X29760502Y43436051D01*
X29641924Y43657896D01*
X29482344Y43852344D01*
X29287896Y44011924D01*
X29252000Y44031111D01*
X29252000Y45051755D01*
X29255274Y45085000D01*
X29252000Y45118245D01*
X29252000Y45118252D01*
X29242204Y45217715D01*
X29235988Y45238206D01*
X29300336Y45281202D01*
X29401598Y45382464D01*
X29481159Y45501536D01*
X29535962Y45633842D01*
X29563900Y45774297D01*
X29563900Y45917503D01*
X29535962Y46057958D01*
X29481159Y46190264D01*
X29401598Y46309336D01*
X29300336Y46410598D01*
X29181264Y46490159D01*
X29048958Y46544962D01*
X28951318Y46564384D01*
X27961214Y47554488D01*
X38564783Y47554488D01*
X38606213Y47274870D01*
X38701397Y47008708D01*
X38768329Y46883486D01*
X39012298Y46811903D01*
X39825395Y47625000D01*
X39012298Y48438097D01*
X38768329Y48366514D01*
X38647429Y48111004D01*
X38578700Y47836816D01*
X38564783Y47554488D01*
X27961214Y47554488D01*
X26786194Y48729507D01*
X26942344Y48857656D01*
X27101924Y49052104D01*
X27220502Y49273949D01*
X27293522Y49514664D01*
X27305000Y49631202D01*
X27316478Y49514665D01*
X27389498Y49273950D01*
X27508076Y49052105D01*
X27667656Y48857656D01*
X27862104Y48698076D01*
X28083949Y48579498D01*
X28324664Y48506478D01*
X28575000Y48481822D01*
X28825335Y48506478D01*
X29066050Y48579498D01*
X29287895Y48698076D01*
X29482344Y48857656D01*
X29641924Y49052104D01*
X29760502Y49273949D01*
X29833522Y49514664D01*
X29845000Y49631202D01*
X29856478Y49514665D01*
X29929498Y49273950D01*
X30048076Y49052105D01*
X30207656Y48857656D01*
X30402104Y48698076D01*
X30623949Y48579498D01*
X30864664Y48506478D01*
X31115000Y48481822D01*
X31365335Y48506478D01*
X31606050Y48579498D01*
X31827895Y48698076D01*
X32022344Y48857656D01*
X32181924Y49052104D01*
X32300502Y49273949D01*
X32373522Y49514664D01*
X32385000Y49631202D01*
X32396478Y49514665D01*
X32469498Y49273950D01*
X32588076Y49052105D01*
X32747656Y48857656D01*
X32942104Y48698076D01*
X33163949Y48579498D01*
X33404664Y48506478D01*
X33655000Y48481822D01*
X33905335Y48506478D01*
X34146050Y48579498D01*
X34367895Y48698076D01*
X34562344Y48857656D01*
X34721924Y49052104D01*
X34840502Y49273949D01*
X34913522Y49514664D01*
X34915693Y49536706D01*
X34915693Y48965000D01*
X34924903Y48871492D01*
X34952178Y48781577D01*
X34996471Y48698711D01*
X35056079Y48626079D01*
X35128711Y48566471D01*
X35211577Y48522178D01*
X35301492Y48494903D01*
X35395000Y48485693D01*
X36995000Y48485693D01*
X37088508Y48494903D01*
X37178423Y48522178D01*
X37261289Y48566471D01*
X37323713Y48617702D01*
X39191903Y48617702D01*
X40005000Y47804605D01*
X40818097Y48617702D01*
X40746514Y48861671D01*
X40491004Y48982571D01*
X40216816Y49051300D01*
X39934488Y49065217D01*
X39654870Y49023787D01*
X39388708Y48928603D01*
X39263486Y48861671D01*
X39191903Y48617702D01*
X37323713Y48617702D01*
X37333921Y48626079D01*
X37393529Y48698711D01*
X37437822Y48781577D01*
X37465097Y48871492D01*
X37474307Y48965000D01*
X37474307Y51365000D01*
X37465097Y51458508D01*
X37437822Y51548423D01*
X37393529Y51631289D01*
X37333921Y51703921D01*
X37261289Y51763529D01*
X37178423Y51807822D01*
X37088508Y51835097D01*
X36995000Y51844307D01*
X35395000Y51844307D01*
X35301492Y51835097D01*
X35211577Y51807822D01*
X35128711Y51763529D01*
X35056079Y51703921D01*
X34996471Y51631289D01*
X34952178Y51548423D01*
X34924903Y51458508D01*
X34915693Y51365000D01*
X34915693Y50793293D01*
X34913522Y50815336D01*
X34840502Y51056051D01*
X34721924Y51277896D01*
X34562344Y51472344D01*
X34367896Y51631924D01*
X34146051Y51750502D01*
X33905336Y51823522D01*
X33655000Y51848178D01*
X33404665Y51823522D01*
X33163950Y51750502D01*
X32942105Y51631924D01*
X32747657Y51472344D01*
X32588076Y51277896D01*
X32469498Y51056051D01*
X32396478Y50815336D01*
X32385000Y50698798D01*
X32373522Y50815336D01*
X32300502Y51056051D01*
X32181924Y51277896D01*
X32022344Y51472344D01*
X31827896Y51631924D01*
X31690864Y51705169D01*
X31683650Y51778412D01*
X31650657Y51887176D01*
X31597079Y51987415D01*
X31524974Y52075274D01*
X31437115Y52147379D01*
X31336876Y52200957D01*
X31228112Y52233950D01*
X31216436Y52235100D01*
X31115000Y52245091D01*
X31086664Y52242300D01*
X21545701Y52242300D01*
X17522901Y56265100D01*
X42739069Y56265100D01*
X42767400Y56262310D01*
X42795731Y56265100D01*
X42795736Y56265100D01*
X42825445Y56268026D01*
X42880511Y56273449D01*
X42925170Y56286997D01*
X42989276Y56306443D01*
X43089515Y56360021D01*
X43177374Y56432126D01*
X43195439Y56454138D01*
X43567964Y56826663D01*
X43589974Y56844726D01*
X43662079Y56932585D01*
X43710910Y57023942D01*
X43715657Y57032823D01*
X43748651Y57141588D01*
X43755865Y57214832D01*
X43892895Y57288076D01*
X44087344Y57447656D01*
X44246924Y57642104D01*
X44365502Y57863949D01*
X44438522Y58104664D01*
X44450000Y58221202D01*
X44461478Y58104665D01*
X44534498Y57863950D01*
X44653076Y57642105D01*
X44812656Y57447656D01*
X45007104Y57288076D01*
X45228949Y57169498D01*
X45469664Y57096478D01*
X45720000Y57071822D01*
X45970335Y57096478D01*
X46211050Y57169498D01*
X46432895Y57288076D01*
X46627344Y57447656D01*
X46786924Y57642104D01*
X46905502Y57863949D01*
X46978522Y58104664D01*
X46990000Y58221202D01*
X47001478Y58104665D01*
G37*
G04 #@! TD.AperFunction*
D21*
X3987585Y54157921D02*
X4087824Y54104343D01*
X4196588Y54071350D01*
X4261872Y54064920D01*
X4284028Y54011430D01*
X4429252Y53794087D01*
X4614087Y53609252D01*
X4831430Y53464028D01*
X5058433Y53370000D01*
X4831430Y53275972D01*
X4614087Y53130748D01*
X4429252Y52945913D01*
X4284028Y52728570D01*
X4183996Y52487072D01*
X4133000Y52230698D01*
X4133000Y51969302D01*
X4183996Y51712928D01*
X4284028Y51471430D01*
X4429252Y51254087D01*
X4614087Y51069252D01*
X4831430Y50924028D01*
X5058433Y50830000D01*
X4831430Y50735972D01*
X4614087Y50590748D01*
X4429252Y50405913D01*
X4284028Y50188570D01*
X4183996Y49947072D01*
X4133000Y49690698D01*
X4133000Y49429302D01*
X4183996Y49172928D01*
X4284028Y48931430D01*
X4429252Y48714087D01*
X4614087Y48529252D01*
X4831430Y48384028D01*
X4856035Y48373836D01*
X4828748Y48364157D01*
X4578645Y48215178D01*
X4362412Y48020269D01*
X4188359Y47786920D01*
X4063175Y47524099D01*
X4018524Y47376890D01*
X4139845Y47147000D01*
X5333000Y47147000D01*
X5333000Y47167000D01*
X5587000Y47167000D01*
X5587000Y47147000D01*
X5607000Y47147000D01*
X5607000Y46893000D01*
X5587000Y46893000D01*
X5587000Y46873000D01*
X5333000Y46873000D01*
X5333000Y46893000D01*
X4139845Y46893000D01*
X4018524Y46663110D01*
X4063175Y46515901D01*
X4188359Y46253080D01*
X4362412Y46019731D01*
X4578645Y45824822D01*
X4828748Y45675843D01*
X4856035Y45666164D01*
X4831430Y45655972D01*
X4614087Y45510748D01*
X4429252Y45325913D01*
X4284028Y45108570D01*
X4204186Y44915815D01*
X3453400Y45666601D01*
X3453400Y54076100D01*
X3524303Y54076100D01*
X3664758Y54104038D01*
X3797064Y54158841D01*
X3897725Y54226100D01*
X3904510Y54226100D01*
X3987585Y54157921D01*
G04 #@! TA.AperFunction,Conductor*
D22*
G36*
X3987585Y54157921D02*
G01*
X4087824Y54104343D01*
X4196588Y54071350D01*
X4261872Y54064920D01*
X4284028Y54011430D01*
X4429252Y53794087D01*
X4614087Y53609252D01*
X4831430Y53464028D01*
X5058433Y53370000D01*
X4831430Y53275972D01*
X4614087Y53130748D01*
X4429252Y52945913D01*
X4284028Y52728570D01*
X4183996Y52487072D01*
X4133000Y52230698D01*
X4133000Y51969302D01*
X4183996Y51712928D01*
X4284028Y51471430D01*
X4429252Y51254087D01*
X4614087Y51069252D01*
X4831430Y50924028D01*
X5058433Y50830000D01*
X4831430Y50735972D01*
X4614087Y50590748D01*
X4429252Y50405913D01*
X4284028Y50188570D01*
X4183996Y49947072D01*
X4133000Y49690698D01*
X4133000Y49429302D01*
X4183996Y49172928D01*
X4284028Y48931430D01*
X4429252Y48714087D01*
X4614087Y48529252D01*
X4831430Y48384028D01*
X4856035Y48373836D01*
X4828748Y48364157D01*
X4578645Y48215178D01*
X4362412Y48020269D01*
X4188359Y47786920D01*
X4063175Y47524099D01*
X4018524Y47376890D01*
X4139845Y47147000D01*
X5333000Y47147000D01*
X5333000Y47167000D01*
X5587000Y47167000D01*
X5587000Y47147000D01*
X5607000Y47147000D01*
X5607000Y46893000D01*
X5587000Y46893000D01*
X5587000Y46873000D01*
X5333000Y46873000D01*
X5333000Y46893000D01*
X4139845Y46893000D01*
X4018524Y46663110D01*
X4063175Y46515901D01*
X4188359Y46253080D01*
X4362412Y46019731D01*
X4578645Y45824822D01*
X4828748Y45675843D01*
X4856035Y45666164D01*
X4831430Y45655972D01*
X4614087Y45510748D01*
X4429252Y45325913D01*
X4284028Y45108570D01*
X4204186Y44915815D01*
X3453400Y45666601D01*
X3453400Y54076100D01*
X3524303Y54076100D01*
X3664758Y54104038D01*
X3797064Y54158841D01*
X3897725Y54226100D01*
X3904510Y54226100D01*
X3987585Y54157921D01*
G37*
G04 #@! TD.AperFunction*
D21*
X21082000Y50292000D02*
X21102000Y50292000D01*
X21102000Y50038000D01*
X21082000Y50038000D01*
X21082000Y50018000D01*
X20828000Y50018000D01*
X20828000Y50038000D01*
X20808000Y50038000D01*
X20808000Y50292000D01*
X20828000Y50292000D01*
X20828000Y50312000D01*
X21082000Y50312000D01*
X21082000Y50292000D01*
G04 #@! TA.AperFunction,Conductor*
D22*
G36*
X21082000Y50292000D02*
G01*
X21102000Y50292000D01*
X21102000Y50038000D01*
X21082000Y50038000D01*
X21082000Y50018000D01*
X20828000Y50018000D01*
X20828000Y50038000D01*
X20808000Y50038000D01*
X20808000Y50292000D01*
X20828000Y50292000D01*
X20828000Y50312000D01*
X21082000Y50312000D01*
X21082000Y50292000D01*
G37*
G04 #@! TD.AperFunction*
D21*
X5587000Y57307000D02*
X5607000Y57307000D01*
X5607000Y57053000D01*
X5587000Y57053000D01*
X5587000Y57033000D01*
X5333000Y57033000D01*
X5333000Y57053000D01*
X5313000Y57053000D01*
X5313000Y57307000D01*
X5333000Y57307000D01*
X5333000Y57327000D01*
X5587000Y57327000D01*
X5587000Y57307000D01*
G04 #@! TA.AperFunction,Conductor*
D22*
G36*
X5587000Y57307000D02*
G01*
X5607000Y57307000D01*
X5607000Y57053000D01*
X5587000Y57053000D01*
X5587000Y57033000D01*
X5333000Y57033000D01*
X5333000Y57053000D01*
X5313000Y57053000D01*
X5313000Y57307000D01*
X5333000Y57307000D01*
X5333000Y57327000D01*
X5587000Y57327000D01*
X5587000Y57307000D01*
G37*
G04 #@! TD.AperFunction*
D21*
X5587000Y62387000D02*
X5607000Y62387000D01*
X5607000Y62133000D01*
X5587000Y62133000D01*
X5587000Y62113000D01*
X5333000Y62113000D01*
X5333000Y62133000D01*
X5313000Y62133000D01*
X5313000Y62387000D01*
X5333000Y62387000D01*
X5333000Y62407000D01*
X5587000Y62407000D01*
X5587000Y62387000D01*
G04 #@! TA.AperFunction,Conductor*
D22*
G36*
X5587000Y62387000D02*
G01*
X5607000Y62387000D01*
X5607000Y62133000D01*
X5587000Y62133000D01*
X5587000Y62113000D01*
X5333000Y62113000D01*
X5333000Y62133000D01*
X5313000Y62133000D01*
X5313000Y62387000D01*
X5333000Y62387000D01*
X5333000Y62407000D01*
X5587000Y62407000D01*
X5587000Y62387000D01*
G37*
G04 #@! TD.AperFunction*
D21*
X5587000Y67467000D02*
X5607000Y67467000D01*
X5607000Y67213000D01*
X5587000Y67213000D01*
X5587000Y67193000D01*
X5333000Y67193000D01*
X5333000Y67213000D01*
X5313000Y67213000D01*
X5313000Y67467000D01*
X5333000Y67467000D01*
X5333000Y67487000D01*
X5587000Y67487000D01*
X5587000Y67467000D01*
G04 #@! TA.AperFunction,Conductor*
D22*
G36*
X5587000Y67467000D02*
G01*
X5607000Y67467000D01*
X5607000Y67213000D01*
X5587000Y67213000D01*
X5587000Y67193000D01*
X5333000Y67193000D01*
X5333000Y67213000D01*
X5313000Y67213000D01*
X5313000Y67467000D01*
X5333000Y67467000D01*
X5333000Y67487000D01*
X5587000Y67487000D01*
X5587000Y67467000D01*
G37*
G04 #@! TD.AperFunction*
D21*
X16855105Y75499500D02*
X16657399Y75297839D01*
X16502834Y75061483D01*
X16397350Y74799514D01*
X16345000Y74522000D01*
X16345000Y74122000D01*
X17653000Y74122000D01*
X17653000Y74142000D01*
X17907000Y74142000D01*
X17907000Y74122000D01*
X17927000Y74122000D01*
X17927000Y73868000D01*
X17907000Y73868000D01*
X17907000Y73848000D01*
X17653000Y73848000D01*
X17653000Y73868000D01*
X16345000Y73868000D01*
X16345000Y73468000D01*
X16397350Y73190486D01*
X16445180Y73071700D01*
X11854601Y73071700D01*
X9578339Y75347962D01*
X9560274Y75369974D01*
X9472415Y75442079D01*
X9372176Y75495657D01*
X9308070Y75515103D01*
X9263411Y75528651D01*
X9208345Y75534074D01*
X9198128Y75535080D01*
X9197167Y75537400D01*
X16910628Y75537400D01*
X16855105Y75499500D01*
G04 #@! TA.AperFunction,Conductor*
D22*
G36*
X16855105Y75499500D02*
G01*
X16657399Y75297839D01*
X16502834Y75061483D01*
X16397350Y74799514D01*
X16345000Y74522000D01*
X16345000Y74122000D01*
X17653000Y74122000D01*
X17653000Y74142000D01*
X17907000Y74142000D01*
X17907000Y74122000D01*
X17927000Y74122000D01*
X17927000Y73868000D01*
X17907000Y73868000D01*
X17907000Y73848000D01*
X17653000Y73848000D01*
X17653000Y73868000D01*
X16345000Y73868000D01*
X16345000Y73468000D01*
X16397350Y73190486D01*
X16445180Y73071700D01*
X11854601Y73071700D01*
X9578339Y75347962D01*
X9560274Y75369974D01*
X9472415Y75442079D01*
X9372176Y75495657D01*
X9308070Y75515103D01*
X9263411Y75528651D01*
X9208345Y75534074D01*
X9198128Y75535080D01*
X9197167Y75537400D01*
X16910628Y75537400D01*
X16855105Y75499500D01*
G37*
G04 #@! TD.AperFunction*
M02*
