G04 #@! TF.GenerationSoftware,KiCad,Pcbnew,(5.1.9)-1*
G04 #@! TF.CreationDate,2024-08-30T09:44:18+09:00*
G04 #@! TF.ProjectId,MZ80k_SD,4d5a3830-6b5f-4534-942e-6b696361645f,rev?*
G04 #@! TF.SameCoordinates,PX53920b0PY93c3260*
G04 #@! TF.FileFunction,Legend,Top*
G04 #@! TF.FilePolarity,Positive*
%FSLAX46Y46*%
G04 Gerber Fmt 4.6, Leading zero omitted, Abs format (unit mm)*
G04 Created by KiCad (PCBNEW (5.1.9)-1) date 2024-08-30 09:44:18*
%MOMM*%
%LPD*%
G01*
G04 APERTURE LIST*
%ADD10C,0.150000*%
%ADD11C,0.250000*%
%ADD12C,0.120000*%
G04 APERTURE END LIST*
D10*
X54976190Y93119048D02*
X54880952Y93166667D01*
X54833333Y93214286D01*
X54785714Y93309524D01*
X54785714Y93357143D01*
X54833333Y93452381D01*
X54880952Y93500000D01*
X54976190Y93547620D01*
X55166666Y93547620D01*
X55261904Y93500000D01*
X55309523Y93452381D01*
X55357142Y93357143D01*
X55357142Y93309524D01*
X55309523Y93214286D01*
X55261904Y93166667D01*
X55166666Y93119048D01*
X54976190Y93119048D01*
X54880952Y93071429D01*
X54833333Y93023810D01*
X54785714Y92928572D01*
X54785714Y92738096D01*
X54833333Y92642858D01*
X54880952Y92595239D01*
X54976190Y92547620D01*
X55166666Y92547620D01*
X55261904Y92595239D01*
X55309523Y92642858D01*
X55357142Y92738096D01*
X55357142Y92928572D01*
X55309523Y93023810D01*
X55261904Y93071429D01*
X55166666Y93119048D01*
X55976190Y93547620D02*
X56071428Y93547620D01*
X56166666Y93500000D01*
X56214285Y93452381D01*
X56261904Y93357143D01*
X56309523Y93166667D01*
X56309523Y92928572D01*
X56261904Y92738096D01*
X56214285Y92642858D01*
X56166666Y92595239D01*
X56071428Y92547620D01*
X55976190Y92547620D01*
X55880952Y92595239D01*
X55833333Y92642858D01*
X55785714Y92738096D01*
X55738095Y92928572D01*
X55738095Y93166667D01*
X55785714Y93357143D01*
X55833333Y93452381D01*
X55880952Y93500000D01*
X55976190Y93547620D01*
X56738095Y92547620D02*
X56738095Y93547620D01*
X57309523Y92547620D02*
X56880952Y93119048D01*
X57309523Y93547620D02*
X56738095Y92976191D01*
X58452380Y93595239D02*
X57595238Y92309524D01*
X58690476Y93547620D02*
X59357142Y93547620D01*
X58928571Y92547620D01*
X59928571Y93547620D02*
X60023809Y93547620D01*
X60119047Y93500000D01*
X60166666Y93452381D01*
X60214285Y93357143D01*
X60261904Y93166667D01*
X60261904Y92928572D01*
X60214285Y92738096D01*
X60166666Y92642858D01*
X60119047Y92595239D01*
X60023809Y92547620D01*
X59928571Y92547620D01*
X59833333Y92595239D01*
X59785714Y92642858D01*
X59738095Y92738096D01*
X59690476Y92928572D01*
X59690476Y93166667D01*
X59738095Y93357143D01*
X59785714Y93452381D01*
X59833333Y93500000D01*
X59928571Y93547620D01*
X60880952Y93547620D02*
X60976190Y93547620D01*
X61071428Y93500000D01*
X61119047Y93452381D01*
X61166666Y93357143D01*
X61214285Y93166667D01*
X61214285Y92928572D01*
X61166666Y92738096D01*
X61119047Y92642858D01*
X61071428Y92595239D01*
X60976190Y92547620D01*
X60880952Y92547620D01*
X60785714Y92595239D01*
X60738095Y92642858D01*
X60690476Y92738096D01*
X60642857Y92928572D01*
X60642857Y93166667D01*
X60690476Y93357143D01*
X60738095Y93452381D01*
X60785714Y93500000D01*
X60880952Y93547620D01*
X87177619Y57872239D02*
X87177619Y58443667D01*
X87177619Y58157953D02*
X88177619Y58157953D01*
X88034761Y58253191D01*
X87939523Y58348429D01*
X87891904Y58443667D01*
X88177619Y57253191D02*
X88177619Y57157953D01*
X88130000Y57062715D01*
X88082380Y57015096D01*
X87987142Y56967477D01*
X87796666Y56919858D01*
X87558571Y56919858D01*
X87368095Y56967477D01*
X87272857Y57015096D01*
X87225238Y57062715D01*
X87177619Y57157953D01*
X87177619Y57253191D01*
X87225238Y57348429D01*
X87272857Y57396048D01*
X87368095Y57443667D01*
X87558571Y57491286D01*
X87796666Y57491286D01*
X87987142Y57443667D01*
X88082380Y57396048D01*
X88130000Y57348429D01*
X88177619Y57253191D01*
X87177619Y56491286D02*
X88177619Y56491286D01*
X87558571Y56396048D02*
X87177619Y56110334D01*
X87844285Y56110334D02*
X87463333Y56491286D01*
X68811190Y63047620D02*
X68811190Y64047620D01*
X69144523Y63333334D01*
X69477857Y64047620D01*
X69477857Y63047620D01*
X69954047Y63047620D02*
X69954047Y63714286D01*
X69954047Y64047620D02*
X69906428Y64000000D01*
X69954047Y63952381D01*
X70001666Y64000000D01*
X69954047Y64047620D01*
X69954047Y63952381D01*
X70858809Y63095239D02*
X70763571Y63047620D01*
X70573095Y63047620D01*
X70477857Y63095239D01*
X70430238Y63142858D01*
X70382619Y63238096D01*
X70382619Y63523810D01*
X70430238Y63619048D01*
X70477857Y63666667D01*
X70573095Y63714286D01*
X70763571Y63714286D01*
X70858809Y63666667D01*
X71287380Y63047620D02*
X71287380Y63714286D01*
X71287380Y63523810D02*
X71335000Y63619048D01*
X71382619Y63666667D01*
X71477857Y63714286D01*
X71573095Y63714286D01*
X72049285Y63047620D02*
X71954047Y63095239D01*
X71906428Y63142858D01*
X71858809Y63238096D01*
X71858809Y63523810D01*
X71906428Y63619048D01*
X71954047Y63666667D01*
X72049285Y63714286D01*
X72192142Y63714286D01*
X72287380Y63666667D01*
X72335000Y63619048D01*
X72382619Y63523810D01*
X72382619Y63238096D01*
X72335000Y63142858D01*
X72287380Y63095239D01*
X72192142Y63047620D01*
X72049285Y63047620D01*
X72763571Y63095239D02*
X72906428Y63047620D01*
X73144523Y63047620D01*
X73239761Y63095239D01*
X73287380Y63142858D01*
X73335000Y63238096D01*
X73335000Y63333334D01*
X73287380Y63428572D01*
X73239761Y63476191D01*
X73144523Y63523810D01*
X72954047Y63571429D01*
X72858809Y63619048D01*
X72811190Y63666667D01*
X72763571Y63761905D01*
X72763571Y63857143D01*
X72811190Y63952381D01*
X72858809Y64000000D01*
X72954047Y64047620D01*
X73192142Y64047620D01*
X73335000Y64000000D01*
X73763571Y63047620D02*
X73763571Y64047620D01*
X74001666Y64047620D01*
X74144523Y64000000D01*
X74239761Y63904762D01*
X74287380Y63809524D01*
X74335000Y63619048D01*
X74335000Y63476191D01*
X74287380Y63285715D01*
X74239761Y63190477D01*
X74144523Y63095239D01*
X74001666Y63047620D01*
X73763571Y63047620D01*
X76096904Y63142858D02*
X76049285Y63095239D01*
X75906428Y63047620D01*
X75811190Y63047620D01*
X75668333Y63095239D01*
X75573095Y63190477D01*
X75525476Y63285715D01*
X75477857Y63476191D01*
X75477857Y63619048D01*
X75525476Y63809524D01*
X75573095Y63904762D01*
X75668333Y64000000D01*
X75811190Y64047620D01*
X75906428Y64047620D01*
X76049285Y64000000D01*
X76096904Y63952381D01*
X76954047Y63047620D02*
X76954047Y63571429D01*
X76906428Y63666667D01*
X76811190Y63714286D01*
X76620714Y63714286D01*
X76525476Y63666667D01*
X76954047Y63095239D02*
X76858809Y63047620D01*
X76620714Y63047620D01*
X76525476Y63095239D01*
X76477857Y63190477D01*
X76477857Y63285715D01*
X76525476Y63380953D01*
X76620714Y63428572D01*
X76858809Y63428572D01*
X76954047Y63476191D01*
X77430238Y63047620D02*
X77430238Y63714286D01*
X77430238Y63523810D02*
X77477857Y63619048D01*
X77525476Y63666667D01*
X77620714Y63714286D01*
X77715952Y63714286D01*
X78477857Y63047620D02*
X78477857Y64047620D01*
X78477857Y63095239D02*
X78382619Y63047620D01*
X78192142Y63047620D01*
X78096904Y63095239D01*
X78049285Y63142858D01*
X78001666Y63238096D01*
X78001666Y63523810D01*
X78049285Y63619048D01*
X78096904Y63666667D01*
X78192142Y63714286D01*
X78382619Y63714286D01*
X78477857Y63666667D01*
X79668333Y63333334D02*
X80144523Y63333334D01*
X79573095Y63047620D02*
X79906428Y64047620D01*
X80239761Y63047620D01*
X81001666Y63047620D02*
X81001666Y64047620D01*
X81001666Y63095239D02*
X80906428Y63047620D01*
X80715952Y63047620D01*
X80620714Y63095239D01*
X80573095Y63142858D01*
X80525476Y63238096D01*
X80525476Y63523810D01*
X80573095Y63619048D01*
X80620714Y63666667D01*
X80715952Y63714286D01*
X80906428Y63714286D01*
X81001666Y63666667D01*
X81906428Y63047620D02*
X81906428Y63571429D01*
X81858809Y63666667D01*
X81763571Y63714286D01*
X81573095Y63714286D01*
X81477857Y63666667D01*
X81906428Y63095239D02*
X81811190Y63047620D01*
X81573095Y63047620D01*
X81477857Y63095239D01*
X81430238Y63190477D01*
X81430238Y63285715D01*
X81477857Y63380953D01*
X81573095Y63428572D01*
X81811190Y63428572D01*
X81906428Y63476191D01*
X82382619Y63714286D02*
X82382619Y62714286D01*
X82382619Y63666667D02*
X82477857Y63714286D01*
X82668333Y63714286D01*
X82763571Y63666667D01*
X82811190Y63619048D01*
X82858809Y63523810D01*
X82858809Y63238096D01*
X82811190Y63142858D01*
X82763571Y63095239D01*
X82668333Y63047620D01*
X82477857Y63047620D01*
X82382619Y63095239D01*
X83144523Y63714286D02*
X83525476Y63714286D01*
X83287380Y64047620D02*
X83287380Y63190477D01*
X83334999Y63095239D01*
X83430238Y63047620D01*
X83525476Y63047620D01*
X84239761Y63095239D02*
X84144523Y63047620D01*
X83954047Y63047620D01*
X83858809Y63095239D01*
X83811190Y63190477D01*
X83811190Y63571429D01*
X83858809Y63666667D01*
X83954047Y63714286D01*
X84144523Y63714286D01*
X84239761Y63666667D01*
X84287380Y63571429D01*
X84287380Y63476191D01*
X83811190Y63380953D01*
X84715952Y63047620D02*
X84715952Y63714286D01*
X84715952Y63523810D02*
X84763571Y63619048D01*
X84811190Y63666667D01*
X84906428Y63714286D01*
X85001666Y63714286D01*
X73800000Y71138096D02*
X73752380Y71042858D01*
X73752380Y70900000D01*
X73800000Y70757143D01*
X73895238Y70661905D01*
X73990476Y70614286D01*
X74180952Y70566667D01*
X74323809Y70566667D01*
X74514285Y70614286D01*
X74609523Y70661905D01*
X74704761Y70757143D01*
X74752380Y70900000D01*
X74752380Y70995239D01*
X74704761Y71138096D01*
X74657142Y71185715D01*
X74323809Y71185715D01*
X74323809Y70995239D01*
X74752380Y71614286D02*
X73752380Y71614286D01*
X74752380Y72185715D01*
X73752380Y72185715D01*
X74752380Y72661905D02*
X73752380Y72661905D01*
X73752380Y72900000D01*
X73800000Y73042858D01*
X73895238Y73138096D01*
X73990476Y73185715D01*
X74180952Y73233334D01*
X74323809Y73233334D01*
X74514285Y73185715D01*
X74609523Y73138096D01*
X74704761Y73042858D01*
X74752380Y72900000D01*
X74752380Y72661905D01*
X66771428Y70814286D02*
X66771428Y71576191D01*
X67152380Y71195239D02*
X66390476Y71195239D01*
X66152380Y72528572D02*
X66152380Y72052381D01*
X66628571Y72004762D01*
X66580952Y72052381D01*
X66533333Y72147620D01*
X66533333Y72385715D01*
X66580952Y72480953D01*
X66628571Y72528572D01*
X66723809Y72576191D01*
X66961904Y72576191D01*
X67057142Y72528572D01*
X67104761Y72480953D01*
X67152380Y72385715D01*
X67152380Y72147620D01*
X67104761Y72052381D01*
X67057142Y72004762D01*
X66152380Y72861905D02*
X67152380Y73195239D01*
X66152380Y73528572D01*
X79852380Y70628572D02*
X78852380Y70628572D01*
X78852380Y70866667D01*
X78900000Y71009524D01*
X78995238Y71104762D01*
X79090476Y71152381D01*
X79280952Y71200000D01*
X79423809Y71200000D01*
X79614285Y71152381D01*
X79709523Y71104762D01*
X79804761Y71009524D01*
X79852380Y70866667D01*
X79852380Y70628572D01*
X79566666Y71580953D02*
X79566666Y72057143D01*
X79852380Y71485715D02*
X78852380Y71819048D01*
X79852380Y72152381D01*
X78852380Y72342858D02*
X78852380Y72914286D01*
X79852380Y72628572D02*
X78852380Y72628572D01*
X82257142Y71238096D02*
X82304761Y71190477D01*
X82352380Y71047620D01*
X82352380Y70952381D01*
X82304761Y70809524D01*
X82209523Y70714286D01*
X82114285Y70666667D01*
X81923809Y70619048D01*
X81780952Y70619048D01*
X81590476Y70666667D01*
X81495238Y70714286D01*
X81400000Y70809524D01*
X81352380Y70952381D01*
X81352380Y71047620D01*
X81400000Y71190477D01*
X81447619Y71238096D01*
X82352380Y71666667D02*
X81352380Y71666667D01*
X82066666Y72000000D01*
X81352380Y72333334D01*
X82352380Y72333334D01*
X82352380Y72809524D02*
X81352380Y72809524D01*
X81352380Y73047620D01*
X81400000Y73190477D01*
X81495238Y73285715D01*
X81590476Y73333334D01*
X81780952Y73380953D01*
X81923809Y73380953D01*
X82114285Y73333334D01*
X82209523Y73285715D01*
X82304761Y73190477D01*
X82352380Y73047620D01*
X82352380Y72809524D01*
X77257142Y71304762D02*
X77304761Y71257143D01*
X77352380Y71114286D01*
X77352380Y71019048D01*
X77304761Y70876191D01*
X77209523Y70780953D01*
X77114285Y70733334D01*
X76923809Y70685715D01*
X76780952Y70685715D01*
X76590476Y70733334D01*
X76495238Y70780953D01*
X76400000Y70876191D01*
X76352380Y71019048D01*
X76352380Y71114286D01*
X76400000Y71257143D01*
X76447619Y71304762D01*
X77352380Y72209524D02*
X77352380Y71733334D01*
X76352380Y71733334D01*
X77352380Y72542858D02*
X76352380Y72542858D01*
X77352380Y73114286D02*
X76780952Y72685715D01*
X76352380Y73114286D02*
X76923809Y72542858D01*
X83585000Y70523810D02*
X83585000Y71523810D01*
X84857142Y71333334D02*
X84904761Y71285715D01*
X84952380Y71142858D01*
X84952380Y71047620D01*
X84904761Y70904762D01*
X84809523Y70809524D01*
X84714285Y70761905D01*
X84523809Y70714286D01*
X84380952Y70714286D01*
X84190476Y70761905D01*
X84095238Y70809524D01*
X84000000Y70904762D01*
X83952380Y71047620D01*
X83952380Y71142858D01*
X84000000Y71285715D01*
X84047619Y71333334D01*
X83585000Y71523810D02*
X83585000Y72476191D01*
X84904761Y71714286D02*
X84952380Y71857143D01*
X84952380Y72095239D01*
X84904761Y72190477D01*
X84857142Y72238096D01*
X84761904Y72285715D01*
X84666666Y72285715D01*
X84571428Y72238096D01*
X84523809Y72190477D01*
X84476190Y72095239D01*
X84428571Y71904762D01*
X84380952Y71809524D01*
X84333333Y71761905D01*
X84238095Y71714286D01*
X84142857Y71714286D01*
X84047619Y71761905D01*
X84000000Y71809524D01*
X83952380Y71904762D01*
X83952380Y72142858D01*
X84000000Y72285715D01*
X70000000Y56438096D02*
X69952380Y56342858D01*
X69952380Y56200000D01*
X70000000Y56057143D01*
X70095238Y55961905D01*
X70190476Y55914286D01*
X70380952Y55866667D01*
X70523809Y55866667D01*
X70714285Y55914286D01*
X70809523Y55961905D01*
X70904761Y56057143D01*
X70952380Y56200000D01*
X70952380Y56295239D01*
X70904761Y56438096D01*
X70857142Y56485715D01*
X70523809Y56485715D01*
X70523809Y56295239D01*
X70952380Y56914286D02*
X69952380Y56914286D01*
X70952380Y57485715D01*
X69952380Y57485715D01*
X70952380Y57961905D02*
X69952380Y57961905D01*
X69952380Y58200000D01*
X70000000Y58342858D01*
X70095238Y58438096D01*
X70190476Y58485715D01*
X70380952Y58533334D01*
X70523809Y58533334D01*
X70714285Y58485715D01*
X70809523Y58438096D01*
X70904761Y58342858D01*
X70952380Y58200000D01*
X70952380Y57961905D01*
X73071428Y55814286D02*
X73071428Y56576191D01*
X73452380Y56195239D02*
X72690476Y56195239D01*
X72452380Y57528572D02*
X72452380Y57052381D01*
X72928571Y57004762D01*
X72880952Y57052381D01*
X72833333Y57147620D01*
X72833333Y57385715D01*
X72880952Y57480953D01*
X72928571Y57528572D01*
X73023809Y57576191D01*
X73261904Y57576191D01*
X73357142Y57528572D01*
X73404761Y57480953D01*
X73452380Y57385715D01*
X73452380Y57147620D01*
X73404761Y57052381D01*
X73357142Y57004762D01*
X72452380Y57861905D02*
X73452380Y58195239D01*
X72452380Y58528572D01*
X76052380Y55328572D02*
X75052380Y55328572D01*
X75766666Y55661905D01*
X75052380Y55995239D01*
X76052380Y55995239D01*
X76052380Y56471429D02*
X75052380Y56471429D01*
X76004761Y56900000D02*
X76052380Y57042858D01*
X76052380Y57280953D01*
X76004761Y57376191D01*
X75957142Y57423810D01*
X75861904Y57471429D01*
X75766666Y57471429D01*
X75671428Y57423810D01*
X75623809Y57376191D01*
X75576190Y57280953D01*
X75528571Y57090477D01*
X75480952Y56995239D01*
X75433333Y56947620D01*
X75338095Y56900000D01*
X75242857Y56900000D01*
X75147619Y56947620D01*
X75100000Y56995239D01*
X75052380Y57090477D01*
X75052380Y57328572D01*
X75100000Y57471429D01*
X75052380Y58090477D02*
X75052380Y58280953D01*
X75100000Y58376191D01*
X75195238Y58471429D01*
X75385714Y58519048D01*
X75719047Y58519048D01*
X75909523Y58471429D01*
X76004761Y58376191D01*
X76052380Y58280953D01*
X76052380Y58090477D01*
X76004761Y57995239D01*
X75909523Y57900000D01*
X75719047Y57852381D01*
X75385714Y57852381D01*
X75195238Y57900000D01*
X75100000Y57995239D01*
X75052380Y58090477D01*
X78552380Y55328572D02*
X77552380Y55328572D01*
X78266666Y55661905D01*
X77552380Y55995239D01*
X78552380Y55995239D01*
X77552380Y56661905D02*
X77552380Y56852381D01*
X77600000Y56947620D01*
X77695238Y57042858D01*
X77885714Y57090477D01*
X78219047Y57090477D01*
X78409523Y57042858D01*
X78504761Y56947620D01*
X78552380Y56852381D01*
X78552380Y56661905D01*
X78504761Y56566667D01*
X78409523Y56471429D01*
X78219047Y56423810D01*
X77885714Y56423810D01*
X77695238Y56471429D01*
X77600000Y56566667D01*
X77552380Y56661905D01*
X78504761Y57471429D02*
X78552380Y57614286D01*
X78552380Y57852381D01*
X78504761Y57947620D01*
X78457142Y57995239D01*
X78361904Y58042858D01*
X78266666Y58042858D01*
X78171428Y57995239D01*
X78123809Y57947620D01*
X78076190Y57852381D01*
X78028571Y57661905D01*
X77980952Y57566667D01*
X77933333Y57519048D01*
X77838095Y57471429D01*
X77742857Y57471429D01*
X77647619Y57519048D01*
X77600000Y57566667D01*
X77552380Y57661905D01*
X77552380Y57900000D01*
X77600000Y58042858D01*
X78552380Y58471429D02*
X77552380Y58471429D01*
X81104761Y55914286D02*
X81152380Y56057143D01*
X81152380Y56295239D01*
X81104761Y56390477D01*
X81057142Y56438096D01*
X80961904Y56485715D01*
X80866666Y56485715D01*
X80771428Y56438096D01*
X80723809Y56390477D01*
X80676190Y56295239D01*
X80628571Y56104762D01*
X80580952Y56009524D01*
X80533333Y55961905D01*
X80438095Y55914286D01*
X80342857Y55914286D01*
X80247619Y55961905D01*
X80200000Y56009524D01*
X80152380Y56104762D01*
X80152380Y56342858D01*
X80200000Y56485715D01*
X81057142Y57485715D02*
X81104761Y57438096D01*
X81152380Y57295239D01*
X81152380Y57200000D01*
X81104761Y57057143D01*
X81009523Y56961905D01*
X80914285Y56914286D01*
X80723809Y56866667D01*
X80580952Y56866667D01*
X80390476Y56914286D01*
X80295238Y56961905D01*
X80200000Y57057143D01*
X80152380Y57200000D01*
X80152380Y57295239D01*
X80200000Y57438096D01*
X80247619Y57485715D01*
X81152380Y57914286D02*
X80152380Y57914286D01*
X81152380Y58485715D02*
X80580952Y58057143D01*
X80152380Y58485715D02*
X80723809Y57914286D01*
X83557142Y57533334D02*
X83604761Y57485715D01*
X83652380Y57342858D01*
X83652380Y57247620D01*
X83604761Y57104762D01*
X83509523Y57009524D01*
X83414285Y56961905D01*
X83223809Y56914286D01*
X83080952Y56914286D01*
X82890476Y56961905D01*
X82795238Y57009524D01*
X82700000Y57104762D01*
X82652380Y57247620D01*
X82652380Y57342858D01*
X82700000Y57485715D01*
X82747619Y57533334D01*
X83604761Y57914286D02*
X83652380Y58057143D01*
X83652380Y58295239D01*
X83604761Y58390477D01*
X83557142Y58438096D01*
X83461904Y58485715D01*
X83366666Y58485715D01*
X83271428Y58438096D01*
X83223809Y58390477D01*
X83176190Y58295239D01*
X83128571Y58104762D01*
X83080952Y58009524D01*
X83033333Y57961905D01*
X82938095Y57914286D01*
X82842857Y57914286D01*
X82747619Y57961905D01*
X82700000Y58009524D01*
X82652380Y58104762D01*
X82652380Y58342858D01*
X82700000Y58485715D01*
X18327619Y34392858D02*
X18327619Y33726191D01*
X17327619Y34154762D01*
X17994285Y32916667D02*
X17327619Y32916667D01*
X18375238Y33154762D02*
X17660952Y33392858D01*
X17660952Y32773810D01*
X17327619Y31916667D02*
X17327619Y32392858D01*
X18327619Y32392858D01*
X17375238Y31630953D02*
X17327619Y31488096D01*
X17327619Y31250000D01*
X17375238Y31154762D01*
X17422857Y31107143D01*
X17518095Y31059524D01*
X17613333Y31059524D01*
X17708571Y31107143D01*
X17756190Y31154762D01*
X17803809Y31250000D01*
X17851428Y31440477D01*
X17899047Y31535715D01*
X17946666Y31583334D01*
X18041904Y31630953D01*
X18137142Y31630953D01*
X18232380Y31583334D01*
X18280000Y31535715D01*
X18327619Y31440477D01*
X18327619Y31202381D01*
X18280000Y31059524D01*
X18327619Y30440477D02*
X18327619Y30345239D01*
X18280000Y30250000D01*
X18232380Y30202381D01*
X18137142Y30154762D01*
X17946666Y30107143D01*
X17708571Y30107143D01*
X17518095Y30154762D01*
X17422857Y30202381D01*
X17375238Y30250000D01*
X17327619Y30345239D01*
X17327619Y30440477D01*
X17375238Y30535715D01*
X17422857Y30583334D01*
X17518095Y30630953D01*
X17708571Y30678572D01*
X17946666Y30678572D01*
X18137142Y30630953D01*
X18232380Y30583334D01*
X18280000Y30535715D01*
X18327619Y30440477D01*
X17994285Y29250000D02*
X17327619Y29250000D01*
X18375238Y29488096D02*
X17660952Y29726191D01*
X17660952Y29107143D01*
X18962619Y50267858D02*
X18962619Y49601191D01*
X17962619Y50029762D01*
X18629285Y48791667D02*
X17962619Y48791667D01*
X19010238Y49029762D02*
X18295952Y49267858D01*
X18295952Y48648810D01*
X17962619Y47791667D02*
X17962619Y48267858D01*
X18962619Y48267858D01*
X18010238Y47505953D02*
X17962619Y47363096D01*
X17962619Y47125000D01*
X18010238Y47029762D01*
X18057857Y46982143D01*
X18153095Y46934524D01*
X18248333Y46934524D01*
X18343571Y46982143D01*
X18391190Y47029762D01*
X18438809Y47125000D01*
X18486428Y47315477D01*
X18534047Y47410715D01*
X18581666Y47458334D01*
X18676904Y47505953D01*
X18772142Y47505953D01*
X18867380Y47458334D01*
X18915000Y47410715D01*
X18962619Y47315477D01*
X18962619Y47077381D01*
X18915000Y46934524D01*
X18962619Y46601191D02*
X18962619Y45982143D01*
X18581666Y46315477D01*
X18581666Y46172620D01*
X18534047Y46077381D01*
X18486428Y46029762D01*
X18391190Y45982143D01*
X18153095Y45982143D01*
X18057857Y46029762D01*
X18010238Y46077381D01*
X17962619Y46172620D01*
X17962619Y46458334D01*
X18010238Y46553572D01*
X18057857Y46601191D01*
X18962619Y45363096D02*
X18962619Y45267858D01*
X18915000Y45172620D01*
X18867380Y45125000D01*
X18772142Y45077381D01*
X18581666Y45029762D01*
X18343571Y45029762D01*
X18153095Y45077381D01*
X18057857Y45125000D01*
X18010238Y45172620D01*
X17962619Y45267858D01*
X17962619Y45363096D01*
X18010238Y45458334D01*
X18057857Y45505953D01*
X18153095Y45553572D01*
X18343571Y45601191D01*
X18581666Y45601191D01*
X18772142Y45553572D01*
X18867380Y45505953D01*
X18915000Y45458334D01*
X18962619Y45363096D01*
X18962619Y18517858D02*
X18962619Y17851191D01*
X17962619Y18279762D01*
X18629285Y17041667D02*
X17962619Y17041667D01*
X19010238Y17279762D02*
X18295952Y17517858D01*
X18295952Y16898810D01*
X17962619Y16041667D02*
X17962619Y16517858D01*
X18962619Y16517858D01*
X18010238Y15755953D02*
X17962619Y15613096D01*
X17962619Y15375000D01*
X18010238Y15279762D01*
X18057857Y15232143D01*
X18153095Y15184524D01*
X18248333Y15184524D01*
X18343571Y15232143D01*
X18391190Y15279762D01*
X18438809Y15375000D01*
X18486428Y15565477D01*
X18534047Y15660715D01*
X18581666Y15708334D01*
X18676904Y15755953D01*
X18772142Y15755953D01*
X18867380Y15708334D01*
X18915000Y15660715D01*
X18962619Y15565477D01*
X18962619Y15327381D01*
X18915000Y15184524D01*
X18962619Y14851191D02*
X18962619Y14232143D01*
X18581666Y14565477D01*
X18581666Y14422620D01*
X18534047Y14327381D01*
X18486428Y14279762D01*
X18391190Y14232143D01*
X18153095Y14232143D01*
X18057857Y14279762D01*
X18010238Y14327381D01*
X17962619Y14422620D01*
X17962619Y14708334D01*
X18010238Y14803572D01*
X18057857Y14851191D01*
X18962619Y13613096D02*
X18962619Y13517858D01*
X18915000Y13422620D01*
X18867380Y13375000D01*
X18772142Y13327381D01*
X18581666Y13279762D01*
X18343571Y13279762D01*
X18153095Y13327381D01*
X18057857Y13375000D01*
X18010238Y13422620D01*
X17962619Y13517858D01*
X17962619Y13613096D01*
X18010238Y13708334D01*
X18057857Y13755953D01*
X18153095Y13803572D01*
X18343571Y13851191D01*
X18581666Y13851191D01*
X18772142Y13803572D01*
X18867380Y13755953D01*
X18915000Y13708334D01*
X18962619Y13613096D01*
X40552619Y37202858D02*
X40552619Y37107620D01*
X40505000Y37012381D01*
X40457380Y36964762D01*
X40362142Y36917143D01*
X40171666Y36869524D01*
X39933571Y36869524D01*
X39743095Y36917143D01*
X39647857Y36964762D01*
X39600238Y37012381D01*
X39552619Y37107620D01*
X39552619Y37202858D01*
X39600238Y37298096D01*
X39647857Y37345715D01*
X39743095Y37393334D01*
X39933571Y37440953D01*
X40171666Y37440953D01*
X40362142Y37393334D01*
X40457380Y37345715D01*
X40505000Y37298096D01*
X40552619Y37202858D01*
X39647857Y36440953D02*
X39600238Y36393334D01*
X39552619Y36440953D01*
X39600238Y36488572D01*
X39647857Y36440953D01*
X39552619Y36440953D01*
X39552619Y35440953D02*
X39552619Y36012381D01*
X39552619Y35726667D02*
X40552619Y35726667D01*
X40409761Y35821905D01*
X40314523Y35917143D01*
X40266904Y36012381D01*
X40219285Y34583810D02*
X39552619Y34583810D01*
X40219285Y35012381D02*
X39695476Y35012381D01*
X39600238Y34964762D01*
X39552619Y34869524D01*
X39552619Y34726667D01*
X39600238Y34631429D01*
X39647857Y34583810D01*
X40076428Y33774286D02*
X40076428Y34107620D01*
X39552619Y34107620D02*
X40552619Y34107620D01*
X40552619Y33631429D01*
X40552619Y53077858D02*
X40552619Y52982620D01*
X40505000Y52887381D01*
X40457380Y52839762D01*
X40362142Y52792143D01*
X40171666Y52744524D01*
X39933571Y52744524D01*
X39743095Y52792143D01*
X39647857Y52839762D01*
X39600238Y52887381D01*
X39552619Y52982620D01*
X39552619Y53077858D01*
X39600238Y53173096D01*
X39647857Y53220715D01*
X39743095Y53268334D01*
X39933571Y53315953D01*
X40171666Y53315953D01*
X40362142Y53268334D01*
X40457380Y53220715D01*
X40505000Y53173096D01*
X40552619Y53077858D01*
X39647857Y52315953D02*
X39600238Y52268334D01*
X39552619Y52315953D01*
X39600238Y52363572D01*
X39647857Y52315953D01*
X39552619Y52315953D01*
X39552619Y51315953D02*
X39552619Y51887381D01*
X39552619Y51601667D02*
X40552619Y51601667D01*
X40409761Y51696905D01*
X40314523Y51792143D01*
X40266904Y51887381D01*
X40219285Y50458810D02*
X39552619Y50458810D01*
X40219285Y50887381D02*
X39695476Y50887381D01*
X39600238Y50839762D01*
X39552619Y50744524D01*
X39552619Y50601667D01*
X39600238Y50506429D01*
X39647857Y50458810D01*
X40076428Y49649286D02*
X40076428Y49982620D01*
X39552619Y49982620D02*
X40552619Y49982620D01*
X40552619Y49506429D01*
X40552619Y21327858D02*
X40552619Y21232620D01*
X40505000Y21137381D01*
X40457380Y21089762D01*
X40362142Y21042143D01*
X40171666Y20994524D01*
X39933571Y20994524D01*
X39743095Y21042143D01*
X39647857Y21089762D01*
X39600238Y21137381D01*
X39552619Y21232620D01*
X39552619Y21327858D01*
X39600238Y21423096D01*
X39647857Y21470715D01*
X39743095Y21518334D01*
X39933571Y21565953D01*
X40171666Y21565953D01*
X40362142Y21518334D01*
X40457380Y21470715D01*
X40505000Y21423096D01*
X40552619Y21327858D01*
X39647857Y20565953D02*
X39600238Y20518334D01*
X39552619Y20565953D01*
X39600238Y20613572D01*
X39647857Y20565953D01*
X39552619Y20565953D01*
X39552619Y19565953D02*
X39552619Y20137381D01*
X39552619Y19851667D02*
X40552619Y19851667D01*
X40409761Y19946905D01*
X40314523Y20042143D01*
X40266904Y20137381D01*
X40219285Y18708810D02*
X39552619Y18708810D01*
X40219285Y19137381D02*
X39695476Y19137381D01*
X39600238Y19089762D01*
X39552619Y18994524D01*
X39552619Y18851667D01*
X39600238Y18756429D01*
X39647857Y18708810D01*
X40076428Y17899286D02*
X40076428Y18232620D01*
X39552619Y18232620D02*
X40552619Y18232620D01*
X40552619Y17756429D01*
X1778095Y72890000D02*
X1682857Y72937620D01*
X1540000Y72937620D01*
X1397142Y72890000D01*
X1301904Y72794762D01*
X1254285Y72699524D01*
X1206666Y72509048D01*
X1206666Y72366191D01*
X1254285Y72175715D01*
X1301904Y72080477D01*
X1397142Y71985239D01*
X1540000Y71937620D01*
X1635238Y71937620D01*
X1778095Y71985239D01*
X1825714Y72032858D01*
X1825714Y72366191D01*
X1635238Y72366191D01*
X2254285Y71937620D02*
X2254285Y72937620D01*
X2825714Y71937620D01*
X2825714Y72937620D01*
X3301904Y71937620D02*
X3301904Y72937620D01*
X3540000Y72937620D01*
X3682857Y72890000D01*
X3778095Y72794762D01*
X3825714Y72699524D01*
X3873333Y72509048D01*
X3873333Y72366191D01*
X3825714Y72175715D01*
X3778095Y72080477D01*
X3682857Y71985239D01*
X3540000Y71937620D01*
X3301904Y71937620D01*
X1778095Y67810000D02*
X1682857Y67857620D01*
X1540000Y67857620D01*
X1397142Y67810000D01*
X1301904Y67714762D01*
X1254285Y67619524D01*
X1206666Y67429048D01*
X1206666Y67286191D01*
X1254285Y67095715D01*
X1301904Y67000477D01*
X1397142Y66905239D01*
X1540000Y66857620D01*
X1635238Y66857620D01*
X1778095Y66905239D01*
X1825714Y66952858D01*
X1825714Y67286191D01*
X1635238Y67286191D01*
X2254285Y66857620D02*
X2254285Y67857620D01*
X2825714Y66857620D01*
X2825714Y67857620D01*
X3301904Y66857620D02*
X3301904Y67857620D01*
X3540000Y67857620D01*
X3682857Y67810000D01*
X3778095Y67714762D01*
X3825714Y67619524D01*
X3873333Y67429048D01*
X3873333Y67286191D01*
X3825714Y67095715D01*
X3778095Y67000477D01*
X3682857Y66905239D01*
X3540000Y66857620D01*
X3301904Y66857620D01*
X1778095Y62730000D02*
X1682857Y62777620D01*
X1540000Y62777620D01*
X1397142Y62730000D01*
X1301904Y62634762D01*
X1254285Y62539524D01*
X1206666Y62349048D01*
X1206666Y62206191D01*
X1254285Y62015715D01*
X1301904Y61920477D01*
X1397142Y61825239D01*
X1540000Y61777620D01*
X1635238Y61777620D01*
X1778095Y61825239D01*
X1825714Y61872858D01*
X1825714Y62206191D01*
X1635238Y62206191D01*
X2254285Y61777620D02*
X2254285Y62777620D01*
X2825714Y61777620D01*
X2825714Y62777620D01*
X3301904Y61777620D02*
X3301904Y62777620D01*
X3540000Y62777620D01*
X3682857Y62730000D01*
X3778095Y62634762D01*
X3825714Y62539524D01*
X3873333Y62349048D01*
X3873333Y62206191D01*
X3825714Y62015715D01*
X3778095Y61920477D01*
X3682857Y61825239D01*
X3540000Y61777620D01*
X3301904Y61777620D01*
X1778095Y57650000D02*
X1682857Y57697620D01*
X1540000Y57697620D01*
X1397142Y57650000D01*
X1301904Y57554762D01*
X1254285Y57459524D01*
X1206666Y57269048D01*
X1206666Y57126191D01*
X1254285Y56935715D01*
X1301904Y56840477D01*
X1397142Y56745239D01*
X1540000Y56697620D01*
X1635238Y56697620D01*
X1778095Y56745239D01*
X1825714Y56792858D01*
X1825714Y57126191D01*
X1635238Y57126191D01*
X2254285Y56697620D02*
X2254285Y57697620D01*
X2825714Y56697620D01*
X2825714Y57697620D01*
X3301904Y56697620D02*
X3301904Y57697620D01*
X3540000Y57697620D01*
X3682857Y57650000D01*
X3778095Y57554762D01*
X3825714Y57459524D01*
X3873333Y57269048D01*
X3873333Y57126191D01*
X3825714Y56935715D01*
X3778095Y56840477D01*
X3682857Y56745239D01*
X3540000Y56697620D01*
X3301904Y56697620D01*
X1778095Y47490000D02*
X1682857Y47537620D01*
X1540000Y47537620D01*
X1397142Y47490000D01*
X1301904Y47394762D01*
X1254285Y47299524D01*
X1206666Y47109048D01*
X1206666Y46966191D01*
X1254285Y46775715D01*
X1301904Y46680477D01*
X1397142Y46585239D01*
X1540000Y46537620D01*
X1635238Y46537620D01*
X1778095Y46585239D01*
X1825714Y46632858D01*
X1825714Y46966191D01*
X1635238Y46966191D01*
X2254285Y46537620D02*
X2254285Y47537620D01*
X2825714Y46537620D01*
X2825714Y47537620D01*
X3301904Y46537620D02*
X3301904Y47537620D01*
X3540000Y47537620D01*
X3682857Y47490000D01*
X3778095Y47394762D01*
X3825714Y47299524D01*
X3873333Y47109048D01*
X3873333Y46966191D01*
X3825714Y46775715D01*
X3778095Y46680477D01*
X3682857Y46585239D01*
X3540000Y46537620D01*
X3301904Y46537620D01*
X1778095Y17010000D02*
X1682857Y17057620D01*
X1540000Y17057620D01*
X1397142Y17010000D01*
X1301904Y16914762D01*
X1254285Y16819524D01*
X1206666Y16629048D01*
X1206666Y16486191D01*
X1254285Y16295715D01*
X1301904Y16200477D01*
X1397142Y16105239D01*
X1540000Y16057620D01*
X1635238Y16057620D01*
X1778095Y16105239D01*
X1825714Y16152858D01*
X1825714Y16486191D01*
X1635238Y16486191D01*
X2254285Y16057620D02*
X2254285Y17057620D01*
X2825714Y16057620D01*
X2825714Y17057620D01*
X3301904Y16057620D02*
X3301904Y17057620D01*
X3540000Y17057620D01*
X3682857Y17010000D01*
X3778095Y16914762D01*
X3825714Y16819524D01*
X3873333Y16629048D01*
X3873333Y16486191D01*
X3825714Y16295715D01*
X3778095Y16200477D01*
X3682857Y16105239D01*
X3540000Y16057620D01*
X3301904Y16057620D01*
X1778095Y19550000D02*
X1682857Y19597620D01*
X1540000Y19597620D01*
X1397142Y19550000D01*
X1301904Y19454762D01*
X1254285Y19359524D01*
X1206666Y19169048D01*
X1206666Y19026191D01*
X1254285Y18835715D01*
X1301904Y18740477D01*
X1397142Y18645239D01*
X1540000Y18597620D01*
X1635238Y18597620D01*
X1778095Y18645239D01*
X1825714Y18692858D01*
X1825714Y19026191D01*
X1635238Y19026191D01*
X2254285Y18597620D02*
X2254285Y19597620D01*
X2825714Y18597620D01*
X2825714Y19597620D01*
X3301904Y18597620D02*
X3301904Y19597620D01*
X3540000Y19597620D01*
X3682857Y19550000D01*
X3778095Y19454762D01*
X3825714Y19359524D01*
X3873333Y19169048D01*
X3873333Y19026191D01*
X3825714Y18835715D01*
X3778095Y18740477D01*
X3682857Y18645239D01*
X3540000Y18597620D01*
X3301904Y18597620D01*
X1778095Y22090000D02*
X1682857Y22137620D01*
X1540000Y22137620D01*
X1397142Y22090000D01*
X1301904Y21994762D01*
X1254285Y21899524D01*
X1206666Y21709048D01*
X1206666Y21566191D01*
X1254285Y21375715D01*
X1301904Y21280477D01*
X1397142Y21185239D01*
X1540000Y21137620D01*
X1635238Y21137620D01*
X1778095Y21185239D01*
X1825714Y21232858D01*
X1825714Y21566191D01*
X1635238Y21566191D01*
X2254285Y21137620D02*
X2254285Y22137620D01*
X2825714Y21137620D01*
X2825714Y22137620D01*
X3301904Y21137620D02*
X3301904Y22137620D01*
X3540000Y22137620D01*
X3682857Y22090000D01*
X3778095Y21994762D01*
X3825714Y21899524D01*
X3873333Y21709048D01*
X3873333Y21566191D01*
X3825714Y21375715D01*
X3778095Y21280477D01*
X3682857Y21185239D01*
X3540000Y21137620D01*
X3301904Y21137620D01*
X1778095Y24630000D02*
X1682857Y24677620D01*
X1540000Y24677620D01*
X1397142Y24630000D01*
X1301904Y24534762D01*
X1254285Y24439524D01*
X1206666Y24249048D01*
X1206666Y24106191D01*
X1254285Y23915715D01*
X1301904Y23820477D01*
X1397142Y23725239D01*
X1540000Y23677620D01*
X1635238Y23677620D01*
X1778095Y23725239D01*
X1825714Y23772858D01*
X1825714Y24106191D01*
X1635238Y24106191D01*
X2254285Y23677620D02*
X2254285Y24677620D01*
X2825714Y23677620D01*
X2825714Y24677620D01*
X3301904Y23677620D02*
X3301904Y24677620D01*
X3540000Y24677620D01*
X3682857Y24630000D01*
X3778095Y24534762D01*
X3825714Y24439524D01*
X3873333Y24249048D01*
X3873333Y24106191D01*
X3825714Y23915715D01*
X3778095Y23820477D01*
X3682857Y23725239D01*
X3540000Y23677620D01*
X3301904Y23677620D01*
X1778095Y27170000D02*
X1682857Y27217620D01*
X1540000Y27217620D01*
X1397142Y27170000D01*
X1301904Y27074762D01*
X1254285Y26979524D01*
X1206666Y26789048D01*
X1206666Y26646191D01*
X1254285Y26455715D01*
X1301904Y26360477D01*
X1397142Y26265239D01*
X1540000Y26217620D01*
X1635238Y26217620D01*
X1778095Y26265239D01*
X1825714Y26312858D01*
X1825714Y26646191D01*
X1635238Y26646191D01*
X2254285Y26217620D02*
X2254285Y27217620D01*
X2825714Y26217620D01*
X2825714Y27217620D01*
X3301904Y26217620D02*
X3301904Y27217620D01*
X3540000Y27217620D01*
X3682857Y27170000D01*
X3778095Y27074762D01*
X3825714Y26979524D01*
X3873333Y26789048D01*
X3873333Y26646191D01*
X3825714Y26455715D01*
X3778095Y26360477D01*
X3682857Y26265239D01*
X3540000Y26217620D01*
X3301904Y26217620D01*
X1778095Y29710000D02*
X1682857Y29757620D01*
X1540000Y29757620D01*
X1397142Y29710000D01*
X1301904Y29614762D01*
X1254285Y29519524D01*
X1206666Y29329048D01*
X1206666Y29186191D01*
X1254285Y28995715D01*
X1301904Y28900477D01*
X1397142Y28805239D01*
X1540000Y28757620D01*
X1635238Y28757620D01*
X1778095Y28805239D01*
X1825714Y28852858D01*
X1825714Y29186191D01*
X1635238Y29186191D01*
X2254285Y28757620D02*
X2254285Y29757620D01*
X2825714Y28757620D01*
X2825714Y29757620D01*
X3301904Y28757620D02*
X3301904Y29757620D01*
X3540000Y29757620D01*
X3682857Y29710000D01*
X3778095Y29614762D01*
X3825714Y29519524D01*
X3873333Y29329048D01*
X3873333Y29186191D01*
X3825714Y28995715D01*
X3778095Y28900477D01*
X3682857Y28805239D01*
X3540000Y28757620D01*
X3301904Y28757620D01*
X1778095Y32250000D02*
X1682857Y32297620D01*
X1540000Y32297620D01*
X1397142Y32250000D01*
X1301904Y32154762D01*
X1254285Y32059524D01*
X1206666Y31869048D01*
X1206666Y31726191D01*
X1254285Y31535715D01*
X1301904Y31440477D01*
X1397142Y31345239D01*
X1540000Y31297620D01*
X1635238Y31297620D01*
X1778095Y31345239D01*
X1825714Y31392858D01*
X1825714Y31726191D01*
X1635238Y31726191D01*
X2254285Y31297620D02*
X2254285Y32297620D01*
X2825714Y31297620D01*
X2825714Y32297620D01*
X3301904Y31297620D02*
X3301904Y32297620D01*
X3540000Y32297620D01*
X3682857Y32250000D01*
X3778095Y32154762D01*
X3825714Y32059524D01*
X3873333Y31869048D01*
X3873333Y31726191D01*
X3825714Y31535715D01*
X3778095Y31440477D01*
X3682857Y31345239D01*
X3540000Y31297620D01*
X3301904Y31297620D01*
X1778095Y34790000D02*
X1682857Y34837620D01*
X1540000Y34837620D01*
X1397142Y34790000D01*
X1301904Y34694762D01*
X1254285Y34599524D01*
X1206666Y34409048D01*
X1206666Y34266191D01*
X1254285Y34075715D01*
X1301904Y33980477D01*
X1397142Y33885239D01*
X1540000Y33837620D01*
X1635238Y33837620D01*
X1778095Y33885239D01*
X1825714Y33932858D01*
X1825714Y34266191D01*
X1635238Y34266191D01*
X2254285Y33837620D02*
X2254285Y34837620D01*
X2825714Y33837620D01*
X2825714Y34837620D01*
X3301904Y33837620D02*
X3301904Y34837620D01*
X3540000Y34837620D01*
X3682857Y34790000D01*
X3778095Y34694762D01*
X3825714Y34599524D01*
X3873333Y34409048D01*
X3873333Y34266191D01*
X3825714Y34075715D01*
X3778095Y33980477D01*
X3682857Y33885239D01*
X3540000Y33837620D01*
X3301904Y33837620D01*
X78859047Y19303810D02*
X78906666Y19399048D01*
X78954285Y19446667D01*
X79049523Y19494286D01*
X79097142Y19494286D01*
X79192380Y19446667D01*
X79240000Y19399048D01*
X79287619Y19303810D01*
X79287619Y19113334D01*
X79240000Y19018096D01*
X79192380Y18970477D01*
X79097142Y18922858D01*
X79049523Y18922858D01*
X78954285Y18970477D01*
X78906666Y19018096D01*
X78859047Y19113334D01*
X78859047Y19303810D01*
X78811428Y19399048D01*
X78763809Y19446667D01*
X78668571Y19494286D01*
X78478095Y19494286D01*
X78382857Y19446667D01*
X78335238Y19399048D01*
X78287619Y19303810D01*
X78287619Y19113334D01*
X78335238Y19018096D01*
X78382857Y18970477D01*
X78478095Y18922858D01*
X78668571Y18922858D01*
X78763809Y18970477D01*
X78811428Y19018096D01*
X78859047Y19113334D01*
X79192380Y18541905D02*
X79240000Y18494286D01*
X79287619Y18399048D01*
X79287619Y18160953D01*
X79240000Y18065715D01*
X79192380Y18018096D01*
X79097142Y17970477D01*
X79001904Y17970477D01*
X78859047Y18018096D01*
X78287619Y18589524D01*
X78287619Y17970477D01*
X79287619Y17065715D02*
X79287619Y17541905D01*
X78811428Y17589524D01*
X78859047Y17541905D01*
X78906666Y17446667D01*
X78906666Y17208572D01*
X78859047Y17113334D01*
X78811428Y17065715D01*
X78716190Y17018096D01*
X78478095Y17018096D01*
X78382857Y17065715D01*
X78335238Y17113334D01*
X78287619Y17208572D01*
X78287619Y17446667D01*
X78335238Y17541905D01*
X78382857Y17589524D01*
X79287619Y16113334D02*
X79287619Y16589524D01*
X78811428Y16637143D01*
X78859047Y16589524D01*
X78906666Y16494286D01*
X78906666Y16256191D01*
X78859047Y16160953D01*
X78811428Y16113334D01*
X78716190Y16065715D01*
X78478095Y16065715D01*
X78382857Y16113334D01*
X78335238Y16160953D01*
X78287619Y16256191D01*
X78287619Y16494286D01*
X78335238Y16589524D01*
X78382857Y16637143D01*
X44362619Y23867858D02*
X44362619Y23772620D01*
X44315000Y23677381D01*
X44267380Y23629762D01*
X44172142Y23582143D01*
X43981666Y23534524D01*
X43743571Y23534524D01*
X43553095Y23582143D01*
X43457857Y23629762D01*
X43410238Y23677381D01*
X43362619Y23772620D01*
X43362619Y23867858D01*
X43410238Y23963096D01*
X43457857Y24010715D01*
X43553095Y24058334D01*
X43743571Y24105953D01*
X43981666Y24105953D01*
X44172142Y24058334D01*
X44267380Y24010715D01*
X44315000Y23963096D01*
X44362619Y23867858D01*
X43457857Y23105953D02*
X43410238Y23058334D01*
X43362619Y23105953D01*
X43410238Y23153572D01*
X43457857Y23105953D01*
X43362619Y23105953D01*
X43362619Y22105953D02*
X43362619Y22677381D01*
X43362619Y22391667D02*
X44362619Y22391667D01*
X44219761Y22486905D01*
X44124523Y22582143D01*
X44076904Y22677381D01*
X44029285Y21248810D02*
X43362619Y21248810D01*
X44029285Y21677381D02*
X43505476Y21677381D01*
X43410238Y21629762D01*
X43362619Y21534524D01*
X43362619Y21391667D01*
X43410238Y21296429D01*
X43457857Y21248810D01*
X43886428Y20439286D02*
X43886428Y20772620D01*
X43362619Y20772620D02*
X44362619Y20772620D01*
X44362619Y20296429D01*
X56983333Y46139762D02*
X56983333Y45663572D01*
X56697619Y46235000D02*
X57697619Y45901667D01*
X56697619Y45568334D01*
X56697619Y45235000D02*
X57364285Y45235000D01*
X57173809Y45235000D02*
X57269047Y45187381D01*
X57316666Y45139762D01*
X57364285Y45044524D01*
X57364285Y44949286D01*
X56697619Y44187381D02*
X57697619Y44187381D01*
X56745238Y44187381D02*
X56697619Y44282620D01*
X56697619Y44473096D01*
X56745238Y44568334D01*
X56792857Y44615953D01*
X56888095Y44663572D01*
X57173809Y44663572D01*
X57269047Y44615953D01*
X57316666Y44568334D01*
X57364285Y44473096D01*
X57364285Y44282620D01*
X57316666Y44187381D01*
X57364285Y43282620D02*
X56697619Y43282620D01*
X57364285Y43711191D02*
X56840476Y43711191D01*
X56745238Y43663572D01*
X56697619Y43568334D01*
X56697619Y43425477D01*
X56745238Y43330239D01*
X56792857Y43282620D01*
X56697619Y42806429D02*
X57364285Y42806429D01*
X57697619Y42806429D02*
X57650000Y42854048D01*
X57602380Y42806429D01*
X57650000Y42758810D01*
X57697619Y42806429D01*
X57602380Y42806429D01*
X57364285Y42330239D02*
X56697619Y42330239D01*
X57269047Y42330239D02*
X57316666Y42282620D01*
X57364285Y42187381D01*
X57364285Y42044524D01*
X57316666Y41949286D01*
X57221428Y41901667D01*
X56697619Y41901667D01*
X56697619Y41282620D02*
X56745238Y41377858D01*
X56792857Y41425477D01*
X56888095Y41473096D01*
X57173809Y41473096D01*
X57269047Y41425477D01*
X57316666Y41377858D01*
X57364285Y41282620D01*
X57364285Y41139762D01*
X57316666Y41044524D01*
X57269047Y40996905D01*
X57173809Y40949286D01*
X56888095Y40949286D01*
X56792857Y40996905D01*
X56745238Y41044524D01*
X56697619Y41139762D01*
X56697619Y41282620D01*
X56697619Y39758810D02*
X57697619Y39758810D01*
X57697619Y39377858D01*
X57650000Y39282620D01*
X57602380Y39235000D01*
X57507142Y39187381D01*
X57364285Y39187381D01*
X57269047Y39235000D01*
X57221428Y39282620D01*
X57173809Y39377858D01*
X57173809Y39758810D01*
X56697619Y38758810D02*
X57364285Y38758810D01*
X57173809Y38758810D02*
X57269047Y38711191D01*
X57316666Y38663572D01*
X57364285Y38568334D01*
X57364285Y38473096D01*
X56697619Y37996905D02*
X56745238Y38092143D01*
X56792857Y38139762D01*
X56888095Y38187381D01*
X57173809Y38187381D01*
X57269047Y38139762D01*
X57316666Y38092143D01*
X57364285Y37996905D01*
X57364285Y37854048D01*
X57316666Y37758810D01*
X57269047Y37711191D01*
X57173809Y37663572D01*
X56888095Y37663572D01*
X56792857Y37711191D01*
X56745238Y37758810D01*
X56697619Y37854048D01*
X56697619Y37996905D01*
X56697619Y36473096D02*
X57697619Y36473096D01*
X56983333Y36139762D01*
X57697619Y35806429D01*
X56697619Y35806429D01*
X56697619Y35330239D02*
X57364285Y35330239D01*
X57697619Y35330239D02*
X57650000Y35377858D01*
X57602380Y35330239D01*
X57650000Y35282620D01*
X57697619Y35330239D01*
X57602380Y35330239D01*
X57364285Y34854048D02*
X56697619Y34854048D01*
X57269047Y34854048D02*
X57316666Y34806429D01*
X57364285Y34711191D01*
X57364285Y34568334D01*
X57316666Y34473096D01*
X57221428Y34425477D01*
X56697619Y34425477D01*
X56697619Y33949286D02*
X57364285Y33949286D01*
X57697619Y33949286D02*
X57650000Y33996905D01*
X57602380Y33949286D01*
X57650000Y33901667D01*
X57697619Y33949286D01*
X57602380Y33949286D01*
X57697619Y32235000D02*
X57697619Y32711191D01*
X57221428Y32758810D01*
X57269047Y32711191D01*
X57316666Y32615953D01*
X57316666Y32377858D01*
X57269047Y32282620D01*
X57221428Y32235000D01*
X57126190Y32187381D01*
X56888095Y32187381D01*
X56792857Y32235000D01*
X56745238Y32282620D01*
X56697619Y32377858D01*
X56697619Y32615953D01*
X56745238Y32711191D01*
X56792857Y32758810D01*
X57697619Y31901667D02*
X56697619Y31568334D01*
X57697619Y31235000D01*
X55157619Y62642858D02*
X55157619Y62547620D01*
X55110000Y62452381D01*
X55062380Y62404762D01*
X54967142Y62357143D01*
X54776666Y62309524D01*
X54538571Y62309524D01*
X54348095Y62357143D01*
X54252857Y62404762D01*
X54205238Y62452381D01*
X54157619Y62547620D01*
X54157619Y62642858D01*
X54205238Y62738096D01*
X54252857Y62785715D01*
X54348095Y62833334D01*
X54538571Y62880953D01*
X54776666Y62880953D01*
X54967142Y62833334D01*
X55062380Y62785715D01*
X55110000Y62738096D01*
X55157619Y62642858D01*
X54252857Y61880953D02*
X54205238Y61833334D01*
X54157619Y61880953D01*
X54205238Y61928572D01*
X54252857Y61880953D01*
X54157619Y61880953D01*
X54157619Y60880953D02*
X54157619Y61452381D01*
X54157619Y61166667D02*
X55157619Y61166667D01*
X55014761Y61261905D01*
X54919523Y61357143D01*
X54871904Y61452381D01*
X54824285Y60023810D02*
X54157619Y60023810D01*
X54824285Y60452381D02*
X54300476Y60452381D01*
X54205238Y60404762D01*
X54157619Y60309524D01*
X54157619Y60166667D01*
X54205238Y60071429D01*
X54252857Y60023810D01*
X54681428Y59214286D02*
X54681428Y59547620D01*
X54157619Y59547620D02*
X55157619Y59547620D01*
X55157619Y59071429D01*
X26487380Y69024286D02*
X26535000Y68976667D01*
X26582619Y68881429D01*
X26582619Y68643334D01*
X26535000Y68548096D01*
X26487380Y68500477D01*
X26392142Y68452858D01*
X26296904Y68452858D01*
X26154047Y68500477D01*
X25582619Y69071905D01*
X25582619Y68452858D01*
X26582619Y68119524D02*
X26582619Y67452858D01*
X25582619Y67881429D01*
X26582619Y66643334D02*
X26582619Y66833810D01*
X26535000Y66929048D01*
X26487380Y66976667D01*
X26344523Y67071905D01*
X26154047Y67119524D01*
X25773095Y67119524D01*
X25677857Y67071905D01*
X25630238Y67024286D01*
X25582619Y66929048D01*
X25582619Y66738572D01*
X25630238Y66643334D01*
X25677857Y66595715D01*
X25773095Y66548096D01*
X26011190Y66548096D01*
X26106428Y66595715D01*
X26154047Y66643334D01*
X26201666Y66738572D01*
X26201666Y66929048D01*
X26154047Y67024286D01*
X26106428Y67071905D01*
X26011190Y67119524D01*
X26249285Y65690953D02*
X25582619Y65690953D01*
X26630238Y65929048D02*
X25915952Y66167143D01*
X25915952Y65548096D01*
X5238095Y79547620D02*
X5238095Y80547620D01*
X5571428Y79833334D01*
X5904761Y80547620D01*
X5904761Y79547620D01*
X6285714Y80547620D02*
X6952380Y80547620D01*
X6285714Y79547620D01*
X6952380Y79547620D01*
X7333333Y79928572D02*
X8095238Y79928572D01*
X8714285Y80119048D02*
X8619047Y80166667D01*
X8571428Y80214286D01*
X8523809Y80309524D01*
X8523809Y80357143D01*
X8571428Y80452381D01*
X8619047Y80500000D01*
X8714285Y80547620D01*
X8904761Y80547620D01*
X9000000Y80500000D01*
X9047619Y80452381D01*
X9095238Y80357143D01*
X9095238Y80309524D01*
X9047619Y80214286D01*
X9000000Y80166667D01*
X8904761Y80119048D01*
X8714285Y80119048D01*
X8619047Y80071429D01*
X8571428Y80023810D01*
X8523809Y79928572D01*
X8523809Y79738096D01*
X8571428Y79642858D01*
X8619047Y79595239D01*
X8714285Y79547620D01*
X8904761Y79547620D01*
X9000000Y79595239D01*
X9047619Y79642858D01*
X9095238Y79738096D01*
X9095238Y79928572D01*
X9047619Y80023810D01*
X9000000Y80071429D01*
X8904761Y80119048D01*
X9714285Y80547620D02*
X9809523Y80547620D01*
X9904761Y80500000D01*
X9952380Y80452381D01*
X10000000Y80357143D01*
X10047619Y80166667D01*
X10047619Y79928572D01*
X10000000Y79738096D01*
X9952380Y79642858D01*
X9904761Y79595239D01*
X9809523Y79547620D01*
X9714285Y79547620D01*
X9619047Y79595239D01*
X9571428Y79642858D01*
X9523809Y79738096D01*
X9476190Y79928572D01*
X9476190Y80166667D01*
X9523809Y80357143D01*
X9571428Y80452381D01*
X9619047Y80500000D01*
X9714285Y80547620D01*
X10476190Y79547620D02*
X10476190Y80547620D01*
X11047619Y79547620D02*
X10619047Y80119048D01*
X11047619Y80547620D02*
X10476190Y79976191D01*
X12571428Y80071429D02*
X12714285Y80023810D01*
X12761904Y79976191D01*
X12809523Y79880953D01*
X12809523Y79738096D01*
X12761904Y79642858D01*
X12714285Y79595239D01*
X12619047Y79547620D01*
X12238095Y79547620D01*
X12238095Y80547620D01*
X12571428Y80547620D01*
X12666666Y80500000D01*
X12714285Y80452381D01*
X12761904Y80357143D01*
X12761904Y80261905D01*
X12714285Y80166667D01*
X12666666Y80119048D01*
X12571428Y80071429D01*
X12238095Y80071429D01*
X13238095Y80547620D02*
X13238095Y79738096D01*
X13285714Y79642858D01*
X13333333Y79595239D01*
X13428571Y79547620D01*
X13619047Y79547620D01*
X13714285Y79595239D01*
X13761904Y79642858D01*
X13809523Y79738096D01*
X13809523Y80547620D01*
X14238095Y79595239D02*
X14380952Y79547620D01*
X14619047Y79547620D01*
X14714285Y79595239D01*
X14761904Y79642858D01*
X14809523Y79738096D01*
X14809523Y79833334D01*
X14761904Y79928572D01*
X14714285Y79976191D01*
X14619047Y80023810D01*
X14428571Y80071429D01*
X14333333Y80119048D01*
X14285714Y80166667D01*
X14238095Y80261905D01*
X14238095Y80357143D01*
X14285714Y80452381D01*
X14333333Y80500000D01*
X14428571Y80547620D01*
X14666666Y80547620D01*
X14809523Y80500000D01*
X9285714Y82547620D02*
X9285714Y83547620D01*
X9761904Y82547620D02*
X9761904Y83547620D01*
X10333333Y82547620D01*
X10333333Y83547620D01*
X10666666Y83547620D02*
X11238095Y83547620D01*
X10952380Y82547620D02*
X10952380Y83547620D01*
X12190476Y83547620D02*
X12523809Y82547620D01*
X12857142Y83547620D01*
X13761904Y82642858D02*
X13714285Y82595239D01*
X13571428Y82547620D01*
X13476190Y82547620D01*
X13333333Y82595239D01*
X13238095Y82690477D01*
X13190476Y82785715D01*
X13142857Y82976191D01*
X13142857Y83119048D01*
X13190476Y83309524D01*
X13238095Y83404762D01*
X13333333Y83500000D01*
X13476190Y83547620D01*
X13571428Y83547620D01*
X13714285Y83500000D01*
X13761904Y83452381D01*
X14761904Y82642858D02*
X14714285Y82595239D01*
X14571428Y82547620D01*
X14476190Y82547620D01*
X14333333Y82595239D01*
X14238095Y82690477D01*
X14190476Y82785715D01*
X14142857Y82976191D01*
X14142857Y83119048D01*
X14190476Y83309524D01*
X14238095Y83404762D01*
X14333333Y83500000D01*
X14476190Y83547620D01*
X14571428Y83547620D01*
X14714285Y83500000D01*
X14761904Y83452381D01*
X25142857Y82071429D02*
X25476190Y82071429D01*
X25619047Y81547620D02*
X25142857Y81547620D01*
X25142857Y82547620D01*
X25619047Y82547620D01*
X25952380Y82547620D02*
X26619047Y81547620D01*
X26619047Y82547620D02*
X25952380Y81547620D01*
X26857142Y82547620D02*
X27428571Y82547620D01*
X27142857Y81547620D02*
X27142857Y82547620D01*
X29000000Y82547620D02*
X28523809Y82547620D01*
X28476190Y82071429D01*
X28523809Y82119048D01*
X28619047Y82166667D01*
X28857142Y82166667D01*
X28952380Y82119048D01*
X29000000Y82071429D01*
X29047619Y81976191D01*
X29047619Y81738096D01*
X29000000Y81642858D01*
X28952380Y81595239D01*
X28857142Y81547620D01*
X28619047Y81547620D01*
X28523809Y81595239D01*
X28476190Y81642858D01*
X29333333Y82547620D02*
X29666666Y81547620D01*
X30000000Y82547620D01*
X33952380Y80547620D02*
X33380952Y80547620D01*
X33666666Y80547620D02*
X33666666Y81547620D01*
X33571428Y81404762D01*
X33476190Y81309524D01*
X33380952Y81261905D01*
X34571428Y81547620D02*
X34666666Y81547620D01*
X34761904Y81500000D01*
X34809523Y81452381D01*
X34857142Y81357143D01*
X34904761Y81166667D01*
X34904761Y80928572D01*
X34857142Y80738096D01*
X34809523Y80642858D01*
X34761904Y80595239D01*
X34666666Y80547620D01*
X34571428Y80547620D01*
X34476190Y80595239D01*
X34428571Y80642858D01*
X34380952Y80738096D01*
X34333333Y80928572D01*
X34333333Y81166667D01*
X34380952Y81357143D01*
X34428571Y81452381D01*
X34476190Y81500000D01*
X34571428Y81547620D01*
X35523809Y81547620D02*
X35619047Y81547620D01*
X35714285Y81500000D01*
X35761904Y81452381D01*
X35809523Y81357143D01*
X35857142Y81166667D01*
X35857142Y80928572D01*
X35809523Y80738096D01*
X35761904Y80642858D01*
X35714285Y80595239D01*
X35619047Y80547620D01*
X35523809Y80547620D01*
X35428571Y80595239D01*
X35380952Y80642858D01*
X35333333Y80738096D01*
X35285714Y80928572D01*
X35285714Y81166667D01*
X35333333Y81357143D01*
X35380952Y81452381D01*
X35428571Y81500000D01*
X35523809Y81547620D01*
X36714285Y81214286D02*
X36714285Y80547620D01*
X36285714Y81214286D02*
X36285714Y80690477D01*
X36333333Y80595239D01*
X36428571Y80547620D01*
X36571428Y80547620D01*
X36666666Y80595239D01*
X36714285Y80642858D01*
X37523809Y81071429D02*
X37190476Y81071429D01*
X37190476Y80547620D02*
X37190476Y81547620D01*
X37666666Y81547620D01*
X44078095Y92305239D02*
X44220952Y92257620D01*
X44459047Y92257620D01*
X44554285Y92305239D01*
X44601904Y92352858D01*
X44649523Y92448096D01*
X44649523Y92543334D01*
X44601904Y92638572D01*
X44554285Y92686191D01*
X44459047Y92733810D01*
X44268571Y92781429D01*
X44173333Y92829048D01*
X44125714Y92876667D01*
X44078095Y92971905D01*
X44078095Y93067143D01*
X44125714Y93162381D01*
X44173333Y93210000D01*
X44268571Y93257620D01*
X44506666Y93257620D01*
X44649523Y93210000D01*
X45078095Y92257620D02*
X45078095Y93257620D01*
X45316190Y93257620D01*
X45459047Y93210000D01*
X45554285Y93114762D01*
X45601904Y93019524D01*
X45649523Y92829048D01*
X45649523Y92686191D01*
X45601904Y92495715D01*
X45554285Y92400477D01*
X45459047Y92305239D01*
X45316190Y92257620D01*
X45078095Y92257620D01*
X46792380Y93305239D02*
X45935238Y92019524D01*
X47697142Y92352858D02*
X47649523Y92305239D01*
X47506666Y92257620D01*
X47411428Y92257620D01*
X47268571Y92305239D01*
X47173333Y92400477D01*
X47125714Y92495715D01*
X47078095Y92686191D01*
X47078095Y92829048D01*
X47125714Y93019524D01*
X47173333Y93114762D01*
X47268571Y93210000D01*
X47411428Y93257620D01*
X47506666Y93257620D01*
X47649523Y93210000D01*
X47697142Y93162381D01*
X48125714Y92257620D02*
X48125714Y93257620D01*
X48459047Y92543334D01*
X48792380Y93257620D01*
X48792380Y92257620D01*
X49125714Y93257620D02*
X49697142Y93257620D01*
X49411428Y92257620D02*
X49411428Y93257620D01*
X33131904Y92257620D02*
X33131904Y93257620D01*
X33608095Y92257620D02*
X33608095Y93257620D01*
X34179523Y92257620D01*
X34179523Y93257620D01*
X34512857Y93257620D02*
X35084285Y93257620D01*
X34798571Y92257620D02*
X34798571Y93257620D01*
X36131904Y93305239D02*
X35274761Y92019524D01*
X36465238Y92781429D02*
X36798571Y92781429D01*
X36941428Y92257620D02*
X36465238Y92257620D01*
X36465238Y93257620D01*
X36941428Y93257620D01*
X37274761Y93257620D02*
X37941428Y92257620D01*
X37941428Y93257620D02*
X37274761Y92257620D01*
X38179523Y93257620D02*
X38750952Y93257620D01*
X38465238Y92257620D02*
X38465238Y93257620D01*
X1611428Y55157620D02*
X1849523Y54157620D01*
X2040000Y54871905D01*
X2230476Y54157620D01*
X2468571Y55157620D01*
X3420952Y54157620D02*
X3087619Y54633810D01*
X2849523Y54157620D02*
X2849523Y55157620D01*
X3230476Y55157620D01*
X3325714Y55110000D01*
X3373333Y55062381D01*
X3420952Y54967143D01*
X3420952Y54824286D01*
X3373333Y54729048D01*
X3325714Y54681429D01*
X3230476Y54633810D01*
X2849523Y54633810D01*
X2349523Y59237620D02*
X2016190Y59713810D01*
X1778095Y59237620D02*
X1778095Y60237620D01*
X2159047Y60237620D01*
X2254285Y60190000D01*
X2301904Y60142381D01*
X2349523Y60047143D01*
X2349523Y59904286D01*
X2301904Y59809048D01*
X2254285Y59761429D01*
X2159047Y59713810D01*
X1778095Y59713810D01*
X2778095Y59237620D02*
X2778095Y60237620D01*
X3016190Y60237620D01*
X3159047Y60190000D01*
X3254285Y60094762D01*
X3301904Y59999524D01*
X3349523Y59809048D01*
X3349523Y59666191D01*
X3301904Y59475715D01*
X3254285Y59380477D01*
X3159047Y59285239D01*
X3016190Y59237620D01*
X2778095Y59237620D01*
X1516190Y64317620D02*
X1516190Y65317620D01*
X2563809Y64317620D02*
X2230476Y64793810D01*
X1992380Y64317620D02*
X1992380Y65317620D01*
X2373333Y65317620D01*
X2468571Y65270000D01*
X2516190Y65222381D01*
X2563809Y65127143D01*
X2563809Y64984286D01*
X2516190Y64889048D01*
X2468571Y64841429D01*
X2373333Y64793810D01*
X1992380Y64793810D01*
X3659047Y64222381D02*
X3563809Y64270000D01*
X3468571Y64365239D01*
X3325714Y64508096D01*
X3230476Y64555715D01*
X3135238Y64555715D01*
X3182857Y64317620D02*
X3087619Y64365239D01*
X2992380Y64460477D01*
X2944761Y64650953D01*
X2944761Y64984286D01*
X2992380Y65174762D01*
X3087619Y65270000D01*
X3182857Y65317620D01*
X3373333Y65317620D01*
X3468571Y65270000D01*
X3563809Y65174762D01*
X3611428Y64984286D01*
X3611428Y64650953D01*
X3563809Y64460477D01*
X3468571Y64365239D01*
X3373333Y64317620D01*
X3182857Y64317620D01*
X1182857Y69397620D02*
X1182857Y70397620D01*
X1516190Y69683334D01*
X1849523Y70397620D01*
X1849523Y69397620D01*
X2897142Y69397620D02*
X2563809Y69873810D01*
X2325714Y69397620D02*
X2325714Y70397620D01*
X2706666Y70397620D01*
X2801904Y70350000D01*
X2849523Y70302381D01*
X2897142Y70207143D01*
X2897142Y70064286D01*
X2849523Y69969048D01*
X2801904Y69921429D01*
X2706666Y69873810D01*
X2325714Y69873810D01*
X3992380Y69302381D02*
X3897142Y69350000D01*
X3801904Y69445239D01*
X3659047Y69588096D01*
X3563809Y69635715D01*
X3468571Y69635715D01*
X3516190Y69397620D02*
X3420952Y69445239D01*
X3325714Y69540477D01*
X3278095Y69730953D01*
X3278095Y70064286D01*
X3325714Y70254762D01*
X3420952Y70350000D01*
X3516190Y70397620D01*
X3706666Y70397620D01*
X3801904Y70350000D01*
X3897142Y70254762D01*
X3944761Y70064286D01*
X3944761Y69730953D01*
X3897142Y69540477D01*
X3801904Y69445239D01*
X3706666Y69397620D01*
X3516190Y69397620D01*
X1920952Y38917620D02*
X1587619Y39393810D01*
X1349523Y38917620D02*
X1349523Y39917620D01*
X1730476Y39917620D01*
X1825714Y39870000D01*
X1873333Y39822381D01*
X1920952Y39727143D01*
X1920952Y39584286D01*
X1873333Y39489048D01*
X1825714Y39441429D01*
X1730476Y39393810D01*
X1349523Y39393810D01*
X2349523Y39441429D02*
X2682857Y39441429D01*
X2825714Y38917620D02*
X2349523Y38917620D01*
X2349523Y39917620D01*
X2825714Y39917620D01*
X3206666Y38965239D02*
X3349523Y38917620D01*
X3587619Y38917620D01*
X3682857Y38965239D01*
X3730476Y39012858D01*
X3778095Y39108096D01*
X3778095Y39203334D01*
X3730476Y39298572D01*
X3682857Y39346191D01*
X3587619Y39393810D01*
X3397142Y39441429D01*
X3301904Y39489048D01*
X3254285Y39536667D01*
X3206666Y39631905D01*
X3206666Y39727143D01*
X3254285Y39822381D01*
X3301904Y39870000D01*
X3397142Y39917620D01*
X3635238Y39917620D01*
X3778095Y39870000D01*
X1778095Y37330000D02*
X1682857Y37377620D01*
X1540000Y37377620D01*
X1397142Y37330000D01*
X1301904Y37234762D01*
X1254285Y37139524D01*
X1206666Y36949048D01*
X1206666Y36806191D01*
X1254285Y36615715D01*
X1301904Y36520477D01*
X1397142Y36425239D01*
X1540000Y36377620D01*
X1635238Y36377620D01*
X1778095Y36425239D01*
X1825714Y36472858D01*
X1825714Y36806191D01*
X1635238Y36806191D01*
X2254285Y36377620D02*
X2254285Y37377620D01*
X2825714Y36377620D01*
X2825714Y37377620D01*
X3301904Y36377620D02*
X3301904Y37377620D01*
X3540000Y37377620D01*
X3682857Y37330000D01*
X3778095Y37234762D01*
X3825714Y37139524D01*
X3873333Y36949048D01*
X3873333Y36806191D01*
X3825714Y36615715D01*
X3778095Y36520477D01*
X3682857Y36425239D01*
X3540000Y36377620D01*
X3301904Y36377620D01*
X10056904Y16057620D02*
X10056904Y17057620D01*
X10295000Y17057620D01*
X10437857Y17010000D01*
X10533095Y16914762D01*
X10580714Y16819524D01*
X10628333Y16629048D01*
X10628333Y16486191D01*
X10580714Y16295715D01*
X10533095Y16200477D01*
X10437857Y16105239D01*
X10295000Y16057620D01*
X10056904Y16057620D01*
X11247380Y17057620D02*
X11342619Y17057620D01*
X11437857Y17010000D01*
X11485476Y16962381D01*
X11533095Y16867143D01*
X11580714Y16676667D01*
X11580714Y16438572D01*
X11533095Y16248096D01*
X11485476Y16152858D01*
X11437857Y16105239D01*
X11342619Y16057620D01*
X11247380Y16057620D01*
X11152142Y16105239D01*
X11104523Y16152858D01*
X11056904Y16248096D01*
X11009285Y16438572D01*
X11009285Y16676667D01*
X11056904Y16867143D01*
X11104523Y16962381D01*
X11152142Y17010000D01*
X11247380Y17057620D01*
X10056904Y18597620D02*
X10056904Y19597620D01*
X10295000Y19597620D01*
X10437857Y19550000D01*
X10533095Y19454762D01*
X10580714Y19359524D01*
X10628333Y19169048D01*
X10628333Y19026191D01*
X10580714Y18835715D01*
X10533095Y18740477D01*
X10437857Y18645239D01*
X10295000Y18597620D01*
X10056904Y18597620D01*
X11580714Y18597620D02*
X11009285Y18597620D01*
X11295000Y18597620D02*
X11295000Y19597620D01*
X11199761Y19454762D01*
X11104523Y19359524D01*
X11009285Y19311905D01*
X10056904Y21137620D02*
X10056904Y22137620D01*
X10295000Y22137620D01*
X10437857Y22090000D01*
X10533095Y21994762D01*
X10580714Y21899524D01*
X10628333Y21709048D01*
X10628333Y21566191D01*
X10580714Y21375715D01*
X10533095Y21280477D01*
X10437857Y21185239D01*
X10295000Y21137620D01*
X10056904Y21137620D01*
X11009285Y22042381D02*
X11056904Y22090000D01*
X11152142Y22137620D01*
X11390238Y22137620D01*
X11485476Y22090000D01*
X11533095Y22042381D01*
X11580714Y21947143D01*
X11580714Y21851905D01*
X11533095Y21709048D01*
X10961666Y21137620D01*
X11580714Y21137620D01*
X10056904Y23677620D02*
X10056904Y24677620D01*
X10295000Y24677620D01*
X10437857Y24630000D01*
X10533095Y24534762D01*
X10580714Y24439524D01*
X10628333Y24249048D01*
X10628333Y24106191D01*
X10580714Y23915715D01*
X10533095Y23820477D01*
X10437857Y23725239D01*
X10295000Y23677620D01*
X10056904Y23677620D01*
X10961666Y24677620D02*
X11580714Y24677620D01*
X11247380Y24296667D01*
X11390238Y24296667D01*
X11485476Y24249048D01*
X11533095Y24201429D01*
X11580714Y24106191D01*
X11580714Y23868096D01*
X11533095Y23772858D01*
X11485476Y23725239D01*
X11390238Y23677620D01*
X11104523Y23677620D01*
X11009285Y23725239D01*
X10961666Y23772858D01*
X10056904Y26217620D02*
X10056904Y27217620D01*
X10295000Y27217620D01*
X10437857Y27170000D01*
X10533095Y27074762D01*
X10580714Y26979524D01*
X10628333Y26789048D01*
X10628333Y26646191D01*
X10580714Y26455715D01*
X10533095Y26360477D01*
X10437857Y26265239D01*
X10295000Y26217620D01*
X10056904Y26217620D01*
X11485476Y26884286D02*
X11485476Y26217620D01*
X11247380Y27265239D02*
X11009285Y26550953D01*
X11628333Y26550953D01*
X10056904Y28757620D02*
X10056904Y29757620D01*
X10295000Y29757620D01*
X10437857Y29710000D01*
X10533095Y29614762D01*
X10580714Y29519524D01*
X10628333Y29329048D01*
X10628333Y29186191D01*
X10580714Y28995715D01*
X10533095Y28900477D01*
X10437857Y28805239D01*
X10295000Y28757620D01*
X10056904Y28757620D01*
X11533095Y29757620D02*
X11056904Y29757620D01*
X11009285Y29281429D01*
X11056904Y29329048D01*
X11152142Y29376667D01*
X11390238Y29376667D01*
X11485476Y29329048D01*
X11533095Y29281429D01*
X11580714Y29186191D01*
X11580714Y28948096D01*
X11533095Y28852858D01*
X11485476Y28805239D01*
X11390238Y28757620D01*
X11152142Y28757620D01*
X11056904Y28805239D01*
X11009285Y28852858D01*
X10056904Y31297620D02*
X10056904Y32297620D01*
X10295000Y32297620D01*
X10437857Y32250000D01*
X10533095Y32154762D01*
X10580714Y32059524D01*
X10628333Y31869048D01*
X10628333Y31726191D01*
X10580714Y31535715D01*
X10533095Y31440477D01*
X10437857Y31345239D01*
X10295000Y31297620D01*
X10056904Y31297620D01*
X11485476Y32297620D02*
X11295000Y32297620D01*
X11199761Y32250000D01*
X11152142Y32202381D01*
X11056904Y32059524D01*
X11009285Y31869048D01*
X11009285Y31488096D01*
X11056904Y31392858D01*
X11104523Y31345239D01*
X11199761Y31297620D01*
X11390238Y31297620D01*
X11485476Y31345239D01*
X11533095Y31392858D01*
X11580714Y31488096D01*
X11580714Y31726191D01*
X11533095Y31821429D01*
X11485476Y31869048D01*
X11390238Y31916667D01*
X11199761Y31916667D01*
X11104523Y31869048D01*
X11056904Y31821429D01*
X11009285Y31726191D01*
X10056904Y33837620D02*
X10056904Y34837620D01*
X10295000Y34837620D01*
X10437857Y34790000D01*
X10533095Y34694762D01*
X10580714Y34599524D01*
X10628333Y34409048D01*
X10628333Y34266191D01*
X10580714Y34075715D01*
X10533095Y33980477D01*
X10437857Y33885239D01*
X10295000Y33837620D01*
X10056904Y33837620D01*
X10961666Y34837620D02*
X11628333Y34837620D01*
X11199761Y33837620D01*
X10080714Y39203334D02*
X10556904Y39203334D01*
X9985476Y38917620D02*
X10318809Y39917620D01*
X10652142Y38917620D01*
X11175952Y39917620D02*
X11271190Y39917620D01*
X11366428Y39870000D01*
X11414047Y39822381D01*
X11461666Y39727143D01*
X11509285Y39536667D01*
X11509285Y39298572D01*
X11461666Y39108096D01*
X11414047Y39012858D01*
X11366428Y38965239D01*
X11271190Y38917620D01*
X11175952Y38917620D01*
X11080714Y38965239D01*
X11033095Y39012858D01*
X10985476Y39108096D01*
X10937857Y39298572D01*
X10937857Y39536667D01*
X10985476Y39727143D01*
X11033095Y39822381D01*
X11080714Y39870000D01*
X11175952Y39917620D01*
X10080714Y41743334D02*
X10556904Y41743334D01*
X9985476Y41457620D02*
X10318809Y42457620D01*
X10652142Y41457620D01*
X11509285Y41457620D02*
X10937857Y41457620D01*
X11223571Y41457620D02*
X11223571Y42457620D01*
X11128333Y42314762D01*
X11033095Y42219524D01*
X10937857Y42171905D01*
X10080714Y44283334D02*
X10556904Y44283334D01*
X9985476Y43997620D02*
X10318809Y44997620D01*
X10652142Y43997620D01*
X10937857Y44902381D02*
X10985476Y44950000D01*
X11080714Y44997620D01*
X11318809Y44997620D01*
X11414047Y44950000D01*
X11461666Y44902381D01*
X11509285Y44807143D01*
X11509285Y44711905D01*
X11461666Y44569048D01*
X10890238Y43997620D01*
X11509285Y43997620D01*
X10080714Y46823334D02*
X10556904Y46823334D01*
X9985476Y46537620D02*
X10318809Y47537620D01*
X10652142Y46537620D01*
X10890238Y47537620D02*
X11509285Y47537620D01*
X11175952Y47156667D01*
X11318809Y47156667D01*
X11414047Y47109048D01*
X11461666Y47061429D01*
X11509285Y46966191D01*
X11509285Y46728096D01*
X11461666Y46632858D01*
X11414047Y46585239D01*
X11318809Y46537620D01*
X11033095Y46537620D01*
X10937857Y46585239D01*
X10890238Y46632858D01*
X10080714Y49363334D02*
X10556904Y49363334D01*
X9985476Y49077620D02*
X10318809Y50077620D01*
X10652142Y49077620D01*
X11414047Y49744286D02*
X11414047Y49077620D01*
X11175952Y50125239D02*
X10937857Y49410953D01*
X11556904Y49410953D01*
X10080714Y51903334D02*
X10556904Y51903334D01*
X9985476Y51617620D02*
X10318809Y52617620D01*
X10652142Y51617620D01*
X11461666Y52617620D02*
X10985476Y52617620D01*
X10937857Y52141429D01*
X10985476Y52189048D01*
X11080714Y52236667D01*
X11318809Y52236667D01*
X11414047Y52189048D01*
X11461666Y52141429D01*
X11509285Y52046191D01*
X11509285Y51808096D01*
X11461666Y51712858D01*
X11414047Y51665239D01*
X11318809Y51617620D01*
X11080714Y51617620D01*
X10985476Y51665239D01*
X10937857Y51712858D01*
X10080714Y54443334D02*
X10556904Y54443334D01*
X9985476Y54157620D02*
X10318809Y55157620D01*
X10652142Y54157620D01*
X11414047Y55157620D02*
X11223571Y55157620D01*
X11128333Y55110000D01*
X11080714Y55062381D01*
X10985476Y54919524D01*
X10937857Y54729048D01*
X10937857Y54348096D01*
X10985476Y54252858D01*
X11033095Y54205239D01*
X11128333Y54157620D01*
X11318809Y54157620D01*
X11414047Y54205239D01*
X11461666Y54252858D01*
X11509285Y54348096D01*
X11509285Y54586191D01*
X11461666Y54681429D01*
X11414047Y54729048D01*
X11318809Y54776667D01*
X11128333Y54776667D01*
X11033095Y54729048D01*
X10985476Y54681429D01*
X10937857Y54586191D01*
X10080714Y56983334D02*
X10556904Y56983334D01*
X9985476Y56697620D02*
X10318809Y57697620D01*
X10652142Y56697620D01*
X10890238Y57697620D02*
X11556904Y57697620D01*
X11128333Y56697620D01*
X10080714Y59523334D02*
X10556904Y59523334D01*
X9985476Y59237620D02*
X10318809Y60237620D01*
X10652142Y59237620D01*
X11128333Y59809048D02*
X11033095Y59856667D01*
X10985476Y59904286D01*
X10937857Y59999524D01*
X10937857Y60047143D01*
X10985476Y60142381D01*
X11033095Y60190000D01*
X11128333Y60237620D01*
X11318809Y60237620D01*
X11414047Y60190000D01*
X11461666Y60142381D01*
X11509285Y60047143D01*
X11509285Y59999524D01*
X11461666Y59904286D01*
X11414047Y59856667D01*
X11318809Y59809048D01*
X11128333Y59809048D01*
X11033095Y59761429D01*
X10985476Y59713810D01*
X10937857Y59618572D01*
X10937857Y59428096D01*
X10985476Y59332858D01*
X11033095Y59285239D01*
X11128333Y59237620D01*
X11318809Y59237620D01*
X11414047Y59285239D01*
X11461666Y59332858D01*
X11509285Y59428096D01*
X11509285Y59618572D01*
X11461666Y59713810D01*
X11414047Y59761429D01*
X11318809Y59809048D01*
X10080714Y62063334D02*
X10556904Y62063334D01*
X9985476Y61777620D02*
X10318809Y62777620D01*
X10652142Y61777620D01*
X11033095Y61777620D02*
X11223571Y61777620D01*
X11318809Y61825239D01*
X11366428Y61872858D01*
X11461666Y62015715D01*
X11509285Y62206191D01*
X11509285Y62587143D01*
X11461666Y62682381D01*
X11414047Y62730000D01*
X11318809Y62777620D01*
X11128333Y62777620D01*
X11033095Y62730000D01*
X10985476Y62682381D01*
X10937857Y62587143D01*
X10937857Y62349048D01*
X10985476Y62253810D01*
X11033095Y62206191D01*
X11128333Y62158572D01*
X11318809Y62158572D01*
X11414047Y62206191D01*
X11461666Y62253810D01*
X11509285Y62349048D01*
X9604523Y64603334D02*
X10080714Y64603334D01*
X9509285Y64317620D02*
X9842619Y65317620D01*
X10175952Y64317620D01*
X11033095Y64317620D02*
X10461666Y64317620D01*
X10747380Y64317620D02*
X10747380Y65317620D01*
X10652142Y65174762D01*
X10556904Y65079524D01*
X10461666Y65031905D01*
X11652142Y65317620D02*
X11747380Y65317620D01*
X11842619Y65270000D01*
X11890238Y65222381D01*
X11937857Y65127143D01*
X11985476Y64936667D01*
X11985476Y64698572D01*
X11937857Y64508096D01*
X11890238Y64412858D01*
X11842619Y64365239D01*
X11747380Y64317620D01*
X11652142Y64317620D01*
X11556904Y64365239D01*
X11509285Y64412858D01*
X11461666Y64508096D01*
X11414047Y64698572D01*
X11414047Y64936667D01*
X11461666Y65127143D01*
X11509285Y65222381D01*
X11556904Y65270000D01*
X11652142Y65317620D01*
X9604523Y67143334D02*
X10080714Y67143334D01*
X9509285Y66857620D02*
X9842619Y67857620D01*
X10175952Y66857620D01*
X11033095Y66857620D02*
X10461666Y66857620D01*
X10747380Y66857620D02*
X10747380Y67857620D01*
X10652142Y67714762D01*
X10556904Y67619524D01*
X10461666Y67571905D01*
X11985476Y66857620D02*
X11414047Y66857620D01*
X11699761Y66857620D02*
X11699761Y67857620D01*
X11604523Y67714762D01*
X11509285Y67619524D01*
X11414047Y67571905D01*
X9604523Y69683334D02*
X10080714Y69683334D01*
X9509285Y69397620D02*
X9842619Y70397620D01*
X10175952Y69397620D01*
X11033095Y69397620D02*
X10461666Y69397620D01*
X10747380Y69397620D02*
X10747380Y70397620D01*
X10652142Y70254762D01*
X10556904Y70159524D01*
X10461666Y70111905D01*
X11414047Y70302381D02*
X11461666Y70350000D01*
X11556904Y70397620D01*
X11795000Y70397620D01*
X11890238Y70350000D01*
X11937857Y70302381D01*
X11985476Y70207143D01*
X11985476Y70111905D01*
X11937857Y69969048D01*
X11366428Y69397620D01*
X11985476Y69397620D01*
X9604523Y72223334D02*
X10080714Y72223334D01*
X9509285Y71937620D02*
X9842619Y72937620D01*
X10175952Y71937620D01*
X11033095Y71937620D02*
X10461666Y71937620D01*
X10747380Y71937620D02*
X10747380Y72937620D01*
X10652142Y72794762D01*
X10556904Y72699524D01*
X10461666Y72651905D01*
X11366428Y72937620D02*
X11985476Y72937620D01*
X11652142Y72556667D01*
X11795000Y72556667D01*
X11890238Y72509048D01*
X11937857Y72461429D01*
X11985476Y72366191D01*
X11985476Y72128096D01*
X11937857Y72032858D01*
X11890238Y71985239D01*
X11795000Y71937620D01*
X11509285Y71937620D01*
X11414047Y71985239D01*
X11366428Y72032858D01*
X9604523Y74763334D02*
X10080714Y74763334D01*
X9509285Y74477620D02*
X9842619Y75477620D01*
X10175952Y74477620D01*
X11033095Y74477620D02*
X10461666Y74477620D01*
X10747380Y74477620D02*
X10747380Y75477620D01*
X10652142Y75334762D01*
X10556904Y75239524D01*
X10461666Y75191905D01*
X11890238Y75144286D02*
X11890238Y74477620D01*
X11652142Y75525239D02*
X11414047Y74810953D01*
X12033095Y74810953D01*
X9604523Y77303334D02*
X10080714Y77303334D01*
X9509285Y77017620D02*
X9842619Y78017620D01*
X10175952Y77017620D01*
X11033095Y77017620D02*
X10461666Y77017620D01*
X10747380Y77017620D02*
X10747380Y78017620D01*
X10652142Y77874762D01*
X10556904Y77779524D01*
X10461666Y77731905D01*
X11937857Y78017620D02*
X11461666Y78017620D01*
X11414047Y77541429D01*
X11461666Y77589048D01*
X11556904Y77636667D01*
X11795000Y77636667D01*
X11890238Y77589048D01*
X11937857Y77541429D01*
X11985476Y77446191D01*
X11985476Y77208096D01*
X11937857Y77112858D01*
X11890238Y77065239D01*
X11795000Y77017620D01*
X11556904Y77017620D01*
X11461666Y77065239D01*
X11414047Y77112858D01*
D11*
X93233761Y65803429D02*
X91233761Y65803429D01*
X92662333Y66136762D01*
X91233761Y66470096D01*
X93233761Y66470096D01*
X91233761Y66851048D02*
X91233761Y67517715D01*
X93233761Y66851048D01*
X93233761Y67517715D01*
X92471857Y67898667D02*
X92471857Y68660572D01*
X92090904Y69279620D02*
X91995666Y69184381D01*
X91900428Y69136762D01*
X91709952Y69089143D01*
X91614714Y69089143D01*
X91424238Y69136762D01*
X91329000Y69184381D01*
X91233761Y69279620D01*
X91233761Y69470096D01*
X91329000Y69565334D01*
X91424238Y69612953D01*
X91614714Y69660572D01*
X91709952Y69660572D01*
X91900428Y69612953D01*
X91995666Y69565334D01*
X92090904Y69470096D01*
X92090904Y69279620D01*
X92186142Y69184381D01*
X92281380Y69136762D01*
X92471857Y69089143D01*
X92852809Y69089143D01*
X93043285Y69136762D01*
X93138523Y69184381D01*
X93233761Y69279620D01*
X93233761Y69470096D01*
X93138523Y69565334D01*
X93043285Y69612953D01*
X92852809Y69660572D01*
X92471857Y69660572D01*
X92281380Y69612953D01*
X92186142Y69565334D01*
X92090904Y69470096D01*
X91233761Y70279620D02*
X91233761Y70374858D01*
X91329000Y70470096D01*
X91424238Y70517715D01*
X91614714Y70565334D01*
X91995666Y70612953D01*
X92471857Y70612953D01*
X92852809Y70565334D01*
X93043285Y70517715D01*
X93138523Y70470096D01*
X93233761Y70374858D01*
X93233761Y70279620D01*
X93138523Y70184381D01*
X93043285Y70136762D01*
X92852809Y70089143D01*
X92471857Y70041524D01*
X91995666Y70041524D01*
X91614714Y70089143D01*
X91424238Y70136762D01*
X91329000Y70184381D01*
X91233761Y70279620D01*
X93233761Y71041524D02*
X91233761Y71041524D01*
X93233761Y71612953D02*
X92090904Y71184381D01*
X91233761Y71612953D02*
X92376619Y71041524D01*
X93138523Y72755810D02*
X93233761Y72898667D01*
X93233761Y73136762D01*
X93138523Y73232000D01*
X93043285Y73279620D01*
X92852809Y73327239D01*
X92662333Y73327239D01*
X92471857Y73279620D01*
X92376619Y73232000D01*
X92281380Y73136762D01*
X92186142Y72946286D01*
X92090904Y72851048D01*
X91995666Y72803429D01*
X91805190Y72755810D01*
X91614714Y72755810D01*
X91424238Y72803429D01*
X91329000Y72851048D01*
X91233761Y72946286D01*
X91233761Y73184381D01*
X91329000Y73327239D01*
X93233761Y73755810D02*
X91233761Y73755810D01*
X91233761Y73993905D01*
X91329000Y74136762D01*
X91519476Y74232000D01*
X91709952Y74279620D01*
X92090904Y74327239D01*
X92376619Y74327239D01*
X92757571Y74279620D01*
X92948047Y74232000D01*
X93138523Y74136762D01*
X93233761Y73993905D01*
X93233761Y73755810D01*
X92471857Y74755810D02*
X92471857Y75517715D01*
X93043285Y76565334D02*
X93138523Y76517715D01*
X93233761Y76374858D01*
X93233761Y76279620D01*
X93138523Y76136762D01*
X92948047Y76041524D01*
X92757571Y75993905D01*
X92376619Y75946286D01*
X92090904Y75946286D01*
X91709952Y75993905D01*
X91519476Y76041524D01*
X91329000Y76136762D01*
X91233761Y76279620D01*
X91233761Y76374858D01*
X91329000Y76517715D01*
X91424238Y76565334D01*
X92662333Y76946286D02*
X92662333Y77422477D01*
X93233761Y76851048D02*
X91233761Y77184381D01*
X93233761Y77517715D01*
X93233761Y78422477D02*
X92281380Y78089143D01*
X93233761Y77851048D02*
X91233761Y77851048D01*
X91233761Y78232000D01*
X91329000Y78327239D01*
X91424238Y78374858D01*
X91614714Y78422477D01*
X91900428Y78422477D01*
X92090904Y78374858D01*
X92186142Y78327239D01*
X92281380Y78232000D01*
X92281380Y77851048D01*
X93233761Y78851048D02*
X91233761Y78851048D01*
X91233761Y79089143D01*
X91329000Y79232000D01*
X91519476Y79327239D01*
X91709952Y79374858D01*
X92090904Y79422477D01*
X92376619Y79422477D01*
X92757571Y79374858D01*
X92948047Y79327239D01*
X93138523Y79232000D01*
X93233761Y79089143D01*
X93233761Y78851048D01*
X91233761Y80612953D02*
X92852809Y80612953D01*
X93043285Y80660572D01*
X93138523Y80708191D01*
X93233761Y80803429D01*
X93233761Y80993905D01*
X93138523Y81089143D01*
X93043285Y81136762D01*
X92852809Y81184381D01*
X91233761Y81184381D01*
X93233761Y81660572D02*
X91233761Y81660572D01*
X93233761Y82232000D01*
X91233761Y82232000D01*
X93233761Y82708191D02*
X91233761Y82708191D01*
X91233761Y83041524D02*
X91233761Y83612953D01*
X93233761Y83327239D02*
X91233761Y83327239D01*
X93233761Y85279620D02*
X92281380Y84946286D01*
X93233761Y84708191D02*
X91233761Y84708191D01*
X91233761Y85089143D01*
X91329000Y85184381D01*
X91424238Y85232000D01*
X91614714Y85279620D01*
X91900428Y85279620D01*
X92090904Y85232000D01*
X92186142Y85184381D01*
X92281380Y85089143D01*
X92281380Y84708191D01*
X93138523Y86089143D02*
X93233761Y85993905D01*
X93233761Y85803429D01*
X93138523Y85708191D01*
X92948047Y85660572D01*
X92186142Y85660572D01*
X91995666Y85708191D01*
X91900428Y85803429D01*
X91900428Y85993905D01*
X91995666Y86089143D01*
X92186142Y86136762D01*
X92376619Y86136762D01*
X92567095Y85660572D01*
X91900428Y86470096D02*
X93233761Y86708191D01*
X91900428Y86946286D01*
X93233761Y87851048D02*
X93233761Y87279620D01*
X93233761Y87565334D02*
X91233761Y87565334D01*
X91519476Y87470096D01*
X91709952Y87374858D01*
X91805190Y87279620D01*
X93043285Y88279620D02*
X93138523Y88327239D01*
X93233761Y88279620D01*
X93138523Y88232000D01*
X93043285Y88279620D01*
X93233761Y88279620D01*
X91233761Y89232000D02*
X91233761Y88755810D01*
X92186142Y88708191D01*
X92090904Y88755810D01*
X91995666Y88851048D01*
X91995666Y89089143D01*
X92090904Y89184381D01*
X92186142Y89232000D01*
X92376619Y89279620D01*
X92852809Y89279620D01*
X93043285Y89232000D01*
X93138523Y89184381D01*
X93233761Y89089143D01*
X93233761Y88851048D01*
X93138523Y88755810D01*
X93043285Y88708191D01*
X93043285Y89708191D02*
X93138523Y89755810D01*
X93233761Y89708191D01*
X93138523Y89660572D01*
X93043285Y89708191D01*
X93233761Y89708191D01*
X91233761Y90660572D02*
X91233761Y90184381D01*
X92186142Y90136762D01*
X92090904Y90184381D01*
X91995666Y90279620D01*
X91995666Y90517715D01*
X92090904Y90612953D01*
X92186142Y90660572D01*
X92376619Y90708191D01*
X92852809Y90708191D01*
X93043285Y90660572D01*
X93138523Y90612953D01*
X93233761Y90517715D01*
X93233761Y90279620D01*
X93138523Y90184381D01*
X93043285Y90136762D01*
D12*
X11430000Y84455000D02*
X10160000Y84455000D01*
X11430000Y85725000D02*
X11430000Y84455000D01*
X9117071Y88645000D02*
X8720000Y88645000D01*
X9117071Y87885000D02*
X8720000Y87885000D01*
X60000Y88645000D02*
X6060000Y88645000D01*
X60000Y87885000D02*
X60000Y88645000D01*
X6060000Y87885000D02*
X60000Y87885000D01*
X8720000Y86995000D02*
X6060000Y86995000D01*
X9050000Y86105000D02*
X8720000Y86105000D01*
X9050000Y85345000D02*
X8720000Y85345000D01*
X6060000Y86005000D02*
X60000Y86005000D01*
X6060000Y85885000D02*
X60000Y85885000D01*
X6060000Y85765000D02*
X60000Y85765000D01*
X6060000Y85645000D02*
X60000Y85645000D01*
X6060000Y85525000D02*
X60000Y85525000D01*
X6060000Y85405000D02*
X60000Y85405000D01*
X60000Y86105000D02*
X6060000Y86105000D01*
X60000Y85345000D02*
X60000Y86105000D01*
X6060000Y85345000D02*
X60000Y85345000D01*
X6060000Y84395000D02*
X8720000Y84395000D01*
X6060000Y89595000D02*
X6060000Y84395000D01*
X8720000Y89595000D02*
X6060000Y89595000D01*
X8720000Y84395000D02*
X8720000Y89595000D01*
X64995000Y66880000D02*
X88695000Y66880000D01*
X64995000Y98680000D02*
X64995000Y66880000D01*
X88695000Y98680000D02*
X64995000Y98680000D01*
X88695000Y66880000D02*
X88695000Y98680000D01*
X65345000Y67250000D02*
X65345000Y68580000D01*
X66675000Y67250000D02*
X65345000Y67250000D01*
X67945000Y67250000D02*
X67945000Y69910000D01*
X67945000Y69910000D02*
X88325000Y69910000D01*
X67945000Y67250000D02*
X88325000Y67250000D01*
X88325000Y67250000D02*
X88325000Y69910000D01*
X42445000Y15640000D02*
X42445000Y19880000D01*
X45185000Y15640000D02*
X45185000Y19880000D01*
X42445000Y15640000D02*
X43150000Y15640000D01*
X44480000Y15640000D02*
X45185000Y15640000D01*
X42445000Y19880000D02*
X43150000Y19880000D01*
X44480000Y19880000D02*
X45185000Y19880000D01*
X52130000Y67375000D02*
X52130000Y72435000D01*
X52130000Y72435000D02*
X16450000Y72435000D01*
X16450000Y72435000D02*
X16450000Y60315000D01*
X16450000Y60315000D02*
X52130000Y60315000D01*
X52130000Y60315000D02*
X52130000Y65375000D01*
X52130000Y65375000D02*
G75*
G02*
X52130000Y67375000I0J1000000D01*
G01*
X28095000Y84190000D02*
X25495000Y84190000D01*
X28095000Y98890000D02*
X28095000Y84190000D01*
X18895000Y84190000D02*
X18895000Y86090000D01*
X21595000Y84190000D02*
X18895000Y84190000D01*
X18895000Y98890000D02*
X28095000Y98890000D01*
X18895000Y90090000D02*
X18895000Y98890000D01*
X28295000Y85040000D02*
X28295000Y83990000D01*
X27245000Y83990000D02*
X28295000Y83990000D01*
X8000000Y78830000D02*
X9110000Y78830000D01*
X9110000Y78830000D02*
X9110000Y77500000D01*
X-4630000Y78830000D02*
X-4630000Y15210000D01*
X-4630000Y15210000D02*
X4000000Y15210000D01*
X4000000Y78830000D02*
X4000000Y15210000D01*
X-4630000Y78830000D02*
X4000000Y78830000D01*
X-4630000Y17810000D02*
X4000000Y17810000D01*
X-4630000Y20350000D02*
X4000000Y20350000D01*
X-4630000Y22890000D02*
X4000000Y22890000D01*
X-4630000Y25430000D02*
X4000000Y25430000D01*
X-4630000Y27970000D02*
X4000000Y27970000D01*
X-4630000Y30510000D02*
X4000000Y30510000D01*
X-4630000Y33050000D02*
X4000000Y33050000D01*
X-4630000Y35590000D02*
X4000000Y35590000D01*
X-4630000Y38130000D02*
X4000000Y38130000D01*
X-4630000Y40670000D02*
X4000000Y40670000D01*
X-4630000Y43210000D02*
X4000000Y43210000D01*
X-4630000Y45750000D02*
X4000000Y45750000D01*
X-4630000Y48290000D02*
X4000000Y48290000D01*
X-4630000Y50830000D02*
X4000000Y50830000D01*
X-4630000Y53370000D02*
X4000000Y53370000D01*
X-4630000Y55910000D02*
X4000000Y55910000D01*
X-4630000Y58450000D02*
X4000000Y58450000D01*
X-4630000Y60990000D02*
X4000000Y60990000D01*
X-4630000Y63530000D02*
X4000000Y63530000D01*
X-4630000Y66070000D02*
X4000000Y66070000D01*
X-4630000Y68610000D02*
X4000000Y68610000D01*
X-4630000Y71150000D02*
X4000000Y71150000D01*
X-4630000Y73690000D02*
X4000000Y73690000D01*
X-4630000Y76230000D02*
X4000000Y76230000D01*
X6510000Y16180000D02*
X6950000Y16180000D01*
X4000000Y16180000D02*
X4410000Y16180000D01*
X6510000Y16900000D02*
X6950000Y16900000D01*
X4000000Y16900000D02*
X4410000Y16900000D01*
X6510000Y18720000D02*
X6950000Y18720000D01*
X4000000Y18720000D02*
X4410000Y18720000D01*
X6510000Y19440000D02*
X6950000Y19440000D01*
X4000000Y19440000D02*
X4410000Y19440000D01*
X6510000Y21260000D02*
X6950000Y21260000D01*
X4000000Y21260000D02*
X4410000Y21260000D01*
X6510000Y21980000D02*
X6950000Y21980000D01*
X4000000Y21980000D02*
X4410000Y21980000D01*
X6510000Y23800000D02*
X6950000Y23800000D01*
X4000000Y23800000D02*
X4410000Y23800000D01*
X6510000Y24520000D02*
X6950000Y24520000D01*
X4000000Y24520000D02*
X4410000Y24520000D01*
X6510000Y26340000D02*
X6950000Y26340000D01*
X4000000Y26340000D02*
X4410000Y26340000D01*
X6510000Y27060000D02*
X6950000Y27060000D01*
X4000000Y27060000D02*
X4410000Y27060000D01*
X6510000Y28880000D02*
X6950000Y28880000D01*
X4000000Y28880000D02*
X4410000Y28880000D01*
X6510000Y29600000D02*
X6950000Y29600000D01*
X4000000Y29600000D02*
X4410000Y29600000D01*
X6510000Y31420000D02*
X6950000Y31420000D01*
X4000000Y31420000D02*
X4410000Y31420000D01*
X6510000Y32140000D02*
X6950000Y32140000D01*
X4000000Y32140000D02*
X4410000Y32140000D01*
X6510000Y33960000D02*
X6950000Y33960000D01*
X4000000Y33960000D02*
X4410000Y33960000D01*
X6510000Y34680000D02*
X6950000Y34680000D01*
X4000000Y34680000D02*
X4410000Y34680000D01*
X6510000Y36500000D02*
X6950000Y36500000D01*
X4000000Y36500000D02*
X4410000Y36500000D01*
X6510000Y37220000D02*
X6950000Y37220000D01*
X4000000Y37220000D02*
X4410000Y37220000D01*
X6510000Y39040000D02*
X6950000Y39040000D01*
X4000000Y39040000D02*
X4410000Y39040000D01*
X6510000Y39760000D02*
X6950000Y39760000D01*
X4000000Y39760000D02*
X4410000Y39760000D01*
X6510000Y41580000D02*
X6950000Y41580000D01*
X4000000Y41580000D02*
X4410000Y41580000D01*
X6510000Y42300000D02*
X6950000Y42300000D01*
X4000000Y42300000D02*
X4410000Y42300000D01*
X6510000Y44120000D02*
X6950000Y44120000D01*
X4000000Y44120000D02*
X4410000Y44120000D01*
X6510000Y44840000D02*
X6950000Y44840000D01*
X4000000Y44840000D02*
X4410000Y44840000D01*
X6510000Y46660000D02*
X6950000Y46660000D01*
X4000000Y46660000D02*
X4410000Y46660000D01*
X6510000Y47380000D02*
X6950000Y47380000D01*
X4000000Y47380000D02*
X4410000Y47380000D01*
X6510000Y49200000D02*
X6950000Y49200000D01*
X4000000Y49200000D02*
X4410000Y49200000D01*
X6510000Y49920000D02*
X6950000Y49920000D01*
X4000000Y49920000D02*
X4410000Y49920000D01*
X6510000Y51740000D02*
X6950000Y51740000D01*
X4000000Y51740000D02*
X4410000Y51740000D01*
X6510000Y52460000D02*
X6950000Y52460000D01*
X4000000Y52460000D02*
X4410000Y52460000D01*
X6510000Y54280000D02*
X6950000Y54280000D01*
X4000000Y54280000D02*
X4410000Y54280000D01*
X6510000Y55000000D02*
X6950000Y55000000D01*
X4000000Y55000000D02*
X4410000Y55000000D01*
X6510000Y56820000D02*
X6950000Y56820000D01*
X4000000Y56820000D02*
X4410000Y56820000D01*
X6510000Y57540000D02*
X6950000Y57540000D01*
X4000000Y57540000D02*
X4410000Y57540000D01*
X6510000Y59360000D02*
X6950000Y59360000D01*
X4000000Y59360000D02*
X4410000Y59360000D01*
X6510000Y60080000D02*
X6950000Y60080000D01*
X4000000Y60080000D02*
X4410000Y60080000D01*
X6510000Y61900000D02*
X6950000Y61900000D01*
X4000000Y61900000D02*
X4410000Y61900000D01*
X6510000Y62620000D02*
X6950000Y62620000D01*
X4000000Y62620000D02*
X4410000Y62620000D01*
X6510000Y64440000D02*
X6950000Y64440000D01*
X4000000Y64440000D02*
X4410000Y64440000D01*
X6510000Y65160000D02*
X6950000Y65160000D01*
X4000000Y65160000D02*
X4410000Y65160000D01*
X6510000Y66980000D02*
X6950000Y66980000D01*
X4000000Y66980000D02*
X4410000Y66980000D01*
X6510000Y67700000D02*
X6950000Y67700000D01*
X4000000Y67700000D02*
X4410000Y67700000D01*
X6510000Y69520000D02*
X6950000Y69520000D01*
X4000000Y69520000D02*
X4410000Y69520000D01*
X6510000Y70240000D02*
X6950000Y70240000D01*
X4000000Y70240000D02*
X4410000Y70240000D01*
X6510000Y72060000D02*
X6950000Y72060000D01*
X4000000Y72060000D02*
X4410000Y72060000D01*
X6510000Y72780000D02*
X6950000Y72780000D01*
X4000000Y72780000D02*
X4410000Y72780000D01*
X6510000Y74600000D02*
X6950000Y74600000D01*
X4000000Y74600000D02*
X4410000Y74600000D01*
X6510000Y75320000D02*
X6950000Y75320000D01*
X4000000Y75320000D02*
X4410000Y75320000D01*
X6510000Y77140000D02*
X6890000Y77140000D01*
X4000000Y77140000D02*
X4410000Y77140000D01*
X6510000Y77860000D02*
X6890000Y77860000D01*
X4000000Y77860000D02*
X4410000Y77860000D01*
X-4630000Y76348100D02*
X4000000Y76348100D01*
X-4630000Y76466195D02*
X4000000Y76466195D01*
X-4630000Y76584290D02*
X4000000Y76584290D01*
X-4630000Y76702385D02*
X4000000Y76702385D01*
X-4630000Y76820480D02*
X4000000Y76820480D01*
X-4630000Y76938575D02*
X4000000Y76938575D01*
X-4630000Y77056670D02*
X4000000Y77056670D01*
X-4630000Y77174765D02*
X4000000Y77174765D01*
X-4630000Y77292860D02*
X4000000Y77292860D01*
X-4630000Y77410955D02*
X4000000Y77410955D01*
X-4630000Y77529050D02*
X4000000Y77529050D01*
X-4630000Y77647145D02*
X4000000Y77647145D01*
X-4630000Y77765240D02*
X4000000Y77765240D01*
X-4630000Y77883335D02*
X4000000Y77883335D01*
X-4630000Y78001430D02*
X4000000Y78001430D01*
X-4630000Y78119525D02*
X4000000Y78119525D01*
X-4630000Y78237620D02*
X4000000Y78237620D01*
X-4630000Y78355715D02*
X4000000Y78355715D01*
X-4630000Y78473810D02*
X4000000Y78473810D01*
X-4630000Y78591905D02*
X4000000Y78591905D01*
X-4630000Y78710000D02*
X4000000Y78710000D01*
X50710000Y94555000D02*
X50710000Y97215000D01*
X45570000Y94555000D02*
X50710000Y94555000D01*
X45570000Y97215000D02*
X50710000Y97215000D01*
X45570000Y94555000D02*
X45570000Y97215000D01*
X44300000Y94555000D02*
X42970000Y94555000D01*
X42970000Y94555000D02*
X42970000Y95885000D01*
X97215000Y19415000D02*
X97215000Y24475000D01*
X97215000Y24475000D02*
X46295000Y24475000D01*
X46295000Y24475000D02*
X46295000Y12355000D01*
X46295000Y12355000D02*
X97215000Y12355000D01*
X97215000Y12355000D02*
X97215000Y17415000D01*
X97215000Y17415000D02*
G75*
G02*
X97215000Y19415000I0J1000000D01*
G01*
X32000000Y94555000D02*
X32000000Y95885000D01*
X33330000Y94555000D02*
X32000000Y94555000D01*
X34600000Y94555000D02*
X34600000Y97215000D01*
X34600000Y97215000D02*
X39740000Y97215000D01*
X34600000Y94555000D02*
X39740000Y94555000D01*
X39740000Y94555000D02*
X39740000Y97215000D01*
X55275000Y68140000D02*
X55980000Y68140000D01*
X53240000Y68140000D02*
X53945000Y68140000D01*
X55275000Y63900000D02*
X55980000Y63900000D01*
X53240000Y63900000D02*
X53945000Y63900000D01*
X55980000Y63900000D02*
X55980000Y68140000D01*
X53240000Y63900000D02*
X53240000Y68140000D01*
X38945000Y87474775D02*
X38445000Y87474775D01*
X38695000Y87724775D02*
X38695000Y87224775D01*
X37504000Y82319000D02*
X36936000Y82319000D01*
X37738000Y82359000D02*
X36702000Y82359000D01*
X37897000Y82399000D02*
X36543000Y82399000D01*
X38025000Y82439000D02*
X36415000Y82439000D01*
X38135000Y82479000D02*
X36305000Y82479000D01*
X38231000Y82519000D02*
X36209000Y82519000D01*
X38318000Y82559000D02*
X36122000Y82559000D01*
X38398000Y82599000D02*
X36042000Y82599000D01*
X36180000Y82639000D02*
X35969000Y82639000D01*
X38471000Y82639000D02*
X38260000Y82639000D01*
X36180000Y82679000D02*
X35901000Y82679000D01*
X38539000Y82679000D02*
X38260000Y82679000D01*
X36180000Y82719000D02*
X35837000Y82719000D01*
X38603000Y82719000D02*
X38260000Y82719000D01*
X36180000Y82759000D02*
X35777000Y82759000D01*
X38663000Y82759000D02*
X38260000Y82759000D01*
X36180000Y82799000D02*
X35720000Y82799000D01*
X38720000Y82799000D02*
X38260000Y82799000D01*
X36180000Y82839000D02*
X35666000Y82839000D01*
X38774000Y82839000D02*
X38260000Y82839000D01*
X36180000Y82879000D02*
X35615000Y82879000D01*
X38825000Y82879000D02*
X38260000Y82879000D01*
X36180000Y82919000D02*
X35567000Y82919000D01*
X38873000Y82919000D02*
X38260000Y82919000D01*
X36180000Y82959000D02*
X35521000Y82959000D01*
X38919000Y82959000D02*
X38260000Y82959000D01*
X36180000Y82999000D02*
X35477000Y82999000D01*
X38963000Y82999000D02*
X38260000Y82999000D01*
X36180000Y83039000D02*
X35435000Y83039000D01*
X39005000Y83039000D02*
X38260000Y83039000D01*
X36180000Y83079000D02*
X35394000Y83079000D01*
X39046000Y83079000D02*
X38260000Y83079000D01*
X36180000Y83119000D02*
X35356000Y83119000D01*
X39084000Y83119000D02*
X38260000Y83119000D01*
X36180000Y83159000D02*
X35319000Y83159000D01*
X39121000Y83159000D02*
X38260000Y83159000D01*
X36180000Y83199000D02*
X35283000Y83199000D01*
X39157000Y83199000D02*
X38260000Y83199000D01*
X36180000Y83239000D02*
X35249000Y83239000D01*
X39191000Y83239000D02*
X38260000Y83239000D01*
X36180000Y83279000D02*
X35216000Y83279000D01*
X39224000Y83279000D02*
X38260000Y83279000D01*
X36180000Y83319000D02*
X35185000Y83319000D01*
X39255000Y83319000D02*
X38260000Y83319000D01*
X36180000Y83359000D02*
X35155000Y83359000D01*
X39285000Y83359000D02*
X38260000Y83359000D01*
X36180000Y83399000D02*
X35125000Y83399000D01*
X39315000Y83399000D02*
X38260000Y83399000D01*
X36180000Y83439000D02*
X35098000Y83439000D01*
X39342000Y83439000D02*
X38260000Y83439000D01*
X36180000Y83479000D02*
X35071000Y83479000D01*
X39369000Y83479000D02*
X38260000Y83479000D01*
X36180000Y83519000D02*
X35045000Y83519000D01*
X39395000Y83519000D02*
X38260000Y83519000D01*
X36180000Y83559000D02*
X35020000Y83559000D01*
X39420000Y83559000D02*
X38260000Y83559000D01*
X36180000Y83599000D02*
X34996000Y83599000D01*
X39444000Y83599000D02*
X38260000Y83599000D01*
X36180000Y83639000D02*
X34973000Y83639000D01*
X39467000Y83639000D02*
X38260000Y83639000D01*
X36180000Y83679000D02*
X34952000Y83679000D01*
X39488000Y83679000D02*
X38260000Y83679000D01*
X36180000Y83719000D02*
X34930000Y83719000D01*
X39510000Y83719000D02*
X38260000Y83719000D01*
X36180000Y83759000D02*
X34910000Y83759000D01*
X39530000Y83759000D02*
X38260000Y83759000D01*
X36180000Y83799000D02*
X34891000Y83799000D01*
X39549000Y83799000D02*
X38260000Y83799000D01*
X36180000Y83839000D02*
X34872000Y83839000D01*
X39568000Y83839000D02*
X38260000Y83839000D01*
X36180000Y83879000D02*
X34855000Y83879000D01*
X39585000Y83879000D02*
X38260000Y83879000D01*
X36180000Y83919000D02*
X34838000Y83919000D01*
X39602000Y83919000D02*
X38260000Y83919000D01*
X36180000Y83959000D02*
X34822000Y83959000D01*
X39618000Y83959000D02*
X38260000Y83959000D01*
X36180000Y83999000D02*
X34806000Y83999000D01*
X39634000Y83999000D02*
X38260000Y83999000D01*
X36180000Y84039000D02*
X34792000Y84039000D01*
X39648000Y84039000D02*
X38260000Y84039000D01*
X36180000Y84079000D02*
X34778000Y84079000D01*
X39662000Y84079000D02*
X38260000Y84079000D01*
X36180000Y84119000D02*
X34765000Y84119000D01*
X39675000Y84119000D02*
X38260000Y84119000D01*
X36180000Y84159000D02*
X34752000Y84159000D01*
X39688000Y84159000D02*
X38260000Y84159000D01*
X36180000Y84199000D02*
X34740000Y84199000D01*
X39700000Y84199000D02*
X38260000Y84199000D01*
X36180000Y84240000D02*
X34729000Y84240000D01*
X39711000Y84240000D02*
X38260000Y84240000D01*
X36180000Y84280000D02*
X34719000Y84280000D01*
X39721000Y84280000D02*
X38260000Y84280000D01*
X36180000Y84320000D02*
X34709000Y84320000D01*
X39731000Y84320000D02*
X38260000Y84320000D01*
X36180000Y84360000D02*
X34700000Y84360000D01*
X39740000Y84360000D02*
X38260000Y84360000D01*
X36180000Y84400000D02*
X34692000Y84400000D01*
X39748000Y84400000D02*
X38260000Y84400000D01*
X36180000Y84440000D02*
X34684000Y84440000D01*
X39756000Y84440000D02*
X38260000Y84440000D01*
X36180000Y84480000D02*
X34677000Y84480000D01*
X39763000Y84480000D02*
X38260000Y84480000D01*
X36180000Y84520000D02*
X34670000Y84520000D01*
X39770000Y84520000D02*
X38260000Y84520000D01*
X36180000Y84560000D02*
X34664000Y84560000D01*
X39776000Y84560000D02*
X38260000Y84560000D01*
X36180000Y84600000D02*
X34659000Y84600000D01*
X39781000Y84600000D02*
X38260000Y84600000D01*
X36180000Y84640000D02*
X34655000Y84640000D01*
X39785000Y84640000D02*
X38260000Y84640000D01*
X36180000Y84680000D02*
X34651000Y84680000D01*
X39789000Y84680000D02*
X38260000Y84680000D01*
X39793000Y84720000D02*
X34647000Y84720000D01*
X39796000Y84760000D02*
X34644000Y84760000D01*
X39798000Y84800000D02*
X34642000Y84800000D01*
X39799000Y84840000D02*
X34641000Y84840000D01*
X39800000Y84880000D02*
X34640000Y84880000D01*
X39800000Y84920000D02*
X34640000Y84920000D01*
X39840000Y84920000D02*
G75*
G03*
X39840000Y84920000I-2620000J0D01*
G01*
X91567000Y30988000D02*
X91567000Y49022000D01*
X58293000Y30988000D02*
X91567000Y30988000D01*
X86360000Y46355000D02*
X58293000Y46355000D01*
X86360000Y46355000D02*
X86360000Y49022000D01*
X58293000Y49022000D02*
X58293000Y30985000D01*
X88900000Y33655000D02*
X58293000Y33655000D01*
X88900000Y33655000D02*
X88900000Y30985000D01*
X91567000Y49022000D02*
X88900000Y49022000D01*
X86360000Y49022000D02*
X58293000Y49022000D01*
X88900000Y46355000D02*
X88900000Y49022000D01*
X86360000Y46355000D02*
X88900000Y46355000D01*
X39340000Y28380000D02*
X38635000Y28380000D01*
X41375000Y28380000D02*
X40670000Y28380000D01*
X39340000Y32620000D02*
X38635000Y32620000D01*
X41375000Y32620000D02*
X40670000Y32620000D01*
X38635000Y32620000D02*
X38635000Y28380000D01*
X41375000Y32620000D02*
X41375000Y28380000D01*
X41375000Y48495000D02*
X41375000Y44255000D01*
X38635000Y48495000D02*
X38635000Y44255000D01*
X41375000Y48495000D02*
X40670000Y48495000D01*
X39340000Y48495000D02*
X38635000Y48495000D01*
X41375000Y44255000D02*
X40670000Y44255000D01*
X39340000Y44255000D02*
X38635000Y44255000D01*
X39340000Y12505000D02*
X38635000Y12505000D01*
X41375000Y12505000D02*
X40670000Y12505000D01*
X39340000Y16745000D02*
X38635000Y16745000D01*
X41375000Y16745000D02*
X40670000Y16745000D01*
X38635000Y16745000D02*
X38635000Y12505000D01*
X41375000Y16745000D02*
X41375000Y12505000D01*
X37525000Y31480000D02*
X37525000Y32730000D01*
X37525000Y32730000D02*
X19625000Y32730000D01*
X19625000Y32730000D02*
X19625000Y28230000D01*
X19625000Y28230000D02*
X37525000Y28230000D01*
X37525000Y28230000D02*
X37525000Y29480000D01*
X37525000Y29480000D02*
G75*
G02*
X37525000Y31480000I0J1000000D01*
G01*
X37525000Y44105000D02*
X37525000Y45355000D01*
X19625000Y44105000D02*
X37525000Y44105000D01*
X19625000Y48605000D02*
X19625000Y44105000D01*
X37525000Y48605000D02*
X19625000Y48605000D01*
X37525000Y47355000D02*
X37525000Y48605000D01*
X37525000Y45355000D02*
G75*
G02*
X37525000Y47355000I0J1000000D01*
G01*
X37525000Y12355000D02*
X37525000Y13605000D01*
X19625000Y12355000D02*
X37525000Y12355000D01*
X19625000Y16855000D02*
X19625000Y12355000D01*
X37525000Y16855000D02*
X19625000Y16855000D01*
X37525000Y15605000D02*
X37525000Y16855000D01*
X37525000Y13605000D02*
G75*
G02*
X37525000Y15605000I0J1000000D01*
G01*
X69170000Y60500000D02*
X69170000Y61830000D01*
X69170000Y61830000D02*
X70500000Y61830000D01*
X71770000Y61830000D02*
X84530000Y61830000D01*
X84530000Y59170000D02*
X84530000Y61830000D01*
X71770000Y59170000D02*
X84530000Y59170000D01*
X71770000Y59170000D02*
X71770000Y61830000D01*
X91210000Y60420000D02*
X91540000Y60420000D01*
X91540000Y60420000D02*
X91540000Y53880000D01*
X91540000Y53880000D02*
X91210000Y53880000D01*
X89130000Y60420000D02*
X88800000Y60420000D01*
X88800000Y60420000D02*
X88800000Y53880000D01*
X88800000Y53880000D02*
X89130000Y53880000D01*
X61520000Y94670000D02*
X61520000Y97330000D01*
X56380000Y94670000D02*
X61520000Y94670000D01*
X56380000Y97330000D02*
X61520000Y97330000D01*
X56380000Y94670000D02*
X56380000Y97330000D01*
X55110000Y94670000D02*
X53780000Y94670000D01*
X53780000Y94670000D02*
X53780000Y96000000D01*
D10*
X5666666Y83547620D02*
X5666666Y82833334D01*
X5619047Y82690477D01*
X5523809Y82595239D01*
X5380952Y82547620D01*
X5285714Y82547620D01*
X6047619Y83547620D02*
X6666666Y83547620D01*
X6333333Y83166667D01*
X6476190Y83166667D01*
X6571428Y83119048D01*
X6619047Y83071429D01*
X6666666Y82976191D01*
X6666666Y82738096D01*
X6619047Y82642858D01*
X6571428Y82595239D01*
X6476190Y82547620D01*
X6190476Y82547620D01*
X6095238Y82595239D01*
X6047619Y82642858D01*
X83486666Y85637620D02*
X83486666Y84923334D01*
X83439047Y84780477D01*
X83343809Y84685239D01*
X83200952Y84637620D01*
X83105714Y84637620D01*
X83915238Y85542381D02*
X83962857Y85590000D01*
X84058095Y85637620D01*
X84296190Y85637620D01*
X84391428Y85590000D01*
X84439047Y85542381D01*
X84486666Y85447143D01*
X84486666Y85351905D01*
X84439047Y85209048D01*
X83867619Y84637620D01*
X84486666Y84637620D01*
X69573095Y75398334D02*
X70049285Y75398334D01*
X69477857Y75112620D02*
X69811190Y76112620D01*
X70144523Y75112620D01*
X70477857Y75636429D02*
X70811190Y75636429D01*
X70954047Y75112620D02*
X70477857Y75112620D01*
X70477857Y76112620D01*
X70954047Y76112620D01*
X71382619Y75493572D02*
X72144523Y75493572D01*
X72620714Y75112620D02*
X72620714Y75779286D01*
X72620714Y75684048D02*
X72668333Y75731667D01*
X72763571Y75779286D01*
X72906428Y75779286D01*
X73001666Y75731667D01*
X73049285Y75636429D01*
X73049285Y75112620D01*
X73049285Y75636429D02*
X73096904Y75731667D01*
X73192142Y75779286D01*
X73335000Y75779286D01*
X73430238Y75731667D01*
X73477857Y75636429D01*
X73477857Y75112620D01*
X73954047Y75112620D02*
X73954047Y75779286D01*
X73954047Y76112620D02*
X73906428Y76065000D01*
X73954047Y76017381D01*
X74001666Y76065000D01*
X73954047Y76112620D01*
X73954047Y76017381D01*
X74858809Y75160239D02*
X74763571Y75112620D01*
X74573095Y75112620D01*
X74477857Y75160239D01*
X74430238Y75207858D01*
X74382619Y75303096D01*
X74382619Y75588810D01*
X74430238Y75684048D01*
X74477857Y75731667D01*
X74573095Y75779286D01*
X74763571Y75779286D01*
X74858809Y75731667D01*
X75287380Y75112620D02*
X75287380Y75779286D01*
X75287380Y75588810D02*
X75335000Y75684048D01*
X75382619Y75731667D01*
X75477857Y75779286D01*
X75573095Y75779286D01*
X76049285Y75112620D02*
X75954047Y75160239D01*
X75906428Y75207858D01*
X75858809Y75303096D01*
X75858809Y75588810D01*
X75906428Y75684048D01*
X75954047Y75731667D01*
X76049285Y75779286D01*
X76192142Y75779286D01*
X76287380Y75731667D01*
X76335000Y75684048D01*
X76382619Y75588810D01*
X76382619Y75303096D01*
X76335000Y75207858D01*
X76287380Y75160239D01*
X76192142Y75112620D01*
X76049285Y75112620D01*
X76763571Y75160239D02*
X76906428Y75112620D01*
X77144523Y75112620D01*
X77239761Y75160239D01*
X77287380Y75207858D01*
X77335000Y75303096D01*
X77335000Y75398334D01*
X77287380Y75493572D01*
X77239761Y75541191D01*
X77144523Y75588810D01*
X76954047Y75636429D01*
X76858809Y75684048D01*
X76811190Y75731667D01*
X76763571Y75826905D01*
X76763571Y75922143D01*
X76811190Y76017381D01*
X76858809Y76065000D01*
X76954047Y76112620D01*
X77192142Y76112620D01*
X77335000Y76065000D01*
X77763571Y75112620D02*
X77763571Y76112620D01*
X78001666Y76112620D01*
X78144523Y76065000D01*
X78239761Y75969762D01*
X78287380Y75874524D01*
X78335000Y75684048D01*
X78335000Y75541191D01*
X78287380Y75350715D01*
X78239761Y75255477D01*
X78144523Y75160239D01*
X78001666Y75112620D01*
X77763571Y75112620D01*
X78763571Y75493572D02*
X79525476Y75493572D01*
X80477857Y75112620D02*
X80001666Y75112620D01*
X80001666Y76112620D01*
X81287380Y75112620D02*
X80811190Y75112620D01*
X80811190Y76112620D01*
X82192142Y75207858D02*
X82144523Y75160239D01*
X82001666Y75112620D01*
X81906428Y75112620D01*
X81763571Y75160239D01*
X81668333Y75255477D01*
X81620714Y75350715D01*
X81573095Y75541191D01*
X81573095Y75684048D01*
X81620714Y75874524D01*
X81668333Y75969762D01*
X81763571Y76065000D01*
X81906428Y76112620D01*
X82001666Y76112620D01*
X82144523Y76065000D01*
X82192142Y76017381D01*
X82620714Y75112620D02*
X82620714Y76112620D01*
X83192142Y75112620D01*
X83192142Y76112620D01*
X83525476Y76112620D02*
X83858809Y75112620D01*
X84192142Y76112620D01*
X43457857Y14136667D02*
X43410238Y14184286D01*
X43362619Y14327143D01*
X43362619Y14422381D01*
X43410238Y14565239D01*
X43505476Y14660477D01*
X43600714Y14708096D01*
X43791190Y14755715D01*
X43934047Y14755715D01*
X44124523Y14708096D01*
X44219761Y14660477D01*
X44315000Y14565239D01*
X44362619Y14422381D01*
X44362619Y14327143D01*
X44315000Y14184286D01*
X44267380Y14136667D01*
X44362619Y13803334D02*
X44362619Y13184286D01*
X43981666Y13517620D01*
X43981666Y13374762D01*
X43934047Y13279524D01*
X43886428Y13231905D01*
X43791190Y13184286D01*
X43553095Y13184286D01*
X43457857Y13231905D01*
X43410238Y13279524D01*
X43362619Y13374762D01*
X43362619Y13660477D01*
X43410238Y13755715D01*
X43457857Y13803334D01*
X47537619Y67436905D02*
X46728095Y67436905D01*
X46632857Y67389286D01*
X46585238Y67341667D01*
X46537619Y67246429D01*
X46537619Y67055953D01*
X46585238Y66960715D01*
X46632857Y66913096D01*
X46728095Y66865477D01*
X47537619Y66865477D01*
X47442380Y66436905D02*
X47490000Y66389286D01*
X47537619Y66294048D01*
X47537619Y66055953D01*
X47490000Y65960715D01*
X47442380Y65913096D01*
X47347142Y65865477D01*
X47251904Y65865477D01*
X47109047Y65913096D01*
X46537619Y66484524D01*
X46537619Y65865477D01*
X19666666Y82547620D02*
X19666666Y81833334D01*
X19619047Y81690477D01*
X19523809Y81595239D01*
X19380952Y81547620D01*
X19285714Y81547620D01*
X20571428Y82214286D02*
X20571428Y81547620D01*
X20333333Y82595239D02*
X20095238Y81880953D01*
X20714285Y81880953D01*
X2166666Y80547620D02*
X2166666Y79833334D01*
X2119047Y79690477D01*
X2023809Y79595239D01*
X1880952Y79547620D01*
X1785714Y79547620D01*
X3166666Y79547620D02*
X2595238Y79547620D01*
X2880952Y79547620D02*
X2880952Y80547620D01*
X2785714Y80404762D01*
X2690476Y80309524D01*
X2595238Y80261905D01*
X40998095Y92940239D02*
X41140952Y92892620D01*
X41379047Y92892620D01*
X41474285Y92940239D01*
X41521904Y92987858D01*
X41569523Y93083096D01*
X41569523Y93178334D01*
X41521904Y93273572D01*
X41474285Y93321191D01*
X41379047Y93368810D01*
X41188571Y93416429D01*
X41093333Y93464048D01*
X41045714Y93511667D01*
X40998095Y93606905D01*
X40998095Y93702143D01*
X41045714Y93797381D01*
X41093333Y93845000D01*
X41188571Y93892620D01*
X41426666Y93892620D01*
X41569523Y93845000D01*
X41950476Y93797381D02*
X41998095Y93845000D01*
X42093333Y93892620D01*
X42331428Y93892620D01*
X42426666Y93845000D01*
X42474285Y93797381D01*
X42521904Y93702143D01*
X42521904Y93606905D01*
X42474285Y93464048D01*
X41902857Y92892620D01*
X42521904Y92892620D01*
X62142619Y17906905D02*
X61333095Y17906905D01*
X61237857Y17859286D01*
X61190238Y17811667D01*
X61142619Y17716429D01*
X61142619Y17525953D01*
X61190238Y17430715D01*
X61237857Y17383096D01*
X61333095Y17335477D01*
X62142619Y17335477D01*
X62142619Y16954524D02*
X62142619Y16335477D01*
X61761666Y16668810D01*
X61761666Y16525953D01*
X61714047Y16430715D01*
X61666428Y16383096D01*
X61571190Y16335477D01*
X61333095Y16335477D01*
X61237857Y16383096D01*
X61190238Y16430715D01*
X61142619Y16525953D01*
X61142619Y16811667D01*
X61190238Y16906905D01*
X61237857Y16954524D01*
X30028095Y92940239D02*
X30170952Y92892620D01*
X30409047Y92892620D01*
X30504285Y92940239D01*
X30551904Y92987858D01*
X30599523Y93083096D01*
X30599523Y93178334D01*
X30551904Y93273572D01*
X30504285Y93321191D01*
X30409047Y93368810D01*
X30218571Y93416429D01*
X30123333Y93464048D01*
X30075714Y93511667D01*
X30028095Y93606905D01*
X30028095Y93702143D01*
X30075714Y93797381D01*
X30123333Y93845000D01*
X30218571Y93892620D01*
X30456666Y93892620D01*
X30599523Y93845000D01*
X31551904Y92892620D02*
X30980476Y92892620D01*
X31266190Y92892620D02*
X31266190Y93892620D01*
X31170952Y93749762D01*
X31075714Y93654524D01*
X30980476Y93606905D01*
X53617857Y70426667D02*
X53570238Y70474286D01*
X53522619Y70617143D01*
X53522619Y70712381D01*
X53570238Y70855239D01*
X53665476Y70950477D01*
X53760714Y70998096D01*
X53951190Y71045715D01*
X54094047Y71045715D01*
X54284523Y70998096D01*
X54379761Y70950477D01*
X54475000Y70855239D01*
X54522619Y70712381D01*
X54522619Y70617143D01*
X54475000Y70474286D01*
X54427380Y70426667D01*
X54427380Y70045715D02*
X54475000Y69998096D01*
X54522619Y69902858D01*
X54522619Y69664762D01*
X54475000Y69569524D01*
X54427380Y69521905D01*
X54332142Y69474286D01*
X54236904Y69474286D01*
X54094047Y69521905D01*
X53522619Y70093334D01*
X53522619Y69474286D01*
X41333333Y84142858D02*
X41285714Y84095239D01*
X41142857Y84047620D01*
X41047619Y84047620D01*
X40904761Y84095239D01*
X40809523Y84190477D01*
X40761904Y84285715D01*
X40714285Y84476191D01*
X40714285Y84619048D01*
X40761904Y84809524D01*
X40809523Y84904762D01*
X40904761Y85000000D01*
X41047619Y85047620D01*
X41142857Y85047620D01*
X41285714Y85000000D01*
X41333333Y84952381D01*
X42190476Y85047620D02*
X42000000Y85047620D01*
X41904761Y85000000D01*
X41857142Y84952381D01*
X41761904Y84809524D01*
X41714285Y84619048D01*
X41714285Y84238096D01*
X41761904Y84142858D01*
X41809523Y84095239D01*
X41904761Y84047620D01*
X42095238Y84047620D01*
X42190476Y84095239D01*
X42238095Y84142858D01*
X42285714Y84238096D01*
X42285714Y84476191D01*
X42238095Y84571429D01*
X42190476Y84619048D01*
X42095238Y84666667D01*
X41904761Y84666667D01*
X41809523Y84619048D01*
X41761904Y84571429D01*
X41714285Y84476191D01*
X93257619Y40766905D02*
X92448095Y40766905D01*
X92352857Y40719286D01*
X92305238Y40671667D01*
X92257619Y40576429D01*
X92257619Y40385953D01*
X92305238Y40290715D01*
X92352857Y40243096D01*
X92448095Y40195477D01*
X93257619Y40195477D01*
X92924285Y39290715D02*
X92257619Y39290715D01*
X93305238Y39528810D02*
X92590952Y39766905D01*
X92590952Y39147858D01*
X42147857Y30666667D02*
X42100238Y30714286D01*
X42052619Y30857143D01*
X42052619Y30952381D01*
X42100238Y31095239D01*
X42195476Y31190477D01*
X42290714Y31238096D01*
X42481190Y31285715D01*
X42624047Y31285715D01*
X42814523Y31238096D01*
X42909761Y31190477D01*
X43005000Y31095239D01*
X43052619Y30952381D01*
X43052619Y30857143D01*
X43005000Y30714286D01*
X42957380Y30666667D01*
X42052619Y29714286D02*
X42052619Y30285715D01*
X42052619Y30000000D02*
X43052619Y30000000D01*
X42909761Y30095239D01*
X42814523Y30190477D01*
X42766904Y30285715D01*
X42147857Y46541667D02*
X42100238Y46589286D01*
X42052619Y46732143D01*
X42052619Y46827381D01*
X42100238Y46970239D01*
X42195476Y47065477D01*
X42290714Y47113096D01*
X42481190Y47160715D01*
X42624047Y47160715D01*
X42814523Y47113096D01*
X42909761Y47065477D01*
X43005000Y46970239D01*
X43052619Y46827381D01*
X43052619Y46732143D01*
X43005000Y46589286D01*
X42957380Y46541667D01*
X42719285Y45684524D02*
X42052619Y45684524D01*
X43100238Y45922620D02*
X42385952Y46160715D01*
X42385952Y45541667D01*
X39647857Y10961667D02*
X39600238Y11009286D01*
X39552619Y11152143D01*
X39552619Y11247381D01*
X39600238Y11390239D01*
X39695476Y11485477D01*
X39790714Y11533096D01*
X39981190Y11580715D01*
X40124047Y11580715D01*
X40314523Y11533096D01*
X40409761Y11485477D01*
X40505000Y11390239D01*
X40552619Y11247381D01*
X40552619Y11152143D01*
X40505000Y11009286D01*
X40457380Y10961667D01*
X40552619Y10056905D02*
X40552619Y10533096D01*
X40076428Y10580715D01*
X40124047Y10533096D01*
X40171666Y10437858D01*
X40171666Y10199762D01*
X40124047Y10104524D01*
X40076428Y10056905D01*
X39981190Y10009286D01*
X39743095Y10009286D01*
X39647857Y10056905D01*
X39600238Y10104524D01*
X39552619Y10199762D01*
X39552619Y10437858D01*
X39600238Y10533096D01*
X39647857Y10580715D01*
X18327619Y28066905D02*
X17518095Y28066905D01*
X17422857Y28019286D01*
X17375238Y27971667D01*
X17327619Y27876429D01*
X17327619Y27685953D01*
X17375238Y27590715D01*
X17422857Y27543096D01*
X17518095Y27495477D01*
X18327619Y27495477D01*
X17327619Y26495477D02*
X17327619Y27066905D01*
X17327619Y26781191D02*
X18327619Y26781191D01*
X18184761Y26876429D01*
X18089523Y26971667D01*
X18041904Y27066905D01*
X18962619Y43941905D02*
X18153095Y43941905D01*
X18057857Y43894286D01*
X18010238Y43846667D01*
X17962619Y43751429D01*
X17962619Y43560953D01*
X18010238Y43465715D01*
X18057857Y43418096D01*
X18153095Y43370477D01*
X18962619Y43370477D01*
X18962619Y42418096D02*
X18962619Y42894286D01*
X18486428Y42941905D01*
X18534047Y42894286D01*
X18581666Y42799048D01*
X18581666Y42560953D01*
X18534047Y42465715D01*
X18486428Y42418096D01*
X18391190Y42370477D01*
X18153095Y42370477D01*
X18057857Y42418096D01*
X18010238Y42465715D01*
X17962619Y42560953D01*
X17962619Y42799048D01*
X18010238Y42894286D01*
X18057857Y42941905D01*
X18962619Y12191905D02*
X18153095Y12191905D01*
X18057857Y12144286D01*
X18010238Y12096667D01*
X17962619Y12001429D01*
X17962619Y11810953D01*
X18010238Y11715715D01*
X18057857Y11668096D01*
X18153095Y11620477D01*
X18962619Y11620477D01*
X18962619Y10715715D02*
X18962619Y10906191D01*
X18915000Y11001429D01*
X18867380Y11049048D01*
X18724523Y11144286D01*
X18534047Y11191905D01*
X18153095Y11191905D01*
X18057857Y11144286D01*
X18010238Y11096667D01*
X17962619Y11001429D01*
X17962619Y10810953D01*
X18010238Y10715715D01*
X18057857Y10668096D01*
X18153095Y10620477D01*
X18391190Y10620477D01*
X18486428Y10668096D01*
X18534047Y10715715D01*
X18581666Y10810953D01*
X18581666Y11001429D01*
X18534047Y11096667D01*
X18486428Y11144286D01*
X18391190Y11191905D01*
X67182380Y60166667D02*
X67896666Y60166667D01*
X68039523Y60119048D01*
X68134761Y60023810D01*
X68182380Y59880953D01*
X68182380Y59785715D01*
X67182380Y61119048D02*
X67182380Y60642858D01*
X67658571Y60595239D01*
X67610952Y60642858D01*
X67563333Y60738096D01*
X67563333Y60976191D01*
X67610952Y61071429D01*
X67658571Y61119048D01*
X67753809Y61166667D01*
X67991904Y61166667D01*
X68087142Y61119048D01*
X68134761Y61071429D01*
X68182380Y60976191D01*
X68182380Y60738096D01*
X68134761Y60642858D01*
X68087142Y60595239D01*
X91876619Y57316667D02*
X92352809Y57650000D01*
X91876619Y57888096D02*
X92876619Y57888096D01*
X92876619Y57507143D01*
X92829000Y57411905D01*
X92781380Y57364286D01*
X92686142Y57316667D01*
X92543285Y57316667D01*
X92448047Y57364286D01*
X92400428Y57411905D01*
X92352809Y57507143D01*
X92352809Y57888096D01*
X91876619Y56364286D02*
X91876619Y56935715D01*
X91876619Y56650000D02*
X92876619Y56650000D01*
X92733761Y56745239D01*
X92638523Y56840477D01*
X92590904Y56935715D01*
X51738095Y93095239D02*
X51880952Y93047620D01*
X52119047Y93047620D01*
X52214285Y93095239D01*
X52261904Y93142858D01*
X52309523Y93238096D01*
X52309523Y93333334D01*
X52261904Y93428572D01*
X52214285Y93476191D01*
X52119047Y93523810D01*
X51928571Y93571429D01*
X51833333Y93619048D01*
X51785714Y93666667D01*
X51738095Y93761905D01*
X51738095Y93857143D01*
X51785714Y93952381D01*
X51833333Y94000000D01*
X51928571Y94047620D01*
X52166666Y94047620D01*
X52309523Y94000000D01*
X52642857Y94047620D02*
X53261904Y94047620D01*
X52928571Y93666667D01*
X53071428Y93666667D01*
X53166666Y93619048D01*
X53214285Y93571429D01*
X53261904Y93476191D01*
X53261904Y93238096D01*
X53214285Y93142858D01*
X53166666Y93095239D01*
X53071428Y93047620D01*
X52785714Y93047620D01*
X52690476Y93095239D01*
X52642857Y93142858D01*
M02*
