M48
; DRILL file {KiCad (5.1.9)-1} date 02/16/22 09:48:02
; FORMAT={-:-/ absolute / metric / decimal}
; #@! TF.CreationDate,2022-02-16T09:48:02+09:00
; #@! TF.GenerationSoftware,Kicad,Pcbnew,(5.1.9)-1
FMAT,2
METRIC
T1C0.300
T2C0.800
T3C1.000
T4C3.200
%
G90
G05
T1
X3.102Y54.89
X6.322Y17.997
X10.304Y26.485
X10.42Y52.463
X10.788Y34.863
X10.919Y54.26
X10.976Y29.564
X11.641Y14.085
X13.788Y43.843
X17.26Y54.554
X17.462Y68.046
X18.402Y40.043
X18.665Y53.072
X19.216Y41.049
X20.138Y15.197
X20.222Y51.626
X21.335Y32.628
X25.127Y30.015
X27.473Y70.087
X29.845Y43.319
X30.023Y29.933
X30.546Y61.417
X37.877Y27.118
X40.72Y25.109
X40.792Y26.128
X40.951Y44.284
X45.223Y7.38
X49.372Y86.662
X49.715Y57.236
X51.867Y18.008
X53.15Y17.317
X53.369Y18.141
X55.322Y16.718
X56.382Y19.998
X57.028Y17.936
X57.102Y22.455
X57.4Y20.048
X57.997Y22.358
X61.024Y22.724
X64.047Y36.074
X64.478Y35.338
X66.375Y33.475
T2
X17.78Y73.995
X17.78Y58.755
X20.32Y73.995
X20.32Y58.755
X20.955Y50.165
X20.955Y42.545
X20.955Y34.29
X20.955Y26.67
X20.955Y18.415
X20.955Y10.795
X22.86Y73.995
X22.86Y58.755
X23.495Y50.165
X23.495Y42.545
X23.495Y34.29
X23.495Y26.67
X23.495Y18.415
X23.495Y10.795
X25.4Y73.995
X25.4Y58.755
X26.035Y50.165
X26.035Y42.545
X26.035Y34.29
X26.035Y26.67
X26.035Y18.415
X26.035Y10.795
X27.94Y73.995
X27.94Y58.755
X28.575Y50.165
X28.575Y42.545
X28.575Y34.29
X28.575Y26.67
X28.575Y18.415
X28.575Y10.795
X30.48Y73.995
X30.48Y58.755
X31.115Y50.165
X31.115Y42.545
X31.115Y34.29
X31.115Y26.67
X31.115Y18.415
X31.115Y10.795
X33.02Y73.995
X33.02Y58.755
X33.655Y50.165
X33.655Y42.545
X33.655Y34.29
X33.655Y26.67
X33.655Y18.415
X33.655Y10.795
X35.56Y73.995
X35.56Y58.755
X36.195Y50.165
X36.195Y42.545
X36.195Y34.29
X36.195Y26.67
X36.195Y18.415
X36.195Y10.795
X38.1Y73.995
X38.1Y58.755
X40.005Y47.625
X40.005Y45.125
X40.005Y31.75
X40.005Y29.25
X40.005Y15.875
X40.005Y13.375
X40.64Y73.995
X40.64Y58.755
X43.18Y73.995
X43.18Y58.755
X43.815Y19.01
X43.815Y16.51
X45.72Y90.17
X45.72Y87.67
X45.72Y73.995
X45.72Y58.755
X47.625Y26.035
X47.625Y10.795
X48.26Y73.995
X48.26Y58.755
X50.165Y26.035
X50.165Y10.795
X50.8Y73.995
X50.8Y58.755
X52.705Y26.035
X52.705Y10.795
X54.61Y67.27
X54.61Y64.77
X55.245Y26.035
X55.245Y10.795
X57.785Y26.035
X57.785Y10.795
X59.69Y47.625
X59.69Y32.385
X60.325Y26.035
X60.325Y10.795
X62.23Y47.625
X62.23Y32.385
X62.865Y26.035
X62.865Y10.795
X64.77Y47.625
X64.77Y32.385
X65.405Y26.035
X65.405Y10.795
X66.04Y34.925
X67.31Y47.625
X67.31Y32.385
X67.945Y26.035
X67.945Y10.795
X68.58Y34.925
X69.85Y47.625
X69.85Y32.385
X70.485Y26.035
X70.485Y10.795
X72.39Y47.625
X72.39Y32.385
X73.025Y26.035
X73.025Y10.795
X74.93Y47.625
X74.93Y32.385
X75.565Y26.035
X75.565Y10.795
X76.2Y34.925
X77.47Y47.625
X77.47Y32.385
X78.105Y26.035
X78.105Y10.795
X78.74Y34.925
X80.01Y47.625
X80.01Y32.385
X80.645Y26.035
X80.645Y10.795
X82.55Y47.625
X82.55Y32.385
X83.185Y26.035
X83.185Y10.795
X85.09Y47.625
X85.09Y32.385
X85.725Y26.035
X85.725Y10.795
X87.63Y47.625
X87.63Y32.385
X88.265Y26.035
X88.265Y10.795
X90.805Y26.035
X90.805Y10.795
X93.345Y26.035
X93.345Y10.795
X95.885Y26.035
X95.885Y10.795
T3
X5.46Y77.5
X5.46Y74.96
X5.46Y72.42
X5.46Y69.88
X5.46Y67.34
X5.46Y64.8
X5.46Y62.26
X5.46Y59.72
X5.46Y57.18
X5.46Y54.64
X5.46Y52.1
X5.46Y49.56
X5.46Y47.02
X5.46Y44.48
X5.46Y41.94
X5.46Y39.4
X5.46Y36.86
X5.46Y34.32
X5.46Y31.78
X5.46Y29.24
X5.46Y26.7
X5.46Y24.16
X5.46Y21.62
X5.46Y19.08
X5.46Y16.54
X8.0Y77.5
X8.0Y74.96
X8.0Y72.42
X8.0Y69.88
X8.0Y67.34
X8.0Y64.8
X8.0Y62.26
X8.0Y59.72
X8.0Y57.18
X8.0Y54.64
X8.0Y52.1
X8.0Y49.56
X8.0Y47.02
X8.0Y44.48
X8.0Y41.94
X8.0Y39.4
X8.0Y36.86
X8.0Y34.32
X8.0Y31.78
X8.0Y29.24
X8.0Y26.7
X8.0Y24.16
X8.0Y21.62
X8.0Y19.08
X8.0Y16.54
X10.16Y88.265
X10.16Y85.725
X36.83Y95.885
X39.37Y95.885
X41.91Y95.885
X50.8Y95.885
X53.34Y95.885
X55.88Y95.885
X66.675Y96.52
X66.675Y93.98
X66.675Y68.58
X69.215Y68.58
X71.755Y68.58
X74.295Y68.58
X76.835Y68.58
X79.375Y68.58
X81.915Y68.58
X84.455Y68.58
X86.995Y96.52
X86.995Y93.98
X86.995Y68.58
T4
X5.0Y95.0
X5.0Y5.0
X95.0Y95.0
X95.0Y5.0
T3
G00X18.795Y89.09
M15
G01X18.795Y87.09
M16
G05
G00X24.495Y91.09
M15
G01X22.495Y91.09
M16
G05
G00X24.495Y85.09
M15
G01X22.495Y85.09
M16
G05
T0
M30
