G04 #@! TF.GenerationSoftware,KiCad,Pcbnew,(5.1.9)-1*
G04 #@! TF.CreationDate,2021-12-20T20:57:52+09:00*
G04 #@! TF.ProjectId,MZ80k_SD,4d5a3830-6b5f-4534-942e-6b696361645f,rev?*
G04 #@! TF.SameCoordinates,PX53920b0PY93c3260*
G04 #@! TF.FileFunction,Soldermask,Top*
G04 #@! TF.FilePolarity,Negative*
%FSLAX46Y46*%
G04 Gerber Fmt 4.6, Leading zero omitted, Abs format (unit mm)*
G04 Created by KiCad (PCBNEW (5.1.9)-1) date 2021-12-20 20:57:52*
%MOMM*%
%LPD*%
G01*
G04 APERTURE LIST*
%ADD10R,1.700000X1.700000*%
%ADD11O,1.700000X1.700000*%
%ADD12R,1.600000X1.600000*%
%ADD13O,1.600000X1.600000*%
%ADD14C,1.600000*%
%ADD15R,1.600000X2.400000*%
%ADD16O,1.600000X2.400000*%
%ADD17R,3.500000X3.500000*%
%ADD18C,3.200000*%
G04 APERTURE END LIST*
D10*
X10160000Y85725000D03*
D11*
X10160000Y88265000D03*
D10*
X66675000Y66675000D03*
D11*
X69215000Y66675000D03*
X71755000Y66675000D03*
X74295000Y66675000D03*
X76835000Y66675000D03*
X79375000Y66675000D03*
X81915000Y66675000D03*
X84455000Y66675000D03*
X86995000Y66675000D03*
X86995000Y94615000D03*
X86995000Y92075000D03*
X66675000Y94615000D03*
X66675000Y92075000D03*
D12*
X88900000Y50800000D03*
D13*
X86360000Y50800000D03*
X83820000Y50800000D03*
X60960000Y35560000D03*
X81280000Y50800000D03*
X63500000Y35560000D03*
X78740000Y50800000D03*
X66040000Y35560000D03*
X76200000Y50800000D03*
X68580000Y35560000D03*
X73660000Y50800000D03*
X71120000Y35560000D03*
X71120000Y50800000D03*
X73660000Y35560000D03*
X68580000Y50800000D03*
X76200000Y35560000D03*
X66040000Y50800000D03*
X78740000Y35560000D03*
X63500000Y50800000D03*
X81280000Y35560000D03*
X60960000Y50800000D03*
X83820000Y35560000D03*
X86360000Y35560000D03*
X88900000Y35560000D03*
X80010000Y38100000D03*
X77470000Y38100000D03*
X69850000Y38100000D03*
X67310000Y38100000D03*
D14*
X22395000Y15945000D03*
X22395000Y18445000D03*
D15*
X48895000Y50500000D03*
D16*
X15875000Y35260000D03*
X46355000Y50500000D03*
X18415000Y35260000D03*
X43815000Y50500000D03*
X20955000Y35260000D03*
X41275000Y50500000D03*
X23495000Y35260000D03*
X38735000Y50500000D03*
X26035000Y35260000D03*
X36195000Y50500000D03*
X28575000Y35260000D03*
X33655000Y50500000D03*
X31115000Y35260000D03*
X31115000Y50500000D03*
X33655000Y35260000D03*
X28575000Y50500000D03*
X36195000Y35260000D03*
X26035000Y50500000D03*
X38735000Y35260000D03*
X23495000Y50500000D03*
X41275000Y35260000D03*
X20955000Y50500000D03*
X43815000Y35260000D03*
X18415000Y50500000D03*
X46355000Y35260000D03*
X15875000Y50500000D03*
X48895000Y35260000D03*
D17*
X23495000Y85090000D03*
G36*
G01*
X22495000Y92590000D02*
X24495000Y92590000D01*
G75*
G02*
X25245000Y91840000I0J-750000D01*
G01*
X25245000Y90340000D01*
G75*
G02*
X24495000Y89590000I-750000J0D01*
G01*
X22495000Y89590000D01*
G75*
G02*
X21745000Y90340000I0J750000D01*
G01*
X21745000Y91840000D01*
G75*
G02*
X22495000Y92590000I750000J0D01*
G01*
G37*
G36*
G01*
X17920000Y89840000D02*
X19670000Y89840000D01*
G75*
G02*
X20545000Y88965000I0J-875000D01*
G01*
X20545000Y87215000D01*
G75*
G02*
X19670000Y86340000I-875000J0D01*
G01*
X17920000Y86340000D01*
G75*
G02*
X17045000Y87215000I0J875000D01*
G01*
X17045000Y88965000D01*
G75*
G02*
X17920000Y89840000I875000J0D01*
G01*
G37*
D14*
X52705000Y70485000D03*
X52705000Y72985000D03*
D10*
X8000000Y77500000D03*
D11*
X5460000Y77500000D03*
X8000000Y74960000D03*
X5460000Y74960000D03*
X8000000Y72420000D03*
X5460000Y72420000D03*
X8000000Y69880000D03*
X5460000Y69880000D03*
X8000000Y67340000D03*
X5460000Y67340000D03*
X8000000Y64800000D03*
X5460000Y64800000D03*
X8000000Y62260000D03*
X5460000Y62260000D03*
X8000000Y59720000D03*
X5460000Y59720000D03*
X8000000Y57180000D03*
X5460000Y57180000D03*
X8000000Y54640000D03*
X5460000Y54640000D03*
X8000000Y52100000D03*
X5460000Y52100000D03*
X8000000Y49560000D03*
X5460000Y49560000D03*
X8000000Y47020000D03*
X5460000Y47020000D03*
X8000000Y44480000D03*
X5460000Y44480000D03*
X8000000Y41940000D03*
X5460000Y41940000D03*
X8000000Y39400000D03*
X5460000Y39400000D03*
X8000000Y36860000D03*
X5460000Y36860000D03*
X8000000Y34320000D03*
X5460000Y34320000D03*
X8000000Y31780000D03*
X5460000Y31780000D03*
X8000000Y29240000D03*
X5460000Y29240000D03*
X8000000Y26700000D03*
X5460000Y26700000D03*
X8000000Y24160000D03*
X5460000Y24160000D03*
X8000000Y21620000D03*
X5460000Y21620000D03*
X8000000Y19080000D03*
X5460000Y19080000D03*
X8000000Y16540000D03*
X5460000Y16540000D03*
X55880000Y95885000D03*
X53340000Y95885000D03*
D10*
X50800000Y95885000D03*
D15*
X48895000Y75565000D03*
D16*
X20955000Y67945000D03*
X46355000Y75565000D03*
X23495000Y67945000D03*
X43815000Y75565000D03*
X26035000Y67945000D03*
X41275000Y75565000D03*
X28575000Y67945000D03*
X38735000Y75565000D03*
X31115000Y67945000D03*
X36195000Y75565000D03*
X33655000Y67945000D03*
X33655000Y75565000D03*
X36195000Y67945000D03*
X31115000Y75565000D03*
X38735000Y67945000D03*
X28575000Y75565000D03*
X41275000Y67945000D03*
X26035000Y75565000D03*
X43815000Y67945000D03*
X23495000Y75565000D03*
X46355000Y67945000D03*
X20955000Y75565000D03*
X48895000Y67945000D03*
D15*
X74930000Y25400000D03*
D16*
X26670000Y10160000D03*
X72390000Y25400000D03*
X29210000Y10160000D03*
X69850000Y25400000D03*
X31750000Y10160000D03*
X67310000Y25400000D03*
X34290000Y10160000D03*
X64770000Y25400000D03*
X36830000Y10160000D03*
X62230000Y25400000D03*
X39370000Y10160000D03*
X59690000Y25400000D03*
X41910000Y10160000D03*
X57150000Y25400000D03*
X44450000Y10160000D03*
X54610000Y25400000D03*
X46990000Y10160000D03*
X52070000Y25400000D03*
X49530000Y10160000D03*
X49530000Y25400000D03*
X52070000Y10160000D03*
X46990000Y25400000D03*
X54610000Y10160000D03*
X44450000Y25400000D03*
X57150000Y10160000D03*
X41910000Y25400000D03*
X59690000Y10160000D03*
X39370000Y25400000D03*
X62230000Y10160000D03*
X36830000Y25400000D03*
X64770000Y10160000D03*
X34290000Y25400000D03*
X67310000Y10160000D03*
X31750000Y25400000D03*
X69850000Y10160000D03*
X29210000Y25400000D03*
X72390000Y10160000D03*
X26670000Y25400000D03*
X74930000Y10160000D03*
D10*
X36830000Y95885000D03*
D11*
X39370000Y95885000D03*
X41910000Y95885000D03*
D14*
X52705000Y41275000D03*
X52705000Y43775000D03*
D18*
X5000000Y95000000D03*
X95000000Y95000000D03*
X95000000Y5000000D03*
X5000000Y5000000D03*
D12*
X45720000Y86995000D03*
D14*
X45720000Y84495000D03*
M02*
