M48
; DRILL file {KiCad (5.1.9)-1} date 12/07/21 16:47:53
; FORMAT={-:-/ absolute / metric / decimal}
; #@! TF.CreationDate,2021-12-07T16:47:53+09:00
; #@! TF.GenerationSoftware,Kicad,Pcbnew,(5.1.9)-1
FMAT,2
METRIC
T1C0.300
T2C0.800
T3C1.000
T4C3.200
%
G90
G05
T1
X11.628Y28.073
X14.326Y31.91
X15.786Y45.144
X18.21Y45.861
X25.682Y45.035
X34.544Y56.596
X34.677Y45.272
X35.338Y46.088
X35.999Y44.574
X39.054Y33.149
X39.454Y42.511
X40.323Y16.3
X42.62Y15.686
X46.631Y39.8
X46.661Y40.601
X47.024Y27.782
X47.252Y16.092
X50.39Y35.485
X50.651Y67.306
X53.387Y27.514
X54.064Y45.641
X54.239Y44.683
X54.336Y31.994
X54.811Y27.728
X55.092Y42.309
X55.652Y32.212
X56.996Y40.414
X57.12Y42.725
X61.555Y37.098
X66.639Y42.824
X66.927Y30.633
X69.315Y42.76
X74.311Y45.287
T2
X15.875Y50.5
X15.875Y35.26
X18.415Y50.5
X18.415Y35.26
X20.955Y75.565
X20.955Y67.945
X20.955Y50.5
X20.955Y35.26
X22.395Y18.445
X22.395Y15.945
X23.495Y75.565
X23.495Y67.945
X23.495Y50.5
X23.495Y35.26
X26.035Y75.565
X26.035Y67.945
X26.035Y50.5
X26.035Y35.26
X26.67Y25.4
X26.67Y10.16
X28.575Y75.565
X28.575Y67.945
X28.575Y50.5
X28.575Y35.26
X29.21Y25.4
X29.21Y10.16
X31.115Y75.565
X31.115Y67.945
X31.115Y50.5
X31.115Y35.26
X31.75Y25.4
X31.75Y10.16
X33.655Y75.565
X33.655Y67.945
X33.655Y50.5
X33.655Y35.26
X34.29Y25.4
X34.29Y10.16
X36.195Y75.565
X36.195Y67.945
X36.195Y50.5
X36.195Y35.26
X36.83Y25.4
X36.83Y10.16
X38.735Y75.565
X38.735Y67.945
X38.735Y50.5
X38.735Y35.26
X39.37Y25.4
X39.37Y10.16
X41.275Y75.565
X41.275Y67.945
X41.275Y50.5
X41.275Y35.26
X41.91Y25.4
X41.91Y10.16
X43.815Y75.565
X43.815Y67.945
X43.815Y50.5
X43.815Y35.26
X44.45Y25.4
X44.45Y10.16
X45.72Y86.995
X45.72Y84.495
X46.355Y75.565
X46.355Y67.945
X46.355Y50.5
X46.355Y35.26
X46.99Y25.4
X46.99Y10.16
X48.895Y75.565
X48.895Y67.945
X48.895Y50.5
X48.895Y35.26
X49.53Y25.4
X49.53Y10.16
X52.07Y25.4
X52.07Y10.16
X52.705Y72.985
X52.705Y70.485
X52.705Y43.775
X52.705Y41.275
X54.61Y25.4
X54.61Y10.16
X57.15Y25.4
X57.15Y10.16
X59.69Y25.4
X59.69Y10.16
X60.96Y50.8
X60.96Y35.56
X62.23Y25.4
X62.23Y10.16
X63.5Y50.8
X63.5Y35.56
X64.77Y25.4
X64.77Y10.16
X66.04Y50.8
X66.04Y35.56
X67.31Y38.1
X67.31Y25.4
X67.31Y10.16
X68.58Y50.8
X68.58Y35.56
X69.85Y38.1
X69.85Y25.4
X69.85Y10.16
X71.12Y50.8
X71.12Y35.56
X72.39Y25.4
X72.39Y10.16
X73.66Y50.8
X73.66Y35.56
X74.93Y25.4
X74.93Y10.16
X76.2Y50.8
X76.2Y35.56
X77.47Y38.1
X78.74Y50.8
X78.74Y35.56
X80.01Y38.1
X81.28Y50.8
X81.28Y35.56
X83.82Y50.8
X83.82Y35.56
X86.36Y50.8
X86.36Y35.56
X88.9Y50.8
X88.9Y35.56
T3
X5.46Y77.5
X5.46Y74.96
X5.46Y72.42
X5.46Y69.88
X5.46Y67.34
X5.46Y64.8
X5.46Y62.26
X5.46Y59.72
X5.46Y57.18
X5.46Y54.64
X5.46Y52.1
X5.46Y49.56
X5.46Y47.02
X5.46Y44.48
X5.46Y41.94
X5.46Y39.4
X5.46Y36.86
X5.46Y34.32
X5.46Y31.78
X5.46Y29.24
X5.46Y26.7
X5.46Y24.16
X5.46Y21.62
X5.46Y19.08
X5.46Y16.54
X8.0Y77.5
X8.0Y74.96
X8.0Y72.42
X8.0Y69.88
X8.0Y67.34
X8.0Y64.8
X8.0Y62.26
X8.0Y59.72
X8.0Y57.18
X8.0Y54.64
X8.0Y52.1
X8.0Y49.56
X8.0Y47.02
X8.0Y44.48
X8.0Y41.94
X8.0Y39.4
X8.0Y36.86
X8.0Y34.32
X8.0Y31.78
X8.0Y29.24
X8.0Y26.7
X8.0Y24.16
X8.0Y21.62
X8.0Y19.08
X8.0Y16.54
X10.16Y88.265
X10.16Y85.725
X36.83Y95.885
X39.37Y95.885
X41.91Y95.885
X50.8Y95.885
X53.34Y95.885
X55.88Y95.885
X66.675Y94.615
X66.675Y92.075
X66.675Y66.675
X69.215Y66.675
X71.755Y66.675
X74.295Y66.675
X76.835Y66.675
X79.375Y66.675
X81.915Y66.675
X84.455Y66.675
X86.995Y94.615
X86.995Y92.075
X86.995Y66.675
T4
X5.0Y95.0
X5.0Y5.0
X95.0Y95.0
X95.0Y5.0
T3
G00X18.795Y89.09
M15
G01X18.795Y87.09
M16
G05
G00X24.495Y91.09
M15
G01X22.495Y91.09
M16
G05
G00X24.495Y85.09
M15
G01X22.495Y85.09
M16
G05
T0
M30
