G04 #@! TF.GenerationSoftware,KiCad,Pcbnew,(5.1.9)-1*
G04 #@! TF.CreationDate,2024-08-30T09:44:18+09:00*
G04 #@! TF.ProjectId,MZ80k_SD,4d5a3830-6b5f-4534-942e-6b696361645f,rev?*
G04 #@! TF.SameCoordinates,PX53920b0PY93c3260*
G04 #@! TF.FileFunction,Copper,L2,Bot*
G04 #@! TF.FilePolarity,Positive*
%FSLAX46Y46*%
G04 Gerber Fmt 4.6, Leading zero omitted, Abs format (unit mm)*
G04 Created by KiCad (PCBNEW (5.1.9)-1) date 2024-08-30 09:44:18*
%MOMM*%
%LPD*%
G01*
G04 APERTURE LIST*
G04 #@! TA.AperFunction,ComponentPad*
%ADD10R,1.700000X1.700000*%
G04 #@! TD*
G04 #@! TA.AperFunction,ComponentPad*
%ADD11O,1.700000X1.700000*%
G04 #@! TD*
G04 #@! TA.AperFunction,ComponentPad*
%ADD12C,1.600000*%
G04 #@! TD*
G04 #@! TA.AperFunction,ComponentPad*
%ADD13R,1.600000X2.400000*%
G04 #@! TD*
G04 #@! TA.AperFunction,ComponentPad*
%ADD14O,1.600000X2.400000*%
G04 #@! TD*
G04 #@! TA.AperFunction,ComponentPad*
%ADD15R,3.500000X3.500000*%
G04 #@! TD*
G04 #@! TA.AperFunction,ComponentPad*
%ADD16R,1.600000X1.600000*%
G04 #@! TD*
G04 #@! TA.AperFunction,ComponentPad*
%ADD17O,1.600000X1.600000*%
G04 #@! TD*
G04 #@! TA.AperFunction,ViaPad*
%ADD18C,0.500000*%
G04 #@! TD*
G04 #@! TA.AperFunction,Conductor*
%ADD19C,0.400000*%
G04 #@! TD*
G04 #@! TA.AperFunction,Conductor*
%ADD20C,0.200000*%
G04 #@! TD*
G04 #@! TA.AperFunction,Conductor*
%ADD21C,0.254000*%
G04 #@! TD*
G04 #@! TA.AperFunction,Conductor*
%ADD22C,0.100000*%
G04 #@! TD*
G04 APERTURE END LIST*
D10*
X10160000Y85725000D03*
D11*
X10160000Y88265000D03*
D10*
X66675000Y68580000D03*
D11*
X69215000Y68580000D03*
X71755000Y68580000D03*
X74295000Y68580000D03*
X76835000Y68580000D03*
X79375000Y68580000D03*
X81915000Y68580000D03*
X84455000Y68580000D03*
X86995000Y68580000D03*
X86995000Y96520000D03*
X86995000Y93980000D03*
X66675000Y96520000D03*
X66675000Y93980000D03*
D12*
X43815000Y16510000D03*
X43815000Y19010000D03*
D13*
X50800000Y73995000D03*
D14*
X17780000Y58755000D03*
X48260000Y73995000D03*
X20320000Y58755000D03*
X45720000Y73995000D03*
X22860000Y58755000D03*
X43180000Y73995000D03*
X25400000Y58755000D03*
X40640000Y73995000D03*
X27940000Y58755000D03*
X38100000Y73995000D03*
X30480000Y58755000D03*
X35560000Y73995000D03*
X33020000Y58755000D03*
X33020000Y73995000D03*
X35560000Y58755000D03*
X30480000Y73995000D03*
X38100000Y58755000D03*
X27940000Y73995000D03*
X40640000Y58755000D03*
X25400000Y73995000D03*
X43180000Y58755000D03*
X22860000Y73995000D03*
X45720000Y58755000D03*
X20320000Y73995000D03*
X48260000Y58755000D03*
X17780000Y73995000D03*
X50800000Y58755000D03*
D15*
X23495000Y85090000D03*
G04 #@! TA.AperFunction,ComponentPad*
G36*
G01*
X22495000Y92590000D02*
X24495000Y92590000D01*
G75*
G02*
X25245000Y91840000I0J-750000D01*
G01*
X25245000Y90340000D01*
G75*
G02*
X24495000Y89590000I-750000J0D01*
G01*
X22495000Y89590000D01*
G75*
G02*
X21745000Y90340000I0J750000D01*
G01*
X21745000Y91840000D01*
G75*
G02*
X22495000Y92590000I750000J0D01*
G01*
G37*
G04 #@! TD.AperFunction*
G04 #@! TA.AperFunction,ComponentPad*
G36*
G01*
X17920000Y89840000D02*
X19670000Y89840000D01*
G75*
G02*
X20545000Y88965000I0J-875000D01*
G01*
X20545000Y87215000D01*
G75*
G02*
X19670000Y86340000I-875000J0D01*
G01*
X17920000Y86340000D01*
G75*
G02*
X17045000Y87215000I0J875000D01*
G01*
X17045000Y88965000D01*
G75*
G02*
X17920000Y89840000I875000J0D01*
G01*
G37*
G04 #@! TD.AperFunction*
D10*
X8000000Y77500000D03*
D11*
X5460000Y77500000D03*
X8000000Y74960000D03*
X5460000Y74960000D03*
X8000000Y72420000D03*
X5460000Y72420000D03*
X8000000Y69880000D03*
X5460000Y69880000D03*
X8000000Y67340000D03*
X5460000Y67340000D03*
X8000000Y64800000D03*
X5460000Y64800000D03*
X8000000Y62260000D03*
X5460000Y62260000D03*
X8000000Y59720000D03*
X5460000Y59720000D03*
X8000000Y57180000D03*
X5460000Y57180000D03*
X8000000Y54640000D03*
X5460000Y54640000D03*
X8000000Y52100000D03*
X5460000Y52100000D03*
X8000000Y49560000D03*
X5460000Y49560000D03*
X8000000Y47020000D03*
X5460000Y47020000D03*
X8000000Y44480000D03*
X5460000Y44480000D03*
X8000000Y41940000D03*
X5460000Y41940000D03*
X8000000Y39400000D03*
X5460000Y39400000D03*
X8000000Y36860000D03*
X5460000Y36860000D03*
X8000000Y34320000D03*
X5460000Y34320000D03*
X8000000Y31780000D03*
X5460000Y31780000D03*
X8000000Y29240000D03*
X5460000Y29240000D03*
X8000000Y26700000D03*
X5460000Y26700000D03*
X8000000Y24160000D03*
X5460000Y24160000D03*
X8000000Y21620000D03*
X5460000Y21620000D03*
X8000000Y19080000D03*
X5460000Y19080000D03*
X8000000Y16540000D03*
X5460000Y16540000D03*
X49380000Y95885000D03*
X46840000Y95885000D03*
D10*
X44300000Y95885000D03*
D13*
X95885000Y26035000D03*
D14*
X47625000Y10795000D03*
X93345000Y26035000D03*
X50165000Y10795000D03*
X90805000Y26035000D03*
X52705000Y10795000D03*
X88265000Y26035000D03*
X55245000Y10795000D03*
X85725000Y26035000D03*
X57785000Y10795000D03*
X83185000Y26035000D03*
X60325000Y10795000D03*
X80645000Y26035000D03*
X62865000Y10795000D03*
X78105000Y26035000D03*
X65405000Y10795000D03*
X75565000Y26035000D03*
X67945000Y10795000D03*
X73025000Y26035000D03*
X70485000Y10795000D03*
X70485000Y26035000D03*
X73025000Y10795000D03*
X67945000Y26035000D03*
X75565000Y10795000D03*
X65405000Y26035000D03*
X78105000Y10795000D03*
X62865000Y26035000D03*
X80645000Y10795000D03*
X60325000Y26035000D03*
X83185000Y10795000D03*
X57785000Y26035000D03*
X85725000Y10795000D03*
X55245000Y26035000D03*
X88265000Y10795000D03*
X52705000Y26035000D03*
X90805000Y10795000D03*
X50165000Y26035000D03*
X93345000Y10795000D03*
X47625000Y26035000D03*
X95885000Y10795000D03*
D10*
X33330000Y95885000D03*
D11*
X35870000Y95885000D03*
X38410000Y95885000D03*
D12*
X54610000Y64770000D03*
X54610000Y67270000D03*
D16*
X37220000Y86170000D03*
D12*
X37220000Y83670000D03*
D16*
X87630000Y47625000D03*
D17*
X85090000Y47625000D03*
X82550000Y47625000D03*
X59690000Y32385000D03*
X80010000Y47625000D03*
X62230000Y32385000D03*
X77470000Y47625000D03*
X64770000Y32385000D03*
X74930000Y47625000D03*
X67310000Y32385000D03*
X72390000Y47625000D03*
X69850000Y32385000D03*
X69850000Y47625000D03*
X72390000Y32385000D03*
X67310000Y47625000D03*
X74930000Y32385000D03*
X64770000Y47625000D03*
X77470000Y32385000D03*
X62230000Y47625000D03*
X80010000Y32385000D03*
X59690000Y47625000D03*
X82550000Y32385000D03*
X85090000Y32385000D03*
X87630000Y32385000D03*
X78740000Y34925000D03*
X76200000Y34925000D03*
X68580000Y34925000D03*
X66040000Y34925000D03*
D12*
X40005000Y31750000D03*
X40005000Y29250000D03*
X40005000Y45125000D03*
X40005000Y47625000D03*
X40005000Y15875000D03*
X40005000Y13375000D03*
D14*
X36195000Y26670000D03*
X20955000Y34290000D03*
X33655000Y26670000D03*
X23495000Y34290000D03*
X31115000Y26670000D03*
X26035000Y34290000D03*
X28575000Y26670000D03*
X28575000Y34290000D03*
X26035000Y26670000D03*
X31115000Y34290000D03*
X23495000Y26670000D03*
X33655000Y34290000D03*
X20955000Y26670000D03*
D13*
X36195000Y34290000D03*
X36195000Y50165000D03*
D14*
X20955000Y42545000D03*
X33655000Y50165000D03*
X23495000Y42545000D03*
X31115000Y50165000D03*
X26035000Y42545000D03*
X28575000Y50165000D03*
X28575000Y42545000D03*
X26035000Y50165000D03*
X31115000Y42545000D03*
X23495000Y50165000D03*
X33655000Y42545000D03*
X20955000Y50165000D03*
X36195000Y42545000D03*
D13*
X36195000Y18415000D03*
D14*
X20955000Y10795000D03*
X33655000Y18415000D03*
X23495000Y10795000D03*
X31115000Y18415000D03*
X26035000Y10795000D03*
X28575000Y18415000D03*
X28575000Y10795000D03*
X26035000Y18415000D03*
X31115000Y10795000D03*
X23495000Y18415000D03*
X33655000Y10795000D03*
X20955000Y18415000D03*
X36195000Y10795000D03*
D10*
X70500000Y60500000D03*
D11*
X73040000Y60500000D03*
X75580000Y60500000D03*
X78120000Y60500000D03*
X80660000Y60500000D03*
X83200000Y60500000D03*
D12*
X90170000Y60960000D03*
D17*
X90170000Y53340000D03*
D10*
X55110000Y96000000D03*
D11*
X57650000Y96000000D03*
X60190000Y96000000D03*
D18*
X32817800Y45917300D03*
X35764500Y23072000D03*
X48966800Y28431700D03*
X28699900Y40865300D03*
X12417600Y59763800D03*
X11133500Y59391500D03*
X30785600Y64409600D03*
X24200200Y63973500D03*
X10583200Y61367400D03*
X37121400Y37825500D03*
X32894000Y67110000D03*
X29044200Y52829300D03*
X38304300Y48679700D03*
X37145400Y47561500D03*
X20955000Y67707400D03*
X15505400Y45393000D03*
X16931500Y55750700D03*
X19738800Y22890000D03*
X15268600Y25549700D03*
X39186800Y48783900D03*
D19*
X90170000Y60960000D02*
X81349600Y52139600D01*
X81349600Y52139600D02*
X81349600Y34924900D01*
X81349600Y34924900D02*
X80010000Y33585300D01*
X43339500Y16709500D02*
X40005000Y13375000D01*
X40005000Y29250000D02*
X40005000Y20044000D01*
X40005000Y20044000D02*
X43339500Y16709500D01*
X43815000Y16510000D02*
X43615500Y16709500D01*
X43615500Y16709500D02*
X43339500Y16709500D01*
X80010000Y32385000D02*
X80010000Y33585300D01*
X40005000Y45125000D02*
X48260000Y53380000D01*
X48260000Y53380000D02*
X48260000Y58755000D01*
X28575000Y42545000D02*
X28575000Y44145300D01*
X23495000Y50165000D02*
X23495000Y48564700D01*
X23495000Y48564700D02*
X27914400Y44145300D01*
X27914400Y44145300D02*
X28575000Y44145300D01*
X36195000Y42545000D02*
X36195000Y40944700D01*
X36195000Y26670000D02*
X36195000Y28270300D01*
X36195000Y28270300D02*
X34994700Y29470600D01*
X34994700Y29470600D02*
X34994700Y39744400D01*
X34994700Y39744400D02*
X36195000Y40944700D01*
X66675000Y68580000D02*
X66675000Y67329700D01*
X73040000Y60500000D02*
X73040000Y61750300D01*
X73040000Y61750300D02*
X67460600Y67329700D01*
X67460600Y67329700D02*
X66675000Y67329700D01*
X20955000Y34290000D02*
X20955000Y32689700D01*
X20955000Y18415000D02*
X20955000Y20015300D01*
X20955000Y20015300D02*
X22224900Y21285200D01*
X22224900Y21285200D02*
X22224900Y31419800D01*
X22224900Y31419800D02*
X20955000Y32689700D01*
X5460000Y36860000D02*
X5460000Y38110300D01*
X5460000Y38110300D02*
X4913000Y38110300D01*
X4913000Y38110300D02*
X4170400Y38852900D01*
X4170400Y38852900D02*
X4170400Y44998200D01*
X4170400Y44998200D02*
X4941900Y45769700D01*
X4941900Y45769700D02*
X5460000Y45769700D01*
X5460000Y34320000D02*
X5460000Y36860000D01*
X5460000Y47020000D02*
X5460000Y45769700D01*
X85090000Y32385000D02*
X85090000Y31184700D01*
X80645000Y26035000D02*
X80645000Y27635300D01*
X85090000Y31184700D02*
X84194400Y31184700D01*
X84194400Y31184700D02*
X80645000Y27635300D01*
X40005000Y47625000D02*
X38793900Y46413900D01*
X38793900Y46413900D02*
X38793900Y32961100D01*
X38793900Y32961100D02*
X40005000Y31750000D01*
X54610000Y67270000D02*
X46990000Y59650000D01*
X46990000Y59650000D02*
X46990000Y54610000D01*
X46990000Y54610000D02*
X40005000Y47625000D01*
X43815000Y19010000D02*
X43815000Y27940000D01*
X43815000Y27940000D02*
X40005000Y31750000D01*
X69249700Y60500000D02*
X62479700Y67270000D01*
X62479700Y67270000D02*
X54610000Y67270000D01*
X70500000Y60500000D02*
X69249700Y60500000D01*
X4209700Y62260000D02*
X4209700Y65357500D01*
X4209700Y65357500D02*
X4941900Y66089700D01*
X4941900Y66089700D02*
X5460000Y66089700D01*
X4209700Y62260000D02*
X4209700Y59162500D01*
X4209700Y59162500D02*
X4941900Y58430300D01*
X4941900Y58430300D02*
X5460000Y58430300D01*
X5460000Y62260000D02*
X4209700Y62260000D01*
X5460000Y57180000D02*
X5460000Y58430300D01*
X5460000Y67340000D02*
X5460000Y66089700D01*
X5460000Y67340000D02*
X5460000Y68590300D01*
X5460000Y72420000D02*
X5460000Y71169700D01*
X5460000Y71169700D02*
X6007000Y71169700D01*
X6007000Y71169700D02*
X6730000Y70446700D01*
X6730000Y70446700D02*
X6730000Y69342200D01*
X6730000Y69342200D02*
X5978100Y68590300D01*
X5978100Y68590300D02*
X5460000Y68590300D01*
X5460000Y31780000D02*
X5460000Y34320000D01*
X5460000Y29240000D02*
X5460000Y31780000D01*
X5460000Y26700000D02*
X5460000Y29240000D01*
X5460000Y24160000D02*
X5460000Y26700000D01*
X5460000Y21620000D02*
X5460000Y24160000D01*
X5460000Y19080000D02*
X5460000Y21620000D01*
X37220000Y83670000D02*
X44300000Y90750000D01*
X44300000Y90750000D02*
X44300000Y95885000D01*
D20*
X38410000Y95885000D02*
X37259700Y95885000D01*
X37259700Y95885000D02*
X37259700Y95597400D01*
X37259700Y95597400D02*
X26752300Y85090000D01*
X26752300Y85090000D02*
X23495000Y85090000D01*
X48260000Y73995000D02*
X48260000Y75495300D01*
X46840000Y95885000D02*
X46840000Y76915300D01*
X46840000Y76915300D02*
X48260000Y75495300D01*
X32817800Y45917300D02*
X34780400Y43954700D01*
X34780400Y43954700D02*
X34780400Y41330700D01*
X34780400Y41330700D02*
X33655000Y40205300D01*
X33655000Y40205300D02*
X33655000Y34290000D01*
X36195000Y19915300D02*
X35764500Y20345800D01*
X35764500Y20345800D02*
X35764500Y23072000D01*
X36195000Y18415000D02*
X36195000Y19915300D01*
X83185000Y26035000D02*
X83185000Y24534700D01*
X20955000Y10795000D02*
X20955000Y9294700D01*
X20955000Y9294700D02*
X58263700Y9294700D01*
X58263700Y9294700D02*
X59055000Y10086000D01*
X59055000Y10086000D02*
X59055000Y11554400D01*
X59055000Y11554400D02*
X72035300Y24534700D01*
X72035300Y24534700D02*
X83185000Y24534700D01*
X31115000Y25169700D02*
X29700500Y23755200D01*
X29700500Y23755200D02*
X29700500Y13420800D01*
X29700500Y13420800D02*
X28575000Y12295300D01*
X31115000Y26670000D02*
X31115000Y25169700D01*
X28575000Y10795000D02*
X28575000Y12295300D01*
X26035000Y26670000D02*
X26035000Y22455300D01*
X26035000Y22455300D02*
X28575000Y19915300D01*
X28575000Y18415000D02*
X28575000Y19915300D01*
X47625000Y10795000D02*
X47625000Y12295300D01*
X47625000Y12295300D02*
X48966800Y13637100D01*
X48966800Y13637100D02*
X48966800Y28431700D01*
X66209700Y47625000D02*
X66209700Y47762500D01*
X66209700Y47762500D02*
X64402900Y49569300D01*
X64402900Y49569300D02*
X58885600Y49569300D01*
X58885600Y49569300D02*
X51435000Y42118700D01*
X51435000Y42118700D02*
X51435000Y13565300D01*
X51435000Y13565300D02*
X50165000Y12295300D01*
X50165000Y10795000D02*
X50165000Y12295300D01*
X67310000Y47625000D02*
X66209700Y47625000D01*
X52705000Y10795000D02*
X52705000Y12295300D01*
X64770000Y47625000D02*
X63669700Y47625000D01*
X63669700Y47625000D02*
X63669700Y47762700D01*
X63669700Y47762700D02*
X62263400Y49169000D01*
X62263400Y49169000D02*
X59051400Y49169000D01*
X59051400Y49169000D02*
X54144600Y44262200D01*
X54144600Y44262200D02*
X54144600Y13734900D01*
X54144600Y13734900D02*
X52705000Y12295300D01*
X55245000Y12295300D02*
X56515000Y13565300D01*
X56515000Y13565300D02*
X56515000Y46066300D01*
X56515000Y46066300D02*
X59185400Y48736700D01*
X59185400Y48736700D02*
X60155500Y48736700D01*
X60155500Y48736700D02*
X61129700Y47762500D01*
X61129700Y47762500D02*
X61129700Y47625000D01*
X55245000Y10795000D02*
X55245000Y12295300D01*
X62230000Y47625000D02*
X61129700Y47625000D01*
X57785000Y10795000D02*
X57785000Y12295300D01*
X59690000Y47625000D02*
X59690000Y46524700D01*
X59690000Y46524700D02*
X58587900Y45422600D01*
X58587900Y45422600D02*
X58587900Y31582100D01*
X58587900Y31582100D02*
X58906100Y31263900D01*
X58906100Y31263900D02*
X58906100Y13416400D01*
X58906100Y13416400D02*
X57785000Y12295300D01*
X23495000Y34290000D02*
X23495000Y35790300D01*
X23495000Y35790300D02*
X23624900Y35790300D01*
X23624900Y35790300D02*
X28699900Y40865300D01*
X8000000Y77500000D02*
X8000000Y76349700D01*
X12417600Y59763800D02*
X12417600Y72219700D01*
X12417600Y72219700D02*
X8287600Y76349700D01*
X8287600Y76349700D02*
X8000000Y76349700D01*
X8000000Y74960000D02*
X8000000Y73809700D01*
X8000000Y73809700D02*
X8287600Y73809700D01*
X8287600Y73809700D02*
X11133500Y70963800D01*
X11133500Y70963800D02*
X11133500Y59391500D01*
X31115000Y50165000D02*
X31115000Y51665300D01*
X31115000Y51665300D02*
X31591200Y52141500D01*
X31591200Y52141500D02*
X31591200Y63604000D01*
X31591200Y63604000D02*
X30785600Y64409600D01*
X28575000Y50165000D02*
X28575000Y51665300D01*
X28575000Y51665300D02*
X26670000Y53570300D01*
X26670000Y53570300D02*
X26670000Y61503700D01*
X26670000Y61503700D02*
X24200200Y63973500D01*
X8000000Y64800000D02*
X8000000Y63649700D01*
X8000000Y63649700D02*
X8300900Y63649700D01*
X8300900Y63649700D02*
X10583200Y61367400D01*
X35560000Y58755000D02*
X35560000Y57254700D01*
X37121400Y37825500D02*
X37295400Y37999500D01*
X37295400Y37999500D02*
X37295400Y44093200D01*
X37295400Y44093200D02*
X35066700Y46321900D01*
X35066700Y46321900D02*
X35066700Y56761400D01*
X35066700Y56761400D02*
X35560000Y57254700D01*
X8000000Y56486000D02*
X9918100Y56486000D01*
X9918100Y56486000D02*
X12967900Y59535800D01*
X12967900Y59535800D02*
X12967900Y71724400D01*
X12967900Y71724400D02*
X17992500Y76749000D01*
X17992500Y76749000D02*
X44466300Y76749000D01*
X44466300Y76749000D02*
X45720000Y75495300D01*
X45720000Y73995000D02*
X45720000Y75495300D01*
X8000000Y56486000D02*
X8000000Y56029700D01*
X8000000Y57180000D02*
X8000000Y56486000D01*
X23495000Y18415000D02*
X23495000Y16914700D01*
X23495000Y16914700D02*
X21960700Y15380400D01*
X21960700Y15380400D02*
X7511000Y15380400D01*
X7511000Y15380400D02*
X6639900Y16251500D01*
X6639900Y16251500D02*
X6639900Y17024300D01*
X6639900Y17024300D02*
X5854200Y17810000D01*
X5854200Y17810000D02*
X5081800Y17810000D01*
X5081800Y17810000D02*
X3580200Y19311600D01*
X3580200Y19311600D02*
X3580200Y46782100D01*
X3580200Y46782100D02*
X5207700Y48409600D01*
X5207700Y48409600D02*
X5968900Y48409600D01*
X5968900Y48409600D02*
X6730000Y49170700D01*
X6730000Y49170700D02*
X6730000Y54998100D01*
X6730000Y54998100D02*
X7761600Y56029700D01*
X7761600Y56029700D02*
X8000000Y56029700D01*
X32894000Y67110000D02*
X32707800Y67110000D01*
X32707800Y67110000D02*
X29044200Y63446400D01*
X29044200Y63446400D02*
X29044200Y52829300D01*
X26035000Y18415000D02*
X26035000Y19915300D01*
X26035000Y19915300D02*
X24926800Y21023500D01*
X24926800Y21023500D02*
X24926800Y36270700D01*
X24926800Y36270700D02*
X29705600Y41049500D01*
X29705600Y41049500D02*
X29705600Y52167900D01*
X29705600Y52167900D02*
X29044200Y52829300D01*
X5460000Y53489700D02*
X5221600Y53489700D01*
X5221600Y53489700D02*
X3165000Y51433100D01*
X3165000Y51433100D02*
X3165000Y17191400D01*
X3165000Y17191400D02*
X11471900Y8884500D01*
X11471900Y8884500D02*
X85314800Y8884500D01*
X85314800Y8884500D02*
X85725000Y9294700D01*
X5460000Y54640000D02*
X5460000Y53489700D01*
X85725000Y10795000D02*
X85725000Y9294700D01*
X34290000Y74724500D02*
X34290000Y56422300D01*
X34290000Y56422300D02*
X32267500Y54399800D01*
X32267500Y54399800D02*
X32267500Y31862800D01*
X32267500Y31862800D02*
X28575000Y28170300D01*
X8000000Y53250300D02*
X8287700Y53250300D01*
X8287700Y53250300D02*
X13368200Y58330800D01*
X13368200Y58330800D02*
X13368200Y71543800D01*
X13368200Y71543800D02*
X18123800Y76299400D01*
X18123800Y76299400D02*
X32715100Y76299400D01*
X32715100Y76299400D02*
X34290000Y74724500D01*
X34290000Y74724500D02*
X35060800Y75495300D01*
X35060800Y75495300D02*
X40640000Y75495300D01*
X8000000Y52100000D02*
X8000000Y53250300D01*
X40640000Y73995000D02*
X40640000Y75495300D01*
X28575000Y26670000D02*
X28575000Y28170300D01*
X38304300Y48679700D02*
X38224700Y48600100D01*
X38224700Y48600100D02*
X38224700Y26142400D01*
X38224700Y26142400D02*
X35791200Y23708900D01*
X35791200Y23708900D02*
X35578100Y23708900D01*
X35578100Y23708900D02*
X34770500Y22901300D01*
X34770500Y22901300D02*
X34770500Y17569900D01*
X34770500Y17569900D02*
X34115300Y16914700D01*
X34115300Y16914700D02*
X31115000Y16914700D01*
X31115000Y18415000D02*
X31115000Y16914700D01*
X38304300Y48679700D02*
X39209300Y49584700D01*
X39209300Y49584700D02*
X39209300Y71385400D01*
X39209300Y71385400D02*
X38100000Y72494700D01*
X38100000Y73995000D02*
X38100000Y72494700D01*
X37145400Y47561500D02*
X37695800Y47011100D01*
X37695800Y47011100D02*
X37695800Y26194800D01*
X37695800Y26194800D02*
X35879000Y24378000D01*
X35879000Y24378000D02*
X35602500Y24378000D01*
X35602500Y24378000D02*
X33655000Y22430500D01*
X33655000Y22430500D02*
X33655000Y19915300D01*
X35560000Y72494700D02*
X36688400Y71366300D01*
X36688400Y71366300D02*
X36688400Y57861600D01*
X36688400Y57861600D02*
X37296500Y57253500D01*
X37296500Y57253500D02*
X37296500Y47712600D01*
X37296500Y47712600D02*
X37145400Y47561500D01*
X35560000Y73995000D02*
X35560000Y72494700D01*
X33655000Y18415000D02*
X33655000Y19915300D01*
X33020000Y73995000D02*
X31116000Y75899000D01*
X31116000Y75899000D02*
X20221500Y75899000D01*
X20221500Y75899000D02*
X19050000Y74727500D01*
X19050000Y74727500D02*
X19050000Y65118100D01*
X19050000Y65118100D02*
X13768500Y59836600D01*
X13768500Y59836600D02*
X13768500Y51111200D01*
X13768500Y51111200D02*
X8287600Y45630300D01*
X8287600Y45630300D02*
X8000000Y45630300D01*
X8000000Y44480000D02*
X8000000Y45630300D01*
X8000000Y41940000D02*
X14968600Y48908600D01*
X14968600Y48908600D02*
X14968600Y59055400D01*
X14968600Y59055400D02*
X20955000Y65041800D01*
X20955000Y65041800D02*
X20955000Y67707400D01*
X15505400Y45393000D02*
X15505400Y59025800D01*
X15505400Y59025800D02*
X21590000Y65110400D01*
X21590000Y65110400D02*
X21590000Y74749300D01*
X21590000Y74749300D02*
X22336000Y75495300D01*
X22336000Y75495300D02*
X27940000Y75495300D01*
X27940000Y73995000D02*
X27940000Y75495300D01*
X8000000Y39400000D02*
X9512400Y39400000D01*
X9512400Y39400000D02*
X15505400Y45393000D01*
X8000000Y35470300D02*
X8287600Y35470300D01*
X8287600Y35470300D02*
X16306000Y43488700D01*
X16306000Y43488700D02*
X16306000Y55125200D01*
X16306000Y55125200D02*
X16931500Y55750700D01*
X8000000Y34320000D02*
X8000000Y35470300D01*
X25400000Y58755000D02*
X25400000Y54028900D01*
X25400000Y54028900D02*
X22225000Y50853900D01*
X22225000Y50853900D02*
X22225000Y49065200D01*
X22225000Y49065200D02*
X19738800Y46579000D01*
X19738800Y46579000D02*
X19738800Y22890000D01*
X22860000Y58755000D02*
X22860000Y56568900D01*
X22860000Y56568900D02*
X18537900Y52246800D01*
X18537900Y52246800D02*
X18537900Y28819000D01*
X18537900Y28819000D02*
X15268600Y25549700D01*
X8000000Y27850300D02*
X8287600Y27850300D01*
X8287600Y27850300D02*
X17197400Y36760100D01*
X17197400Y36760100D02*
X17197400Y55238300D01*
X17197400Y55238300D02*
X17481800Y55522700D01*
X17481800Y55522700D02*
X17481800Y56194200D01*
X17481800Y56194200D02*
X16674100Y57001900D01*
X16674100Y57001900D02*
X16674100Y59623500D01*
X16674100Y59623500D02*
X17305900Y60255300D01*
X17305900Y60255300D02*
X20320000Y60255300D01*
X20320000Y58755000D02*
X20320000Y60255300D01*
X8000000Y26700000D02*
X8000000Y27850300D01*
X8000000Y25310300D02*
X8287600Y25310300D01*
X8287600Y25310300D02*
X17737300Y34760000D01*
X17737300Y34760000D02*
X17737300Y55212100D01*
X17737300Y55212100D02*
X17882100Y55356900D01*
X17882100Y55356900D02*
X17882100Y57152600D01*
X17882100Y57152600D02*
X17780000Y57254700D01*
X17780000Y58755000D02*
X17780000Y57254700D01*
X8000000Y24160000D02*
X8000000Y25310300D01*
X20320000Y72494700D02*
X20320000Y65256000D01*
X20320000Y65256000D02*
X14519900Y59455900D01*
X14519900Y59455900D02*
X14519900Y49335600D01*
X14519900Y49335600D02*
X8394300Y43210000D01*
X8394300Y43210000D02*
X7599400Y43210000D01*
X7599400Y43210000D02*
X6840000Y42450600D01*
X6840000Y42450600D02*
X6840000Y23691900D01*
X6840000Y23691900D02*
X7761600Y22770300D01*
X7761600Y22770300D02*
X8000000Y22770300D01*
X8000000Y21620000D02*
X8000000Y22770300D01*
X20320000Y73995000D02*
X20320000Y72494700D01*
X22860000Y72494700D02*
X22860000Y64905700D01*
X22860000Y64905700D02*
X21448500Y63494200D01*
X21448500Y63494200D02*
X21448500Y56740200D01*
X21448500Y56740200D02*
X18137600Y53429300D01*
X18137600Y53429300D02*
X18137600Y30080300D01*
X18137600Y30080300D02*
X8287600Y20230300D01*
X8287600Y20230300D02*
X8000000Y20230300D01*
X22860000Y73995000D02*
X22860000Y72494700D01*
X8000000Y19080000D02*
X8000000Y20230300D01*
X25400000Y72494700D02*
X23649900Y70744600D01*
X23649900Y70744600D02*
X23649900Y63745600D01*
X23649900Y63745600D02*
X23960400Y63435100D01*
X23960400Y63435100D02*
X23960400Y56145300D01*
X23960400Y56145300D02*
X19254900Y51439800D01*
X19254900Y51439800D02*
X19254900Y28657600D01*
X19254900Y28657600D02*
X8287600Y17690300D01*
X8287600Y17690300D02*
X8000000Y17690300D01*
X25400000Y73995000D02*
X25400000Y72494700D01*
X8000000Y16540000D02*
X8000000Y17690300D01*
X68410300Y32385000D02*
X68410300Y33187100D01*
X68410300Y33187100D02*
X76356300Y41133100D01*
X76356300Y41133100D02*
X76356300Y55046000D01*
X76356300Y55046000D02*
X80660000Y59349700D01*
X67310000Y32385000D02*
X68410300Y32385000D01*
X80660000Y60500000D02*
X80660000Y59349700D01*
X76835000Y67429700D02*
X80660000Y63604700D01*
X80660000Y63604700D02*
X80660000Y60500000D01*
X76835000Y68580000D02*
X76835000Y67429700D01*
X75580000Y60500000D02*
X75580000Y59349700D01*
X75580000Y59349700D02*
X68580000Y52349700D01*
X68580000Y52349700D02*
X68580000Y46544600D01*
X68580000Y46544600D02*
X64770000Y42734600D01*
X64770000Y42734600D02*
X64770000Y32385000D01*
X62230000Y32385000D02*
X63330300Y32385000D01*
X78120000Y60500000D02*
X78120000Y59349700D01*
X78120000Y59349700D02*
X73660000Y54889700D01*
X73660000Y54889700D02*
X73660000Y41805200D01*
X73660000Y41805200D02*
X67193300Y35338500D01*
X67193300Y35338500D02*
X67193300Y34510100D01*
X67193300Y34510100D02*
X66040000Y33356800D01*
X66040000Y33356800D02*
X66040000Y32065900D01*
X66040000Y32065900D02*
X65257500Y31283400D01*
X65257500Y31283400D02*
X64203900Y31283400D01*
X64203900Y31283400D02*
X63330300Y32157000D01*
X63330300Y32157000D02*
X63330300Y32385000D01*
X83200000Y60500000D02*
X83200000Y59349700D01*
X59690000Y32385000D02*
X60790300Y32385000D01*
X60790300Y32385000D02*
X60790300Y32247500D01*
X60790300Y32247500D02*
X62207000Y30830800D01*
X62207000Y30830800D02*
X69912700Y30830800D01*
X69912700Y30830800D02*
X71120000Y32038100D01*
X71120000Y32038100D02*
X71120000Y34395600D01*
X71120000Y34395600D02*
X78740000Y42015600D01*
X78740000Y42015600D02*
X78740000Y54889700D01*
X78740000Y54889700D02*
X83200000Y59349700D01*
X83200000Y60500000D02*
X83200000Y61650300D01*
X83200000Y61650300D02*
X84455000Y62905300D01*
X84455000Y62905300D02*
X84455000Y68580000D01*
X55110000Y96000000D02*
X55110000Y72885200D01*
X55110000Y72885200D02*
X41910000Y59685200D01*
X41910000Y59685200D02*
X41910000Y51507100D01*
X41910000Y51507100D02*
X39186800Y48783900D01*
D21*
X99340000Y660000D02*
X660000Y660000D01*
X660000Y5220128D01*
X2765000Y5220128D01*
X2765000Y4779872D01*
X2850890Y4348075D01*
X3019369Y3941331D01*
X3263962Y3575271D01*
X3575271Y3263962D01*
X3941331Y3019369D01*
X4348075Y2850890D01*
X4779872Y2765000D01*
X5220128Y2765000D01*
X5651925Y2850890D01*
X6058669Y3019369D01*
X6424729Y3263962D01*
X6736038Y3575271D01*
X6980631Y3941331D01*
X7149110Y4348075D01*
X7235000Y4779872D01*
X7235000Y5220128D01*
X92765000Y5220128D01*
X92765000Y4779872D01*
X92850890Y4348075D01*
X93019369Y3941331D01*
X93263962Y3575271D01*
X93575271Y3263962D01*
X93941331Y3019369D01*
X94348075Y2850890D01*
X94779872Y2765000D01*
X95220128Y2765000D01*
X95651925Y2850890D01*
X96058669Y3019369D01*
X96424729Y3263962D01*
X96736038Y3575271D01*
X96980631Y3941331D01*
X97149110Y4348075D01*
X97235000Y4779872D01*
X97235000Y5220128D01*
X97149110Y5651925D01*
X96980631Y6058669D01*
X96736038Y6424729D01*
X96424729Y6736038D01*
X96058669Y6980631D01*
X95651925Y7149110D01*
X95220128Y7235000D01*
X94779872Y7235000D01*
X94348075Y7149110D01*
X93941331Y6980631D01*
X93575271Y6736038D01*
X93263962Y6424729D01*
X93019369Y6058669D01*
X92850890Y5651925D01*
X92765000Y5220128D01*
X7235000Y5220128D01*
X7149110Y5651925D01*
X6980631Y6058669D01*
X6736038Y6424729D01*
X6424729Y6736038D01*
X6058669Y6980631D01*
X5651925Y7149110D01*
X5220128Y7235000D01*
X4779872Y7235000D01*
X4348075Y7149110D01*
X3941331Y6980631D01*
X3575271Y6736038D01*
X3263962Y6424729D01*
X3019369Y6058669D01*
X2850890Y5651925D01*
X2765000Y5220128D01*
X660000Y5220128D01*
X660000Y51433100D01*
X2426444Y51433100D01*
X2430000Y51396995D01*
X2430001Y17227515D01*
X2426444Y17191400D01*
X2440635Y17047315D01*
X2480864Y16914700D01*
X2482664Y16908767D01*
X2550914Y16781080D01*
X2642763Y16669162D01*
X2670808Y16646146D01*
X10926646Y8390307D01*
X10949662Y8362262D01*
X10977706Y8339247D01*
X11061580Y8270413D01*
X11189266Y8202163D01*
X11327815Y8160135D01*
X11471900Y8145944D01*
X11508005Y8149500D01*
X85278695Y8149500D01*
X85314800Y8145944D01*
X85350905Y8149500D01*
X85458885Y8160135D01*
X85597433Y8202163D01*
X85725120Y8270413D01*
X85837038Y8362262D01*
X85860059Y8390313D01*
X86219187Y8749441D01*
X86247238Y8772462D01*
X86339087Y8884380D01*
X86407337Y9012067D01*
X86449365Y9150615D01*
X86449826Y9155299D01*
X86526100Y9196068D01*
X86744607Y9375392D01*
X86923932Y9593899D01*
X86995000Y9726858D01*
X87066068Y9593900D01*
X87245392Y9375393D01*
X87463899Y9196068D01*
X87713192Y9062818D01*
X87983691Y8980764D01*
X88265000Y8953057D01*
X88546308Y8980764D01*
X88816807Y9062818D01*
X89066100Y9196068D01*
X89284607Y9375392D01*
X89463932Y9593899D01*
X89535000Y9726858D01*
X89606068Y9593900D01*
X89785392Y9375393D01*
X90003899Y9196068D01*
X90253192Y9062818D01*
X90523691Y8980764D01*
X90805000Y8953057D01*
X91086308Y8980764D01*
X91356807Y9062818D01*
X91606100Y9196068D01*
X91824607Y9375392D01*
X92003932Y9593899D01*
X92075000Y9726858D01*
X92146068Y9593900D01*
X92325392Y9375393D01*
X92543899Y9196068D01*
X92793192Y9062818D01*
X93063691Y8980764D01*
X93345000Y8953057D01*
X93626308Y8980764D01*
X93896807Y9062818D01*
X94146100Y9196068D01*
X94364607Y9375392D01*
X94543932Y9593899D01*
X94615000Y9726858D01*
X94686068Y9593900D01*
X94865392Y9375393D01*
X95083899Y9196068D01*
X95333192Y9062818D01*
X95603691Y8980764D01*
X95885000Y8953057D01*
X96166308Y8980764D01*
X96436807Y9062818D01*
X96686100Y9196068D01*
X96904607Y9375392D01*
X97083932Y9593899D01*
X97217182Y9843192D01*
X97299236Y10113691D01*
X97320000Y10324508D01*
X97320000Y11265491D01*
X97299236Y11476309D01*
X97217182Y11746808D01*
X97083932Y11996101D01*
X96904608Y12214608D01*
X96686101Y12393932D01*
X96436808Y12527182D01*
X96166309Y12609236D01*
X95885000Y12636943D01*
X95603692Y12609236D01*
X95333193Y12527182D01*
X95083900Y12393932D01*
X94865393Y12214608D01*
X94686068Y11996101D01*
X94615000Y11863142D01*
X94543932Y11996101D01*
X94364608Y12214608D01*
X94146101Y12393932D01*
X93896808Y12527182D01*
X93626309Y12609236D01*
X93345000Y12636943D01*
X93063692Y12609236D01*
X92793193Y12527182D01*
X92543900Y12393932D01*
X92325393Y12214608D01*
X92146068Y11996101D01*
X92075000Y11863142D01*
X92003932Y11996101D01*
X91824608Y12214608D01*
X91606101Y12393932D01*
X91356808Y12527182D01*
X91086309Y12609236D01*
X90805000Y12636943D01*
X90523692Y12609236D01*
X90253193Y12527182D01*
X90003900Y12393932D01*
X89785393Y12214608D01*
X89606068Y11996101D01*
X89535000Y11863142D01*
X89463932Y11996101D01*
X89284608Y12214608D01*
X89066101Y12393932D01*
X88816808Y12527182D01*
X88546309Y12609236D01*
X88265000Y12636943D01*
X87983692Y12609236D01*
X87713193Y12527182D01*
X87463900Y12393932D01*
X87245393Y12214608D01*
X87066068Y11996101D01*
X86995000Y11863142D01*
X86923932Y11996101D01*
X86744608Y12214608D01*
X86526101Y12393932D01*
X86276808Y12527182D01*
X86006309Y12609236D01*
X85725000Y12636943D01*
X85443692Y12609236D01*
X85173193Y12527182D01*
X84923900Y12393932D01*
X84705393Y12214608D01*
X84526068Y11996101D01*
X84455000Y11863142D01*
X84383932Y11996101D01*
X84204608Y12214608D01*
X83986101Y12393932D01*
X83736808Y12527182D01*
X83466309Y12609236D01*
X83185000Y12636943D01*
X82903692Y12609236D01*
X82633193Y12527182D01*
X82383900Y12393932D01*
X82165393Y12214608D01*
X81986068Y11996101D01*
X81915000Y11863142D01*
X81843932Y11996101D01*
X81664608Y12214608D01*
X81446101Y12393932D01*
X81196808Y12527182D01*
X80926309Y12609236D01*
X80645000Y12636943D01*
X80363692Y12609236D01*
X80093193Y12527182D01*
X79843900Y12393932D01*
X79625393Y12214608D01*
X79446068Y11996101D01*
X79375000Y11863142D01*
X79303932Y11996101D01*
X79124608Y12214608D01*
X78906101Y12393932D01*
X78656808Y12527182D01*
X78386309Y12609236D01*
X78105000Y12636943D01*
X77823692Y12609236D01*
X77553193Y12527182D01*
X77303900Y12393932D01*
X77085393Y12214608D01*
X76906068Y11996101D01*
X76835000Y11863142D01*
X76763932Y11996101D01*
X76584608Y12214608D01*
X76366101Y12393932D01*
X76116808Y12527182D01*
X75846309Y12609236D01*
X75565000Y12636943D01*
X75283692Y12609236D01*
X75013193Y12527182D01*
X74763900Y12393932D01*
X74545393Y12214608D01*
X74366068Y11996101D01*
X74295000Y11863142D01*
X74223932Y11996101D01*
X74044608Y12214608D01*
X73826101Y12393932D01*
X73576808Y12527182D01*
X73306309Y12609236D01*
X73025000Y12636943D01*
X72743692Y12609236D01*
X72473193Y12527182D01*
X72223900Y12393932D01*
X72005393Y12214608D01*
X71826068Y11996101D01*
X71755000Y11863142D01*
X71683932Y11996101D01*
X71504608Y12214608D01*
X71286101Y12393932D01*
X71036808Y12527182D01*
X70766309Y12609236D01*
X70485000Y12636943D01*
X70203692Y12609236D01*
X69933193Y12527182D01*
X69683900Y12393932D01*
X69465393Y12214608D01*
X69286068Y11996101D01*
X69215000Y11863142D01*
X69143932Y11996101D01*
X68964608Y12214608D01*
X68746101Y12393932D01*
X68496808Y12527182D01*
X68226309Y12609236D01*
X67945000Y12636943D01*
X67663692Y12609236D01*
X67393193Y12527182D01*
X67143900Y12393932D01*
X66925393Y12214608D01*
X66746068Y11996101D01*
X66675000Y11863142D01*
X66603932Y11996101D01*
X66424608Y12214608D01*
X66206101Y12393932D01*
X65956808Y12527182D01*
X65686309Y12609236D01*
X65405000Y12636943D01*
X65123692Y12609236D01*
X64853193Y12527182D01*
X64603900Y12393932D01*
X64385393Y12214608D01*
X64206068Y11996101D01*
X64135000Y11863142D01*
X64063932Y11996101D01*
X63884608Y12214608D01*
X63666101Y12393932D01*
X63416808Y12527182D01*
X63146309Y12609236D01*
X62865000Y12636943D01*
X62583692Y12609236D01*
X62313193Y12527182D01*
X62063900Y12393932D01*
X61845393Y12214608D01*
X61666068Y11996101D01*
X61595000Y11863142D01*
X61523932Y11996101D01*
X61344608Y12214608D01*
X61126101Y12393932D01*
X61000900Y12460854D01*
X72339747Y23799700D01*
X83148895Y23799700D01*
X83185000Y23796144D01*
X83221105Y23799700D01*
X83329085Y23810335D01*
X83467633Y23852363D01*
X83595320Y23920613D01*
X83707238Y24012462D01*
X83799087Y24124380D01*
X83867337Y24252067D01*
X83909365Y24390615D01*
X83909826Y24395299D01*
X83986100Y24436068D01*
X84204607Y24615392D01*
X84383932Y24833899D01*
X84455000Y24966858D01*
X84526068Y24833900D01*
X84705392Y24615393D01*
X84923899Y24436068D01*
X85173192Y24302818D01*
X85443691Y24220764D01*
X85725000Y24193057D01*
X86006308Y24220764D01*
X86276807Y24302818D01*
X86526100Y24436068D01*
X86744607Y24615392D01*
X86923932Y24833899D01*
X86995000Y24966858D01*
X87066068Y24833900D01*
X87245392Y24615393D01*
X87463899Y24436068D01*
X87713192Y24302818D01*
X87983691Y24220764D01*
X88265000Y24193057D01*
X88546308Y24220764D01*
X88816807Y24302818D01*
X89066100Y24436068D01*
X89284607Y24615392D01*
X89463932Y24833899D01*
X89535000Y24966858D01*
X89606068Y24833900D01*
X89785392Y24615393D01*
X90003899Y24436068D01*
X90253192Y24302818D01*
X90523691Y24220764D01*
X90805000Y24193057D01*
X91086308Y24220764D01*
X91356807Y24302818D01*
X91606100Y24436068D01*
X91824607Y24615392D01*
X92003932Y24833899D01*
X92075000Y24966858D01*
X92146068Y24833900D01*
X92325392Y24615393D01*
X92543899Y24436068D01*
X92793192Y24302818D01*
X93063691Y24220764D01*
X93345000Y24193057D01*
X93626308Y24220764D01*
X93896807Y24302818D01*
X94146100Y24436068D01*
X94364607Y24615392D01*
X94457419Y24728483D01*
X94459188Y24710518D01*
X94495498Y24590820D01*
X94554463Y24480506D01*
X94633815Y24383815D01*
X94730506Y24304463D01*
X94840820Y24245498D01*
X94960518Y24209188D01*
X95085000Y24196928D01*
X96685000Y24196928D01*
X96809482Y24209188D01*
X96929180Y24245498D01*
X97039494Y24304463D01*
X97136185Y24383815D01*
X97215537Y24480506D01*
X97274502Y24590820D01*
X97310812Y24710518D01*
X97323072Y24835000D01*
X97323072Y27235000D01*
X97310812Y27359482D01*
X97274502Y27479180D01*
X97215537Y27589494D01*
X97136185Y27686185D01*
X97039494Y27765537D01*
X96929180Y27824502D01*
X96809482Y27860812D01*
X96685000Y27873072D01*
X95085000Y27873072D01*
X94960518Y27860812D01*
X94840820Y27824502D01*
X94730506Y27765537D01*
X94633815Y27686185D01*
X94554463Y27589494D01*
X94495498Y27479180D01*
X94459188Y27359482D01*
X94457419Y27341518D01*
X94364608Y27454608D01*
X94146101Y27633932D01*
X93896808Y27767182D01*
X93626309Y27849236D01*
X93345000Y27876943D01*
X93063692Y27849236D01*
X92793193Y27767182D01*
X92543900Y27633932D01*
X92325393Y27454608D01*
X92146068Y27236101D01*
X92075000Y27103142D01*
X92003932Y27236101D01*
X91824608Y27454608D01*
X91606101Y27633932D01*
X91356808Y27767182D01*
X91086309Y27849236D01*
X90805000Y27876943D01*
X90523692Y27849236D01*
X90253193Y27767182D01*
X90003900Y27633932D01*
X89785393Y27454608D01*
X89606068Y27236101D01*
X89535000Y27103142D01*
X89463932Y27236101D01*
X89284608Y27454608D01*
X89066101Y27633932D01*
X88816808Y27767182D01*
X88546309Y27849236D01*
X88265000Y27876943D01*
X87983692Y27849236D01*
X87713193Y27767182D01*
X87463900Y27633932D01*
X87245393Y27454608D01*
X87066068Y27236101D01*
X86995000Y27103142D01*
X86923932Y27236101D01*
X86744608Y27454608D01*
X86526101Y27633932D01*
X86276808Y27767182D01*
X86006309Y27849236D01*
X85725000Y27876943D01*
X85443692Y27849236D01*
X85173193Y27767182D01*
X84923900Y27633932D01*
X84705393Y27454608D01*
X84526068Y27236101D01*
X84455000Y27103142D01*
X84383932Y27236101D01*
X84204608Y27454608D01*
X83986101Y27633932D01*
X83736808Y27767182D01*
X83466309Y27849236D01*
X83185000Y27876943D01*
X82903692Y27849236D01*
X82633193Y27767182D01*
X82383900Y27633932D01*
X82165393Y27454608D01*
X81986068Y27236101D01*
X81917735Y27108259D01*
X81767601Y27337839D01*
X81569895Y27539500D01*
X81336646Y27698715D01*
X81076818Y27809367D01*
X80994039Y27826904D01*
X80772000Y27704915D01*
X80772000Y26162000D01*
X80792000Y26162000D01*
X80792000Y25908000D01*
X80772000Y25908000D01*
X80772000Y25888000D01*
X80518000Y25888000D01*
X80518000Y25908000D01*
X80498000Y25908000D01*
X80498000Y26162000D01*
X80518000Y26162000D01*
X80518000Y27704915D01*
X80295961Y27826904D01*
X80213182Y27809367D01*
X79953354Y27698715D01*
X79720105Y27539500D01*
X79522399Y27337839D01*
X79372265Y27108259D01*
X79303932Y27236101D01*
X79124608Y27454608D01*
X78906101Y27633932D01*
X78656808Y27767182D01*
X78386309Y27849236D01*
X78105000Y27876943D01*
X77823692Y27849236D01*
X77553193Y27767182D01*
X77303900Y27633932D01*
X77085393Y27454608D01*
X76906068Y27236101D01*
X76835000Y27103142D01*
X76763932Y27236101D01*
X76584608Y27454608D01*
X76366101Y27633932D01*
X76116808Y27767182D01*
X75846309Y27849236D01*
X75565000Y27876943D01*
X75283692Y27849236D01*
X75013193Y27767182D01*
X74763900Y27633932D01*
X74545393Y27454608D01*
X74366068Y27236101D01*
X74295000Y27103142D01*
X74223932Y27236101D01*
X74044608Y27454608D01*
X73826101Y27633932D01*
X73576808Y27767182D01*
X73306309Y27849236D01*
X73025000Y27876943D01*
X72743692Y27849236D01*
X72473193Y27767182D01*
X72223900Y27633932D01*
X72005393Y27454608D01*
X71826068Y27236101D01*
X71755000Y27103142D01*
X71683932Y27236101D01*
X71504608Y27454608D01*
X71286101Y27633932D01*
X71036808Y27767182D01*
X70766309Y27849236D01*
X70485000Y27876943D01*
X70203692Y27849236D01*
X69933193Y27767182D01*
X69683900Y27633932D01*
X69465393Y27454608D01*
X69286068Y27236101D01*
X69215000Y27103142D01*
X69143932Y27236101D01*
X68964608Y27454608D01*
X68746101Y27633932D01*
X68496808Y27767182D01*
X68226309Y27849236D01*
X67945000Y27876943D01*
X67663692Y27849236D01*
X67393193Y27767182D01*
X67143900Y27633932D01*
X66925393Y27454608D01*
X66746068Y27236101D01*
X66675000Y27103142D01*
X66603932Y27236101D01*
X66424608Y27454608D01*
X66206101Y27633932D01*
X65956808Y27767182D01*
X65686309Y27849236D01*
X65405000Y27876943D01*
X65123692Y27849236D01*
X64853193Y27767182D01*
X64603900Y27633932D01*
X64385393Y27454608D01*
X64206068Y27236101D01*
X64135000Y27103142D01*
X64063932Y27236101D01*
X63884608Y27454608D01*
X63666101Y27633932D01*
X63416808Y27767182D01*
X63146309Y27849236D01*
X62865000Y27876943D01*
X62583692Y27849236D01*
X62313193Y27767182D01*
X62063900Y27633932D01*
X61845393Y27454608D01*
X61666068Y27236101D01*
X61595000Y27103142D01*
X61523932Y27236101D01*
X61344608Y27454608D01*
X61126101Y27633932D01*
X60876808Y27767182D01*
X60606309Y27849236D01*
X60325000Y27876943D01*
X60043692Y27849236D01*
X59773193Y27767182D01*
X59641100Y27696577D01*
X59641100Y30950000D01*
X59831335Y30950000D01*
X60108574Y31005147D01*
X60369727Y31113320D01*
X60604759Y31270363D01*
X60666375Y31331979D01*
X61661746Y30336607D01*
X61684762Y30308562D01*
X61796680Y30216713D01*
X61924367Y30148463D01*
X62062915Y30106435D01*
X62170895Y30095800D01*
X62170904Y30095800D01*
X62206999Y30092245D01*
X62243094Y30095800D01*
X69876595Y30095800D01*
X69912700Y30092244D01*
X69948805Y30095800D01*
X70056785Y30106435D01*
X70195333Y30148463D01*
X70323020Y30216713D01*
X70434938Y30308562D01*
X70457958Y30336612D01*
X71433475Y31312129D01*
X71475241Y31270363D01*
X71710273Y31113320D01*
X71971426Y31005147D01*
X72248665Y30950000D01*
X72531335Y30950000D01*
X72808574Y31005147D01*
X73069727Y31113320D01*
X73304759Y31270363D01*
X73504637Y31470241D01*
X73660000Y31702759D01*
X73815363Y31470241D01*
X74015241Y31270363D01*
X74250273Y31113320D01*
X74511426Y31005147D01*
X74788665Y30950000D01*
X75071335Y30950000D01*
X75348574Y31005147D01*
X75609727Y31113320D01*
X75844759Y31270363D01*
X76044637Y31470241D01*
X76200000Y31702759D01*
X76355363Y31470241D01*
X76555241Y31270363D01*
X76790273Y31113320D01*
X77051426Y31005147D01*
X77328665Y30950000D01*
X77611335Y30950000D01*
X77888574Y31005147D01*
X78149727Y31113320D01*
X78384759Y31270363D01*
X78584637Y31470241D01*
X78740000Y31702759D01*
X78895363Y31470241D01*
X79095241Y31270363D01*
X79330273Y31113320D01*
X79591426Y31005147D01*
X79868665Y30950000D01*
X80151335Y30950000D01*
X80428574Y31005147D01*
X80689727Y31113320D01*
X80924759Y31270363D01*
X81124637Y31470241D01*
X81280000Y31702759D01*
X81435363Y31470241D01*
X81635241Y31270363D01*
X81870273Y31113320D01*
X82131426Y31005147D01*
X82408665Y30950000D01*
X82691335Y30950000D01*
X82968574Y31005147D01*
X83229727Y31113320D01*
X83464759Y31270363D01*
X83664637Y31470241D01*
X83821680Y31705273D01*
X83826067Y31715865D01*
X83937615Y31529869D01*
X84126586Y31321481D01*
X84352580Y31153963D01*
X84606913Y31033754D01*
X84740961Y30993096D01*
X84963000Y31115085D01*
X84963000Y32258000D01*
X84943000Y32258000D01*
X84943000Y32512000D01*
X84963000Y32512000D01*
X84963000Y33654915D01*
X85217000Y33654915D01*
X85217000Y32512000D01*
X85237000Y32512000D01*
X85237000Y32258000D01*
X85217000Y32258000D01*
X85217000Y31115085D01*
X85439039Y30993096D01*
X85573087Y31033754D01*
X85827420Y31153963D01*
X86053414Y31321481D01*
X86242385Y31529869D01*
X86353933Y31715865D01*
X86358320Y31705273D01*
X86515363Y31470241D01*
X86715241Y31270363D01*
X86950273Y31113320D01*
X87211426Y31005147D01*
X87488665Y30950000D01*
X87771335Y30950000D01*
X88048574Y31005147D01*
X88309727Y31113320D01*
X88544759Y31270363D01*
X88744637Y31470241D01*
X88901680Y31705273D01*
X89009853Y31966426D01*
X89065000Y32243665D01*
X89065000Y32526335D01*
X89009853Y32803574D01*
X88901680Y33064727D01*
X88744637Y33299759D01*
X88544759Y33499637D01*
X88309727Y33656680D01*
X88048574Y33764853D01*
X87771335Y33820000D01*
X87488665Y33820000D01*
X87211426Y33764853D01*
X86950273Y33656680D01*
X86715241Y33499637D01*
X86515363Y33299759D01*
X86358320Y33064727D01*
X86353933Y33054135D01*
X86242385Y33240131D01*
X86053414Y33448519D01*
X85827420Y33616037D01*
X85573087Y33736246D01*
X85439039Y33776904D01*
X85217000Y33654915D01*
X84963000Y33654915D01*
X84740961Y33776904D01*
X84606913Y33736246D01*
X84352580Y33616037D01*
X84126586Y33448519D01*
X83937615Y33240131D01*
X83826067Y33054135D01*
X83821680Y33064727D01*
X83664637Y33299759D01*
X83464759Y33499637D01*
X83229727Y33656680D01*
X82968574Y33764853D01*
X82691335Y33820000D01*
X82408665Y33820000D01*
X82131426Y33764853D01*
X81870273Y33656680D01*
X81635241Y33499637D01*
X81435363Y33299759D01*
X81280000Y33067241D01*
X81124637Y33299759D01*
X81014982Y33409414D01*
X81911026Y34305458D01*
X81942891Y34331609D01*
X82047236Y34458754D01*
X82124772Y34603813D01*
X82172518Y34761211D01*
X82184600Y34883881D01*
X82184600Y34883891D01*
X82188639Y34924899D01*
X82184600Y34965907D01*
X82184600Y46234570D01*
X82408665Y46190000D01*
X82691335Y46190000D01*
X82968574Y46245147D01*
X83229727Y46353320D01*
X83464759Y46510363D01*
X83664637Y46710241D01*
X83820000Y46942759D01*
X83975363Y46710241D01*
X84175241Y46510363D01*
X84410273Y46353320D01*
X84671426Y46245147D01*
X84948665Y46190000D01*
X85231335Y46190000D01*
X85508574Y46245147D01*
X85769727Y46353320D01*
X86004759Y46510363D01*
X86203357Y46708961D01*
X86204188Y46700518D01*
X86240498Y46580820D01*
X86299463Y46470506D01*
X86378815Y46373815D01*
X86475506Y46294463D01*
X86585820Y46235498D01*
X86705518Y46199188D01*
X86830000Y46186928D01*
X88430000Y46186928D01*
X88554482Y46199188D01*
X88674180Y46235498D01*
X88784494Y46294463D01*
X88881185Y46373815D01*
X88960537Y46470506D01*
X89019502Y46580820D01*
X89055812Y46700518D01*
X89068072Y46825000D01*
X89068072Y48425000D01*
X89055812Y48549482D01*
X89019502Y48669180D01*
X88960537Y48779494D01*
X88881185Y48876185D01*
X88784494Y48955537D01*
X88674180Y49014502D01*
X88554482Y49050812D01*
X88430000Y49063072D01*
X86830000Y49063072D01*
X86705518Y49050812D01*
X86585820Y49014502D01*
X86475506Y48955537D01*
X86378815Y48876185D01*
X86299463Y48779494D01*
X86240498Y48669180D01*
X86204188Y48549482D01*
X86203357Y48541039D01*
X86004759Y48739637D01*
X85769727Y48896680D01*
X85508574Y49004853D01*
X85231335Y49060000D01*
X84948665Y49060000D01*
X84671426Y49004853D01*
X84410273Y48896680D01*
X84175241Y48739637D01*
X83975363Y48539759D01*
X83820000Y48307241D01*
X83664637Y48539759D01*
X83464759Y48739637D01*
X83229727Y48896680D01*
X82968574Y49004853D01*
X82691335Y49060000D01*
X82408665Y49060000D01*
X82184600Y49015430D01*
X82184600Y51793733D01*
X83872202Y53481335D01*
X88735000Y53481335D01*
X88735000Y53198665D01*
X88790147Y52921426D01*
X88898320Y52660273D01*
X89055363Y52425241D01*
X89255241Y52225363D01*
X89490273Y52068320D01*
X89751426Y51960147D01*
X90028665Y51905000D01*
X90311335Y51905000D01*
X90588574Y51960147D01*
X90849727Y52068320D01*
X91084759Y52225363D01*
X91284637Y52425241D01*
X91441680Y52660273D01*
X91549853Y52921426D01*
X91605000Y53198665D01*
X91605000Y53481335D01*
X91549853Y53758574D01*
X91441680Y54019727D01*
X91284637Y54254759D01*
X91084759Y54454637D01*
X90849727Y54611680D01*
X90588574Y54719853D01*
X90311335Y54775000D01*
X90028665Y54775000D01*
X89751426Y54719853D01*
X89490273Y54611680D01*
X89255241Y54454637D01*
X89055363Y54254759D01*
X88898320Y54019727D01*
X88790147Y53758574D01*
X88735000Y53481335D01*
X83872202Y53481335D01*
X89934582Y59543714D01*
X90028665Y59525000D01*
X90311335Y59525000D01*
X90588574Y59580147D01*
X90849727Y59688320D01*
X91084759Y59845363D01*
X91284637Y60045241D01*
X91441680Y60280273D01*
X91549853Y60541426D01*
X91605000Y60818665D01*
X91605000Y61101335D01*
X91549853Y61378574D01*
X91441680Y61639727D01*
X91284637Y61874759D01*
X91084759Y62074637D01*
X90849727Y62231680D01*
X90588574Y62339853D01*
X90311335Y62395000D01*
X90028665Y62395000D01*
X89751426Y62339853D01*
X89490273Y62231680D01*
X89255241Y62074637D01*
X89055363Y61874759D01*
X88898320Y61639727D01*
X88790147Y61378574D01*
X88735000Y61101335D01*
X88735000Y60818665D01*
X88753714Y60724582D01*
X80788179Y52759046D01*
X80756309Y52732891D01*
X80651965Y52605746D01*
X80651964Y52605745D01*
X80574428Y52460686D01*
X80526682Y52303288D01*
X80510560Y52139600D01*
X80514600Y52098581D01*
X80514600Y48969220D01*
X80428574Y49004853D01*
X80151335Y49060000D01*
X79868665Y49060000D01*
X79591426Y49004853D01*
X79475000Y48956628D01*
X79475000Y54585254D01*
X83694193Y58804446D01*
X83722238Y58827462D01*
X83814087Y58939380D01*
X83882337Y59067067D01*
X83921472Y59196078D01*
X84146632Y59346525D01*
X84353475Y59553368D01*
X84515990Y59796589D01*
X84627932Y60066842D01*
X84685000Y60353740D01*
X84685000Y60646260D01*
X84627932Y60933158D01*
X84515990Y61203411D01*
X84353475Y61446632D01*
X84194627Y61605480D01*
X84949197Y62360050D01*
X84977237Y62383062D01*
X85000250Y62411103D01*
X85000253Y62411106D01*
X85030478Y62447936D01*
X85069087Y62494980D01*
X85137337Y62622667D01*
X85167480Y62722035D01*
X85179365Y62761214D01*
X85193556Y62905299D01*
X85190000Y62941404D01*
X85190000Y67285117D01*
X85401632Y67426525D01*
X85608475Y67633368D01*
X85725000Y67807760D01*
X85841525Y67633368D01*
X86048368Y67426525D01*
X86291589Y67264010D01*
X86561842Y67152068D01*
X86848740Y67095000D01*
X87141260Y67095000D01*
X87428158Y67152068D01*
X87698411Y67264010D01*
X87941632Y67426525D01*
X88148475Y67633368D01*
X88310990Y67876589D01*
X88422932Y68146842D01*
X88480000Y68433740D01*
X88480000Y68726260D01*
X88422932Y69013158D01*
X88310990Y69283411D01*
X88148475Y69526632D01*
X87941632Y69733475D01*
X87698411Y69895990D01*
X87428158Y70007932D01*
X87141260Y70065000D01*
X86848740Y70065000D01*
X86561842Y70007932D01*
X86291589Y69895990D01*
X86048368Y69733475D01*
X85841525Y69526632D01*
X85725000Y69352240D01*
X85608475Y69526632D01*
X85401632Y69733475D01*
X85158411Y69895990D01*
X84888158Y70007932D01*
X84601260Y70065000D01*
X84308740Y70065000D01*
X84021842Y70007932D01*
X83751589Y69895990D01*
X83508368Y69733475D01*
X83301525Y69526632D01*
X83185000Y69352240D01*
X83068475Y69526632D01*
X82861632Y69733475D01*
X82618411Y69895990D01*
X82348158Y70007932D01*
X82061260Y70065000D01*
X81768740Y70065000D01*
X81481842Y70007932D01*
X81211589Y69895990D01*
X80968368Y69733475D01*
X80761525Y69526632D01*
X80645000Y69352240D01*
X80528475Y69526632D01*
X80321632Y69733475D01*
X80078411Y69895990D01*
X79808158Y70007932D01*
X79521260Y70065000D01*
X79228740Y70065000D01*
X78941842Y70007932D01*
X78671589Y69895990D01*
X78428368Y69733475D01*
X78221525Y69526632D01*
X78105000Y69352240D01*
X77988475Y69526632D01*
X77781632Y69733475D01*
X77538411Y69895990D01*
X77268158Y70007932D01*
X76981260Y70065000D01*
X76688740Y70065000D01*
X76401842Y70007932D01*
X76131589Y69895990D01*
X75888368Y69733475D01*
X75681525Y69526632D01*
X75559805Y69344466D01*
X75490178Y69461355D01*
X75295269Y69677588D01*
X75061920Y69851641D01*
X74799099Y69976825D01*
X74651890Y70021476D01*
X74422000Y69900155D01*
X74422000Y68707000D01*
X74442000Y68707000D01*
X74442000Y68453000D01*
X74422000Y68453000D01*
X74422000Y67259845D01*
X74651890Y67138524D01*
X74799099Y67183175D01*
X75061920Y67308359D01*
X75295269Y67482412D01*
X75490178Y67698645D01*
X75559805Y67815534D01*
X75681525Y67633368D01*
X75888368Y67426525D01*
X76113528Y67276078D01*
X76137467Y67197165D01*
X76152664Y67147067D01*
X76220914Y67019380D01*
X76312763Y66907462D01*
X76340808Y66884446D01*
X79925000Y63300253D01*
X79925001Y61794883D01*
X79713368Y61653475D01*
X79506525Y61446632D01*
X79390000Y61272240D01*
X79273475Y61446632D01*
X79066632Y61653475D01*
X78823411Y61815990D01*
X78553158Y61927932D01*
X78266260Y61985000D01*
X77973740Y61985000D01*
X77686842Y61927932D01*
X77416589Y61815990D01*
X77173368Y61653475D01*
X76966525Y61446632D01*
X76850000Y61272240D01*
X76733475Y61446632D01*
X76526632Y61653475D01*
X76283411Y61815990D01*
X76013158Y61927932D01*
X75726260Y61985000D01*
X75433740Y61985000D01*
X75146842Y61927932D01*
X74876589Y61815990D01*
X74633368Y61653475D01*
X74426525Y61446632D01*
X74310000Y61272240D01*
X74193475Y61446632D01*
X73986632Y61653475D01*
X73876736Y61726905D01*
X73879040Y61750301D01*
X73862918Y61913989D01*
X73815172Y62071387D01*
X73737636Y62216446D01*
X73732288Y62222963D01*
X73633291Y62343591D01*
X73601427Y62369741D01*
X68828350Y67142817D01*
X69068740Y67095000D01*
X69361260Y67095000D01*
X69648158Y67152068D01*
X69918411Y67264010D01*
X70161632Y67426525D01*
X70368475Y67633368D01*
X70485000Y67807760D01*
X70601525Y67633368D01*
X70808368Y67426525D01*
X71051589Y67264010D01*
X71321842Y67152068D01*
X71608740Y67095000D01*
X71901260Y67095000D01*
X72188158Y67152068D01*
X72458411Y67264010D01*
X72701632Y67426525D01*
X72908475Y67633368D01*
X73030195Y67815534D01*
X73099822Y67698645D01*
X73294731Y67482412D01*
X73528080Y67308359D01*
X73790901Y67183175D01*
X73938110Y67138524D01*
X74168000Y67259845D01*
X74168000Y68453000D01*
X74148000Y68453000D01*
X74148000Y68707000D01*
X74168000Y68707000D01*
X74168000Y69900155D01*
X73938110Y70021476D01*
X73790901Y69976825D01*
X73528080Y69851641D01*
X73294731Y69677588D01*
X73099822Y69461355D01*
X73030195Y69344466D01*
X72908475Y69526632D01*
X72701632Y69733475D01*
X72458411Y69895990D01*
X72188158Y70007932D01*
X71901260Y70065000D01*
X71608740Y70065000D01*
X71321842Y70007932D01*
X71051589Y69895990D01*
X70808368Y69733475D01*
X70601525Y69526632D01*
X70485000Y69352240D01*
X70368475Y69526632D01*
X70161632Y69733475D01*
X69918411Y69895990D01*
X69648158Y70007932D01*
X69361260Y70065000D01*
X69068740Y70065000D01*
X68781842Y70007932D01*
X68511589Y69895990D01*
X68268368Y69733475D01*
X68136513Y69601620D01*
X68114502Y69674180D01*
X68055537Y69784494D01*
X67976185Y69881185D01*
X67879494Y69960537D01*
X67769180Y70019502D01*
X67649482Y70055812D01*
X67525000Y70068072D01*
X65825000Y70068072D01*
X65700518Y70055812D01*
X65580820Y70019502D01*
X65470506Y69960537D01*
X65373815Y69881185D01*
X65294463Y69784494D01*
X65235498Y69674180D01*
X65199188Y69554482D01*
X65186928Y69430000D01*
X65186928Y67730000D01*
X65199188Y67605518D01*
X65235498Y67485820D01*
X65294463Y67375506D01*
X65373815Y67278815D01*
X65470506Y67199463D01*
X65580820Y67140498D01*
X65700518Y67104188D01*
X65825000Y67091928D01*
X65874555Y67091928D01*
X65899828Y67008613D01*
X65977364Y66863554D01*
X66081709Y66736409D01*
X66208854Y66632064D01*
X66353913Y66554528D01*
X66511311Y66506782D01*
X66633981Y66494700D01*
X66633982Y66494700D01*
X66675000Y66490660D01*
X66716019Y66494700D01*
X67114733Y66494700D01*
X72024663Y61584770D01*
X71961513Y61521620D01*
X71939502Y61594180D01*
X71880537Y61704494D01*
X71801185Y61801185D01*
X71704494Y61880537D01*
X71594180Y61939502D01*
X71474482Y61975812D01*
X71350000Y61988072D01*
X70785750Y61985000D01*
X70627000Y61826250D01*
X70627000Y60627000D01*
X70647000Y60627000D01*
X70647000Y60373000D01*
X70627000Y60373000D01*
X70627000Y59173750D01*
X70785750Y59015000D01*
X71350000Y59011928D01*
X71474482Y59024188D01*
X71594180Y59060498D01*
X71704494Y59119463D01*
X71801185Y59198815D01*
X71880537Y59295506D01*
X71939502Y59405820D01*
X71961513Y59478380D01*
X72093368Y59346525D01*
X72336589Y59184010D01*
X72606842Y59072068D01*
X72893740Y59015000D01*
X73186260Y59015000D01*
X73473158Y59072068D01*
X73743411Y59184010D01*
X73986632Y59346525D01*
X74193475Y59553368D01*
X74310000Y59727760D01*
X74426525Y59553368D01*
X74585373Y59394520D01*
X68085808Y52894954D01*
X68057762Y52871937D01*
X67965913Y52760019D01*
X67897663Y52632332D01*
X67879105Y52571155D01*
X67855635Y52493785D01*
X67841444Y52349700D01*
X67845000Y52313595D01*
X67845001Y48956628D01*
X67728574Y49004853D01*
X67451335Y49060000D01*
X67168665Y49060000D01*
X66891426Y49004853D01*
X66630273Y48896680D01*
X66395241Y48739637D01*
X66333625Y48678021D01*
X64948158Y50063488D01*
X64925138Y50091538D01*
X64813220Y50183387D01*
X64685533Y50251637D01*
X64546985Y50293665D01*
X64439005Y50304300D01*
X64402900Y50307856D01*
X64366795Y50304300D01*
X58921705Y50304300D01*
X58885600Y50307856D01*
X58741515Y50293665D01*
X58602966Y50251637D01*
X58475280Y50183387D01*
X58363362Y50091538D01*
X58340346Y50063493D01*
X50940808Y42663954D01*
X50912762Y42640937D01*
X50820913Y42529019D01*
X50752663Y42401332D01*
X50730248Y42327438D01*
X50710635Y42262785D01*
X50696444Y42118700D01*
X50700000Y42082595D01*
X50700001Y27772280D01*
X50446309Y27849236D01*
X50165000Y27876943D01*
X49883692Y27849236D01*
X49701800Y27794060D01*
X49701800Y27938747D01*
X49751077Y28012495D01*
X49817790Y28173555D01*
X49851800Y28344535D01*
X49851800Y28518865D01*
X49817790Y28689845D01*
X49751077Y28850905D01*
X49654224Y28995855D01*
X49530955Y29119124D01*
X49386005Y29215977D01*
X49224945Y29282690D01*
X49053965Y29316700D01*
X48879635Y29316700D01*
X48708655Y29282690D01*
X48547595Y29215977D01*
X48402645Y29119124D01*
X48279376Y28995855D01*
X48182523Y28850905D01*
X48115810Y28689845D01*
X48081800Y28518865D01*
X48081800Y28344535D01*
X48115810Y28173555D01*
X48182523Y28012495D01*
X48231801Y27938746D01*
X48231801Y27737788D01*
X48176808Y27767182D01*
X47906309Y27849236D01*
X47625000Y27876943D01*
X47343692Y27849236D01*
X47073193Y27767182D01*
X46823900Y27633932D01*
X46605393Y27454608D01*
X46426068Y27236101D01*
X46292818Y26986808D01*
X46210764Y26716309D01*
X46190000Y26505492D01*
X46190000Y25564509D01*
X46210764Y25353692D01*
X46292818Y25083193D01*
X46426068Y24833900D01*
X46605392Y24615393D01*
X46823899Y24436068D01*
X47073192Y24302818D01*
X47343691Y24220764D01*
X47625000Y24193057D01*
X47906308Y24220764D01*
X48176807Y24302818D01*
X48231801Y24332213D01*
X48231800Y13941547D01*
X47130808Y12840554D01*
X47102763Y12817538D01*
X47010914Y12705620D01*
X46959396Y12609236D01*
X46942664Y12577933D01*
X46900635Y12439385D01*
X46900174Y12434701D01*
X46823900Y12393932D01*
X46605393Y12214608D01*
X46426068Y11996101D01*
X46292818Y11746808D01*
X46210764Y11476309D01*
X46190000Y11265492D01*
X46190000Y10324509D01*
X46210764Y10113692D01*
X46236242Y10029700D01*
X37583758Y10029700D01*
X37609236Y10113691D01*
X37630000Y10324508D01*
X37630000Y11265491D01*
X37609236Y11476309D01*
X37527182Y11746808D01*
X37393932Y11996101D01*
X37214608Y12214608D01*
X36996101Y12393932D01*
X36746808Y12527182D01*
X36476309Y12609236D01*
X36195000Y12636943D01*
X35913692Y12609236D01*
X35643193Y12527182D01*
X35393900Y12393932D01*
X35175393Y12214608D01*
X34996068Y11996101D01*
X34925000Y11863142D01*
X34853932Y11996101D01*
X34674608Y12214608D01*
X34456101Y12393932D01*
X34206808Y12527182D01*
X33936309Y12609236D01*
X33655000Y12636943D01*
X33373692Y12609236D01*
X33103193Y12527182D01*
X32853900Y12393932D01*
X32635393Y12214608D01*
X32456068Y11996101D01*
X32385000Y11863142D01*
X32313932Y11996101D01*
X32134608Y12214608D01*
X31916101Y12393932D01*
X31666808Y12527182D01*
X31396309Y12609236D01*
X31115000Y12636943D01*
X30833692Y12609236D01*
X30563193Y12527182D01*
X30313900Y12393932D01*
X30095393Y12214608D01*
X29916068Y11996101D01*
X29845000Y11863142D01*
X29773932Y11996101D01*
X29594608Y12214608D01*
X29561184Y12242038D01*
X30194693Y12875546D01*
X30222738Y12898562D01*
X30314587Y13010480D01*
X30382837Y13138167D01*
X30424865Y13276715D01*
X30435500Y13384695D01*
X30435500Y13384704D01*
X30439055Y13420799D01*
X30435500Y13456894D01*
X30435500Y15804488D01*
X38564783Y15804488D01*
X38606213Y15524870D01*
X38701397Y15258708D01*
X38768329Y15133486D01*
X39012298Y15061903D01*
X39825395Y15875000D01*
X39012298Y16688097D01*
X38768329Y16616514D01*
X38647429Y16361004D01*
X38578700Y16086816D01*
X38564783Y15804488D01*
X30435500Y15804488D01*
X30435500Y16626759D01*
X30500913Y16504380D01*
X30592762Y16392462D01*
X30704680Y16300613D01*
X30832367Y16232363D01*
X30970915Y16190335D01*
X31078895Y16179700D01*
X31115000Y16176144D01*
X31151105Y16179700D01*
X34079195Y16179700D01*
X34115300Y16176144D01*
X34151405Y16179700D01*
X34259385Y16190335D01*
X34397933Y16232363D01*
X34525620Y16300613D01*
X34637538Y16392462D01*
X34660558Y16420512D01*
X34976795Y16736749D01*
X35040506Y16684463D01*
X35150820Y16625498D01*
X35270518Y16589188D01*
X35395000Y16576928D01*
X36995000Y16576928D01*
X37119482Y16589188D01*
X37239180Y16625498D01*
X37349494Y16684463D01*
X37446185Y16763815D01*
X37525537Y16860506D01*
X37529383Y16867702D01*
X39191903Y16867702D01*
X40005000Y16054605D01*
X40818097Y16867702D01*
X40746514Y17111671D01*
X40491004Y17232571D01*
X40216816Y17301300D01*
X39934488Y17315217D01*
X39654870Y17273787D01*
X39388708Y17178603D01*
X39263486Y17111671D01*
X39191903Y16867702D01*
X37529383Y16867702D01*
X37584502Y16970820D01*
X37620812Y17090518D01*
X37633072Y17215000D01*
X37633072Y19615000D01*
X37620812Y19739482D01*
X37584502Y19859180D01*
X37525537Y19969494D01*
X37446185Y20066185D01*
X37349494Y20145537D01*
X37239180Y20204502D01*
X37119482Y20240812D01*
X36995000Y20253072D01*
X36847865Y20253072D01*
X36809087Y20325620D01*
X36717238Y20437538D01*
X36689187Y20460559D01*
X36499500Y20650246D01*
X36499500Y22579047D01*
X36548777Y22652795D01*
X36615490Y22813855D01*
X36649500Y22984835D01*
X36649500Y23159165D01*
X36615490Y23330145D01*
X36567573Y23445827D01*
X38718893Y25597146D01*
X38746938Y25620162D01*
X38838787Y25732080D01*
X38850166Y25753368D01*
X38907037Y25859766D01*
X38949065Y25998315D01*
X38963256Y26142400D01*
X38959700Y26178505D01*
X38959700Y28265904D01*
X39090241Y28135363D01*
X39170000Y28082070D01*
X39170001Y20085029D01*
X39165960Y20044000D01*
X39182082Y19880312D01*
X39229828Y19722914D01*
X39307364Y19577855D01*
X39307365Y19577854D01*
X39411710Y19450709D01*
X39443574Y19424559D01*
X42158632Y16709500D01*
X41438691Y15989558D01*
X41403787Y16225130D01*
X41308603Y16491292D01*
X41241671Y16616514D01*
X40997702Y16688097D01*
X40184605Y15875000D01*
X40198748Y15860857D01*
X40019143Y15681252D01*
X40005000Y15695395D01*
X39191903Y14882298D01*
X39263486Y14638329D01*
X39292341Y14624676D01*
X39090241Y14489637D01*
X38890363Y14289759D01*
X38733320Y14054727D01*
X38625147Y13793574D01*
X38570000Y13516335D01*
X38570000Y13233665D01*
X38625147Y12956426D01*
X38733320Y12695273D01*
X38890363Y12460241D01*
X39090241Y12260363D01*
X39325273Y12103320D01*
X39586426Y11995147D01*
X39863665Y11940000D01*
X40146335Y11940000D01*
X40423574Y11995147D01*
X40684727Y12103320D01*
X40919759Y12260363D01*
X41119637Y12460241D01*
X41276680Y12695273D01*
X41384853Y12956426D01*
X41440000Y13233665D01*
X41440000Y13516335D01*
X41421285Y13610418D01*
X43083669Y15272801D01*
X43135273Y15238320D01*
X43396426Y15130147D01*
X43673665Y15075000D01*
X43956335Y15075000D01*
X44233574Y15130147D01*
X44494727Y15238320D01*
X44729759Y15395363D01*
X44929637Y15595241D01*
X45086680Y15830273D01*
X45194853Y16091426D01*
X45250000Y16368665D01*
X45250000Y16651335D01*
X45194853Y16928574D01*
X45086680Y17189727D01*
X44929637Y17424759D01*
X44729759Y17624637D01*
X44529131Y17758692D01*
X44556514Y17773329D01*
X44628097Y18017298D01*
X43815000Y18830395D01*
X43800858Y18816252D01*
X43621253Y18995857D01*
X43635395Y19010000D01*
X43994605Y19010000D01*
X44807702Y18196903D01*
X45051671Y18268486D01*
X45172571Y18523996D01*
X45241300Y18798184D01*
X45255217Y19080512D01*
X45213787Y19360130D01*
X45118603Y19626292D01*
X45051671Y19751514D01*
X44807702Y19823097D01*
X43994605Y19010000D01*
X43635395Y19010000D01*
X42822298Y19823097D01*
X42578329Y19751514D01*
X42457429Y19496004D01*
X42388700Y19221816D01*
X42374783Y18939488D01*
X42389464Y18840404D01*
X41227166Y20002702D01*
X43001903Y20002702D01*
X43815000Y19189605D01*
X44628097Y20002702D01*
X44556514Y20246671D01*
X44301004Y20367571D01*
X44026816Y20436300D01*
X43744488Y20450217D01*
X43464870Y20408787D01*
X43198708Y20313603D01*
X43073486Y20246671D01*
X43001903Y20002702D01*
X41227166Y20002702D01*
X40840000Y20389867D01*
X40840000Y28082070D01*
X40919759Y28135363D01*
X41119637Y28335241D01*
X41276680Y28570273D01*
X41384853Y28831426D01*
X41440000Y29108665D01*
X41440000Y29391335D01*
X41384853Y29668574D01*
X41276680Y29929727D01*
X41119637Y30164759D01*
X40919759Y30364637D01*
X40719131Y30498692D01*
X40746514Y30513329D01*
X40818097Y30757298D01*
X40005000Y31570395D01*
X39191903Y30757298D01*
X39263486Y30513329D01*
X39292341Y30499676D01*
X39090241Y30364637D01*
X38959700Y30234096D01*
X38959700Y30952336D01*
X39012298Y30936903D01*
X39825395Y31750000D01*
X40184605Y31750000D01*
X40997702Y30936903D01*
X41241671Y31008486D01*
X41362571Y31263996D01*
X41431300Y31538184D01*
X41445217Y31820512D01*
X41403787Y32100130D01*
X41308603Y32366292D01*
X41241671Y32491514D01*
X40997702Y32563097D01*
X40184605Y31750000D01*
X39825395Y31750000D01*
X39012298Y32563097D01*
X38959700Y32547664D01*
X38959700Y32742702D01*
X39191903Y32742702D01*
X40005000Y31929605D01*
X40818097Y32742702D01*
X40746514Y32986671D01*
X40491004Y33107571D01*
X40216816Y33176300D01*
X39934488Y33190217D01*
X39654870Y33148787D01*
X39388708Y33053603D01*
X39263486Y32986671D01*
X39191903Y32742702D01*
X38959700Y32742702D01*
X38959700Y44140904D01*
X39090241Y44010363D01*
X39325273Y43853320D01*
X39586426Y43745147D01*
X39863665Y43690000D01*
X40146335Y43690000D01*
X40423574Y43745147D01*
X40684727Y43853320D01*
X40919759Y44010363D01*
X41119637Y44210241D01*
X41276680Y44445273D01*
X41384853Y44706426D01*
X41440000Y44983665D01*
X41440000Y45266335D01*
X41421285Y45360418D01*
X48821433Y52760564D01*
X48853291Y52786709D01*
X48883761Y52823836D01*
X48957636Y52913854D01*
X49035172Y53058913D01*
X49082918Y53216311D01*
X49099040Y53380000D01*
X49095000Y53421018D01*
X49095000Y57183889D01*
X49279607Y57335392D01*
X49458932Y57553899D01*
X49530000Y57686858D01*
X49601068Y57553900D01*
X49780392Y57335393D01*
X49998899Y57156068D01*
X50248192Y57022818D01*
X50518691Y56940764D01*
X50800000Y56913057D01*
X51081308Y56940764D01*
X51351807Y57022818D01*
X51601100Y57156068D01*
X51819607Y57335392D01*
X51998932Y57553899D01*
X52132182Y57803192D01*
X52214236Y58073691D01*
X52235000Y58284508D01*
X52235000Y59225491D01*
X52214236Y59436309D01*
X52149415Y59650000D01*
X69011928Y59650000D01*
X69024188Y59525518D01*
X69060498Y59405820D01*
X69119463Y59295506D01*
X69198815Y59198815D01*
X69295506Y59119463D01*
X69405820Y59060498D01*
X69525518Y59024188D01*
X69650000Y59011928D01*
X70214250Y59015000D01*
X70373000Y59173750D01*
X70373000Y60373000D01*
X69173750Y60373000D01*
X69015000Y60214250D01*
X69011928Y59650000D01*
X52149415Y59650000D01*
X52132182Y59706808D01*
X51998932Y59956101D01*
X51819608Y60174608D01*
X51601101Y60353932D01*
X51351808Y60487182D01*
X51081309Y60569236D01*
X50800000Y60596943D01*
X50518692Y60569236D01*
X50248193Y60487182D01*
X49998900Y60353932D01*
X49780393Y60174608D01*
X49601068Y59956101D01*
X49530000Y59823142D01*
X49458932Y59956101D01*
X49279608Y60174608D01*
X49061101Y60353932D01*
X48811808Y60487182D01*
X48541309Y60569236D01*
X48260000Y60596943D01*
X47978692Y60569236D01*
X47708193Y60487182D01*
X47458900Y60353932D01*
X47240393Y60174608D01*
X47061068Y59956101D01*
X46990000Y59823142D01*
X46918932Y59956101D01*
X46739608Y60174608D01*
X46521101Y60353932D01*
X46271808Y60487182D01*
X46001309Y60569236D01*
X45720000Y60596943D01*
X45438692Y60569236D01*
X45168193Y60487182D01*
X44918900Y60353932D01*
X44700393Y60174608D01*
X44521068Y59956101D01*
X44450000Y59823142D01*
X44378932Y59956101D01*
X44199608Y60174608D01*
X43981101Y60353932D01*
X43744594Y60480348D01*
X44614246Y61350000D01*
X69011928Y61350000D01*
X69015000Y60785750D01*
X69173750Y60627000D01*
X70373000Y60627000D01*
X70373000Y61826250D01*
X70214250Y61985000D01*
X69650000Y61988072D01*
X69525518Y61975812D01*
X69405820Y61939502D01*
X69295506Y61880537D01*
X69198815Y61801185D01*
X69119463Y61704494D01*
X69060498Y61594180D01*
X69024188Y61474482D01*
X69011928Y61350000D01*
X44614246Y61350000D01*
X48175581Y64911335D01*
X53175000Y64911335D01*
X53175000Y64628665D01*
X53230147Y64351426D01*
X53338320Y64090273D01*
X53495363Y63855241D01*
X53695241Y63655363D01*
X53930273Y63498320D01*
X54191426Y63390147D01*
X54468665Y63335000D01*
X54751335Y63335000D01*
X55028574Y63390147D01*
X55289727Y63498320D01*
X55524759Y63655363D01*
X55724637Y63855241D01*
X55881680Y64090273D01*
X55989853Y64351426D01*
X56045000Y64628665D01*
X56045000Y64911335D01*
X55989853Y65188574D01*
X55881680Y65449727D01*
X55724637Y65684759D01*
X55524759Y65884637D01*
X55324131Y66018692D01*
X55351514Y66033329D01*
X55423097Y66277298D01*
X54610000Y67090395D01*
X53796903Y66277298D01*
X53868486Y66033329D01*
X53897341Y66019676D01*
X53695241Y65884637D01*
X53495363Y65684759D01*
X53338320Y65449727D01*
X53230147Y65188574D01*
X53175000Y64911335D01*
X48175581Y64911335D01*
X50463734Y67199488D01*
X53169783Y67199488D01*
X53211213Y66919870D01*
X53306397Y66653708D01*
X53373329Y66528486D01*
X53617298Y66456903D01*
X54430395Y67270000D01*
X54789605Y67270000D01*
X55602702Y66456903D01*
X55846671Y66528486D01*
X55967571Y66783996D01*
X56036300Y67058184D01*
X56050217Y67340512D01*
X56008787Y67620130D01*
X55913603Y67886292D01*
X55846671Y68011514D01*
X55602702Y68083097D01*
X54789605Y67270000D01*
X54430395Y67270000D01*
X53617298Y68083097D01*
X53373329Y68011514D01*
X53252429Y67756004D01*
X53183700Y67481816D01*
X53169783Y67199488D01*
X50463734Y67199488D01*
X51526948Y68262702D01*
X53796903Y68262702D01*
X54610000Y67449605D01*
X55423097Y68262702D01*
X55351514Y68506671D01*
X55096004Y68627571D01*
X54821816Y68696300D01*
X54539488Y68710217D01*
X54259870Y68668787D01*
X53993708Y68573603D01*
X53868486Y68506671D01*
X53796903Y68262702D01*
X51526948Y68262702D01*
X55604193Y72339946D01*
X55632238Y72362962D01*
X55724087Y72474880D01*
X55792337Y72602567D01*
X55834365Y72741115D01*
X55834446Y72741938D01*
X55848556Y72885199D01*
X55845000Y72921304D01*
X55845000Y94511928D01*
X55960000Y94511928D01*
X56084482Y94524188D01*
X56204180Y94560498D01*
X56314494Y94619463D01*
X56411185Y94698815D01*
X56490537Y94795506D01*
X56549502Y94905820D01*
X56571513Y94978380D01*
X56703368Y94846525D01*
X56946589Y94684010D01*
X57216842Y94572068D01*
X57503740Y94515000D01*
X57796260Y94515000D01*
X58083158Y94572068D01*
X58353411Y94684010D01*
X58596632Y94846525D01*
X58803475Y95053368D01*
X58920000Y95227760D01*
X59036525Y95053368D01*
X59243368Y94846525D01*
X59486589Y94684010D01*
X59756842Y94572068D01*
X60043740Y94515000D01*
X60336260Y94515000D01*
X60623158Y94572068D01*
X60893411Y94684010D01*
X61136632Y94846525D01*
X61343475Y95053368D01*
X61505990Y95296589D01*
X61617932Y95566842D01*
X61675000Y95853740D01*
X61675000Y96146260D01*
X61617932Y96433158D01*
X61521379Y96666260D01*
X65190000Y96666260D01*
X65190000Y96373740D01*
X65247068Y96086842D01*
X65359010Y95816589D01*
X65521525Y95573368D01*
X65728368Y95366525D01*
X65902760Y95250000D01*
X65728368Y95133475D01*
X65521525Y94926632D01*
X65359010Y94683411D01*
X65247068Y94413158D01*
X65190000Y94126260D01*
X65190000Y93833740D01*
X65247068Y93546842D01*
X65359010Y93276589D01*
X65521525Y93033368D01*
X65728368Y92826525D01*
X65971589Y92664010D01*
X66241842Y92552068D01*
X66528740Y92495000D01*
X66821260Y92495000D01*
X67108158Y92552068D01*
X67378411Y92664010D01*
X67621632Y92826525D01*
X67828475Y93033368D01*
X67990990Y93276589D01*
X68102932Y93546842D01*
X68160000Y93833740D01*
X68160000Y94126260D01*
X68102932Y94413158D01*
X67990990Y94683411D01*
X67828475Y94926632D01*
X67621632Y95133475D01*
X67447240Y95250000D01*
X67621632Y95366525D01*
X67828475Y95573368D01*
X67990990Y95816589D01*
X68102932Y96086842D01*
X68160000Y96373740D01*
X68160000Y96666260D01*
X85510000Y96666260D01*
X85510000Y96373740D01*
X85567068Y96086842D01*
X85679010Y95816589D01*
X85841525Y95573368D01*
X86048368Y95366525D01*
X86222760Y95250000D01*
X86048368Y95133475D01*
X85841525Y94926632D01*
X85679010Y94683411D01*
X85567068Y94413158D01*
X85510000Y94126260D01*
X85510000Y93833740D01*
X85567068Y93546842D01*
X85679010Y93276589D01*
X85841525Y93033368D01*
X86048368Y92826525D01*
X86291589Y92664010D01*
X86561842Y92552068D01*
X86848740Y92495000D01*
X87141260Y92495000D01*
X87428158Y92552068D01*
X87698411Y92664010D01*
X87941632Y92826525D01*
X88148475Y93033368D01*
X88310990Y93276589D01*
X88422932Y93546842D01*
X88480000Y93833740D01*
X88480000Y94126260D01*
X88422932Y94413158D01*
X88310990Y94683411D01*
X88148475Y94926632D01*
X87941632Y95133475D01*
X87811947Y95220128D01*
X92765000Y95220128D01*
X92765000Y94779872D01*
X92850890Y94348075D01*
X93019369Y93941331D01*
X93263962Y93575271D01*
X93575271Y93263962D01*
X93941331Y93019369D01*
X94348075Y92850890D01*
X94779872Y92765000D01*
X95220128Y92765000D01*
X95651925Y92850890D01*
X96058669Y93019369D01*
X96424729Y93263962D01*
X96736038Y93575271D01*
X96980631Y93941331D01*
X97149110Y94348075D01*
X97235000Y94779872D01*
X97235000Y95220128D01*
X97149110Y95651925D01*
X96980631Y96058669D01*
X96736038Y96424729D01*
X96424729Y96736038D01*
X96058669Y96980631D01*
X95651925Y97149110D01*
X95220128Y97235000D01*
X94779872Y97235000D01*
X94348075Y97149110D01*
X93941331Y96980631D01*
X93575271Y96736038D01*
X93263962Y96424729D01*
X93019369Y96058669D01*
X92850890Y95651925D01*
X92765000Y95220128D01*
X87811947Y95220128D01*
X87767240Y95250000D01*
X87941632Y95366525D01*
X88148475Y95573368D01*
X88310990Y95816589D01*
X88422932Y96086842D01*
X88480000Y96373740D01*
X88480000Y96666260D01*
X88422932Y96953158D01*
X88310990Y97223411D01*
X88148475Y97466632D01*
X87941632Y97673475D01*
X87698411Y97835990D01*
X87428158Y97947932D01*
X87141260Y98005000D01*
X86848740Y98005000D01*
X86561842Y97947932D01*
X86291589Y97835990D01*
X86048368Y97673475D01*
X85841525Y97466632D01*
X85679010Y97223411D01*
X85567068Y96953158D01*
X85510000Y96666260D01*
X68160000Y96666260D01*
X68102932Y96953158D01*
X67990990Y97223411D01*
X67828475Y97466632D01*
X67621632Y97673475D01*
X67378411Y97835990D01*
X67108158Y97947932D01*
X66821260Y98005000D01*
X66528740Y98005000D01*
X66241842Y97947932D01*
X65971589Y97835990D01*
X65728368Y97673475D01*
X65521525Y97466632D01*
X65359010Y97223411D01*
X65247068Y96953158D01*
X65190000Y96666260D01*
X61521379Y96666260D01*
X61505990Y96703411D01*
X61343475Y96946632D01*
X61136632Y97153475D01*
X60893411Y97315990D01*
X60623158Y97427932D01*
X60336260Y97485000D01*
X60043740Y97485000D01*
X59756842Y97427932D01*
X59486589Y97315990D01*
X59243368Y97153475D01*
X59036525Y96946632D01*
X58920000Y96772240D01*
X58803475Y96946632D01*
X58596632Y97153475D01*
X58353411Y97315990D01*
X58083158Y97427932D01*
X57796260Y97485000D01*
X57503740Y97485000D01*
X57216842Y97427932D01*
X56946589Y97315990D01*
X56703368Y97153475D01*
X56571513Y97021620D01*
X56549502Y97094180D01*
X56490537Y97204494D01*
X56411185Y97301185D01*
X56314494Y97380537D01*
X56204180Y97439502D01*
X56084482Y97475812D01*
X55960000Y97488072D01*
X54260000Y97488072D01*
X54135518Y97475812D01*
X54015820Y97439502D01*
X53905506Y97380537D01*
X53808815Y97301185D01*
X53729463Y97204494D01*
X53670498Y97094180D01*
X53634188Y96974482D01*
X53621928Y96850000D01*
X53621928Y95150000D01*
X53634188Y95025518D01*
X53670498Y94905820D01*
X53729463Y94795506D01*
X53808815Y94698815D01*
X53905506Y94619463D01*
X54015820Y94560498D01*
X54135518Y94524188D01*
X54260000Y94511928D01*
X54375000Y94511928D01*
X54375001Y73189648D01*
X41495029Y60309675D01*
X41441101Y60353932D01*
X41191808Y60487182D01*
X40921309Y60569236D01*
X40640000Y60596943D01*
X40358692Y60569236D01*
X40088193Y60487182D01*
X39944300Y60410270D01*
X39944300Y71349304D01*
X39947855Y71385401D01*
X39944300Y71421498D01*
X39944300Y71421505D01*
X39933665Y71529485D01*
X39891637Y71668033D01*
X39823387Y71795720D01*
X39731538Y71907638D01*
X39703493Y71930654D01*
X39086184Y72547962D01*
X39119607Y72575392D01*
X39298932Y72793899D01*
X39370000Y72926858D01*
X39441068Y72793900D01*
X39620392Y72575393D01*
X39838899Y72396068D01*
X40088192Y72262818D01*
X40358691Y72180764D01*
X40640000Y72153057D01*
X40921308Y72180764D01*
X41191807Y72262818D01*
X41441100Y72396068D01*
X41659607Y72575392D01*
X41838932Y72793899D01*
X41910000Y72926858D01*
X41981068Y72793900D01*
X42160392Y72575393D01*
X42378899Y72396068D01*
X42628192Y72262818D01*
X42898691Y72180764D01*
X43180000Y72153057D01*
X43461308Y72180764D01*
X43731807Y72262818D01*
X43981100Y72396068D01*
X44199607Y72575392D01*
X44378932Y72793899D01*
X44450000Y72926858D01*
X44521068Y72793900D01*
X44700392Y72575393D01*
X44918899Y72396068D01*
X45168192Y72262818D01*
X45438691Y72180764D01*
X45720000Y72153057D01*
X46001308Y72180764D01*
X46271807Y72262818D01*
X46521100Y72396068D01*
X46739607Y72575392D01*
X46918932Y72793899D01*
X46990000Y72926858D01*
X47061068Y72793900D01*
X47240392Y72575393D01*
X47458899Y72396068D01*
X47708192Y72262818D01*
X47978691Y72180764D01*
X48260000Y72153057D01*
X48541308Y72180764D01*
X48811807Y72262818D01*
X49061100Y72396068D01*
X49279607Y72575392D01*
X49372419Y72688483D01*
X49374188Y72670518D01*
X49410498Y72550820D01*
X49469463Y72440506D01*
X49548815Y72343815D01*
X49645506Y72264463D01*
X49755820Y72205498D01*
X49875518Y72169188D01*
X50000000Y72156928D01*
X51600000Y72156928D01*
X51724482Y72169188D01*
X51844180Y72205498D01*
X51954494Y72264463D01*
X52051185Y72343815D01*
X52130537Y72440506D01*
X52189502Y72550820D01*
X52225812Y72670518D01*
X52238072Y72795000D01*
X52238072Y75195000D01*
X52225812Y75319482D01*
X52189502Y75439180D01*
X52130537Y75549494D01*
X52051185Y75646185D01*
X51954494Y75725537D01*
X51844180Y75784502D01*
X51724482Y75820812D01*
X51600000Y75833072D01*
X50000000Y75833072D01*
X49875518Y75820812D01*
X49755820Y75784502D01*
X49645506Y75725537D01*
X49548815Y75646185D01*
X49469463Y75549494D01*
X49410498Y75439180D01*
X49374188Y75319482D01*
X49372419Y75301518D01*
X49279608Y75414608D01*
X49061101Y75593932D01*
X48984826Y75634702D01*
X48984365Y75639385D01*
X48942337Y75777933D01*
X48874087Y75905620D01*
X48782238Y76017538D01*
X48754193Y76040554D01*
X47575000Y77219746D01*
X47575000Y94590117D01*
X47786632Y94731525D01*
X47993475Y94938368D01*
X48110000Y95112760D01*
X48226525Y94938368D01*
X48433368Y94731525D01*
X48676589Y94569010D01*
X48946842Y94457068D01*
X49233740Y94400000D01*
X49526260Y94400000D01*
X49813158Y94457068D01*
X50083411Y94569010D01*
X50326632Y94731525D01*
X50533475Y94938368D01*
X50695990Y95181589D01*
X50807932Y95451842D01*
X50865000Y95738740D01*
X50865000Y96031260D01*
X50807932Y96318158D01*
X50695990Y96588411D01*
X50533475Y96831632D01*
X50326632Y97038475D01*
X50083411Y97200990D01*
X49813158Y97312932D01*
X49526260Y97370000D01*
X49233740Y97370000D01*
X48946842Y97312932D01*
X48676589Y97200990D01*
X48433368Y97038475D01*
X48226525Y96831632D01*
X48110000Y96657240D01*
X47993475Y96831632D01*
X47786632Y97038475D01*
X47543411Y97200990D01*
X47273158Y97312932D01*
X46986260Y97370000D01*
X46693740Y97370000D01*
X46406842Y97312932D01*
X46136589Y97200990D01*
X45893368Y97038475D01*
X45761513Y96906620D01*
X45739502Y96979180D01*
X45680537Y97089494D01*
X45601185Y97186185D01*
X45504494Y97265537D01*
X45394180Y97324502D01*
X45274482Y97360812D01*
X45150000Y97373072D01*
X44585750Y97370000D01*
X44427000Y97211250D01*
X44427000Y96012000D01*
X44447000Y96012000D01*
X44447000Y95758000D01*
X44427000Y95758000D01*
X44427000Y94558750D01*
X44585750Y94400000D01*
X45150000Y94396928D01*
X45274482Y94409188D01*
X45394180Y94445498D01*
X45504494Y94504463D01*
X45601185Y94583815D01*
X45680537Y94680506D01*
X45739502Y94790820D01*
X45761513Y94863380D01*
X45893368Y94731525D01*
X46105000Y94590117D01*
X46105001Y76951415D01*
X46101444Y76915300D01*
X46115635Y76771215D01*
X46152406Y76650000D01*
X46157664Y76632667D01*
X46225914Y76504980D01*
X46317763Y76393062D01*
X46345808Y76370046D01*
X47273816Y75442037D01*
X47240393Y75414608D01*
X47061068Y75196101D01*
X46990000Y75063142D01*
X46918932Y75196101D01*
X46739608Y75414608D01*
X46521101Y75593932D01*
X46444826Y75634702D01*
X46444365Y75639385D01*
X46402337Y75777934D01*
X46334087Y75905620D01*
X46265253Y75989494D01*
X46242238Y76017538D01*
X46214193Y76040554D01*
X45011558Y77243188D01*
X44988538Y77271238D01*
X44876620Y77363087D01*
X44748933Y77431337D01*
X44610385Y77473365D01*
X44502405Y77484000D01*
X44466300Y77487556D01*
X44430195Y77484000D01*
X18028594Y77484000D01*
X17992499Y77487555D01*
X17956404Y77484000D01*
X17956395Y77484000D01*
X17848415Y77473365D01*
X17709867Y77431337D01*
X17582180Y77363087D01*
X17470262Y77271238D01*
X17447246Y77243193D01*
X12942612Y72738558D01*
X12939838Y72741938D01*
X12911793Y72764954D01*
X9380782Y76295964D01*
X9439502Y76405820D01*
X9475812Y76525518D01*
X9488072Y76650000D01*
X9488072Y78350000D01*
X9475812Y78474482D01*
X9439502Y78594180D01*
X9380537Y78704494D01*
X9301185Y78801185D01*
X9204494Y78880537D01*
X9094180Y78939502D01*
X8974482Y78975812D01*
X8850000Y78988072D01*
X7150000Y78988072D01*
X7025518Y78975812D01*
X6905820Y78939502D01*
X6795506Y78880537D01*
X6698815Y78801185D01*
X6619463Y78704494D01*
X6560498Y78594180D01*
X6538487Y78521620D01*
X6406632Y78653475D01*
X6163411Y78815990D01*
X5893158Y78927932D01*
X5606260Y78985000D01*
X5313740Y78985000D01*
X5026842Y78927932D01*
X4756589Y78815990D01*
X4513368Y78653475D01*
X4306525Y78446632D01*
X4144010Y78203411D01*
X4032068Y77933158D01*
X3975000Y77646260D01*
X3975000Y77353740D01*
X4032068Y77066842D01*
X4144010Y76796589D01*
X4306525Y76553368D01*
X4513368Y76346525D01*
X4687760Y76230000D01*
X4513368Y76113475D01*
X4306525Y75906632D01*
X4144010Y75663411D01*
X4032068Y75393158D01*
X3975000Y75106260D01*
X3975000Y74813740D01*
X4032068Y74526842D01*
X4144010Y74256589D01*
X4306525Y74013368D01*
X4513368Y73806525D01*
X4695534Y73684805D01*
X4578645Y73615178D01*
X4362412Y73420269D01*
X4188359Y73186920D01*
X4063175Y72924099D01*
X4018524Y72776890D01*
X4139845Y72547000D01*
X5333000Y72547000D01*
X5333000Y72567000D01*
X5587000Y72567000D01*
X5587000Y72547000D01*
X5607000Y72547000D01*
X5607000Y72293000D01*
X5587000Y72293000D01*
X5587000Y72273000D01*
X5333000Y72273000D01*
X5333000Y72293000D01*
X4139845Y72293000D01*
X4018524Y72063110D01*
X4063175Y71915901D01*
X4188359Y71653080D01*
X4362412Y71419731D01*
X4578645Y71224822D01*
X4695534Y71155195D01*
X4513368Y71033475D01*
X4306525Y70826632D01*
X4144010Y70583411D01*
X4032068Y70313158D01*
X3975000Y70026260D01*
X3975000Y69733740D01*
X4032068Y69446842D01*
X4144010Y69176589D01*
X4306525Y68933368D01*
X4513368Y68726525D01*
X4695534Y68604805D01*
X4578645Y68535178D01*
X4362412Y68340269D01*
X4188359Y68106920D01*
X4063175Y67844099D01*
X4018524Y67696890D01*
X4139845Y67467000D01*
X5333000Y67467000D01*
X5333000Y67487000D01*
X5587000Y67487000D01*
X5587000Y67467000D01*
X5607000Y67467000D01*
X5607000Y67213000D01*
X5587000Y67213000D01*
X5587000Y67193000D01*
X5333000Y67193000D01*
X5333000Y67213000D01*
X4139845Y67213000D01*
X4018524Y66983110D01*
X4063175Y66835901D01*
X4188359Y66573080D01*
X4362412Y66339731D01*
X4578645Y66144822D01*
X4695534Y66075195D01*
X4513368Y65953475D01*
X4306525Y65746632D01*
X4144010Y65503411D01*
X4032068Y65233158D01*
X3975000Y64946260D01*
X3975000Y64653740D01*
X4032068Y64366842D01*
X4144010Y64096589D01*
X4306525Y63853368D01*
X4513368Y63646525D01*
X4695534Y63524805D01*
X4578645Y63455178D01*
X4362412Y63260269D01*
X4188359Y63026920D01*
X4063175Y62764099D01*
X4018524Y62616890D01*
X4139845Y62387000D01*
X5333000Y62387000D01*
X5333000Y62407000D01*
X5587000Y62407000D01*
X5587000Y62387000D01*
X5607000Y62387000D01*
X5607000Y62133000D01*
X5587000Y62133000D01*
X5587000Y62113000D01*
X5333000Y62113000D01*
X5333000Y62133000D01*
X4139845Y62133000D01*
X4018524Y61903110D01*
X4063175Y61755901D01*
X4188359Y61493080D01*
X4362412Y61259731D01*
X4578645Y61064822D01*
X4695534Y60995195D01*
X4513368Y60873475D01*
X4306525Y60666632D01*
X4144010Y60423411D01*
X4032068Y60153158D01*
X3975000Y59866260D01*
X3975000Y59573740D01*
X4032068Y59286842D01*
X4144010Y59016589D01*
X4306525Y58773368D01*
X4513368Y58566525D01*
X4695534Y58444805D01*
X4578645Y58375178D01*
X4362412Y58180269D01*
X4188359Y57946920D01*
X4063175Y57684099D01*
X4018524Y57536890D01*
X4139845Y57307000D01*
X5333000Y57307000D01*
X5333000Y57327000D01*
X5587000Y57327000D01*
X5587000Y57307000D01*
X5607000Y57307000D01*
X5607000Y57053000D01*
X5587000Y57053000D01*
X5587000Y57033000D01*
X5333000Y57033000D01*
X5333000Y57053000D01*
X4139845Y57053000D01*
X4018524Y56823110D01*
X4063175Y56675901D01*
X4188359Y56413080D01*
X4362412Y56179731D01*
X4578645Y55984822D01*
X4695534Y55915195D01*
X4513368Y55793475D01*
X4306525Y55586632D01*
X4144010Y55343411D01*
X4032068Y55073158D01*
X3975000Y54786260D01*
X3975000Y54493740D01*
X4032068Y54206842D01*
X4144010Y53936589D01*
X4306525Y53693368D01*
X4346173Y53653720D01*
X2670808Y51978354D01*
X2642762Y51955337D01*
X2550913Y51843419D01*
X2482663Y51715732D01*
X2467365Y51665300D01*
X2440635Y51577185D01*
X2426444Y51433100D01*
X660000Y51433100D01*
X660000Y82677298D01*
X36406903Y82677298D01*
X36478486Y82433329D01*
X36733996Y82312429D01*
X37008184Y82243700D01*
X37290512Y82229783D01*
X37570130Y82271213D01*
X37836292Y82366397D01*
X37961514Y82433329D01*
X38033097Y82677298D01*
X37220000Y83490395D01*
X36406903Y82677298D01*
X660000Y82677298D01*
X660000Y86575000D01*
X8671928Y86575000D01*
X8671928Y84875000D01*
X8684188Y84750518D01*
X8720498Y84630820D01*
X8779463Y84520506D01*
X8858815Y84423815D01*
X8955506Y84344463D01*
X9065820Y84285498D01*
X9185518Y84249188D01*
X9310000Y84236928D01*
X11010000Y84236928D01*
X11134482Y84249188D01*
X11254180Y84285498D01*
X11364494Y84344463D01*
X11461185Y84423815D01*
X11540537Y84520506D01*
X11599502Y84630820D01*
X11635812Y84750518D01*
X11648072Y84875000D01*
X11648072Y86575000D01*
X11635812Y86699482D01*
X11599502Y86819180D01*
X11540537Y86929494D01*
X11461185Y87026185D01*
X11364494Y87105537D01*
X11254180Y87164502D01*
X11181620Y87186513D01*
X11313475Y87318368D01*
X11475990Y87561589D01*
X11587932Y87831842D01*
X11645000Y88118740D01*
X11645000Y88411260D01*
X11587932Y88698158D01*
X11477403Y88965000D01*
X16406928Y88965000D01*
X16406928Y87215000D01*
X16436001Y86919814D01*
X16522104Y86635972D01*
X16661927Y86374382D01*
X16850097Y86145097D01*
X17079382Y85956927D01*
X17340972Y85817104D01*
X17624814Y85731001D01*
X17920000Y85701928D01*
X19670000Y85701928D01*
X19965186Y85731001D01*
X20249028Y85817104D01*
X20510618Y85956927D01*
X20739903Y86145097D01*
X20928073Y86374382D01*
X21067896Y86635972D01*
X21106928Y86764643D01*
X21106928Y83340000D01*
X21119188Y83215518D01*
X21155498Y83095820D01*
X21214463Y82985506D01*
X21293815Y82888815D01*
X21390506Y82809463D01*
X21500820Y82750498D01*
X21620518Y82714188D01*
X21745000Y82701928D01*
X25245000Y82701928D01*
X25369482Y82714188D01*
X25489180Y82750498D01*
X25599494Y82809463D01*
X25696185Y82888815D01*
X25775537Y82985506D01*
X25834502Y83095820D01*
X25870812Y83215518D01*
X25883072Y83340000D01*
X25883072Y83599488D01*
X35779783Y83599488D01*
X35821213Y83319870D01*
X35916397Y83053708D01*
X35983329Y82928486D01*
X36227298Y82856903D01*
X37040395Y83670000D01*
X37399605Y83670000D01*
X38212702Y82856903D01*
X38456671Y82928486D01*
X38577571Y83183996D01*
X38646300Y83458184D01*
X38660217Y83740512D01*
X38618787Y84020130D01*
X38523603Y84286292D01*
X38456671Y84411514D01*
X38212702Y84483097D01*
X37399605Y83670000D01*
X37040395Y83670000D01*
X36227298Y84483097D01*
X35983329Y84411514D01*
X35862429Y84156004D01*
X35793700Y83881816D01*
X35779783Y83599488D01*
X25883072Y83599488D01*
X25883072Y84355000D01*
X26716195Y84355000D01*
X26752300Y84351444D01*
X26788405Y84355000D01*
X26896385Y84365635D01*
X27034933Y84407663D01*
X27162620Y84475913D01*
X27274538Y84567762D01*
X27297559Y84595813D01*
X29671746Y86970000D01*
X35781928Y86970000D01*
X35781928Y85370000D01*
X35794188Y85245518D01*
X35830498Y85125820D01*
X35889463Y85015506D01*
X35968815Y84918815D01*
X36065506Y84839463D01*
X36175820Y84780498D01*
X36295518Y84744188D01*
X36420000Y84731928D01*
X36427215Y84731928D01*
X36406903Y84662702D01*
X37220000Y83849605D01*
X38033097Y84662702D01*
X38012785Y84731928D01*
X38020000Y84731928D01*
X38144482Y84744188D01*
X38264180Y84780498D01*
X38374494Y84839463D01*
X38471185Y84918815D01*
X38550537Y85015506D01*
X38609502Y85125820D01*
X38645812Y85245518D01*
X38658072Y85370000D01*
X38658072Y86970000D01*
X38645812Y87094482D01*
X38609502Y87214180D01*
X38550537Y87324494D01*
X38471185Y87421185D01*
X38374494Y87500537D01*
X38264180Y87559502D01*
X38144482Y87595812D01*
X38020000Y87608072D01*
X36420000Y87608072D01*
X36295518Y87595812D01*
X36175820Y87559502D01*
X36065506Y87500537D01*
X35968815Y87421185D01*
X35889463Y87324494D01*
X35830498Y87214180D01*
X35794188Y87094482D01*
X35781928Y86970000D01*
X29671746Y86970000D01*
X37448320Y94746573D01*
X37463368Y94731525D01*
X37706589Y94569010D01*
X37976842Y94457068D01*
X38263740Y94400000D01*
X38556260Y94400000D01*
X38843158Y94457068D01*
X39113411Y94569010D01*
X39356632Y94731525D01*
X39563475Y94938368D01*
X39628042Y95035000D01*
X42811928Y95035000D01*
X42824188Y94910518D01*
X42860498Y94790820D01*
X42919463Y94680506D01*
X42998815Y94583815D01*
X43095506Y94504463D01*
X43205820Y94445498D01*
X43325518Y94409188D01*
X43450000Y94396928D01*
X44014250Y94400000D01*
X44173000Y94558750D01*
X44173000Y95758000D01*
X42973750Y95758000D01*
X42815000Y95599250D01*
X42811928Y95035000D01*
X39628042Y95035000D01*
X39725990Y95181589D01*
X39837932Y95451842D01*
X39895000Y95738740D01*
X39895000Y96031260D01*
X39837932Y96318158D01*
X39725990Y96588411D01*
X39628043Y96735000D01*
X42811928Y96735000D01*
X42815000Y96170750D01*
X42973750Y96012000D01*
X44173000Y96012000D01*
X44173000Y97211250D01*
X44014250Y97370000D01*
X43450000Y97373072D01*
X43325518Y97360812D01*
X43205820Y97324502D01*
X43095506Y97265537D01*
X42998815Y97186185D01*
X42919463Y97089494D01*
X42860498Y96979180D01*
X42824188Y96859482D01*
X42811928Y96735000D01*
X39628043Y96735000D01*
X39563475Y96831632D01*
X39356632Y97038475D01*
X39113411Y97200990D01*
X38843158Y97312932D01*
X38556260Y97370000D01*
X38263740Y97370000D01*
X37976842Y97312932D01*
X37706589Y97200990D01*
X37463368Y97038475D01*
X37256525Y96831632D01*
X37140000Y96657240D01*
X37023475Y96831632D01*
X36816632Y97038475D01*
X36573411Y97200990D01*
X36303158Y97312932D01*
X36016260Y97370000D01*
X35723740Y97370000D01*
X35436842Y97312932D01*
X35166589Y97200990D01*
X34923368Y97038475D01*
X34791513Y96906620D01*
X34769502Y96979180D01*
X34710537Y97089494D01*
X34631185Y97186185D01*
X34534494Y97265537D01*
X34424180Y97324502D01*
X34304482Y97360812D01*
X34180000Y97373072D01*
X32480000Y97373072D01*
X32355518Y97360812D01*
X32235820Y97324502D01*
X32125506Y97265537D01*
X32028815Y97186185D01*
X31949463Y97089494D01*
X31890498Y96979180D01*
X31854188Y96859482D01*
X31841928Y96735000D01*
X31841928Y95035000D01*
X31854188Y94910518D01*
X31890498Y94790820D01*
X31949463Y94680506D01*
X32028815Y94583815D01*
X32125506Y94504463D01*
X32235820Y94445498D01*
X32355518Y94409188D01*
X32480000Y94396928D01*
X34180000Y94396928D01*
X34304482Y94409188D01*
X34424180Y94445498D01*
X34534494Y94504463D01*
X34631185Y94583815D01*
X34710537Y94680506D01*
X34769502Y94790820D01*
X34791513Y94863380D01*
X34923368Y94731525D01*
X35166589Y94569010D01*
X35184461Y94561607D01*
X26447854Y85825000D01*
X25883072Y85825000D01*
X25883072Y86840000D01*
X25870812Y86964482D01*
X25834502Y87084180D01*
X25775537Y87194494D01*
X25696185Y87291185D01*
X25599494Y87370537D01*
X25489180Y87429502D01*
X25369482Y87465812D01*
X25245000Y87478072D01*
X21745000Y87478072D01*
X21620518Y87465812D01*
X21500820Y87429502D01*
X21390506Y87370537D01*
X21293815Y87291185D01*
X21214463Y87194494D01*
X21173506Y87117869D01*
X21183072Y87215000D01*
X21183072Y88965000D01*
X21153999Y89260186D01*
X21067896Y89544028D01*
X21043324Y89590000D01*
X21106928Y89590000D01*
X21119188Y89465518D01*
X21155498Y89345820D01*
X21214463Y89235506D01*
X21293815Y89138815D01*
X21390506Y89059463D01*
X21500820Y89000498D01*
X21620518Y88964188D01*
X21745000Y88951928D01*
X23209250Y88955000D01*
X23368000Y89113750D01*
X23368000Y90963000D01*
X23622000Y90963000D01*
X23622000Y89113750D01*
X23780750Y88955000D01*
X25245000Y88951928D01*
X25369482Y88964188D01*
X25489180Y89000498D01*
X25599494Y89059463D01*
X25696185Y89138815D01*
X25775537Y89235506D01*
X25834502Y89345820D01*
X25870812Y89465518D01*
X25883072Y89590000D01*
X25880000Y90804250D01*
X25721250Y90963000D01*
X23622000Y90963000D01*
X23368000Y90963000D01*
X21268750Y90963000D01*
X21110000Y90804250D01*
X21106928Y89590000D01*
X21043324Y89590000D01*
X20928073Y89805618D01*
X20739903Y90034903D01*
X20510618Y90223073D01*
X20249028Y90362896D01*
X19965186Y90448999D01*
X19670000Y90478072D01*
X17920000Y90478072D01*
X17624814Y90448999D01*
X17340972Y90362896D01*
X17079382Y90223073D01*
X16850097Y90034903D01*
X16661927Y89805618D01*
X16522104Y89544028D01*
X16436001Y89260186D01*
X16406928Y88965000D01*
X11477403Y88965000D01*
X11475990Y88968411D01*
X11313475Y89211632D01*
X11106632Y89418475D01*
X10863411Y89580990D01*
X10593158Y89692932D01*
X10306260Y89750000D01*
X10013740Y89750000D01*
X9726842Y89692932D01*
X9456589Y89580990D01*
X9213368Y89418475D01*
X9006525Y89211632D01*
X8844010Y88968411D01*
X8732068Y88698158D01*
X8675000Y88411260D01*
X8675000Y88118740D01*
X8732068Y87831842D01*
X8844010Y87561589D01*
X9006525Y87318368D01*
X9138380Y87186513D01*
X9065820Y87164502D01*
X8955506Y87105537D01*
X8858815Y87026185D01*
X8779463Y86929494D01*
X8720498Y86819180D01*
X8684188Y86699482D01*
X8671928Y86575000D01*
X660000Y86575000D01*
X660000Y92590000D01*
X21106928Y92590000D01*
X21110000Y91375750D01*
X21268750Y91217000D01*
X23368000Y91217000D01*
X23368000Y93066250D01*
X23622000Y93066250D01*
X23622000Y91217000D01*
X25721250Y91217000D01*
X25880000Y91375750D01*
X25883072Y92590000D01*
X25870812Y92714482D01*
X25834502Y92834180D01*
X25775537Y92944494D01*
X25696185Y93041185D01*
X25599494Y93120537D01*
X25489180Y93179502D01*
X25369482Y93215812D01*
X25245000Y93228072D01*
X23780750Y93225000D01*
X23622000Y93066250D01*
X23368000Y93066250D01*
X23209250Y93225000D01*
X21745000Y93228072D01*
X21620518Y93215812D01*
X21500820Y93179502D01*
X21390506Y93120537D01*
X21293815Y93041185D01*
X21214463Y92944494D01*
X21155498Y92834180D01*
X21119188Y92714482D01*
X21106928Y92590000D01*
X660000Y92590000D01*
X660000Y95220128D01*
X2765000Y95220128D01*
X2765000Y94779872D01*
X2850890Y94348075D01*
X3019369Y93941331D01*
X3263962Y93575271D01*
X3575271Y93263962D01*
X3941331Y93019369D01*
X4348075Y92850890D01*
X4779872Y92765000D01*
X5220128Y92765000D01*
X5651925Y92850890D01*
X6058669Y93019369D01*
X6424729Y93263962D01*
X6736038Y93575271D01*
X6980631Y93941331D01*
X7149110Y94348075D01*
X7235000Y94779872D01*
X7235000Y95220128D01*
X7149110Y95651925D01*
X6980631Y96058669D01*
X6736038Y96424729D01*
X6424729Y96736038D01*
X6058669Y96980631D01*
X5651925Y97149110D01*
X5220128Y97235000D01*
X4779872Y97235000D01*
X4348075Y97149110D01*
X3941331Y96980631D01*
X3575271Y96736038D01*
X3263962Y96424729D01*
X3019369Y96058669D01*
X2850890Y95651925D01*
X2765000Y95220128D01*
X660000Y95220128D01*
X660000Y99340000D01*
X99340001Y99340000D01*
X99340000Y660000D01*
G04 #@! TA.AperFunction,Conductor*
D22*
G36*
X99340000Y660000D02*
G01*
X660000Y660000D01*
X660000Y5220128D01*
X2765000Y5220128D01*
X2765000Y4779872D01*
X2850890Y4348075D01*
X3019369Y3941331D01*
X3263962Y3575271D01*
X3575271Y3263962D01*
X3941331Y3019369D01*
X4348075Y2850890D01*
X4779872Y2765000D01*
X5220128Y2765000D01*
X5651925Y2850890D01*
X6058669Y3019369D01*
X6424729Y3263962D01*
X6736038Y3575271D01*
X6980631Y3941331D01*
X7149110Y4348075D01*
X7235000Y4779872D01*
X7235000Y5220128D01*
X92765000Y5220128D01*
X92765000Y4779872D01*
X92850890Y4348075D01*
X93019369Y3941331D01*
X93263962Y3575271D01*
X93575271Y3263962D01*
X93941331Y3019369D01*
X94348075Y2850890D01*
X94779872Y2765000D01*
X95220128Y2765000D01*
X95651925Y2850890D01*
X96058669Y3019369D01*
X96424729Y3263962D01*
X96736038Y3575271D01*
X96980631Y3941331D01*
X97149110Y4348075D01*
X97235000Y4779872D01*
X97235000Y5220128D01*
X97149110Y5651925D01*
X96980631Y6058669D01*
X96736038Y6424729D01*
X96424729Y6736038D01*
X96058669Y6980631D01*
X95651925Y7149110D01*
X95220128Y7235000D01*
X94779872Y7235000D01*
X94348075Y7149110D01*
X93941331Y6980631D01*
X93575271Y6736038D01*
X93263962Y6424729D01*
X93019369Y6058669D01*
X92850890Y5651925D01*
X92765000Y5220128D01*
X7235000Y5220128D01*
X7149110Y5651925D01*
X6980631Y6058669D01*
X6736038Y6424729D01*
X6424729Y6736038D01*
X6058669Y6980631D01*
X5651925Y7149110D01*
X5220128Y7235000D01*
X4779872Y7235000D01*
X4348075Y7149110D01*
X3941331Y6980631D01*
X3575271Y6736038D01*
X3263962Y6424729D01*
X3019369Y6058669D01*
X2850890Y5651925D01*
X2765000Y5220128D01*
X660000Y5220128D01*
X660000Y51433100D01*
X2426444Y51433100D01*
X2430000Y51396995D01*
X2430001Y17227515D01*
X2426444Y17191400D01*
X2440635Y17047315D01*
X2480864Y16914700D01*
X2482664Y16908767D01*
X2550914Y16781080D01*
X2642763Y16669162D01*
X2670808Y16646146D01*
X10926646Y8390307D01*
X10949662Y8362262D01*
X10977706Y8339247D01*
X11061580Y8270413D01*
X11189266Y8202163D01*
X11327815Y8160135D01*
X11471900Y8145944D01*
X11508005Y8149500D01*
X85278695Y8149500D01*
X85314800Y8145944D01*
X85350905Y8149500D01*
X85458885Y8160135D01*
X85597433Y8202163D01*
X85725120Y8270413D01*
X85837038Y8362262D01*
X85860059Y8390313D01*
X86219187Y8749441D01*
X86247238Y8772462D01*
X86339087Y8884380D01*
X86407337Y9012067D01*
X86449365Y9150615D01*
X86449826Y9155299D01*
X86526100Y9196068D01*
X86744607Y9375392D01*
X86923932Y9593899D01*
X86995000Y9726858D01*
X87066068Y9593900D01*
X87245392Y9375393D01*
X87463899Y9196068D01*
X87713192Y9062818D01*
X87983691Y8980764D01*
X88265000Y8953057D01*
X88546308Y8980764D01*
X88816807Y9062818D01*
X89066100Y9196068D01*
X89284607Y9375392D01*
X89463932Y9593899D01*
X89535000Y9726858D01*
X89606068Y9593900D01*
X89785392Y9375393D01*
X90003899Y9196068D01*
X90253192Y9062818D01*
X90523691Y8980764D01*
X90805000Y8953057D01*
X91086308Y8980764D01*
X91356807Y9062818D01*
X91606100Y9196068D01*
X91824607Y9375392D01*
X92003932Y9593899D01*
X92075000Y9726858D01*
X92146068Y9593900D01*
X92325392Y9375393D01*
X92543899Y9196068D01*
X92793192Y9062818D01*
X93063691Y8980764D01*
X93345000Y8953057D01*
X93626308Y8980764D01*
X93896807Y9062818D01*
X94146100Y9196068D01*
X94364607Y9375392D01*
X94543932Y9593899D01*
X94615000Y9726858D01*
X94686068Y9593900D01*
X94865392Y9375393D01*
X95083899Y9196068D01*
X95333192Y9062818D01*
X95603691Y8980764D01*
X95885000Y8953057D01*
X96166308Y8980764D01*
X96436807Y9062818D01*
X96686100Y9196068D01*
X96904607Y9375392D01*
X97083932Y9593899D01*
X97217182Y9843192D01*
X97299236Y10113691D01*
X97320000Y10324508D01*
X97320000Y11265491D01*
X97299236Y11476309D01*
X97217182Y11746808D01*
X97083932Y11996101D01*
X96904608Y12214608D01*
X96686101Y12393932D01*
X96436808Y12527182D01*
X96166309Y12609236D01*
X95885000Y12636943D01*
X95603692Y12609236D01*
X95333193Y12527182D01*
X95083900Y12393932D01*
X94865393Y12214608D01*
X94686068Y11996101D01*
X94615000Y11863142D01*
X94543932Y11996101D01*
X94364608Y12214608D01*
X94146101Y12393932D01*
X93896808Y12527182D01*
X93626309Y12609236D01*
X93345000Y12636943D01*
X93063692Y12609236D01*
X92793193Y12527182D01*
X92543900Y12393932D01*
X92325393Y12214608D01*
X92146068Y11996101D01*
X92075000Y11863142D01*
X92003932Y11996101D01*
X91824608Y12214608D01*
X91606101Y12393932D01*
X91356808Y12527182D01*
X91086309Y12609236D01*
X90805000Y12636943D01*
X90523692Y12609236D01*
X90253193Y12527182D01*
X90003900Y12393932D01*
X89785393Y12214608D01*
X89606068Y11996101D01*
X89535000Y11863142D01*
X89463932Y11996101D01*
X89284608Y12214608D01*
X89066101Y12393932D01*
X88816808Y12527182D01*
X88546309Y12609236D01*
X88265000Y12636943D01*
X87983692Y12609236D01*
X87713193Y12527182D01*
X87463900Y12393932D01*
X87245393Y12214608D01*
X87066068Y11996101D01*
X86995000Y11863142D01*
X86923932Y11996101D01*
X86744608Y12214608D01*
X86526101Y12393932D01*
X86276808Y12527182D01*
X86006309Y12609236D01*
X85725000Y12636943D01*
X85443692Y12609236D01*
X85173193Y12527182D01*
X84923900Y12393932D01*
X84705393Y12214608D01*
X84526068Y11996101D01*
X84455000Y11863142D01*
X84383932Y11996101D01*
X84204608Y12214608D01*
X83986101Y12393932D01*
X83736808Y12527182D01*
X83466309Y12609236D01*
X83185000Y12636943D01*
X82903692Y12609236D01*
X82633193Y12527182D01*
X82383900Y12393932D01*
X82165393Y12214608D01*
X81986068Y11996101D01*
X81915000Y11863142D01*
X81843932Y11996101D01*
X81664608Y12214608D01*
X81446101Y12393932D01*
X81196808Y12527182D01*
X80926309Y12609236D01*
X80645000Y12636943D01*
X80363692Y12609236D01*
X80093193Y12527182D01*
X79843900Y12393932D01*
X79625393Y12214608D01*
X79446068Y11996101D01*
X79375000Y11863142D01*
X79303932Y11996101D01*
X79124608Y12214608D01*
X78906101Y12393932D01*
X78656808Y12527182D01*
X78386309Y12609236D01*
X78105000Y12636943D01*
X77823692Y12609236D01*
X77553193Y12527182D01*
X77303900Y12393932D01*
X77085393Y12214608D01*
X76906068Y11996101D01*
X76835000Y11863142D01*
X76763932Y11996101D01*
X76584608Y12214608D01*
X76366101Y12393932D01*
X76116808Y12527182D01*
X75846309Y12609236D01*
X75565000Y12636943D01*
X75283692Y12609236D01*
X75013193Y12527182D01*
X74763900Y12393932D01*
X74545393Y12214608D01*
X74366068Y11996101D01*
X74295000Y11863142D01*
X74223932Y11996101D01*
X74044608Y12214608D01*
X73826101Y12393932D01*
X73576808Y12527182D01*
X73306309Y12609236D01*
X73025000Y12636943D01*
X72743692Y12609236D01*
X72473193Y12527182D01*
X72223900Y12393932D01*
X72005393Y12214608D01*
X71826068Y11996101D01*
X71755000Y11863142D01*
X71683932Y11996101D01*
X71504608Y12214608D01*
X71286101Y12393932D01*
X71036808Y12527182D01*
X70766309Y12609236D01*
X70485000Y12636943D01*
X70203692Y12609236D01*
X69933193Y12527182D01*
X69683900Y12393932D01*
X69465393Y12214608D01*
X69286068Y11996101D01*
X69215000Y11863142D01*
X69143932Y11996101D01*
X68964608Y12214608D01*
X68746101Y12393932D01*
X68496808Y12527182D01*
X68226309Y12609236D01*
X67945000Y12636943D01*
X67663692Y12609236D01*
X67393193Y12527182D01*
X67143900Y12393932D01*
X66925393Y12214608D01*
X66746068Y11996101D01*
X66675000Y11863142D01*
X66603932Y11996101D01*
X66424608Y12214608D01*
X66206101Y12393932D01*
X65956808Y12527182D01*
X65686309Y12609236D01*
X65405000Y12636943D01*
X65123692Y12609236D01*
X64853193Y12527182D01*
X64603900Y12393932D01*
X64385393Y12214608D01*
X64206068Y11996101D01*
X64135000Y11863142D01*
X64063932Y11996101D01*
X63884608Y12214608D01*
X63666101Y12393932D01*
X63416808Y12527182D01*
X63146309Y12609236D01*
X62865000Y12636943D01*
X62583692Y12609236D01*
X62313193Y12527182D01*
X62063900Y12393932D01*
X61845393Y12214608D01*
X61666068Y11996101D01*
X61595000Y11863142D01*
X61523932Y11996101D01*
X61344608Y12214608D01*
X61126101Y12393932D01*
X61000900Y12460854D01*
X72339747Y23799700D01*
X83148895Y23799700D01*
X83185000Y23796144D01*
X83221105Y23799700D01*
X83329085Y23810335D01*
X83467633Y23852363D01*
X83595320Y23920613D01*
X83707238Y24012462D01*
X83799087Y24124380D01*
X83867337Y24252067D01*
X83909365Y24390615D01*
X83909826Y24395299D01*
X83986100Y24436068D01*
X84204607Y24615392D01*
X84383932Y24833899D01*
X84455000Y24966858D01*
X84526068Y24833900D01*
X84705392Y24615393D01*
X84923899Y24436068D01*
X85173192Y24302818D01*
X85443691Y24220764D01*
X85725000Y24193057D01*
X86006308Y24220764D01*
X86276807Y24302818D01*
X86526100Y24436068D01*
X86744607Y24615392D01*
X86923932Y24833899D01*
X86995000Y24966858D01*
X87066068Y24833900D01*
X87245392Y24615393D01*
X87463899Y24436068D01*
X87713192Y24302818D01*
X87983691Y24220764D01*
X88265000Y24193057D01*
X88546308Y24220764D01*
X88816807Y24302818D01*
X89066100Y24436068D01*
X89284607Y24615392D01*
X89463932Y24833899D01*
X89535000Y24966858D01*
X89606068Y24833900D01*
X89785392Y24615393D01*
X90003899Y24436068D01*
X90253192Y24302818D01*
X90523691Y24220764D01*
X90805000Y24193057D01*
X91086308Y24220764D01*
X91356807Y24302818D01*
X91606100Y24436068D01*
X91824607Y24615392D01*
X92003932Y24833899D01*
X92075000Y24966858D01*
X92146068Y24833900D01*
X92325392Y24615393D01*
X92543899Y24436068D01*
X92793192Y24302818D01*
X93063691Y24220764D01*
X93345000Y24193057D01*
X93626308Y24220764D01*
X93896807Y24302818D01*
X94146100Y24436068D01*
X94364607Y24615392D01*
X94457419Y24728483D01*
X94459188Y24710518D01*
X94495498Y24590820D01*
X94554463Y24480506D01*
X94633815Y24383815D01*
X94730506Y24304463D01*
X94840820Y24245498D01*
X94960518Y24209188D01*
X95085000Y24196928D01*
X96685000Y24196928D01*
X96809482Y24209188D01*
X96929180Y24245498D01*
X97039494Y24304463D01*
X97136185Y24383815D01*
X97215537Y24480506D01*
X97274502Y24590820D01*
X97310812Y24710518D01*
X97323072Y24835000D01*
X97323072Y27235000D01*
X97310812Y27359482D01*
X97274502Y27479180D01*
X97215537Y27589494D01*
X97136185Y27686185D01*
X97039494Y27765537D01*
X96929180Y27824502D01*
X96809482Y27860812D01*
X96685000Y27873072D01*
X95085000Y27873072D01*
X94960518Y27860812D01*
X94840820Y27824502D01*
X94730506Y27765537D01*
X94633815Y27686185D01*
X94554463Y27589494D01*
X94495498Y27479180D01*
X94459188Y27359482D01*
X94457419Y27341518D01*
X94364608Y27454608D01*
X94146101Y27633932D01*
X93896808Y27767182D01*
X93626309Y27849236D01*
X93345000Y27876943D01*
X93063692Y27849236D01*
X92793193Y27767182D01*
X92543900Y27633932D01*
X92325393Y27454608D01*
X92146068Y27236101D01*
X92075000Y27103142D01*
X92003932Y27236101D01*
X91824608Y27454608D01*
X91606101Y27633932D01*
X91356808Y27767182D01*
X91086309Y27849236D01*
X90805000Y27876943D01*
X90523692Y27849236D01*
X90253193Y27767182D01*
X90003900Y27633932D01*
X89785393Y27454608D01*
X89606068Y27236101D01*
X89535000Y27103142D01*
X89463932Y27236101D01*
X89284608Y27454608D01*
X89066101Y27633932D01*
X88816808Y27767182D01*
X88546309Y27849236D01*
X88265000Y27876943D01*
X87983692Y27849236D01*
X87713193Y27767182D01*
X87463900Y27633932D01*
X87245393Y27454608D01*
X87066068Y27236101D01*
X86995000Y27103142D01*
X86923932Y27236101D01*
X86744608Y27454608D01*
X86526101Y27633932D01*
X86276808Y27767182D01*
X86006309Y27849236D01*
X85725000Y27876943D01*
X85443692Y27849236D01*
X85173193Y27767182D01*
X84923900Y27633932D01*
X84705393Y27454608D01*
X84526068Y27236101D01*
X84455000Y27103142D01*
X84383932Y27236101D01*
X84204608Y27454608D01*
X83986101Y27633932D01*
X83736808Y27767182D01*
X83466309Y27849236D01*
X83185000Y27876943D01*
X82903692Y27849236D01*
X82633193Y27767182D01*
X82383900Y27633932D01*
X82165393Y27454608D01*
X81986068Y27236101D01*
X81917735Y27108259D01*
X81767601Y27337839D01*
X81569895Y27539500D01*
X81336646Y27698715D01*
X81076818Y27809367D01*
X80994039Y27826904D01*
X80772000Y27704915D01*
X80772000Y26162000D01*
X80792000Y26162000D01*
X80792000Y25908000D01*
X80772000Y25908000D01*
X80772000Y25888000D01*
X80518000Y25888000D01*
X80518000Y25908000D01*
X80498000Y25908000D01*
X80498000Y26162000D01*
X80518000Y26162000D01*
X80518000Y27704915D01*
X80295961Y27826904D01*
X80213182Y27809367D01*
X79953354Y27698715D01*
X79720105Y27539500D01*
X79522399Y27337839D01*
X79372265Y27108259D01*
X79303932Y27236101D01*
X79124608Y27454608D01*
X78906101Y27633932D01*
X78656808Y27767182D01*
X78386309Y27849236D01*
X78105000Y27876943D01*
X77823692Y27849236D01*
X77553193Y27767182D01*
X77303900Y27633932D01*
X77085393Y27454608D01*
X76906068Y27236101D01*
X76835000Y27103142D01*
X76763932Y27236101D01*
X76584608Y27454608D01*
X76366101Y27633932D01*
X76116808Y27767182D01*
X75846309Y27849236D01*
X75565000Y27876943D01*
X75283692Y27849236D01*
X75013193Y27767182D01*
X74763900Y27633932D01*
X74545393Y27454608D01*
X74366068Y27236101D01*
X74295000Y27103142D01*
X74223932Y27236101D01*
X74044608Y27454608D01*
X73826101Y27633932D01*
X73576808Y27767182D01*
X73306309Y27849236D01*
X73025000Y27876943D01*
X72743692Y27849236D01*
X72473193Y27767182D01*
X72223900Y27633932D01*
X72005393Y27454608D01*
X71826068Y27236101D01*
X71755000Y27103142D01*
X71683932Y27236101D01*
X71504608Y27454608D01*
X71286101Y27633932D01*
X71036808Y27767182D01*
X70766309Y27849236D01*
X70485000Y27876943D01*
X70203692Y27849236D01*
X69933193Y27767182D01*
X69683900Y27633932D01*
X69465393Y27454608D01*
X69286068Y27236101D01*
X69215000Y27103142D01*
X69143932Y27236101D01*
X68964608Y27454608D01*
X68746101Y27633932D01*
X68496808Y27767182D01*
X68226309Y27849236D01*
X67945000Y27876943D01*
X67663692Y27849236D01*
X67393193Y27767182D01*
X67143900Y27633932D01*
X66925393Y27454608D01*
X66746068Y27236101D01*
X66675000Y27103142D01*
X66603932Y27236101D01*
X66424608Y27454608D01*
X66206101Y27633932D01*
X65956808Y27767182D01*
X65686309Y27849236D01*
X65405000Y27876943D01*
X65123692Y27849236D01*
X64853193Y27767182D01*
X64603900Y27633932D01*
X64385393Y27454608D01*
X64206068Y27236101D01*
X64135000Y27103142D01*
X64063932Y27236101D01*
X63884608Y27454608D01*
X63666101Y27633932D01*
X63416808Y27767182D01*
X63146309Y27849236D01*
X62865000Y27876943D01*
X62583692Y27849236D01*
X62313193Y27767182D01*
X62063900Y27633932D01*
X61845393Y27454608D01*
X61666068Y27236101D01*
X61595000Y27103142D01*
X61523932Y27236101D01*
X61344608Y27454608D01*
X61126101Y27633932D01*
X60876808Y27767182D01*
X60606309Y27849236D01*
X60325000Y27876943D01*
X60043692Y27849236D01*
X59773193Y27767182D01*
X59641100Y27696577D01*
X59641100Y30950000D01*
X59831335Y30950000D01*
X60108574Y31005147D01*
X60369727Y31113320D01*
X60604759Y31270363D01*
X60666375Y31331979D01*
X61661746Y30336607D01*
X61684762Y30308562D01*
X61796680Y30216713D01*
X61924367Y30148463D01*
X62062915Y30106435D01*
X62170895Y30095800D01*
X62170904Y30095800D01*
X62206999Y30092245D01*
X62243094Y30095800D01*
X69876595Y30095800D01*
X69912700Y30092244D01*
X69948805Y30095800D01*
X70056785Y30106435D01*
X70195333Y30148463D01*
X70323020Y30216713D01*
X70434938Y30308562D01*
X70457958Y30336612D01*
X71433475Y31312129D01*
X71475241Y31270363D01*
X71710273Y31113320D01*
X71971426Y31005147D01*
X72248665Y30950000D01*
X72531335Y30950000D01*
X72808574Y31005147D01*
X73069727Y31113320D01*
X73304759Y31270363D01*
X73504637Y31470241D01*
X73660000Y31702759D01*
X73815363Y31470241D01*
X74015241Y31270363D01*
X74250273Y31113320D01*
X74511426Y31005147D01*
X74788665Y30950000D01*
X75071335Y30950000D01*
X75348574Y31005147D01*
X75609727Y31113320D01*
X75844759Y31270363D01*
X76044637Y31470241D01*
X76200000Y31702759D01*
X76355363Y31470241D01*
X76555241Y31270363D01*
X76790273Y31113320D01*
X77051426Y31005147D01*
X77328665Y30950000D01*
X77611335Y30950000D01*
X77888574Y31005147D01*
X78149727Y31113320D01*
X78384759Y31270363D01*
X78584637Y31470241D01*
X78740000Y31702759D01*
X78895363Y31470241D01*
X79095241Y31270363D01*
X79330273Y31113320D01*
X79591426Y31005147D01*
X79868665Y30950000D01*
X80151335Y30950000D01*
X80428574Y31005147D01*
X80689727Y31113320D01*
X80924759Y31270363D01*
X81124637Y31470241D01*
X81280000Y31702759D01*
X81435363Y31470241D01*
X81635241Y31270363D01*
X81870273Y31113320D01*
X82131426Y31005147D01*
X82408665Y30950000D01*
X82691335Y30950000D01*
X82968574Y31005147D01*
X83229727Y31113320D01*
X83464759Y31270363D01*
X83664637Y31470241D01*
X83821680Y31705273D01*
X83826067Y31715865D01*
X83937615Y31529869D01*
X84126586Y31321481D01*
X84352580Y31153963D01*
X84606913Y31033754D01*
X84740961Y30993096D01*
X84963000Y31115085D01*
X84963000Y32258000D01*
X84943000Y32258000D01*
X84943000Y32512000D01*
X84963000Y32512000D01*
X84963000Y33654915D01*
X85217000Y33654915D01*
X85217000Y32512000D01*
X85237000Y32512000D01*
X85237000Y32258000D01*
X85217000Y32258000D01*
X85217000Y31115085D01*
X85439039Y30993096D01*
X85573087Y31033754D01*
X85827420Y31153963D01*
X86053414Y31321481D01*
X86242385Y31529869D01*
X86353933Y31715865D01*
X86358320Y31705273D01*
X86515363Y31470241D01*
X86715241Y31270363D01*
X86950273Y31113320D01*
X87211426Y31005147D01*
X87488665Y30950000D01*
X87771335Y30950000D01*
X88048574Y31005147D01*
X88309727Y31113320D01*
X88544759Y31270363D01*
X88744637Y31470241D01*
X88901680Y31705273D01*
X89009853Y31966426D01*
X89065000Y32243665D01*
X89065000Y32526335D01*
X89009853Y32803574D01*
X88901680Y33064727D01*
X88744637Y33299759D01*
X88544759Y33499637D01*
X88309727Y33656680D01*
X88048574Y33764853D01*
X87771335Y33820000D01*
X87488665Y33820000D01*
X87211426Y33764853D01*
X86950273Y33656680D01*
X86715241Y33499637D01*
X86515363Y33299759D01*
X86358320Y33064727D01*
X86353933Y33054135D01*
X86242385Y33240131D01*
X86053414Y33448519D01*
X85827420Y33616037D01*
X85573087Y33736246D01*
X85439039Y33776904D01*
X85217000Y33654915D01*
X84963000Y33654915D01*
X84740961Y33776904D01*
X84606913Y33736246D01*
X84352580Y33616037D01*
X84126586Y33448519D01*
X83937615Y33240131D01*
X83826067Y33054135D01*
X83821680Y33064727D01*
X83664637Y33299759D01*
X83464759Y33499637D01*
X83229727Y33656680D01*
X82968574Y33764853D01*
X82691335Y33820000D01*
X82408665Y33820000D01*
X82131426Y33764853D01*
X81870273Y33656680D01*
X81635241Y33499637D01*
X81435363Y33299759D01*
X81280000Y33067241D01*
X81124637Y33299759D01*
X81014982Y33409414D01*
X81911026Y34305458D01*
X81942891Y34331609D01*
X82047236Y34458754D01*
X82124772Y34603813D01*
X82172518Y34761211D01*
X82184600Y34883881D01*
X82184600Y34883891D01*
X82188639Y34924899D01*
X82184600Y34965907D01*
X82184600Y46234570D01*
X82408665Y46190000D01*
X82691335Y46190000D01*
X82968574Y46245147D01*
X83229727Y46353320D01*
X83464759Y46510363D01*
X83664637Y46710241D01*
X83820000Y46942759D01*
X83975363Y46710241D01*
X84175241Y46510363D01*
X84410273Y46353320D01*
X84671426Y46245147D01*
X84948665Y46190000D01*
X85231335Y46190000D01*
X85508574Y46245147D01*
X85769727Y46353320D01*
X86004759Y46510363D01*
X86203357Y46708961D01*
X86204188Y46700518D01*
X86240498Y46580820D01*
X86299463Y46470506D01*
X86378815Y46373815D01*
X86475506Y46294463D01*
X86585820Y46235498D01*
X86705518Y46199188D01*
X86830000Y46186928D01*
X88430000Y46186928D01*
X88554482Y46199188D01*
X88674180Y46235498D01*
X88784494Y46294463D01*
X88881185Y46373815D01*
X88960537Y46470506D01*
X89019502Y46580820D01*
X89055812Y46700518D01*
X89068072Y46825000D01*
X89068072Y48425000D01*
X89055812Y48549482D01*
X89019502Y48669180D01*
X88960537Y48779494D01*
X88881185Y48876185D01*
X88784494Y48955537D01*
X88674180Y49014502D01*
X88554482Y49050812D01*
X88430000Y49063072D01*
X86830000Y49063072D01*
X86705518Y49050812D01*
X86585820Y49014502D01*
X86475506Y48955537D01*
X86378815Y48876185D01*
X86299463Y48779494D01*
X86240498Y48669180D01*
X86204188Y48549482D01*
X86203357Y48541039D01*
X86004759Y48739637D01*
X85769727Y48896680D01*
X85508574Y49004853D01*
X85231335Y49060000D01*
X84948665Y49060000D01*
X84671426Y49004853D01*
X84410273Y48896680D01*
X84175241Y48739637D01*
X83975363Y48539759D01*
X83820000Y48307241D01*
X83664637Y48539759D01*
X83464759Y48739637D01*
X83229727Y48896680D01*
X82968574Y49004853D01*
X82691335Y49060000D01*
X82408665Y49060000D01*
X82184600Y49015430D01*
X82184600Y51793733D01*
X83872202Y53481335D01*
X88735000Y53481335D01*
X88735000Y53198665D01*
X88790147Y52921426D01*
X88898320Y52660273D01*
X89055363Y52425241D01*
X89255241Y52225363D01*
X89490273Y52068320D01*
X89751426Y51960147D01*
X90028665Y51905000D01*
X90311335Y51905000D01*
X90588574Y51960147D01*
X90849727Y52068320D01*
X91084759Y52225363D01*
X91284637Y52425241D01*
X91441680Y52660273D01*
X91549853Y52921426D01*
X91605000Y53198665D01*
X91605000Y53481335D01*
X91549853Y53758574D01*
X91441680Y54019727D01*
X91284637Y54254759D01*
X91084759Y54454637D01*
X90849727Y54611680D01*
X90588574Y54719853D01*
X90311335Y54775000D01*
X90028665Y54775000D01*
X89751426Y54719853D01*
X89490273Y54611680D01*
X89255241Y54454637D01*
X89055363Y54254759D01*
X88898320Y54019727D01*
X88790147Y53758574D01*
X88735000Y53481335D01*
X83872202Y53481335D01*
X89934582Y59543714D01*
X90028665Y59525000D01*
X90311335Y59525000D01*
X90588574Y59580147D01*
X90849727Y59688320D01*
X91084759Y59845363D01*
X91284637Y60045241D01*
X91441680Y60280273D01*
X91549853Y60541426D01*
X91605000Y60818665D01*
X91605000Y61101335D01*
X91549853Y61378574D01*
X91441680Y61639727D01*
X91284637Y61874759D01*
X91084759Y62074637D01*
X90849727Y62231680D01*
X90588574Y62339853D01*
X90311335Y62395000D01*
X90028665Y62395000D01*
X89751426Y62339853D01*
X89490273Y62231680D01*
X89255241Y62074637D01*
X89055363Y61874759D01*
X88898320Y61639727D01*
X88790147Y61378574D01*
X88735000Y61101335D01*
X88735000Y60818665D01*
X88753714Y60724582D01*
X80788179Y52759046D01*
X80756309Y52732891D01*
X80651965Y52605746D01*
X80651964Y52605745D01*
X80574428Y52460686D01*
X80526682Y52303288D01*
X80510560Y52139600D01*
X80514600Y52098581D01*
X80514600Y48969220D01*
X80428574Y49004853D01*
X80151335Y49060000D01*
X79868665Y49060000D01*
X79591426Y49004853D01*
X79475000Y48956628D01*
X79475000Y54585254D01*
X83694193Y58804446D01*
X83722238Y58827462D01*
X83814087Y58939380D01*
X83882337Y59067067D01*
X83921472Y59196078D01*
X84146632Y59346525D01*
X84353475Y59553368D01*
X84515990Y59796589D01*
X84627932Y60066842D01*
X84685000Y60353740D01*
X84685000Y60646260D01*
X84627932Y60933158D01*
X84515990Y61203411D01*
X84353475Y61446632D01*
X84194627Y61605480D01*
X84949197Y62360050D01*
X84977237Y62383062D01*
X85000250Y62411103D01*
X85000253Y62411106D01*
X85030478Y62447936D01*
X85069087Y62494980D01*
X85137337Y62622667D01*
X85167480Y62722035D01*
X85179365Y62761214D01*
X85193556Y62905299D01*
X85190000Y62941404D01*
X85190000Y67285117D01*
X85401632Y67426525D01*
X85608475Y67633368D01*
X85725000Y67807760D01*
X85841525Y67633368D01*
X86048368Y67426525D01*
X86291589Y67264010D01*
X86561842Y67152068D01*
X86848740Y67095000D01*
X87141260Y67095000D01*
X87428158Y67152068D01*
X87698411Y67264010D01*
X87941632Y67426525D01*
X88148475Y67633368D01*
X88310990Y67876589D01*
X88422932Y68146842D01*
X88480000Y68433740D01*
X88480000Y68726260D01*
X88422932Y69013158D01*
X88310990Y69283411D01*
X88148475Y69526632D01*
X87941632Y69733475D01*
X87698411Y69895990D01*
X87428158Y70007932D01*
X87141260Y70065000D01*
X86848740Y70065000D01*
X86561842Y70007932D01*
X86291589Y69895990D01*
X86048368Y69733475D01*
X85841525Y69526632D01*
X85725000Y69352240D01*
X85608475Y69526632D01*
X85401632Y69733475D01*
X85158411Y69895990D01*
X84888158Y70007932D01*
X84601260Y70065000D01*
X84308740Y70065000D01*
X84021842Y70007932D01*
X83751589Y69895990D01*
X83508368Y69733475D01*
X83301525Y69526632D01*
X83185000Y69352240D01*
X83068475Y69526632D01*
X82861632Y69733475D01*
X82618411Y69895990D01*
X82348158Y70007932D01*
X82061260Y70065000D01*
X81768740Y70065000D01*
X81481842Y70007932D01*
X81211589Y69895990D01*
X80968368Y69733475D01*
X80761525Y69526632D01*
X80645000Y69352240D01*
X80528475Y69526632D01*
X80321632Y69733475D01*
X80078411Y69895990D01*
X79808158Y70007932D01*
X79521260Y70065000D01*
X79228740Y70065000D01*
X78941842Y70007932D01*
X78671589Y69895990D01*
X78428368Y69733475D01*
X78221525Y69526632D01*
X78105000Y69352240D01*
X77988475Y69526632D01*
X77781632Y69733475D01*
X77538411Y69895990D01*
X77268158Y70007932D01*
X76981260Y70065000D01*
X76688740Y70065000D01*
X76401842Y70007932D01*
X76131589Y69895990D01*
X75888368Y69733475D01*
X75681525Y69526632D01*
X75559805Y69344466D01*
X75490178Y69461355D01*
X75295269Y69677588D01*
X75061920Y69851641D01*
X74799099Y69976825D01*
X74651890Y70021476D01*
X74422000Y69900155D01*
X74422000Y68707000D01*
X74442000Y68707000D01*
X74442000Y68453000D01*
X74422000Y68453000D01*
X74422000Y67259845D01*
X74651890Y67138524D01*
X74799099Y67183175D01*
X75061920Y67308359D01*
X75295269Y67482412D01*
X75490178Y67698645D01*
X75559805Y67815534D01*
X75681525Y67633368D01*
X75888368Y67426525D01*
X76113528Y67276078D01*
X76137467Y67197165D01*
X76152664Y67147067D01*
X76220914Y67019380D01*
X76312763Y66907462D01*
X76340808Y66884446D01*
X79925000Y63300253D01*
X79925001Y61794883D01*
X79713368Y61653475D01*
X79506525Y61446632D01*
X79390000Y61272240D01*
X79273475Y61446632D01*
X79066632Y61653475D01*
X78823411Y61815990D01*
X78553158Y61927932D01*
X78266260Y61985000D01*
X77973740Y61985000D01*
X77686842Y61927932D01*
X77416589Y61815990D01*
X77173368Y61653475D01*
X76966525Y61446632D01*
X76850000Y61272240D01*
X76733475Y61446632D01*
X76526632Y61653475D01*
X76283411Y61815990D01*
X76013158Y61927932D01*
X75726260Y61985000D01*
X75433740Y61985000D01*
X75146842Y61927932D01*
X74876589Y61815990D01*
X74633368Y61653475D01*
X74426525Y61446632D01*
X74310000Y61272240D01*
X74193475Y61446632D01*
X73986632Y61653475D01*
X73876736Y61726905D01*
X73879040Y61750301D01*
X73862918Y61913989D01*
X73815172Y62071387D01*
X73737636Y62216446D01*
X73732288Y62222963D01*
X73633291Y62343591D01*
X73601427Y62369741D01*
X68828350Y67142817D01*
X69068740Y67095000D01*
X69361260Y67095000D01*
X69648158Y67152068D01*
X69918411Y67264010D01*
X70161632Y67426525D01*
X70368475Y67633368D01*
X70485000Y67807760D01*
X70601525Y67633368D01*
X70808368Y67426525D01*
X71051589Y67264010D01*
X71321842Y67152068D01*
X71608740Y67095000D01*
X71901260Y67095000D01*
X72188158Y67152068D01*
X72458411Y67264010D01*
X72701632Y67426525D01*
X72908475Y67633368D01*
X73030195Y67815534D01*
X73099822Y67698645D01*
X73294731Y67482412D01*
X73528080Y67308359D01*
X73790901Y67183175D01*
X73938110Y67138524D01*
X74168000Y67259845D01*
X74168000Y68453000D01*
X74148000Y68453000D01*
X74148000Y68707000D01*
X74168000Y68707000D01*
X74168000Y69900155D01*
X73938110Y70021476D01*
X73790901Y69976825D01*
X73528080Y69851641D01*
X73294731Y69677588D01*
X73099822Y69461355D01*
X73030195Y69344466D01*
X72908475Y69526632D01*
X72701632Y69733475D01*
X72458411Y69895990D01*
X72188158Y70007932D01*
X71901260Y70065000D01*
X71608740Y70065000D01*
X71321842Y70007932D01*
X71051589Y69895990D01*
X70808368Y69733475D01*
X70601525Y69526632D01*
X70485000Y69352240D01*
X70368475Y69526632D01*
X70161632Y69733475D01*
X69918411Y69895990D01*
X69648158Y70007932D01*
X69361260Y70065000D01*
X69068740Y70065000D01*
X68781842Y70007932D01*
X68511589Y69895990D01*
X68268368Y69733475D01*
X68136513Y69601620D01*
X68114502Y69674180D01*
X68055537Y69784494D01*
X67976185Y69881185D01*
X67879494Y69960537D01*
X67769180Y70019502D01*
X67649482Y70055812D01*
X67525000Y70068072D01*
X65825000Y70068072D01*
X65700518Y70055812D01*
X65580820Y70019502D01*
X65470506Y69960537D01*
X65373815Y69881185D01*
X65294463Y69784494D01*
X65235498Y69674180D01*
X65199188Y69554482D01*
X65186928Y69430000D01*
X65186928Y67730000D01*
X65199188Y67605518D01*
X65235498Y67485820D01*
X65294463Y67375506D01*
X65373815Y67278815D01*
X65470506Y67199463D01*
X65580820Y67140498D01*
X65700518Y67104188D01*
X65825000Y67091928D01*
X65874555Y67091928D01*
X65899828Y67008613D01*
X65977364Y66863554D01*
X66081709Y66736409D01*
X66208854Y66632064D01*
X66353913Y66554528D01*
X66511311Y66506782D01*
X66633981Y66494700D01*
X66633982Y66494700D01*
X66675000Y66490660D01*
X66716019Y66494700D01*
X67114733Y66494700D01*
X72024663Y61584770D01*
X71961513Y61521620D01*
X71939502Y61594180D01*
X71880537Y61704494D01*
X71801185Y61801185D01*
X71704494Y61880537D01*
X71594180Y61939502D01*
X71474482Y61975812D01*
X71350000Y61988072D01*
X70785750Y61985000D01*
X70627000Y61826250D01*
X70627000Y60627000D01*
X70647000Y60627000D01*
X70647000Y60373000D01*
X70627000Y60373000D01*
X70627000Y59173750D01*
X70785750Y59015000D01*
X71350000Y59011928D01*
X71474482Y59024188D01*
X71594180Y59060498D01*
X71704494Y59119463D01*
X71801185Y59198815D01*
X71880537Y59295506D01*
X71939502Y59405820D01*
X71961513Y59478380D01*
X72093368Y59346525D01*
X72336589Y59184010D01*
X72606842Y59072068D01*
X72893740Y59015000D01*
X73186260Y59015000D01*
X73473158Y59072068D01*
X73743411Y59184010D01*
X73986632Y59346525D01*
X74193475Y59553368D01*
X74310000Y59727760D01*
X74426525Y59553368D01*
X74585373Y59394520D01*
X68085808Y52894954D01*
X68057762Y52871937D01*
X67965913Y52760019D01*
X67897663Y52632332D01*
X67879105Y52571155D01*
X67855635Y52493785D01*
X67841444Y52349700D01*
X67845000Y52313595D01*
X67845001Y48956628D01*
X67728574Y49004853D01*
X67451335Y49060000D01*
X67168665Y49060000D01*
X66891426Y49004853D01*
X66630273Y48896680D01*
X66395241Y48739637D01*
X66333625Y48678021D01*
X64948158Y50063488D01*
X64925138Y50091538D01*
X64813220Y50183387D01*
X64685533Y50251637D01*
X64546985Y50293665D01*
X64439005Y50304300D01*
X64402900Y50307856D01*
X64366795Y50304300D01*
X58921705Y50304300D01*
X58885600Y50307856D01*
X58741515Y50293665D01*
X58602966Y50251637D01*
X58475280Y50183387D01*
X58363362Y50091538D01*
X58340346Y50063493D01*
X50940808Y42663954D01*
X50912762Y42640937D01*
X50820913Y42529019D01*
X50752663Y42401332D01*
X50730248Y42327438D01*
X50710635Y42262785D01*
X50696444Y42118700D01*
X50700000Y42082595D01*
X50700001Y27772280D01*
X50446309Y27849236D01*
X50165000Y27876943D01*
X49883692Y27849236D01*
X49701800Y27794060D01*
X49701800Y27938747D01*
X49751077Y28012495D01*
X49817790Y28173555D01*
X49851800Y28344535D01*
X49851800Y28518865D01*
X49817790Y28689845D01*
X49751077Y28850905D01*
X49654224Y28995855D01*
X49530955Y29119124D01*
X49386005Y29215977D01*
X49224945Y29282690D01*
X49053965Y29316700D01*
X48879635Y29316700D01*
X48708655Y29282690D01*
X48547595Y29215977D01*
X48402645Y29119124D01*
X48279376Y28995855D01*
X48182523Y28850905D01*
X48115810Y28689845D01*
X48081800Y28518865D01*
X48081800Y28344535D01*
X48115810Y28173555D01*
X48182523Y28012495D01*
X48231801Y27938746D01*
X48231801Y27737788D01*
X48176808Y27767182D01*
X47906309Y27849236D01*
X47625000Y27876943D01*
X47343692Y27849236D01*
X47073193Y27767182D01*
X46823900Y27633932D01*
X46605393Y27454608D01*
X46426068Y27236101D01*
X46292818Y26986808D01*
X46210764Y26716309D01*
X46190000Y26505492D01*
X46190000Y25564509D01*
X46210764Y25353692D01*
X46292818Y25083193D01*
X46426068Y24833900D01*
X46605392Y24615393D01*
X46823899Y24436068D01*
X47073192Y24302818D01*
X47343691Y24220764D01*
X47625000Y24193057D01*
X47906308Y24220764D01*
X48176807Y24302818D01*
X48231801Y24332213D01*
X48231800Y13941547D01*
X47130808Y12840554D01*
X47102763Y12817538D01*
X47010914Y12705620D01*
X46959396Y12609236D01*
X46942664Y12577933D01*
X46900635Y12439385D01*
X46900174Y12434701D01*
X46823900Y12393932D01*
X46605393Y12214608D01*
X46426068Y11996101D01*
X46292818Y11746808D01*
X46210764Y11476309D01*
X46190000Y11265492D01*
X46190000Y10324509D01*
X46210764Y10113692D01*
X46236242Y10029700D01*
X37583758Y10029700D01*
X37609236Y10113691D01*
X37630000Y10324508D01*
X37630000Y11265491D01*
X37609236Y11476309D01*
X37527182Y11746808D01*
X37393932Y11996101D01*
X37214608Y12214608D01*
X36996101Y12393932D01*
X36746808Y12527182D01*
X36476309Y12609236D01*
X36195000Y12636943D01*
X35913692Y12609236D01*
X35643193Y12527182D01*
X35393900Y12393932D01*
X35175393Y12214608D01*
X34996068Y11996101D01*
X34925000Y11863142D01*
X34853932Y11996101D01*
X34674608Y12214608D01*
X34456101Y12393932D01*
X34206808Y12527182D01*
X33936309Y12609236D01*
X33655000Y12636943D01*
X33373692Y12609236D01*
X33103193Y12527182D01*
X32853900Y12393932D01*
X32635393Y12214608D01*
X32456068Y11996101D01*
X32385000Y11863142D01*
X32313932Y11996101D01*
X32134608Y12214608D01*
X31916101Y12393932D01*
X31666808Y12527182D01*
X31396309Y12609236D01*
X31115000Y12636943D01*
X30833692Y12609236D01*
X30563193Y12527182D01*
X30313900Y12393932D01*
X30095393Y12214608D01*
X29916068Y11996101D01*
X29845000Y11863142D01*
X29773932Y11996101D01*
X29594608Y12214608D01*
X29561184Y12242038D01*
X30194693Y12875546D01*
X30222738Y12898562D01*
X30314587Y13010480D01*
X30382837Y13138167D01*
X30424865Y13276715D01*
X30435500Y13384695D01*
X30435500Y13384704D01*
X30439055Y13420799D01*
X30435500Y13456894D01*
X30435500Y15804488D01*
X38564783Y15804488D01*
X38606213Y15524870D01*
X38701397Y15258708D01*
X38768329Y15133486D01*
X39012298Y15061903D01*
X39825395Y15875000D01*
X39012298Y16688097D01*
X38768329Y16616514D01*
X38647429Y16361004D01*
X38578700Y16086816D01*
X38564783Y15804488D01*
X30435500Y15804488D01*
X30435500Y16626759D01*
X30500913Y16504380D01*
X30592762Y16392462D01*
X30704680Y16300613D01*
X30832367Y16232363D01*
X30970915Y16190335D01*
X31078895Y16179700D01*
X31115000Y16176144D01*
X31151105Y16179700D01*
X34079195Y16179700D01*
X34115300Y16176144D01*
X34151405Y16179700D01*
X34259385Y16190335D01*
X34397933Y16232363D01*
X34525620Y16300613D01*
X34637538Y16392462D01*
X34660558Y16420512D01*
X34976795Y16736749D01*
X35040506Y16684463D01*
X35150820Y16625498D01*
X35270518Y16589188D01*
X35395000Y16576928D01*
X36995000Y16576928D01*
X37119482Y16589188D01*
X37239180Y16625498D01*
X37349494Y16684463D01*
X37446185Y16763815D01*
X37525537Y16860506D01*
X37529383Y16867702D01*
X39191903Y16867702D01*
X40005000Y16054605D01*
X40818097Y16867702D01*
X40746514Y17111671D01*
X40491004Y17232571D01*
X40216816Y17301300D01*
X39934488Y17315217D01*
X39654870Y17273787D01*
X39388708Y17178603D01*
X39263486Y17111671D01*
X39191903Y16867702D01*
X37529383Y16867702D01*
X37584502Y16970820D01*
X37620812Y17090518D01*
X37633072Y17215000D01*
X37633072Y19615000D01*
X37620812Y19739482D01*
X37584502Y19859180D01*
X37525537Y19969494D01*
X37446185Y20066185D01*
X37349494Y20145537D01*
X37239180Y20204502D01*
X37119482Y20240812D01*
X36995000Y20253072D01*
X36847865Y20253072D01*
X36809087Y20325620D01*
X36717238Y20437538D01*
X36689187Y20460559D01*
X36499500Y20650246D01*
X36499500Y22579047D01*
X36548777Y22652795D01*
X36615490Y22813855D01*
X36649500Y22984835D01*
X36649500Y23159165D01*
X36615490Y23330145D01*
X36567573Y23445827D01*
X38718893Y25597146D01*
X38746938Y25620162D01*
X38838787Y25732080D01*
X38850166Y25753368D01*
X38907037Y25859766D01*
X38949065Y25998315D01*
X38963256Y26142400D01*
X38959700Y26178505D01*
X38959700Y28265904D01*
X39090241Y28135363D01*
X39170000Y28082070D01*
X39170001Y20085029D01*
X39165960Y20044000D01*
X39182082Y19880312D01*
X39229828Y19722914D01*
X39307364Y19577855D01*
X39307365Y19577854D01*
X39411710Y19450709D01*
X39443574Y19424559D01*
X42158632Y16709500D01*
X41438691Y15989558D01*
X41403787Y16225130D01*
X41308603Y16491292D01*
X41241671Y16616514D01*
X40997702Y16688097D01*
X40184605Y15875000D01*
X40198748Y15860857D01*
X40019143Y15681252D01*
X40005000Y15695395D01*
X39191903Y14882298D01*
X39263486Y14638329D01*
X39292341Y14624676D01*
X39090241Y14489637D01*
X38890363Y14289759D01*
X38733320Y14054727D01*
X38625147Y13793574D01*
X38570000Y13516335D01*
X38570000Y13233665D01*
X38625147Y12956426D01*
X38733320Y12695273D01*
X38890363Y12460241D01*
X39090241Y12260363D01*
X39325273Y12103320D01*
X39586426Y11995147D01*
X39863665Y11940000D01*
X40146335Y11940000D01*
X40423574Y11995147D01*
X40684727Y12103320D01*
X40919759Y12260363D01*
X41119637Y12460241D01*
X41276680Y12695273D01*
X41384853Y12956426D01*
X41440000Y13233665D01*
X41440000Y13516335D01*
X41421285Y13610418D01*
X43083669Y15272801D01*
X43135273Y15238320D01*
X43396426Y15130147D01*
X43673665Y15075000D01*
X43956335Y15075000D01*
X44233574Y15130147D01*
X44494727Y15238320D01*
X44729759Y15395363D01*
X44929637Y15595241D01*
X45086680Y15830273D01*
X45194853Y16091426D01*
X45250000Y16368665D01*
X45250000Y16651335D01*
X45194853Y16928574D01*
X45086680Y17189727D01*
X44929637Y17424759D01*
X44729759Y17624637D01*
X44529131Y17758692D01*
X44556514Y17773329D01*
X44628097Y18017298D01*
X43815000Y18830395D01*
X43800858Y18816252D01*
X43621253Y18995857D01*
X43635395Y19010000D01*
X43994605Y19010000D01*
X44807702Y18196903D01*
X45051671Y18268486D01*
X45172571Y18523996D01*
X45241300Y18798184D01*
X45255217Y19080512D01*
X45213787Y19360130D01*
X45118603Y19626292D01*
X45051671Y19751514D01*
X44807702Y19823097D01*
X43994605Y19010000D01*
X43635395Y19010000D01*
X42822298Y19823097D01*
X42578329Y19751514D01*
X42457429Y19496004D01*
X42388700Y19221816D01*
X42374783Y18939488D01*
X42389464Y18840404D01*
X41227166Y20002702D01*
X43001903Y20002702D01*
X43815000Y19189605D01*
X44628097Y20002702D01*
X44556514Y20246671D01*
X44301004Y20367571D01*
X44026816Y20436300D01*
X43744488Y20450217D01*
X43464870Y20408787D01*
X43198708Y20313603D01*
X43073486Y20246671D01*
X43001903Y20002702D01*
X41227166Y20002702D01*
X40840000Y20389867D01*
X40840000Y28082070D01*
X40919759Y28135363D01*
X41119637Y28335241D01*
X41276680Y28570273D01*
X41384853Y28831426D01*
X41440000Y29108665D01*
X41440000Y29391335D01*
X41384853Y29668574D01*
X41276680Y29929727D01*
X41119637Y30164759D01*
X40919759Y30364637D01*
X40719131Y30498692D01*
X40746514Y30513329D01*
X40818097Y30757298D01*
X40005000Y31570395D01*
X39191903Y30757298D01*
X39263486Y30513329D01*
X39292341Y30499676D01*
X39090241Y30364637D01*
X38959700Y30234096D01*
X38959700Y30952336D01*
X39012298Y30936903D01*
X39825395Y31750000D01*
X40184605Y31750000D01*
X40997702Y30936903D01*
X41241671Y31008486D01*
X41362571Y31263996D01*
X41431300Y31538184D01*
X41445217Y31820512D01*
X41403787Y32100130D01*
X41308603Y32366292D01*
X41241671Y32491514D01*
X40997702Y32563097D01*
X40184605Y31750000D01*
X39825395Y31750000D01*
X39012298Y32563097D01*
X38959700Y32547664D01*
X38959700Y32742702D01*
X39191903Y32742702D01*
X40005000Y31929605D01*
X40818097Y32742702D01*
X40746514Y32986671D01*
X40491004Y33107571D01*
X40216816Y33176300D01*
X39934488Y33190217D01*
X39654870Y33148787D01*
X39388708Y33053603D01*
X39263486Y32986671D01*
X39191903Y32742702D01*
X38959700Y32742702D01*
X38959700Y44140904D01*
X39090241Y44010363D01*
X39325273Y43853320D01*
X39586426Y43745147D01*
X39863665Y43690000D01*
X40146335Y43690000D01*
X40423574Y43745147D01*
X40684727Y43853320D01*
X40919759Y44010363D01*
X41119637Y44210241D01*
X41276680Y44445273D01*
X41384853Y44706426D01*
X41440000Y44983665D01*
X41440000Y45266335D01*
X41421285Y45360418D01*
X48821433Y52760564D01*
X48853291Y52786709D01*
X48883761Y52823836D01*
X48957636Y52913854D01*
X49035172Y53058913D01*
X49082918Y53216311D01*
X49099040Y53380000D01*
X49095000Y53421018D01*
X49095000Y57183889D01*
X49279607Y57335392D01*
X49458932Y57553899D01*
X49530000Y57686858D01*
X49601068Y57553900D01*
X49780392Y57335393D01*
X49998899Y57156068D01*
X50248192Y57022818D01*
X50518691Y56940764D01*
X50800000Y56913057D01*
X51081308Y56940764D01*
X51351807Y57022818D01*
X51601100Y57156068D01*
X51819607Y57335392D01*
X51998932Y57553899D01*
X52132182Y57803192D01*
X52214236Y58073691D01*
X52235000Y58284508D01*
X52235000Y59225491D01*
X52214236Y59436309D01*
X52149415Y59650000D01*
X69011928Y59650000D01*
X69024188Y59525518D01*
X69060498Y59405820D01*
X69119463Y59295506D01*
X69198815Y59198815D01*
X69295506Y59119463D01*
X69405820Y59060498D01*
X69525518Y59024188D01*
X69650000Y59011928D01*
X70214250Y59015000D01*
X70373000Y59173750D01*
X70373000Y60373000D01*
X69173750Y60373000D01*
X69015000Y60214250D01*
X69011928Y59650000D01*
X52149415Y59650000D01*
X52132182Y59706808D01*
X51998932Y59956101D01*
X51819608Y60174608D01*
X51601101Y60353932D01*
X51351808Y60487182D01*
X51081309Y60569236D01*
X50800000Y60596943D01*
X50518692Y60569236D01*
X50248193Y60487182D01*
X49998900Y60353932D01*
X49780393Y60174608D01*
X49601068Y59956101D01*
X49530000Y59823142D01*
X49458932Y59956101D01*
X49279608Y60174608D01*
X49061101Y60353932D01*
X48811808Y60487182D01*
X48541309Y60569236D01*
X48260000Y60596943D01*
X47978692Y60569236D01*
X47708193Y60487182D01*
X47458900Y60353932D01*
X47240393Y60174608D01*
X47061068Y59956101D01*
X46990000Y59823142D01*
X46918932Y59956101D01*
X46739608Y60174608D01*
X46521101Y60353932D01*
X46271808Y60487182D01*
X46001309Y60569236D01*
X45720000Y60596943D01*
X45438692Y60569236D01*
X45168193Y60487182D01*
X44918900Y60353932D01*
X44700393Y60174608D01*
X44521068Y59956101D01*
X44450000Y59823142D01*
X44378932Y59956101D01*
X44199608Y60174608D01*
X43981101Y60353932D01*
X43744594Y60480348D01*
X44614246Y61350000D01*
X69011928Y61350000D01*
X69015000Y60785750D01*
X69173750Y60627000D01*
X70373000Y60627000D01*
X70373000Y61826250D01*
X70214250Y61985000D01*
X69650000Y61988072D01*
X69525518Y61975812D01*
X69405820Y61939502D01*
X69295506Y61880537D01*
X69198815Y61801185D01*
X69119463Y61704494D01*
X69060498Y61594180D01*
X69024188Y61474482D01*
X69011928Y61350000D01*
X44614246Y61350000D01*
X48175581Y64911335D01*
X53175000Y64911335D01*
X53175000Y64628665D01*
X53230147Y64351426D01*
X53338320Y64090273D01*
X53495363Y63855241D01*
X53695241Y63655363D01*
X53930273Y63498320D01*
X54191426Y63390147D01*
X54468665Y63335000D01*
X54751335Y63335000D01*
X55028574Y63390147D01*
X55289727Y63498320D01*
X55524759Y63655363D01*
X55724637Y63855241D01*
X55881680Y64090273D01*
X55989853Y64351426D01*
X56045000Y64628665D01*
X56045000Y64911335D01*
X55989853Y65188574D01*
X55881680Y65449727D01*
X55724637Y65684759D01*
X55524759Y65884637D01*
X55324131Y66018692D01*
X55351514Y66033329D01*
X55423097Y66277298D01*
X54610000Y67090395D01*
X53796903Y66277298D01*
X53868486Y66033329D01*
X53897341Y66019676D01*
X53695241Y65884637D01*
X53495363Y65684759D01*
X53338320Y65449727D01*
X53230147Y65188574D01*
X53175000Y64911335D01*
X48175581Y64911335D01*
X50463734Y67199488D01*
X53169783Y67199488D01*
X53211213Y66919870D01*
X53306397Y66653708D01*
X53373329Y66528486D01*
X53617298Y66456903D01*
X54430395Y67270000D01*
X54789605Y67270000D01*
X55602702Y66456903D01*
X55846671Y66528486D01*
X55967571Y66783996D01*
X56036300Y67058184D01*
X56050217Y67340512D01*
X56008787Y67620130D01*
X55913603Y67886292D01*
X55846671Y68011514D01*
X55602702Y68083097D01*
X54789605Y67270000D01*
X54430395Y67270000D01*
X53617298Y68083097D01*
X53373329Y68011514D01*
X53252429Y67756004D01*
X53183700Y67481816D01*
X53169783Y67199488D01*
X50463734Y67199488D01*
X51526948Y68262702D01*
X53796903Y68262702D01*
X54610000Y67449605D01*
X55423097Y68262702D01*
X55351514Y68506671D01*
X55096004Y68627571D01*
X54821816Y68696300D01*
X54539488Y68710217D01*
X54259870Y68668787D01*
X53993708Y68573603D01*
X53868486Y68506671D01*
X53796903Y68262702D01*
X51526948Y68262702D01*
X55604193Y72339946D01*
X55632238Y72362962D01*
X55724087Y72474880D01*
X55792337Y72602567D01*
X55834365Y72741115D01*
X55834446Y72741938D01*
X55848556Y72885199D01*
X55845000Y72921304D01*
X55845000Y94511928D01*
X55960000Y94511928D01*
X56084482Y94524188D01*
X56204180Y94560498D01*
X56314494Y94619463D01*
X56411185Y94698815D01*
X56490537Y94795506D01*
X56549502Y94905820D01*
X56571513Y94978380D01*
X56703368Y94846525D01*
X56946589Y94684010D01*
X57216842Y94572068D01*
X57503740Y94515000D01*
X57796260Y94515000D01*
X58083158Y94572068D01*
X58353411Y94684010D01*
X58596632Y94846525D01*
X58803475Y95053368D01*
X58920000Y95227760D01*
X59036525Y95053368D01*
X59243368Y94846525D01*
X59486589Y94684010D01*
X59756842Y94572068D01*
X60043740Y94515000D01*
X60336260Y94515000D01*
X60623158Y94572068D01*
X60893411Y94684010D01*
X61136632Y94846525D01*
X61343475Y95053368D01*
X61505990Y95296589D01*
X61617932Y95566842D01*
X61675000Y95853740D01*
X61675000Y96146260D01*
X61617932Y96433158D01*
X61521379Y96666260D01*
X65190000Y96666260D01*
X65190000Y96373740D01*
X65247068Y96086842D01*
X65359010Y95816589D01*
X65521525Y95573368D01*
X65728368Y95366525D01*
X65902760Y95250000D01*
X65728368Y95133475D01*
X65521525Y94926632D01*
X65359010Y94683411D01*
X65247068Y94413158D01*
X65190000Y94126260D01*
X65190000Y93833740D01*
X65247068Y93546842D01*
X65359010Y93276589D01*
X65521525Y93033368D01*
X65728368Y92826525D01*
X65971589Y92664010D01*
X66241842Y92552068D01*
X66528740Y92495000D01*
X66821260Y92495000D01*
X67108158Y92552068D01*
X67378411Y92664010D01*
X67621632Y92826525D01*
X67828475Y93033368D01*
X67990990Y93276589D01*
X68102932Y93546842D01*
X68160000Y93833740D01*
X68160000Y94126260D01*
X68102932Y94413158D01*
X67990990Y94683411D01*
X67828475Y94926632D01*
X67621632Y95133475D01*
X67447240Y95250000D01*
X67621632Y95366525D01*
X67828475Y95573368D01*
X67990990Y95816589D01*
X68102932Y96086842D01*
X68160000Y96373740D01*
X68160000Y96666260D01*
X85510000Y96666260D01*
X85510000Y96373740D01*
X85567068Y96086842D01*
X85679010Y95816589D01*
X85841525Y95573368D01*
X86048368Y95366525D01*
X86222760Y95250000D01*
X86048368Y95133475D01*
X85841525Y94926632D01*
X85679010Y94683411D01*
X85567068Y94413158D01*
X85510000Y94126260D01*
X85510000Y93833740D01*
X85567068Y93546842D01*
X85679010Y93276589D01*
X85841525Y93033368D01*
X86048368Y92826525D01*
X86291589Y92664010D01*
X86561842Y92552068D01*
X86848740Y92495000D01*
X87141260Y92495000D01*
X87428158Y92552068D01*
X87698411Y92664010D01*
X87941632Y92826525D01*
X88148475Y93033368D01*
X88310990Y93276589D01*
X88422932Y93546842D01*
X88480000Y93833740D01*
X88480000Y94126260D01*
X88422932Y94413158D01*
X88310990Y94683411D01*
X88148475Y94926632D01*
X87941632Y95133475D01*
X87811947Y95220128D01*
X92765000Y95220128D01*
X92765000Y94779872D01*
X92850890Y94348075D01*
X93019369Y93941331D01*
X93263962Y93575271D01*
X93575271Y93263962D01*
X93941331Y93019369D01*
X94348075Y92850890D01*
X94779872Y92765000D01*
X95220128Y92765000D01*
X95651925Y92850890D01*
X96058669Y93019369D01*
X96424729Y93263962D01*
X96736038Y93575271D01*
X96980631Y93941331D01*
X97149110Y94348075D01*
X97235000Y94779872D01*
X97235000Y95220128D01*
X97149110Y95651925D01*
X96980631Y96058669D01*
X96736038Y96424729D01*
X96424729Y96736038D01*
X96058669Y96980631D01*
X95651925Y97149110D01*
X95220128Y97235000D01*
X94779872Y97235000D01*
X94348075Y97149110D01*
X93941331Y96980631D01*
X93575271Y96736038D01*
X93263962Y96424729D01*
X93019369Y96058669D01*
X92850890Y95651925D01*
X92765000Y95220128D01*
X87811947Y95220128D01*
X87767240Y95250000D01*
X87941632Y95366525D01*
X88148475Y95573368D01*
X88310990Y95816589D01*
X88422932Y96086842D01*
X88480000Y96373740D01*
X88480000Y96666260D01*
X88422932Y96953158D01*
X88310990Y97223411D01*
X88148475Y97466632D01*
X87941632Y97673475D01*
X87698411Y97835990D01*
X87428158Y97947932D01*
X87141260Y98005000D01*
X86848740Y98005000D01*
X86561842Y97947932D01*
X86291589Y97835990D01*
X86048368Y97673475D01*
X85841525Y97466632D01*
X85679010Y97223411D01*
X85567068Y96953158D01*
X85510000Y96666260D01*
X68160000Y96666260D01*
X68102932Y96953158D01*
X67990990Y97223411D01*
X67828475Y97466632D01*
X67621632Y97673475D01*
X67378411Y97835990D01*
X67108158Y97947932D01*
X66821260Y98005000D01*
X66528740Y98005000D01*
X66241842Y97947932D01*
X65971589Y97835990D01*
X65728368Y97673475D01*
X65521525Y97466632D01*
X65359010Y97223411D01*
X65247068Y96953158D01*
X65190000Y96666260D01*
X61521379Y96666260D01*
X61505990Y96703411D01*
X61343475Y96946632D01*
X61136632Y97153475D01*
X60893411Y97315990D01*
X60623158Y97427932D01*
X60336260Y97485000D01*
X60043740Y97485000D01*
X59756842Y97427932D01*
X59486589Y97315990D01*
X59243368Y97153475D01*
X59036525Y96946632D01*
X58920000Y96772240D01*
X58803475Y96946632D01*
X58596632Y97153475D01*
X58353411Y97315990D01*
X58083158Y97427932D01*
X57796260Y97485000D01*
X57503740Y97485000D01*
X57216842Y97427932D01*
X56946589Y97315990D01*
X56703368Y97153475D01*
X56571513Y97021620D01*
X56549502Y97094180D01*
X56490537Y97204494D01*
X56411185Y97301185D01*
X56314494Y97380537D01*
X56204180Y97439502D01*
X56084482Y97475812D01*
X55960000Y97488072D01*
X54260000Y97488072D01*
X54135518Y97475812D01*
X54015820Y97439502D01*
X53905506Y97380537D01*
X53808815Y97301185D01*
X53729463Y97204494D01*
X53670498Y97094180D01*
X53634188Y96974482D01*
X53621928Y96850000D01*
X53621928Y95150000D01*
X53634188Y95025518D01*
X53670498Y94905820D01*
X53729463Y94795506D01*
X53808815Y94698815D01*
X53905506Y94619463D01*
X54015820Y94560498D01*
X54135518Y94524188D01*
X54260000Y94511928D01*
X54375000Y94511928D01*
X54375001Y73189648D01*
X41495029Y60309675D01*
X41441101Y60353932D01*
X41191808Y60487182D01*
X40921309Y60569236D01*
X40640000Y60596943D01*
X40358692Y60569236D01*
X40088193Y60487182D01*
X39944300Y60410270D01*
X39944300Y71349304D01*
X39947855Y71385401D01*
X39944300Y71421498D01*
X39944300Y71421505D01*
X39933665Y71529485D01*
X39891637Y71668033D01*
X39823387Y71795720D01*
X39731538Y71907638D01*
X39703493Y71930654D01*
X39086184Y72547962D01*
X39119607Y72575392D01*
X39298932Y72793899D01*
X39370000Y72926858D01*
X39441068Y72793900D01*
X39620392Y72575393D01*
X39838899Y72396068D01*
X40088192Y72262818D01*
X40358691Y72180764D01*
X40640000Y72153057D01*
X40921308Y72180764D01*
X41191807Y72262818D01*
X41441100Y72396068D01*
X41659607Y72575392D01*
X41838932Y72793899D01*
X41910000Y72926858D01*
X41981068Y72793900D01*
X42160392Y72575393D01*
X42378899Y72396068D01*
X42628192Y72262818D01*
X42898691Y72180764D01*
X43180000Y72153057D01*
X43461308Y72180764D01*
X43731807Y72262818D01*
X43981100Y72396068D01*
X44199607Y72575392D01*
X44378932Y72793899D01*
X44450000Y72926858D01*
X44521068Y72793900D01*
X44700392Y72575393D01*
X44918899Y72396068D01*
X45168192Y72262818D01*
X45438691Y72180764D01*
X45720000Y72153057D01*
X46001308Y72180764D01*
X46271807Y72262818D01*
X46521100Y72396068D01*
X46739607Y72575392D01*
X46918932Y72793899D01*
X46990000Y72926858D01*
X47061068Y72793900D01*
X47240392Y72575393D01*
X47458899Y72396068D01*
X47708192Y72262818D01*
X47978691Y72180764D01*
X48260000Y72153057D01*
X48541308Y72180764D01*
X48811807Y72262818D01*
X49061100Y72396068D01*
X49279607Y72575392D01*
X49372419Y72688483D01*
X49374188Y72670518D01*
X49410498Y72550820D01*
X49469463Y72440506D01*
X49548815Y72343815D01*
X49645506Y72264463D01*
X49755820Y72205498D01*
X49875518Y72169188D01*
X50000000Y72156928D01*
X51600000Y72156928D01*
X51724482Y72169188D01*
X51844180Y72205498D01*
X51954494Y72264463D01*
X52051185Y72343815D01*
X52130537Y72440506D01*
X52189502Y72550820D01*
X52225812Y72670518D01*
X52238072Y72795000D01*
X52238072Y75195000D01*
X52225812Y75319482D01*
X52189502Y75439180D01*
X52130537Y75549494D01*
X52051185Y75646185D01*
X51954494Y75725537D01*
X51844180Y75784502D01*
X51724482Y75820812D01*
X51600000Y75833072D01*
X50000000Y75833072D01*
X49875518Y75820812D01*
X49755820Y75784502D01*
X49645506Y75725537D01*
X49548815Y75646185D01*
X49469463Y75549494D01*
X49410498Y75439180D01*
X49374188Y75319482D01*
X49372419Y75301518D01*
X49279608Y75414608D01*
X49061101Y75593932D01*
X48984826Y75634702D01*
X48984365Y75639385D01*
X48942337Y75777933D01*
X48874087Y75905620D01*
X48782238Y76017538D01*
X48754193Y76040554D01*
X47575000Y77219746D01*
X47575000Y94590117D01*
X47786632Y94731525D01*
X47993475Y94938368D01*
X48110000Y95112760D01*
X48226525Y94938368D01*
X48433368Y94731525D01*
X48676589Y94569010D01*
X48946842Y94457068D01*
X49233740Y94400000D01*
X49526260Y94400000D01*
X49813158Y94457068D01*
X50083411Y94569010D01*
X50326632Y94731525D01*
X50533475Y94938368D01*
X50695990Y95181589D01*
X50807932Y95451842D01*
X50865000Y95738740D01*
X50865000Y96031260D01*
X50807932Y96318158D01*
X50695990Y96588411D01*
X50533475Y96831632D01*
X50326632Y97038475D01*
X50083411Y97200990D01*
X49813158Y97312932D01*
X49526260Y97370000D01*
X49233740Y97370000D01*
X48946842Y97312932D01*
X48676589Y97200990D01*
X48433368Y97038475D01*
X48226525Y96831632D01*
X48110000Y96657240D01*
X47993475Y96831632D01*
X47786632Y97038475D01*
X47543411Y97200990D01*
X47273158Y97312932D01*
X46986260Y97370000D01*
X46693740Y97370000D01*
X46406842Y97312932D01*
X46136589Y97200990D01*
X45893368Y97038475D01*
X45761513Y96906620D01*
X45739502Y96979180D01*
X45680537Y97089494D01*
X45601185Y97186185D01*
X45504494Y97265537D01*
X45394180Y97324502D01*
X45274482Y97360812D01*
X45150000Y97373072D01*
X44585750Y97370000D01*
X44427000Y97211250D01*
X44427000Y96012000D01*
X44447000Y96012000D01*
X44447000Y95758000D01*
X44427000Y95758000D01*
X44427000Y94558750D01*
X44585750Y94400000D01*
X45150000Y94396928D01*
X45274482Y94409188D01*
X45394180Y94445498D01*
X45504494Y94504463D01*
X45601185Y94583815D01*
X45680537Y94680506D01*
X45739502Y94790820D01*
X45761513Y94863380D01*
X45893368Y94731525D01*
X46105000Y94590117D01*
X46105001Y76951415D01*
X46101444Y76915300D01*
X46115635Y76771215D01*
X46152406Y76650000D01*
X46157664Y76632667D01*
X46225914Y76504980D01*
X46317763Y76393062D01*
X46345808Y76370046D01*
X47273816Y75442037D01*
X47240393Y75414608D01*
X47061068Y75196101D01*
X46990000Y75063142D01*
X46918932Y75196101D01*
X46739608Y75414608D01*
X46521101Y75593932D01*
X46444826Y75634702D01*
X46444365Y75639385D01*
X46402337Y75777934D01*
X46334087Y75905620D01*
X46265253Y75989494D01*
X46242238Y76017538D01*
X46214193Y76040554D01*
X45011558Y77243188D01*
X44988538Y77271238D01*
X44876620Y77363087D01*
X44748933Y77431337D01*
X44610385Y77473365D01*
X44502405Y77484000D01*
X44466300Y77487556D01*
X44430195Y77484000D01*
X18028594Y77484000D01*
X17992499Y77487555D01*
X17956404Y77484000D01*
X17956395Y77484000D01*
X17848415Y77473365D01*
X17709867Y77431337D01*
X17582180Y77363087D01*
X17470262Y77271238D01*
X17447246Y77243193D01*
X12942612Y72738558D01*
X12939838Y72741938D01*
X12911793Y72764954D01*
X9380782Y76295964D01*
X9439502Y76405820D01*
X9475812Y76525518D01*
X9488072Y76650000D01*
X9488072Y78350000D01*
X9475812Y78474482D01*
X9439502Y78594180D01*
X9380537Y78704494D01*
X9301185Y78801185D01*
X9204494Y78880537D01*
X9094180Y78939502D01*
X8974482Y78975812D01*
X8850000Y78988072D01*
X7150000Y78988072D01*
X7025518Y78975812D01*
X6905820Y78939502D01*
X6795506Y78880537D01*
X6698815Y78801185D01*
X6619463Y78704494D01*
X6560498Y78594180D01*
X6538487Y78521620D01*
X6406632Y78653475D01*
X6163411Y78815990D01*
X5893158Y78927932D01*
X5606260Y78985000D01*
X5313740Y78985000D01*
X5026842Y78927932D01*
X4756589Y78815990D01*
X4513368Y78653475D01*
X4306525Y78446632D01*
X4144010Y78203411D01*
X4032068Y77933158D01*
X3975000Y77646260D01*
X3975000Y77353740D01*
X4032068Y77066842D01*
X4144010Y76796589D01*
X4306525Y76553368D01*
X4513368Y76346525D01*
X4687760Y76230000D01*
X4513368Y76113475D01*
X4306525Y75906632D01*
X4144010Y75663411D01*
X4032068Y75393158D01*
X3975000Y75106260D01*
X3975000Y74813740D01*
X4032068Y74526842D01*
X4144010Y74256589D01*
X4306525Y74013368D01*
X4513368Y73806525D01*
X4695534Y73684805D01*
X4578645Y73615178D01*
X4362412Y73420269D01*
X4188359Y73186920D01*
X4063175Y72924099D01*
X4018524Y72776890D01*
X4139845Y72547000D01*
X5333000Y72547000D01*
X5333000Y72567000D01*
X5587000Y72567000D01*
X5587000Y72547000D01*
X5607000Y72547000D01*
X5607000Y72293000D01*
X5587000Y72293000D01*
X5587000Y72273000D01*
X5333000Y72273000D01*
X5333000Y72293000D01*
X4139845Y72293000D01*
X4018524Y72063110D01*
X4063175Y71915901D01*
X4188359Y71653080D01*
X4362412Y71419731D01*
X4578645Y71224822D01*
X4695534Y71155195D01*
X4513368Y71033475D01*
X4306525Y70826632D01*
X4144010Y70583411D01*
X4032068Y70313158D01*
X3975000Y70026260D01*
X3975000Y69733740D01*
X4032068Y69446842D01*
X4144010Y69176589D01*
X4306525Y68933368D01*
X4513368Y68726525D01*
X4695534Y68604805D01*
X4578645Y68535178D01*
X4362412Y68340269D01*
X4188359Y68106920D01*
X4063175Y67844099D01*
X4018524Y67696890D01*
X4139845Y67467000D01*
X5333000Y67467000D01*
X5333000Y67487000D01*
X5587000Y67487000D01*
X5587000Y67467000D01*
X5607000Y67467000D01*
X5607000Y67213000D01*
X5587000Y67213000D01*
X5587000Y67193000D01*
X5333000Y67193000D01*
X5333000Y67213000D01*
X4139845Y67213000D01*
X4018524Y66983110D01*
X4063175Y66835901D01*
X4188359Y66573080D01*
X4362412Y66339731D01*
X4578645Y66144822D01*
X4695534Y66075195D01*
X4513368Y65953475D01*
X4306525Y65746632D01*
X4144010Y65503411D01*
X4032068Y65233158D01*
X3975000Y64946260D01*
X3975000Y64653740D01*
X4032068Y64366842D01*
X4144010Y64096589D01*
X4306525Y63853368D01*
X4513368Y63646525D01*
X4695534Y63524805D01*
X4578645Y63455178D01*
X4362412Y63260269D01*
X4188359Y63026920D01*
X4063175Y62764099D01*
X4018524Y62616890D01*
X4139845Y62387000D01*
X5333000Y62387000D01*
X5333000Y62407000D01*
X5587000Y62407000D01*
X5587000Y62387000D01*
X5607000Y62387000D01*
X5607000Y62133000D01*
X5587000Y62133000D01*
X5587000Y62113000D01*
X5333000Y62113000D01*
X5333000Y62133000D01*
X4139845Y62133000D01*
X4018524Y61903110D01*
X4063175Y61755901D01*
X4188359Y61493080D01*
X4362412Y61259731D01*
X4578645Y61064822D01*
X4695534Y60995195D01*
X4513368Y60873475D01*
X4306525Y60666632D01*
X4144010Y60423411D01*
X4032068Y60153158D01*
X3975000Y59866260D01*
X3975000Y59573740D01*
X4032068Y59286842D01*
X4144010Y59016589D01*
X4306525Y58773368D01*
X4513368Y58566525D01*
X4695534Y58444805D01*
X4578645Y58375178D01*
X4362412Y58180269D01*
X4188359Y57946920D01*
X4063175Y57684099D01*
X4018524Y57536890D01*
X4139845Y57307000D01*
X5333000Y57307000D01*
X5333000Y57327000D01*
X5587000Y57327000D01*
X5587000Y57307000D01*
X5607000Y57307000D01*
X5607000Y57053000D01*
X5587000Y57053000D01*
X5587000Y57033000D01*
X5333000Y57033000D01*
X5333000Y57053000D01*
X4139845Y57053000D01*
X4018524Y56823110D01*
X4063175Y56675901D01*
X4188359Y56413080D01*
X4362412Y56179731D01*
X4578645Y55984822D01*
X4695534Y55915195D01*
X4513368Y55793475D01*
X4306525Y55586632D01*
X4144010Y55343411D01*
X4032068Y55073158D01*
X3975000Y54786260D01*
X3975000Y54493740D01*
X4032068Y54206842D01*
X4144010Y53936589D01*
X4306525Y53693368D01*
X4346173Y53653720D01*
X2670808Y51978354D01*
X2642762Y51955337D01*
X2550913Y51843419D01*
X2482663Y51715732D01*
X2467365Y51665300D01*
X2440635Y51577185D01*
X2426444Y51433100D01*
X660000Y51433100D01*
X660000Y82677298D01*
X36406903Y82677298D01*
X36478486Y82433329D01*
X36733996Y82312429D01*
X37008184Y82243700D01*
X37290512Y82229783D01*
X37570130Y82271213D01*
X37836292Y82366397D01*
X37961514Y82433329D01*
X38033097Y82677298D01*
X37220000Y83490395D01*
X36406903Y82677298D01*
X660000Y82677298D01*
X660000Y86575000D01*
X8671928Y86575000D01*
X8671928Y84875000D01*
X8684188Y84750518D01*
X8720498Y84630820D01*
X8779463Y84520506D01*
X8858815Y84423815D01*
X8955506Y84344463D01*
X9065820Y84285498D01*
X9185518Y84249188D01*
X9310000Y84236928D01*
X11010000Y84236928D01*
X11134482Y84249188D01*
X11254180Y84285498D01*
X11364494Y84344463D01*
X11461185Y84423815D01*
X11540537Y84520506D01*
X11599502Y84630820D01*
X11635812Y84750518D01*
X11648072Y84875000D01*
X11648072Y86575000D01*
X11635812Y86699482D01*
X11599502Y86819180D01*
X11540537Y86929494D01*
X11461185Y87026185D01*
X11364494Y87105537D01*
X11254180Y87164502D01*
X11181620Y87186513D01*
X11313475Y87318368D01*
X11475990Y87561589D01*
X11587932Y87831842D01*
X11645000Y88118740D01*
X11645000Y88411260D01*
X11587932Y88698158D01*
X11477403Y88965000D01*
X16406928Y88965000D01*
X16406928Y87215000D01*
X16436001Y86919814D01*
X16522104Y86635972D01*
X16661927Y86374382D01*
X16850097Y86145097D01*
X17079382Y85956927D01*
X17340972Y85817104D01*
X17624814Y85731001D01*
X17920000Y85701928D01*
X19670000Y85701928D01*
X19965186Y85731001D01*
X20249028Y85817104D01*
X20510618Y85956927D01*
X20739903Y86145097D01*
X20928073Y86374382D01*
X21067896Y86635972D01*
X21106928Y86764643D01*
X21106928Y83340000D01*
X21119188Y83215518D01*
X21155498Y83095820D01*
X21214463Y82985506D01*
X21293815Y82888815D01*
X21390506Y82809463D01*
X21500820Y82750498D01*
X21620518Y82714188D01*
X21745000Y82701928D01*
X25245000Y82701928D01*
X25369482Y82714188D01*
X25489180Y82750498D01*
X25599494Y82809463D01*
X25696185Y82888815D01*
X25775537Y82985506D01*
X25834502Y83095820D01*
X25870812Y83215518D01*
X25883072Y83340000D01*
X25883072Y83599488D01*
X35779783Y83599488D01*
X35821213Y83319870D01*
X35916397Y83053708D01*
X35983329Y82928486D01*
X36227298Y82856903D01*
X37040395Y83670000D01*
X37399605Y83670000D01*
X38212702Y82856903D01*
X38456671Y82928486D01*
X38577571Y83183996D01*
X38646300Y83458184D01*
X38660217Y83740512D01*
X38618787Y84020130D01*
X38523603Y84286292D01*
X38456671Y84411514D01*
X38212702Y84483097D01*
X37399605Y83670000D01*
X37040395Y83670000D01*
X36227298Y84483097D01*
X35983329Y84411514D01*
X35862429Y84156004D01*
X35793700Y83881816D01*
X35779783Y83599488D01*
X25883072Y83599488D01*
X25883072Y84355000D01*
X26716195Y84355000D01*
X26752300Y84351444D01*
X26788405Y84355000D01*
X26896385Y84365635D01*
X27034933Y84407663D01*
X27162620Y84475913D01*
X27274538Y84567762D01*
X27297559Y84595813D01*
X29671746Y86970000D01*
X35781928Y86970000D01*
X35781928Y85370000D01*
X35794188Y85245518D01*
X35830498Y85125820D01*
X35889463Y85015506D01*
X35968815Y84918815D01*
X36065506Y84839463D01*
X36175820Y84780498D01*
X36295518Y84744188D01*
X36420000Y84731928D01*
X36427215Y84731928D01*
X36406903Y84662702D01*
X37220000Y83849605D01*
X38033097Y84662702D01*
X38012785Y84731928D01*
X38020000Y84731928D01*
X38144482Y84744188D01*
X38264180Y84780498D01*
X38374494Y84839463D01*
X38471185Y84918815D01*
X38550537Y85015506D01*
X38609502Y85125820D01*
X38645812Y85245518D01*
X38658072Y85370000D01*
X38658072Y86970000D01*
X38645812Y87094482D01*
X38609502Y87214180D01*
X38550537Y87324494D01*
X38471185Y87421185D01*
X38374494Y87500537D01*
X38264180Y87559502D01*
X38144482Y87595812D01*
X38020000Y87608072D01*
X36420000Y87608072D01*
X36295518Y87595812D01*
X36175820Y87559502D01*
X36065506Y87500537D01*
X35968815Y87421185D01*
X35889463Y87324494D01*
X35830498Y87214180D01*
X35794188Y87094482D01*
X35781928Y86970000D01*
X29671746Y86970000D01*
X37448320Y94746573D01*
X37463368Y94731525D01*
X37706589Y94569010D01*
X37976842Y94457068D01*
X38263740Y94400000D01*
X38556260Y94400000D01*
X38843158Y94457068D01*
X39113411Y94569010D01*
X39356632Y94731525D01*
X39563475Y94938368D01*
X39628042Y95035000D01*
X42811928Y95035000D01*
X42824188Y94910518D01*
X42860498Y94790820D01*
X42919463Y94680506D01*
X42998815Y94583815D01*
X43095506Y94504463D01*
X43205820Y94445498D01*
X43325518Y94409188D01*
X43450000Y94396928D01*
X44014250Y94400000D01*
X44173000Y94558750D01*
X44173000Y95758000D01*
X42973750Y95758000D01*
X42815000Y95599250D01*
X42811928Y95035000D01*
X39628042Y95035000D01*
X39725990Y95181589D01*
X39837932Y95451842D01*
X39895000Y95738740D01*
X39895000Y96031260D01*
X39837932Y96318158D01*
X39725990Y96588411D01*
X39628043Y96735000D01*
X42811928Y96735000D01*
X42815000Y96170750D01*
X42973750Y96012000D01*
X44173000Y96012000D01*
X44173000Y97211250D01*
X44014250Y97370000D01*
X43450000Y97373072D01*
X43325518Y97360812D01*
X43205820Y97324502D01*
X43095506Y97265537D01*
X42998815Y97186185D01*
X42919463Y97089494D01*
X42860498Y96979180D01*
X42824188Y96859482D01*
X42811928Y96735000D01*
X39628043Y96735000D01*
X39563475Y96831632D01*
X39356632Y97038475D01*
X39113411Y97200990D01*
X38843158Y97312932D01*
X38556260Y97370000D01*
X38263740Y97370000D01*
X37976842Y97312932D01*
X37706589Y97200990D01*
X37463368Y97038475D01*
X37256525Y96831632D01*
X37140000Y96657240D01*
X37023475Y96831632D01*
X36816632Y97038475D01*
X36573411Y97200990D01*
X36303158Y97312932D01*
X36016260Y97370000D01*
X35723740Y97370000D01*
X35436842Y97312932D01*
X35166589Y97200990D01*
X34923368Y97038475D01*
X34791513Y96906620D01*
X34769502Y96979180D01*
X34710537Y97089494D01*
X34631185Y97186185D01*
X34534494Y97265537D01*
X34424180Y97324502D01*
X34304482Y97360812D01*
X34180000Y97373072D01*
X32480000Y97373072D01*
X32355518Y97360812D01*
X32235820Y97324502D01*
X32125506Y97265537D01*
X32028815Y97186185D01*
X31949463Y97089494D01*
X31890498Y96979180D01*
X31854188Y96859482D01*
X31841928Y96735000D01*
X31841928Y95035000D01*
X31854188Y94910518D01*
X31890498Y94790820D01*
X31949463Y94680506D01*
X32028815Y94583815D01*
X32125506Y94504463D01*
X32235820Y94445498D01*
X32355518Y94409188D01*
X32480000Y94396928D01*
X34180000Y94396928D01*
X34304482Y94409188D01*
X34424180Y94445498D01*
X34534494Y94504463D01*
X34631185Y94583815D01*
X34710537Y94680506D01*
X34769502Y94790820D01*
X34791513Y94863380D01*
X34923368Y94731525D01*
X35166589Y94569010D01*
X35184461Y94561607D01*
X26447854Y85825000D01*
X25883072Y85825000D01*
X25883072Y86840000D01*
X25870812Y86964482D01*
X25834502Y87084180D01*
X25775537Y87194494D01*
X25696185Y87291185D01*
X25599494Y87370537D01*
X25489180Y87429502D01*
X25369482Y87465812D01*
X25245000Y87478072D01*
X21745000Y87478072D01*
X21620518Y87465812D01*
X21500820Y87429502D01*
X21390506Y87370537D01*
X21293815Y87291185D01*
X21214463Y87194494D01*
X21173506Y87117869D01*
X21183072Y87215000D01*
X21183072Y88965000D01*
X21153999Y89260186D01*
X21067896Y89544028D01*
X21043324Y89590000D01*
X21106928Y89590000D01*
X21119188Y89465518D01*
X21155498Y89345820D01*
X21214463Y89235506D01*
X21293815Y89138815D01*
X21390506Y89059463D01*
X21500820Y89000498D01*
X21620518Y88964188D01*
X21745000Y88951928D01*
X23209250Y88955000D01*
X23368000Y89113750D01*
X23368000Y90963000D01*
X23622000Y90963000D01*
X23622000Y89113750D01*
X23780750Y88955000D01*
X25245000Y88951928D01*
X25369482Y88964188D01*
X25489180Y89000498D01*
X25599494Y89059463D01*
X25696185Y89138815D01*
X25775537Y89235506D01*
X25834502Y89345820D01*
X25870812Y89465518D01*
X25883072Y89590000D01*
X25880000Y90804250D01*
X25721250Y90963000D01*
X23622000Y90963000D01*
X23368000Y90963000D01*
X21268750Y90963000D01*
X21110000Y90804250D01*
X21106928Y89590000D01*
X21043324Y89590000D01*
X20928073Y89805618D01*
X20739903Y90034903D01*
X20510618Y90223073D01*
X20249028Y90362896D01*
X19965186Y90448999D01*
X19670000Y90478072D01*
X17920000Y90478072D01*
X17624814Y90448999D01*
X17340972Y90362896D01*
X17079382Y90223073D01*
X16850097Y90034903D01*
X16661927Y89805618D01*
X16522104Y89544028D01*
X16436001Y89260186D01*
X16406928Y88965000D01*
X11477403Y88965000D01*
X11475990Y88968411D01*
X11313475Y89211632D01*
X11106632Y89418475D01*
X10863411Y89580990D01*
X10593158Y89692932D01*
X10306260Y89750000D01*
X10013740Y89750000D01*
X9726842Y89692932D01*
X9456589Y89580990D01*
X9213368Y89418475D01*
X9006525Y89211632D01*
X8844010Y88968411D01*
X8732068Y88698158D01*
X8675000Y88411260D01*
X8675000Y88118740D01*
X8732068Y87831842D01*
X8844010Y87561589D01*
X9006525Y87318368D01*
X9138380Y87186513D01*
X9065820Y87164502D01*
X8955506Y87105537D01*
X8858815Y87026185D01*
X8779463Y86929494D01*
X8720498Y86819180D01*
X8684188Y86699482D01*
X8671928Y86575000D01*
X660000Y86575000D01*
X660000Y92590000D01*
X21106928Y92590000D01*
X21110000Y91375750D01*
X21268750Y91217000D01*
X23368000Y91217000D01*
X23368000Y93066250D01*
X23622000Y93066250D01*
X23622000Y91217000D01*
X25721250Y91217000D01*
X25880000Y91375750D01*
X25883072Y92590000D01*
X25870812Y92714482D01*
X25834502Y92834180D01*
X25775537Y92944494D01*
X25696185Y93041185D01*
X25599494Y93120537D01*
X25489180Y93179502D01*
X25369482Y93215812D01*
X25245000Y93228072D01*
X23780750Y93225000D01*
X23622000Y93066250D01*
X23368000Y93066250D01*
X23209250Y93225000D01*
X21745000Y93228072D01*
X21620518Y93215812D01*
X21500820Y93179502D01*
X21390506Y93120537D01*
X21293815Y93041185D01*
X21214463Y92944494D01*
X21155498Y92834180D01*
X21119188Y92714482D01*
X21106928Y92590000D01*
X660000Y92590000D01*
X660000Y95220128D01*
X2765000Y95220128D01*
X2765000Y94779872D01*
X2850890Y94348075D01*
X3019369Y93941331D01*
X3263962Y93575271D01*
X3575271Y93263962D01*
X3941331Y93019369D01*
X4348075Y92850890D01*
X4779872Y92765000D01*
X5220128Y92765000D01*
X5651925Y92850890D01*
X6058669Y93019369D01*
X6424729Y93263962D01*
X6736038Y93575271D01*
X6980631Y93941331D01*
X7149110Y94348075D01*
X7235000Y94779872D01*
X7235000Y95220128D01*
X7149110Y95651925D01*
X6980631Y96058669D01*
X6736038Y96424729D01*
X6424729Y96736038D01*
X6058669Y96980631D01*
X5651925Y97149110D01*
X5220128Y97235000D01*
X4779872Y97235000D01*
X4348075Y97149110D01*
X3941331Y96980631D01*
X3575271Y96736038D01*
X3263962Y96424729D01*
X3019369Y96058669D01*
X2850890Y95651925D01*
X2765000Y95220128D01*
X660000Y95220128D01*
X660000Y99340000D01*
X99340001Y99340000D01*
X99340000Y660000D01*
G37*
G04 #@! TD.AperFunction*
D21*
X19003801Y23382954D02*
X18954523Y23309205D01*
X18887810Y23148145D01*
X18853800Y22977165D01*
X18853800Y22802835D01*
X18887810Y22631855D01*
X18954523Y22470795D01*
X19051376Y22325845D01*
X19174645Y22202576D01*
X19319595Y22105723D01*
X19480655Y22039010D01*
X19651635Y22005000D01*
X19825965Y22005000D01*
X19996945Y22039010D01*
X20158005Y22105723D01*
X20302955Y22202576D01*
X20426224Y22325845D01*
X20523077Y22470795D01*
X20589790Y22631855D01*
X20623800Y22802835D01*
X20623800Y22977165D01*
X20589790Y23148145D01*
X20523077Y23309205D01*
X20473800Y23382953D01*
X20473800Y24916400D01*
X20673691Y24855764D01*
X20955000Y24828057D01*
X21236308Y24855764D01*
X21506807Y24937818D01*
X21756100Y25071068D01*
X21974607Y25250392D01*
X22153932Y25468899D01*
X22225000Y25601858D01*
X22296068Y25468900D01*
X22475392Y25250393D01*
X22693899Y25071068D01*
X22943192Y24937818D01*
X23213691Y24855764D01*
X23495000Y24828057D01*
X23776308Y24855764D01*
X24046807Y24937818D01*
X24191800Y25015319D01*
X24191800Y21059605D01*
X24188244Y21023500D01*
X24201289Y20891053D01*
X24202435Y20879416D01*
X24244463Y20740868D01*
X24312713Y20613181D01*
X24404562Y20501263D01*
X24432608Y20478246D01*
X25048816Y19862037D01*
X25015393Y19834608D01*
X24836068Y19616101D01*
X24765000Y19483142D01*
X24693932Y19616101D01*
X24514608Y19834608D01*
X24296101Y20013932D01*
X24046808Y20147182D01*
X23776309Y20229236D01*
X23495000Y20256943D01*
X23213692Y20229236D01*
X22943193Y20147182D01*
X22693900Y20013932D01*
X22475393Y19834608D01*
X22296068Y19616101D01*
X22227735Y19488259D01*
X22077601Y19717839D01*
X21879895Y19919500D01*
X21646646Y20078715D01*
X21386818Y20189367D01*
X21304039Y20206904D01*
X21082000Y20084915D01*
X21082000Y18542000D01*
X21102000Y18542000D01*
X21102000Y18288000D01*
X21082000Y18288000D01*
X21082000Y16745085D01*
X21304039Y16623096D01*
X21386818Y16640633D01*
X21646646Y16751285D01*
X21879895Y16910500D01*
X22077601Y17112161D01*
X22227735Y17341742D01*
X22296068Y17213900D01*
X22475392Y16995393D01*
X22508816Y16967963D01*
X21656254Y16115400D01*
X9429634Y16115400D01*
X9485000Y16393740D01*
X9485000Y16686260D01*
X9427932Y16973158D01*
X9315990Y17243411D01*
X9153475Y17486632D01*
X9138427Y17501680D01*
X9924747Y18288000D01*
X19520000Y18288000D01*
X19520000Y17888000D01*
X19572350Y17610486D01*
X19677834Y17348517D01*
X19832399Y17112161D01*
X20030105Y16910500D01*
X20263354Y16751285D01*
X20523182Y16640633D01*
X20605961Y16623096D01*
X20828000Y16745085D01*
X20828000Y18288000D01*
X19520000Y18288000D01*
X9924747Y18288000D01*
X10578747Y18942000D01*
X19520000Y18942000D01*
X19520000Y18542000D01*
X20828000Y18542000D01*
X20828000Y20084915D01*
X20605961Y20206904D01*
X20523182Y20189367D01*
X20263354Y20078715D01*
X20030105Y19919500D01*
X19832399Y19717839D01*
X19677834Y19481483D01*
X19572350Y19219514D01*
X19520000Y18942000D01*
X10578747Y18942000D01*
X19003801Y27367054D01*
X19003801Y23382954D01*
G04 #@! TA.AperFunction,Conductor*
D22*
G36*
X19003801Y23382954D02*
G01*
X18954523Y23309205D01*
X18887810Y23148145D01*
X18853800Y22977165D01*
X18853800Y22802835D01*
X18887810Y22631855D01*
X18954523Y22470795D01*
X19051376Y22325845D01*
X19174645Y22202576D01*
X19319595Y22105723D01*
X19480655Y22039010D01*
X19651635Y22005000D01*
X19825965Y22005000D01*
X19996945Y22039010D01*
X20158005Y22105723D01*
X20302955Y22202576D01*
X20426224Y22325845D01*
X20523077Y22470795D01*
X20589790Y22631855D01*
X20623800Y22802835D01*
X20623800Y22977165D01*
X20589790Y23148145D01*
X20523077Y23309205D01*
X20473800Y23382953D01*
X20473800Y24916400D01*
X20673691Y24855764D01*
X20955000Y24828057D01*
X21236308Y24855764D01*
X21506807Y24937818D01*
X21756100Y25071068D01*
X21974607Y25250392D01*
X22153932Y25468899D01*
X22225000Y25601858D01*
X22296068Y25468900D01*
X22475392Y25250393D01*
X22693899Y25071068D01*
X22943192Y24937818D01*
X23213691Y24855764D01*
X23495000Y24828057D01*
X23776308Y24855764D01*
X24046807Y24937818D01*
X24191800Y25015319D01*
X24191800Y21059605D01*
X24188244Y21023500D01*
X24201289Y20891053D01*
X24202435Y20879416D01*
X24244463Y20740868D01*
X24312713Y20613181D01*
X24404562Y20501263D01*
X24432608Y20478246D01*
X25048816Y19862037D01*
X25015393Y19834608D01*
X24836068Y19616101D01*
X24765000Y19483142D01*
X24693932Y19616101D01*
X24514608Y19834608D01*
X24296101Y20013932D01*
X24046808Y20147182D01*
X23776309Y20229236D01*
X23495000Y20256943D01*
X23213692Y20229236D01*
X22943193Y20147182D01*
X22693900Y20013932D01*
X22475393Y19834608D01*
X22296068Y19616101D01*
X22227735Y19488259D01*
X22077601Y19717839D01*
X21879895Y19919500D01*
X21646646Y20078715D01*
X21386818Y20189367D01*
X21304039Y20206904D01*
X21082000Y20084915D01*
X21082000Y18542000D01*
X21102000Y18542000D01*
X21102000Y18288000D01*
X21082000Y18288000D01*
X21082000Y16745085D01*
X21304039Y16623096D01*
X21386818Y16640633D01*
X21646646Y16751285D01*
X21879895Y16910500D01*
X22077601Y17112161D01*
X22227735Y17341742D01*
X22296068Y17213900D01*
X22475392Y16995393D01*
X22508816Y16967963D01*
X21656254Y16115400D01*
X9429634Y16115400D01*
X9485000Y16393740D01*
X9485000Y16686260D01*
X9427932Y16973158D01*
X9315990Y17243411D01*
X9153475Y17486632D01*
X9138427Y17501680D01*
X9924747Y18288000D01*
X19520000Y18288000D01*
X19520000Y17888000D01*
X19572350Y17610486D01*
X19677834Y17348517D01*
X19832399Y17112161D01*
X20030105Y16910500D01*
X20263354Y16751285D01*
X20523182Y16640633D01*
X20605961Y16623096D01*
X20828000Y16745085D01*
X20828000Y18288000D01*
X19520000Y18288000D01*
X9924747Y18288000D01*
X10578747Y18942000D01*
X19520000Y18942000D01*
X19520000Y18542000D01*
X20828000Y18542000D01*
X20828000Y20084915D01*
X20605961Y20206904D01*
X20523182Y20189367D01*
X20263354Y20078715D01*
X20030105Y19919500D01*
X19832399Y19717839D01*
X19677834Y19481483D01*
X19572350Y19219514D01*
X19520000Y18942000D01*
X10578747Y18942000D01*
X19003801Y27367054D01*
X19003801Y23382954D01*
G37*
G04 #@! TD.AperFunction*
D21*
X5587000Y16667000D02*
X5607000Y16667000D01*
X5607000Y16413000D01*
X5587000Y16413000D01*
X5587000Y16393000D01*
X5333000Y16393000D01*
X5333000Y16413000D01*
X5313000Y16413000D01*
X5313000Y16667000D01*
X5333000Y16667000D01*
X5333000Y16687000D01*
X5587000Y16687000D01*
X5587000Y16667000D01*
G04 #@! TA.AperFunction,Conductor*
D22*
G36*
X5587000Y16667000D02*
G01*
X5607000Y16667000D01*
X5607000Y16413000D01*
X5587000Y16413000D01*
X5587000Y16393000D01*
X5333000Y16393000D01*
X5333000Y16413000D01*
X5313000Y16413000D01*
X5313000Y16667000D01*
X5333000Y16667000D01*
X5333000Y16687000D01*
X5587000Y16687000D01*
X5587000Y16667000D01*
G37*
G04 #@! TD.AperFunction*
D21*
X5587000Y36987000D02*
X5607000Y36987000D01*
X5607000Y36733000D01*
X5587000Y36733000D01*
X5587000Y34447000D01*
X5607000Y34447000D01*
X5607000Y34193000D01*
X5587000Y34193000D01*
X5587000Y31907000D01*
X5607000Y31907000D01*
X5607000Y31653000D01*
X5587000Y31653000D01*
X5587000Y29367000D01*
X5607000Y29367000D01*
X5607000Y29113000D01*
X5587000Y29113000D01*
X5587000Y26827000D01*
X5607000Y26827000D01*
X5607000Y26573000D01*
X5587000Y26573000D01*
X5587000Y24287000D01*
X5607000Y24287000D01*
X5607000Y24033000D01*
X5587000Y24033000D01*
X5587000Y21747000D01*
X5607000Y21747000D01*
X5607000Y21493000D01*
X5587000Y21493000D01*
X5587000Y19207000D01*
X5607000Y19207000D01*
X5607000Y18953000D01*
X5587000Y18953000D01*
X5587000Y18933000D01*
X5333000Y18933000D01*
X5333000Y18953000D01*
X5313000Y18953000D01*
X5313000Y19207000D01*
X5333000Y19207000D01*
X5333000Y21493000D01*
X5313000Y21493000D01*
X5313000Y21747000D01*
X5333000Y21747000D01*
X5333000Y24033000D01*
X5313000Y24033000D01*
X5313000Y24287000D01*
X5333000Y24287000D01*
X5333000Y26573000D01*
X5313000Y26573000D01*
X5313000Y26827000D01*
X5333000Y26827000D01*
X5333000Y29113000D01*
X5313000Y29113000D01*
X5313000Y29367000D01*
X5333000Y29367000D01*
X5333000Y31653000D01*
X5313000Y31653000D01*
X5313000Y31907000D01*
X5333000Y31907000D01*
X5333000Y34193000D01*
X5313000Y34193000D01*
X5313000Y34447000D01*
X5333000Y34447000D01*
X5333000Y36733000D01*
X5313000Y36733000D01*
X5313000Y36987000D01*
X5333000Y36987000D01*
X5333000Y37007000D01*
X5587000Y37007000D01*
X5587000Y36987000D01*
G04 #@! TA.AperFunction,Conductor*
D22*
G36*
X5587000Y36987000D02*
G01*
X5607000Y36987000D01*
X5607000Y36733000D01*
X5587000Y36733000D01*
X5587000Y34447000D01*
X5607000Y34447000D01*
X5607000Y34193000D01*
X5587000Y34193000D01*
X5587000Y31907000D01*
X5607000Y31907000D01*
X5607000Y31653000D01*
X5587000Y31653000D01*
X5587000Y29367000D01*
X5607000Y29367000D01*
X5607000Y29113000D01*
X5587000Y29113000D01*
X5587000Y26827000D01*
X5607000Y26827000D01*
X5607000Y26573000D01*
X5587000Y26573000D01*
X5587000Y24287000D01*
X5607000Y24287000D01*
X5607000Y24033000D01*
X5587000Y24033000D01*
X5587000Y21747000D01*
X5607000Y21747000D01*
X5607000Y21493000D01*
X5587000Y21493000D01*
X5587000Y19207000D01*
X5607000Y19207000D01*
X5607000Y18953000D01*
X5587000Y18953000D01*
X5587000Y18933000D01*
X5333000Y18933000D01*
X5333000Y18953000D01*
X5313000Y18953000D01*
X5313000Y19207000D01*
X5333000Y19207000D01*
X5333000Y21493000D01*
X5313000Y21493000D01*
X5313000Y21747000D01*
X5333000Y21747000D01*
X5333000Y24033000D01*
X5313000Y24033000D01*
X5313000Y24287000D01*
X5333000Y24287000D01*
X5333000Y26573000D01*
X5313000Y26573000D01*
X5313000Y26827000D01*
X5333000Y26827000D01*
X5333000Y29113000D01*
X5313000Y29113000D01*
X5313000Y29367000D01*
X5333000Y29367000D01*
X5333000Y31653000D01*
X5313000Y31653000D01*
X5313000Y31907000D01*
X5333000Y31907000D01*
X5333000Y34193000D01*
X5313000Y34193000D01*
X5313000Y34447000D01*
X5333000Y34447000D01*
X5333000Y36733000D01*
X5313000Y36733000D01*
X5313000Y36987000D01*
X5333000Y36987000D01*
X5333000Y37007000D01*
X5587000Y37007000D01*
X5587000Y36987000D01*
G37*
G04 #@! TD.AperFunction*
D21*
X27376068Y41343900D02*
X27555392Y41125393D01*
X27755951Y40960798D01*
X23291924Y36496770D01*
X23212367Y36472637D01*
X23084680Y36404387D01*
X22972762Y36312538D01*
X22880913Y36200620D01*
X22812663Y36072933D01*
X22770635Y35934385D01*
X22770174Y35929701D01*
X22693900Y35888932D01*
X22475393Y35709608D01*
X22296068Y35491101D01*
X22227735Y35363259D01*
X22077601Y35592839D01*
X21879895Y35794500D01*
X21646646Y35953715D01*
X21386818Y36064367D01*
X21304039Y36081904D01*
X21082000Y35959915D01*
X21082000Y34417000D01*
X21102000Y34417000D01*
X21102000Y34163000D01*
X21082000Y34163000D01*
X21082000Y32620085D01*
X21304039Y32498096D01*
X21386818Y32515633D01*
X21646646Y32626285D01*
X21879895Y32785500D01*
X22077601Y32987161D01*
X22227735Y33216742D01*
X22296068Y33088900D01*
X22475392Y32870393D01*
X22693899Y32691068D01*
X22943192Y32557818D01*
X23213691Y32475764D01*
X23495000Y32448057D01*
X23776308Y32475764D01*
X24046807Y32557818D01*
X24191801Y32635319D01*
X24191800Y28324682D01*
X24046808Y28402182D01*
X23776309Y28484236D01*
X23495000Y28511943D01*
X23213692Y28484236D01*
X22943193Y28402182D01*
X22693900Y28268932D01*
X22475393Y28089608D01*
X22296068Y27871101D01*
X22225000Y27738142D01*
X22153932Y27871101D01*
X21974608Y28089608D01*
X21756101Y28268932D01*
X21506808Y28402182D01*
X21236309Y28484236D01*
X20955000Y28511943D01*
X20673692Y28484236D01*
X20473800Y28423600D01*
X20473800Y32536663D01*
X20523182Y32515633D01*
X20605961Y32498096D01*
X20828000Y32620085D01*
X20828000Y34163000D01*
X20808000Y34163000D01*
X20808000Y34417000D01*
X20828000Y34417000D01*
X20828000Y35959915D01*
X20605961Y36081904D01*
X20523182Y36064367D01*
X20473800Y36043337D01*
X20473800Y40791400D01*
X20673691Y40730764D01*
X20955000Y40703057D01*
X21236308Y40730764D01*
X21506807Y40812818D01*
X21756100Y40946068D01*
X21974607Y41125392D01*
X22153932Y41343899D01*
X22225000Y41476858D01*
X22296068Y41343900D01*
X22475392Y41125393D01*
X22693899Y40946068D01*
X22943192Y40812818D01*
X23213691Y40730764D01*
X23495000Y40703057D01*
X23776308Y40730764D01*
X24046807Y40812818D01*
X24296100Y40946068D01*
X24514607Y41125392D01*
X24693932Y41343899D01*
X24765000Y41476858D01*
X24836068Y41343900D01*
X25015392Y41125393D01*
X25233899Y40946068D01*
X25483192Y40812818D01*
X25753691Y40730764D01*
X26035000Y40703057D01*
X26316308Y40730764D01*
X26586807Y40812818D01*
X26836100Y40946068D01*
X27054607Y41125392D01*
X27233932Y41343899D01*
X27305000Y41476858D01*
X27376068Y41343900D01*
G04 #@! TA.AperFunction,Conductor*
D22*
G36*
X27376068Y41343900D02*
G01*
X27555392Y41125393D01*
X27755951Y40960798D01*
X23291924Y36496770D01*
X23212367Y36472637D01*
X23084680Y36404387D01*
X22972762Y36312538D01*
X22880913Y36200620D01*
X22812663Y36072933D01*
X22770635Y35934385D01*
X22770174Y35929701D01*
X22693900Y35888932D01*
X22475393Y35709608D01*
X22296068Y35491101D01*
X22227735Y35363259D01*
X22077601Y35592839D01*
X21879895Y35794500D01*
X21646646Y35953715D01*
X21386818Y36064367D01*
X21304039Y36081904D01*
X21082000Y35959915D01*
X21082000Y34417000D01*
X21102000Y34417000D01*
X21102000Y34163000D01*
X21082000Y34163000D01*
X21082000Y32620085D01*
X21304039Y32498096D01*
X21386818Y32515633D01*
X21646646Y32626285D01*
X21879895Y32785500D01*
X22077601Y32987161D01*
X22227735Y33216742D01*
X22296068Y33088900D01*
X22475392Y32870393D01*
X22693899Y32691068D01*
X22943192Y32557818D01*
X23213691Y32475764D01*
X23495000Y32448057D01*
X23776308Y32475764D01*
X24046807Y32557818D01*
X24191801Y32635319D01*
X24191800Y28324682D01*
X24046808Y28402182D01*
X23776309Y28484236D01*
X23495000Y28511943D01*
X23213692Y28484236D01*
X22943193Y28402182D01*
X22693900Y28268932D01*
X22475393Y28089608D01*
X22296068Y27871101D01*
X22225000Y27738142D01*
X22153932Y27871101D01*
X21974608Y28089608D01*
X21756101Y28268932D01*
X21506808Y28402182D01*
X21236309Y28484236D01*
X20955000Y28511943D01*
X20673692Y28484236D01*
X20473800Y28423600D01*
X20473800Y32536663D01*
X20523182Y32515633D01*
X20605961Y32498096D01*
X20828000Y32620085D01*
X20828000Y34163000D01*
X20808000Y34163000D01*
X20808000Y34417000D01*
X20828000Y34417000D01*
X20828000Y35959915D01*
X20605961Y36081904D01*
X20523182Y36064367D01*
X20473800Y36043337D01*
X20473800Y40791400D01*
X20673691Y40730764D01*
X20955000Y40703057D01*
X21236308Y40730764D01*
X21506807Y40812818D01*
X21756100Y40946068D01*
X21974607Y41125392D01*
X22153932Y41343899D01*
X22225000Y41476858D01*
X22296068Y41343900D01*
X22475392Y41125393D01*
X22693899Y40946068D01*
X22943192Y40812818D01*
X23213691Y40730764D01*
X23495000Y40703057D01*
X23776308Y40730764D01*
X24046807Y40812818D01*
X24296100Y40946068D01*
X24514607Y41125392D01*
X24693932Y41343899D01*
X24765000Y41476858D01*
X24836068Y41343900D01*
X25015392Y41125393D01*
X25233899Y40946068D01*
X25483192Y40812818D01*
X25753691Y40730764D01*
X26035000Y40703057D01*
X26316308Y40730764D01*
X26586807Y40812818D01*
X26836100Y40946068D01*
X27054607Y41125392D01*
X27233932Y41343899D01*
X27305000Y41476858D01*
X27376068Y41343900D01*
G37*
G04 #@! TD.AperFunction*
D21*
X30563192Y40812818D02*
X30833691Y40730764D01*
X31115000Y40703057D01*
X31396308Y40730764D01*
X31532501Y40772077D01*
X31532501Y36067400D01*
X31464039Y36081904D01*
X31242000Y35959915D01*
X31242000Y34417000D01*
X31262000Y34417000D01*
X31262000Y34163000D01*
X31242000Y34163000D01*
X31242000Y32620085D01*
X31464039Y32498096D01*
X31532501Y32512600D01*
X31532501Y32167248D01*
X28080808Y28715554D01*
X28052763Y28692538D01*
X27960914Y28580620D01*
X27909396Y28484236D01*
X27892664Y28452933D01*
X27850635Y28314385D01*
X27850174Y28309701D01*
X27773900Y28268932D01*
X27555393Y28089608D01*
X27376068Y27871101D01*
X27305000Y27738142D01*
X27233932Y27871101D01*
X27054608Y28089608D01*
X26836101Y28268932D01*
X26586808Y28402182D01*
X26316309Y28484236D01*
X26035000Y28511943D01*
X25753692Y28484236D01*
X25661800Y28456361D01*
X25661800Y32503638D01*
X25753691Y32475764D01*
X26035000Y32448057D01*
X26316308Y32475764D01*
X26586807Y32557818D01*
X26836100Y32691068D01*
X27054607Y32870392D01*
X27233932Y33088899D01*
X27305000Y33221858D01*
X27376068Y33088900D01*
X27555392Y32870393D01*
X27773899Y32691068D01*
X28023192Y32557818D01*
X28293691Y32475764D01*
X28575000Y32448057D01*
X28856308Y32475764D01*
X29126807Y32557818D01*
X29376100Y32691068D01*
X29594607Y32870392D01*
X29773932Y33088899D01*
X29842265Y33216741D01*
X29992399Y32987161D01*
X30190105Y32785500D01*
X30423354Y32626285D01*
X30683182Y32515633D01*
X30765961Y32498096D01*
X30988000Y32620085D01*
X30988000Y34163000D01*
X30968000Y34163000D01*
X30968000Y34417000D01*
X30988000Y34417000D01*
X30988000Y35959915D01*
X30765961Y36081904D01*
X30683182Y36064367D01*
X30423354Y35953715D01*
X30190105Y35794500D01*
X29992399Y35592839D01*
X29842265Y35363259D01*
X29773932Y35491101D01*
X29594608Y35709608D01*
X29376101Y35888932D01*
X29126808Y36022182D01*
X28856309Y36104236D01*
X28575000Y36131943D01*
X28293692Y36104236D01*
X28023193Y36022182D01*
X27773900Y35888932D01*
X27555393Y35709608D01*
X27376068Y35491101D01*
X27305000Y35358142D01*
X27233932Y35491101D01*
X27054608Y35709608D01*
X26836101Y35888932D01*
X26586808Y36022182D01*
X26316309Y36104236D01*
X26035000Y36131943D01*
X25804818Y36109272D01*
X30199797Y40504251D01*
X30227837Y40527262D01*
X30250850Y40555303D01*
X30250853Y40555306D01*
X30319687Y40639180D01*
X30353830Y40703057D01*
X30387937Y40766867D01*
X30424383Y40887013D01*
X30563192Y40812818D01*
G04 #@! TA.AperFunction,Conductor*
D22*
G36*
X30563192Y40812818D02*
G01*
X30833691Y40730764D01*
X31115000Y40703057D01*
X31396308Y40730764D01*
X31532501Y40772077D01*
X31532501Y36067400D01*
X31464039Y36081904D01*
X31242000Y35959915D01*
X31242000Y34417000D01*
X31262000Y34417000D01*
X31262000Y34163000D01*
X31242000Y34163000D01*
X31242000Y32620085D01*
X31464039Y32498096D01*
X31532501Y32512600D01*
X31532501Y32167248D01*
X28080808Y28715554D01*
X28052763Y28692538D01*
X27960914Y28580620D01*
X27909396Y28484236D01*
X27892664Y28452933D01*
X27850635Y28314385D01*
X27850174Y28309701D01*
X27773900Y28268932D01*
X27555393Y28089608D01*
X27376068Y27871101D01*
X27305000Y27738142D01*
X27233932Y27871101D01*
X27054608Y28089608D01*
X26836101Y28268932D01*
X26586808Y28402182D01*
X26316309Y28484236D01*
X26035000Y28511943D01*
X25753692Y28484236D01*
X25661800Y28456361D01*
X25661800Y32503638D01*
X25753691Y32475764D01*
X26035000Y32448057D01*
X26316308Y32475764D01*
X26586807Y32557818D01*
X26836100Y32691068D01*
X27054607Y32870392D01*
X27233932Y33088899D01*
X27305000Y33221858D01*
X27376068Y33088900D01*
X27555392Y32870393D01*
X27773899Y32691068D01*
X28023192Y32557818D01*
X28293691Y32475764D01*
X28575000Y32448057D01*
X28856308Y32475764D01*
X29126807Y32557818D01*
X29376100Y32691068D01*
X29594607Y32870392D01*
X29773932Y33088899D01*
X29842265Y33216741D01*
X29992399Y32987161D01*
X30190105Y32785500D01*
X30423354Y32626285D01*
X30683182Y32515633D01*
X30765961Y32498096D01*
X30988000Y32620085D01*
X30988000Y34163000D01*
X30968000Y34163000D01*
X30968000Y34417000D01*
X30988000Y34417000D01*
X30988000Y35959915D01*
X30765961Y36081904D01*
X30683182Y36064367D01*
X30423354Y35953715D01*
X30190105Y35794500D01*
X29992399Y35592839D01*
X29842265Y35363259D01*
X29773932Y35491101D01*
X29594608Y35709608D01*
X29376101Y35888932D01*
X29126808Y36022182D01*
X28856309Y36104236D01*
X28575000Y36131943D01*
X28293692Y36104236D01*
X28023193Y36022182D01*
X27773900Y35888932D01*
X27555393Y35709608D01*
X27376068Y35491101D01*
X27305000Y35358142D01*
X27233932Y35491101D01*
X27054608Y35709608D01*
X26836101Y35888932D01*
X26586808Y36022182D01*
X26316309Y36104236D01*
X26035000Y36131943D01*
X25804818Y36109272D01*
X30199797Y40504251D01*
X30227837Y40527262D01*
X30250850Y40555303D01*
X30250853Y40555306D01*
X30319687Y40639180D01*
X30353830Y40703057D01*
X30387937Y40766867D01*
X30424383Y40887013D01*
X30563192Y40812818D01*
G37*
G04 #@! TD.AperFunction*
D21*
X47061068Y57553900D02*
X47240392Y57335393D01*
X47425001Y57183888D01*
X47425000Y53725869D01*
X41438691Y47739558D01*
X41403787Y47975130D01*
X41308603Y48241292D01*
X41241671Y48366514D01*
X40997702Y48438097D01*
X40184605Y47625000D01*
X40198748Y47610857D01*
X40019143Y47431252D01*
X40005000Y47445395D01*
X39191903Y46632298D01*
X39263486Y46388329D01*
X39292341Y46374676D01*
X39090241Y46239637D01*
X38959700Y46109096D01*
X38959700Y46827336D01*
X39012298Y46811903D01*
X39825395Y47625000D01*
X39811253Y47639142D01*
X39990858Y47818747D01*
X40005000Y47804605D01*
X40818097Y48617702D01*
X40746514Y48861671D01*
X40491004Y48982571D01*
X40438163Y48995816D01*
X42404193Y50961846D01*
X42432238Y50984862D01*
X42524087Y51096780D01*
X42592337Y51224467D01*
X42634365Y51363015D01*
X42645000Y51470995D01*
X42645000Y51471004D01*
X42648555Y51507099D01*
X42645000Y51543194D01*
X42645000Y57017719D01*
X42898691Y56940764D01*
X43180000Y56913057D01*
X43461308Y56940764D01*
X43731807Y57022818D01*
X43981100Y57156068D01*
X44199607Y57335392D01*
X44378932Y57553899D01*
X44450000Y57686858D01*
X44521068Y57553900D01*
X44700392Y57335393D01*
X44918899Y57156068D01*
X45168192Y57022818D01*
X45438691Y56940764D01*
X45720000Y56913057D01*
X46001308Y56940764D01*
X46271807Y57022818D01*
X46521100Y57156068D01*
X46739607Y57335392D01*
X46918932Y57553899D01*
X46990000Y57686858D01*
X47061068Y57553900D01*
G04 #@! TA.AperFunction,Conductor*
D22*
G36*
X47061068Y57553900D02*
G01*
X47240392Y57335393D01*
X47425001Y57183888D01*
X47425000Y53725869D01*
X41438691Y47739558D01*
X41403787Y47975130D01*
X41308603Y48241292D01*
X41241671Y48366514D01*
X40997702Y48438097D01*
X40184605Y47625000D01*
X40198748Y47610857D01*
X40019143Y47431252D01*
X40005000Y47445395D01*
X39191903Y46632298D01*
X39263486Y46388329D01*
X39292341Y46374676D01*
X39090241Y46239637D01*
X38959700Y46109096D01*
X38959700Y46827336D01*
X39012298Y46811903D01*
X39825395Y47625000D01*
X39811253Y47639142D01*
X39990858Y47818747D01*
X40005000Y47804605D01*
X40818097Y48617702D01*
X40746514Y48861671D01*
X40491004Y48982571D01*
X40438163Y48995816D01*
X42404193Y50961846D01*
X42432238Y50984862D01*
X42524087Y51096780D01*
X42592337Y51224467D01*
X42634365Y51363015D01*
X42645000Y51470995D01*
X42645000Y51471004D01*
X42648555Y51507099D01*
X42645000Y51543194D01*
X42645000Y57017719D01*
X42898691Y56940764D01*
X43180000Y56913057D01*
X43461308Y56940764D01*
X43731807Y57022818D01*
X43981100Y57156068D01*
X44199607Y57335392D01*
X44378932Y57553899D01*
X44450000Y57686858D01*
X44521068Y57553900D01*
X44700392Y57335393D01*
X44918899Y57156068D01*
X45168192Y57022818D01*
X45438691Y56940764D01*
X45720000Y56913057D01*
X46001308Y56940764D01*
X46271807Y57022818D01*
X46521100Y57156068D01*
X46739607Y57335392D01*
X46918932Y57553899D01*
X46990000Y57686858D01*
X47061068Y57553900D01*
G37*
G04 #@! TD.AperFunction*
D21*
X5587000Y47147000D02*
X5607000Y47147000D01*
X5607000Y46893000D01*
X5587000Y46893000D01*
X5587000Y46873000D01*
X5333000Y46873000D01*
X5333000Y46893000D01*
X5313000Y46893000D01*
X5313000Y47147000D01*
X5333000Y47147000D01*
X5333000Y47167000D01*
X5587000Y47167000D01*
X5587000Y47147000D01*
G04 #@! TA.AperFunction,Conductor*
D22*
G36*
X5587000Y47147000D02*
G01*
X5607000Y47147000D01*
X5607000Y46893000D01*
X5587000Y46893000D01*
X5587000Y46873000D01*
X5333000Y46873000D01*
X5333000Y46893000D01*
X5313000Y46893000D01*
X5313000Y47147000D01*
X5333000Y47147000D01*
X5333000Y47167000D01*
X5587000Y47167000D01*
X5587000Y47147000D01*
G37*
G04 #@! TD.AperFunction*
D21*
X24665001Y54333348D02*
X21939924Y51608270D01*
X21879895Y51669500D01*
X21646646Y51828715D01*
X21386818Y51939367D01*
X21304039Y51956904D01*
X21082000Y51834915D01*
X21082000Y50292000D01*
X21102000Y50292000D01*
X21102000Y50038000D01*
X21082000Y50038000D01*
X21082000Y50018000D01*
X20828000Y50018000D01*
X20828000Y50038000D01*
X20808000Y50038000D01*
X20808000Y50292000D01*
X20828000Y50292000D01*
X20828000Y51834915D01*
X20738586Y51884040D01*
X24454593Y55600046D01*
X24482638Y55623062D01*
X24574487Y55734980D01*
X24642737Y55862667D01*
X24665001Y55936060D01*
X24665001Y54333348D01*
G04 #@! TA.AperFunction,Conductor*
D22*
G36*
X24665001Y54333348D02*
G01*
X21939924Y51608270D01*
X21879895Y51669500D01*
X21646646Y51828715D01*
X21386818Y51939367D01*
X21304039Y51956904D01*
X21082000Y51834915D01*
X21082000Y50292000D01*
X21102000Y50292000D01*
X21102000Y50038000D01*
X21082000Y50038000D01*
X21082000Y50018000D01*
X20828000Y50018000D01*
X20828000Y50038000D01*
X20808000Y50038000D01*
X20808000Y50292000D01*
X20828000Y50292000D01*
X20828000Y51834915D01*
X20738586Y51884040D01*
X24454593Y55600046D01*
X24482638Y55623062D01*
X24574487Y55734980D01*
X24642737Y55862667D01*
X24665001Y55936060D01*
X24665001Y54333348D01*
G37*
G04 #@! TD.AperFunction*
D21*
X17907000Y74122000D02*
X17927000Y74122000D01*
X17927000Y73868000D01*
X17907000Y73868000D01*
X17907000Y72325085D01*
X18129039Y72203096D01*
X18211818Y72220633D01*
X18315000Y72264575D01*
X18315001Y65422548D01*
X14103200Y61210746D01*
X14103200Y71239354D01*
X16345000Y73481153D01*
X16345000Y73468000D01*
X16397350Y73190486D01*
X16502834Y72928517D01*
X16657399Y72692161D01*
X16855105Y72490500D01*
X17088354Y72331285D01*
X17348182Y72220633D01*
X17430961Y72203096D01*
X17653000Y72325085D01*
X17653000Y73868000D01*
X17633000Y73868000D01*
X17633000Y74122000D01*
X17653000Y74122000D01*
X17653000Y74142000D01*
X17907000Y74142000D01*
X17907000Y74122000D01*
G04 #@! TA.AperFunction,Conductor*
D22*
G36*
X17907000Y74122000D02*
G01*
X17927000Y74122000D01*
X17927000Y73868000D01*
X17907000Y73868000D01*
X17907000Y72325085D01*
X18129039Y72203096D01*
X18211818Y72220633D01*
X18315000Y72264575D01*
X18315001Y65422548D01*
X14103200Y61210746D01*
X14103200Y71239354D01*
X16345000Y73481153D01*
X16345000Y73468000D01*
X16397350Y73190486D01*
X16502834Y72928517D01*
X16657399Y72692161D01*
X16855105Y72490500D01*
X17088354Y72331285D01*
X17348182Y72220633D01*
X17430961Y72203096D01*
X17653000Y72325085D01*
X17653000Y73868000D01*
X17633000Y73868000D01*
X17633000Y74122000D01*
X17653000Y74122000D01*
X17653000Y74142000D01*
X17907000Y74142000D01*
X17907000Y74122000D01*
G37*
G04 #@! TD.AperFunction*
M02*
